<svg xmlns="http://www.w3.org/2000/svg" xmlns:xlink="http://www.w3.org/1999/xlink" width="232" height="58" viewBox="0 0 232 58">
  <defs>
    <clipPath id="clip-path">
      <rect id="Rectángulo_8819" data-name="Rectángulo 8819" width="89" height="58" transform="translate(1045 1802)" fill="#fff" stroke="#707070" stroke-width="1"/>
    </clipPath>
  </defs>
  <g id="Grupo_78249" data-name="Grupo 78249" transform="translate(-3445.5 10922)">
    <line id="Línea_350" data-name="Línea 350" x1="232" transform="translate(3445.5 -10865.5)" fill="none" stroke="#707070" stroke-width="2" stroke-dasharray="3 3"/>
    <g id="Enmascarar_grupo_82" data-name="Enmascarar grupo 82" transform="translate(2540 -12724)" clip-path="url(#clip-path)">
      <g id="hand-saw" transform="matrix(-0.839, 0.545, -0.545, -0.839, 1129.789, 1832.389)">
        <path id="Trazado_107985" data-name="Trazado 107985" d="M39.646,7.674h3.837A13.915,13.915,0,0,1,45.759,0H7.673a7.673,7.673,0,1,0,0,15.347h6.395V11.51H29.415v3.837H42.8a16.527,16.527,0,0,1-1.88-7.673Z" transform="translate(1.279 4.97)" fill="#ffaf46"/>
        <path id="Sustracción_1" data-name="Sustracción 1" d="M5.114,0H0A16.688,16.688,0,0,0,1.684,7.284a16.7,16.7,0,0,0,4.711,5.81,15.64,15.64,0,0,0,5.114,2.713,16.184,16.184,0,0,0,5.089.818h.027a16.559,16.559,0,0,0,5.672-.993,16.553,16.553,0,0,0,4.831-2.746,16.681,16.681,0,0,0,5.743-9.351L28.126.452a11.47,11.47,0,0,1-11.5,11.056A11.523,11.523,0,0,1,5.114,0Z" transform="translate(42.205 12.645)" fill="#bebec2"/>
        <path id="Sustracción_2" data-name="Sustracción 2" d="M6.553,0h0A14.068,14.068,0,0,0,0,11.893H2.557a11.51,11.51,0,0,0,23.011.454L6.553,0h0Zm7.516,15.73a3.837,3.837,0,1,1,3.837-3.837A3.842,3.842,0,0,1,14.068,15.729Z" transform="translate(44.762 0.749)" fill="#e7e7e8"/>
        <ellipse id="Elipse_4528" data-name="Elipse 4528" cx="3.892" cy="3.614" rx="3.892" ry="3.614" transform="translate(55.049 8.975)" fill="#96949c"/>
        <path id="Trazado_107988" data-name="Trazado 107988" d="M15.347,3.837H0V0H15.347Z" transform="translate(15.347 16.48)" fill="#ffaf46"/>
        <path id="Trazado_107989" data-name="Trazado 107989" d="M0,7.366H5.116V2.711A15.737,15.737,0,0,1,0,0Z" transform="translate(48.598 25.74)" fill="#e7e7e8"/>
        <path id="Trazado_107990" data-name="Trazado 107990" d="M0,0,1.279,2.54V22.793L0,25.578H10.231L8.952,22.793V2.558L10.231,0H0Z" transform="translate(46.041 33.106)" fill="#96949c"/>
        <path id="Sustracción_3" data-name="Sustracción 3" d="M50.16,0h0A15.246,15.246,0,0,0,46.4,3.692H8.953a8.952,8.952,0,0,0,0,17.9h34.4a17.709,17.709,0,0,0,3.965,4.732v5.5H46.041A1.276,1.276,0,0,0,44.9,33.682l1.143,2.269V55.614l-1.164,2.532a1.283,1.283,0,0,0,.624,1.7,1.3,1.3,0,0,0,.54.117H56.273a1.28,1.28,0,0,0,1.278-1.278,1.293,1.293,0,0,0-.117-.535l-1.161-2.534V35.964l1.143-2.285a1.282,1.282,0,0,0-.573-1.718,1.3,1.3,0,0,0-.57-.133H54.992V30.12a17.574,17.574,0,0,0,3.838.427,17.749,17.749,0,0,0,11.126-3.885,18.008,18.008,0,0,0,6.26-9.742l-2.294-1.489A15.367,15.367,0,0,1,58.829,27.99H58.8a14.9,14.9,0,0,1-4.7-.76,14.414,14.414,0,0,1-4.717-2.5,15.392,15.392,0,0,1-5.849-10.8h2.573A12.793,12.793,0,0,0,58.816,25.437c.424,0,.858-.022,1.292-.065a12.8,12.8,0,0,0,11.45-11.447H71.6l-2.542-1.65v.369a10.231,10.231,0,1,1-20.463,0V11.365H46.131c0-.042.007-.085.009-.128v-.019c0-.058.007-.123.014-.186.02-.168.05-.337.079-.5l0-.012.016-.092c.062-.364.139-.722.236-1.091.052-.192.108-.4.171-.6.114-.349.251-.713.41-1.083.029-.067.056-.135.083-.2.035-.088.079-.2.128-.3A12.667,12.667,0,0,1,48.1,5.692l.014-.024a12.8,12.8,0,0,1,4.4-4.146L50.16,0ZM5.153,7.527h0a6.333,6.333,0,0,1,3.8-1.278H44.872c-.008.016-.014.032-.02.048l-.016.041c-.01.026-.02.053-.032.079-.156.349-.281.655-.383.939-.034.094-.066.19-.093.272l-.045.135c-.076.231-.163.5-.236.768-.04.146-.082.3-.117.453-.057.235-.111.481-.168.773l-.009.051v0c-.024.134-.047.26-.068.39-.046.278-.078.555-.111.885,0,.037-.009.074-.015.11v.01c-.007.048-.015.1-.019.154H40.926v2.562h.06l0,.064c.014.183.031.39.053.59.021.184.048.365.075.541l.006.04c.062.443.146.9.255,1.384.046.209.088.4.138.589.139.543.308,1.091.5,1.628.013.035.024.071.036.11s.023.075.037.112a.1.1,0,0,0,.016.047l0,.008H31.972V16.48A1.28,1.28,0,0,0,30.694,15.2H15.347a1.28,1.28,0,0,0-1.278,1.278v2.557H8.953a6.426,6.426,0,0,1-6.266-5.113H6.394a1.279,1.279,0,0,0,0-2.559H2.687A6.151,6.151,0,0,1,3.2,9.894a1.253,1.253,0,0,0,.641.193H8.953a1.28,1.28,0,0,0,0-2.56h-3.8Zm11.472,11.51V17.759H29.416v1.278ZM49.876,31.828v-3.67c.056.031.115.061.172.089l.127.063c.186.106.376.2.56.3l.015.008c.241.12.492.238.768.361.2.087.393.171.6.258l.12.051c.065.029.131.059.2.082v2.462Zm-1.84,25.577.445-.975A1.253,1.253,0,0,0,48.6,55.9V35.646a1.3,1.3,0,0,0-.136-.576l-.347-.687H54.2l-.355.709a1.3,1.3,0,0,0-.133.572V55.9a1.285,1.285,0,0,0,.117.534l.445.975ZM58.829,7.527a5.116,5.116,0,1,0,5.116,5.115A5.121,5.121,0,0,0,58.829,7.527Zm0,7.675a2.558,2.558,0,1,1,2.559-2.56A2.561,2.561,0,0,1,58.829,15.2Z" fill="#024b68"/>
      </g>
    </g>
  </g>
</svg>
