<svg xmlns="http://www.w3.org/2000/svg" width="315" height="41.396" viewBox="0 0 315 41.396">
  <g id="Grupo_78244" data-name="Grupo 78244" transform="translate(-950.5 -813.104)">
    <line id="Línea_335" data-name="Línea 335" x1="315" transform="translate(950.5 853.5)" fill="none" stroke="#707070" stroke-width="2" stroke-dasharray="3 3"/>
    <g id="Grupo_70739" data-name="Grupo 70739" transform="translate(1159.772 813.104)">
      <g id="Grupo_70163" data-name="Grupo 70163" transform="translate(50.666 0)">
        <path id="Trazado_106989" data-name="Trazado 106989" d="M63.18,298.391a16.116,16.116,0,0,1-11.486,1.83c-4.2-.376-4.444-.822-9.74-.982a13.925,13.925,0,0,0-10.75,4.668c-.382.409-.764.789-1.147,1.151-4.318-4.059-8.708-5.272-13.835-5.807,2.107-.328,4.188-.619,6.22-.866a31.984,31.984,0,0,0,12.468-5.61,29.884,29.884,0,0,0,6.392-7.454,15.842,15.842,0,0,1,7.95-11.275c7.365-4.213,16.48-2.18,20.321,4.531a12.887,12.887,0,0,1,1.65,5.22h0A15.428,15.428,0,0,1,63.18,298.391Zm1.164-16.366c-2.417-4.224-8.14-5.494-12.782-2.839q-.423.243-.816.517c-3.948,2.831-5.359,7.931-3.11,11.863,2.416,4.224,8.139,5.495,12.781,2.838.283-.161.554-.334.816-.518C65.181,291.056,66.592,285.955,64.344,282.025Z" transform="translate(-16.222 -271.85)" fill="#ff8a5b"/>
      </g>
      <g id="Grupo_70164" data-name="Grupo 70164" transform="translate(0 26.404)">
        <path id="Trazado_106990" data-name="Trazado 106990" d="M51.943,300.9a.324.324,0,0,1,.122-.254L52,300.628c-.135-1.15,10.13-3.972,39.1-1.174,4.387.423,8.219.476,11.709.839,5.129.535,9.519,1.749,13.837,5.807.328.31.656.629.984.971a15.051,15.051,0,0,0,4.314,3.176h-29.6c-6.594-1.193-13.114-2.581-18.928-3.916C61.1,303.5,51.943,300.9,51.943,300.9Zm56.071,8.218a2.909,2.909,0,1,0-3.169-2.622A2.908,2.908,0,0,0,108.014,309.118Z" transform="translate(-51.942 -298.255)" fill="#ff8a5b"/>
      </g>
      <g id="Grupo_70165" data-name="Grupo 70165" transform="translate(56.047 32.058)">
        <path id="Trazado_106991" data-name="Trazado 106991" d="M65.892,306a2.326,2.326,0,0,1-1.639,2.446l-.429-4.539A2.322,2.322,0,0,1,65.892,306Z" transform="translate(-63.824 -303.909)" fill="#ff8a5b"/>
      </g>
      <g id="Grupo_70166" data-name="Grupo 70166" transform="translate(53.472 32.146)">
        <path id="Trazado_106992" data-name="Trazado 106992" d="M68.05,304l.428,4.54A2.327,2.327,0,0,1,68.05,304Z" transform="translate(-66.401 -303.996)" fill="#ff8a5b"/>
      </g>
    </g>
  </g>
</svg>
