<svg xmlns="http://www.w3.org/2000/svg" width="76.442" height="71.453" viewBox="0 0 76.442 71.453">
  <g id="Grupo_78248" data-name="Grupo 78248" transform="translate(-628.558 -5046.493)">
    <g id="Grupo_70767" data-name="Grupo 70767" transform="translate(628.558 5046.493)">
      <g id="Grupo_70766" data-name="Grupo 70766" transform="translate(0 18.589)">
        <path id="Trazado_107956" data-name="Trazado 107956" d="M2722.771,2017.025c0,10.657-4.955,16.622-13.835,16.622-8.832,0-13.784-5.965-13.784-16.622s4.953-16.575,13.784-16.575C2717.816,2000.45,2722.771,2006.37,2722.771,2017.025Zm-25.511,0c0,9.613,4.12,14.824,11.676,14.824,7.606,0,11.725-5.211,11.725-14.824,0-9.66-4.119-14.775-11.725-14.775C2701.38,2002.25,2697.26,2007.365,2697.26,2017.025Z" transform="translate(-2695.152 -2000.403)" fill="#ff8a5b"/>
        <path id="Trazado_107957" data-name="Trazado 107957" d="M2816.2,2002.536l-.884,1.656a18.875,18.875,0,0,0-8.141-1.99c-8.145,0-12.364,7.009-11.432,18.233,1.226-4.926,5.251-7.862,11.087-7.862,6.624,0,10.7,3.933,10.7,10.324,0,6.632-4.368,10.655-11.088,10.655-8.045,0-12.9-5.587-12.9-15.77,0-10.511,5.152-17.473,13.442-17.473A22.116,22.116,0,0,1,2816.2,2002.536Zm-19.622,20.6c0,3.551,2.845,8.524,9.617,8.524,5.54,0,9.368-3.363,9.368-8.856,0-5.21-3.533-8.429-8.977-8.429C2800.3,2014.374,2796.575,2018.588,2796.575,2023.135Z" transform="translate(-2759.827 -2000.308)" fill="#ff8a5b"/>
      </g>
      <rect id="Rectángulo_8804" data-name="Rectángulo 8804" width="1.732" height="71.453" transform="translate(74.71 0)" fill="#a3a3a3"/>
    </g>
  </g>
</svg>
