<svg xmlns="http://www.w3.org/2000/svg" width="74.529" height="71.452" viewBox="0 0 74.529 71.452">
  <g id="Grupo_78247" data-name="Grupo 78247" transform="translate(-630.471 -4956.416)">
    <g id="Grupo_70765" data-name="Grupo 70765" transform="translate(630.471 4956.416)">
      <g id="Grupo_70764" data-name="Grupo 70764" transform="translate(0 18.635)">
        <path id="Trazado_107954" data-name="Trazado 107954" d="M2728.354,1744.642c0,10.654-4.954,16.622-13.835,16.622-8.83,0-13.784-5.967-13.784-16.622s4.955-16.576,13.784-16.576C2723.4,1728.066,2728.354,1733.987,2728.354,1744.642Zm-25.51,0c0,9.614,4.122,14.822,11.675,14.822,7.606,0,11.727-5.209,11.727-14.822,0-9.661-4.122-14.776-11.727-14.776C2706.967,1729.866,2702.845,1734.98,2702.845,1744.642Z" transform="translate(-2700.735 -1728.066)" fill="#ff8a5b"/>
        <path id="Trazado_107955" data-name="Trazado 107955" d="M2801,1730.153v12.076a28.473,28.473,0,0,1,6.916-.993c6.869,0,11.287,3.788,11.287,9.376,0,6.486-4.465,10.7-11.483,10.7a21.312,21.312,0,0,1-10.89-3.41l.885-1.659a18.994,18.994,0,0,0,9.859,3.127c5.84,0,9.517-3.362,9.517-8.667,0-4.594-3.677-7.528-9.418-7.528a32.745,32.745,0,0,0-8.587,1.371v-16.337h18.889v1.941Z" transform="translate(-2763.907 -1728.164)" fill="#ff8a5b"/>
      </g>
      <rect id="Rectángulo_8803" data-name="Rectángulo 8803" width="1.732" height="71.452" transform="translate(72.797 0)" fill="#a3a3a3"/>
    </g>
  </g>
</svg>
