<svg xmlns="http://www.w3.org/2000/svg" width="64.715" height="71.452" viewBox="0 0 64.715 71.452">
  <g id="Grupo_78243" data-name="Grupo 78243" transform="translate(-640.285 -4596.102)">
    <g id="Grupo_70757" data-name="Grupo 70757" transform="translate(640.285 4596.102)">
      <g id="Grupo_70756" data-name="Grupo 70756" transform="translate(0 18.636)">
        <path id="Trazado_107946" data-name="Trazado 107946" d="M2757,655.108c0,10.656-4.956,16.626-13.838,16.626-8.826,0-13.782-5.969-13.782-16.626s4.956-16.574,13.782-16.574C2752.044,638.534,2757,644.453,2757,655.108Zm-25.51,0c0,9.616,4.12,14.824,11.673,14.824,7.607,0,11.728-5.208,11.728-14.824,0-9.66-4.121-14.774-11.728-14.774C2735.61,640.334,2731.489,645.448,2731.489,655.108Z" transform="translate(-2729.38 -638.534)" fill="#ff8a5b"/>
        <path id="Trazado_107947" data-name="Trazado 107947" d="M2829.674,671.78V640.62h-7.211v-1.943h9.271v33.1Z" transform="translate(-2790.573 -638.63)" fill="#ff8a5b"/>
      </g>
      <rect id="Rectángulo_8799" data-name="Rectángulo 8799" width="1.732" height="71.452" transform="translate(62.983)" fill="#a3a3a3"/>
    </g>
  </g>
</svg>
