<svg xmlns="http://www.w3.org/2000/svg" width="85" height="85" viewBox="0 0 85 85">
  <g id="Grupo_58260" data-name="Grupo 58260" transform="translate(-548 -1854)">
    <rect id="Rectángulo_5554" data-name="Rectángulo 5554" width="85" height="85" transform="translate(548 1854)" fill="#fff"/>
    <g id="XMLID_1021_" transform="translate(549 1858)">
      <g id="XMLID_1170_" transform="translate(0 0)">
        <path id="XMLID_768_" d="M146.916,286.542l-6.388,6.388a4.594,4.594,0,1,1-6.5-6.5l4.5-4.5Z" transform="translate(-110.917 -238.962)" fill="#ffddcf"/>
        <path id="XMLID_1344_" d="M45.07,140.269l-6.388,6.388a4.594,4.594,0,0,1-6.5-6.5l4.5-4.5a29.768,29.768,0,0,1,47.251,6.921l4.842,8.979L82.234,176.33Z" transform="translate(-25.78 -109.399)" fill="#ffddcf"/>
        <path id="XMLID_1313_" d="M356.351,295.464l-12.678-3.4a3.281,3.281,0,0,1-2.32-4.019l7.134-26.623a3.281,3.281,0,0,1,4.019-2.32l12.678,3.4a3.281,3.281,0,0,1,2.32,4.019l-7.134,26.623A3.281,3.281,0,0,1,356.351,295.464Z" transform="translate(-285.256 -219.786)" fill="#91def5"/>
        <g id="XMLID_2768_" transform="translate(1.641 1.637)">
          <path id="XMLID_2775_" d="M0,0H14.437V54.965H0Z" transform="translate(46.876 0) rotate(45)" fill="#ff8a5b"/>
          <path id="XMLID_2774_" d="M10,285.141l8.013-18.221,10.209,10.209Z" transform="translate(-10 -228.051)" fill="#98a1b3"/>
        </g>
        <path id="XMLID_1251_" d="M160.157,240.04l-9.939-9.939a5.25,5.25,0,1,0-7.425,7.425l9.939,9.939a22.806,22.806,0,0,0,20.959,13.816h.843Z" transform="translate(-118.081 -194.35)" fill="#ffddcf"/>
        <path id="XMLID_682_" d="M80.352,61.153l-12.678-3.4a4.921,4.921,0,0,0-4.592,1.123L59.6,52.425a31.517,31.517,0,0,0-8.85-10.257l9.136-9.136a1.641,1.641,0,0,0,0-2.32L49.68,20.5a1.641,1.641,0,0,0-2.32,0l-15.42,15.42a31.408,31.408,0,0,0-22.192,9.2l-4.5,4.5A6.23,6.23,0,0,0,8.068,60.058L.139,78.09A1.641,1.641,0,0,0,2.3,80.252l18.034-7.93a6.235,6.235,0,0,0,10.436,2.827l1.786-1.786.715.715A24.414,24.414,0,0,0,54.378,88.559a4.923,4.923,0,0,0,3.615,5.328l12.678,3.4A4.92,4.92,0,0,0,76.7,93.8l1.613-6.018a1.641,1.641,0,1,0-3.169-.849l-1.613,6.018a1.642,1.642,0,0,1-2.009,1.16l-12.678-3.4a1.641,1.641,0,0,1-1.16-2.009l7.134-26.623a1.643,1.643,0,0,1,2.009-1.16l12.678,3.4a1.643,1.643,0,0,1,1.16,2.009l-1.7,6.34a1.641,1.641,0,1,0,3.169.849l1.7-6.34a4.927,4.927,0,0,0-3.48-6.028ZM56.408,31.871,33.482,54.8l-.185-.185a6.843,6.843,0,0,0-3.351-1.848L53.624,29.087Zm-7.889-7.889L51.3,26.767,14.758,63.313l-2.784-2.784ZM7.566,56.12a2.953,2.953,0,0,1,0-4.176l4.5-4.5A27.916,27.916,0,0,1,28.442,39.42l-16.7,16.7a2.956,2.956,0,0,1-4.176,0Zm2.624,7.265L17.006,70.2,4.84,75.551Zm9.673,5.032-2.784-2.784L21.708,61a6.849,6.849,0,0,0,1.845,3.354l.185.185Zm8.588,4.412a2.953,2.953,0,1,1-4.176-4.176l1.786-1.786,4.176,4.176ZM55.2,85.305A21.14,21.14,0,0,1,36.16,72.491a1.643,1.643,0,0,0-.348-.513l-9.939-9.939a3.609,3.609,0,1,1,5.1-5.1l9.939,9.939a1.641,1.641,0,1,0,2.32-2.32L35.8,57.118l12.6-12.6a28.219,28.219,0,0,1,8.312,9.465L61.307,62.5Z" transform="translate(-0.001 -20.022)" fill="#0075a4"/>
      </g>
      <g id="XMLID_928_" transform="translate(76.997 58.567)">
        <path id="XMLID_273_" d="M470.961,380.284a1.642,1.642,0,1,1,1.16-.481A1.656,1.656,0,0,1,470.961,380.284Z" transform="translate(-469.32 -377.003)" fill="#0075a4"/>
      </g>
    </g>
  </g>
</svg>
