<svg xmlns="http://www.w3.org/2000/svg" width="477.614" height="258.341" viewBox="0 0 477.614 258.341">
  <g id="Grupo_70028" data-name="Grupo 70028" transform="translate(-322.96 -541.926)">
    <g id="Grupo_70005" data-name="Grupo 70005" transform="translate(322.96 541.926)">
      <path id="Trazado_106702" data-name="Trazado 106702" d="M486.8,720.253l-88.225-51.212,146.2-84.407L633,635.846Z" transform="translate(-398.574 -461.912)" fill="#0075a4" style="mix-blend-mode: multiply;isolation: isolate"/>
      <g id="Grupo_70004" data-name="Grupo 70004" transform="translate(10.18)">
        <path id="Trazado_106703" data-name="Trazado 106703" d="M448.017,638.6c-.474,4.016,1.418,4.487,1.18,7.082s-6.373.235-10.387,3.54a18.3,18.3,0,0,1-13.932,4.016c-4.481-.709,4.725-8.027,4.725-8.027l11.331-6.847s-.235-4.249-.709-10.622-6.609-27.623-5.432-43.442,5.432-21.718,5.432-21.718l14.874,12.75s-.235,2.833-3.069,19.593-1.18,6.373.706,12.04S448.488,634.587,448.017,638.6Z" transform="translate(-360.049 -504.743)" fill="#a767c8"/>
        <path id="Trazado_106704" data-name="Trazado 106704" d="M451.836,658.189a15.012,15.012,0,0,0,.948,3.069c.706,1.653-1.892,6.611-4.726,9.207s-5.9,5.906-10.387,6.376-4.249-2.6-3.3-3.543,10.151-12.279,10.151-12.279a50.62,50.62,0,0,0,.945-20.538c-1.889-10.857-3.778-12.511-6.612-18.414s-7.082-43.912-7.082-43.912l22.9-15.812s4.249,3.775,4.72,14.636-6.606,25.5-8.733,34.7,1.18,12.511,3.775,18.178S451.836,658.189,451.836,658.189Z" transform="translate(-344.275 -505.209)" fill="#a767c8"/>
        <path id="Trazado_106705" data-name="Trazado 106705" d="M431.033,557.22s.944,8.615-.238,13.1-4.013,8.262-1.886,10.151,1.651,6.609,1.651,6.609l-2.124,9.68s10.86,9.442,21.956,6.138,14.635-9.916,14.635-9.916.474-5.193-1.889-7.788-3.3-2.834-3.3-2.834-1.654-4.487-1.654-7.318,6.376-12.04,4.487-16.054-11.1-9.916-18.178-9.207c-2.092.209-3.9.344-5.467.612C435.275,551.029,432.86,552.395,431.033,557.22Z" transform="translate(-351.327 -529.717)" fill="#ea526f"/>
        <path id="Trazado_106706" data-name="Trazado 106706" d="M436.351,572.943s6.494-5.052,8.38-10.272c3.543-9.8.218-10.831-2.124-12.158-9.8-5.546-10.04,3.428-10.86,6.494C429.5,565.387,436.351,572.943,436.351,572.943Z" transform="translate(-345.196 -531.628)" fill="#fd8e79"/>
        <g id="Grupo_69997" data-name="Grupo 69997" transform="translate(58.564 137.944)">
          <path id="Trazado_106707" data-name="Trazado 106707" d="M451.611,599.144c-.271,2.984-7.318.271-11.926,4.063a20.985,20.985,0,0,1-15.992,4.611c-5.146-.812,5.423-9.216,5.423-9.216l13.011-7.859s.742,3.387,4,2.372,4.134-2.1,4.134-2.1C449.713,595.622,451.885,596.163,451.611,599.144Z" transform="translate(-421.269 -587.989)" fill="#fc62a2"/>
          <path id="Trazado_106708" data-name="Trazado 106708" d="M427.08,610.866a18.616,18.616,0,0,1-2.878-.221,2.367,2.367,0,0,1-2.2-1.671c-.721-2.736,4.758-7.45,7.147-9.354l14.338-8.668.3,1.392a2.7,2.7,0,0,0,1.059,1.559,2.005,2.005,0,0,0,1.636.056,9.085,9.085,0,0,0,3.669-1.792l2.139-2.36-.356,3.142a7.718,7.718,0,0,0,.665,4.549,6.744,6.744,0,0,1,.691,3.554c-.209,2.3-2.648,2.469-5,2.636-2.3.159-5.146.359-7.288,2.124A22.4,22.4,0,0,1,427.08,610.866Zm-3.107-2.41a1.217,1.217,0,0,0,.547.173,20.153,20.153,0,0,0,15.189-4.39c2.642-2.177,5.994-2.413,8.439-2.586,1.851-.13,3.066-.253,3.116-.786a4.829,4.829,0,0,0-.541-2.577,9.555,9.555,0,0,1-.889-3.475,17.4,17.4,0,0,1-2.739,1.089,3.952,3.952,0,0,1-3.278-.241,4.118,4.118,0,0,1-1.521-1.609l-11.984,7.241C426.833,604.072,423.7,607.588,423.973,608.456Z" transform="translate(-421.937 -589.807)" fill="#b53e77"/>
        </g>
        <path id="Trazado_106709" data-name="Trazado 106709" d="M446.713,607.193c-2.833,2.6-5.9,5.906-10.387,6.376s-4.249-2.6-3.3-3.543,10.151-12.279,10.151-12.279,1.654,1.657,4.308.062,3.01-2.893,3.01-2.893a15.012,15.012,0,0,0,.948,3.069C452.145,599.64,449.547,604.6,446.713,607.193Z" transform="translate(-342.93 -441.938)" fill="#fc62a2"/>
        <g id="Grupo_70003" data-name="Grupo 70003" transform="translate(0 52.98)">
          <g id="Grupo_70001" data-name="Grupo 70001">
            <g id="Grupo_69998" data-name="Grupo 69998" transform="translate(130.515 7.818)">
              <path id="Trazado_106710" data-name="Trazado 106710" d="M446.39,563.588v71.7l75.588,43.927v-71.7Z" transform="translate(-446.39 -563.588)" fill="#98c4da"/>
              <path id="Trazado_106711" data-name="Trazado 106711" d="M472.079,580.09v71.7l4.126-2.382v-71.7Z" transform="translate(-396.491 -536.163)" fill="#7a9dc2"/>
            </g>
            <g id="Grupo_70000" data-name="Grupo 70000" style="isolation: isolate">
              <g id="Grupo_69999" data-name="Grupo 69999" transform="translate(3.897 80.92)">
                <path id="Trazado_106712" data-name="Trazado 106712" d="M403.358,588.433v71.7l75.588,43.927v-71.7Z" transform="translate(-403.358 -588.433)" fill="#98c4da"/>
                <path id="Trazado_106713" data-name="Trazado 106713" d="M429.047,604.934v71.7l4.126-2.382v-71.7Z" transform="translate(-353.459 -561.007)" fill="#7a9dc2"/>
              </g>
              <path id="Trazado_106714" data-name="Trazado 106714" d="M402.034,588.433v4.4l75.588,43.927v-4.4Z" transform="translate(-402.034 -507.513)" fill="#7a9dc2"/>
              <path id="Trazado_106715" data-name="Trazado 106715" d="M427.723,656.782v4.4l140.16-80.92v-4.4Z" transform="translate(-352.135 -531.935)" fill="#557999"/>
              <path id="Trazado_106716" data-name="Trazado 106716" d="M402.034,641.852l75.588,43.927,140.16-80.922-75.6-43.925Z" transform="translate(-402.034 -560.931)" fill="#98c4da"/>
            </g>
          </g>
          <path id="Trazado_106717" data-name="Trazado 106717" d="M587.654,595.93,461.621,668.7l-56.633-32.7,126.033-72.774,7.4,4.269-30.447,17.449,40.757-10.875Z" transform="translate(-396.295 -556.458)" fill="#4e2567"/>
          <path id="Trazado_106718" data-name="Trazado 106718" d="M433.652,602.59a4.867,4.867,0,0,1-.126,3,7.415,7.415,0,0,1-1.9,1.977s15.609.953,15.23,1.174-17.134.365-17.134.365a9,9,0,0,1-4.7,2.713,67.149,67.149,0,0,1-8.25,1.392l3.807,5.861s9.519-.221,13.709,1.171,5.2,2.713,5.2,2.713l67.14-38.763-22.845-13.191s-18.658,11.358-20.941,13.264-8.25,7.4-11.932,10.113S433.652,602.59,433.652,602.59Z" transform="translate(-373.407 -541.363)" fill="#fddaa5"/>
          <path id="Trazado_106719" data-name="Trazado 106719" d="M434.178,571.355l2.245-.588s5.664,1,6.138,1.768a7.809,7.809,0,0,0,2.183,2.068c.471.235.709.589-.533.589a4.176,4.176,0,0,1-2.124-.589l-6.788-1.712s5.2,1.948,5.667,2.775a3.189,3.189,0,0,0,1.948,1.592c.768.177.768.885-.177,1.062s-1-.118-1-.118,1.356,1.062.471,1.18a7.4,7.4,0,0,1-3.245-.765,7.008,7.008,0,0,1-2.892-2.068l-3.716-2.007s3.481,2.539,3.893,3.484a6.743,6.743,0,0,0,1.948,2.419c.356.118.533.65-.647.65a5.027,5.027,0,0,1-3.128-1.595c-.179-.412-3.6-2.595-4.84-3.54s-.059-4.546-.059-4.546Z" transform="translate(-349.635 -541.827)" fill="#fbab79"/>
          <path id="Trazado_106720" data-name="Trazado 106720" d="M445.718,579.943c.93-.718,6.865-9.5,6.865-9.5l-1.465-1.3-6.008,9.613L431.3,589a8.524,8.524,0,0,0,3.525-1.18A109.669,109.669,0,0,0,445.718,579.943Z" transform="translate(-345.192 -544.979)" fill="#98c4da"/>
          <path id="Trazado_106721" data-name="Trazado 106721" d="M446.058,579.989c.93-.721,6.865-9.5,6.865-9.5l-1.465-1.3-6.008,9.613-14.141,10.137a8.218,8.218,0,0,0,3.854-1.077A109.66,109.66,0,0,0,446.058,579.989Z" transform="translate(-345.171 -544.89)" fill="#7a9dc2"/>
          <g id="Grupo_70002" data-name="Grupo 70002" transform="translate(85.714 26.663)">
            <path id="Trazado_106722" data-name="Trazado 106722" d="M450.59,572.851c-.068-.074-4.552,2.545-4.552,2.545l-14.874,6.632s7.071-4.367,10.813-6.355a65.333,65.333,0,0,0,7.691-5.032l1.951.489Z" transform="translate(-431.164 -568.734)" fill="#d4f6ff"/>
            <path id="Trazado_106723" data-name="Trazado 106723" d="M450.925,572.9c-.068-.074-4.555,2.548-4.555,2.548l-15.206,6.629s7.406-4.364,11.146-6.353A65.729,65.729,0,0,0,450,570.686l1.951.492Z" transform="translate(-431.164 -568.647)" fill="#557999"/>
            <path id="Trazado_106724" data-name="Trazado 106724" d="M446.176,570.067c-.741-.495-2.957,1.668-5.182,1.733,0,0-2.863.276-3.5,2.66s1.786,3.9,3.672,3.469C444.108,577.255,448.065,571.323,446.176,570.067Zm-4.958,5.852c-1.486.341-2.4-.438-2.377-1.121a1.139,1.139,0,0,1,.044-.256,1.473,1.473,0,0,1,1.339-.971,9.142,9.142,0,0,0,3.725-1.345c.341-.182.986-.921,1.042-.253a2.96,2.96,0,0,1-.433,1.33A5.537,5.537,0,0,1,441.218,575.919Z" transform="translate(-419.08 -569.993)" fill="#b53e77"/>
            <path id="Trazado_106725" data-name="Trazado 106725" d="M445.5,570.327c-.259-.853-2.96,1.668-5.184,1.736,0,0-1.842-.041-2.483,2.339s1.039,3.437,2.922,3.007C443.7,576.736,446.288,572.969,445.5,570.327Zm-4.528,5.591c-1.486.338-2.4-.439-2.38-1.124a1.166,1.166,0,0,1,.044-.256,1.467,1.467,0,0,1,1.339-.968,9.1,9.1,0,0,0,3.725-1.348c.341-.182.986-.918,1.045-.25a3,3,0,0,1-.433,1.327A5.559,5.559,0,0,1,440.968,575.918Z" transform="translate(-418.488 -569.686)" fill="#fb4ea1"/>
          </g>
          <path id="Trazado_106726" data-name="Trazado 106726" d="M443.423,567.688c-1.821-.556-4.9,3.725-5.467,4.723s-.815,1.595.862,2.286a4.787,4.787,0,0,0,4.116-.583C444.391,572.828,446.695,568.688,443.423,567.688Zm-1.248,4.137c-1.015.786-1.942.771-2.071-.029s.206-1.412,1.221-2.2,2-.671,2.133.132S443.19,571.039,442.175,571.825Z" transform="translate(-333.093 -547.904)" fill="#b53e77"/>
          <path id="Trazado_106727" data-name="Trazado 106727" d="M443.629,567.778c-1.836-.512-5.132,4.3-5.705,5.3s-.153,1,1.527,1.692c1.2.491,2.892-.291,3.719-1.021C444.627,572.463,446.148,568.484,443.629,567.778Zm-1.483,4.714c-1.015.786-1.942.771-2.072-.029a3.722,3.722,0,0,1,1.6-2.872c1.015-.786,1.942-.771,2.071.029A3.721,3.721,0,0,1,442.147,572.492Z" transform="translate(-332.788 -547.706)" fill="#fb4ea1"/>
          <path id="Trazado_106728" data-name="Trazado 106728" d="M484.462,575.809s-7.238-3.4-11.608-3.5-32.625,5.388-32.625,5.388,35.065-11.181,39.434-10.875S484.462,575.809,484.462,575.809Z" transform="translate(-327.842 -549.505)" fill="#734393"/>
        </g>
        <path id="Trazado_106729" data-name="Trazado 106729" d="M445.917,564.868l.709-14.4s-11.8,3.069-13.694,10.151-.471,7.082-4.249,12.985-7.791,8.969-5.9,16.289,10.625,19.829,12.514,20.773,7.318,4.723,7.318,4.723,6.847-3.245,7.318-4.425-9.325-3.719-10.269-4.193-5.549-9.089-5.549-12.158-1.886-7.082-1.886-7.082,6.844-19.829,11.1-21.012S445.917,564.868,445.917,564.868Z" transform="translate(-362.672 -528.276)" fill="#fbab79"/>
        <path id="Trazado_106730" data-name="Trazado 106730" d="M450.315,566.547s-3.187-14.874-7.791-14.694-4.958,8.5-4.958,8.5,1.418,4.249,3.366,5.491,6.726,14.694,6.726,14.694a5.523,5.523,0,0,0-2.125,3.9c0,2.3.886,6.02.709,8.321a38.168,38.168,0,0,1-1.595,6.553,8.755,8.755,0,0,1-1.768.412c-.533,0-1.683,1.386-2.216,2.095a12.615,12.615,0,0,0-1.033,2.881,9.248,9.248,0,0,0,1.871.374c.383-1.254.874-2.489,3.028-2.339.559.038-.945,3.66-.945,3.66l-2.124,2.831a2.91,2.91,0,0,0-2.3.709c-.709.886-.886,0,1.592,1.062s4.6-1.771,5.135-2.124a4.4,4.4,0,0,0,2.833-3.719,47.445,47.445,0,0,1,.533-6.373c.353-1.415,5.311-12.57,5.664-17.175S450.315,566.547,450.315,566.547Z" transform="translate(-333.015 -525.589)" fill="#fbab79"/>
        <path id="Trazado_106731" data-name="Trazado 106731" d="M433.652,558.389l-2.124,1.062-.591-1.889-.235-3.9s-.945-10.858,9.563-10.74,8.145,14.165,8.145,14.165-1.536,4.014-1.889,4.131a36.226,36.226,0,0,1-9.325-.591C434,559.8,433.652,558.389,433.652,558.389Z" transform="translate(-346.393 -542.926)" fill="#4e2567"/>
        <path id="Trazado_106732" data-name="Trazado 106732" d="M431.625,547.431s-1.533-2.242-1.415-.827a12.207,12.207,0,0,0,.706,4.134,5.29,5.29,0,0,1,.591,1.768s.235,6.255,1.18,7.791,3.425,6.138,4.487,6.965,3.3.709,3.9.118,5.546-5.076,6.255-7.083,1.415-4.84,1.415-4.84,2.125-2.242,2.242-4.014.474-2.951-.353-2.007-2.6,5.667-2.6,5.667-.118-4.013-1.768-4.366c-1.8-.389-2.6,1.768-6.259,2.124s-5.547-2.951-6.373-3.187-1.3,1.651-1.3,1.651Z" transform="translate(-347.317 -536.691)" fill="#fbab79"/>
        <path id="Trazado_106733" data-name="Trazado 106733" d="M437.568,557.513a6.125,6.125,0,0,0,.474,5.549c1.771,2.713,5.9,5.9,6.138,8.38a11.1,11.1,0,0,0,1.415,4.367s7.674.235,8.5-3.069-4.37-25.26-13.576-20.891C435.826,554.074,437.568,557.513,437.568,557.513Z" transform="translate(-333.902 -526.706)" fill="#ea526f"/>
        <path id="Trazado_106734" data-name="Trazado 106734" d="M444.329,556.523l-.709-6.255s-9.207,3.069-11.8,5.785-4.131,9.916-4.131,11.214-3.778,8.5-3.778,8.5,1.062,5.667,5.549,6.02a5.288,5.288,0,0,0,5.667-3.422s1.886-8.971,4.131-9.681,4.6-1.651,4.6-1.651Z" transform="translate(-359.548 -528.666)" fill="#ea526f"/>
        <path id="Trazado_106735" data-name="Trazado 106735" d="M435.422,606.916a.256.256,0,0,1-.129-.477l3.534-2.039a.255.255,0,1,1,.256.441l-3.534,2.039A.247.247,0,0,1,435.422,606.916Zm-3.531-.109a.26.26,0,0,1-.13-.035l-3.531-2.039a.254.254,0,1,1,.253-.441l3.534,2.039a.258.258,0,0,1,.094.347A.262.262,0,0,1,431.891,606.807Zm10.6-3.969a.256.256,0,0,1-.127-.477l3.531-2.039a.255.255,0,0,1,.256.441l-3.534,2.039A.241.241,0,0,1,442.487,602.838Zm-17.66-.112a.256.256,0,0,1-.13-.032l-3.531-2.039a.256.256,0,0,1,.253-.444l3.534,2.042a.255.255,0,0,1,.094.347A.251.251,0,0,1,424.826,602.726Zm-1.489-3.219a.252.252,0,0,1-.221-.126.259.259,0,0,1,.094-.35l3.531-2.039a.256.256,0,0,1,.256.444l-3.534,2.039A.238.238,0,0,1,423.337,599.507Zm26.214-.75a.253.253,0,0,1-.127-.474l2.4-1.389-.359-.209a.258.258,0,0,1-.094-.35.252.252,0,0,1,.347-.091l1.127.65-3.172,1.83A.238.238,0,0,1,449.551,598.757ZM430.4,595.429a.258.258,0,0,1-.221-.127.255.255,0,0,1,.094-.35l3.531-2.039a.254.254,0,0,1,.253.441l-3.531,2.039A.241.241,0,0,1,430.4,595.429Zm17.66-.75a.281.281,0,0,1-.127-.032l-3.534-2.039a.262.262,0,0,1-.094-.35.256.256,0,0,1,.35-.094l3.534,2.039a.258.258,0,0,1,.091.35A.252.252,0,0,1,448.062,594.679Zm-10.6-3.328a.257.257,0,0,1-.13-.477l2.545-1.468,1.245.718a.255.255,0,1,1-.256.441l-.989-.571-2.289,1.321A.241.241,0,0,1,437.467,591.351Z" transform="translate(-365.121 -452.642)" fill="#d4f6ff"/>
        <path id="Trazado_106736" data-name="Trazado 106736" d="M443.4,610.293l-.585-.365a.259.259,0,0,1-.079-.353.255.255,0,0,1,.35-.079l.327.2L446.35,608a.255.255,0,1,1,.256.441ZM439.5,607.8a.248.248,0,0,1-.135-.038l-3.784-2.369,2.313-1.618a.255.255,0,1,1,.291.418l-1.68,1.177,3.131,1.96a.256.256,0,0,1-.135.471Zm10.513-1.365a.253.253,0,0,1-.126-.474l3.531-2.042a.256.256,0,1,1,.256.444l-3.534,2.039A.239.239,0,0,1,450.01,606.438Zm7.065-4.078a.256.256,0,0,1-.129-.477l3.534-2.039a.255.255,0,1,1,.256.441l-3.534,2.042A.277.277,0,0,1,457.075,602.36Zm-15.7-.456a.249.249,0,0,1-.209-.109.255.255,0,0,1,.065-.353l3.343-2.339a.256.256,0,1,1,.291.421l-3.343,2.336A.269.269,0,0,1,441.378,601.9Zm22.762-3.622a.255.255,0,0,1-.126-.477l3.531-2.039a.255.255,0,0,1,.256.441l-3.534,2.039A.242.242,0,0,1,464.14,598.282Zm-16.074-1.05a.262.262,0,0,1-.212-.109.258.258,0,0,1,.065-.356l3.343-2.339a.252.252,0,0,1,.353.065.258.258,0,0,1-.062.356l-3.343,2.336A.271.271,0,0,1,448.066,597.231ZM471.2,594.2a.256.256,0,0,1-.127-.477l3.531-2.039a.254.254,0,0,1,.253.441l-3.531,2.039A.241.241,0,0,1,471.2,594.2Zm-16.457-1.648a.255.255,0,0,1-.144-.465l3.343-2.339a.255.255,0,1,1,.291.418l-3.343,2.339A.25.25,0,0,1,454.748,592.556Zm23.522-2.433a.254.254,0,0,1-.13-.474l3.534-2.039a.257.257,0,0,1,.35.091.261.261,0,0,1-.094.35L478.4,590.09A.239.239,0,0,1,478.269,590.122Zm-16.837-2.242a.255.255,0,0,1-.144-.465l3.343-2.339a.25.25,0,0,1,.353.065.254.254,0,0,1-.062.353l-3.343,2.339A.249.249,0,0,1,461.433,587.88Zm23.9-1.836a.255.255,0,0,1-.13-.477l3.534-2.039a.256.256,0,1,1,.256.444l-3.534,2.039A.253.253,0,0,1,485.334,586.044ZM468.118,583.2a.256.256,0,0,1-.147-.465l3.345-2.339a.253.253,0,0,1,.353.065.258.258,0,0,1-.062.356l-3.346,2.336A.241.241,0,0,1,468.118,583.2Zm24.281-1.239a.258.258,0,0,1-.221-.127.256.256,0,0,1,.094-.35l3.531-2.039a.254.254,0,1,1,.253.441l-3.531,2.042A.27.27,0,0,1,492.4,581.966Zm-17.519-3.31a.254.254,0,0,1-.109-.483,20.858,20.858,0,0,1,3.875-1.409.255.255,0,0,1,.126.494,20.313,20.313,0,0,0-3.781,1.371A.251.251,0,0,1,474.88,578.656Zm19.876-.586a24.182,24.182,0,0,0-3.966-1.133.257.257,0,0,1-.2-.3.249.249,0,0,1,.3-.2,22.81,22.81,0,0,1,3.96,1.142.255.255,0,0,1-.094.491Zm-12.034-1.509a.253.253,0,0,1-.253-.23.259.259,0,0,1,.229-.279,28.679,28.679,0,0,1,4.113-.1.256.256,0,0,1,.241.268.265.265,0,0,1-.265.241,28.55,28.55,0,0,0-4.043.1Z" transform="translate(-336.876 -478.843)" fill="#d4f6ff"/>
        <path id="Trazado_106737" data-name="Trazado 106737" d="M433.093,551.359s8.027-.945,9.089,3.54.541,5.938,2.124,6.729c1.889.944,3.66-.827,3.66-.827s-4.013.118-2.951-3.778.256-9.172-3.187-9.916C435.809,545.809,433.093,551.359,433.093,551.359Z" transform="translate(-341.704 -535.186)" fill="#4e2567"/>
      </g>
    </g>
    <g id="Grupo_70027" data-name="Grupo 70027" transform="translate(566.151 545.237)">
      <path id="Trazado_106738" data-name="Trazado 106738" d="M467.349,722.72l88.225-51.212L409.376,587.1l-88.225,51.213Z" transform="translate(-321.151 -471.002)" fill="#0075a4" style="mix-blend-mode: multiply;isolation: isolate"/>
      <g id="Grupo_70026" data-name="Grupo 70026" transform="translate(10.292)">
        <g id="Grupo_70010" data-name="Grupo 70010" transform="translate(138.127 52.43)">
          <g id="Grupo_70006" data-name="Grupo 70006" transform="translate(3.803 82.308)">
            <path id="Trazado_106739" data-name="Trazado 106739" d="M388.228,597.365s-6.338,8.006-8.342,9.007-5.67,2-6.338,5.338-.415,4.169,2,4.337,8.339-.836,10.758-4.172,3.084-4.5,5.5-4.834,7.174-1.254,6.256-5.755-6.005-7.424-6.005-7.424Z" transform="translate(-372.213 -592.608)" fill="#a3c8d8"/>
            <path id="Trazado_106740" data-name="Trazado 106740" d="M376.775,617.91c-.224,0-.43-.006-.621-.021a3.569,3.569,0,0,1-2.742-1.106c-.718-.942-.621-2.289-.191-4.446.659-3.3,3.757-4.658,5.805-5.558.391-.171.756-.332,1.077-.491,1.309-.656,5.6-5.7,8-8.727l4.5-4.125.644.371c.224.127,5.5,3.2,6.5,8.1a4.982,4.982,0,0,1-.706,4.028c-1.445,2.042-4.352,2.654-6.411,2.939-1.742.241-2.242.853-4.3,3.716l-.512.709C385.358,616.68,379.767,617.91,376.775,617.91Zm12.873-19.02c-1.195,1.507-6.564,8.189-8.633,9.221-.347.174-.745.347-1.168.533-1.957.862-4.172,1.836-4.625,4.093-.121.6-.483,2.419-.188,2.81.056.071.286.241,1.259.309,2.427.177,7.827-.942,9.866-3.751l.506-.7c2.066-2.869,3.01-4.175,5.682-4.546.968-.132,3.922-.538,5.023-2.095a2.993,2.993,0,0,0,.371-2.445c-.633-3.1-3.593-5.446-4.9-6.344Z" transform="translate(-372.885 -593.435)" fill="#fb4ea1"/>
          </g>
          <g id="Grupo_70007" data-name="Grupo 70007" transform="translate(3.803 80.972)">
            <path id="Trazado_106741" data-name="Trazado 106741" d="M388.228,596.91s-6.338,8.006-8.342,9.007-5.67,2-6.338,5.338-.415,4.169,2,4.337,8.339-.833,10.758-4.169,3.084-4.5,5.5-4.837,7.174-1.25,6.256-5.755-6.005-7.421-6.005-7.421Z" transform="translate(-372.213 -592.152)" fill="#557999"/>
            <path id="Trazado_106742" data-name="Trazado 106742" d="M376.775,617.459c-.224,0-.43-.009-.621-.02a3.57,3.57,0,0,1-2.742-1.106c-.718-.945-.621-2.292-.191-4.449.659-3.3,3.757-4.658,5.805-5.555.391-.174.756-.333,1.077-.492,1.309-.656,5.6-5.7,8-8.73l4.5-4.125.644.371c.224.13,5.5,3.207,6.5,8.1a4.989,4.989,0,0,1-.706,4.031c-1.445,2.042-4.352,2.654-6.411,2.939-1.745.238-2.242.853-4.3,3.716l-.509.706C385.358,616.229,379.767,617.459,376.775,617.459Zm12.873-19.02c-1.195,1.5-6.564,8.186-8.633,9.221-.347.174-.745.347-1.168.533-1.957.859-4.172,1.833-4.625,4.09-.121.6-.483,2.422-.188,2.81.056.071.286.244,1.259.309,2.427.173,7.827-.939,9.866-3.749l.506-.7c2.066-2.869,3.01-4.178,5.682-4.546.968-.135,3.919-.542,5.023-2.1a2.986,2.986,0,0,0,.371-2.442c-.633-3.107-3.593-5.446-4.9-6.344Z" transform="translate(-372.885 -592.981)" fill="#fb4ea1"/>
          </g>
          <path id="Trazado_106743" data-name="Trazado 106743" d="M390.407,568.523s-20.679,42.7-18.678,48.035,17.678,25.687,17.345,29.024,5.67,2.669,7.674,1.333,1-6,1-6-3.337-15.68-5.673-19.349a57.588,57.588,0,0,0-4.67-6.338l16.345-31.69,1.336-14.344Z" transform="translate(-371.593 -559.516)" fill="#4e2567"/>
          <g id="Grupo_70008" data-name="Grupo 70008" transform="translate(28.857 98.311)">
            <path id="Trazado_106744" data-name="Trazado 106744" d="M388.282,601.055s-.585,7.506-2,10.34-6.338,7.588-3.837,10.925,8.506.335,10.675-2.919,2.169-7.506,3.669-9.757-.918-6.756-1.336-9.424S388.282,601.055,388.282,601.055Z" transform="translate(-380.726 -598.206)" fill="#98c4da"/>
            <path id="Trazado_106745" data-name="Trazado 106745" d="M386.223,625.465A4.687,4.687,0,0,1,382.3,623.6c-2.313-3.081.321-6.885,2.248-9.66a22.559,22.559,0,0,0,1.492-2.333c1.089-2.177,1.739-7.93,1.9-9.963l.044-.565.5-.262c1.253-.647,5.5-2.689,7.527-1.657a2.065,2.065,0,0,1,1.124,1.571,20.4,20.4,0,0,0,.742,2.7c.818,2.566,1.745,5.473.432,7.441a13.156,13.156,0,0,0-1.321,3.719,19.243,19.243,0,0,1-2.348,6.041c-1.533,2.3-5.037,4.737-8.239,4.825C386.343,625.465,386.282,625.465,386.223,625.465Zm3.7-23.086c-.171,1.854-.788,7.606-2.054,10.14a23.12,23.12,0,0,1-1.642,2.583c-2.11,3.042-3.616,5.508-2.289,7.274a2.724,2.724,0,0,0,2.41,1.047,9.557,9.557,0,0,0,6.6-3.919,17.478,17.478,0,0,0,2.068-5.42,14.453,14.453,0,0,1,1.6-4.337c.771-1.153-.032-3.669-.677-5.69a21.345,21.345,0,0,1-.815-3.01C394.706,600.646,392.367,601.2,389.921,602.379Z" transform="translate(-381.4 -598.874)" fill="#fb4ea1"/>
          </g>
          <g id="Grupo_70009" data-name="Grupo 70009" transform="translate(28.857 96.975)">
            <path id="Trazado_106746" data-name="Trazado 106746" d="M388.282,600.6s-.585,7.506-2,10.343-6.338,7.588-3.837,10.925,8.506.332,10.675-2.919,2.169-7.506,3.669-9.757-.918-6.756-1.336-9.425S388.282,600.6,388.282,600.6Z" transform="translate(-380.726 -597.75)" fill="#557999"/>
            <path id="Trazado_106747" data-name="Trazado 106747" d="M386.223,625.011a4.691,4.691,0,0,1-3.919-1.863c-2.313-3.083.321-6.885,2.248-9.66a22.559,22.559,0,0,0,1.492-2.333c1.089-2.177,1.739-7.933,1.9-9.963l.044-.568.5-.259c1.253-.65,5.5-2.692,7.527-1.659a2.07,2.07,0,0,1,1.124,1.574,20.5,20.5,0,0,0,.742,2.7c.818,2.566,1.745,5.473.432,7.441a13.134,13.134,0,0,0-1.321,3.716,19.244,19.244,0,0,1-2.348,6.041c-1.533,2.3-5.037,4.737-8.239,4.826Zm3.7-23.086c-.171,1.854-.788,7.606-2.054,10.142a23.121,23.121,0,0,1-1.642,2.583c-2.11,3.04-3.616,5.508-2.289,7.274a2.71,2.71,0,0,0,2.41,1.047,9.567,9.567,0,0,0,6.6-3.919,17.532,17.532,0,0,0,2.068-5.42,14.47,14.47,0,0,1,1.6-4.34c.771-1.15-.032-3.666-.677-5.688a21.365,21.365,0,0,1-.815-3.013C394.706,600.2,392.367,600.745,389.921,601.925Z" transform="translate(-381.4 -598.42)" fill="#fb4ea1"/>
          </g>
          <path id="Trazado_106748" data-name="Trazado 106748" d="M379.688,573.468s6.338,17.346,6.338,21.015-4.337,33.358-2.669,39.031,9.007,26.352,8.006,28.688.668,5,.668,5,7.006,2.669,8.339,0,2.669-3,2.669-3,2.669-26.02,0-28.356a14.616,14.616,0,0,1-3.669-4.67s10.675-41.7,8.674-52.372A17.259,17.259,0,0,0,396.7,565.462Z" transform="translate(-355.868 -565.462)" fill="#61317c"/>
        </g>
        <g id="Grupo_70016" data-name="Grupo 70016" transform="translate(0 49.225)">
          <g id="Grupo_70011" data-name="Grupo 70011" transform="translate(125.797 84.618)">
            <path id="Trazado_106749" data-name="Trazado 106749" d="M367.773,602.583c.274,2.984,7.318.274,11.926,4.066a21.008,21.008,0,0,0,15.992,4.611c5.149-.815-5.423-9.219-5.423-9.219l-13.008-7.856s-.744,3.387-4,2.369-4.134-2.1-4.134-2.1C369.671,599.064,367.5,599.6,367.773,602.583Z" transform="translate(-366.729 -591.084)" fill="#fc62a2"/>
            <path id="Trazado_106750" data-name="Trazado 106750" d="M393.645,614.537a22.367,22.367,0,0,1-13.921-5.055c-2.145-1.762-5-1.963-7.288-2.124-2.357-.165-4.793-.338-5.005-2.633a6.724,6.724,0,0,1,.694-3.557,7.731,7.731,0,0,0,.665-4.546l-.415-3.49,2.216,2.725a9.128,9.128,0,0,0,3.649,1.771,2,2,0,0,0,1.645-.059,2.776,2.776,0,0,0,1.05-1.557l.306-1.389,14.229,8.595c2.5,1.974,7.977,6.688,7.253,9.427a2.365,2.365,0,0,1-2.2,1.668A18.725,18.725,0,0,1,393.645,614.537Zm-22.754-16.054a9.561,9.561,0,0,1-.886,3.475,4.816,4.816,0,0,0-.544,2.58c.05.53,1.265.653,3.119.786,2.445.171,5.794.406,8.436,2.583A20.134,20.134,0,0,0,396.2,612.3a1.04,1.04,0,0,0,.556-.188c.268-.853-2.866-4.369-6.456-7.224l-11.875-7.165a4.13,4.13,0,0,1-1.521,1.606,3.949,3.949,0,0,1-3.278.244A17.351,17.351,0,0,1,370.891,598.483Z" transform="translate(-367.402 -593.131)" fill="#b53e77"/>
          </g>
          <g id="Grupo_70015" data-name="Grupo 70015">
            <g id="Grupo_70012" data-name="Grupo 70012" transform="translate(5.519 7.818)">
              <path id="Trazado_106751" data-name="Trazado 106751" d="M403.515,567.03v71.7l-75.588,43.927v-71.7Z" transform="translate(-323.801 -567.03)" fill="#98c4da"/>
              <path id="Trazado_106752" data-name="Trazado 106752" d="M330.651,583.531v71.7l-4.126-2.382v-71.7Z" transform="translate(-326.525 -539.604)" fill="#7a9dc2"/>
            </g>
            <g id="Grupo_70014" data-name="Grupo 70014" style="isolation: isolate">
              <g id="Grupo_70013" data-name="Grupo 70013" transform="translate(132.137 80.921)">
                <path id="Trazado_106753" data-name="Trazado 106753" d="M446.547,591.875v71.7L370.959,707.5V635.8Z" transform="translate(-366.833 -591.875)" fill="#98c4da"/>
                <path id="Trazado_106754" data-name="Trazado 106754" d="M373.683,608.376v71.7l-4.126-2.382v-71.7Z" transform="translate(-369.557 -564.449)" fill="#7a9dc2"/>
              </g>
              <path id="Trazado_106755" data-name="Trazado 106755" d="M447.871,591.875v4.4L372.284,640.2v-4.4Z" transform="translate(-232.124 -510.954)" fill="#7a9dc2"/>
              <path id="Trazado_106756" data-name="Trazado 106756" d="M464.809,660.224v4.4L324.649,583.7v-4.4Z" transform="translate(-324.649 -535.376)" fill="#557999"/>
              <path id="Trazado_106757" data-name="Trazado 106757" d="M540.4,645.294,464.809,689.22,324.649,608.3l75.6-43.925Z" transform="translate(-324.649 -564.373)" fill="#98c4da"/>
            </g>
          </g>
        </g>
        <path id="Trazado_106758" data-name="Trazado 106758" d="M448.541,668.161,332.428,601.124l57.6-33.256,116.113,67.038Z" transform="translate(-309.539 -508.36)" fill="#f8e1e1"/>
        <g id="Grupo_70017" data-name="Grupo 70017" transform="translate(85.124 66.583)">
          <path id="Trazado_106759" data-name="Trazado 106759" d="M381.326,594.848l-27.747-16.021,14.65-8.457Zm-21.35-16.021,11.64,6.723-5.493-10.272Z" transform="translate(-353.579 -570.082)" fill="#cf94b3"/>
          <path id="Trazado_106760" data-name="Trazado 106760" d="M381.326,594.75l-27.747-16.019,14.65-8.459Zm-21.35-16.019,11.64,6.721-5.493-10.269Z" transform="translate(-353.579 -570.272)" fill="#e6bbeb"/>
        </g>
        <g id="Grupo_70021" data-name="Grupo 70021" transform="translate(101.891)">
          <g id="Grupo_70019" data-name="Grupo 70019" transform="translate(0 17.008)">
            <g id="Grupo_70018" data-name="Grupo 70018" transform="translate(0 6.997)">
              <path id="Trazado_106761" data-name="Trazado 106761" d="M391.23,569.63a32.809,32.809,0,0,1-1.586,7.423c-1.168,2.919-7.338,20.014-7.839,21.015a60.918,60.918,0,0,1-4,5.087,7.566,7.566,0,0,0-1.5,2.419c-.168.918-.918,2.836-2.168,2.836s-1.583-1-1.083-1.919,1.333-1,1.333-2v-2s-7-.415-7.506-.333a19.489,19.489,0,0,0-2.751.75,7.669,7.669,0,0,1-3,.583c-.586-.165-1.5-1-.75-1.415s1.251-.586,2.333-1.168,5.673-1,5.673-1l-6.588-.336a6.724,6.724,0,0,1-2.086-.418.917.917,0,0,1-.168-1.415,3.461,3.461,0,0,1,1.25-.335s-1-.833-.415-1.168a5.675,5.675,0,0,1,1.251-.5s-.25-.665,0-.833,8.089.918,10.507.75a12.954,12.954,0,0,0,4.5-1.25s1.833-17.6,2.751-19.932,5.17-10.507,5.17-10.507Z" transform="translate(-359.278 -539.955)" fill="#fd8e79"/>
              <path id="Trazado_106762" data-name="Trazado 106762" d="M382.446,570.882l-5.338,15.43s-3,2.5-6.256.833a7.9,7.9,0,0,1-3.919-5.088s3.419-24.934,7.171-26.187S382.446,570.882,382.446,570.882Z" transform="translate(-344.406 -555.802)" fill="#cc3451"/>
            </g>
            <path id="Trazado_106763" data-name="Trazado 106763" d="M369.307,563.076s10.175,20.264,12.011,22.183,11.008,11.511,11.175,12.426a17.271,17.271,0,0,0,.75,2.419s8.256,8.424,19.1,5.005S423.6,592.847,423.6,592.847,413.426,582.84,412.84,576.17s-17.178-21.6-24.434-22.351S368.557,552.236,369.307,563.076Z" transform="translate(-339.858 -553.424)" fill="#ea526f"/>
            <path id="Trazado_106764" data-name="Trazado 106764" d="M410.809,568.371l-8.171-.585s-8.174,4.5-10.51,7.506-10.089,6.17-10.089,6.17c-1,1-2.336,2.836-4.587,2.418-1.321-.244-6.088,2.754-7.506,2.587s-1.668.918-.583,1.751,6.756-.833,6.756-.833-2.566,4.184-1.78,5.367l-.306.385s-1.918,8.757-1.168,9.257,1.336.5,1.5.168.085-4.587.918-6.42c.465-1.027.847-1.959,1.1-2.6l.341.082a83.007,83.007,0,0,0,.559,8.851c.418,1.833,1.918,1.5,1.668.665-.318-1.065.427-7.385.624-8.974.277,1.677,1.089,8.321,1.963,8.974,1,.753,1.5,0,1.5,0l-.821-8.686c.212.986,1.427,6.894,2.572,7.353,1.25.5,1.25.418,1.336.082s-.668-2.418-.836-3.334c-.13-.715-.512-3.8-.674-5.132a33.021,33.021,0,0,0,2.342-6.211s21.6-11.425,22.851-14.344A9.145,9.145,0,0,0,410.809,568.371Z" transform="translate(-340.997 -525.526)" fill="#fd8e79"/>
            <path id="Trazado_106765" data-name="Trazado 106765" d="M383.751,558.867s-5.338,3.669-5.338,8.339S381,578.545,381,580.464a65.718,65.718,0,0,0,1,7.256s3.587,4.42,7.173,2.336l3.587-2.086s3.419-20.347,0-26.434S383.751,558.867,383.751,558.867Z" transform="translate(-322.109 -544.71)" fill="#f16882"/>
          </g>
          <g id="Grupo_70020" data-name="Grupo 70020" transform="translate(18.462)">
            <path id="Trazado_106766" data-name="Trazado 106766" d="M368.033,563.964a6.923,6.923,0,0,1-2.042-2.586,8.481,8.481,0,0,1,2.669-9.174c3.587-3,8.88-4.752,11.884-4.543s8.671,4.043,9.548,8.839a17.613,17.613,0,0,1-1.183,9.327s-.609,3.016-.609,3.725.25,1.459-2.086,2.792a18.9,18.9,0,0,1-4.378,1.836l-4.169-.918-3.045-4.587Z" transform="translate(-365.552 -547.643)" fill="#4e2567"/>
            <path id="Trazado_106767" data-name="Trazado 106767" d="M388.355,560.571s-.332,3.557,2.669,4.781,3.337.221,4.781,4.781-1.333,8.895-4.113,9.784-5.338,1-6.559-.444-7.118-7.674-7.118-7.674a22.575,22.575,0,0,1-4.323,1.336c-1,0-1.709-1.25-2.045-1.5s-1.25-1.209-1.083-1.586l.168-.374s-.668-.377-.877-.544-.168-1.624-.168-1.624a13.047,13.047,0,0,1-2.083-.459.737.737,0,0,1-.377-1.209c.336-.377.959-.5,1.045-1.377s.124-2.919.124-2.919-1.877-.959-2.083-2.419-1.127-5.67.333-8.256,2.669,5.214,5.129,7.756,6.547,2.754,7.8,3.837a3.371,3.371,0,0,1,.918,2.919s2.21-3.919,2.21-5.129.25-2.5,1.71-3.045,2.792,1,2.669,2.419-.627,3.046-1.209,3.046h-.585s1.127,1.209,1.668.791A11.03,11.03,0,0,0,388.355,560.571Z" transform="translate(-364.998 -542.387)" fill="#fd8e79"/>
          </g>
        </g>
        <g id="Grupo_70022" data-name="Grupo 70022" transform="translate(44.686 79.265)">
          <path id="Trazado_106768" data-name="Trazado 106768" d="M455.7,619.495,433.819,632.13l-.268-.127c-.227-.106-22.636-10.648-30.318-15.2s-26.6-10.975-35.606-13.076c-8.771-2.051-24.9-10.981-25.587-11.361l-.241-.135,9.516-7.391s8.015,2.557,11.59,3.734c-.918-.485-10.3-5.467-10.3-5.467l9.731-8.521.324.139c.218.094,21.83,9.313,28.718,10.678,6.723,1.333,15.171-3.6,15.212-3.637l.412-.241.221.315c.074.106,7.6,10.8,13.988,15.556,6.411,4.776,33.967,21.774,34.244,21.948Zm-21.939,12.04,20.87-12.049c-2.81-1.736-27.935-17.278-34.038-21.824-5.841-4.352-12.591-13.565-13.879-15.357-1.824,1.006-9.233,4.773-15.6,3.51-6.612-1.309-25.755-9.392-28.6-10.6l-8.924,7.818c4.269,2.269,12.823,6.806,12.823,6.806l-.25.165c-.109.059-.156.085-.491-.038-.512-.191-8.624-2.792-14.15-4.555l-8.715,6.767c2.092,1.148,17.042,9.251,25.1,11.134,9.066,2.119,28.118,8.586,35.865,13.179C410.977,620.757,431.2,630.323,433.766,631.535Z" transform="translate(-336.025 -574.582)" fill="#ae89b3"/>
          <path id="Trazado_106769" data-name="Trazado 106769" d="M427.67,629.88l-.544.315-.541-.315.541-.312Zm-2.713-1.562-.542.312-2.169-1.254.542-.312Zm-4.337-2.5-.541.312-2.168-1.254.541-.312Zm-4.337-2.507-.541.315-2.169-1.253.541-.312Zm-4.337-2.5-.541.315-2.168-1.253.541-.312Zm-4.337-2.5-.541.315L404.9,617.36l.544-.312Zm-4.337-2.5-.544.315-2.169-1.254.544-.312Zm-4.337-2.5-.544.315-2.168-1.253.544-.312Zm-4.34-2.5-.542.312-2.169-1.25.542-.312Zm-4.337-2.5-.541.312-2.168-1.25.541-.315Zm-4.337-2.5-.541.312-2.169-1.25.541-.315Zm-4.337-2.5-.541.312-2.169-1.251.541-.315Zm-4.337-2.5-.541.312-2.169-1.25.541-.315Zm-4.337-2.5-.541.312-2.169-1.25.541-.315Zm-4.337-2.5-.541.312-2.169-1.25.541-.315Zm-4.337-2.5-.544.312-2.169-1.253.544-.312Zm-4.337-2.507-.544.315-2.169-1.254.544-.312Zm-4.337-2.5-.544.315-2.169-1.254.541-.312Zm-4.34-2.5-.541.315-2.169-1.253.541-.312Zm-4.337-2.5-.541.315-2.169-1.253.541-.312Zm-4.337-2.5-.541.315-2.169-1.254.541-.312Z" transform="translate(-339.836 -565.058)" fill="#ae89b3"/>
          <path id="Trazado_106770" data-name="Trazado 106770" d="M391.5,577.335l-2.169,1.25-.544-.312,2.172-1.253Zm-4.337,2.5L385,581.089l-.544-.312,2.169-1.254Zm-4.337,2.5-2.169,1.251-.544-.312,2.169-1.254Zm-4.34,2.5-2.169,1.25-.541-.312,2.169-1.254Zm-4.337,2.5-2.169,1.25-.541-.312,2.169-1.253Zm-4.337,2.5-2.169,1.25-.541-.312,2.169-1.25Zm-4.337,2.5-2.168,1.254-.541-.315,2.169-1.25Zm-4.337,2.5-2.169,1.254-.541-.315,2.169-1.25Zm-4.337,2.5-2.168,1.254-.541-.315,2.168-1.251Zm-4.337,2.5-2.169,1.253-.541-.315,2.169-1.25Z" transform="translate(-320.567 -569.846)" fill="#ae89b3"/>
          <path id="Trazado_106771" data-name="Trazado 106771" d="M421.115,620.493l-.544.315-1.354-.783.541-.315Zm-3.525-2.033-.542.312-2.168-1.25.541-.315Zm-4.337-2.5-.541.312-2.169-1.25.542-.315Zm-4.337-2.5-.542.312-2.171-1.25.544-.315Zm-4.337-2.5-.544.312-2.169-1.253.544-.312Zm-4.337-2.5-.544.312-2.169-1.254.544-.312Zm-4.34-2.507-.541.315L393.191,605l.541-.312Zm-4.337-2.5-.541.315-2.169-1.254.541-.312Zm-4.337-2.5-.542.315-2.169-1.253.542-.312Zm-4.337-2.5-.541.315-2.169-1.253.542-.312Zm-4.337-2.5-.542.315-2.169-1.254.542-.312Zm-4.337-2.5-.541.312-2.169-1.251.542-.312Zm-4.337-2.5-.542.312-2.171-1.25.544-.312Zm-4.337-2.5-.544.312-2.169-1.25.544-.315Zm-4.337-2.5-.544.312-2.168-1.25.544-.315Zm-4.34-2.5-.541.312-2.169-1.25.542-.315Zm-4.337-2.5-.541.312-2.169-1.251.542-.315Z" transform="translate(-320.449 -564.75)" fill="#ae89b3"/>
          <path id="Trazado_106772" data-name="Trazado 106772" d="M364.326,575.349l-2.169,1.25-.541-.312,2.169-1.254Zm-4.337,2.5-2.169,1.25-.544-.312,2.169-1.253Zm-4.337,2.5-2.169,1.25-.544-.312,2.169-1.25Zm-4.337,2.5-2.172,1.254-.541-.315,2.169-1.25Zm-4.34,2.5-2.169,1.254-.541-.315,2.169-1.25Zm-4.337,2.5-2.169,1.254-.541-.315,2.169-1.251Z" transform="translate(-339.657 -573.704)" fill="#ae89b3"/>
        </g>
        <g id="Grupo_70023" data-name="Grupo 70023" transform="translate(126.873 90.353)">
          <path id="Trazado_106773" data-name="Trazado 106773" d="M421.394,620.36c-4.019.226-7.132-3.366-7.132-7.259s-7.129-11.455-15.948-16.095-30.339-15.121-30.469-16.245.65-3.666,6.353-1.121,39.416,15.121,52.251,27.173C430.463,610.579,433.017,619.713,421.394,620.36Z" transform="translate(-367.642 -577.97)" fill="#ae89b3"/>
          <path id="Trazado_106774" data-name="Trazado 106774" d="M421.329,620.167c-4.019.224-7.132-3.369-7.132-7.262s-7.132-11.452-15.948-16.092-30.339-15.121-30.469-16.245.647-3.669,6.353-1.124,39.416,15.121,52.251,27.173C430.4,610.386,432.952,619.517,421.329,620.167Z" transform="translate(-367.768 -578.35)" fill="#e6bbeb"/>
        </g>
        <g id="Grupo_70024" data-name="Grupo 70024" transform="translate(15.657 87.416)">
          <path id="Trazado_106775" data-name="Trazado 106775" d="M329.97,579.953l50.436,29.119,4.279-2.47-50.436-29.119Z" transform="translate(-329.97 -577.099)" fill="#ae89b3"/>
          <path id="Trazado_106776" data-name="Trazado 106776" d="M329.97,579.823l50.436,29.119,4.279-2.47-50.436-29.119Z" transform="translate(-329.97 -577.352)" fill="#e6bbeb"/>
        </g>
        <g id="Grupo_70025" data-name="Grupo 70025" transform="translate(129.693 143.653)">
          <path id="Trazado_106777" data-name="Trazado 106777" d="M371.053,611.861s-5.058-1.721-.259-7.636,15.3-9.283,19.838-6.812,2.592,5.09-.78,7.485-9.984,2.322-12.835,3.669S374.3,612.385,371.053,611.861Z" transform="translate(-368.726 -596.212)" fill="#ae89b3"/>
          <path id="Trazado_106778" data-name="Trazado 106778" d="M371.053,611.731s-5.058-1.721-.259-7.636,15.3-9.283,19.838-6.812,2.592,5.091-.78,7.486-9.984,2.319-12.835,3.666S374.3,612.255,371.053,611.731Z" transform="translate(-368.726 -596.465)" fill="#e6bbeb"/>
        </g>
      </g>
    </g>
  </g>
</svg>
