<svg xmlns="http://www.w3.org/2000/svg" width="190" height="163.607" viewBox="0 0 190 163.607">
  <g id="Grupo_70172" data-name="Grupo 70172" transform="translate(6774 9550.607)">
    <g id="Grupo_69186" data-name="Grupo 69186" transform="translate(-7164 -12174)">
      <path id="Rectángulo_7188" data-name="Rectángulo 7188" d="M0,0H190a0,0,0,0,1,0,0V149a0,0,0,0,1,0,0H10A10,10,0,0,1,0,139V0A0,0,0,0,1,0,0Z" transform="translate(390 2638)" fill="#fff"/>
      <g id="_95" data-name="95" transform="translate(373.956 2644.82)">
        <g id="Grupo_69182" data-name="Grupo 69182" transform="translate(31.71 27.836)">
          <g id="Grupo_69181" data-name="Grupo 69181">
            <rect id="Rectángulo_7181" data-name="Rectángulo 7181" width="167.667" height="3.054" transform="translate(0 96.258)" fill="#e4dad8"/>
            <g id="Grupo_69156" data-name="Grupo 69156" transform="translate(26.103 4.729)">
              <g id="Grupo_69152" data-name="Grupo 69152">
                <rect id="Rectángulo_7182" data-name="Rectángulo 7182" width="91.745" height="65.942" fill="#e4dad8"/>
                <rect id="Rectángulo_7183" data-name="Rectángulo 7183" width="82.2" height="55.687" transform="translate(4.773 5.127)" fill="#fec377"/>
                <path id="Trazado_106117" data-name="Trazado 106117" d="M283.716,82.639h.414v55.687h-.414V82.639Zm11.428,0h.414v55.687h-.414V82.639Zm-3.809,0h.414v55.687h-.414V82.639Zm-3.809,0h.414v55.687h-.414V82.639Zm-7.612,0h.414v55.687h-.414V82.639Zm-3.809,0h.414v55.687H276.1V82.639Zm-3.809,0h.414v55.687h-.414V82.639Zm-3.809,0h.414v55.687h-.414V82.639Zm-3.809,0h.414v55.687h-.414V82.639Zm-3.809,0h.414v55.687h-.414V82.639Zm-3.809,0h.414v55.687h-.414V82.639Zm-3.809,0h.414v55.687h-.414V82.639Zm-3.809,0h.414v55.687h-.414V82.639Zm-3.809,0h.414v55.687h-.414V82.639Zm-3.809,0h.414v55.687h-.414V82.639Zm-3.809,0h.414v55.687h-.414V82.639Zm-3.809,0h.414v55.687H234.2V82.639Zm-3.809,0h.414v55.687h-.414V82.639Zm-3.809,0H227v55.687h-.414V82.639Zm-3.809,0h.414v55.687h-.414V82.639Zm-3.809,0h.414v55.687h-.414Z" transform="translate(-211.389 -77.512)" fill="#eda568" fill-rule="evenodd"/>
                <path id="Trazado_106118" data-name="Trazado 106118" d="M285.569,148.154v.414h-82.2v-.414Zm0-3.809v.414h-82.2v-.414Zm0-3.809v.414h-82.2v-.414Zm0-3.809v.414h-82.2v-.414Zm0-3.809v.413h-82.2v-.413Zm0-3.809v.414h-82.2v-.414Zm0-3.809v.414h-82.2V125.3Zm0-3.809v.414h-82.2v-.414Zm0-3.809v.414h-82.2v-.414Zm0-3.809v.414h-82.2v-.414Zm0-3.809v.414h-82.2v-.414Zm0-3.809v.414h-82.2v-.414Zm0-3.809v.414h-82.2v-.414Zm0-3.809v.414h-82.2v-.414Z" transform="translate(-198.596 -90.63)" fill="#eda568" fill-rule="evenodd"/>
                <g id="Grupo_69151" data-name="Grupo 69151" transform="translate(1.219 1.391)">
                  <path id="Trazado_106119" data-name="Trazado 106119" d="M185.3,65.228a1.682,1.682,0,1,0-1.683-1.682A1.685,1.685,0,0,0,185.3,65.228Z" transform="translate(-183.618 -61.863)" fill="#a39691" fill-rule="evenodd"/>
                  <path id="Trazado_106120" data-name="Trazado 106120" d="M185.3,397.691a1.682,1.682,0,1,0-1.683-1.682A1.685,1.685,0,0,0,185.3,397.691Z" transform="translate(-183.618 -334.53)" fill="#a39691" fill-rule="evenodd"/>
                  <path id="Trazado_106121" data-name="Trazado 106121" d="M663.143,65.228a1.682,1.682,0,1,0-1.682-1.682A1.685,1.685,0,0,0,663.143,65.228Z" transform="translate(-575.518 -61.863)" fill="#a39691" fill-rule="evenodd"/>
                  <path id="Trazado_106122" data-name="Trazado 106122" d="M663.143,397.691a1.682,1.682,0,1,0-1.682-1.682A1.685,1.685,0,0,0,663.143,397.691Z" transform="translate(-575.518 -334.53)" fill="#a39691" fill-rule="evenodd"/>
                </g>
              </g>
              <g id="Grupo_69155" data-name="Grupo 69155" transform="translate(17.879 7.789)">
                <g id="Grupo_69153" data-name="Grupo 69153" transform="translate(0 4.655)">
                  <path id="Trazado_106123" data-name="Trazado 106123" d="M277.139,144.394c-.141.088-.439-.021-.665-.244s-.294-.475-.153-.563a10.6,10.6,0,0,0,1.237-1.011,17.42,17.42,0,0,1,2.514-1.964c3.476-2.107,7.16-2.253,9.909-2.361a9,9,0,0,0,3.5-.5c.642-.368,1.6-2.915,2.21-4.549.183-.487.336-.9.442-1.144.065-.152.328-.125.587.061s.415.46.35.612c-.106.247-.257.65-.437,1.13-.627,1.672-1.6,4.278-2.345,4.7a9.167,9.167,0,0,1-3.7.559c-2.695.106-6.307.25-9.694,2.3a17.211,17.211,0,0,0-2.468,1.931A10.585,10.585,0,0,1,277.139,144.394Z" transform="translate(-276.248 -130.401)" fill="#fff" fill-rule="evenodd"/>
                  <path id="Trazado_106124" data-name="Trazado 106124" d="M318.268,127.382a2.491,2.491,0,0,0,1.177,1.9,2.125,2.125,0,0,0,1.008.238,2.227,2.227,0,0,0,1.142-.324,3.016,3.016,0,0,0,1.315-2.375l0-.017a2.272,2.272,0,0,0-1.261-2.268,3.02,3.02,0,0,0-1.305-.344,2.131,2.131,0,0,0-1.3.36c-.644.454-1.021,1.357-.783,2.833Zm1.187,2.6a4.1,4.1,0,0,1-2.143-3.022c-.268-1.662.167-2.686.907-3.208a2.6,2.6,0,0,1,1.574-.431,4.283,4.283,0,0,1,1.842.5,3.716,3.716,0,0,1,2.238,3.537v.022A3.327,3.327,0,0,1,322.41,130a2.684,2.684,0,0,1-1.38.383A3.349,3.349,0,0,1,319.454,129.982Z" transform="translate(-309.86 -123.32)" fill="#fff" fill-rule="evenodd"/>
                  <path id="Trazado_106125" data-name="Trazado 106125" d="M305.164,141.1c.065-.152.328-.125.587.061s.415.46.35.612a9.955,9.955,0,0,0-.627,2.55,6.2,6.2,0,0,1-3.757,5.5c-.883.473-2.009,1.014-3.212,1.591-.883.424-1.809.869-2.727,1.331.229.019.427.04.58.06a10.469,10.469,0,0,0,3.5-.116,2.234,2.234,0,0,0,1.655-1.13c.063-.154.324-.128.583.055s.417.458.353.611a2.539,2.539,0,0,1-1.882,1.316,11.176,11.176,0,0,1-3.74.124c-.141-.018-.356-.04-.634-.062-.5-.039-1.164-.075-1.906-.087a22.786,22.786,0,0,0-4.364,2.874l.305.028a45.226,45.226,0,0,0,9.719-.9l.251-.046a8.383,8.383,0,0,1,5,.641,9.106,9.106,0,0,1,3.33,2.628,7.837,7.837,0,0,1,1.6,3.441,5.462,5.462,0,0,1-.371,3.253c-.7,1.532-1.418,1.771-2.144,1.458l-.041-.017a4.792,4.792,0,0,1-1.464-1.259,3.658,3.658,0,0,0-.829-.783c-.456-.2-1.005.144-1.779,1.9-.427.968-.967,1.115-1.56.854a4.844,4.844,0,0,1-1.626-1.528,4.311,4.311,0,0,0-.753-.839c-.173-.068-.374.109-.63.759-.774,1.967-1.468,2.379-2.05,2.15a3.03,3.03,0,0,1-1.426-1.913c-.031-.08.609.137.278,0-.761-.319-1.162.652-1.487,1.443-.2.492-.382.926-.665,1.047-1.239.53-1.88.082-2.253-.763l-.016-.035a4.114,4.114,0,0,1-.223-1.369c-.019-.376.41-.7.186-.716-1.047-.071-1.17,1-1.278,1.951a5.357,5.357,0,0,1-.187,1.051c-.174.516-.519.788-1.291.527a3.635,3.635,0,0,1-1.046-.559,5.127,5.127,0,0,1-1.715-4.195,15.512,15.512,0,0,1,.862-4.922,11.314,11.314,0,0,1,1.461-3,1.946,1.946,0,0,1-1.24-1.993l.011-.083c.162-1.1,1.791-1.609,3.683-1.82a25.7,25.7,0,0,1,3.053-.13c1.362-.727,2.794-1.415,4.131-2.057,1.163-.558,2.252-1.081,3.2-1.587a5.938,5.938,0,0,0,3.6-5.269,10.315,10.315,0,0,1,.648-2.639Zm-15.913,15.976c-.087.1-.168.2-.244.3a10.887,10.887,0,0,0-1.442,2.957,15.094,15.094,0,0,0-.841,4.785,4.038,4.038,0,0,0,1.041,3.173,1.734,1.734,0,0,0,.5.259c.33.112.5-.063.6-.368a5.2,5.2,0,0,0,.168-.972c.126-1.1.267-2.346,1.716-2.247,1.2.081,1.251,1.047,1.3,2.073a3.763,3.763,0,0,0,.154,1.1l.6-.254c.168-.072.325-.451.5-.881.394-.956.878-2.131,2.274-1.546.46.194.6.559.783,1.03.139.361.323.87.329.872.24.094.631-.34,1.3-2.029.362-.919.841-1.093,1.384-.88a4.442,4.442,0,0,1,1.62,1.5,4.247,4.247,0,0,0,.821.9c.2.09.444-.08.749-.771.9-2.041,1.759-2.346,2.59-1.979a4.865,4.865,0,0,1,1.553,1.319,3.671,3.671,0,0,0,.762.732l.019.009c.348.145.761-.126,1.337-1.381a5.012,5.012,0,0,0,.348-2.985,6.588,6.588,0,0,0-1.328-2.9,6.95,6.95,0,0,0-2.546-2.006,7.4,7.4,0,0,0-4.424-.526l-.249.044a45.714,45.714,0,0,1-9.884.9,10.388,10.388,0,0,1-1.492-.215Zm-.688-.966a16.01,16.01,0,0,1,3.375-2.53c-.256.018-.509.04-.758.068-1.744.194-3.24.634-3.37,1.538l-.005.055C287.774,155.639,288.063,155.919,288.563,156.11Z" transform="translate(-284.047 -137.822)" fill="#fff" fill-rule="evenodd"/>
                  <path id="Trazado_106126" data-name="Trazado 106126" d="M335.906,282.56c.1.232-.019.372-.266.313a1.032,1.032,0,0,1-.628-.528,21.025,21.025,0,0,1-.765-2.956c-.311-1.479-.637-3.263-.889-4.877a30.347,30.347,0,0,1-.047-7.506,9.873,9.873,0,0,1,.986-3.41,2.444,2.444,0,0,1,2.258-1.447,3.708,3.708,0,0,1,1.382.354c2.465,1.106,2.253,6.149,2.089,10.032a15.27,15.27,0,0,0,.075,4.041c.108.234,0,.382-.245.33a1.033,1.033,0,0,1-.637-.518c-.312-.677-.241-2.373-.156-4.391.149-3.537.342-8.132-1.013-8.74a2.545,2.545,0,0,0-.948-.243,2.1,2.1,0,0,0-1.888,1.282,9.568,9.568,0,0,0-.942,3.287,29.745,29.745,0,0,0,.044,7.355c.256,1.636.578,3.4.88,4.839A20.745,20.745,0,0,0,335.906,282.56Z" transform="translate(-322.875 -237.178)" fill="#fff" fill-rule="evenodd"/>
                </g>
                <g id="Grupo_69154" data-name="Grupo 69154" transform="translate(31.016)">
                  <path id="Trazado_106127" data-name="Trazado 106127" d="M495.135,105.68a4.215,4.215,0,0,1-3.449-2.233,4.077,4.077,0,0,1-.425-1.965,5.276,5.276,0,0,1,.406-1.876,3.238,3.238,0,0,1,2.231-2.135c1.777-.247,3.111.914,3.849,2.492a5.972,5.972,0,0,1,.547,2.253,4.386,4.386,0,0,1-.38,2.076,2.5,2.5,0,0,1-2.78,1.388Zm-2.59-2.09a2.541,2.541,0,0,0,2.114,1.228,2.11,2.11,0,0,0,2.326-1.214,3.974,3.974,0,0,0,.347-1.881,5.146,5.146,0,0,0-.464-1.942,2.211,2.211,0,0,0-2.312-1.445,2.924,2.924,0,0,0-1.954,1.939,4.891,4.891,0,0,0-.378,1.736A3.286,3.286,0,0,0,492.546,103.589Z" transform="translate(-483.605 -97.439)" fill="#fff" fill-rule="evenodd"/>
                  <path id="Trazado_106128" data-name="Trazado 106128" d="M449.1,123.609c-.262-.171-.441-.446-.4-.613s.29-.165.553.006a15.473,15.473,0,0,0,5.549,2.407,13.765,13.765,0,0,0,6.255-.349,24.241,24.241,0,0,0,7.526-4.19c2.05-1.628,3.728-3.462,4.124-5.04.042-.168.29-.165.552.006s.441.446.4.614c-.414,1.653-2.133,3.544-4.228,5.208a24.608,24.608,0,0,1-7.656,4.253,14.411,14.411,0,0,1-6.558.35A17.043,17.043,0,0,1,449.1,123.609Z" transform="translate(-448.7 -112.421)" fill="#fff" fill-rule="evenodd"/>
                  <path id="Trazado_106129" data-name="Trazado 106129" d="M521.07,148.343c-.041-.212.138-.3.4-.185a.971.971,0,0,1,.551.585.627.627,0,0,0,.035.119c.222.535,1.551.887,3.075,1.083a17.285,17.285,0,0,0,4.8-.033,4.21,4.21,0,0,0,.416-.1,1.26,1.26,0,0,1,.122-.059.22.22,0,0,1,.127-.034c.512,0,.784.229.788.7a.162.162,0,0,1-.1.169q-.1.043-.231.081l-.3.228a10.7,10.7,0,0,0-1.029.924c-1.581,1.606-3.543,4.451-1.394,6.566.4.392.768.747,1.107,1.073,3.352,3.22,3.884,3.732,2.615,10.029-.36,1.787-1.841,6.49-2.709,8.976-.177.508-.33.925-.442,1.207a2.077,2.077,0,0,1-.158.325c.01.047,0,.061-.033.05-.268.389-.574.288-.912-.4a.44.44,0,0,1-.047-.154.461.461,0,0,1,0-.086c.009-.136.131-.188.3-.148-.065-.115-.1-.21-.083-.255.11-.276.261-.689.437-1.193.866-2.48,2.341-7.161,2.7-8.927,1.186-5.882.729-6.322-2.148-9.085-.342-.329-.716-.688-1.126-1.092-2.756-2.713-.7-5.9,1.029-7.65l.112-.112a20.355,20.355,0,0,1-3.367-.138c-2.048-.263-3.912-.923-4.439-2.158l-.008-.018A1.488,1.488,0,0,1,521.07,148.343Z" transform="translate(-508.049 -138.996)" fill="#fff" fill-rule="evenodd"/>
                  <path id="Trazado_106130" data-name="Trazado 106130" d="M483.775,217.4c-.074.146-.343.109-.6-.082s-.4-.464-.328-.61c.286-.563,1.244-3.575,2.17-6.659.989-3.3,1.94-6.666,1.993-7.2.4-4.115.293-6.806-.758-9.019-1.012-2.131-2.977-3.883-6.306-6.164l-.007,0a19.518,19.518,0,0,0-2.313-1.09c-1.193-.511-2.217-.949-2.217-1.464,0-.192.218-.232.484-.089a46.3,46.3,0,0,1,4.232,2.056l.018.012c3.643,2.5,5.811,4.452,6.984,6.919,1.133,2.384,1.261,5.182.847,9.408-.055.564-1.013,3.964-2.008,7.278C485.037,213.79,484.071,216.824,483.775,217.4Z" transform="translate(-470.606 -169.197)" fill="#fff" fill-rule="evenodd"/>
                </g>
              </g>
            </g>
            <g id="Grupo_69164" data-name="Grupo 69164" transform="translate(131.363 0.651)">
              <g id="Grupo_69158" data-name="Grupo 69158" transform="translate(0 35.785)">
                <path id="Trazado_106131" data-name="Trazado 106131" d="M776.616,230.624c-.346,2.552-2.592,5.228-5.389,7.284-2.925,2.149-6.5,3.656-9.14,3.638a2.791,2.791,0,0,0,.16-.944,2.9,2.9,0,0,0-.056-.567c2.3-.017,5.484-1.394,8.141-3.347,2.5-1.838,4.5-4.155,4.785-6.265Z" transform="translate(-762.086 -230.423)" fill="#fab433" fill-rule="evenodd"/>
                <path id="Trazado_106132" data-name="Trazado 106132" d="M764.3,257.938a9.454,9.454,0,0,1-2.211.278,2.792,2.792,0,0,0,.16-.944,2.9,2.9,0,0,0-.056-.567c2.3-.017,5.484-1.394,8.141-3.347a17.6,17.6,0,0,0,2.875-2.61.686.686,0,0,1,.2.2c.67,1.035-2.187,3.612-6.383,5.756C766.092,257.177,765.172,257.592,764.3,257.938Z" transform="translate(-762.086 -247.092)" fill="#fcc846" fill-rule="evenodd"/>
                <g id="Grupo_69157" data-name="Grupo 69157" transform="translate(0.325 2.173)">
                  <path id="Trazado_106133" data-name="Trazado 106133" d="M823.719,250.665l.053.062.379.439a.043.043,0,0,1-.007.061.043.043,0,0,1-.061,0l-.379-.439-.045-.052Z" transform="translate(-812.91 -249.197)" fill="#ac273d" fill-rule="evenodd"/>
                  <path id="Trazado_106134" data-name="Trazado 106134" d="M826.147,247.7l.066.077.362.42a.044.044,0,0,1-.007.061.043.043,0,0,1-.061,0l-.362-.42-.055-.063Z" transform="translate(-814.904 -246.767)" fill="#ac273d" fill-rule="evenodd"/>
                  <path id="Trazado_106135" data-name="Trazado 106135" d="M828.071,245.073l.019.022.343.4a.044.044,0,0,1-.007.061.043.043,0,0,1-.061,0l-.343-.4,0-.005Z" transform="translate(-816.485 -244.611)" fill="#ac273d" fill-rule="evenodd"/>
                  <path id="Trazado_106136" data-name="Trazado 106136" d="M809.808,263.6l.059.09.371.569a.045.045,0,0,1-.014.06.042.042,0,0,1-.06-.009l-.371-.569-.057-.086Z" transform="translate(-801.491 -259.806)" fill="#ac273d" fill-rule="evenodd"/>
                  <path id="Trazado_106137" data-name="Trazado 106137" d="M812.383,261.556l.394.605a.045.045,0,0,1-.014.06.042.042,0,0,1-.059-.009l-.39-.6Z" transform="translate(-803.604 -258.129)" fill="#ac273d" fill-rule="evenodd"/>
                  <path id="Trazado_106138" data-name="Trazado 106138" d="M815,259.349l.054.083.356.548a.045.045,0,0,1-.014.06.042.042,0,0,1-.06-.009l-.356-.548-.049-.075Z" transform="translate(-805.748 -256.319)" fill="#ac273d" fill-rule="evenodd"/>
                  <path id="Trazado_106139" data-name="Trazado 106139" d="M817.589,257.006l.106.142.381.509a.045.045,0,0,1-.011.061.042.042,0,0,1-.06-.005l-.381-.509-.1-.135Z" transform="translate(-807.877 -254.398)" fill="#ac273d" fill-rule="evenodd"/>
                  <path id="Trazado_106140" data-name="Trazado 106140" d="M796.652,272.4l.044.09.311.637a.046.046,0,0,1-.021.059.041.041,0,0,1-.058-.016l-.31-.637-.043-.089Z" transform="translate(-790.696 -267.024)" fill="#ac273d" fill-rule="evenodd"/>
                  <path id="Trazado_106141" data-name="Trazado 106141" d="M799.226,270.872l.079.139.349.613a.045.045,0,0,1-.017.06.041.041,0,0,1-.059-.012l-.349-.613-.08-.14Z" transform="translate(-792.808 -265.77)" fill="#ac273d" fill-rule="evenodd"/>
                  <path id="Trazado_106142" data-name="Trazado 106142" d="M802.007,269.12l.071.124.347.611a.046.046,0,0,1-.018.06.041.041,0,0,1-.059-.012l-.347-.611-.07-.123Z" transform="translate(-795.09 -264.333)" fill="#ac273d" fill-rule="evenodd"/>
                  <path id="Trazado_106143" data-name="Trazado 106143" d="M804.734,267.3l.063.11.344.606a.046.046,0,0,1-.017.06.041.041,0,0,1-.059-.012l-.344-.606-.061-.107Z" transform="translate(-797.327 -262.837)" fill="#ac273d" fill-rule="evenodd"/>
                  <path id="Trazado_106144" data-name="Trazado 106144" d="M783.551,278.863l.04.106.249.652a.047.047,0,0,1-.026.058.04.04,0,0,1-.056-.02l-.248-.652-.042-.11Z" transform="translate(-779.947 -272.324)" fill="#ac273d" fill-rule="evenodd"/>
                  <path id="Trazado_106145" data-name="Trazado 106145" d="M786.037,277.806l.028.058.307.63a.046.046,0,0,1-.021.059.041.041,0,0,1-.058-.015l-.307-.63-.032-.065Z" transform="translate(-781.987 -271.457)" fill="#ac273d" fill-rule="evenodd"/>
                  <path id="Trazado_106146" data-name="Trazado 106146" d="M789.02,276.433l.031.063.308.634a.046.046,0,0,1-.021.059.041.041,0,0,1-.058-.015l-.309-.634-.033-.068Z" transform="translate(-784.434 -270.331)" fill="#ac273d" fill-rule="evenodd"/>
                  <path id="Trazado_106147" data-name="Trazado 106147" d="M791.949,274.974l.035.071.31.637a.046.046,0,0,1-.021.059.041.041,0,0,1-.058-.015l-.31-.637-.036-.074Z" transform="translate(-786.837 -269.134)" fill="#ac273d" fill-rule="evenodd"/>
                  <path id="Trazado_106148" data-name="Trazado 106148" d="M769.273,283.171l.021.1.133.628a.048.048,0,0,1-.033.054.039.039,0,0,1-.051-.029l-.133-.628-.023-.107Z" transform="translate(-768.234 -275.857)" fill="#ac273d" fill-rule="evenodd"/>
                  <path id="Trazado_106149" data-name="Trazado 106149" d="M772.009,282.606l.015.048.2.625a.047.047,0,0,1-.029.056.04.04,0,0,1-.054-.023l-.2-.625-.019-.061Z" transform="translate(-770.478 -275.393)" fill="#ac273d" fill-rule="evenodd"/>
                  <path id="Trazado_106150" data-name="Trazado 106150" d="M775.174,281.784l.032.1.2.639a.047.047,0,0,1-.029.056.04.04,0,0,1-.054-.023l-.2-.639-.035-.111Z" transform="translate(-773.075 -274.719)" fill="#ac273d" fill-rule="evenodd"/>
                  <path id="Trazado_106151" data-name="Trazado 106151" d="M777.953,280.929l.012.032.242.635a.047.047,0,0,1-.026.058.04.04,0,0,1-.056-.02l-.242-.635-.016-.042Z" transform="translate(-775.355 -274.018)" fill="#ac273d" fill-rule="evenodd"/>
                  <path id="Trazado_106152" data-name="Trazado 106152" d="M763.983,283.812l.12.57a.048.048,0,0,1-.033.054.04.04,0,0,1-.051-.028l-.124-.591Z" transform="translate(-763.894 -276.383)" fill="#ac273d" fill-rule="evenodd"/>
                  <path id="Trazado_106153" data-name="Trazado 106153" d="M766.8,283.551q.023.113.048.231c.033.155.06.286.087.417s.058.281.082.394a.048.048,0,0,1-.033.054.039.039,0,0,1-.051-.028c-.032-.15-.058-.273-.083-.4-.03-.147-.061-.293-.087-.416-.017-.08-.034-.162-.052-.246Z" transform="translate(-766.207 -276.168)" fill="#ac273d" fill-rule="evenodd"/>
                  <path id="Trazado_106154" data-name="Trazado 106154" d="M780.932,279.884c.036.094.071.187.106.278.057.148.11.288.163.429s.109.289.161.425a.047.047,0,0,1-.026.058.04.04,0,0,1-.056-.02c-.056-.146-.109-.286-.161-.425s-.11-.291-.163-.429c-.037-.1-.073-.19-.108-.285Z" transform="translate(-777.799 -273.161)" fill="#ac273d" fill-rule="evenodd"/>
                  <path id="Trazado_106155" data-name="Trazado 106155" d="M794.454,273.64l.14.287c.07.143.137.282.2.422s.137.285.205.422a.046.046,0,0,1-.021.059.041.041,0,0,1-.058-.015c-.07-.143-.138-.283-.205-.423s-.137-.284-.2-.422l-.14-.288Z" transform="translate(-788.893 -268.04)" fill="#ac273d" fill-rule="evenodd"/>
                  <path id="Trazado_106156" data-name="Trazado 106156" d="M807.222,265.535l.207.319c.083.126.167.256.251.386l.246.379a.045.045,0,0,1-.014.061.042.042,0,0,1-.06-.009l-.247-.379c-.083-.128-.166-.256-.251-.385l-.207-.318Z" transform="translate(-799.369 -261.393)" fill="#ac273d" fill-rule="evenodd"/>
                  <path id="Trazado_106157" data-name="Trazado 106157" d="M819.582,255.084l.232.268.269.311.27.313a.044.044,0,0,1-.007.061.043.043,0,0,1-.061,0l-.271-.313-.268-.311-.229-.264Z" transform="translate(-809.514 -252.821)" fill="#ac273d" fill-rule="evenodd"/>
                  <path id="Trazado_106158" data-name="Trazado 106158" d="M829.734,242.5l.177.208c.071.083.142.167.219.256a.044.044,0,0,1-.007.061.043.043,0,0,1-.061,0l-.219-.256-.158-.185Z" transform="translate(-817.852 -242.504)" fill="#ac273d" fill-rule="evenodd"/>
                  <path id="Trazado_106159" data-name="Trazado 106159" d="M821.626,252.983l.025.029.395.456a.044.044,0,0,1-.007.061.043.043,0,0,1-.061,0l-.395-.456-.02-.023Z" transform="translate(-811.192 -251.098)" fill="#ac273d" fill-rule="evenodd"/>
                </g>
              </g>
              <g id="Grupo_69159" data-name="Grupo 69159" transform="translate(7.989)">
                <path id="Trazado_106160" data-name="Trazado 106160" d="M861.772,31.456a3.657,3.657,0,0,1,2.194,6.582,4.906,4.906,0,0,0-4.389,0,3.657,3.657,0,0,1,2.194-6.582Z" transform="translate(-848.832 -31.456)" fill="#e79c75" fill-rule="evenodd"/>
                <path id="Trazado_106161" data-name="Trazado 106161" d="M861.772,31.456a3.648,3.648,0,0,1,2.73,1.224,3.9,3.9,0,0,1-1.336,5.035,4.978,4.978,0,0,0-1.394-.195,4.7,4.7,0,0,0-2.194.518,3.657,3.657,0,0,1,2.194-6.582Z" transform="translate(-848.832 -31.456)" fill="#ebae92" fill-rule="evenodd"/>
                <path id="Trazado_106162" data-name="Trazado 106162" d="M862.271,65.173a3.646,3.646,0,0,1,3.548,1.96c-1.144.038-2.33.058-3.548.058s-2.4-.02-3.547-.058A3.646,3.646,0,0,1,862.271,65.173Z" transform="translate(-849.332 -59.109)" fill="#e79c75" fill-rule="evenodd"/>
                <path id="Trazado_106163" data-name="Trazado 106163" d="M823,76.188c-1.049,4.478,1.719,5.675,4.435,6.625,2.747.962,3.849.992,4.8,3.7.284.81.183.911-.392,1.553a14.581,14.581,0,0,0-2.552,5.028c-.962,3.585-3.823,6.523-3.5,10.866.369,4.9,3.094,6.449,4.116,11.351.573,2.747.841,6.55.349,12.589-4.722,2.732-16.9,2.732-21.625,0-.513-6.293-.2-10.158.423-12.93,1.041-4.635,3.682-6.222,4.042-11.01.326-4.342-2.534-7.281-3.5-10.866a14.581,14.581,0,0,0-2.552-5.028c-.575-.642-.676-.743-.392-1.553.95-2.709,2.053-2.74,4.8-3.7,2.715-.95,5.484-2.147,4.435-6.625Z" transform="translate(-806.503 -68.143)" fill="#ebae92" fill-rule="evenodd"/>
                <path id="Trazado_106164" data-name="Trazado 106164" d="M871.272,374.683v3.352h-4.031v-3.352A26.6,26.6,0,0,0,871.272,374.683Z" transform="translate(-856.317 -312.951)" fill="#e58f60" fill-rule="evenodd"/>
                <path id="Trazado_106165" data-name="Trazado 106165" d="M871.272,374.683v1.452a26.6,26.6,0,0,1-4.031,0v-1.452A26.6,26.6,0,0,0,871.272,374.683Z" transform="translate(-856.317 -312.951)" fill="#cd7e58" fill-rule="evenodd"/>
                <rect id="Rectángulo_7184" data-name="Rectángulo 7184" width="1.622" height="18.571" transform="translate(12.129 65.084)" fill="#e58f60"/>
                <path id="Trazado_106166" data-name="Trazado 106166" d="M868.411,496.573a3.67,3.67,0,0,1,1.572,3.277,3.891,3.891,0,0,1-1.3,3.1h-2.159a3.892,3.892,0,0,1-1.3-3.1,3.67,3.67,0,0,1,1.572-3.277Z" transform="translate(-854.665 -412.919)" fill="#cd7e58" fill-rule="evenodd"/>
                <path id="Trazado_106167" data-name="Trazado 106167" d="M866.141,502.6a4.218,4.218,0,0,1-.914-2.745,3.67,3.67,0,0,1,1.572-3.277h1.367a4.115,4.115,0,0,1,.818,2.539c0,1.931-1.172,3.5-2.617,3.5A2.015,2.015,0,0,1,866.141,502.6Z" transform="translate(-854.665 -412.919)" fill="#e58f60" fill-rule="evenodd"/>
                <path id="Trazado_106168" data-name="Trazado 106168" d="M815.86,550.706h1.248c1.834,0,5.842-.066,6.975-3.061H827.6c1.133,3,5.141,3.061,6.975,3.061h1.248a1.581,1.581,0,0,1,1.556,1.6v.378a1.631,1.631,0,0,1-.011.189H814.316a1.631,1.631,0,0,1-.011-.189V552.3A1.581,1.581,0,0,1,815.86,550.706Z" transform="translate(-812.902 -454.805)" fill="#cd7e58" fill-rule="evenodd"/>
                <path id="Trazado_106169" data-name="Trazado 106169" d="M866.2,548.492a3.879,3.879,0,0,0,.445-.848h3.515a3.882,3.882,0,0,0,.445.848Z" transform="translate(-855.464 -454.805)" fill="#ba7051" fill-rule="evenodd"/>
                <path id="Trazado_106170" data-name="Trazado 106170" d="M815.86,550.706h1.248c1.834,0,5.842-.066,6.975-3.061H827a8.921,8.921,0,0,1-5.034,5.225h-7.648a1.631,1.631,0,0,1-.011-.189V552.3A1.581,1.581,0,0,1,815.86,550.706Z" transform="translate(-812.902 -454.805)" fill="#e58f60" fill-rule="evenodd"/>
                <path id="Trazado_106171" data-name="Trazado 106171" d="M866.2,548.492a3.879,3.879,0,0,0,.445-.848h2.915a6.62,6.62,0,0,1-.323.848Z" transform="translate(-855.464 -454.805)" fill="#d8865c" fill-rule="evenodd"/>
                <path id="Trazado_106172" data-name="Trazado 106172" d="M864.031,532.052h3.14a1.257,1.257,0,0,1,1.247,1.26v.3a1.257,1.257,0,0,1-1.247,1.26h-3.14a1.257,1.257,0,0,1-1.247-1.26v-.3A1.257,1.257,0,0,1,864.031,532.052Z" transform="translate(-852.661 -442.017)" fill="#cd7e58" fill-rule="evenodd"/>
                <path id="Trazado_106173" data-name="Trazado 106173" d="M864.031,532.052h3.14q.048,0,.1,0a1,1,0,0,1,.469.763c0,.915-1.871,1.657-4.179,1.657q-.222,0-.437-.009a1.263,1.263,0,0,1-.335-.857v-.3A1.257,1.257,0,0,1,864.031,532.052Z" transform="translate(-852.661 -442.017)" fill="#e58f60" fill-rule="evenodd"/>
                <rect id="Rectángulo_7185" data-name="Rectángulo 7185" width="1.622" height="1.851" transform="translate(12.129 65.084)" fill="#cd7e58"/>
                <rect id="Rectángulo_7186" data-name="Rectángulo 7186" width="0.569" height="10.69" transform="translate(12.42 72.964)" fill="#e9a480"/>
                <path id="Trazado_106174" data-name="Trazado 106174" d="M870.8,498.42c.48,0,.8.7.721,1.567s-.537,1.566-1.017,1.566-.8-.7-.721-1.566S870.319,498.42,870.8,498.42Z" transform="translate(-858.391 -414.434)" fill="#e9a480" fill-rule="evenodd"/>
                <circle id="Elipse_4380" data-name="Elipse 4380" cx="2.13" cy="2.13" r="2.13" transform="translate(10.173 0.486)" fill="#e9bba3"/>
                <path id="Trazado_106175" data-name="Trazado 106175" d="M824.291,129.49a25.971,25.971,0,0,1-4.945.461c-3.579-.011-7.881-.609-10.244-1.795l-.034-.017-.179-.093-.054-.029c-.069-.037-.137-.075-.2-.114-.512-6.275-.2-10.135.418-12.906,1.04-4.654,3.687-6.238,4.048-11.034.326-4.342-2.534-7.281-3.5-10.866a14.581,14.581,0,0,0-2.552-5.028c-.575-.642-.676-.743-.392-1.553.95-2.709,2.053-2.74,4.8-3.7,2.715-.95,5.484-2.147,4.435-6.625h2.815c-.48,1.825-1.024,5.39.023,6.994a4.274,4.274,0,0,0,2.893,1.6c5.716,1.25,2.74,9.271,1.253,12.789-2.157,5.105-2.991,9.428-2.388,14.395C821.169,117.59,825.051,120.173,824.291,129.49Z" transform="translate(-806.503 -68.143)" fill="#e9bba3" fill-rule="evenodd"/>
              </g>
              <g id="Grupo_69161" data-name="Grupo 69161" transform="translate(8.617 14.357)">
                <path id="Trazado_106176" data-name="Trazado 106176" d="M811.783,166.71c-.286-3.511-.691-7.819-.93-12.088l0,0a56.656,56.656,0,0,1-.069-5.726,29.911,29.911,0,0,1,.644-5.225,15.818,15.818,0,0,1,1.115-3.244c.409-.88.884-1.719,1.333-2.577a12.388,12.388,0,0,0,1.589-5.142,10.462,10.462,0,0,0-1.092-5.19c-.578-1.295-1.272-2.54-1.814-3.851l-.068-.225a7.088,7.088,0,0,0,.689-4.439A7.844,7.844,0,0,0,810,113.427c.9-1.249,2.108-1.5,4-2.145,1.667,1.648,4.766,2.755,8.315,2.755s6.648-1.107,8.315-2.755c.874.3,1.6.515,2.22.782a3.946,3.946,0,0,1,1.7,1.409A7.9,7.9,0,0,0,831.432,119a7.253,7.253,0,0,0,.577,4.233c-.561,1.47-1.346,2.846-1.986,4.282a10.458,10.458,0,0,0-1.092,5.19,12.392,12.392,0,0,0,1.589,5.142c.449.858.924,1.7,1.333,2.577a16.028,16.028,0,0,1,.994,2.745h-10.54v26.067c-3.884,0-7.818-.76-10.326-2.211l-.183-.106Z" transform="translate(-809.997 -111.282)" fill="#e55b59" fill-rule="evenodd"/>
                <path id="Trazado_106177" data-name="Trazado 106177" d="M812.564,123.666h0l0-.008-.066-.217a7.088,7.088,0,0,0,.689-4.439A7.844,7.844,0,0,0,810,113.427c.9-1.249,2.108-1.5,4-2.145,1.667,1.648,4.766,2.755,8.315,2.755h.167l.155,0h.019l.144,0h.019l.154-.005h.007l.152-.007h.016l.138-.007.029,0,.13-.008.031,0,.135-.01.025,0,.126-.01.044,0,.109-.01.058-.006.1-.01.057-.006.1-.012.055-.007.085-.01.087-.011.056-.007.1-.014.013,0,.047-.007h.008l.084-.013h0l.047-.007.011,0,.083-.013.047-.008h.007l.272-.047.046-.008.092-.017.046-.009c2.231,2.248,3.8,4.768,3.015,6.883-.364.981-1.678,1.919-2.3,2.578-5.388,5.729-6.211,13.113-2.159,19.969h-1.667v26.067h-.184c-3.824-.027-7.674-.782-10.142-2.21l-.183-.106-.017-.211c-.286-3.511-.691-7.819-.93-12.088l0,0a56.656,56.656,0,0,1-.069-5.726,29.911,29.911,0,0,1,.644-5.225,15.818,15.818,0,0,1,1.115-3.244c.409-.88.884-1.719,1.333-2.577a12.388,12.388,0,0,0,1.589-5.142,10.462,10.462,0,0,0-1.092-5.19C813.8,126.222,813.106,124.976,812.564,123.666Z" transform="translate(-809.997 -111.282)" fill="#e86b6a" fill-rule="evenodd"/>
                <g id="Grupo_69160" data-name="Grupo 69160" transform="translate(2.541 1.724)">
                  <path id="Trazado_106178" data-name="Trazado 106178" d="M878.062,128.714a.108.108,0,0,0-.217,0V129.8a.108.108,0,0,0,.217,0v-1.088ZM877.846,157a.108.108,0,0,0,.217,0v-.559a.108.108,0,0,0-.217,0V157Zm0-1.2a.108.108,0,0,0,.217.005v-1.088a.108.108,0,0,0-.217,0v1.088Zm0-1.733a.108.108,0,0,0,.217,0v-1.088a.108.108,0,0,0-.217,0v1.088Zm0-1.733a.108.108,0,0,0,.217,0v-1.088a.108.108,0,0,0-.217,0v1.088Zm0-1.733a.108.108,0,0,0,.217.005V149.51a.108.108,0,0,0-.217,0v1.088Zm0-1.733a.108.108,0,0,0,.217,0v-1.088a.108.108,0,0,0-.217,0v1.088Zm0-1.733a.108.108,0,0,0,.217,0v-1.088a.108.108,0,0,0-.217,0v1.088Zm0-1.733a.108.108,0,0,0,.217.005v-1.088a.108.108,0,0,0-.217,0v1.088Zm0-1.733a.108.108,0,0,0,.217,0v-1.088a.108.108,0,0,0-.217,0v1.088Zm0-1.733a.108.108,0,0,0,.217,0v-1.088a.108.108,0,0,0-.217,0v1.088Zm0-1.733a.108.108,0,0,0,.217,0v-1.088a.108.108,0,0,0-.217,0V140.2Zm0-1.733a.108.108,0,0,0,.217,0v-1.088a.108.108,0,0,0-.217-.005v1.088Zm0-1.733a.108.108,0,0,0,.217,0v-1.088a.108.108,0,0,0-.217,0v1.088Zm0-1.733a.108.108,0,0,0,.217,0v-1.088a.108.108,0,0,0-.217,0V135Zm0-1.733a.108.108,0,0,0,.217,0V132.18a.108.108,0,0,0-.217-.005v1.088Zm0-1.733a.108.108,0,0,0,.217,0v-1.088a.108.108,0,0,0-.217,0Z" transform="translate(-868.184 -127.215)" fill="#9f3432" fill-rule="evenodd"/>
                  <path id="Trazado_106179" data-name="Trazado 106179" d="M826.94,164.8a.108.108,0,0,0,.037.213c.356-.063.71-.129,1.068-.186a.108.108,0,0,0-.012-.215h-.023q-.536.086-1.07.186Zm18.318.208a.108.108,0,0,0,.051-.21c-.332-.081-.739-.133-1.081-.189a.108.108,0,0,0-.034.214c.355.057.71.118,1.064.185Zm-1.705-.282a.108.108,0,0,0,.033-.214c-.359-.052-.718-.1-1.078-.143a.107.107,0,0,0-.074.018.108.108,0,0,0,.048.2c.358.044.714.091,1.071.142Zm-1.716-.215a.108.108,0,0,0,.044-.211l-.021,0c-.36-.033-.72-.072-1.081-.1a.108.108,0,0,0-.02.216c.36.03.718.071,1.078.1Zm-1.722-.154a.108.108,0,0,0,.019-.216c-.362-.028-.724-.047-1.086-.067a.108.108,0,0,0-.03.214l.019,0c.359.023.719.043,1.079.067Zm-1.727-.1a.108.108,0,0,0,.034-.212.118.118,0,0,0-.026,0c-.362-.014-.723-.025-1.085-.033a.108.108,0,0,0,0,.217c.36.008.72.019,1.081.033Zm-1.729-.042a.108.108,0,0,0,0-.217c-.362,0-.724,0-1.086,0a.108.108,0,0,0,0,.217c.361,0,.722,0,1.084,0Zm-1.73.01a.108.108,0,1,0,0-.217q-.542.011-1.085.033a.108.108,0,0,0,0,.217c.358,0,.728-.026,1.089-.033Zm-1.728.064a.108.108,0,0,0,.006-.216h-.017c-.361.018-.723.041-1.083.068a.108.108,0,0,0,.006.216c.356-.011.729-.05,1.089-.068Zm-1.725.119a.108.108,0,0,0-.007-.216c-.343.012-.745.068-1.091.1a.108.108,0,0,0,.023.215q.538-.058,1.076-.1Zm-1.72.177a.108.108,0,0,0-.025-.215c-.36.045-.719.091-1.078.143a.108.108,0,0,0,.014.215h.018Q829.219,164.653,829.756,164.588Z" transform="translate(-826.362 -156.242)" fill="#9f3432" fill-rule="evenodd"/>
                  <path id="Trazado_106180" data-name="Trazado 106180" d="M843.577,294.811a.108.108,0,0,0-.038-.213c-.353.066-.712.126-1.067.181a.108.108,0,0,0,.034.214c.357-.055.715-.117,1.07-.182Zm-19.325-.213a.108.108,0,0,0-.042.213c.118.022.237.043.355.063a.108.108,0,0,0,.048-.211c-.115-.026-.244-.044-.362-.065Zm.99.169a.108.108,0,0,0-.034.214q.537.085,1.074.158a.108.108,0,0,0,.032-.214c-.358-.05-.715-.1-1.072-.158Zm1.712.24a.108.108,0,0,0-.044.212l.017,0q.539.066,1.079.121a.108.108,0,0,0,.033-.214c-.349-.052-.73-.078-1.085-.122Zm1.72.182a.108.108,0,1,0-.019.216c.36.031.722.055,1.082.086a.109.109,0,0,0,.057-.2.11.11,0,0,0-.042-.012c-.345-.041-.726-.055-1.078-.086Zm1.725.127a.108.108,0,0,0-.03.214l.018,0c.361.021.722.038,1.084.053a.108.108,0,0,0,.028-.214l-.019,0c-.36-.016-.72-.032-1.08-.053Zm1.728.075a.108.108,0,0,0-.006.217q.543.015,1.085.022a.108.108,0,0,0,.019-.215l-.017,0q-.541-.006-1.081-.022Zm1.73.026a.108.108,0,0,0,0,.217c.359.006.73,0,1.09-.009a.108.108,0,0,0,0-.217q-.54.009-1.081.009Zm1.73-.023a.108.108,0,0,0-.015.215h.021q.542-.014,1.084-.04a.108.108,0,0,0-.008-.217c-.361.015-.721.031-1.082.04Zm1.728-.073a.108.108,0,0,0,.011.216c.362-.023.723-.044,1.084-.072a.108.108,0,0,0,0-.216h-.02q-.539.042-1.079.072Zm1.725-.125a.108.108,0,0,0,0,.216h.019q.54-.047,1.08-.106a.108.108,0,0,0-.021-.215c-.359.037-.718.074-1.078.105Zm1.72-.179a.108.108,0,0,0,.025.215c.36-.045.719-.09,1.078-.142a.108.108,0,0,0-.02-.215C841.49,294.907,841.115,294.974,840.76,295.016Z" transform="translate(-824.124 -263.35)" fill="#9f3432" fill-rule="evenodd"/>
                  <path id="Trazado_106181" data-name="Trazado 106181" d="M826.141,120.916a.108.108,0,0,0-.17.134l.13.168c.064.086.128.171.191.258.1.146.21.295.308.445a.108.108,0,0,0,.18-.12c-.08-.122-.165-.244-.25-.363l-.128-.177q-.1-.131-.2-.26l-.066-.085Zm4.713,55.019a.108.108,0,0,0,.217.006c0-.139,0-.286.007-.426a.108.108,0,0,0-.216-.006c0,.142,0,.284-.007.426Zm.015-1.072a.108.108,0,0,0,.216.005c.006-.362,0-.724.009-1.086a.108.108,0,0,0-.217,0c0,.361-.006.723-.009,1.084Zm.014-1.733a.108.108,0,1,0,.217,0l.007-1.083a.108.108,0,0,0-.217,0c0,.361,0,.723-.007,1.084Zm.012-1.733a.108.108,0,0,0,.216,0c0-.361,0-.723.007-1.085a.108.108,0,0,0-.217,0c0,.361-.005.723-.006,1.085Zm.01-1.733a.108.108,0,0,0,.217,0c0-.361,0-.723.006-1.085a.108.108,0,0,0-.217,0c0,.361,0,.723-.006,1.085Zm.01-1.733a.108.108,0,0,0,.217,0c0-.361,0-.723.006-1.085a.108.108,0,0,0-.217,0c0,.361,0,.723-.006,1.085Zm.01-1.733a.108.108,0,0,0,.217,0c0-.361,0-.723.007-1.084a.108.108,0,0,0-.217,0l-.007,1.083Zm.011-1.733a.108.108,0,0,0,.217,0c0-.361,0-.723.008-1.084a.108.108,0,0,0-.217,0c0,.361-.005.723-.008,1.085Zm.013-1.733a.108.108,0,0,0,.217,0c0-.361.006-.723.01-1.084a.108.108,0,0,0-.217-.006c-.009.36-.008.726-.01,1.087Zm.019-1.734a.108.108,0,0,0,.217.006c.008-.362.017-.723.025-1.085a.108.108,0,0,0-.216-.006c0,.359-.019.724-.025,1.084Zm.04-1.733a.108.108,0,0,0,.217.006c0-.358.016-.725.024-1.084a.108.108,0,0,0-.216-.007q-.011.543-.024,1.085Zm.038-1.732a.108.108,0,0,0,.216.007l.022-1.085a.108.108,0,0,0-.217-.006l-.022,1.085Zm.035-1.732a.108.108,0,0,0,.217,0l.019-1.083a.108.108,0,0,0-.217-.006c-.008.362-.013.723-.019,1.085Zm.03-1.732a.108.108,0,0,0,.216.007c.009-.361.011-.725.015-1.087a.108.108,0,0,0-.216-.006c-.009.361-.01.725-.016,1.086Zm.023-1.733a.108.108,0,0,0,.215.02.116.116,0,0,0,0-.017q.005-.542.01-1.083a.108.108,0,0,0-.217,0c0,.361-.007.723-.01,1.084Zm.015-1.732a.108.108,0,0,0,.217,0c0-.361,0-.723,0-1.085a.108.108,0,0,0-.217,0c0,.362,0,.724,0,1.086Zm0-1.732a.108.108,0,0,0,.215.019.122.122,0,0,0,0-.02q0-.542,0-1.084a.108.108,0,0,0-.215-.019.147.147,0,0,0,0,.02q0,.541,0,1.083Zm-.007-1.732a.108.108,0,0,0,.216.01v-.012q0-.542-.012-1.084a.108.108,0,0,0-.216-.008c-.012.35.009.739.012,1.094Zm-.022-1.732a.107.107,0,0,0,.015.053.108.108,0,0,0,.2-.057q-.009-.542-.022-1.084a.108.108,0,0,0-.215-.014.124.124,0,0,0,0,.019q.013.541.022,1.082Zm-.039-1.731a.108.108,0,0,0,.217-.006q-.015-.542-.034-1.083a.108.108,0,1,0-.216.008q.019.541.034,1.082Zm-.059-1.731a.108.108,0,0,0,.216,0c0-.354-.031-.735-.048-1.091a.108.108,0,0,0-.216.007c.013.361.034.723.048,1.085Zm-.082-1.729a.108.108,0,0,0,.216-.011c-.022-.361-.042-.722-.065-1.084a.108.108,0,0,0-.216.009c.016.36.045.724.065,1.085Zm-.109-1.728a.108.108,0,0,0,.216,0v-.013q-.039-.541-.084-1.081a.108.108,0,0,0-.216.007c.012.351.059.734.084,1.09Zm-.141-1.725a.108.108,0,0,0,.216-.02q-.05-.54-.107-1.079a.108.108,0,0,0-.216,0,.122.122,0,0,0,0,.023q.057.538.107,1.077Zm-.178-1.721a.108.108,0,0,0,.215-.024c-.045-.359-.087-.719-.133-1.078a.108.108,0,0,0-.215.029c.05.356.091.716.133,1.073Zm-.221-1.716a.108.108,0,0,0,.216-.013v-.018q-.077-.537-.164-1.073a.108.108,0,0,0-.214.035c.065.349.113.717.164,1.069Zm-.272-1.708a.108.108,0,0,0,.213-.038q-.094-.534-.2-1.067a.108.108,0,0,0-.214.03l0,.013q.107.529.2,1.062Zm-.333-1.7a.108.108,0,0,0,.211-.047q-.116-.531-.246-1.058a.108.108,0,0,0-.212.042c.07.349.17.711.247,1.063Zm-.406-1.68a.108.108,0,0,0,.211-.047c-.076-.34-.2-.719-.3-1.054a.108.108,0,0,0-.207.063q.157.517.3,1.038Zm-.493-1.654a.108.108,0,0,0,.206-.066c-.113-.345-.236-.688-.364-1.028a.108.108,0,0,0-.2.075c.128.338.246.676.361,1.019Zm-.6-1.619a.108.108,0,0,0,.206-.065.168.168,0,0,0-.006-.018c-.138-.336-.285-.667-.44-1a.108.108,0,1,0-.2.093c.153.325.3.653.436.985Zm-.722-1.564a.108.108,0,0,0,.192-.1c-.167-.322-.344-.641-.532-.952a.108.108,0,0,0-.193.1.113.113,0,0,0,.009.017C827.131,122.771,827.306,123.088,827.47,123.405Z" transform="translate(-825.619 -120.874)" fill="#9f3432" fill-rule="evenodd"/>
                  <path id="Trazado_106182" data-name="Trazado 106182" d="M906.2,121.046a.108.108,0,0,0-.167-.138,10.533,10.533,0,0,0-.643.89.108.108,0,0,0,.172.131l.008-.011c.2-.3.409-.589.629-.871Zm-5.385,30.744a.108.108,0,0,0,.216.011v-.013l0-.538a.108.108,0,0,0-.216,0c0,.18,0,.361,0,.542Zm-.009-1.189a.108.108,0,0,0,.215.019.129.129,0,0,0,0-.02q0-.541,0-1.083a.108.108,0,0,0-.216-.011v.012q0,.542,0,1.084Zm0-1.734a.108.108,0,0,0,.217,0c0-.361,0-.724,0-1.086a.108.108,0,0,0-.217,0c0,.362,0,.723,0,1.085Zm.007-1.734a.108.108,0,0,0,.217,0c0-.36.007-.723.012-1.084a.108.108,0,0,0-.217-.007c-.009.36-.012.727-.012,1.087Zm.022-1.734a.108.108,0,0,0,.217.006c.007-.362.014-.723.022-1.084a.108.108,0,0,0-.213-.03.127.127,0,0,0,0,.025q-.013.542-.022,1.084Zm.039-1.734a.108.108,0,0,0,.217.006q.015-.541.034-1.082a.108.108,0,0,0-.212-.037.139.139,0,0,0,0,.029q-.019.541-.034,1.083Zm.059-1.733a.108.108,0,0,0,.215.02v-.011q.022-.541.048-1.081a.108.108,0,0,0-.206-.053.117.117,0,0,0-.011.042q-.026.541-.048,1.083Zm.082-1.733a.108.108,0,0,0,.214.03.144.144,0,0,0,0-.018q.029-.54.065-1.08a.108.108,0,0,0-.214-.033.124.124,0,0,0,0,.018q-.036.541-.065,1.082Zm.109-1.731a.108.108,0,0,0,.216.017c.022-.359.054-.721.084-1.08a.108.108,0,0,0-.216-.018c-.03.36-.06.721-.084,1.081Zm.141-1.729a.108.108,0,0,0,.216.02c.032-.358.066-.719.106-1.076a.109.109,0,0,0-.211-.045.159.159,0,0,0,0,.022c-.039.359-.074.72-.107,1.079Zm.178-1.726a.108.108,0,0,0,.215.028c.045-.359.086-.717.133-1.076a.108.108,0,0,0-.214-.03c-.045.36-.091.718-.133,1.078Zm.222-1.722a.108.108,0,0,0,.214.033c.052-.357.106-.714.164-1.071a.108.108,0,0,0-.214-.035q-.088.536-.165,1.073Zm.274-1.715a.108.108,0,0,0,.207.06.155.155,0,0,0,.006-.022c.063-.354.129-.709.2-1.062a.108.108,0,0,0-.2-.083.106.106,0,0,0-.017.04c-.072.355-.138.711-.2,1.067Zm.335-1.7a.108.108,0,0,0,.212.046c.076-.351.157-.7.244-1.052a.108.108,0,1,0-.21-.053c-.088.351-.17.7-.246,1.058Zm.408-1.69a.108.108,0,0,0,.209.057c.093-.346.19-.695.3-1.038a.108.108,0,0,0-.2-.083.159.159,0,0,0-.008.019c-.106.346-.2.7-.3,1.045Zm.5-1.667a.108.108,0,0,0,.205.07c.11-.341.234-.683.36-1.018a.108.108,0,1,0-.2-.077q-.192.509-.363,1.025Zm.6-1.633a.108.108,0,0,0,.2.089c.148-.331.281-.662.438-.991a.108.108,0,0,0-.194-.1c-.16.319-.306.669-.442,1Zm.731-1.581a.108.108,0,0,0,.192.1c.167-.319.34-.631.526-.939a.108.108,0,0,0-.185-.112C904.854,122.662,904.679,122.978,904.511,123.3Z" transform="translate(-887.012 -120.87)" fill="#9f3432" fill-rule="evenodd"/>
                </g>
              </g>
              <g id="Grupo_69163" data-name="Grupo 69163" transform="translate(12.475 34.569)">
                <path id="Trazado_106183" data-name="Trazado 106183" d="M831.453,223.661H848.4a5.089,5.089,0,0,0,.005,1.516H831.448a5.084,5.084,0,0,0,.005-1.516Z" transform="translate(-831.448 -223.661)" fill="#fab433" fill-rule="evenodd"/>
                <path id="Trazado_106184" data-name="Trazado 106184" d="M831.453,223.661h16.336a.274.274,0,0,1,.009.063c0,.576-1.926,1.095-4.991,1.453H831.448a5.084,5.084,0,0,0,.005-1.516Z" transform="translate(-831.448 -223.661)" fill="#fcc846" fill-rule="evenodd"/>
                <g id="Grupo_69162" data-name="Grupo 69162" transform="translate(0.432)">
                  <path id="Trazado_106185" data-name="Trazado 106185" d="M833.935,223.661v.778a.043.043,0,0,1-.087,0v-.778Z" transform="translate(-833.848 -223.661)" fill="#ac273d" fill-rule="evenodd"/>
                  <path id="Trazado_106186" data-name="Trazado 106186" d="M848.785,223.661v.778a.043.043,0,1,1-.087,0v-.778Z" transform="translate(-846.027 -223.661)" fill="#ac273d" fill-rule="evenodd"/>
                  <path id="Trazado_106187" data-name="Trazado 106187" d="M863.669,223.661v.778a.043.043,0,0,1-.087,0v-.778Z" transform="translate(-858.234 -223.661)" fill="#ac273d" fill-rule="evenodd"/>
                  <path id="Trazado_106188" data-name="Trazado 106188" d="M878.518,223.661v.778a.043.043,0,1,1-.087,0v-.778Z" transform="translate(-870.413 -223.661)" fill="#ac273d" fill-rule="evenodd"/>
                  <path id="Trazado_106189" data-name="Trazado 106189" d="M893.437,223.661v.778a.043.043,0,1,1-.087,0v-.778Z" transform="translate(-882.648 -223.661)" fill="#ac273d" fill-rule="evenodd"/>
                  <path id="Trazado_106190" data-name="Trazado 106190" d="M908.287,223.661v.778a.043.043,0,1,1-.087,0v-.778Z" transform="translate(-894.827 -223.661)" fill="#ac273d" fill-rule="evenodd"/>
                  <path id="Trazado_106191" data-name="Trazado 106191" d="M923.1,223.661v.778a.043.043,0,1,1-.087,0v-.778Z" transform="translate(-906.978 -223.661)" fill="#ac273d" fill-rule="evenodd"/>
                  <path id="Trazado_106192" data-name="Trazado 106192" d="M836.638,223.661v.446a.043.043,0,0,1-.087,0v-.446Z" transform="translate(-836.065 -223.661)" fill="#ac273d" fill-rule="evenodd"/>
                  <path id="Trazado_106193" data-name="Trazado 106193" d="M839.778,223.661v.446a.043.043,0,1,1-.087,0v-.446Z" transform="translate(-838.64 -223.661)" fill="#ac273d" fill-rule="evenodd"/>
                  <path id="Trazado_106194" data-name="Trazado 106194" d="M842.925,223.661v.446a.043.043,0,0,1-.087,0v-.446Z" transform="translate(-841.221 -223.661)" fill="#ac273d" fill-rule="evenodd"/>
                  <path id="Trazado_106195" data-name="Trazado 106195" d="M846.066,223.661v.446a.043.043,0,0,1-.087,0v-.446Z" transform="translate(-843.797 -223.661)" fill="#ac273d" fill-rule="evenodd"/>
                  <path id="Trazado_106196" data-name="Trazado 106196" d="M851.209,223.661v.446a.043.043,0,0,1-.087,0v-.446Z" transform="translate(-848.015 -223.661)" fill="#ac273d" fill-rule="evenodd"/>
                  <path id="Trazado_106197" data-name="Trazado 106197" d="M854.349,223.661v.446a.043.043,0,0,1-.087,0v-.446Z" transform="translate(-850.59 -223.661)" fill="#ac273d" fill-rule="evenodd"/>
                  <path id="Trazado_106198" data-name="Trazado 106198" d="M857.5,223.661v.446a.043.043,0,1,1-.087,0v-.446Z" transform="translate(-853.171 -223.661)" fill="#ac273d" fill-rule="evenodd"/>
                  <path id="Trazado_106199" data-name="Trazado 106199" d="M860.636,223.661v.446a.043.043,0,1,1-.086,0v-.446Z" transform="translate(-855.747 -223.661)" fill="#ac273d" fill-rule="evenodd"/>
                  <path id="Trazado_106200" data-name="Trazado 106200" d="M866.371,223.661v.446a.043.043,0,0,1-.087,0v-.446Z" transform="translate(-860.45 -223.661)" fill="#ac273d" fill-rule="evenodd"/>
                  <path id="Trazado_106201" data-name="Trazado 106201" d="M869.512,223.661v.446a.043.043,0,0,1-.087,0v-.446Z" transform="translate(-863.026 -223.661)" fill="#ac273d" fill-rule="evenodd"/>
                  <path id="Trazado_106202" data-name="Trazado 106202" d="M872.659,223.661v.446a.043.043,0,0,1-.087,0v-.446Z" transform="translate(-865.607 -223.661)" fill="#ac273d" fill-rule="evenodd"/>
                  <path id="Trazado_106203" data-name="Trazado 106203" d="M875.8,223.661v.446a.043.043,0,0,1-.087,0v-.446Z" transform="translate(-868.182 -223.661)" fill="#ac273d" fill-rule="evenodd"/>
                  <path id="Trazado_106204" data-name="Trazado 106204" d="M880.942,223.661v.446a.043.043,0,1,1-.086,0v-.446Z" transform="translate(-872.401 -223.661)" fill="#ac273d" fill-rule="evenodd"/>
                  <path id="Trazado_106205" data-name="Trazado 106205" d="M884.083,223.661v.446a.043.043,0,0,1-.087,0v-.446Z" transform="translate(-874.976 -223.661)" fill="#ac273d" fill-rule="evenodd"/>
                  <path id="Trazado_106206" data-name="Trazado 106206" d="M887.23,223.661v.446a.043.043,0,0,1-.087,0v-.446Z" transform="translate(-877.557 -223.661)" fill="#ac273d" fill-rule="evenodd"/>
                  <path id="Trazado_106207" data-name="Trazado 106207" d="M890.37,223.661v.446a.043.043,0,0,1-.087,0v-.446Z" transform="translate(-880.133 -223.661)" fill="#ac273d" fill-rule="evenodd"/>
                  <path id="Trazado_106208" data-name="Trazado 106208" d="M896.523,223.661v.446a.043.043,0,0,1-.087,0v-.446Z" transform="translate(-885.179 -223.661)" fill="#ac273d" fill-rule="evenodd"/>
                  <path id="Trazado_106209" data-name="Trazado 106209" d="M899.663,223.661v.446a.043.043,0,0,1-.087,0v-.446Z" transform="translate(-887.754 -223.661)" fill="#ac273d" fill-rule="evenodd"/>
                  <path id="Trazado_106210" data-name="Trazado 106210" d="M902.81,223.661v.446a.043.043,0,0,1-.087,0v-.446Z" transform="translate(-890.335 -223.661)" fill="#ac273d" fill-rule="evenodd"/>
                  <path id="Trazado_106211" data-name="Trazado 106211" d="M905.951,223.661v.446a.043.043,0,0,1-.087,0v-.446Z" transform="translate(-892.911 -223.661)" fill="#ac273d" fill-rule="evenodd"/>
                  <path id="Trazado_106212" data-name="Trazado 106212" d="M911.094,223.661v.446a.043.043,0,1,1-.087,0v-.446Z" transform="translate(-897.13 -223.661)" fill="#ac273d" fill-rule="evenodd"/>
                  <path id="Trazado_106213" data-name="Trazado 106213" d="M914.234,223.661v.446a.043.043,0,1,1-.087,0v-.446Z" transform="translate(-899.705 -223.661)" fill="#ac273d" fill-rule="evenodd"/>
                  <path id="Trazado_106214" data-name="Trazado 106214" d="M917.381,223.661v.446a.043.043,0,0,1-.087,0v-.446Z" transform="translate(-902.286 -223.661)" fill="#ac273d" fill-rule="evenodd"/>
                  <path id="Trazado_106215" data-name="Trazado 106215" d="M920.522,223.661v.446a.043.043,0,1,1-.087,0v-.446Z" transform="translate(-904.862 -223.661)" fill="#ac273d" fill-rule="evenodd"/>
                </g>
              </g>
            </g>
            <g id="Grupo_69174" data-name="Grupo 69174" transform="translate(8.718 34.632)">
              <rect id="Rectángulo_7187" data-name="Rectángulo 7187" width="49.128" height="1.029" transform="translate(4.906 1.729)" fill="#a39691"/>
              <path id="Trazado_106216" data-name="Trazado 106216" d="M107.462,230h.9v59.493a.454.454,0,0,1-.453.452h0a.454.454,0,0,1-.452-.452Z" transform="translate(-102.556 -228.27)" fill="#a39691" fill-rule="evenodd"/>
              <path id="Trazado_106217" data-name="Trazado 106217" d="M375.582,230h.9v59.493a.454.454,0,0,1-.453.452h0a.454.454,0,0,1-.452-.452Z" transform="translate(-322.452 -228.27)" fill="#a39691" fill-rule="evenodd"/>
              <g id="Grupo_69167" data-name="Grupo 69167" transform="translate(3.765 0.462)">
                <g id="Grupo_69165" data-name="Grupo 69165">
                  <path id="Trazado_106218" data-name="Trazado 106218" d="M102.9,226.516a1.782,1.782,0,1,0-1.782-1.782A1.785,1.785,0,0,0,102.9,226.516Z" transform="translate(-101.116 -222.953)" fill="#ce8156" fill-rule="evenodd"/>
                  <path id="Trazado_106219" data-name="Trazado 106219" d="M105.732,228.511a.824.824,0,1,0-.824-.824A.825.825,0,0,0,105.732,228.511Z" transform="translate(-104.226 -226.16)" fill="#e58f60" fill-rule="evenodd"/>
                </g>
                <g id="Grupo_69166" data-name="Grupo 69166" transform="translate(47.848)">
                  <path id="Trazado_106220" data-name="Trazado 106220" d="M368.931,226.516a1.782,1.782,0,1,0-1.782-1.782A1.785,1.785,0,0,0,368.931,226.516Z" transform="translate(-367.149 -222.953)" fill="#ce8156" fill-rule="evenodd"/>
                  <path id="Trazado_106221" data-name="Trazado 106221" d="M371.763,228.511a.824.824,0,1,0-.824-.824A.825.825,0,0,0,371.763,228.511Z" transform="translate(-370.257 -226.16)" fill="#e58f60" fill-rule="evenodd"/>
                </g>
              </g>
              <path id="Trazado_106222" data-name="Trazado 106222" d="M81.949,555.983h7.184A1.772,1.772,0,0,1,90.9,557.75v.61H80.182v-.61A1.772,1.772,0,0,1,81.949,555.983Z" transform="translate(-80.182 -495.624)" fill="#e58f60" fill-rule="evenodd"/>
              <path id="Trazado_106223" data-name="Trazado 106223" d="M350.07,555.983h7.184a1.772,1.772,0,0,1,1.767,1.767v.61H348.3v-.61A1.772,1.772,0,0,1,350.07,555.983Z" transform="translate(-300.08 -495.624)" fill="#e58f60" fill-rule="evenodd"/>
              <g id="Grupo_69171" data-name="Grupo 69171" transform="translate(9.177)">
                <path id="Trazado_106224" data-name="Trazado 106224" d="M158.19,226.518l.006,0a.646.646,0,0,0,.3-.518.639.639,0,0,0-.036-.207.652.652,0,0,0-.088-.173c-.036-.049-.027-.08-.039-.08a2.566,2.566,0,0,1-1.818-.754l0,0a2.57,2.57,0,0,1,0-3.637l0,0a2.569,2.569,0,0,1,3.637,0l0,0a2.576,2.576,0,0,1,.611.973h-1.1a1.575,1.575,0,1,0-1.329,2.419,1.1,1.1,0,0,1,.841.486,1.66,1.66,0,0,1,.233.443,1.633,1.633,0,0,1,.09.531,1.543,1.543,0,0,1-.094.534,18.84,18.84,0,0,1,5.188.835c1.714.574,2.815,1.427,2.92,2.427a.5.5,0,0,1-.446.547l-.051,0h-16.89a.5.5,0,0,1-.5-.5.513.513,0,0,1,.01-.1c.134-.98,1.227-1.816,2.914-2.38a19.307,19.307,0,0,1,5.642-.845Zm2.71-3.373h-1c0,.02,0,.039-.008.058a1.57,1.57,0,0,1-.054.233.5.5,0,0,0,.954.3,2.541,2.541,0,0,0,.089-.381q.016-.1.023-.207Zm3.374,5.165a20.89,20.89,0,0,0-11.41,0,5.057,5.057,0,0,0-1.947,1.031h15.3A5.056,5.056,0,0,0,164.274,228.31Z" transform="translate(-146.311 -220.387)" fill="#e79c75" fill-rule="evenodd"/>
                <g id="Grupo_69169" data-name="Grupo 69169" transform="translate(0 6.599)">
                  <g id="Grupo_69168" data-name="Grupo 69168" transform="translate(0 1.286)">
                    <path id="Trazado_106225" data-name="Trazado 106225" d="M229.1,268.673l.511-3.591,2.138-.855c3.3,2.933,3.473,14.151,4.259,20.608a4.31,4.31,0,0,1-2.589.537l-1.27-6.723C231.408,274.725,230.927,271.169,229.1,268.673Z" transform="translate(-211.493 -264.226)" fill="#d7314c" fill-rule="evenodd"/>
                    <path id="Trazado_106226" data-name="Trazado 106226" d="M138.112,268.673q-.255-1.8-.511-3.591l-2.138-.855c-3.3,2.933-3.472,14.151-4.259,20.608a4.31,4.31,0,0,0,2.589.537l1.27-6.723C135.8,274.725,136.285,271.169,138.112,268.673Z" transform="translate(-131.204 -264.226)" fill="#d7314c" fill-rule="evenodd"/>
                  </g>
                  <path id="Trazado_106227" data-name="Trazado 106227" d="M155.81,288.441c-.3-3.441-.815-5.08-.651-8.565a16.834,16.834,0,0,1,.422-3.167,9.1,9.1,0,0,1,.731-1.967c.268-.533.579-1.042.873-1.562a7.106,7.106,0,0,0,1.041-3.117,5.942,5.942,0,0,0-.715-3.146c-.378-.785-.833-1.54-1.189-2.334a12.583,12.583,0,0,0,.359-2.828,4.727,4.727,0,0,0-2.041-3.351l.014-.019-.014-.008a2.339,2.339,0,0,1,.467-.454,2.934,2.934,0,0,1,.649-.373c.406-.162.882-.292,1.455-.474l.013.011.035-.011a9.645,9.645,0,0,0,10.848,0l.035.011.013-.011c.573.182,1.049.312,1.455.474a2.924,2.924,0,0,1,.649.373,2.339,2.339,0,0,1,.467.454l-.014.008.014.019a4.726,4.726,0,0,0-2.041,3.351,12.578,12.578,0,0,0,.359,2.828c-.355.794-.81,1.549-1.189,2.334a5.942,5.942,0,0,0-.716,3.146,7.113,7.113,0,0,0,1.041,3.117c.294.521.605,1.029.874,1.562a9.092,9.092,0,0,1,.73,1.967,16.835,16.835,0,0,1,.422,3.167c.163,3.485-.348,5.123-.652,8.565l-.011.128-.12.064c-3.333,1.788-10.149,1.787-13.483,0l-.12-.064Z" transform="translate(-150.425 -257.078)" fill="#e55b59" fill-rule="evenodd"/>
                </g>
                <g id="Grupo_69170" data-name="Grupo 69170" transform="translate(0 6.599)">
                  <path id="Trazado_106228" data-name="Trazado 106228" d="M138.112,268.673q-.255-1.8-.511-3.591l-2.138-.855c-3.3,2.933-3.472,14.151-4.259,20.608a4.31,4.31,0,0,0,2.589.537l1.27-6.723C135.8,274.725,136.285,271.169,138.112,268.673Z" transform="translate(-131.204 -262.94)" fill="#dc4658" fill-rule="evenodd"/>
                  <path id="Trazado_106229" data-name="Trazado 106229" d="M155.81,288.441c-.3-3.441-.815-5.08-.651-8.565a16.834,16.834,0,0,1,.422-3.167,9.1,9.1,0,0,1,.731-1.967c.268-.533.579-1.042.873-1.562a7.106,7.106,0,0,0,1.041-3.117,5.942,5.942,0,0,0-.715-3.146c-.378-.785-.833-1.54-1.189-2.334a12.583,12.583,0,0,0,.359-2.828,4.727,4.727,0,0,0-2.041-3.351l.014-.019-.014-.008a2.339,2.339,0,0,1,.467-.454,2.934,2.934,0,0,1,.649-.373c.406-.162.882-.292,1.455-.474l.013.011.035-.011a6.777,6.777,0,0,0,3.156,1.441c.917,2.112,4.484,2.492,5.008,4.985.586,2.787-1.924,7.727-1.924,10.837a40.266,40.266,0,0,1-2.957,15.525,12.855,12.855,0,0,1-4.6-1.232l-.12-.064Z" transform="translate(-150.425 -257.078)" fill="#e76862" fill-rule="evenodd"/>
                </g>
              </g>
              <g id="Grupo_69173" data-name="Grupo 69173" transform="translate(28.882)">
                <path id="Trazado_106230" data-name="Trazado 106230" d="M249.332,226.518l.006,0a.646.646,0,0,0,.3-.518.639.639,0,0,0-.036-.207.648.648,0,0,0-.088-.173c-.036-.049-.027-.08-.039-.08a2.566,2.566,0,0,1-1.818-.754l0,0a2.57,2.57,0,0,1,0-3.637l0,0a2.569,2.569,0,0,1,3.637,0l0,0a2.574,2.574,0,0,1,.612.973h-1.1a1.575,1.575,0,1,0-1.329,2.419,1.1,1.1,0,0,1,.841.486,1.665,1.665,0,0,1,.233.443,1.638,1.638,0,0,1,.09.531,1.543,1.543,0,0,1-.094.534,18.84,18.84,0,0,1,5.188.835c1.714.574,2.815,1.427,2.92,2.427a.5.5,0,0,1-.445.547l-.051,0h-16.89a.5.5,0,0,1-.5-.5.514.514,0,0,1,.009-.1c.134-.98,1.227-1.816,2.914-2.38a19.308,19.308,0,0,1,5.642-.845Zm2.71-3.373h-1c0,.02,0,.039-.008.058a1.593,1.593,0,0,1-.054.233.5.5,0,0,0,.954.3,2.594,2.594,0,0,0,.089-.381q.016-.1.023-.207Zm3.374,5.165a20.89,20.89,0,0,0-11.41,0,5.057,5.057,0,0,0-1.947,1.031h15.3A5.059,5.059,0,0,0,255.416,228.31Z" transform="translate(-240.766 -220.387)" fill="#e79c75" fill-rule="evenodd"/>
                <g id="Grupo_69172" data-name="Grupo 69172" transform="translate(1.504 6.175)">
                  <path id="Trazado_106231" data-name="Trazado 106231" d="M250.212,299.486c-.281-3.441-.754-18.484-.6-21.968a18.129,18.129,0,0,1,.39-3.167,9.582,9.582,0,0,1,.676-1.967c.248-.533.536-1.042.808-1.562a7.506,7.506,0,0,0,.963-3.117,6.338,6.338,0,0,0-.662-3.146c-.35-.785-.771-1.54-1.1-2.334l-.042-.137c.015-.025.029-.051.043-.076l-.019-.048a4.4,4.4,0,0,0,.35-2.566,4.789,4.789,0,0,0-1.888-3.351l.013-.019-.013-.008a2.269,2.269,0,0,1,.432-.454,2.675,2.675,0,0,1,.6-.373c.375-.162.816-.292,1.346-.474l.012.011.033-.011a8.374,8.374,0,0,0,10.036,0l.033.011.012-.011c.53.182.971.312,1.346.474a2.663,2.663,0,0,1,.6.373,2.27,2.27,0,0,1,.432.454l-.013.008.013.019a4.789,4.789,0,0,0-1.888,3.351,4.4,4.4,0,0,0,.35,2.566l-.018.048c.014.026.028.051.042.076l-.041.137c-.329.794-.75,1.549-1.1,2.334a6.339,6.339,0,0,0-.662,3.146,7.509,7.509,0,0,0,.963,3.117c.272.52.56,1.029.808,1.562a9.581,9.581,0,0,1,.676,1.967,18.132,18.132,0,0,1,.39,3.167c.151,3.485-.322,18.527-.6,21.968l-.01.128-.111.064c-3.084,1.788-9.389,1.787-12.473,0l-.111-.064Z" transform="translate(-249.13 -254.719)" fill="#059485" fill-rule="evenodd"/>
                  <path id="Trazado_106232" data-name="Trazado 106232" d="M250.212,299.486c-.281-3.441-.754-18.484-.6-21.968a18.129,18.129,0,0,1,.39-3.167,9.582,9.582,0,0,1,.676-1.967c.248-.533.536-1.042.808-1.562a7.506,7.506,0,0,0,.963-3.117,6.338,6.338,0,0,0-.662-3.146c-.35-.785-.771-1.54-1.1-2.334l-.042-.137c.015-.025.029-.051.043-.076l-.019-.048a4.4,4.4,0,0,0,.35-2.566,4.789,4.789,0,0,0-1.888-3.351l.013-.019-.013-.008a2.269,2.269,0,0,1,.432-.454,2.675,2.675,0,0,1,.6-.373c.375-.162.816-.292,1.346-.474l.012.011.033-.011a5.95,5.95,0,0,0,2.743,1.4c1.069,1.937,4.768,3.144,5.514,5.736.5,1.726-1.857,4.681-1.533,6.633a61.437,61.437,0,0,1,.8,10.041c0,9.011-1.852,17.056-4.753,22.351a10.926,10.926,0,0,1-4-1.2l-.111-.064Z" transform="translate(-249.13 -254.719)" fill="#05a08b" fill-rule="evenodd"/>
                </g>
              </g>
            </g>
            <g id="Grupo_69180" data-name="Grupo 69180" transform="translate(97.029)">
              <path id="Trazado_106233" data-name="Trazado 106233" d="M668.924,331.671h4.955a21.119,21.119,0,0,1-1.379-4.592c-.153-.793.775-10.248.455-16.263-.12-2.265-1.1-4.115-1.069-4.671.194-3.548.4-7.236.747-10.317,2.717-23.933-15.535-14.931-11.673.828.971,3.961,3.527,7.124,2.753,9.3-2.732,7.691,1.379,15.491,4.625,21.907C669.056,329.283,669.388,330.109,668.924,331.671Z" transform="translate(-644.373 -235.577)" fill="#feceb4" fill-rule="evenodd"/>
              <path id="Trazado_106234" data-name="Trazado 106234" d="M669.964,301.553a3.757,3.757,0,0,0,.129.479c.107.351.218.7.32,1.052a13.513,13.513,0,0,1,.552,3.072c.1,1.923.075,3.872.023,5.8-.062,2.272-.18,4.542-.307,6.811,0,.085-.01.17-.014.255a17.816,17.816,0,0,1-8,0c-.485-1.114-.943-2.241-1.354-3.392-1.691-4.738-2.5-9.709-.864-14.612.3-.893-.331-2.436-.657-3.251a36.833,36.833,0,0,1-1.956-5.475,17.824,17.824,0,0,1,1.208-12.13c1.294-2.468,3.758-5.01,6.639-4.6,2.22.319,3.589,2.285,4.315,4.385,1.176,3.4,1.04,7.843.662,11.387C670.3,294.717,670.138,298.154,669.964,301.553Z" transform="translate(-641.817 -230.971)" fill="#16c0a1" fill-rule="evenodd"/>
              <path id="Trazado_106235" data-name="Trazado 106235" d="M658.276,285.139a15.268,15.268,0,0,1,1.563-4.981c1.294-2.468,3.758-5.01,6.639-4.6,2.22.319,3.589,2.285,4.315,4.385a16.766,16.766,0,0,1,.766,3.57c-1.979,1-6.1,1.681-10.875,1.681C659.86,285.2,659.055,285.178,658.276,285.139Z" transform="translate(-642.614 -230.971)" fill="#01ab92" fill-rule="evenodd"/>
              <path id="Trazado_106236" data-name="Trazado 106236" d="M659.615,314.283a19.662,19.662,0,0,1,0-2.988,12.615,12.615,0,0,1,.026,2.822l-.022.166Zm.591-9.3c-.139-.422-.3-.813-.416-1.108a36.834,36.834,0,0,1-1.956-5.475,17.824,17.824,0,0,1,1.208-12.13,10.723,10.723,0,0,1,2.625-3.3,7.729,7.729,0,0,1,1.246,3.223c.609,3.536-.2,8-1.083,11.513Q660.922,301.326,660.206,304.987Z" transform="translate(-641.817 -237.086)" fill="#01ab92" fill-rule="evenodd"/>
              <path id="Trazado_106237" data-name="Trazado 106237" d="M681.275,417.092c-.216-2.872.046-6.87-.042-8.633-.54-10.809-5.36-10.074-7.034-5.058-1.54,4.615-.742,9.331.856,13.808C676.35,420.84,681.607,421.5,681.275,417.092Z" transform="translate(-654.994 -332.968)" fill="#36ceb0" fill-rule="evenodd"/>
              <path id="Trazado_106238" data-name="Trazado 106238" d="M613.508,330.321h4.6a20.994,20.994,0,0,1-.835-4.592c-.362-4.412.714-9.542,1.105-14.55.156-1.994-.62-3.852-.38-5.816.462-3.775,1.061-7.429,1.724-10.711,4.84-23.933-12.8-16.051-10.741-.292.518,3.962,2.471,7.947,1.542,10.126-3.281,7.691.419,15.613,2.811,22.029A4.546,4.546,0,0,1,613.508,330.321Z" transform="translate(-602.047 -234.226)" fill="#feceb4" fill-rule="evenodd"/>
              <path id="Trazado_106239" data-name="Trazado 106239" d="M607.213,317.656a46.013,46.013,0,0,1-1.871-6.524,19.879,19.879,0,0,1,.845-11.66,6.393,6.393,0,0,0-.136-3.172c-.367-1.671-.864-3.3-1.192-4.985-.093-.478-.173-.959-.234-1.442a18.424,18.424,0,0,1,2.228-11.816c1.38-2.246,3.953-4.736,6.765-4.1,2.2.5,3.3,2.678,3.772,4.761.8,3.536.241,8-.446,11.513s-1.235,7.073-1.657,10.634a6.733,6.733,0,0,0-.009,1.339,27.2,27.2,0,0,1,.381,4.434c-.072.945-.166,1.887-.27,2.829-.222,2.015-.492,4.026-.676,6.045-.065.709-.119,1.424-.154,2.142A15.055,15.055,0,0,1,607.213,317.656Z" transform="translate(-598.473 -229.609)" fill="#3ed1b4" fill-rule="evenodd"/>
              <path id="Trazado_106240" data-name="Trazado 106240" d="M608.446,281.917a15.522,15.522,0,0,1,1.679-3.86c1.38-2.246,3.953-4.736,6.765-4.1,2.2.5,3.3,2.678,3.772,4.761a19.677,19.677,0,0,1,.371,5.1q-.6.015-1.216.015C614.667,283.837,610.25,283.041,608.446,281.917Z" transform="translate(-601.746 -229.609)" fill="#1ec6a5" fill-rule="evenodd"/>
              <path id="Trazado_106241" data-name="Trazado 106241" d="M615.4,362.2c.157-1.557.348-3.11.511-4.667.095-.905.181-1.811.247-2.719a28.408,28.408,0,0,0-.353-4.138,8.154,8.154,0,0,1,.012-1.545,29.14,29.14,0,0,0,.017-4.241,29.991,29.991,0,0,0-1.4-8.533c-2.208-6.094-7.542-4.773-6.035,3.365.3,1.627.815,2.6,1.153,4.223a9.725,9.725,0,0,1,.014,4.425,19.107,19.107,0,0,0-.719,10.688c.2,1.077.459,2.139.754,3.189C610.487,365.411,615.076,365.4,615.4,362.2Z" transform="translate(-601.487 -277.752)" fill="#62ddc4" fill-rule="evenodd"/>
              <g id="Grupo_69175" data-name="Grupo 69175" transform="translate(9.201 95.616)">
                <path id="Trazado_106242" data-name="Trazado 106242" d="M624.455,559.458c.823,0,1.646.089,2.388.117.741-.028,1.565-.117,2.388-.117a1.992,1.992,0,0,1,2.105,1.855,1.659,1.659,0,0,1-.141.67h-8.7a1.654,1.654,0,0,1-.142-.67A1.992,1.992,0,0,1,624.455,559.458Z" transform="translate(-622.35 -559.458)" fill="#c22c44" fill-rule="evenodd"/>
                <path id="Trazado_106243" data-name="Trazado 106243" d="M623.094,574.048h8.141a.353.353,0,0,0,.352-.352v-.2h-8.845v.2A.353.353,0,0,0,623.094,574.048Z" transform="translate(-622.671 -570.973)" fill="#254b4b" fill-rule="evenodd"/>
                <path id="Trazado_106244" data-name="Trazado 106244" d="M626.231,561.512a37.283,37.283,0,0,0-3.82.247,1.655,1.655,0,0,1-.061-.446,1.992,1.992,0,0,1,2.105-1.855c.823,0,1.646.089,2.388.117.741-.028,1.565-.117,2.388-.117a2.382,2.382,0,0,1,.469.046C629.712,560.49,629.237,561.512,626.231,561.512Z" transform="translate(-622.35 -559.458)" fill="#df4157" fill-rule="evenodd"/>
              </g>
              <g id="Grupo_69176" data-name="Grupo 69176" transform="translate(22.887 95.616)">
                <path id="Trazado_106245" data-name="Trazado 106245" d="M700.378,559.458c.823,0,1.655.089,2.4.117.739-.028,1.554-.117,2.377-.117a2.241,2.241,0,0,1,2.285,1.855,1.582,1.582,0,0,1-.077.67h-8.7a1.711,1.711,0,0,1,1.719-2.525Z" transform="translate(-698.445 -559.458)" fill="#c22c44" fill-rule="evenodd"/>
                <path id="Trazado_106246" data-name="Trazado 106246" d="M699.646,574.048h8.141a.315.315,0,0,0,.318-.352l-.019-.2h-8.845l.019.2A.4.4,0,0,0,699.646,574.048Z" transform="translate(-699.098 -570.973)" fill="#254b4b" fill-rule="evenodd"/>
                <path id="Trazado_106247" data-name="Trazado 106247" d="M702.353,561.512a36.6,36.6,0,0,0-3.8.247,1.746,1.746,0,0,1-.1-.446,1.777,1.777,0,0,1,1.926-1.855c.823,0,1.655.089,2.4.117.739-.028,1.554-.117,2.377-.117a2.449,2.449,0,0,1,.473.046C705.735,560.49,705.359,561.512,702.353,561.512Z" transform="translate(-698.445 -559.458)" fill="#df4157" fill-rule="evenodd"/>
              </g>
              <path id="Trazado_106248" data-name="Trazado 106248" d="M590.9,30.247c-2.679-1.532-6.828,1.129-6.121,4.117a3.611,3.611,0,0,0-1.711,2.1c-.454,1.514.128.839-1.228,1.607a4.263,4.263,0,0,0-2.214,3.911,4.109,4.109,0,0,0,.482,1.735c.7,1.3.575,1.054-.556,2.062a4.191,4.191,0,0,0-1.423,3.348,4.1,4.1,0,0,0,.213,1.116c.389,1.146.352,1.023-.62,1.626a4.236,4.236,0,0,0-2.036,3.806,4.116,4.116,0,0,0,.286,1.313c.761,1.91,1.027.5-.184,2.072a3.463,3.463,0,0,0-.725,2.3,3.634,3.634,0,0,0,3.879,3.368c10.081-.514,10.786-1.187,27.456-2.036a4.146,4.146,0,0,0,4.012-4.272,4.031,4.031,0,0,0-2.226-3.375c-1.813-.928-.714-.345-.817-2.363a3.513,3.513,0,0,0-1.644-2.782c-1.577-1.007-.834-.336-.941-2.452a3.494,3.494,0,0,0-1.384-2.6c-1.069-.819-.94-.841-.587-2.117a3.435,3.435,0,0,0,.12-1.094,3.55,3.55,0,0,0-2.226-3.085c-1.051-.435-.778-.688-.527-1.6C601.547,31.977,595.961,26.531,590.9,30.247Z" transform="translate(-574.363 -28.807)" fill="#1c5f5b" fill-rule="evenodd"/>
              <path id="Trazado_106249" data-name="Trazado 106249" d="M623.266,64.1a2.627,2.627,0,0,0-3.718,2.7,2.336,2.336,0,0,0-1.039,1.376c-.276.991.078.549-.746,1.052a2.863,2.863,0,0,0-1.052,3.7c.424.854.349.691-.338,1.351a2.877,2.877,0,0,0-.735,2.923c.236.75.214.67-.376,1.065a2.833,2.833,0,0,0-1.237,2.492,2.868,2.868,0,0,0,.174.86c.462,1.25.624.327-.112,1.356a2.389,2.389,0,0,0-.44,1.505,2.27,2.27,0,0,0,2.356,2.2c6.124-.336,6.552-.777,16.678-1.333a2.685,2.685,0,0,0,1.085-5.007c-1.1-.607-.434-.226-.5-1.547a2.336,2.336,0,0,0-1-1.822c-.958-.659-.506-.22-.572-1.606a2.343,2.343,0,0,0-.841-1.7c-.649-.537-.571-.551-.356-1.386a2.415,2.415,0,0,0,.073-.716,2.318,2.318,0,0,0-1.352-2.02c-.638-.285-.472-.451-.32-1.047C629.734,65.232,626.341,61.666,623.266,64.1Z" transform="translate(-606.009 -56.918)" fill="#254b4b" fill-rule="evenodd"/>
              <path id="Trazado_106250" data-name="Trazado 106250" d="M628.108,158.831c.029,1.676-5.017,3.035-11.27,3.035s-11.345-1.359-11.374-3.035c0-.037.092-2.225.256-5.415.353-6.869-1.475-16.884-.675-21.594.28-1.648,6.375-4.536,11.2-4.536s11.35,2.4,11.713,4.041c1.035,4.686-.931,13.8-.372,20.634C627.914,155.929,628.107,158.788,628.108,158.831Z" transform="translate(-598.788 -109.399)" fill="#d7314c" fill-rule="evenodd"/>
              <path id="Trazado_106251" data-name="Trazado 106251" d="M633.762,258.957a30.31,30.31,0,0,1-8.615,1.072c-4.447,0-8.306-.687-10.175-1.687,2.281-6.694,6.356-11.365,10.533-11.365C629.809,246.976,632.978,251.935,633.762,258.957Z" transform="translate(-607.098 -207.562)" fill="#dd4556" fill-rule="evenodd"/>
              <path id="Trazado_106252" data-name="Trazado 106252" d="M712.156,206.752a53.523,53.523,0,0,0-.117,7.906c.152,1.863.276,3.481.364,4.679-2.243-1.459-3.653-5.5-4.058-7.192a26.088,26.088,0,0,1-.443-7.51c.005-.608,2.429-.964,2.68-.893C711.081,204.821,711.613,205.823,712.156,206.752Z" transform="translate(-683.238 -172.097)" fill="#ac273d" fill-rule="evenodd"/>
              <path id="Trazado_106253" data-name="Trazado 106253" d="M608.868,210.776c.041-.862.093-1.933.155-3.151a60.358,60.358,0,0,0-.141-6.8,54.564,54.564,0,0,0,8.665-7.44c.268.015,2.3,1.416,1.986,2.144a44.289,44.289,0,0,1-4.346,8.8C614.1,205.93,611.4,209.339,608.868,210.776Z" transform="translate(-602.092 -163.609)" fill="#ac273d" fill-rule="evenodd"/>
              <path id="Trazado_106254" data-name="Trazado 106254" d="M606.332,171.683c.032-.656.069-1.394.11-2.194.353-6.869-1.3-15.769-.5-20.478a1.774,1.774,0,0,1,.561-.877c3.382-2.778,7.505-.472,7.423,2.524-.127,4.6-4,11.875-4.154,17.321A3.815,3.815,0,0,1,606.332,171.683Z" transform="translate(-599.51 -125.473)" fill="#ac273d" fill-rule="evenodd"/>
              <path id="Trazado_106255" data-name="Trazado 106255" d="M643.084,98.917c-.472-.366-.589-.709.049-.953,2.278-.872,1.708-3.78,1.612-6.737-.02-.629,1.33-.822,2.65-.731,1.32-.092,2.67.1,2.65.731-.1,2.957-.666,5.864,1.612,6.737.638.244.521.587.049.953C650.158,100.116,644.632,100.116,643.084,98.917Z" transform="translate(-629.832 -79.209)" fill="#fea682" fill-rule="evenodd"/>
              <path id="Trazado_106256" data-name="Trazado 106256" d="M644.872,114.2a21.989,21.989,0,0,1,5.107,4.838c-2.279.464-5.724.244-6.895-.663-.472-.366-.589-.709.049-.953C644.465,116.912,644.823,115.705,644.872,114.2Z" transform="translate(-629.832 -98.667)" fill="#febea0" fill-rule="evenodd"/>
              <path id="Trazado_106257" data-name="Trazado 106257" d="M646.805,58.878a2.41,2.41,0,0,1-.27.031h-.009l-.086,0h-.265l-.086,0h-.009a2.415,2.415,0,0,1-.27-.031c-2.006-.326-4.378-2.77-4.441-5.9-.065-3.269.66-5.7,3.123-6.225a12.684,12.684,0,0,1,4.08.124c2.1.718,2.732,3.041,2.671,6.1C651.183,56.108,648.811,58.552,646.805,58.878Z" transform="translate(-628.746 -43.258)" fill="#feceb4" fill-rule="evenodd"/>
              <path id="Trazado_106258" data-name="Trazado 106258" d="M648.442,71.315a2.03,2.03,0,0,1-.235.027H648.2l-.074,0h-.232l-.075,0h-.008a2.091,2.091,0,0,1-.237-.027c-1.764-.285-3.913-2.421-4.065-5.162a11.463,11.463,0,0,1,.087-2.43c.937-.767,3.215.131,3.64-1.559,1.048,1.352,3.4,1.483,4.723,1.93a12.579,12.579,0,0,1,.182,2.059C652.184,68.894,650.185,71.03,648.442,71.315Z" transform="translate(-630.482 -55.989)" fill="#fedfcd" fill-rule="evenodd"/>
              <path id="Trazado_106259" data-name="Trazado 106259" d="M585.442,146.811c-.549,4.6-4.874,11.744-5.523,17.19a4.326,4.326,0,0,1-4.866,3.705c-2.409-.287-3.794-2.4-3.857-4.746-.078-2.932,1.868-11.89,4.886-17.13C580.2,138.684,585.878,143.162,585.442,146.811Z" transform="translate(-571.193 -121.495)" fill="#d7314c" fill-rule="evenodd"/>
              <path id="Trazado_106260" data-name="Trazado 106260" d="M693.731,144.759c.506,4.631,4.784,12.239,5.384,17.724a4.948,4.948,0,0,0,4.858,4.256c2.426,0,3.841-1.93,3.927-4.256.108-2.9-1.76-12.028-4.743-17.588C699.088,137.311,693.33,141.084,693.731,144.759Z" transform="translate(-671.676 -120.237)" fill="#d7314c" fill-rule="evenodd"/>
              <path id="Trazado_106261" data-name="Trazado 106261" d="M707.935,199.3c1.246,3.262,2.536,6.66,2.845,9.492a4.948,4.948,0,0,0,4.857,4.256c2.426,0,3.841-1.93,3.927-4.256.029-.79-7.492-9.315-8.856-11.816-.3-.072-2.682.232-2.688.839C708.019,198.031,707.966,198.561,707.935,199.3Z" transform="translate(-683.341 -166.551)" fill="#ac273d" fill-rule="evenodd"/>
              <path id="Trazado_106262" data-name="Trazado 106262" d="M662.442,147.873a16.853,16.853,0,0,0,10.564-.087l-2.23,16.654a19,19,0,0,1-8.231-.117Q662.493,156.1,662.442,147.873Z" transform="translate(-646.03 -126.212)" fill="#fff" fill-rule="evenodd"/>
              <path id="Trazado_106263" data-name="Trazado 106263" d="M697,163.991c.339.891.532.421.659-.111.194-.812.347-.937.515-.949.213-.014.3.3.28,1.089a11.967,11.967,0,0,1-.465,3.3,1.55,1.55,0,0,1-1.734.619,22.9,22.9,0,0,1-2.867-4.222c-.1-.2-.643-1.235,0-.608.274.268.716.629.567.18a5.291,5.291,0,0,1-.387-1.743.176.176,0,0,1,.322-.024c.265.335.746,1.26.851,1.105.08-.118-.174-1.151-.161-1.553.007-.188.232-.177.373.035.29.437.554,1.542.779,1.521.306-.029.258-.71.278-1.115.016-.325.174-.355.367-.04C696.777,162.135,696.69,163.179,697,163.991Z" transform="translate(-671.156 -137.002)" fill="#febea0" fill-rule="evenodd"/>
              <path id="Trazado_106264" data-name="Trazado 106264" d="M660.839,163.436c-.668.679-.657.172-.559-.367.149-.821.059-1-.09-1.076-.189-.1-.4.156-.694.885a11.951,11.951,0,0,0-.9,3.21,1.549,1.549,0,0,0,1.339,1.264,22.892,22.892,0,0,0,4.322-2.714c.168-.142,1.086-.872.246-.556-.359.135-.908.288-.591-.063a5.284,5.284,0,0,0,1.055-1.44.176.176,0,0,0-.285-.152c-.377.2-1.19.854-1.224.67-.026-.14.622-.984.771-1.357.07-.175-.141-.255-.355-.118-.441.284-1.127,1.19-1.324,1.08-.268-.15.049-.754.194-1.133.116-.3-.016-.395-.32-.184C661.788,161.826,661.448,162.817,660.839,163.436Z" transform="translate(-642.874 -137.271)" fill="#febea0" fill-rule="evenodd"/>
              <path id="Trazado_106265" data-name="Trazado 106265" d="M710.582,196.689c-.251-.072-2.674.285-2.68.893a26.088,26.088,0,0,0,.443,7.51c.45,1.877,2.143,6.671,4.844,7.579,2.126.715,4.605-.026,5.538-1.654a2.52,2.52,0,0,0,.219-2.107C718.483,207.552,713.859,203.759,710.582,196.689Z" transform="translate(-683.238 -166.312)" fill="#d7314c" fill-rule="evenodd"/>
              <path id="Trazado_106266" data-name="Trazado 106266" d="M624.247,292.259c-2.517-3.692-2.186-15.95-1.905-26.332.134-4.967.256-9.5.052-12.384-.061-.86-.147-1.629-.255-2.314.516-.647.945-1.236,1.249-1.684l.026-.039a24.308,24.308,0,0,1,.562,3.926c.207,2.928.083,7.51-.052,12.533-.274,10.148-.6,22.131,1.632,25.4Z" transform="translate(-612.975 -209.637)" fill="#fab433" fill-rule="evenodd"/>
              <path id="Trazado_106267" data-name="Trazado 106267" d="M624.307,327.046c-2.517-3.692-2.186-15.95-1.905-26.332.077-2.856.151-5.567.16-7.9a1.977,1.977,0,0,1,1.473-.888c.037,0,.074,0,.111.005.007,2.543-.075,5.593-.162,8.824-.274,10.148-.6,22.131,1.632,25.4Z" transform="translate(-613.036 -244.424)" fill="#fccc51" fill-rule="evenodd"/>
              <path id="Trazado_106268" data-name="Trazado 106268" d="M622.454,254.676c-.016-.4-.036-.779-.061-1.133-.061-.86-.147-1.629-.255-2.314.516-.647.945-1.236,1.249-1.684l.026-.039a23.581,23.581,0,0,1,.536,3.58C623.485,253.62,622.981,254.162,622.454,254.676Z" transform="translate(-612.975 -209.637)" fill="#e99b36" fill-rule="evenodd"/>
              <path id="Trazado_106269" data-name="Trazado 106269" d="M588.837,185.965c.268.015,2.3,1.416,1.986,2.144a44.289,44.289,0,0,1-4.346,8.8c-1.4,2.063-5.462,7.112-8.411,7.112a4.2,4.2,0,0,1-3.3-6.81C575.9,195.774,582.127,193.1,588.837,185.965Z" transform="translate(-573.382 -157.524)" fill="#dc4251" fill-rule="evenodd"/>
              <path id="Trazado_106270" data-name="Trazado 106270" d="M590.986,31.281c-2.679-1.532-6.915,1.621-6.208,4.61a3.611,3.611,0,0,0-1.711,2.1c-.454,1.514.128.839-1.228,1.607a4.263,4.263,0,0,0-2.214,3.911,4.109,4.109,0,0,0,.482,1.735c.7,1.3.575,1.054-.556,2.062a4.191,4.191,0,0,0-1.423,3.348,4.1,4.1,0,0,0,.213,1.116c.389,1.146.352,1.023-.62,1.626a4.236,4.236,0,0,0-2.036,3.806,4.116,4.116,0,0,0,.286,1.313c.761,1.91,1.027.5-.184,2.072a3.451,3.451,0,0,0-.239,3.894,41.209,41.209,0,0,1,3.7-9.815,10.96,10.96,0,0,1,1.368-1.912h0c.085-.5.712-1.121,1.679-1.737a4.1,4.1,0,0,1,.334-.291,4.222,4.222,0,0,1,1.14-3.987,4.206,4.206,0,0,1,1.645-5.249l.1-.058c.016-.068.034-.136.053-.206a13.5,13.5,0,0,1,1.509-3.265c.115-2.361,3.745-.243,4.084-2.71C592.211,35,592.828,31.331,590.986,31.281Z" transform="translate(-574.363 -30.333)" fill="#2f887d" fill-rule="evenodd"/>
              <path id="Trazado_106271" data-name="Trazado 106271" d="M660.771,28.754c-2.7,7.278,5.708,4.813,5.884,6.693.809-.106.945.611,1.361.992.7.637.148,2.8.725,3.416.707.76,1.732.891,1.958,1.489.516,1.366-.5,2.821-.231,3.041,1.828,1.5,1.337,2.333,1.186,3.8a6.1,6.1,0,0,1,1.3.9,10.037,10.037,0,0,1,2.753,3.409,39.606,39.606,0,0,1,2.856,7.3,2.451,2.451,0,0,0,1.71-2.342,4.031,4.031,0,0,0-2.226-3.375c-1.813-.928-.714-.345-.817-2.363a3.514,3.514,0,0,0-1.644-2.782c-1.578-1.007-.834-.336-.942-2.452a3.494,3.494,0,0,0-1.384-2.6c-1.069-.819-.94-.841-.586-2.117a3.438,3.438,0,0,0,.12-1.094,3.55,3.55,0,0,0-2.226-3.085c-1.051-.435-.8-.694-.527-1.6C671.57,30.843,665.221,25.694,660.771,28.754Z" transform="translate(-644.222 -27.836)" fill="#23756c" fill-rule="evenodd"/>
              <g id="Grupo_69179" data-name="Grupo 69179" transform="translate(11.03 7.467)">
                <g id="Grupo_69177" data-name="Grupo 69177">
                  <path id="Trazado_106272" data-name="Trazado 106272" d="M632.574,70.5a2.372,2.372,0,0,0,.608,2.164c.463.552,1.051.894,1.334.436a17.551,17.551,0,0,1-.156-3.428C633.915,69.059,632.8,69.313,632.574,70.5Z" transform="translate(-632.519 -69.35)" fill="#feceb4" fill-rule="evenodd"/>
                  <path id="Trazado_106273" data-name="Trazado 106273" d="M636.457,73.309c-.452.063-.718,1.739.445,2.222a2.732,2.732,0,0,1-.223-.776,3.469,3.469,0,0,1,.028-1.239C636.784,73.239,636.791,73.263,636.457,73.309Z" transform="translate(-635.433 -72.574)" fill="#fea682" fill-rule="evenodd"/>
                </g>
                <g id="Grupo_69178" data-name="Grupo 69178" transform="translate(11.068)">
                  <path id="Trazado_106274" data-name="Trazado 106274" d="M696,70.5a2.372,2.372,0,0,1-.608,2.164c-.463.552-1.051.894-1.334.436a17.565,17.565,0,0,0,.156-3.428C694.658,69.059,695.771,69.313,696,70.5Z" transform="translate(-694.058 -69.35)" fill="#feceb4" fill-rule="evenodd"/>
                  <path id="Trazado_106275" data-name="Trazado 106275" d="M697.438,73.309c.451.063.718,1.739-.445,2.222a2.729,2.729,0,0,0,.223-.776,3.471,3.471,0,0,0-.028-1.239C697.111,73.239,697.1,73.263,697.438,73.309Z" transform="translate(-696.465 -72.574)" fill="#fea682" fill-rule="evenodd"/>
                </g>
              </g>
              <path id="Trazado_106276" data-name="Trazado 106276" d="M588.161,153.728a26.594,26.594,0,0,1-1.931,6.054c-.042.105-2.906,1.794-5.3,3.639-2.623,2.02-4.781,4.1-4.38,1.434a38.877,38.877,0,0,1,3.855-11.94C583.814,146.993,588.522,150.7,588.161,153.728Z" transform="translate(-575.545 -127.839)" fill="#dc4251" fill-rule="evenodd"/>
              <path id="Trazado_106277" data-name="Trazado 106277" d="M578.158,224.722c-.039.019-.076.04-.114.061-1.308.744-2.141,2.668-2.63,5.061a35.112,35.112,0,0,0-.5,8.315c.168,3.521.71,6.565,1.293,7.589l-1.376.781c-.69-1.212-1.319-4.545-1.5-8.3a36.681,36.681,0,0,1,.526-8.706c.574-2.811,1.638-5.119,3.4-6.121a4.059,4.059,0,0,1,1.838-.53,3.022,3.022,0,0,1,1.373.249C579.641,223.726,578.863,224.255,578.158,224.722Z" transform="translate(-572.909 -187.795)" fill="#fab433" fill-rule="evenodd"/>
              <path id="Trazado_106278" data-name="Trazado 106278" d="M576.181,243.557a14.462,14.462,0,0,0-.768,2.619,35.112,35.112,0,0,0-.5,8.315c.168,3.521.71,6.565,1.293,7.589l-1.376.781c-.69-1.212-1.319-4.545-1.5-8.3a36.68,36.68,0,0,1,.526-8.706,15.421,15.421,0,0,1,.934-3.073h.01A1.879,1.879,0,0,1,576.181,243.557Z" transform="translate(-572.909 -204.126)" fill="#fccc51" fill-rule="evenodd"/>
              <path id="Trazado_106279" data-name="Trazado 106279" d="M604.51,194.868c-.7,1.268-1.637,3.078-2.678,4.881-1.757,3.045-3.762,4.794-5.405,5.169a2.727,2.727,0,0,1-2.784-.565c-1.27-1.471.239-3.211,1.516-4.109a51.244,51.244,0,0,0,7.918-6.334C604.673,192.308,605.136,193.728,604.51,194.868Z" transform="translate(-589.212 -163.452)" fill="#e35357" fill-rule="evenodd"/>
              <path id="Trazado_106280" data-name="Trazado 106280" d="M709.835,205.018a26.4,26.4,0,0,0,.516,4.695c.361,1.7,2.011,5.853,3.546,6.673,2.141,1.145,3.45-.358,2.656-3.158-.3-1.072-2.489-3.838-4.451-8.684C711.063,201.976,709.762,202.349,709.835,205.018Z" transform="translate(-684.897 -171.335)" fill="#dc4251" fill-rule="evenodd"/>
            </g>
          </g>
        </g>
      </g>
      <g id="Grupo_69185" data-name="Grupo 69185" transform="translate(70.248 1857.893)">
        <g id="Grupo_69183" data-name="Grupo 69183" transform="translate(319.752 765.5)">
          <path id="Trazado_106281" data-name="Trazado 106281" d="M319.752,780.4a14.9,14.9,0,1,1,29.793,0c0,.034,0,.069,0,.1l-29.789-.048C319.753,780.433,319.752,780.415,319.752,780.4Z" transform="translate(-319.752 -765.5)" fill="#7e1a2d"/>
        </g>
        <g id="Grupo_69184" data-name="Grupo 69184" transform="translate(479.959 765.5)">
          <path id="Trazado_106282" data-name="Trazado 106282" d="M2306,780.4a14.9,14.9,0,1,0-29.793,0c0,.034,0,.069,0,.1l29.789-.048C2306,780.433,2306,780.415,2306,780.4Z" transform="translate(-2276.211 -765.5)" fill="#7e1a2d"/>
        </g>
        <path id="Trazado_106283" data-name="Trazado 106283" d="M578.583,765.613l-80.062-.113,1.162.551a18.272,18.272,0,0,1,5.155,3.622,16,16,0,0,1,4.268,7.6,78.054,78.054,0,0,0,3.176,10.481,55.566,55.566,0,0,0,2.43,5.81,21.751,21.751,0,0,0,1.821,3.094,17.977,17.977,0,0,0,4.749,5.062h0a21,21,0,0,0,7.308,4.435c3.537,1.48,8.42,2.51,16.522,2.51.233,0,.458-.013.675-.016.153,0,.3-.006.451-.006H611.01c.147,0,.3.009.451.006.217,0,.442.016.675.016,8.1,0,12.984-1.03,16.522-2.51a21,21,0,0,0,7.308-4.435h0a17.977,17.977,0,0,0,4.749-5.062,21.74,21.74,0,0,0,1.821-3.094,55.54,55.54,0,0,0,2.429-5.81,78.019,78.019,0,0,0,3.174-10.481,15.985,15.985,0,0,1,4.263-7.6,18.218,18.218,0,0,1,5.145-3.622l1.141-.551Z" transform="translate(-163.872)" fill="#e63a5b"/>
      </g>
      <path id="Trazado_106284" data-name="Trazado 106284" d="M3.946,17H1.31V4.2H3.946ZM8.6,7.49l.079,1.063a3.342,3.342,0,0,1,2.733-1.239,2.536,2.536,0,0,1,2.522,1.45A3.265,3.265,0,0,1,16.8,7.314a2.836,2.836,0,0,1,2.3.9,4.141,4.141,0,0,1,.756,2.711V17H17.306V10.922a1.818,1.818,0,0,0-.316-1.185,1.4,1.4,0,0,0-1.116-.374,1.585,1.585,0,0,0-1.582,1.092L14.3,17H11.76V10.93a1.8,1.8,0,0,0-.325-1.2,1.414,1.414,0,0,0-1.107-.37,1.645,1.645,0,0,0-1.564.9V17H6.223V7.49Zm21.762,4.843a5.7,5.7,0,0,1-1,3.52,3.2,3.2,0,0,1-2.694,1.323,2.963,2.963,0,0,1-2.329-1v4.482h-2.54V7.49h2.355l.088.932a2.985,2.985,0,0,1,2.408-1.107,3.22,3.22,0,0,1,2.733,1.3,5.858,5.858,0,0,1,.976,3.586Zm-2.54-.194a3.763,3.763,0,0,0-.47-2.054,1.53,1.53,0,0,0-1.367-.723,1.662,1.662,0,0,0-1.644.917v3.906a1.691,1.691,0,0,0,1.661.943Q27.826,15.128,27.826,12.139Zm3.718.018a5.64,5.64,0,0,1,.545-2.522,3.989,3.989,0,0,1,1.569-1.714,4.577,4.577,0,0,1,2.377-.606,4.33,4.33,0,0,1,3.142,1.178,4.727,4.727,0,0,1,1.358,3.2l.018.65a4.97,4.97,0,0,1-1.222,3.511,4.247,4.247,0,0,1-3.278,1.323,4.268,4.268,0,0,1-3.283-1.318,5.058,5.058,0,0,1-1.226-3.586Zm2.54.18a3.555,3.555,0,0,0,.51,2.073,1.831,1.831,0,0,0,2.9.009,3.89,3.89,0,0,0,.519-2.267,3.519,3.519,0,0,0-.519-2.06,1.686,1.686,0,0,0-1.459-.731,1.658,1.658,0,0,0-1.441.726A3.955,3.955,0,0,0,34.084,12.338ZM47.461,9.872a6.9,6.9,0,0,0-.914-.07,1.86,1.86,0,0,0-1.89.976V17h-2.54V7.49h2.4l.07,1.134a2.354,2.354,0,0,1,2.118-1.31,2.662,2.662,0,0,1,.791.114Zm4.7-4.72V7.49h1.626V9.354H52.163V14.1a1.133,1.133,0,0,0,.2.756,1.015,1.015,0,0,0,.773.229,4.051,4.051,0,0,0,.747-.062v1.925a5.229,5.229,0,0,1-1.538.229,2.425,2.425,0,0,1-2.725-2.7V9.354H48.234V7.49h1.389V5.152ZM60.715,17a2.821,2.821,0,0,1-.255-.853,3.073,3.073,0,0,1-2.4,1.028,3.376,3.376,0,0,1-2.316-.809,2.6,2.6,0,0,1-.918-2.039,2.687,2.687,0,0,1,1.121-2.32,5.529,5.529,0,0,1,3.239-.817h1.169v-.545a1.567,1.567,0,0,0-.338-1.055,1.331,1.331,0,0,0-1.068-.4,1.513,1.513,0,0,0-1.006.308,1.045,1.045,0,0,0-.365.844h-2.54a2.551,2.551,0,0,1,.51-1.529,3.37,3.37,0,0,1,1.441-1.1,5.253,5.253,0,0,1,2.092-.4,4.15,4.15,0,0,1,2.791.883A3.09,3.09,0,0,1,62.9,10.681V14.8a4.546,4.546,0,0,0,.378,2.048V17Zm-2.1-1.767a2.188,2.188,0,0,0,1.037-.25,1.645,1.645,0,0,0,.7-.672V12.676h-.949q-1.907,0-2.03,1.318l-.009.149a1.017,1.017,0,0,0,.334.782A1.3,1.3,0,0,0,58.614,15.233ZM67.192,7.49l.079,1.1A3.32,3.32,0,0,1,70,7.314a2.759,2.759,0,0,1,2.25.888,4.142,4.142,0,0,1,.756,2.654V17h-2.54V10.9a1.654,1.654,0,0,0-.352-1.176,1.572,1.572,0,0,0-1.169-.366,1.747,1.747,0,0,0-1.608.916V17H64.8V7.49ZM77.977,5.152V7.49H79.6V9.354H77.977V14.1a1.133,1.133,0,0,0,.2.756,1.015,1.015,0,0,0,.773.229,4.051,4.051,0,0,0,.747-.062v1.925a5.229,5.229,0,0,1-1.538.229,2.425,2.425,0,0,1-2.725-2.7V9.354H74.048V7.49h1.389V5.152Zm7.418,12.023a4.668,4.668,0,0,1-3.406-1.283,4.561,4.561,0,0,1-1.314-3.419v-.246a5.745,5.745,0,0,1,.554-2.562A4.064,4.064,0,0,1,82.8,7.925a4.4,4.4,0,0,1,2.316-.611,3.947,3.947,0,0,1,3.072,1.23,5,5,0,0,1,1.121,3.489v1.037H83.25a2.36,2.36,0,0,0,.743,1.494,2.245,2.245,0,0,0,1.569.563,2.742,2.742,0,0,0,2.294-1.063l1.248,1.4a3.813,3.813,0,0,1-1.547,1.261A5.075,5.075,0,0,1,85.395,17.176ZM85.1,9.362a1.587,1.587,0,0,0-1.226.512,2.651,2.651,0,0,0-.6,1.466H86.81v-.2a1.891,1.891,0,0,0-.457-1.311A1.638,1.638,0,0,0,85.1,9.362Z" transform="translate(446 2634)" fill="#fff"/>
    </g>
  </g>
</svg>
