<svg xmlns="http://www.w3.org/2000/svg" xmlns:xlink="http://www.w3.org/1999/xlink" width="295" height="197.966" viewBox="0 0 295 197.966">
  <defs>
    <linearGradient id="linear-gradient" x1="0.447" y1="0.064" x2="0.563" y2="1.019" gradientUnits="objectBoundingBox">
      <stop offset="0" stop-color="#edffff"/>
      <stop offset="1" stop-color="#888681" stop-opacity="0.4"/>
    </linearGradient>
    <linearGradient id="linear-gradient-2" x1="0.5" y1="-0.013" x2="0.5" y2="0.584" gradientUnits="objectBoundingBox">
      <stop offset="0" stop-color="#8bcee5"/>
      <stop offset="1" stop-color="#888681"/>
    </linearGradient>
  </defs>
  <g id="Grupo_69937" data-name="Grupo 69937" transform="translate(-6631.228 -2238.591)">
    <g id="Grupo_69779" data-name="Grupo 69779" transform="translate(6631.228 2433.634)">
      <g id="Grupo_69777" data-name="Grupo 69777" transform="translate(11.044 0)">
        <path id="Trazado_106435" data-name="Trazado 106435" d="M6935.343,2623.35H6654.31a1.462,1.462,0,0,1,0-2.923h281.034a1.462,1.462,0,0,1,0,2.923Z" transform="translate(-6652.849 -2620.427)" fill="#40404c"/>
      </g>
      <g id="Grupo_69778" data-name="Grupo 69778" transform="translate(0 0)">
        <path id="Trazado_106436" data-name="Trazado 106436" d="M6636.424,2623.35h-3.735a1.462,1.462,0,1,1,0-2.923h3.735a1.462,1.462,0,0,1,0,2.923Z" transform="translate(-6631.227 -2620.427)" fill="#40404c"/>
      </g>
    </g>
    <g id="Grupo_69802" data-name="Grupo 69802" transform="translate(6808.638 2238.591)">
      <g id="Grupo_69784" data-name="Grupo 69784" transform="translate(46.763 100.96)">
        <g id="Grupo_69780" data-name="Grupo 69780" transform="translate(24.115 0.551)">
          <path id="Trazado_106437" data-name="Trazado 106437" d="M7130.366,2527.712a5.839,5.839,0,0,1-5.808-5.3l-7.233-78.714a5.839,5.839,0,0,1,11.63-1.069l7.231,78.714a5.838,5.838,0,0,1-5.279,6.349C7130.726,2527.7,7130.544,2527.712,7130.366,2527.712Z" transform="translate(-7117.3 -2437.318)" fill="#0075a4"/>
        </g>
        <g id="Grupo_69781" data-name="Grupo 69781" transform="translate(5.967)">
          <path id="Trazado_106438" data-name="Trazado 106438" d="M7093.151,2527.184a5.84,5.84,0,0,1-5.819-5.431l-5.546-79.265a5.839,5.839,0,0,1,11.65-.815l5.546,79.265a5.84,5.84,0,0,1-5.418,6.232C7093.426,2527.18,7093.288,2527.184,7093.151,2527.184Z" transform="translate(-7081.771 -2436.24)" fill="#0075a4"/>
        </g>
        <g id="Grupo_69782" data-name="Grupo 69782" transform="translate(0 85.106)">
          <path id="Trazado_106439" data-name="Trazado 106439" d="M7070.091,2608.444l11.6-5.593h11.8v9.975h-23.408Z" transform="translate(-7070.091 -2602.851)" fill="#5c6863"/>
          <rect id="Rectángulo_7249" data-name="Rectángulo 7249" width="23.408" height="2.762" transform="translate(0 7.213)" fill="#e6eaed"/>
        </g>
        <g id="Grupo_69783" data-name="Grupo 69783" transform="translate(31.285 85.106)">
          <path id="Trazado_106440" data-name="Trazado 106440" d="M7154.746,2608.444l-11.606-5.593h-11.8v9.975h23.408Z" transform="translate(-7131.338 -2602.851)" fill="#5c6863"/>
          <rect id="Rectángulo_7250" data-name="Rectángulo 7250" width="23.408" height="2.762" transform="translate(0 7.213)" fill="#e6eaed"/>
        </g>
      </g>
      <path id="Trazado_106441" data-name="Trazado 106441" d="M7110.567,2433.443l-28.871,2.116c-.811-3.881-1.233-10.861-1.5-15.968,10.833-3.282,19.136-4.415,29.7-.688C7109.894,2423.179,7110.567,2426.487,7110.567,2433.443Z" transform="translate(-7028.272 -2325.66)" fill="#0075a4"/>
      <path id="Trazado_106442" data-name="Trazado 106442" d="M7107.569,2371.489l-29.7.688c-1.728-12.667-2.166-34.635-2.428-49.793,10.833-3.282,19.507-3.911,30.069-.185C7106.675,2337.542,7105.777,2353,7107.569,2371.489Z" transform="translate(-7025.947 -2278.247)" fill="#ea526f"/>
      <path id="Trazado_106443" data-name="Trazado 106443" d="M7105.607,2322v-1.841a41.071,41.071,0,0,0-13.792.195V2322a6.9,6.9,0,0,0,6.9,6.9h0A6.9,6.9,0,0,0,7105.607,2322Z" transform="translate(-7033.956 -2278.255)" fill="#881228"/>
      <g id="Grupo_69785" data-name="Grupo 69785" transform="translate(9.29 43.604)">
        <path id="Trazado_106444" data-name="Trazado 106444" d="M7011.012,2358.658a61.44,61.44,0,0,1-11.2-1.16,3.777,3.777,0,1,1,1.386-7.425c20.051,3.743,23.338-2.705,29.3-14.409,1.546-3.033,3.3-6.47,5.495-9.949a3.777,3.777,0,0,1,6.387,4.034c-2.011,3.185-3.607,6.316-5.151,9.346C7031.948,2349.465,7027.263,2358.658,7011.012,2358.658Z" transform="translate(-6996.73 -2323.954)" fill="#e38e4a"/>
      </g>
      <g id="Grupo_69786" data-name="Grupo 69786" transform="translate(67.9 45.27)">
        <path id="Trazado_106445" data-name="Trazado 106445" d="M7115.246,2369.669a3.778,3.778,0,0,1-1.022-7.413c7.688-2.167,14.664-4.332,15.573-6.975,1.214-3.531-5.321-13.13-11.874-22.054a3.777,3.777,0,1,1,6.088-4.471c10.565,14.387,15.195,22.394,12.928,28.982-2.113,6.142-9.553,8.655-20.666,11.789A3.79,3.79,0,0,1,7115.246,2369.669Z" transform="translate(-7111.47 -2327.215)" fill="#e38e4a"/>
      </g>
      <path id="Trazado_106446" data-name="Trazado 106446" d="M7102.177,2323.235h0a3.772,3.772,0,0,1-4.031-3.493l-.421-5.879,7.525-.538.42,5.879A3.771,3.771,0,0,1,7102.177,2323.235Z" transform="translate(-7036.847 -2275.15)" fill="#e38e4a"/>
      <path id="Trazado_106447" data-name="Trazado 106447" d="M7101.506,2313.85h0a3.773,3.773,0,0,1-4.032-3.493l-.6-8.391,7.525-.538.6,8.391A3.773,3.773,0,0,1,7101.506,2313.85Z" transform="translate(-7036.43 -2269.33)" fill="#d26b3e"/>
      <path id="Trazado_106448" data-name="Trazado 106448" d="M7070.507,2335.427l-6.434,7.871-11.873-5.563c8.7-14.577,12.092-14.727,18-15.821Z" transform="translate(-7014.576 -2279.352)" fill="#ea526f"/>
      <path id="Trazado_106449" data-name="Trazado 106449" d="M7119.3,2334.868l8.9,8.187,9.733-8.152c-4.272-5.961-5.219-11.029-15.587-12.989Z" transform="translate(-7047.4 -2279.352)" fill="#ea526f"/>
      <g id="Grupo_69793" data-name="Grupo 69793" transform="translate(47.556)">
        <path id="Trazado_106450" data-name="Trazado 106450" d="M7078.894,2286.946c1.519,2.047,1.423,4.692-.215,5.908s-4.2.54-5.717-1.507-1.422-4.692.215-5.907S7077.374,2284.9,7078.894,2286.946Z" transform="translate(-7071.76 -2261.213)" fill="#e38e4a"/>
        <path id="Rectángulo_7251" data-name="Rectángulo 7251" d="M10.471,0h1.468A10.471,10.471,0,0,1,22.41,10.471V22.577a11.2,11.2,0,0,1-11.2,11.2h0A11.2,11.2,0,0,1,0,22.577V10.471A10.471,10.471,0,0,1,10.471,0Z" transform="translate(3.405 6.539) rotate(-3.39)" fill="#e38e4a"/>
        <path id="Trazado_106451" data-name="Trazado 106451" d="M7086.225,2239.323a21.845,21.845,0,0,1,4.53,2.185l-.651-2.659c3.827-.24,8.529,3.251,7.869,7.409a6.15,6.15,0,0,1,3.473,2.98,9.406,9.406,0,0,1,.858,3.7,20.385,20.385,0,0,1-2.911,11.658c-1.166-2.315-2.1-4.258-3.109-6.631a11.628,11.628,0,0,1,0-8.645c-5.714,4.688-9.711,6.5-9.571,5.533a3.259,3.259,0,0,1,.749-2.313q-1,.849-2.064,1.6a6.9,6.9,0,0,1-2.3,1.177,4.106,4.106,0,0,1-4.84-3.721c-.484.976-.884,2.594-1.332,2.908s-1.257.06-1.22-.485c.2,3.371,1.112,6.985.588,10.379-1.821-1.3-4.291-4-4.611-9.4-.415-7.006,2.51-9.431,3.746-9.68a3.654,3.654,0,0,1-1.888-.121c.349-3.5,3.756-6.137,7.253-6.537A12.607,12.607,0,0,1,7086.225,2239.323Z" transform="translate(-7071.642 -2238.591)" fill="#452015"/>
        <path id="Trazado_106452" data-name="Trazado 106452" d="M7123.076,2286.763c-.074,2.518.361,3.57,2,3.741,1.1.115,2.666-1.384,3.517-3.755.8-2.228-.393-4.934-2.01-4.637C7125.426,2282.324,7123.183,2283.1,7123.076,2286.763Z" transform="translate(-7096.799 -2259.87)" fill="#e38e4a"/>
        <path id="Trazado_106453" data-name="Trazado 106453" d="M7111.519,2286.335a2.954,2.954,0,0,0,.284-1.47,1.954,1.954,0,1,0-3.77.223,2.959,2.959,0,0,0,.456,1.427Z" transform="translate(-7089.442 -2260.08)" fill="#452015"/>
        <path id="Trazado_106454" data-name="Trazado 106454" d="M7089.18,2287.658a2.967,2.967,0,0,0,.285-1.471,1.955,1.955,0,1,0-3.771.224,2.954,2.954,0,0,0,.457,1.427Z" transform="translate(-7078.514 -2260.727)" fill="#452015"/>
        <path id="Trazado_106455" data-name="Trazado 106455" d="M7097.133,2302.414l.758-.045a4.343,4.343,0,0,0,3.717-2.58l.264-.6-9.014.534h0A4.345,4.345,0,0,0,7097.133,2302.414Z" transform="translate(-7082.021 -2268.237)" fill="#632015"/>
        <path id="Trazado_106456" data-name="Trazado 106456" d="M7101.71,2299.58c.081-.187.138-.323.138-.323l-7.928.469h0c.011.032.023.064.036.1a1.776,1.776,0,0,0,1.764,1.1l4.451-.263A1.793,1.793,0,0,0,7101.71,2299.58Z" transform="translate(-7082.542 -2268.268)" fill="#fff"/>
        <path id="Trazado_106457" data-name="Trazado 106457" d="M7087.9,2275.84c-1.688-.222-4.729.236-5.546,1.995a.414.414,0,0,0,.477.59,19.909,19.909,0,0,1,4.869-.777C7088.732,2277.719,7088.928,2275.975,7087.9,2275.84Z" transform="translate(-7076.862 -2256.787)" fill="#452015"/>
        <path id="Trazado_106458" data-name="Trazado 106458" d="M7105.53,2274.928c1.65-.42,4.725-.324,5.742,1.327a.414.414,0,0,1-.4.642,19.868,19.868,0,0,0-4.926-.2C7104.932,2276.892,7104.53,2275.183,7105.53,2274.928Z" transform="translate(-7087.938 -2256.264)" fill="#452015"/>
        <g id="Grupo_69789" data-name="Grupo 69789" transform="translate(27.467 23.26)">
          <g id="Grupo_69787" data-name="Grupo 69787">
            <path id="Trazado_106459" data-name="Trazado 106459" d="M7126.062,2290.345a.5.5,0,0,1-.49-.39c-.512-2.213.227-4.986,2.351-5.795a.5.5,0,1,1,.359.941c-1.588.606-2.134,2.873-1.728,4.627a.5.5,0,0,1-.377.6A.471.471,0,0,1,7126.062,2290.345Z" transform="translate(-7125.416 -2284.126)" fill="#d26b3e"/>
          </g>
          <g id="Grupo_69788" data-name="Grupo 69788" transform="translate(0.527 2.633)">
            <path id="Trazado_106460" data-name="Trazado 106460" d="M7127.92,2292.08a.5.5,0,0,1-.4-.809.676.676,0,0,0,.072-.828.37.37,0,0,0-.46-.122.5.5,0,0,1-.362-.94,1.374,1.374,0,0,1,1.627.458,1.685,1.685,0,0,1-.077,2.043A.5.5,0,0,1,7127.92,2292.08Z" transform="translate(-7126.448 -2289.28)" fill="#d26b3e"/>
          </g>
        </g>
        <g id="Grupo_69792" data-name="Grupo 69792" transform="translate(1.137 24.943)">
          <g id="Grupo_69790" data-name="Grupo 69790">
            <path id="Trazado_106461" data-name="Trazado 106461" d="M7076.934,2293.372a.5.5,0,0,1-.5-.458l-.05-.575c-.229-2.721-.492-4-1.981-3.906a.5.5,0,0,1-.06-1.006c2.617-.151,2.848,2.492,3.045,4.828l.048.569a.5.5,0,0,1-.456.547Z" transform="translate(-7073.868 -2287.421)" fill="#d26b3e"/>
          </g>
          <g id="Grupo_69791" data-name="Grupo 69791" transform="translate(0.564 2.452)">
            <path id="Trazado_106462" data-name="Trazado 106462" d="M7075.987,2295.1a.5.5,0,0,1-.3-.1,1.465,1.465,0,0,1-.613-1.783,1.874,1.874,0,0,1,2.1-.967.5.5,0,0,1-.165.994.907.907,0,0,0-1,.365c-.1.247.131.47.282.58a.5.5,0,0,1-.3.909Z" transform="translate(-7074.972 -2292.221)" fill="#d26b3e"/>
          </g>
        </g>
      </g>
      <g id="Grupo_69797" data-name="Grupo 69797" transform="translate(61.194 77.427)">
        <path id="Trazado_106463" data-name="Trazado 106463" d="M7113.01,2396.8c.086,3.754-3.181,3.851-7.211,3.943s-7.3.145-7.385-3.608a7.318,7.318,0,0,1,14.6-.334Z" transform="translate(-7098.377 -2390.168)" fill="#e38e4a"/>
        <g id="Grupo_69794" data-name="Grupo 69794" transform="translate(3.014 6.658)">
          <path id="Trazado_106464" data-name="Trazado 106464" d="M7104.748,2406.957a.5.5,0,0,1-.479-.658c.438-1.368,1.883-2.29,4.828-3.079a.5.5,0,1,1,.261.972c-2.54.681-3.813,1.425-4.131,2.414A.5.5,0,0,1,7104.748,2406.957Z" transform="translate(-7104.244 -2403.202)" fill="#d26b3e"/>
        </g>
        <g id="Grupo_69795" data-name="Grupo 69795" transform="translate(0.984 3.796)">
          <path id="Trazado_106465" data-name="Trazado 106465" d="M7100.773,2403.788a.492.492,0,0,1-.125-.017.5.5,0,0,1-.362-.611,7.635,7.635,0,0,1,5.341-5.542.5.5,0,1,1,.26.972,6.627,6.627,0,0,0-4.625,4.818A.5.5,0,0,1,7100.773,2403.788Z" transform="translate(-7100.27 -2397.6)" fill="#d26b3e"/>
        </g>
        <g id="Grupo_69796" data-name="Grupo 69796" transform="translate(0 1.801)">
          <path id="Trazado_106466" data-name="Trazado 106466" d="M7098.846,2399.87l-.054,0a.5.5,0,0,1-.448-.553,6.773,6.773,0,0,1,4.85-5.6.5.5,0,1,1,.261.973,5.73,5.73,0,0,0-4.109,4.735A.5.5,0,0,1,7098.846,2399.87Z" transform="translate(-7098.341 -2393.694)" fill="#d26b3e"/>
        </g>
      </g>
      <g id="Grupo_69801" data-name="Grupo 69801" transform="translate(0 65.849)">
        <path id="Trazado_106467" data-name="Trazado 106467" d="M6993.211,2374.135c.086,3.754-3.181,3.851-7.211,3.943s-7.3.145-7.384-3.609a7.318,7.318,0,0,1,14.6-.334Z" transform="translate(-6978.577 -2367.503)" fill="#e38e4a"/>
        <g id="Grupo_69798" data-name="Grupo 69798" transform="translate(3.015 6.658)">
          <path id="Trazado_106468" data-name="Trazado 106468" d="M6984.948,2384.292a.52.52,0,0,1-.153-.024.5.5,0,0,1-.325-.634c.438-1.369,1.883-2.291,4.828-3.079a.5.5,0,0,1,.261.973c-2.54.681-3.813,1.426-4.13,2.414A.5.5,0,0,1,6984.948,2384.292Z" transform="translate(-6984.445 -2380.538)" fill="#d26b3e"/>
        </g>
        <g id="Grupo_69799" data-name="Grupo 69799" transform="translate(0.984 3.796)">
          <path id="Trazado_106469" data-name="Trazado 106469" d="M6980.974,2381.123a.5.5,0,0,1-.488-.628,7.635,7.635,0,0,1,5.341-5.542.5.5,0,0,1,.261.972,6.627,6.627,0,0,0-4.626,4.818A.5.5,0,0,1,6980.974,2381.123Z" transform="translate(-6980.47 -2374.935)" fill="#d26b3e"/>
        </g>
        <g id="Grupo_69800" data-name="Grupo 69800" transform="translate(0 1.801)">
          <path id="Trazado_106470" data-name="Trazado 106470" d="M6979.047,2377.205l-.053,0a.5.5,0,0,1-.448-.553,6.769,6.769,0,0,1,4.851-5.6.5.5,0,1,1,.26.972,5.732,5.732,0,0,0-4.109,4.735A.5.5,0,0,1,6979.047,2377.205Z" transform="translate(-6978.543 -2371.029)" fill="#d26b3e"/>
        </g>
      </g>
    </g>
    <g id="Grupo_69811" data-name="Grupo 69811" transform="translate(6649.274 2314.749)">
      <path id="Trazado_106471" data-name="Trazado 106471" d="M6666.556,2487.841H6877.04a10.962,10.962,0,0,1-10.962,10.962H6677.518a10.962,10.962,0,0,1-10.962-10.962Z" transform="translate(-6666.555 -2436.681)" fill="#40404c"/>
      <rect id="Rectángulo_7252" data-name="Rectángulo 7252" width="210.484" height="25.58" transform="translate(0 25.58)" fill="#5c6863"/>
      <rect id="Rectángulo_7253" data-name="Rectángulo 7253" width="46.774" height="25.58" transform="translate(0 25.58)" fill="#40404c"/>
      <path id="Trazado_106472" data-name="Trazado 106472" d="M6666.556,2413.265H6877.04l-20.289-21.3a13.78,13.78,0,0,0-9.978-4.277H6675.082a8.526,8.526,0,0,0-8.526,8.526Z" transform="translate(-6666.555 -2387.686)" fill="#5c6863"/>
      <path id="Trazado_106473" data-name="Trazado 106473" d="M6949.582,2413.265H7015.5l-20.759-21.8a12.188,12.188,0,0,0-8.826-3.782h-36.328Z" transform="translate(-6805.011 -2387.686)" fill="#798675"/>
      <path id="Trazado_106474" data-name="Trazado 106474" d="M6666.556,2413.265h65.969l-20.759-21.8a12.19,12.19,0,0,0-8.827-3.782h-27.857a8.526,8.526,0,0,0-8.526,8.526Z" transform="translate(-6666.555 -2387.686)" fill="#798675"/>
      <path id="Trazado_106475" data-name="Trazado 106475" d="M6942.22,2413.265h29.585l-20.759-21.8a12.188,12.188,0,0,0-8.826-3.782h0Z" transform="translate(-6801.41 -2387.686)" fill="#40404c"/>
      <path id="Trazado_106476" data-name="Trazado 106476" d="M6666.556,2413.265h46.774l-20.759-21.8a12.187,12.187,0,0,0-8.826-3.782h-8.663a8.526,8.526,0,0,0-8.526,8.526Z" transform="translate(-6666.555 -2387.686)" fill="#40404c"/>
      <g id="Grupo_69803" data-name="Grupo 69803" transform="translate(4.626 62.122)">
        <rect id="Rectángulo_7254" data-name="Rectángulo 7254" width="14.122" height="55.788" transform="translate(15.036)" fill="#40404c"/>
        <rect id="Rectángulo_7255" data-name="Rectángulo 7255" width="5.335" height="55.788" transform="translate(23.823)" fill="#5c6863"/>
        <path id="Rectángulo_7256" data-name="Rectángulo 7256" d="M10.232,0H34.139A10.232,10.232,0,0,1,44.371,10.232v0a0,0,0,0,1,0,0H0a0,0,0,0,1,0,0v0A10.232,10.232,0,0,1,10.232,0Z" transform="translate(0 47.992)" fill="#5c6863"/>
        <path id="Rectángulo_7257" data-name="Rectángulo 7257" d="M10.232,0H26.473A10.232,10.232,0,0,1,36.7,10.232v0a0,0,0,0,1,0,0H0a0,0,0,0,1,0,0v0A10.232,10.232,0,0,1,10.232,0Z" transform="translate(0 47.992)" fill="#40404c"/>
      </g>
      <g id="Grupo_69804" data-name="Grupo 69804" transform="translate(161.487 62.122)">
        <rect id="Rectángulo_7258" data-name="Rectángulo 7258" width="14.122" height="55.788" transform="translate(15.036)" fill="#40404c"/>
        <rect id="Rectángulo_7259" data-name="Rectángulo 7259" width="5.334" height="55.788" transform="translate(23.823)" fill="#5c6863"/>
        <path id="Rectángulo_7260" data-name="Rectángulo 7260" d="M10.232,0H34.139A10.232,10.232,0,0,1,44.371,10.232v0a0,0,0,0,1,0,0H0a0,0,0,0,1,0,0v0A10.232,10.232,0,0,1,10.232,0Z" transform="translate(0 47.992)" fill="#5c6863"/>
        <path id="Rectángulo_7261" data-name="Rectángulo 7261" d="M10.232,0H26.473A10.232,10.232,0,0,1,36.7,10.232v0a0,0,0,0,1,0,0H0a0,0,0,0,1,0,0v0A10.232,10.232,0,0,1,10.232,0Z" transform="translate(0 47.992)" fill="#40404c"/>
      </g>
      <g id="Grupo_69810" data-name="Grupo 69810" transform="translate(151.382 4.732)">
        <path id="Trazado_106477" data-name="Trazado 106477" d="M7023.174,2402.225c-.651-2.492-2.385-4.253-4.23-4.253h-56.027l5.28,20.729h55.34c1.978,0,3.3-2.46,2.634-5.012Z" transform="translate(-6962.916 -2397.449)" fill="#e6eaed"/>
        <path id="Trazado_106478" data-name="Trazado 106478" d="M6971.148,2430.291l1.075,4.219h55.34c1.771,0,3.013-1.974,2.774-4.219Z" transform="translate(-6966.943 -2413.26)" fill="#ccd1cf"/>
        <path id="Trazado_106479" data-name="Trazado 106479" d="M6968.3,2397.972h-5.384l5.279,20.729h4.49v-3.875Z" transform="translate(-6962.916 -2397.449)" fill="#b0bdb0"/>
        <g id="Grupo_69805" data-name="Grupo 69805" transform="translate(11.6 4.083)">
          <path id="Trazado_106480" data-name="Trazado 106480" d="M6989.41,2407.4c.3,1.333-.267,2.4-1.273,2.4a2.962,2.962,0,0,1-2.415-2.4c-.333-1.352.229-2.46,1.26-2.46A2.975,2.975,0,0,1,6989.41,2407.4Z" transform="translate(-6985.625 -2404.943)" fill="#f17483"/>
          <path id="Trazado_106481" data-name="Trazado 106481" d="M6993.014,2421.376c.283,1.241-.278,2.236-1.25,2.236a2.78,2.78,0,0,1-2.308-2.236c-.309-1.258.242-2.289,1.236-2.289A2.788,2.788,0,0,1,6993.014,2421.376Z" transform="translate(-6987.458 -2411.862)" fill="#404656"/>
        </g>
        <g id="Grupo_69807" data-name="Grupo 69807" transform="translate(45.893 4.232)">
          <g id="Grupo_69806" data-name="Grupo 69806">
            <path id="Trazado_106482" data-name="Trazado 106482" d="M7055.755,2408.23h-1.9c-.237,0-.5-.258-.581-.576l-.483-1.843c-.083-.319.042-.578.279-.578h1.912c.238,0,.5.259.579.578l.479,1.843C7056.117,2407.973,7055.992,2408.23,7055.755,2408.23Z" transform="translate(-7052.761 -2405.234)" fill="#404656"/>
            <path id="Trazado_106483" data-name="Trazado 106483" d="M7057.862,2416.307h-1.9a.717.717,0,0,1-.577-.57l-.479-1.826c-.083-.317.042-.573.278-.573h1.9a.716.716,0,0,1,.576.573l.474,1.826C7058.223,2416.051,7058.1,2416.307,7057.862,2416.307Z" transform="translate(-7053.801 -2409.198)" fill="#404656"/>
            <path id="Trazado_106484" data-name="Trazado 106484" d="M7059.95,2424.311h-1.889a.713.713,0,0,1-.573-.565l-.475-1.81c-.082-.314.043-.568.278-.568h1.894a.714.714,0,0,1,.574.568l.468,1.81C7060.309,2424.058,7060.185,2424.311,7059.95,2424.311Z" transform="translate(-7054.829 -2413.127)" fill="#404656"/>
            <path id="Trazado_106485" data-name="Trazado 106485" d="M7062.763,2408.23h-1.905c-.236,0-.5-.258-.578-.576l-.476-1.843c-.083-.319.043-.578.281-.578H7062c.237,0,.5.259.578.578l.471,1.843C7063.126,2407.973,7063,2408.23,7062.763,2408.23Z" transform="translate(-7056.194 -2405.234)" fill="#404656"/>
            <path id="Trazado_106486" data-name="Trazado 106486" d="M7064.837,2416.307h-1.9a.715.715,0,0,1-.574-.57l-.472-1.826c-.082-.317.044-.573.28-.573h1.9c.236,0,.494.256.574.573l.467,1.826C7065.2,2416.051,7065.073,2416.307,7064.837,2416.307Z" transform="translate(-7057.216 -2409.198)" fill="#404656"/>
            <path id="Trazado_106487" data-name="Trazado 106487" d="M7066.895,2424.311h-1.889a.708.708,0,0,1-.57-.565l-.468-1.81c-.081-.314.044-.568.279-.568h1.894a.708.708,0,0,1,.572.568l.463,1.81C7067.255,2424.058,7067.129,2424.311,7066.895,2424.311Z" transform="translate(-7058.231 -2413.127)" fill="#404656"/>
            <path id="Trazado_106488" data-name="Trazado 106488" d="M7069.768,2408.23h-1.9c-.237,0-.494-.258-.575-.576l-.469-1.843c-.081-.319.045-.578.283-.578h1.912c.237,0,.495.259.575.578l.464,1.843C7070.132,2407.973,7070,2408.23,7069.768,2408.23Z" transform="translate(-7059.626 -2405.234)" fill="#404656"/>
            <path id="Trazado_106489" data-name="Trazado 106489" d="M7071.812,2416.307h-1.9c-.235,0-.492-.255-.571-.57l-.465-1.826c-.081-.317.047-.573.282-.573h1.9c.237,0,.493.256.573.573l.459,1.826C7072.175,2416.051,7072.048,2416.307,7071.812,2416.307Z" transform="translate(-7060.633 -2409.198)" fill="#404656"/>
            <path id="Trazado_106490" data-name="Trazado 106490" d="M7073.839,2424.311h-1.89a.706.706,0,0,1-.568-.565l-.461-1.81c-.079-.314.047-.568.282-.568h1.895a.7.7,0,0,1,.568.568l.455,1.81C7074.2,2424.058,7074.072,2424.311,7073.839,2424.311Z" transform="translate(-7061.633 -2413.127)" fill="#404656"/>
          </g>
        </g>
        <path id="Trazado_106491" data-name="Trazado 106491" d="M7000.154,2417h25.071l-3.081-11.765h-24.972Z" transform="translate(-6979.674 -2401.002)" fill="#404656"/>
        <g id="Grupo_69808" data-name="Grupo 69808" transform="translate(23.82 6.83)">
          <path id="Trazado_106492" data-name="Trazado 106492" d="M7009.549,2410.321h1.956l.79.548.619,2.429-.511.548h-1.4l.561,2.2h-.561Zm1.271,2.789h1.484l-.522-2.053H7010.3Z" transform="translate(-7009.549 -2410.321)" fill="#8bcc43"/>
          <path id="Trazado_106493" data-name="Trazado 106493" d="M7016.965,2413.764l.581,2.282h-.56l-1.458-5.725h2.012l.789.548.6,2.347-.51.548,1.484,2.282h-.622l-1.467-2.282Zm-.188-.736h1.542l-.5-1.971h-1.541Z" transform="translate(-7012.473 -2410.321)" fill="#8bcc43"/>
          <path id="Trazado_106494" data-name="Trazado 106494" d="M7021.834,2410.321h.56l1.458,5.725h-.56Z" transform="translate(-7015.559 -2410.321)" fill="#8bcc43"/>
          <path id="Trazado_106495" data-name="Trazado 106495" d="M7026.047,2416.046h-.561l-1.458-5.725h.51l3.13,4.326h.012l-1.1-4.326h.561l1.458,5.725h-.51l-3.13-4.327h-.011Z" transform="translate(-7016.631 -2410.321)" fill="#8bcc43"/>
          <path id="Trazado_106496" data-name="Trazado 106496" d="M7033.689,2416.046h-.56l-1.272-4.99h-1.115l-.187-.736h2.791l.187.736h-1.115Z" transform="translate(-7019.825 -2410.321)" fill="#8bcc43"/>
          <path id="Trazado_106497" data-name="Trazado 106497" d="M7042.408,2424.075h-3.654l-.174-.687h3.653Z" transform="translate(-7023.751 -2416.713)" fill="#8bcc43"/>
        </g>
        <g id="Grupo_69809" data-name="Grupo 69809" transform="translate(4.773)">
          <path id="Trazado_106498" data-name="Trazado 106498" d="M6977.4,2418.29c.023-.3.046-.579.067-.837.273-3.356.234-3.5-1.947-11.168-.656-2.3-1.5-5.266-2.625-9.336l-.636.213c1.143,4.065,2,7.022,2.659,9.322,2.192,7.606,2.192,7.606,1.946,10.782-.02.26-.041.539-.063.843Z" transform="translate(-6972.261 -2396.949)" fill="#798675"/>
        </g>
      </g>
    </g>
    <g id="Grupo_69825" data-name="Grupo 69825" transform="translate(6703.681 2328.202)">
      <path id="Trazado_106499" data-name="Trazado 106499" d="M6898.4,2508.736h-97.2a19.489,19.489,0,0,1-19.489-19.489V2429.8c0-8.073-3.991-11.135-8.638-15.78h91.223a14.615,14.615,0,0,1,14.616,14.616v60.606a19.49,19.49,0,0,0,19.49,19.489Z" transform="translate(-6773.068 -2414.024)" fill="#e6eaed"/>
      <path id="Trazado_106500" data-name="Trazado 106500" d="M6887.679,2508.736h-81.611a19.489,19.489,0,0,1-19.488-19.489V2429.8c0-8.073-7.664-15.78-13.511-15.78h86.838a14.617,14.617,0,0,1,14.617,14.616v60.606c0,10.764,8.237,19.489,19,19.489Z" transform="translate(-6773.068 -2414.024)" fill="url(#linear-gradient)"/>
      <g id="Grupo_69814" data-name="Grupo 69814" transform="translate(20.658 68.487)">
        <g id="Grupo_69813" data-name="Grupo 69813">
          <g id="Grupo_69812" data-name="Grupo 69812">
            <path id="Trazado_106501" data-name="Trazado 106501" d="M6813.51,2561.706v-4.979l6.921-1.016-6.921-.9v-5.638l8.43-1.075.008.085a5.448,5.448,0,0,0,2.146,3.813l.042.028-.005.052a5.869,5.869,0,0,1-1.831,3.319,6.918,6.918,0,0,0,3.115-3.029l.03-.06.061.019a6.148,6.148,0,0,0,4.658-.411l.077-.046,2.5,6.3-.082.027a5.816,5.816,0,0,0-3.653,3.771l-.016.063-.061,0Zm.157-4.834v4.671l15.207.319a5.94,5.94,0,0,1,3.658-3.8l-2.369-5.961a6.358,6.358,0,0,1-4.641.4,6.74,6.74,0,0,1-3.555,3.184l-.388.114.319-.26a6.2,6.2,0,0,0,2.071-3.432,5.63,5.63,0,0,1-2.169-3.824l-8.134,1.038v5.342l7.979,1.034Z" transform="translate(-6813.51 -2548.101)" fill="#6d6875"/>
          </g>
        </g>
      </g>
      <g id="Grupo_69817" data-name="Grupo 69817" transform="translate(40.347 68.487)">
        <g id="Grupo_69816" data-name="Grupo 69816">
          <g id="Grupo_69815" data-name="Grupo 69815">
            <path id="Trazado_106502" data-name="Trazado 106502" d="M6852.055,2561.706v-4.979l6.92-1.016-6.92-.9v-5.638l8.431-1.075.008.085a5.446,5.446,0,0,0,2.146,3.813l.042.028-.006.052a5.866,5.866,0,0,1-1.83,3.319,6.91,6.91,0,0,0,3.114-3.029l.03-.06.062.019a6.146,6.146,0,0,0,4.657-.411l.077-.046,2.5,6.3-.083.027a5.816,5.816,0,0,0-3.652,3.771l-.016.063-.061,0Zm.156-4.834v4.671l15.208.319a5.86,5.86,0,0,1,.724-1.5,5.8,5.8,0,0,1,2.934-2.291l-2.368-5.961a6.359,6.359,0,0,1-4.641.4,6.738,6.738,0,0,1-3.556,3.184l-.388.114.318-.26a6.185,6.185,0,0,0,2.071-3.432,5.642,5.642,0,0,1-2.168-3.824l-8.134,1.038v5.342l7.98,1.034Z" transform="translate(-6852.055 -2548.101)" fill="#6d6875"/>
          </g>
        </g>
      </g>
      <g id="Grupo_69820" data-name="Grupo 69820" transform="translate(60.516 68.487)">
        <g id="Grupo_69819" data-name="Grupo 69819">
          <g id="Grupo_69818" data-name="Grupo 69818">
            <path id="Trazado_106503" data-name="Trazado 106503" d="M6891.542,2561.706v-4.979l6.92-1.016-6.92-.9v-5.638l8.43-1.075.008.085a5.446,5.446,0,0,0,2.146,3.813l.042.028,0,.052a5.87,5.87,0,0,1-1.832,3.319,6.923,6.923,0,0,0,3.116-3.029l.029-.06.061.019a6.146,6.146,0,0,0,4.658-.411l.077-.046,2.5,6.3-.083.027a5.815,5.815,0,0,0-3.652,3.771l-.016.063-.061,0Zm.157-4.834v4.671l15.207.319a5.949,5.949,0,0,1,3.658-3.8l-2.368-5.961a6.358,6.358,0,0,1-4.64.4,6.741,6.741,0,0,1-3.557,3.184l-.388.114.319-.26a6.185,6.185,0,0,0,2.072-3.432,5.638,5.638,0,0,1-2.168-3.824l-8.134,1.038v5.342l7.979,1.034Z" transform="translate(-6891.542 -2548.101)" fill="#6d6875"/>
          </g>
        </g>
      </g>
      <path id="Trazado_106504" data-name="Trazado 106504" d="M6846.122,2580.938h100.626a9.42,9.42,0,0,0,9.42-9.42h0v-.324a9.1,9.1,0,0,1,9.1-9.1h-99.977a9.419,9.419,0,0,0-9.419,9.419v.325h0a9.1,9.1,0,0,1-9.1,9.1Z" transform="translate(-6808.806 -2486.461)" fill="#b0bdb0"/>
      <path id="Trazado_106505" data-name="Trazado 106505" d="M6855.66,2580.938h95.754a9.42,9.42,0,0,0,9.42-9.42h0v-.324a9.1,9.1,0,0,1,9.1-9.1h-95.1a9.421,9.421,0,0,0-9.42,9.419v.325h0a9.094,9.094,0,0,1-9.094,9.1Z" transform="translate(-6813.472 -2486.461)" fill="#40404c"/>
      <g id="Grupo_69823" data-name="Grupo 69823" transform="translate(80.206 68.487)">
        <g id="Grupo_69822" data-name="Grupo 69822">
          <g id="Grupo_69821" data-name="Grupo 69821">
            <path id="Trazado_106506" data-name="Trazado 106506" d="M6930.088,2561.706v-4.979l6.92-1.016-6.92-.9v-5.638l8.43-1.075.007.085a5.446,5.446,0,0,0,2.148,3.813l.04.028,0,.052a5.867,5.867,0,0,1-1.831,3.319,6.92,6.92,0,0,0,3.115-3.029l.029-.06.063.019a6.144,6.144,0,0,0,4.656-.411l.077-.046,2.5,6.3-.082.027a5.816,5.816,0,0,0-3.652,3.771l-.016.063-.062,0Zm.156-4.834v4.671l15.207.319a5.944,5.944,0,0,1,3.658-3.8l-2.369-5.961a6.356,6.356,0,0,1-4.64.4,6.745,6.745,0,0,1-3.557,3.184l-.388.114.319-.26a6.191,6.191,0,0,0,2.071-3.432,5.634,5.634,0,0,1-2.169-3.824l-8.134,1.038v5.342l7.979,1.034Z" transform="translate(-6930.088 -2548.101)" fill="#6d6875"/>
          </g>
        </g>
      </g>
      <path id="Trazado_106507" data-name="Trazado 106507" d="M7004.251,2593.118H6903.625a9.529,9.529,0,0,1-9.419-9.42v-12.505a9.1,9.1,0,0,0-9.095-9.1h99.977a9.419,9.419,0,0,1,9.419,9.419v12.506a9.1,9.1,0,0,0,9.1,9.1Z" transform="translate(-6827.561 -2486.461)" fill="#e6eaed"/>
      <path id="Trazado_106508" data-name="Trazado 106508" d="M6999.379,2593.118H6908.5a9.529,9.529,0,0,1-9.419-9.42v-12.505a9.1,9.1,0,0,0-9.094-9.1h90.232a9.42,9.42,0,0,1,9.419,9.419v12.506a9.1,9.1,0,0,0,9.1,9.1Z" transform="translate(-6827.561 -2486.461)" fill="url(#linear-gradient-2)"/>
      <g id="Grupo_69824" data-name="Grupo 69824" transform="translate(80.225 98.285)">
        <path id="Trazado_106509" data-name="Trazado 106509" d="M6939.184,2606.437a9.089,9.089,0,0,1-9.059,8.372H7030.1a9.419,9.419,0,0,0,9.358-8.372Z" transform="translate(-6930.125 -2606.437)" fill="#b0bdb0"/>
        <path id="Trazado_106510" data-name="Trazado 106510" d="M6949.677,2606.437a9.09,9.09,0,0,1-9.058,8.372h89.745a9.419,9.419,0,0,0,9.358-8.372Z" transform="translate(-6935.259 -2606.437)" fill="#40404c"/>
      </g>
    </g>
    <g id="Grupo_69936" data-name="Grupo 69936" transform="translate(6721.466 2347.378)">
      <g id="Grupo_69852" data-name="Grupo 69852" transform="translate(0 0.48)">
        <g id="Grupo_69828" data-name="Grupo 69828">
          <g id="Grupo_69827" data-name="Grupo 69827">
            <g id="Grupo_69826" data-name="Grupo 69826">
              <path id="Trazado_106511" data-name="Trazado 106511" d="M6807.888,2496.561l.2-43.1.088.007c.029,0,3.015.226,3.739-.914l.032-.05,4.061,1.069-.009.073c0,.023-.279,2.33-.278,2.829v.075l-1.876.212,1.895.3-.012.082a4.17,4.17,0,0,0,.123,1.549,2.605,2.605,0,0,0,2.136,1.938l.078.016-.014.08s-.558,3.377-.752,4.551a22.9,22.9,0,0,0-.088,4.75c.143.422.743,2.708.96,3.734a36.617,36.617,0,0,1,.4,4.994c-.027,1.478-.147,17.588-.148,17.751l0,.083h-.081Zm.358-42.922-.2,42.756,10.2.026c.009-1.259.123-16.246.148-17.67a36.338,36.338,0,0,0-.4-4.955c-.215-1.021-.813-3.3-.954-3.715a22.662,22.662,0,0,1,.081-4.833c.178-1.068.655-3.957.741-4.472a2.779,2.779,0,0,1-2.184-2.043,4.3,4.3,0,0,1-.136-1.533l-2.952-.467,2.955-.334c.018-.565.224-2.316.268-2.7l-3.811-1C6811.258,2453.763,6808.756,2453.671,6808.246,2453.639Z" transform="translate(-6807.888 -2452.503)" fill="#6d6875"/>
            </g>
          </g>
        </g>
        <g id="Grupo_69851" data-name="Grupo 69851" transform="translate(5.067 0.321)">
          <g id="Grupo_69830" data-name="Grupo 69830" transform="translate(0.11)">
            <g id="Grupo_69829" data-name="Grupo 69829">
              <path id="Trazado_106512" data-name="Trazado 106512" d="M6818.1,2453.441a.082.082,0,0,1-.077-.085l0-.144a.08.08,0,0,1,.083-.081.084.084,0,0,1,.08.085l0,.143a.082.082,0,0,1-.083.081Z" transform="translate(-6818.023 -2453.131)" fill="#6d6875"/>
            </g>
          </g>
          <g id="Grupo_69833" data-name="Grupo 69833" transform="translate(0.038 0.759)">
            <g id="Grupo_69832" data-name="Grupo 69832">
              <g id="Grupo_69831" data-name="Grupo 69831">
                <path id="Trazado_106513" data-name="Trazado 106513" d="M6817.96,2456.94a.083.083,0,0,1-.078-.085l.008-.308a.081.081,0,0,1,.083-.082.083.083,0,0,1,.08.085l-.008.308a.082.082,0,0,1-.083.082Zm.023-.924a.084.084,0,0,1-.077-.085l.008-.309a.083.083,0,0,1,.083-.081.085.085,0,0,1,.08.086l-.009.308a.082.082,0,0,1-.083.081Zm.024-.924a.083.083,0,0,1-.077-.086l.008-.308a.082.082,0,0,1,.083-.081.084.084,0,0,1,.079.085l-.008.309a.082.082,0,0,1-.083.081Z" transform="translate(-6817.882 -2454.618)" fill="#6d6875"/>
              </g>
            </g>
          </g>
          <g id="Grupo_69835" data-name="Grupo 69835" transform="translate(0 3.531)">
            <g id="Grupo_69834" data-name="Grupo 69834">
              <path id="Trazado_106514" data-name="Trazado 106514" d="M6817.808,2461l.022-.88a.081.081,0,0,1,.083-.081.074.074,0,0,1,.024,0,.07.07,0,0,1,.024,0,.082.082,0,0,1,.058.1Z" transform="translate(-6817.808 -2460.044)" fill="#6d6875"/>
            </g>
          </g>
          <g id="Grupo_69838" data-name="Grupo 69838" transform="translate(0.199 0.923)">
            <g id="Grupo_69837" data-name="Grupo 69837">
              <g id="Grupo_69836" data-name="Grupo 69836">
                <path id="Trazado_106515" data-name="Trazado 106515" d="M6818.275,2457.137l-.016,0a.084.084,0,0,1-.059-.1l.073-.291a.081.081,0,0,1,.1-.06.085.085,0,0,1,.059.1l-.073.29A.083.083,0,0,1,6818.275,2457.137Zm.218-.87-.016,0a.083.083,0,0,1-.059-.1l.073-.29a.081.081,0,0,1,.1-.06.083.083,0,0,1,.059.1l-.073.29A.082.082,0,0,1,6818.493,2456.266Zm.218-.871-.016,0a.084.084,0,0,1-.059-.1l.073-.29a.082.082,0,0,1,.1-.06.083.083,0,0,1,.057.1l-.072.29A.082.082,0,0,1,6818.711,2455.4Z" transform="translate(-6818.198 -2454.938)" fill="#6d6875"/>
              </g>
            </g>
          </g>
          <g id="Grupo_69840" data-name="Grupo 69840" transform="translate(0.855 0.169)">
            <g id="Grupo_69839" data-name="Grupo 69839">
              <path id="Trazado_106516" data-name="Trazado 106516" d="M6819.558,2453.8l-.016,0a.084.084,0,0,1-.058-.1l.06-.236.215.1a.084.084,0,0,1,.039.111.08.08,0,0,1-.108.04l-.038-.018-.011.042A.082.082,0,0,1,6819.558,2453.8Z" transform="translate(-6819.481 -2453.462)" fill="#6d6875"/>
            </g>
          </g>
          <g id="Grupo_69843" data-name="Grupo 69843" transform="translate(1.602 0.549)">
            <g id="Grupo_69842" data-name="Grupo 69842">
              <g id="Grupo_69841" data-name="Grupo 69841">
                <path id="Trazado_106517" data-name="Trazado 106517" d="M6822.194,2454.939a.107.107,0,0,1-.03-.008l-.293-.142a.085.085,0,0,1-.039-.111.081.081,0,0,1,.108-.04l.293.142a.085.085,0,0,1,.039.111A.083.083,0,0,1,6822.194,2454.939Zm-.879-.426a.084.084,0,0,1-.03-.008l-.293-.142a.084.084,0,0,1-.039-.111.081.081,0,0,1,.108-.04l.292.142a.083.083,0,0,1-.039.158Z" transform="translate(-6820.945 -2454.206)" fill="#6d6875"/>
              </g>
            </g>
          </g>
          <g id="Grupo_69845" data-name="Grupo 69845" transform="translate(3.361 1.399)">
            <g id="Grupo_69844" data-name="Grupo 69844">
              <path id="Trazado_106518" data-name="Trazado 106518" d="M6824.539,2456.231a.082.082,0,0,1-.025-.005.086.086,0,0,1-.046-.108l.024-.061-.059-.028a.084.084,0,0,1-.038-.111.081.081,0,0,1,.108-.04l.2.1-.029.073s-.02.048-.052.132A.081.081,0,0,1,6824.539,2456.231Z" transform="translate(-6824.388 -2455.871)" fill="#6d6875"/>
            </g>
          </g>
          <g id="Grupo_69848" data-name="Grupo 69848" transform="translate(2.802 2.206)">
            <g id="Grupo_69847" data-name="Grupo 69847">
              <g id="Grupo_69846" data-name="Grupo 69846">
                <path id="Trazado_106519" data-name="Trazado 106519" d="M6823.37,2458.859a.078.078,0,0,1-.019,0,.083.083,0,0,1-.055-.1c.03-.1.062-.21.095-.315a.08.08,0,0,1,.1-.054.083.083,0,0,1,.052.1c-.032.1-.063.208-.094.312A.08.08,0,0,1,6823.37,2458.859Zm.3-.934a.066.066,0,0,1-.022,0,.084.084,0,0,1-.05-.106c.038-.108.074-.212.109-.309a.081.081,0,0,1,.1-.049.084.084,0,0,1,.048.107c-.035.1-.072.2-.108.307A.08.08,0,0,1,6823.669,2457.924Z" transform="translate(-6823.293 -2457.45)" fill="#6d6875"/>
              </g>
            </g>
          </g>
          <g id="Grupo_69850" data-name="Grupo 69850" transform="translate(2.607 4.082)">
            <g id="Grupo_69849" data-name="Grupo 69849">
              <path id="Trazado_106520" data-name="Trazado 106520" d="M6822.989,2461.429l-.011,0a.083.083,0,0,1-.064-.1c.009-.047.02-.094.03-.143a.081.081,0,0,1,.1-.062.084.084,0,0,1,.061.1c-.011.047-.02.094-.03.139A.082.082,0,0,1,6822.989,2461.429Z" transform="translate(-6822.912 -2461.122)" fill="#6d6875"/>
            </g>
          </g>
        </g>
      </g>
      <g id="Grupo_69879" data-name="Grupo 69879" transform="translate(41.604 1.195)">
        <g id="Grupo_69855" data-name="Grupo 69855">
          <g id="Grupo_69854" data-name="Grupo 69854">
            <g id="Grupo_69853" data-name="Grupo 69853">
              <path id="Trazado_106521" data-name="Trazado 106521" d="M6891.428,2498.123l-2.092-43.048.087,0c.03,0,3.022.058,3.685-1.122l.029-.051,4.112.84-.005.073c0,.024-.155,2.342-.127,2.84l0,.075-1.863.316,1.908.193-.007.083a4.145,4.145,0,0,0,.205,1.541,2.593,2.593,0,0,0,2.235,1.816l.078.012-.009.08s-.378,3.4-.511,4.587a22.987,22.987,0,0,0,.165,4.748c.166.414.886,2.663,1.156,3.675a36.558,36.558,0,0,1,.665,4.964c.052,1.478.787,17.571.794,17.732l0,.083-.081,0Zm-1.922-42.878,2.076,42.7,10.189-.544c-.057-1.258-.74-16.229-.79-17.652a36.343,36.343,0,0,0-.659-4.926c-.27-1.007-.986-3.245-1.15-3.655a22.6,22.6,0,0,1-.176-4.831c.121-1.075.444-3.988.5-4.507a2.771,2.771,0,0,1-2.29-1.918,4.281,4.281,0,0,1-.217-1.523l-2.973-.3,2.933-.5c-.012-.566.1-2.325.126-2.713l-3.859-.789C6892.521,2455.2,6890.016,2455.246,6889.506,2455.245Z" transform="translate(-6889.336 -2453.904)" fill="#6d6875"/>
            </g>
          </g>
        </g>
        <g id="Grupo_69878" data-name="Grupo 69878" transform="translate(4.948 0.252)">
          <g id="Grupo_69857" data-name="Grupo 69857">
            <g id="Grupo_69856" data-name="Grupo 69856">
              <path id="Trazado_106522" data-name="Trazado 106522" d="M6899.106,2454.708a.082.082,0,0,1-.081-.081l0-.144a.081.081,0,1,1,.162,0l0,.144a.083.083,0,0,1-.08.085Z" transform="translate(-6899.022 -2454.398)" fill="#6d6875"/>
            </g>
          </g>
          <g id="Grupo_69860" data-name="Grupo 69860" transform="translate(0.02 0.76)">
            <g id="Grupo_69859" data-name="Grupo 69859">
              <g id="Grupo_69858" data-name="Grupo 69858">
                <path id="Trazado_106523" data-name="Trazado 106523" d="M6899.2,2458.207a.082.082,0,0,1-.081-.081l-.008-.308a.081.081,0,1,1,.162,0l.008.308a.082.082,0,0,1-.078.086Zm-.025-.924a.082.082,0,0,1-.081-.081l-.008-.308a.082.082,0,0,1,.079-.085.084.084,0,0,1,.084.081l.008.308a.082.082,0,0,1-.079.085Zm-.024-.923a.082.082,0,0,1-.082-.081l-.009-.308a.082.082,0,1,1,.163,0l.008.308a.082.082,0,0,1-.079.086Z" transform="translate(-6899.062 -2455.885)" fill="#6d6875"/>
              </g>
            </g>
          </g>
          <g id="Grupo_69862" data-name="Grupo 69862" transform="translate(0.096 3.531)">
            <g id="Grupo_69861" data-name="Grupo 69861">
              <path id="Trazado_106524" data-name="Trazado 106524" d="M6899.233,2462.276l-.023-.88a.082.082,0,0,1,.079-.085.06.06,0,0,1,.024,0,.069.069,0,0,1,.024,0,.083.083,0,0,1,.063.1Z" transform="translate(-6899.21 -2461.311)" fill="#6d6875"/>
            </g>
          </g>
          <g id="Grupo_69865" data-name="Grupo 69865" transform="translate(0.242 0.889)">
            <g id="Grupo_69864" data-name="Grupo 69864">
              <g id="Grupo_69863" data-name="Grupo 69863">
                <path id="Trazado_106525" data-name="Trazado 106525" d="M6899.576,2458.362a.048.048,0,0,1-.015,0,.082.082,0,0,1-.063-.1l.057-.295a.082.082,0,0,1,.1-.065.084.084,0,0,1,.064.1l-.058.294A.082.082,0,0,1,6899.576,2458.362Zm.173-.882h-.017a.083.083,0,0,1-.063-.1l.058-.293a.081.081,0,0,1,.1-.065.083.083,0,0,1,.064.1l-.058.293A.082.082,0,0,1,6899.749,2457.48Zm.172-.881-.016,0a.084.084,0,0,1-.064-.1l.058-.294a.081.081,0,0,1,.1-.065.082.082,0,0,1,.063.1l-.057.294A.081.081,0,0,1,6899.921,2456.6Z" transform="translate(-6899.496 -2456.138)" fill="#6d6875"/>
              </g>
            </g>
          </g>
          <g id="Grupo_69867" data-name="Grupo 69867" transform="translate(0.758 0.129)">
            <g id="Grupo_69866" data-name="Grupo 69866">
              <path id="Trazado_106526" data-name="Trazado 106526" d="M6900.587,2454.989h-.016a.084.084,0,0,1-.064-.1l.047-.24.221.092a.085.085,0,0,1,.044.109.079.079,0,0,1-.105.045l-.04-.016-.008.042A.081.081,0,0,1,6900.587,2454.989Z" transform="translate(-6900.505 -2454.65)" fill="#6d6875"/>
            </g>
          </g>
          <g id="Grupo_69870" data-name="Grupo 69870" transform="translate(1.516 0.465)">
            <g id="Grupo_69869" data-name="Grupo 69869">
              <g id="Grupo_69868" data-name="Grupo 69868">
                <path id="Trazado_106527" data-name="Trazado 106527" d="M6903.271,2455.976a.084.084,0,0,1-.031-.006l-.3-.125a.084.084,0,0,1-.044-.109.081.081,0,0,1,.105-.046l.3.126a.083.083,0,0,1,.044.108A.081.081,0,0,1,6903.271,2455.976Zm-.9-.375a.07.07,0,0,1-.031-.007l-.3-.125a.083.083,0,0,1-.044-.108.081.081,0,0,1,.105-.046l.3.125a.085.085,0,0,1,.044.109A.081.081,0,0,1,6902.37,2455.6Z" transform="translate(-6901.988 -2455.308)" fill="#6d6875"/>
              </g>
            </g>
          </g>
          <g id="Grupo_69872" data-name="Grupo 69872" transform="translate(3.317 1.216)">
            <g id="Grupo_69871" data-name="Grupo 69871">
              <path id="Trazado_106528" data-name="Trazado 106528" d="M6905.682,2457.135a.064.064,0,0,1-.026,0,.082.082,0,0,1-.052-.1l.021-.062-.06-.024a.083.083,0,0,1-.044-.109.079.079,0,0,1,.1-.045l.2.084-.025.074s-.017.049-.044.135A.08.08,0,0,1,6905.682,2457.135Z" transform="translate(-6905.515 -2456.779)" fill="#6d6875"/>
            </g>
          </g>
          <g id="Grupo_69875" data-name="Grupo 69875" transform="translate(2.867 2.03)">
            <g id="Grupo_69874" data-name="Grupo 69874">
              <g id="Grupo_69873" data-name="Grupo 69873">
                <path id="Trazado_106529" data-name="Trazado 106529" d="M6904.715,2459.8l-.019,0a.083.083,0,0,1-.061-.1c.025-.106.051-.213.079-.319a.08.08,0,0,1,.1-.06.084.084,0,0,1,.058.1q-.041.158-.078.316A.081.081,0,0,1,6904.715,2459.8Zm.249-.949a.075.075,0,0,1-.023,0,.084.084,0,0,1-.055-.1c.032-.11.063-.216.093-.315a.081.081,0,0,1,.1-.055.084.084,0,0,1,.054.1l-.092.313A.079.079,0,0,1,6904.964,2458.852Z" transform="translate(-6904.634 -2458.372)" fill="#6d6875"/>
              </g>
            </g>
          </g>
          <g id="Grupo_69877" data-name="Grupo 69877" transform="translate(2.714 3.935)">
            <g id="Grupo_69876" data-name="Grupo 69876">
              <path id="Trazado_106530" data-name="Trazado 106530" d="M6904.416,2462.41h-.012a.084.084,0,0,1-.069-.095c.008-.047.015-.095.023-.144a.08.08,0,0,1,.093-.068.083.083,0,0,1,.066.1c-.008.047-.015.094-.021.14A.082.082,0,0,1,6904.416,2462.41Z" transform="translate(-6904.334 -2462.102)" fill="#6d6875"/>
            </g>
          </g>
        </g>
      </g>
      <g id="Grupo_69906" data-name="Grupo 69906" transform="translate(70.489 0.174)">
        <g id="Grupo_69882" data-name="Grupo 69882">
          <g id="Grupo_69881" data-name="Grupo 69881">
            <g id="Grupo_69880" data-name="Grupo 69880">
              <path id="Trazado_106531" data-name="Trazado 106531" d="M6947.4,2496.123l-1.514-43.048.063,0c.022,0,2.187.058,2.666-1.122l.022-.051,2.974.84,0,.073c0,.023-.112,2.342-.092,2.84l0,.075-1.347.316,1.38.193-.005.082a5.662,5.662,0,0,0,.149,1.54,2.15,2.15,0,0,0,1.617,1.816l.057.012-.006.08s-.274,3.4-.371,4.586a31.657,31.657,0,0,0,.12,4.749c.119.414.641,2.663.836,3.675.192.992.456,3.971.481,4.964.037,1.478.569,17.57.574,17.732l0,.083-.059,0Zm-1.391-42.878,1.5,42.7,7.373-.544c-.042-1.258-.536-16.229-.572-17.652-.024-.986-.287-3.943-.477-4.926-.2-1.007-.714-3.245-.832-3.656a31.168,31.168,0,0,1-.127-4.831c.087-1.076.322-3.988.363-4.507a2.376,2.376,0,0,1-1.656-1.918,5.829,5.829,0,0,1-.157-1.523l-2.151-.3,2.122-.5c-.009-.566.073-2.325.091-2.713l-2.793-.789C6948.188,2453.2,6946.377,2453.247,6946.008,2453.245Z" transform="translate(-6945.885 -2451.904)" fill="#6d6875"/>
            </g>
          </g>
        </g>
        <g id="Grupo_69905" data-name="Grupo 69905" transform="translate(3.579 0.252)">
          <g id="Grupo_69884" data-name="Grupo 69884">
            <g id="Grupo_69883" data-name="Grupo 69883">
              <path id="Trazado_106532" data-name="Trazado 106532" d="M6952.953,2452.708c-.032,0-.058-.036-.059-.081l0-.144c0-.046.024-.085.058-.086s.059.035.06.081l0,.144c0,.046-.024.084-.057.085Z" transform="translate(-6952.892 -2452.398)" fill="#6d6875"/>
            </g>
          </g>
          <g id="Grupo_69887" data-name="Grupo 69887" transform="translate(0.015 0.76)">
            <g id="Grupo_69886" data-name="Grupo 69886">
              <g id="Grupo_69885" data-name="Grupo 69885">
                <path id="Trazado_106533" data-name="Trazado 106533" d="M6953.021,2456.207c-.031,0-.058-.035-.058-.081l-.006-.308c0-.046.024-.084.057-.086s.061.036.061.082l.005.307c0,.046-.024.084-.057.086Zm-.018-.924c-.031,0-.058-.036-.059-.081l-.006-.308c0-.046.024-.084.057-.085s.059.034.061.081l.005.308c0,.046-.024.084-.057.085Zm-.018-.924c-.032,0-.058-.036-.06-.081l-.005-.308c0-.046.024-.084.057-.086s.06.034.061.081l.005.308c0,.046-.023.084-.057.085Z" transform="translate(-6952.92 -2453.885)" fill="#6d6875"/>
              </g>
            </g>
          </g>
          <g id="Grupo_69889" data-name="Grupo 69889" transform="translate(0.069 3.531)">
            <g id="Grupo_69888" data-name="Grupo 69888">
              <path id="Trazado_106534" data-name="Trazado 106534" d="M6953.045,2460.276l-.019-.88c0-.046.025-.084.058-.085a.036.036,0,0,1,.018,0,.047.047,0,0,1,.019,0,.086.086,0,0,1,.046.1Z" transform="translate(-6953.027 -2459.311)" fill="#6d6875"/>
            </g>
          </g>
          <g id="Grupo_69892" data-name="Grupo 69892" transform="translate(0.175 0.889)">
            <g id="Grupo_69891" data-name="Grupo 69891">
              <g id="Grupo_69890" data-name="Grupo 69890">
                <path id="Trazado_106535" data-name="Trazado 106535" d="M6953.294,2456.362l-.012,0a.086.086,0,0,1-.047-.1l.042-.295c.006-.045.037-.074.069-.066a.088.088,0,0,1,.046.1l-.042.294C6953.346,2456.335,6953.321,2456.362,6953.294,2456.362Zm.125-.882-.012,0a.086.086,0,0,1-.046-.1l.042-.294c.007-.045.037-.075.069-.065a.087.087,0,0,1,.046.1l-.042.294C6953.47,2455.453,6953.445,2455.481,6953.418,2455.481Zm.124-.882-.011,0a.088.088,0,0,1-.047-.1l.042-.294c.006-.045.037-.074.069-.065a.087.087,0,0,1,.045.1l-.041.293C6953.595,2454.572,6953.57,2454.6,6953.542,2454.6Z" transform="translate(-6953.234 -2454.139)" fill="#6d6875"/>
              </g>
            </g>
          </g>
          <g id="Grupo_69894" data-name="Grupo 69894" transform="translate(0.548 0.129)">
            <g id="Grupo_69893" data-name="Grupo 69893">
              <path id="Trazado_106536" data-name="Trazado 106536" d="M6954.024,2452.989h-.012a.087.087,0,0,1-.046-.1l.034-.239.16.092a.1.1,0,0,1,.032.109c-.012.042-.046.063-.077.046l-.028-.016-.006.042C6954.076,2452.962,6954.051,2452.989,6954.024,2452.989Z" transform="translate(-6953.965 -2452.65)" fill="#6d6875"/>
            </g>
          </g>
          <g id="Grupo_69897" data-name="Grupo 69897" transform="translate(1.096 0.465)">
            <g id="Grupo_69896" data-name="Grupo 69896">
              <g id="Grupo_69895" data-name="Grupo 69895">
                <path id="Trazado_106537" data-name="Trazado 106537" d="M6955.965,2453.976a.042.042,0,0,1-.021-.006l-.218-.125a.1.1,0,0,1-.032-.109c.012-.042.046-.063.076-.046l.218.126a.1.1,0,0,1,.033.108A.064.064,0,0,1,6955.965,2453.976Zm-.651-.375a.04.04,0,0,1-.022-.007l-.218-.125a.1.1,0,0,1-.032-.108c.012-.042.046-.063.077-.046l.217.125a.1.1,0,0,1,.032.109C6955.358,2453.58,6955.337,2453.6,6955.314,2453.6Z" transform="translate(-6955.038 -2453.308)" fill="#6d6875"/>
              </g>
            </g>
          </g>
          <g id="Grupo_69899" data-name="Grupo 69899" transform="translate(2.399 1.216)">
            <g id="Grupo_69898" data-name="Grupo 69898">
              <path id="Trazado_106538" data-name="Trazado 106538" d="M6957.709,2455.135a.039.039,0,0,1-.019,0,.1.1,0,0,1-.038-.1l.016-.062-.043-.025a.1.1,0,0,1-.032-.109c.012-.042.046-.063.077-.046l.146.084-.018.074s-.012.049-.032.135C6957.757,2455.114,6957.734,2455.135,6957.709,2455.135Z" transform="translate(-6957.589 -2454.779)" fill="#6d6875"/>
            </g>
          </g>
          <g id="Grupo_69902" data-name="Grupo 69902" transform="translate(2.074 2.03)">
            <g id="Grupo_69901" data-name="Grupo 69901">
              <g id="Grupo_69900" data-name="Grupo 69900">
                <path id="Trazado_106539" data-name="Trazado 106539" d="M6957.011,2457.8a.034.034,0,0,1-.014,0,.089.089,0,0,1-.044-.1c.019-.106.037-.213.058-.319.008-.045.04-.072.071-.06a.09.09,0,0,1,.042.1c-.019.105-.038.211-.056.316C6957.061,2457.776,6957.038,2457.8,6957.011,2457.8Zm.18-.949a.034.034,0,0,1-.016,0,.091.091,0,0,1-.04-.1c.021-.111.044-.216.066-.315.01-.044.043-.069.073-.055a.093.093,0,0,1,.039.1q-.032.148-.066.313C6957.24,2456.829,6957.216,2456.852,6957.191,2456.852Z" transform="translate(-6956.952 -2456.372)" fill="#6d6875"/>
              </g>
            </g>
          </g>
          <g id="Grupo_69904" data-name="Grupo 69904" transform="translate(1.963 3.935)">
            <g id="Grupo_69903" data-name="Grupo 69903">
              <path id="Trazado_106540" data-name="Trazado 106540" d="M6956.794,2460.41h-.009c-.033-.007-.054-.049-.049-.094s.009-.095.017-.144.036-.076.067-.068a.085.085,0,0,1,.049.1c-.007.048-.011.095-.016.141S6956.823,2460.41,6956.794,2460.41Z" transform="translate(-6956.736 -2460.101)" fill="#6d6875"/>
            </g>
          </g>
        </g>
      </g>
      <g id="Grupo_69913" data-name="Grupo 69913" transform="translate(12.958 0)">
        <g id="Grupo_69909" data-name="Grupo 69909" transform="translate(0 0.405)">
          <g id="Grupo_69908" data-name="Grupo 69908">
            <g id="Grupo_69907" data-name="Grupo 69907">
              <path id="Trazado_106541" data-name="Trazado 106541" d="M6842.313,2497.308c-.62,0-1.478-.028-2.56-.132-2.408-.229-6.379-.361-6.418-.363l-.079,0v-19.829a30,30,0,0,1,.73-4.8c.07-.312.16-.65.247-.977a10.131,10.131,0,0,0,.375-1.8,35.35,35.35,0,0,0-.868-8.53l-.024-.114.112.013c.045,0,1.108.108,1.809-1.293l.047-.093,3.057,2.645-1.944-3.137.006-.032a8.586,8.586,0,0,0-.646-4.7l-.037-.079,4.02-1.732-.015.141a4.632,4.632,0,0,0,.857,3.109,3.217,3.217,0,0,0,2.5,1.041l.08,0v40.607l-.073.008A11.752,11.752,0,0,1,6842.313,2497.308Zm-8.894-.658c.572.019,4.124.149,6.349.361a21.443,21.443,0,0,0,3.631.094v-40.294a3.34,3.34,0,0,1-2.54-1.1,4.617,4.617,0,0,1-.906-3.1l-3.614,1.557a8.8,8.8,0,0,1,.628,4.69l2.48,4-3.713-3.213a2.124,2.124,0,0,1-1.813,1.3,35.514,35.514,0,0,1,.849,8.469,10.291,10.291,0,0,1-.381,1.836c-.086.325-.176.662-.245.971a30.682,30.682,0,0,0-.726,4.758Z" transform="translate(-6833.256 -2452.357)" fill="#6d6875"/>
            </g>
          </g>
        </g>
        <g id="Grupo_69912" data-name="Grupo 69912" transform="translate(2.857)">
          <g id="Grupo_69911" data-name="Grupo 69911">
            <g id="Grupo_69910" data-name="Grupo 69910">
              <path id="Trazado_106542" data-name="Trazado 106542" d="M6846.14,2462.514h-.279a.083.083,0,0,1,0-.167h.279a.083.083,0,0,1,0,.167Zm-.841,0h-.28a.083.083,0,0,1,0-.167h.28a.083.083,0,0,1,0,.167Zm-.841,0h-.28a.083.083,0,0,1,0-.167h.28a.083.083,0,0,1,0,.167Zm-.842,0h-.28a.083.083,0,0,1,0-.167h.28a.083.083,0,0,1,0,.167Zm-.841,0h-.281a.083.083,0,0,1,0-.167h.281a.083.083,0,0,1,0,.167Zm-.664-.335a.08.08,0,0,1-.067-.038l-.151-.242a.083.083,0,0,1,.024-.115.079.079,0,0,1,.111.025l.152.242a.083.083,0,0,1-.069.128Zm-.454-.726a.085.085,0,0,1-.069-.038l-.151-.242a.085.085,0,0,1,.024-.115.081.081,0,0,1,.113.025l.15.242a.082.082,0,0,1-.067.128Zm-.456-.726a.08.08,0,0,1-.067-.038l-.152-.242a.083.083,0,0,1,.025-.115.079.079,0,0,1,.111.025l.152.242a.085.085,0,0,1-.025.115A.078.078,0,0,1,6841.2,2460.728Zm-.454-.726a.079.079,0,0,1-.068-.038l-.151-.242a.084.084,0,0,1,.023-.115.08.08,0,0,1,.112.025l.152.242a.086.086,0,0,1-.024.115A.078.078,0,0,1,6840.747,2460Zm-.455-.726a.079.079,0,0,1-.068-.038l-.152-.242a.085.085,0,0,1,.024-.115.08.08,0,0,1,.112.025l.152.242a.086.086,0,0,1-.024.115A.078.078,0,0,1,6840.292,2459.276Zm-.455-.726a.081.081,0,0,1-.068-.038l-.151-.242a.084.084,0,0,1,.023-.115.08.08,0,0,1,.112.025l.151.242a.083.083,0,0,1-.023.115A.08.08,0,0,1,6839.837,2458.55Zm-.134-.808h0a.081.081,0,0,1-.076-.087c0-.094.007-.189.008-.285a.086.086,0,0,1,.084-.082.082.082,0,0,1,.079.085c0,.1,0,.194-.009.29A.084.084,0,0,1,6839.7,2457.742Zm0-.863a.082.082,0,0,1-.081-.08c0-.094-.01-.19-.017-.285a.083.083,0,0,1,.075-.089.082.082,0,0,1,.087.077c.007.1.013.194.017.29a.083.083,0,0,1-.077.087Zm-.074-.86a.081.081,0,0,1-.08-.073c-.012-.094-.024-.188-.04-.282a.083.083,0,0,1,.067-.1.082.082,0,0,1,.094.069c.015.1.028.192.04.287a.082.082,0,0,1-.069.093Zm6.36-.049h-.056a.083.083,0,0,1-.08-.085.081.081,0,0,1,.082-.082,2.293,2.293,0,0,0,.27-.009.083.083,0,0,1,.02.165A1.994,1.994,0,0,1,6845.991,2455.97Zm-.613-.06h-.015c-.095-.019-.188-.041-.28-.068a.084.084,0,0,1-.057-.1.081.081,0,0,1,.1-.058c.087.025.176.046.267.064a.082.082,0,0,1,.063.1A.08.08,0,0,1,6845.378,2455.911Zm-.8-.27a.082.082,0,0,1-.036-.009c-.086-.043-.171-.092-.252-.143a.085.085,0,0,1-.026-.115.08.08,0,0,1,.112-.026c.076.048.156.094.237.135a.084.084,0,0,1,.037.112A.08.08,0,0,1,6844.581,2455.641Zm-5.092-.472a.082.082,0,0,1-.08-.066c-.019-.092-.039-.186-.061-.278a.084.084,0,0,1,.06-.1.082.082,0,0,1,.1.062c.021.094.042.189.063.282a.084.084,0,0,1-.063.1Zm4.4-.017a.081.081,0,0,1-.056-.023c-.068-.067-.136-.138-.2-.213a.083.083,0,0,1,.008-.117.078.078,0,0,1,.113.008c.061.071.124.138.189.2a.085.085,0,0,1,0,.118A.081.081,0,0,1,6843.892,2455.152Zm-.521-.673a.079.079,0,0,1-.068-.041c-.049-.083-.094-.17-.136-.259a.084.084,0,0,1,.038-.111.079.079,0,0,1,.107.038c.041.085.084.168.13.247a.085.085,0,0,1-.029.114A.08.08,0,0,1,6843.371,2454.479Zm-4.088-.147a.084.084,0,0,1-.079-.06c-.025-.092-.054-.183-.081-.272a.084.084,0,0,1,.052-.105.081.081,0,0,1,.1.053c.028.091.057.184.084.278a.084.084,0,0,1-.056.1A.089.089,0,0,1,6839.283,2454.332Zm3.75-.64a.081.081,0,0,1-.077-.058c-.029-.091-.055-.186-.078-.281a.083.083,0,0,1,.059-.1.08.08,0,0,1,.1.06c.022.093.048.183.075.271a.083.083,0,0,1-.053.1A.063.063,0,0,1,6843.033,2453.692Zm-4.022-.177a.081.081,0,0,1-.075-.053c-.033-.084-.052-.129-.053-.131l-.035-.078.207-.087a.081.081,0,0,1,.106.046.083.083,0,0,1-.044.108l-.055.023c.008.016.015.035.023.057a.085.085,0,0,1-.045.108A.076.076,0,0,1,6839.011,2453.515Zm.595-.407a.081.081,0,0,1-.075-.052.082.082,0,0,1,.044-.108l.259-.109a.08.08,0,0,1,.106.045.084.084,0,0,1-.045.108l-.259.109A.068.068,0,0,1,6839.605,2453.108Zm3.242-.255a.081.081,0,0,1-.08-.071c-.014-.094-.025-.191-.035-.289a.083.083,0,0,1,.073-.091.081.081,0,0,1,.088.074c.01.1.021.19.035.281a.085.085,0,0,1-.069.095Zm-2.465-.073a.084.084,0,0,1-.031-.16l.261-.109a.08.08,0,0,1,.105.045.084.084,0,0,1-.045.108l-.258.109A.08.08,0,0,1,6840.383,2452.78Zm.778-.328a.082.082,0,0,1-.075-.052.084.084,0,0,1,.044-.108l.26-.11a.081.081,0,0,1,.106.045.084.084,0,0,1-.044.109l-.26.109A.076.076,0,0,1,6841.161,2452.452Zm.777-.329a.083.083,0,0,1-.029-.159l.259-.109a.079.079,0,0,1,.105.045.083.083,0,0,1-.044.109l-.26.109A.07.07,0,0,1,6841.938,2452.123Zm.841-.129a.083.083,0,0,1-.082-.081c0-.041,0-.08,0-.121a.08.08,0,0,1-.053-.049.085.085,0,0,1,.044-.108l.171-.072v.124c0,.076,0,.149,0,.221a.082.082,0,0,1-.079.085Z" transform="translate(-6838.848 -2451.564)" fill="#6d6875"/>
            </g>
          </g>
        </g>
      </g>
      <g id="Grupo_69921" data-name="Grupo 69921" transform="translate(25.554 0.251)">
        <g id="Grupo_69916" data-name="Grupo 69916">
          <g id="Grupo_69915" data-name="Grupo 69915">
            <g id="Grupo_69914" data-name="Grupo 69914">
              <path id="Trazado_106543" data-name="Trazado 106543" d="M6870.909,2472.906H6866.7l-.954-6.6-1.588,6.6H6859.6l-1.681-9.823.1.006c.029,0,2.879.149,3.222-2.145.007-.047.014-.092.017-.14s.009-.088.011-.131c.1-1.969-2-4.263-2.018-4.286l-.063-.07,4.884-3.606,1.705,9.617,2.082-10.273.1.254c.012.03,1.224,3.037,3.313,3.661l.061.018,0,.064Zm-4.065-.167h3.907l.414-16.626c-1.8-.578-2.922-2.764-3.255-3.5l-2.145,10.587-1.809-10.2-4.526,3.342c.362.41,2.091,2.472,2,4.339q0,.069-.01.14c0,.049-.011.1-.019.148a2.5,2.5,0,0,1-1.843,2.073,4.689,4.689,0,0,1-1.446.216l1.623,9.48h4.3l1.756-7.3Z" transform="translate(-6857.915 -2452.056)" fill="#6d6875"/>
            </g>
          </g>
        </g>
        <g id="Grupo_69920" data-name="Grupo 69920" transform="translate(3.312 8.515)">
          <g id="Grupo_69919" data-name="Grupo 69919">
            <g id="Grupo_69918" data-name="Grupo 69918">
              <g id="Grupo_69917" data-name="Grupo 69917">
                <path id="Trazado_106544" data-name="Trazado 106544" d="M6868.731,2474.622l0-.083a6.945,6.945,0,0,0-1.085-3.471,6.028,6.028,0,0,0-3.172-1.876l-.071-.019.012-.074c.007-.046.013-.092.018-.139s.008-.088.01-.131l0-.1.1.026a6.461,6.461,0,0,1,3.423,2.019,7.247,7.247,0,0,1,1.2,3.747l0,.084-.218.009-.022-.152-.037.155Zm-4.149-5.571a6.136,6.136,0,0,1,3.18,1.906,6.266,6.266,0,0,1,1.085,3.118l.073-.3a5.91,5.91,0,0,0-1.078-2.89,6.256,6.256,0,0,0-3.249-1.943l0,.038C6864.587,2469,6864.585,2469.026,6864.582,2469.051Z" transform="translate(-6864.399 -2468.726)" fill="#6d6875"/>
              </g>
            </g>
          </g>
        </g>
      </g>
      <g id="Grupo_69924" data-name="Grupo 69924" transform="translate(25.405 25.105)">
        <g id="Grupo_69923" data-name="Grupo 69923">
          <g id="Grupo_69922" data-name="Grupo 69922">
            <path id="Trazado_106545" data-name="Trazado 106545" d="M6870.888,2521.169h-4.855l-.99-7.361-.875,7.361h-5.5l-1.048-8.967.083-.008a5.289,5.289,0,0,0,3.718-2.283l.027-.044.051.006a5.623,5.623,0,0,1,3.236,1.948,7.044,7.044,0,0,0-2.953-3.314l-.059-.031.019-.065a7.065,7.065,0,0,0-.4-4.954l-.046-.081,6.141-2.662.028.088a5.845,5.845,0,0,0,3.675,3.885l.062.017v.065Zm-4.714-.167h4.555l.311-16.176a5.441,5.441,0,0,1-1.465-.77,6.1,6.1,0,0,1-2.234-3.12l-5.812,2.519a7.308,7.308,0,0,1,.391,4.936,6.947,6.947,0,0,1,3.1,3.782l.111.412-.254-.34a6.021,6.021,0,0,0-3.346-2.2,5.459,5.459,0,0,1-3.729,2.307l1.012,8.651h5.208l1.007-8.487Z" transform="translate(-6857.623 -2500.712)" fill="#6d6875"/>
          </g>
        </g>
      </g>
      <g id="Grupo_69932" data-name="Grupo 69932" transform="translate(55.435 0.251)">
        <g id="Grupo_69927" data-name="Grupo 69927">
          <g id="Grupo_69926" data-name="Grupo 69926">
            <g id="Grupo_69925" data-name="Grupo 69925">
              <path id="Trazado_106546" data-name="Trazado 106546" d="M6929.408,2472.906H6925.2l-.954-6.6-1.589,6.6H6918.1l-1.682-9.823.1.006c.028,0,2.879.149,3.22-2.145.008-.047.014-.092.019-.14s.008-.088.01-.131c.1-1.969-2-4.263-2.017-4.286l-.063-.07,4.885-3.606,1.7,9.617,2.081-10.273.1.254c.012.03,1.223,3.037,3.313,3.661l.061.018,0,.064Zm-4.065-.167h3.908l.414-16.626c-1.8-.578-2.921-2.764-3.255-3.5l-2.145,10.587-1.807-10.2-4.527,3.342c.362.41,2.092,2.472,2,4.339,0,.046-.006.093-.01.14s-.012.1-.019.148a2.5,2.5,0,0,1-1.843,2.073,4.693,4.693,0,0,1-1.446.216l1.623,9.48h4.3l1.755-7.3Z" transform="translate(-6916.414 -2452.056)" fill="#6d6875"/>
            </g>
          </g>
        </g>
        <g id="Grupo_69931" data-name="Grupo 69931" transform="translate(3.312 8.515)">
          <g id="Grupo_69930" data-name="Grupo 69930">
            <g id="Grupo_69929" data-name="Grupo 69929">
              <g id="Grupo_69928" data-name="Grupo 69928">
                <path id="Trazado_106547" data-name="Trazado 106547" d="M6927.23,2474.622l0-.083a6.922,6.922,0,0,0-1.084-3.471,6.024,6.024,0,0,0-3.171-1.876l-.071-.019.012-.074c.007-.046.012-.092.018-.139s.008-.088.009-.131l.005-.1.1.026a6.46,6.46,0,0,1,3.423,2.019,7.255,7.255,0,0,1,1.2,3.747l0,.084-.218.009-.022-.152-.037.155Zm-4.15-5.571a6.137,6.137,0,0,1,3.181,1.906,6.27,6.27,0,0,1,1.085,3.118l.073-.3a5.919,5.919,0,0,0-1.077-2.89,6.263,6.263,0,0,0-3.25-1.943l0,.038C6923.086,2469,6923.084,2469.026,6923.08,2469.051Z" transform="translate(-6922.898 -2468.726)" fill="#6d6875"/>
              </g>
            </g>
          </g>
        </g>
      </g>
      <g id="Grupo_69935" data-name="Grupo 69935" transform="translate(55.286 25.105)">
        <g id="Grupo_69934" data-name="Grupo 69934">
          <g id="Grupo_69933" data-name="Grupo 69933">
            <path id="Trazado_106548" data-name="Trazado 106548" d="M6929.385,2521.169h-4.854l-.991-7.361-.875,7.361h-5.5l-1.047-8.967.082-.008a5.292,5.292,0,0,0,3.719-2.283l.027-.044.05.006a5.628,5.628,0,0,1,3.237,1.948,7.049,7.049,0,0,0-2.954-3.314l-.059-.031.018-.065a7.057,7.057,0,0,0-.4-4.954l-.046-.081,6.141-2.662.027.088a5.847,5.847,0,0,0,3.676,3.885l.062.017v.065Zm-4.713-.167h4.555l.311-16.176a5.441,5.441,0,0,1-1.466-.77,6.087,6.087,0,0,1-2.234-3.12l-5.812,2.519a7.3,7.3,0,0,1,.39,4.936,6.943,6.943,0,0,1,3.1,3.782l.111.412-.253-.34a6.027,6.027,0,0,0-3.347-2.2,5.461,5.461,0,0,1-3.729,2.307l1.012,8.651h5.208l1.008-8.487Z" transform="translate(-6916.122 -2500.712)" fill="#6d6875"/>
          </g>
        </g>
      </g>
    </g>
  </g>
</svg>
