<svg xmlns="http://www.w3.org/2000/svg" width="505" height="167.725" viewBox="0 0 505 167.725">
  <g id="Grupo_70474" data-name="Grupo 70474" transform="translate(-526.271 -188.964)">
    <g id="Grupo_70301" data-name="Grupo 70301" transform="translate(526.271 198.147)">
      <g id="Grupo_70234" data-name="Grupo 70234" transform="translate(76.378)">
        <g id="Grupo_70222" data-name="Grupo 70222" transform="translate(9.938)">
          <path id="Trazado_107191" data-name="Trazado 107191" d="M607.577,199.475l3.223,1.861,3.223-1.861-3.223-1.861Z" transform="translate(-607.577 -197.614)" fill="#bdd4cf"/>
        </g>
        <g id="Grupo_70233" data-name="Grupo 70233" transform="translate(0 1.861)">
          <g id="Grupo_70223" data-name="Grupo 70223" transform="translate(39.151 93.966)">
            <path id="Trazado_107192" data-name="Trazado 107192" d="M635.094,295.168l3.223,1.861V289.74l-3.223-1.861Z" transform="translate(-635.094 -287.88)" fill="#9cafab"/>
          </g>
          <g id="Grupo_70224" data-name="Grupo 70224" transform="translate(0.122 68.425)">
            <path id="Trazado_107193" data-name="Trazado 107193" d="M598.331,266.953l42.252,24.269V288.09l-42.252-24.269Z" transform="translate(-598.331 -263.821)" fill="#9cafab"/>
          </g>
          <g id="Grupo_70227" data-name="Grupo 70227" transform="translate(0.122)">
            <g id="Grupo_70225" data-name="Grupo 70225" transform="translate(0 66.564)">
              <path id="Trazado_107194" data-name="Trazado 107194" d="M598.331,263.929,640.583,288.2l3.223-1.861-42.252-24.269Z" transform="translate(-598.331 -262.068)" fill="#bdd4cf"/>
            </g>
            <g id="Grupo_70226" data-name="Grupo 70226" transform="translate(13.039)">
              <path id="Trazado_107195" data-name="Trazado 107195" d="M610.613,201.228v74.079l3.223-1.861V199.367Z" transform="translate(-610.613 -199.367)" fill="#5b6664"/>
            </g>
          </g>
          <g id="Grupo_70228" data-name="Grupo 70228" transform="translate(9.938)">
            <path id="Trazado_107196" data-name="Trazado 107196" d="M607.577,199.367v74.079l3.223,1.861V201.228Z" transform="translate(-607.577 -199.367)" fill="#9cafab"/>
          </g>
          <g id="Grupo_70229" data-name="Grupo 70229" transform="translate(42.374 90.833)">
            <path id="Trazado_107197" data-name="Trazado 107197" d="M641.354,284.929v3.133l-3.223,1.861V286.79Z" transform="translate(-638.13 -284.929)" fill="#5b6664"/>
          </g>
          <g id="Grupo_70230" data-name="Grupo 70230" transform="translate(42.374 93.966)">
            <path id="Trazado_107198" data-name="Trazado 107198" d="M638.13,289.74v7.289l3.223-1.861V287.88Z" transform="translate(-638.13 -287.88)" fill="#5b6664"/>
          </g>
          <g id="Grupo_70231" data-name="Grupo 70231" transform="translate(0 71.348)">
            <path id="Trazado_107199" data-name="Trazado 107199" d="M598.331,274.06l3.223,1.861v-7.289l-3.223-1.861Z" transform="translate(-598.209 -266.562)" fill="#fff"/>
            <path id="Trazado_107200" data-name="Trazado 107200" d="M601.682,276.144l-3.466-2v-7.568l3.466,2ZM598.459,274l2.981,1.721v-7.008l-2.981-1.721Z" transform="translate(-598.216 -266.574)" fill="#231f20"/>
          </g>
          <g id="Grupo_70232" data-name="Grupo 70232" transform="translate(3.224 73.209)">
            <path id="Trazado_107201" data-name="Trazado 107201" d="M601.367,268.524v7.289l3.223-1.861v-3.567Z" transform="translate(-601.246 -268.315)" fill="#fff"/>
            <path id="Trazado_107202" data-name="Trazado 107202" d="M601.253,276.036v-7.709l3.465,2v3.707Zm.242-7.289v6.868l2.981-1.721v-3.427Z" transform="translate(-601.253 -268.327)" fill="#231f20"/>
          </g>
        </g>
      </g>
      <g id="Grupo_70245" data-name="Grupo 70245" transform="translate(12.841 67.386)">
        <g id="Grupo_70236" data-name="Grupo 70236" transform="translate(66.201 3.456)">
          <g id="Grupo_70235" data-name="Grupo 70235">
            <path id="Trazado_107203" data-name="Trazado 107203" d="M601.966,275.792l15.788-9.115a1.25,1.25,0,1,0-1.25-2.165l-15.779,9.11A5.733,5.733,0,0,0,601.966,275.792Z" transform="translate(-600.726 -264.345)" fill="#9cafab"/>
          </g>
        </g>
        <g id="Grupo_70244" data-name="Grupo 70244">
          <g id="Grupo_70241" data-name="Grupo 70241" transform="translate(0 36.231)">
            <g id="Grupo_70239" data-name="Grupo 70239">
              <g id="Grupo_70237" data-name="Grupo 70237">
                <path id="Trazado_107204" data-name="Trazado 107204" d="M555.651,311.366c0,5.512-3.87,7.746-8.643,4.99s-8.642-9.457-8.642-14.969,3.87-7.744,8.643-4.99S555.651,305.855,555.651,311.366Z" transform="translate(-538.367 -295.218)" fill="#0075a4"/>
              </g>
              <g id="Grupo_70238" data-name="Grupo 70238" transform="translate(6.236 8.052)">
                <path id="Trazado_107205" data-name="Trazado 107205" d="M549.053,307.3c0,1.534-1.078,2.156-2.406,1.39a5.32,5.32,0,0,1-2.407-4.168c0-1.535,1.078-2.157,2.407-1.39A5.32,5.32,0,0,1,549.053,307.3Z" transform="translate(-544.241 -302.802)" fill="#5b6664"/>
              </g>
            </g>
            <g id="Grupo_70240" data-name="Grupo 70240" transform="translate(6.236 8.066)">
              <path id="Trazado_107206" data-name="Trazado 107206" d="M548.282,307.493a5.312,5.312,0,0,1-2.406-4.167,2.741,2.741,0,0,1,.042-.473c-.97-.2-1.678.427-1.678,1.667a5.32,5.32,0,0,0,2.407,4.168c1.18.682,2.158.261,2.362-.917A2.437,2.437,0,0,1,548.282,307.493Z" transform="translate(-544.241 -302.816)" fill="#9cafab"/>
            </g>
          </g>
          <g id="Grupo_70243" data-name="Grupo 70243" transform="translate(2.535)">
            <g id="Grupo_70242" data-name="Grupo 70242">
              <path id="Trazado_107207" data-name="Trazado 107207" d="M618.241,277.235c0-5.512-3.87-12.214-8.643-14.969-2.34-1.351-4.459-1.5-6.015-.651l0-.006-.073.044-.034.019-62.717,36.221c1.564-.9,3.723-.769,6.107.607,4.773,2.756,8.642,9.458,8.642,14.969,0,2.642-.895,4.52-2.347,5.467l.005.007,62.423-36.056c.081-.044.16-.089.239-.138l.139-.08-.007-.012C617.371,281.7,618.241,279.838,618.241,277.235Z" transform="translate(-540.755 -261.09)" fill="#003950"/>
            </g>
          </g>
        </g>
      </g>
      <g id="Grupo_70256" data-name="Grupo 70256" transform="translate(12.841 45.536)">
        <g id="Grupo_70247" data-name="Grupo 70247" transform="translate(66.201 3.456)">
          <g id="Grupo_70246" data-name="Grupo 70246">
            <path id="Trazado_107208" data-name="Trazado 107208" d="M601.966,255.21l15.788-9.116a1.25,1.25,0,0,0-1.25-2.165l-15.779,9.111A5.749,5.749,0,0,0,601.966,255.21Z" transform="translate(-600.726 -243.763)" fill="#9cafab"/>
          </g>
        </g>
        <g id="Grupo_70255" data-name="Grupo 70255">
          <g id="Grupo_70252" data-name="Grupo 70252" transform="translate(0 36.23)">
            <g id="Grupo_70250" data-name="Grupo 70250">
              <g id="Grupo_70248" data-name="Grupo 70248">
                <path id="Trazado_107209" data-name="Trazado 107209" d="M555.651,290.784c0,5.511-3.87,7.744-8.643,4.99s-8.642-9.458-8.642-14.969,3.87-7.746,8.643-4.99S555.651,285.272,555.651,290.784Z" transform="translate(-538.367 -274.635)" fill="#25ced1"/>
              </g>
              <g id="Grupo_70249" data-name="Grupo 70249" transform="translate(6.236 8.052)">
                <path id="Trazado_107210" data-name="Trazado 107210" d="M549.053,286.716c0,1.535-1.078,2.157-2.406,1.39a5.318,5.318,0,0,1-2.407-4.168c0-1.534,1.078-2.156,2.407-1.39A5.322,5.322,0,0,1,549.053,286.716Z" transform="translate(-544.241 -282.22)" fill="#5b6664"/>
              </g>
            </g>
            <g id="Grupo_70251" data-name="Grupo 70251" transform="translate(6.236 8.067)">
              <path id="Trazado_107211" data-name="Trazado 107211" d="M548.282,286.911a5.316,5.316,0,0,1-2.406-4.168,2.728,2.728,0,0,1,.042-.472c-.97-.2-1.678.426-1.678,1.666a5.32,5.32,0,0,0,2.407,4.168c1.18.682,2.158.262,2.362-.917A2.4,2.4,0,0,1,548.282,286.911Z" transform="translate(-544.241 -282.234)" fill="#9cafab"/>
            </g>
          </g>
          <g id="Grupo_70254" data-name="Grupo 70254" transform="translate(2.535)">
            <g id="Grupo_70253" data-name="Grupo 70253">
              <path id="Trazado_107212" data-name="Trazado 107212" d="M618.241,256.652c0-5.511-3.87-12.213-8.643-14.969-2.34-1.351-4.459-1.5-6.015-.65l0-.006-.073.042-.034.02-62.717,36.221c1.564-.9,3.723-.77,6.107.607,4.773,2.755,8.642,9.457,8.642,14.969,0,2.641-.895,4.519-2.347,5.466l.005.009,62.423-36.056c.081-.044.16-.089.239-.138l.139-.081-.007-.012C617.371,261.116,618.241,259.255,618.241,256.652Z" transform="translate(-540.755 -240.507)" fill="#046163"/>
            </g>
          </g>
        </g>
      </g>
      <g id="Grupo_70267" data-name="Grupo 70267" transform="translate(12.841 23.685)">
        <g id="Grupo_70258" data-name="Grupo 70258" transform="translate(66.201 3.456)">
          <g id="Grupo_70257" data-name="Grupo 70257">
            <path id="Trazado_107213" data-name="Trazado 107213" d="M601.966,234.627l15.788-9.115a1.25,1.25,0,1,0-1.25-2.165l-15.779,9.11A5.733,5.733,0,0,0,601.966,234.627Z" transform="translate(-600.726 -223.18)" fill="#9cafab"/>
          </g>
        </g>
        <g id="Grupo_70266" data-name="Grupo 70266">
          <g id="Grupo_70263" data-name="Grupo 70263" transform="translate(0 36.231)">
            <g id="Grupo_70261" data-name="Grupo 70261">
              <g id="Grupo_70259" data-name="Grupo 70259">
                <path id="Trazado_107214" data-name="Trazado 107214" d="M555.651,270.2c0,5.511-3.87,7.746-8.643,4.99s-8.642-9.457-8.642-14.969,3.87-7.744,8.643-4.99S555.651,264.69,555.651,270.2Z" transform="translate(-538.367 -254.053)" fill="#ff8a5b"/>
              </g>
              <g id="Grupo_70260" data-name="Grupo 70260" transform="translate(6.236 8.052)">
                <path id="Trazado_107215" data-name="Trazado 107215" d="M549.053,266.134c0,1.534-1.078,2.156-2.406,1.389a5.316,5.316,0,0,1-2.407-4.167c0-1.535,1.078-2.157,2.407-1.39A5.32,5.32,0,0,1,549.053,266.134Z" transform="translate(-544.241 -261.637)" fill="#5b6664"/>
              </g>
            </g>
            <g id="Grupo_70262" data-name="Grupo 70262" transform="translate(6.236 8.066)">
              <path id="Trazado_107216" data-name="Trazado 107216" d="M548.282,266.328a5.313,5.313,0,0,1-2.406-4.168,2.739,2.739,0,0,1,.042-.472c-.97-.2-1.678.427-1.678,1.666a5.317,5.317,0,0,0,2.407,4.168c1.18.683,2.158.262,2.362-.916A2.436,2.436,0,0,1,548.282,266.328Z" transform="translate(-544.241 -261.651)" fill="#9cafab"/>
            </g>
          </g>
          <g id="Grupo_70265" data-name="Grupo 70265" transform="translate(2.535)">
            <g id="Grupo_70264" data-name="Grupo 70264">
              <path id="Trazado_107217" data-name="Trazado 107217" d="M618.241,236.069c0-5.511-3.87-12.213-8.643-14.968-2.34-1.351-4.459-1.5-6.015-.651l0-.006-.073.044-.034.019-62.717,36.221c1.564-.9,3.723-.77,6.107.607,4.773,2.756,8.642,9.458,8.642,14.969,0,2.642-.895,4.52-2.347,5.467l.005.007,62.423-36.056c.081-.044.16-.089.239-.138l.139-.08-.007-.012C617.371,240.533,618.241,238.673,618.241,236.069Z" transform="translate(-540.755 -219.925)" fill="#ff6324"/>
            </g>
          </g>
        </g>
      </g>
      <g id="Grupo_70278" data-name="Grupo 70278" transform="translate(12.841 1.834)">
        <g id="Grupo_70269" data-name="Grupo 70269" transform="translate(66.201 3.456)">
          <g id="Grupo_70268" data-name="Grupo 70268">
            <path id="Trazado_107218" data-name="Trazado 107218" d="M601.966,214.045l15.788-9.116a1.25,1.25,0,0,0-1.25-2.165l-15.779,9.11A5.745,5.745,0,0,0,601.966,214.045Z" transform="translate(-600.726 -202.598)" fill="#9cafab"/>
          </g>
        </g>
        <g id="Grupo_70277" data-name="Grupo 70277">
          <g id="Grupo_70274" data-name="Grupo 70274" transform="translate(0 36.23)">
            <g id="Grupo_70272" data-name="Grupo 70272">
              <g id="Grupo_70270" data-name="Grupo 70270">
                <path id="Trazado_107219" data-name="Trazado 107219" d="M555.651,249.618c0,5.512-3.87,7.746-8.643,4.991s-8.642-9.458-8.642-14.969,3.87-7.746,8.643-4.99S555.651,244.107,555.651,249.618Z" transform="translate(-538.367 -233.47)" fill="#ea526f"/>
              </g>
              <g id="Grupo_70271" data-name="Grupo 70271" transform="translate(6.236 8.052)">
                <path id="Trazado_107220" data-name="Trazado 107220" d="M549.053,245.551c0,1.535-1.078,2.157-2.406,1.39a5.32,5.32,0,0,1-2.407-4.168c0-1.534,1.078-2.156,2.407-1.39A5.322,5.322,0,0,1,549.053,245.551Z" transform="translate(-544.241 -241.055)" fill="#5b6664"/>
              </g>
            </g>
            <g id="Grupo_70273" data-name="Grupo 70273" transform="translate(6.236 8.067)">
              <path id="Trazado_107221" data-name="Trazado 107221" d="M548.282,245.746a5.316,5.316,0,0,1-2.406-4.168,2.729,2.729,0,0,1,.042-.472c-.97-.2-1.678.426-1.678,1.666a5.32,5.32,0,0,0,2.407,4.168c1.18.682,2.158.262,2.362-.917A2.4,2.4,0,0,1,548.282,245.746Z" transform="translate(-544.241 -241.069)" fill="#9cafab"/>
            </g>
          </g>
          <g id="Grupo_70276" data-name="Grupo 70276" transform="translate(2.535)">
            <g id="Grupo_70275" data-name="Grupo 70275">
              <path id="Trazado_107222" data-name="Trazado 107222" d="M618.241,215.487c0-5.512-3.87-12.213-8.643-14.969-2.34-1.351-4.459-1.5-6.015-.65l0-.006-.073.042-.034.02-62.717,36.221c1.564-.9,3.723-.77,6.107.607,4.773,2.755,8.642,9.457,8.642,14.968,0,2.642-.895,4.52-2.347,5.467l.005.008,62.423-36.056c.081-.044.16-.09.239-.138l.139-.081-.007-.012C617.371,219.951,618.241,218.09,618.241,215.487Z" transform="translate(-540.755 -199.342)" fill="#981d34"/>
            </g>
          </g>
        </g>
      </g>
      <g id="Grupo_70291" data-name="Grupo 70291" transform="translate(0 44.173)">
        <g id="Grupo_70279" data-name="Grupo 70279" transform="translate(9.816)">
          <path id="Trazado_107223" data-name="Trazado 107223" d="M535.518,241.085l3.223,1.861,3.223-1.861-3.223-1.861Z" transform="translate(-535.518 -239.224)" fill="#bdd4cf"/>
        </g>
        <g id="Grupo_70290" data-name="Grupo 70290" transform="translate(0 1.861)">
          <g id="Grupo_70280" data-name="Grupo 70280" transform="translate(39.029 93.966)">
            <path id="Trazado_107224" data-name="Trazado 107224" d="M563.035,336.777l3.223,1.861V331.35l-3.223-1.861Z" transform="translate(-563.035 -329.489)" fill="#9cafab"/>
          </g>
          <g id="Grupo_70281" data-name="Grupo 70281" transform="translate(0 68.425)">
            <path id="Trazado_107225" data-name="Trazado 107225" d="M526.271,308.562l42.252,24.269V329.7L526.271,305.43Z" transform="translate(-526.271 -305.43)" fill="#9cafab"/>
          </g>
          <g id="Grupo_70284" data-name="Grupo 70284">
            <g id="Grupo_70282" data-name="Grupo 70282" transform="translate(0 66.564)">
              <path id="Trazado_107226" data-name="Trazado 107226" d="M526.271,305.538l42.252,24.269,3.223-1.861-42.252-24.269Z" transform="translate(-526.271 -303.677)" fill="#bdd4cf"/>
            </g>
            <g id="Grupo_70283" data-name="Grupo 70283" transform="translate(13.039)">
              <path id="Trazado_107227" data-name="Trazado 107227" d="M538.554,242.837v74.079l3.223-1.861V240.977Z" transform="translate(-538.554 -240.977)" fill="#5b6664"/>
            </g>
          </g>
          <g id="Grupo_70285" data-name="Grupo 70285" transform="translate(9.816)">
            <path id="Trazado_107228" data-name="Trazado 107228" d="M535.518,240.977v74.079l3.223,1.861V242.837Z" transform="translate(-535.518 -240.977)" fill="#9cafab"/>
          </g>
          <g id="Grupo_70286" data-name="Grupo 70286" transform="translate(42.252 90.833)">
            <path id="Trazado_107229" data-name="Trazado 107229" d="M569.294,326.538v3.132l-3.223,1.861V328.4Z" transform="translate(-566.071 -326.538)" fill="#5b6664"/>
          </g>
          <g id="Grupo_70287" data-name="Grupo 70287" transform="translate(42.252 93.966)">
            <path id="Trazado_107230" data-name="Trazado 107230" d="M566.071,331.35v7.289l3.223-1.861v-7.289Z" transform="translate(-566.071 -329.489)" fill="#5b6664"/>
          </g>
          <g id="Grupo_70288" data-name="Grupo 70288" transform="translate(0 71.557)">
            <path id="Trazado_107231" data-name="Trazado 107231" d="M526.271,315.669l3.223,1.861v-7.289l-3.223-1.861Z" transform="translate(-526.271 -308.381)" fill="#9cafab"/>
          </g>
          <g id="Grupo_70289" data-name="Grupo 70289" transform="translate(3.223 73.418)">
            <path id="Trazado_107232" data-name="Trazado 107232" d="M529.307,310.134v7.289l3.223-1.861v-3.567Z" transform="translate(-529.307 -310.134)" fill="#5b6664"/>
          </g>
        </g>
      </g>
      <g id="Grupo_70300" data-name="Grupo 70300" transform="translate(6.026 47.236)">
        <g id="Grupo_70293" data-name="Grupo 70293" transform="translate(0 65.552)">
          <g id="Grupo_70292" data-name="Grupo 70292">
            <path id="Trazado_107233" data-name="Trazado 107233" d="M548.361,303.856l-15.788,9.116a1.25,1.25,0,0,0,1.25,2.165l15.778-9.11A5.728,5.728,0,0,0,548.361,303.856Z" transform="translate(-531.948 -303.856)" fill="#bdd4cf"/>
          </g>
        </g>
        <g id="Grupo_70295" data-name="Grupo 70295" transform="translate(0 43.701)">
          <g id="Grupo_70294" data-name="Grupo 70294">
            <path id="Trazado_107234" data-name="Trazado 107234" d="M548.361,283.274l-15.788,9.116a1.249,1.249,0,1,0,1.25,2.164l15.778-9.11A5.716,5.716,0,0,0,548.361,283.274Z" transform="translate(-531.948 -283.274)" fill="#bdd4cf"/>
          </g>
        </g>
        <g id="Grupo_70297" data-name="Grupo 70297" transform="translate(0 21.85)">
          <g id="Grupo_70296" data-name="Grupo 70296">
            <path id="Trazado_107235" data-name="Trazado 107235" d="M548.361,262.691l-15.788,9.116a1.25,1.25,0,0,0,1.25,2.165l15.778-9.11A5.728,5.728,0,0,0,548.361,262.691Z" transform="translate(-531.948 -262.691)" fill="#bdd4cf"/>
          </g>
        </g>
        <g id="Grupo_70299" data-name="Grupo 70299">
          <g id="Grupo_70298" data-name="Grupo 70298">
            <path id="Trazado_107236" data-name="Trazado 107236" d="M548.361,242.109l-15.788,9.115a1.25,1.25,0,1,0,1.25,2.165l15.778-9.11A5.716,5.716,0,0,0,548.361,242.109Z" transform="translate(-531.948 -242.109)" fill="#bdd4cf"/>
          </g>
        </g>
      </g>
    </g>
    <g id="Grupo_70373" data-name="Grupo 70373" transform="translate(677.829 188.964)">
      <g id="Grupo_70370" data-name="Grupo 70370">
        <g id="Grupo_70315" data-name="Grupo 70315" transform="translate(93.584 35.015)">
          <g id="Grupo_70305" data-name="Grupo 70305" transform="translate(0 29.981)">
            <g id="Grupo_70302" data-name="Grupo 70302" transform="translate(0 1.809)">
              <path id="Trazado_107237" data-name="Trazado 107237" d="M757.186,251.892v3.192L832.92,298.8v-3.192Z" transform="translate(-757.186 -251.892)" fill="#9cafab"/>
            </g>
            <g id="Grupo_70303" data-name="Grupo 70303">
              <path id="Trazado_107238" data-name="Trazado 107238" d="M757.186,252l3.135-1.809,75.734,43.72-3.135,1.809Z" transform="translate(-757.186 -250.188)" fill="#bdd4cf"/>
            </g>
            <g id="Grupo_70304" data-name="Grupo 70304" transform="translate(75.734 43.72)">
              <path id="Trazado_107239" data-name="Trazado 107239" d="M828.524,296.372l3.135-1.79V291.37l-3.135,1.809Z" transform="translate(-828.524 -291.37)" fill="#5b6664"/>
            </g>
          </g>
          <g id="Grupo_70308" data-name="Grupo 70308" transform="translate(10.882)">
            <g id="Grupo_70306" data-name="Grupo 70306">
              <path id="Trazado_107240" data-name="Trazado 107240" d="M769.669,223.368V260.8l-2.119-1.223V222.145Z" transform="translate(-767.429 -221.935)" fill="#fff"/>
              <path id="Trazado_107241" data-name="Trazado 107241" d="M769.8,261.019l-2.361-1.364V221.947l2.361,1.363Zm-2.118-1.5,1.876,1.084V223.45l-1.876-1.084Z" transform="translate(-767.436 -221.947)" fill="#231f20"/>
            </g>
            <g id="Grupo_70307" data-name="Grupo 70307" transform="translate(2.119)">
              <path id="Trazado_107242" data-name="Trazado 107242" d="M771.665,222.145v37.428l-2.119,1.223V223.368Z" transform="translate(-769.425 -221.935)" fill="#fff"/>
              <path id="Trazado_107243" data-name="Trazado 107243" d="M769.432,261.019V223.31l2.361-1.363v37.707Zm.242-37.568V260.6l1.876-1.084V222.366Z" transform="translate(-769.432 -221.947)" fill="#231f20"/>
            </g>
          </g>
          <g id="Grupo_70311" data-name="Grupo 70311" transform="translate(35.598 14.235)">
            <g id="Grupo_70309" data-name="Grupo 70309">
              <path id="Trazado_107244" data-name="Trazado 107244" d="M792.951,236.777v37.428l-2.119-1.223V235.554Z" transform="translate(-790.711 -235.344)" fill="#fff"/>
              <path id="Trazado_107245" data-name="Trazado 107245" d="M793.079,274.428l-2.361-1.363V235.356l2.361,1.363Zm-2.118-1.5,1.875,1.083V236.859l-1.875-1.083Z" transform="translate(-790.718 -235.356)" fill="#231f20"/>
            </g>
            <g id="Grupo_70310" data-name="Grupo 70310" transform="translate(2.118)">
              <path id="Trazado_107246" data-name="Trazado 107246" d="M794.947,235.554v37.428l-2.119,1.223V236.777Z" transform="translate(-792.706 -235.344)" fill="#fff"/>
              <path id="Trazado_107247" data-name="Trazado 107247" d="M792.713,274.428V236.719l2.362-1.363v37.709Zm.243-37.568v37.148l1.876-1.083V235.776Z" transform="translate(-792.713 -235.356)" fill="#231f20"/>
            </g>
          </g>
          <g id="Grupo_70314" data-name="Grupo 70314" transform="translate(60.436 28.681)">
            <g id="Grupo_70312" data-name="Grupo 70312">
              <path id="Trazado_107248" data-name="Trazado 107248" d="M816.233,250.187v37.428l-2.119-1.223V248.964Z" transform="translate(-814.114 -248.964)" fill="#9cafab"/>
            </g>
            <g id="Grupo_70313" data-name="Grupo 70313" transform="translate(2.119)">
              <path id="Trazado_107249" data-name="Trazado 107249" d="M818.228,248.964v37.428l-2.119,1.223V250.187Z" transform="translate(-816.11 -248.964)" fill="#5b6664"/>
            </g>
          </g>
        </g>
        <g id="Grupo_70329" data-name="Grupo 70329" transform="translate(0 89.232)">
          <g id="Grupo_70319" data-name="Grupo 70319" transform="translate(0 29.771)">
            <g id="Grupo_70316" data-name="Grupo 70316" transform="translate(0 1.809)">
              <path id="Trazado_107250" data-name="Trazado 107250" d="M669.033,302.765v3.192l75.734,43.72v-3.192Z" transform="translate(-669.033 -302.765)" fill="#9cafab"/>
            </g>
            <g id="Grupo_70317" data-name="Grupo 70317">
              <path id="Trazado_107251" data-name="Trazado 107251" d="M669.033,302.87l3.135-1.809L747.9,344.78l-3.135,1.809Z" transform="translate(-669.033 -301.061)" fill="#bdd4cf"/>
            </g>
            <g id="Grupo_70318" data-name="Grupo 70318" transform="translate(75.734 43.72)">
              <path id="Trazado_107252" data-name="Trazado 107252" d="M740.371,347.244l3.135-1.79v-3.211l-3.135,1.809Z" transform="translate(-740.371 -342.243)" fill="#5b6664"/>
            </g>
          </g>
          <g id="Grupo_70322" data-name="Grupo 70322" transform="translate(11.003)">
            <g id="Grupo_70320" data-name="Grupo 70320">
              <path id="Trazado_107253" data-name="Trazado 107253" d="M681.516,274.241v37.428l-2.119-1.223V273.017Z" transform="translate(-679.397 -273.017)" fill="#9cafab"/>
            </g>
            <g id="Grupo_70321" data-name="Grupo 70321" transform="translate(2.119)">
              <path id="Trazado_107254" data-name="Trazado 107254" d="M683.512,273.017v37.428l-2.119,1.223V274.241Z" transform="translate(-681.393 -273.017)" fill="#5b6664"/>
            </g>
          </g>
          <g id="Grupo_70325" data-name="Grupo 70325" transform="translate(35.719 14.236)">
            <g id="Grupo_70323" data-name="Grupo 70323">
              <path id="Trazado_107255" data-name="Trazado 107255" d="M704.8,287.65v37.428l-2.119-1.223V286.427Z" transform="translate(-702.679 -286.427)" fill="#9cafab"/>
            </g>
            <g id="Grupo_70324" data-name="Grupo 70324" transform="translate(2.119)">
              <path id="Trazado_107256" data-name="Trazado 107256" d="M706.793,286.427v37.428l-2.119,1.223V287.65Z" transform="translate(-704.675 -286.427)" fill="#5b6664"/>
            </g>
          </g>
          <g id="Grupo_70328" data-name="Grupo 70328" transform="translate(60.436 28.472)">
            <g id="Grupo_70326" data-name="Grupo 70326">
              <path id="Trazado_107257" data-name="Trazado 107257" d="M728.08,301.06v37.428l-2.119-1.223V299.836Z" transform="translate(-725.961 -299.836)" fill="#9cafab"/>
            </g>
            <g id="Grupo_70327" data-name="Grupo 70327" transform="translate(2.119)">
              <path id="Trazado_107258" data-name="Trazado 107258" d="M730.075,299.836v37.428l-2.119,1.223V301.06Z" transform="translate(-727.957 -299.836)" fill="#5b6664"/>
            </g>
          </g>
        </g>
        <g id="Grupo_70333" data-name="Grupo 70333" transform="translate(93.464 24.943)">
          <g id="Grupo_70330" data-name="Grupo 70330" transform="translate(0 1.599)">
            <path id="Trazado_107259" data-name="Trazado 107259" d="M757.186,214.164v3.192l75.734,43.72v-3.192Z" transform="translate(-757.065 -213.954)" fill="#fff"/>
            <path id="Trazado_107260" data-name="Trazado 107260" d="M833.049,261.3l-.183-.1-75.794-43.754v-3.473l.181.105,75.8,43.754Zm-75.734-44,75.491,43.58v-2.912l-75.491-43.579Z" transform="translate(-757.072 -213.966)" fill="#231f20"/>
          </g>
          <g id="Grupo_70331" data-name="Grupo 70331" transform="translate(0.121)">
            <path id="Trazado_107261" data-name="Trazado 107261" d="M757.186,214.269l3.135-1.809,75.734,43.72-3.135,1.809Z" transform="translate(-757.186 -212.459)" fill="#bdd4cf"/>
          </g>
          <g id="Grupo_70332" data-name="Grupo 70332" transform="translate(75.855 43.72)">
            <path id="Trazado_107262" data-name="Trazado 107262" d="M828.524,258.643l3.135-1.79v-3.211l-3.135,1.809Z" transform="translate(-828.524 -253.642)" fill="#5b6664"/>
          </g>
        </g>
        <g id="Grupo_70340" data-name="Grupo 70340" transform="translate(3.135 26.752)">
          <g id="Grupo_70336" data-name="Grupo 70336">
            <g id="Grupo_70334" data-name="Grupo 70334" transform="translate(36.611 21.138)">
              <path id="Trazado_107263" data-name="Trazado 107263" d="M796.924,237.266l-90.453,52.218v-3.192l90.453-52.218Z" transform="translate(-706.472 -234.074)" fill="#b3a584"/>
            </g>
            <g id="Grupo_70335" data-name="Grupo 70335">
              <path id="Trazado_107264" data-name="Trazado 107264" d="M799.049,235.3,708.6,287.519l-36.611-21.138,90.453-52.218Z" transform="translate(-671.986 -214.163)" fill="#f3e8cc"/>
            </g>
          </g>
          <g id="Grupo_70339" data-name="Grupo 70339" transform="translate(39.123 22.582)">
            <g id="Grupo_70337" data-name="Grupo 70337" transform="translate(36.611 21.138)">
              <path id="Trazado_107265" data-name="Trazado 107265" d="M833.776,258.537l-90.453,52.218v-3.192l90.453-52.218Z" transform="translate(-743.324 -255.345)" fill="#b3a584"/>
            </g>
            <g id="Grupo_70338" data-name="Grupo 70338">
              <path id="Trazado_107266" data-name="Trazado 107266" d="M835.9,256.572,745.449,308.79l-36.611-21.138,90.453-52.218Z" transform="translate(-708.838 -235.434)" fill="#f3e8cc"/>
            </g>
          </g>
        </g>
        <g id="Grupo_70343" data-name="Grupo 70343" transform="translate(101.447 0.237)">
          <g id="Grupo_70342" data-name="Grupo 70342">
            <g id="Grupo_70341" data-name="Grupo 70341">
              <path id="Trazado_107267" data-name="Trazado 107267" d="M777.829,228.434a.69.69,0,0,1-.345-.092L764.937,221.1a.691.691,0,0,1-.345-.6V189.877a.69.69,0,0,1,1.38,0V220.1l12.2,7.044a.691.691,0,0,1-.345,1.289Z" transform="translate(-764.592 -189.187)" fill="#9cafab"/>
            </g>
          </g>
        </g>
        <g id="Grupo_70344" data-name="Grupo 70344" transform="translate(10.815 7.896)">
          <path id="Trazado_107268" data-name="Trazado 107268" d="M784.515,231.842a49.78,49.78,0,0,1-20.863-23.491L758.527,196.4,679.22,242.1l5.125,11.948a49.794,49.794,0,0,0,20.863,23.492l31.547,18.214,79.307-45.7Z" transform="translate(-679.22 -196.402)" fill="#0075a4"/>
        </g>
        <g id="Grupo_70348" data-name="Grupo 70348" transform="translate(0 78.951)">
          <g id="Grupo_70345" data-name="Grupo 70345" transform="translate(0 1.809)">
            <path id="Trazado_107269" data-name="Trazado 107269" d="M669.033,265.036v3.192l75.734,43.72v-3.192Z" transform="translate(-669.033 -265.036)" fill="#9cafab"/>
          </g>
          <g id="Grupo_70346" data-name="Grupo 70346">
            <path id="Trazado_107270" data-name="Trazado 107270" d="M669.033,265.142l3.135-1.809,75.734,43.72-3.135,1.809Z" transform="translate(-669.033 -263.332)" fill="#bdd4cf"/>
          </g>
          <g id="Grupo_70347" data-name="Grupo 70347" transform="translate(75.734 43.72)">
            <path id="Trazado_107271" data-name="Trazado 107271" d="M740.371,309.516l3.135-1.79v-3.211l-3.135,1.809Z" transform="translate(-740.371 -304.515)" fill="#5b6664"/>
          </g>
        </g>
        <g id="Grupo_70359" data-name="Grupo 70359" transform="translate(10.102)">
          <g id="Grupo_70350" data-name="Grupo 70350" transform="translate(81.674 2.371)">
            <g id="Grupo_70349" data-name="Grupo 70349">
              <path id="Trazado_107272" data-name="Trazado 107272" d="M756.333,199.048l10.828-6.252a.857.857,0,0,0-.429-1.6.864.864,0,0,0-.429.115l-10.821,6.248A3.926,3.926,0,0,0,756.333,199.048Z" transform="translate(-755.483 -191.197)" fill="#bdd4cf"/>
            </g>
          </g>
          <g id="Grupo_70358" data-name="Grupo 70358">
            <g id="Grupo_70355" data-name="Grupo 70355" transform="translate(0 45.701)">
              <g id="Grupo_70353" data-name="Grupo 70353">
                <g id="Grupo_70351" data-name="Grupo 70351">
                  <path id="Trazado_107273" data-name="Trazado 107273" d="M690.4,243.088c0,3.78-2.653,5.312-5.927,3.423a13.1,13.1,0,0,1-5.927-10.267c0-3.779,2.654-5.311,5.927-3.422A13.1,13.1,0,0,1,690.4,243.088Z" transform="translate(-678.549 -232.013)" fill="#118dbf"/>
                </g>
                <g id="Grupo_70352" data-name="Grupo 70352" transform="translate(4.277 5.522)">
                  <path id="Trazado_107274" data-name="Trazado 107274" d="M685.879,240.3c0,1.053-.739,1.479-1.651.953a3.649,3.649,0,0,1-1.65-2.859c0-1.052.739-1.479,1.65-.952A3.645,3.645,0,0,1,685.879,240.3Z" transform="translate(-682.578 -237.215)" fill="#440301"/>
                </g>
              </g>
              <g id="Grupo_70354" data-name="Grupo 70354" transform="translate(4.277 5.532)">
                <path id="Trazado_107275" data-name="Trazado 107275" d="M685.35,240.432a3.647,3.647,0,0,1-1.651-2.859,1.921,1.921,0,0,1,.03-.324c-.666-.139-1.151.292-1.151,1.142a3.649,3.649,0,0,0,1.65,2.859c.81.467,1.481.179,1.621-.628A1.689,1.689,0,0,1,685.35,240.432Z" transform="translate(-682.578 -237.224)" fill="#a90d01"/>
              </g>
            </g>
            <g id="Grupo_70357" data-name="Grupo 70357" transform="translate(1.739)">
              <g id="Grupo_70356" data-name="Grupo 70356">
                <path id="Trazado_107276" data-name="Trazado 107276" d="M769.6,200.037a13.1,13.1,0,0,0-5.927-10.266,4.2,4.2,0,0,0-4.125-.446l0,0-.05.03-.023.013-79.285,45.7c1.072-.618,2.553-.528,4.188.416A13.1,13.1,0,0,1,690.3,245.74a4.243,4.243,0,0,1-1.609,3.75l0,.005,79.083-45.58c.056-.03.11-.062.164-.094l.1-.055,0-.009A4.273,4.273,0,0,0,769.6,200.037Z" transform="translate(-680.187 -188.964)" fill="#035b7e"/>
              </g>
            </g>
          </g>
        </g>
        <g id="Grupo_70361" data-name="Grupo 70361" transform="translate(10.997 52.578)">
          <g id="Grupo_70360" data-name="Grupo 70360">
            <path id="Trazado_107277" data-name="Trazado 107277" d="M692.628,277.737a.7.7,0,0,1-.344-.091L679.737,270.4a.688.688,0,0,1-.345-.6V239.181a.69.69,0,1,1,1.38,0v30.224l12.2,7.044a.69.69,0,0,1-.346,1.288Z" transform="translate(-679.392 -238.49)" fill="#9cafab"/>
          </g>
        </g>
        <g id="Grupo_70363" data-name="Grupo 70363" transform="translate(5.429 51.99)">
          <g id="Grupo_70362" data-name="Grupo 70362">
            <path id="Trazado_107278" data-name="Trazado 107278" d="M685.4,237.937l-10.828,6.252a.857.857,0,0,0,.857,1.485l10.821-6.249A3.925,3.925,0,0,0,685.4,237.937Z" transform="translate(-674.147 -237.937)" fill="#bdd4cf"/>
          </g>
        </g>
        <g id="Grupo_70365" data-name="Grupo 70365" transform="translate(101.932 15.123)">
          <g id="Grupo_70364" data-name="Grupo 70364">
            <path id="Trazado_107279" data-name="Trazado 107279" d="M781.138,213.462a.676.676,0,0,1-.339-.091l-15.411-8.9a.678.678,0,0,1,.677-1.174l15.411,8.9a.678.678,0,0,1-.339,1.264Z" transform="translate(-765.049 -203.209)" fill="#5b6664"/>
          </g>
        </g>
        <g id="Grupo_70367" data-name="Grupo 70367" transform="translate(26.931 24.027)">
          <g id="Grupo_70366" data-name="Grupo 70366">
            <path id="Trazado_107280" data-name="Trazado 107280" d="M695.078,265.287a.679.679,0,0,0,.339-.091l90.412-52.335a.677.677,0,0,0-.677-1.173L694.74,264.023a.678.678,0,0,0,.339,1.264Z" transform="translate(-694.401 -211.597)" fill="#9cafab"/>
          </g>
        </g>
        <g id="Grupo_70369" data-name="Grupo 70369" transform="translate(11.482 67.464)">
          <g id="Grupo_70368" data-name="Grupo 70368">
            <path id="Trazado_107281" data-name="Trazado 107281" d="M695.937,262.766a.679.679,0,0,1-.339-.091l-15.41-8.9a.678.678,0,0,1,.677-1.174l15.411,8.9a.678.678,0,0,1-.34,1.264Z" transform="translate(-679.849 -252.513)" fill="#bdd4cf"/>
          </g>
        </g>
      </g>
    </g>
    <g id="Grupo_70473" data-name="Grupo 70473" transform="translate(866.537 203.429)">
      <g id="Grupo_70451" data-name="Grupo 70451">
        <g id="Grupo_70443" data-name="Grupo 70443">
          <g id="Grupo_70393" data-name="Grupo 70393">
            <g id="Grupo_70381" data-name="Grupo 70381" transform="translate(31.418 57.145)">
              <g id="Grupo_70374" data-name="Grupo 70374">
                <path id="Trazado_107284" data-name="Trazado 107284" d="M927.332,291.565v-5.714l-50.949-29.433v5.714l12.09,6.98V309.9l-12.09-6.98v5.714l50.949,29.433v-2.857l-6.209-6.441-27.7-16.011V271.969Z" transform="translate(-876.383 -256.418)" fill="#9cafab"/>
              </g>
              <g id="Grupo_70375" data-name="Grupo 70375" transform="translate(50.949 76.837)">
                <path id="Trazado_107285" data-name="Trazado 107285" d="M924.374,330.751l3.393-1.956v2.857l-3.393,1.956Z" transform="translate(-924.374 -328.796)" fill="#5b6664"/>
              </g>
              <g id="Grupo_70376" data-name="Grupo 70376" transform="translate(44.74 70.395)">
                <path id="Trazado_107286" data-name="Trazado 107286" d="M918.526,324.684l3.393-1.956,6.209,6.442-3.393,1.956Z" transform="translate(-918.526 -322.728)" fill="#b1c7c2"/>
              </g>
              <g id="Grupo_70377" data-name="Grupo 70377" transform="translate(17.039 54.384)">
                <path id="Trazado_107287" data-name="Trazado 107287" d="M895.825,307.646l-3.393,1.956,27.7,16.011,3.393-1.956Z" transform="translate(-892.432 -307.646)" fill="#bdd4cf"/>
              </g>
              <g id="Grupo_70378" data-name="Grupo 70378" transform="translate(17.039 37.148)">
                <path id="Trazado_107288" data-name="Trazado 107288" d="M892.433,291.41l3.392,1.959v15.278l-3.393,1.956Z" transform="translate(-892.432 -291.41)" fill="#5b6664"/>
              </g>
              <g id="Grupo_70379" data-name="Grupo 70379" transform="translate(0 44.547)">
                <path id="Trazado_107289" data-name="Trazado 107289" d="M879.775,298.38l-3.393,1.956,12.09,6.98V303.4Z" transform="translate(-876.383 -298.38)" fill="#bdd4cf"/>
              </g>
              <g id="Grupo_70380" data-name="Grupo 70380" transform="translate(50.828 27.268)">
                <path id="Trazado_107290" data-name="Trazado 107290" d="M924.375,289.97l3.393-1.956V282.3l-3.393,1.956Z" transform="translate(-924.254 -282.092)" fill="#fff"/>
                <path id="Trazado_107291" data-name="Trazado 107291" d="M924.261,290.192V284.2L927.9,282.1V288.1Zm.242-5.854v5.432l3.15-1.815v-5.433Z" transform="translate(-924.261 -282.104)" fill="#231f20"/>
              </g>
            </g>
            <g id="Grupo_70389" data-name="Grupo 70389" transform="translate(99.959 17.449)">
              <g id="Grupo_70382" data-name="Grupo 70382" transform="translate(0.243)">
                <path id="Trazado_107292" data-name="Trazado 107292" d="M992.124,254.172v-5.714l-50.949-29.433v5.714l12.091,6.98v40.789l-12.09-6.98v5.714l50.949,29.433v-2.857l-6.209-6.441-27.7-16.011V234.576Z" transform="translate(-941.175 -219.025)" fill="#9cafab"/>
              </g>
              <g id="Grupo_70383" data-name="Grupo 70383" transform="translate(51.192 76.837)">
                <path id="Trazado_107293" data-name="Trazado 107293" d="M989.167,293.358l3.393-1.956v2.857l-3.393,1.956Z" transform="translate(-989.167 -291.403)" fill="#5b6664"/>
              </g>
              <g id="Grupo_70384" data-name="Grupo 70384" transform="translate(44.983 70.395)">
                <path id="Trazado_107294" data-name="Trazado 107294" d="M983.318,287.291l3.393-1.956,6.209,6.442-3.393,1.956Z" transform="translate(-983.318 -285.335)" fill="#b1c7c2"/>
              </g>
              <g id="Grupo_70385" data-name="Grupo 70385" transform="translate(17.282 54.384)">
                <path id="Trazado_107295" data-name="Trazado 107295" d="M960.617,270.253l-3.393,1.956,27.7,16.011,3.393-1.956Z" transform="translate(-957.225 -270.253)" fill="#bdd4cf"/>
              </g>
              <g id="Grupo_70386" data-name="Grupo 70386" transform="translate(17.161 36.937)">
                <path id="Trazado_107296" data-name="Trazado 107296" d="M957.225,254.017l3.393,1.959v15.278l-3.393,1.956Z" transform="translate(-957.104 -253.807)" fill="#fff"/>
                <path id="Trazado_107297" data-name="Trazado 107297" d="M957.111,273.432V253.819l3.635,2.1v15.419Zm.242-19.193v18.773l3.15-1.815V256.058Z" transform="translate(-957.111 -253.819)" fill="#231f20"/>
              </g>
              <g id="Grupo_70387" data-name="Grupo 70387" transform="translate(0 44.408)">
                <path id="Trazado_107298" data-name="Trazado 107298" d="M944.568,260.987l-3.393,1.956,12.09,6.98v-3.914Z" transform="translate(-940.932 -260.848)" fill="#fff"/>
                <path id="Trazado_107299" data-name="Trazado 107299" d="M953.4,270.142l-12.455-7.191,3.636-2.095,8.819,5.09Zm-11.969-7.191,11.727,6.77v-3.634l-8.577-4.95Z" transform="translate(-940.946 -260.856)" fill="#231f20"/>
              </g>
              <g id="Grupo_70388" data-name="Grupo 70388" transform="translate(51.192 27.477)">
                <path id="Trazado_107300" data-name="Trazado 107300" d="M989.167,252.577l3.392-1.956v-5.714l-3.393,1.956Z" transform="translate(-989.167 -244.908)" fill="#5b6664"/>
              </g>
            </g>
            <g id="Grupo_70390" data-name="Grupo 70390" transform="translate(58.748 33.919)">
              <path id="Trazado_107301" data-name="Trazado 107301" d="M1008.113,239.663,902.127,300.856v-5.123l105.986-61.193Z" transform="translate(-902.127 -234.54)" fill="#b3a584"/>
            </g>
            <g id="Grupo_70391" data-name="Grupo 70391">
              <path id="Trazado_107302" data-name="Trazado 107302" d="M1011.523,236.509,905.536,297.7l-58.748-33.919L952.775,202.59Z" transform="translate(-846.788 -202.59)" fill="#f3e8cc"/>
            </g>
            <g id="Grupo_70392" data-name="Grupo 70392" transform="translate(0 61.193)">
              <path id="Trazado_107303" data-name="Trazado 107303" d="M846.788,260.231v5.123l58.748,33.919V294.15Z" transform="translate(-846.788 -260.231)" fill="#d4c398"/>
            </g>
          </g>
          <g id="Grupo_70394" data-name="Grupo 70394" transform="translate(11.366 6.562)">
            <path id="Trazado_107304" data-name="Trazado 107304" d="M999.5,242.69l-83.254,48.068-58.748-33.919,83.254-48.068Z" transform="translate(-857.495 -208.771)" fill="#0075a4"/>
          </g>
          <g id="Grupo_70395" data-name="Grupo 70395" transform="translate(70.114 40.482)">
            <path id="Trazado_107305" data-name="Trazado 107305" d="M912.833,288.79V322.1l83.254-48.068V240.722Z" transform="translate(-912.833 -240.722)" fill="#005171"/>
          </g>
          <g id="Grupo_70402" data-name="Grupo 70402" transform="translate(50.536 31.343)">
            <g id="Grupo_70398" data-name="Grupo 70398">
              <g id="Grupo_70396" data-name="Grupo 70396" transform="translate(0 16.569)">
                <path id="Trazado_107306" data-name="Trazado 107306" d="M924.11,256.213l-15.091,8.713-14.513-8.379,15.091-8.713Z" transform="translate(-894.384 -247.713)" fill="#0075a4"/>
                <path id="Trazado_107307" data-name="Trazado 107307" d="M909.025,265.054a.126.126,0,0,1-.06-.016l-14.512-8.378a.121.121,0,0,1,0-.211l15.091-8.713a.123.123,0,0,1,.121,0l14.513,8.378a.123.123,0,0,1,.06.105.121.121,0,0,1-.06.105l-15.092,8.714A.12.12,0,0,1,909.025,265.054Zm-14.27-8.5,14.27,8.239,14.849-8.574-14.27-8.238Z" transform="translate(-894.391 -247.72)" fill="#fff"/>
              </g>
              <g id="Grupo_70397" data-name="Grupo 70397" transform="translate(15.092)">
                <path id="Trazado_107308" data-name="Trazado 107308" d="M923.234,257.174l21.441-20.758-7.256-4.19-28.7,16.569Z" transform="translate(-908.6 -232.106)" fill="#0075a4"/>
                <path id="Trazado_107309" data-name="Trazado 107309" d="M923.24,257.3a.127.127,0,0,1-.06-.017l-14.512-8.378a.12.12,0,0,1-.061-.105.119.119,0,0,1,.061-.105l28.7-16.569a.125.125,0,0,1,.122,0l7.256,4.189a.121.121,0,0,1,.023.192l-21.44,20.758A.12.12,0,0,1,923.24,257.3Zm-14.269-8.5,14.251,8.228,21.259-20.583-7.055-4.073Z" transform="translate(-908.607 -232.113)" fill="#fff"/>
              </g>
            </g>
            <g id="Grupo_70401" data-name="Grupo 70401" transform="translate(23.399 9.32)">
              <g id="Grupo_70399" data-name="Grupo 70399" transform="translate(21.441)">
                <path id="Trazado_107310" data-name="Trazado 107310" d="M936.743,249.719l15.091-8.713,14.513,8.379L951.256,258.1Z" transform="translate(-936.622 -240.885)" fill="#0075a4"/>
                <path id="Trazado_107311" data-name="Trazado 107311" d="M951.263,258.227a.123.123,0,0,1-.06-.016l-14.513-8.379a.123.123,0,0,1,0-.211l15.092-8.713a.123.123,0,0,1,.121,0l14.512,8.379a.12.12,0,0,1,0,.21l-15.091,8.714A.123.123,0,0,1,951.263,258.227Zm-14.27-8.5,14.27,8.239,14.849-8.574-14.27-8.239Z" transform="translate(-936.629 -240.892)" fill="#fff"/>
              </g>
              <g id="Grupo_70400" data-name="Grupo 70400" transform="translate(0 8.713)">
                <path id="Trazado_107312" data-name="Trazado 107312" d="M937.988,249.213l-21.441,20.758,7.256,4.19,28.7-16.569Z" transform="translate(-916.425 -249.092)" fill="#0075a4"/>
                <path id="Trazado_107313" data-name="Trazado 107313" d="M923.81,274.29a.126.126,0,0,1-.061-.016l-7.256-4.19a.121.121,0,0,1-.024-.192l21.441-20.759a.125.125,0,0,1,.145-.018l14.512,8.38a.121.121,0,0,1,.06.105.123.123,0,0,1-.06.105l-28.7,16.569A.12.12,0,0,1,923.81,274.29Zm-7.057-4.337,7.057,4.076L952.265,257.6l-14.251-8.229Z" transform="translate(-916.432 -249.1)" fill="#fff"/>
              </g>
            </g>
          </g>
          <g id="Grupo_70442" data-name="Grupo 70442" transform="translate(85.111 5.802)">
            <g id="Grupo_70403" data-name="Grupo 70403" transform="translate(0 1.861)">
              <path id="Trazado_107314" data-name="Trazado 107314" d="M983.055,243.8l-56.1-32.388v-1.609l56.1,32.388Z" transform="translate(-926.96 -209.808)" fill="#d6973a"/>
            </g>
            <g id="Grupo_70440" data-name="Grupo 70440">
              <g id="Grupo_70404" data-name="Grupo 70404">
                <path id="Trazado_107315" data-name="Trazado 107315" d="M983.055,242.3l-56.1-32.388,3.223-1.861,56.1,32.388Z" transform="translate(-926.96 -208.055)" fill="#f5b659"/>
              </g>
              <g id="Grupo_70439" data-name="Grupo 70439" transform="translate(5.366 2.242)">
                <g id="Grupo_70405" data-name="Grupo 70405">
                  <path id="Trazado_107316" data-name="Trazado 107316" d="M932.136,211.465a.119.119,0,0,1-.105-.061.121.121,0,0,1,.045-.166l1.829-1.056a.123.123,0,0,1,.166.045.121.121,0,0,1-.045.166l-1.829,1.056A.125.125,0,0,1,932.136,211.465Z" transform="translate(-932.014 -210.167)" fill="#a90d01"/>
                </g>
                <g id="Grupo_70406" data-name="Grupo 70406" transform="translate(2.352 0.838)">
                  <path id="Trazado_107317" data-name="Trazado 107317" d="M934.351,211.735a.121.121,0,0,1-.061-.226l.929-.537a.122.122,0,0,1,.122.211l-.93.536A.12.12,0,0,1,934.351,211.735Z" transform="translate(-934.23 -210.956)" fill="#a90d01"/>
                </g>
                <g id="Grupo_70407" data-name="Grupo 70407" transform="translate(3.803 1.676)">
                  <path id="Trazado_107318" data-name="Trazado 107318" d="M935.718,212.525a.122.122,0,0,1-.061-.227l.93-.535a.119.119,0,0,1,.166.045.122.122,0,0,1-.045.166l-.929.536A.139.139,0,0,1,935.718,212.525Z" transform="translate(-935.597 -211.746)" fill="#a90d01"/>
                </g>
                <g id="Grupo_70408" data-name="Grupo 70408" transform="translate(5.256 2.515)">
                  <path id="Trazado_107319" data-name="Trazado 107319" d="M937.086,213.315a.121.121,0,0,1-.105-.061.122.122,0,0,1,.045-.166l.929-.537a.122.122,0,0,1,.122.211l-.93.536A.123.123,0,0,1,937.086,213.315Z" transform="translate(-936.965 -212.537)" fill="#a90d01"/>
                </g>
                <g id="Grupo_70409" data-name="Grupo 70409" transform="translate(6.707 3.353)">
                  <path id="Trazado_107320" data-name="Trazado 107320" d="M938.454,214.1a.121.121,0,0,1-.061-.226l.929-.536a.121.121,0,0,1,.121.21l-.929.536A.126.126,0,0,1,938.454,214.1Z" transform="translate(-938.332 -213.326)" fill="#a90d01"/>
                </g>
                <g id="Grupo_70410" data-name="Grupo 70410" transform="translate(7.259 4.191)">
                  <path id="Trazado_107321" data-name="Trazado 107321" d="M938.973,215.413a.121.121,0,0,1-.061-.226l1.829-1.056a.123.123,0,0,1,.166.045.12.12,0,0,1-.045.166l-1.829,1.056A.123.123,0,0,1,938.973,215.413Z" transform="translate(-938.852 -214.115)" fill="#a90d01"/>
                </g>
                <g id="Grupo_70411" data-name="Grupo 70411" transform="translate(9.61 5.029)">
                  <path id="Trazado_107322" data-name="Trazado 107322" d="M941.189,215.683a.121.121,0,0,1-.062-.226l.93-.537a.122.122,0,0,1,.121.211l-.929.536A.126.126,0,0,1,941.189,215.683Z" transform="translate(-941.067 -214.905)" fill="#a90d01"/>
                </g>
                <g id="Grupo_70412" data-name="Grupo 70412" transform="translate(11.063 5.867)">
                  <path id="Trazado_107323" data-name="Trazado 107323" d="M942.556,216.473a.122.122,0,0,1-.061-.227l.929-.536a.122.122,0,1,1,.122.21l-.93.537A.132.132,0,0,1,942.556,216.473Z" transform="translate(-942.435 -215.694)" fill="#a90d01"/>
                </g>
                <g id="Grupo_70413" data-name="Grupo 70413" transform="translate(12.514 6.705)">
                  <path id="Trazado_107324" data-name="Trazado 107324" d="M943.923,217.262a.121.121,0,0,1-.061-.226l.929-.537a.122.122,0,0,1,.122.211l-.929.536A.127.127,0,0,1,943.923,217.262Z" transform="translate(-943.802 -216.483)" fill="#a90d01"/>
                </g>
                <g id="Grupo_70414" data-name="Grupo 70414" transform="translate(13.966 7.544)">
                  <path id="Trazado_107325" data-name="Trazado 107325" d="M945.291,218.052a.122.122,0,0,1-.061-.227l.929-.535a.121.121,0,1,1,.121.21l-.929.535A.113.113,0,0,1,945.291,218.052Z" transform="translate(-945.17 -217.274)" fill="#a90d01"/>
                </g>
                <g id="Grupo_70415" data-name="Grupo 70415" transform="translate(14.518 8.383)">
                  <path id="Trazado_107326" data-name="Trazado 107326" d="M945.811,219.361a.121.121,0,0,1-.061-.226l1.829-1.056a.124.124,0,0,1,.166.045.122.122,0,0,1-.045.166l-1.829,1.056A.126.126,0,0,1,945.811,219.361Z" transform="translate(-945.69 -218.064)" fill="#a90d01"/>
                </g>
                <g id="Grupo_70416" data-name="Grupo 70416" transform="translate(16.869 9.22)">
                  <path id="Trazado_107327" data-name="Trazado 107327" d="M948.026,219.631a.121.121,0,0,1-.061-.226l.929-.536a.122.122,0,1,1,.122.21l-.93.536A.123.123,0,0,1,948.026,219.631Z" transform="translate(-947.904 -218.853)" fill="#a90d01"/>
                </g>
                <g id="Grupo_70417" data-name="Grupo 70417" transform="translate(18.321 10.058)">
                  <path id="Trazado_107328" data-name="Trazado 107328" d="M949.394,220.421a.122.122,0,0,1-.062-.227l.929-.536a.122.122,0,1,1,.122.21l-.929.537A.139.139,0,0,1,949.394,220.421Z" transform="translate(-949.272 -219.642)" fill="#a90d01"/>
                </g>
                <g id="Grupo_70418" data-name="Grupo 70418" transform="translate(19.773 10.897)">
                  <path id="Trazado_107329" data-name="Trazado 107329" d="M950.761,221.21a.121.121,0,0,1-.061-.226l.929-.537a.124.124,0,0,1,.166.045.121.121,0,0,1-.045.166l-.929.537A.122.122,0,0,1,950.761,221.21Z" transform="translate(-950.64 -220.432)" fill="#a90d01"/>
                </g>
                <g id="Grupo_70419" data-name="Grupo 70419" transform="translate(21.225 11.734)">
                  <path id="Trazado_107330" data-name="Trazado 107330" d="M952.128,222a.122.122,0,0,1-.06-.227l.93-.536a.121.121,0,1,1,.121.21l-.929.536A.128.128,0,0,1,952.128,222Z" transform="translate(-952.007 -221.221)" fill="#a90d01"/>
                </g>
                <g id="Grupo_70420" data-name="Grupo 70420" transform="translate(21.776 12.573)">
                  <path id="Trazado_107331" data-name="Trazado 107331" d="M952.648,223.308a.121.121,0,0,1-.06-.226l1.829-1.056a.123.123,0,0,1,.166.045.12.12,0,0,1-.045.166l-1.829,1.056A.123.123,0,0,1,952.648,223.308Z" transform="translate(-952.527 -222.01)" fill="#a90d01"/>
                </g>
                <g id="Grupo_70421" data-name="Grupo 70421" transform="translate(24.128 13.41)">
                  <path id="Trazado_107332" data-name="Trazado 107332" d="M954.864,223.578a.121.121,0,0,1-.061-.226l.929-.536a.121.121,0,0,1,.166.045.124.124,0,0,1-.045.167l-.929.535A.126.126,0,0,1,954.864,223.578Z" transform="translate(-954.742 -222.799)" fill="#a90d01"/>
                </g>
                <g id="Grupo_70422" data-name="Grupo 70422" transform="translate(25.58 14.25)">
                  <path id="Trazado_107333" data-name="Trazado 107333" d="M956.231,224.369a.122.122,0,0,1-.061-.227l.929-.536a.122.122,0,1,1,.122.21l-.93.537A.132.132,0,0,1,956.231,224.369Z" transform="translate(-956.11 -223.59)" fill="#a90d01"/>
                </g>
                <g id="Grupo_70423" data-name="Grupo 70423" transform="translate(27.032 15.088)">
                  <path id="Trazado_107334" data-name="Trazado 107334" d="M957.6,225.158a.121.121,0,0,1-.061-.226l.93-.537a.122.122,0,0,1,.121.211l-.929.536A.126.126,0,0,1,957.6,225.158Z" transform="translate(-957.477 -224.379)" fill="#a90d01"/>
                </g>
                <g id="Grupo_70424" data-name="Grupo 70424" transform="translate(28.484 15.926)">
                  <path id="Trazado_107335" data-name="Trazado 107335" d="M958.966,225.947a.121.121,0,0,1-.105-.061.123.123,0,0,1,.045-.166l.929-.536a.121.121,0,1,1,.121.21l-.929.536A.123.123,0,0,1,958.966,225.947Z" transform="translate(-958.845 -225.169)" fill="#a90d01"/>
                </g>
                <g id="Grupo_70425" data-name="Grupo 70425" transform="translate(29.035 16.764)">
                  <path id="Trazado_107336" data-name="Trazado 107336" d="M959.486,227.256a.121.121,0,0,1-.06-.226l1.829-1.056a.124.124,0,0,1,.166.045.121.121,0,0,1-.045.166l-1.829,1.056A.126.126,0,0,1,959.486,227.256Z" transform="translate(-959.364 -225.959)" fill="#a90d01"/>
                </g>
                <g id="Grupo_70426" data-name="Grupo 70426" transform="translate(31.387 17.602)">
                  <path id="Trazado_107337" data-name="Trazado 107337" d="M961.7,227.526a.121.121,0,0,1-.06-.226l.929-.537a.122.122,0,0,1,.121.211l-.929.536A.123.123,0,0,1,961.7,227.526Z" transform="translate(-961.58 -226.747)" fill="#a90d01"/>
                </g>
                <g id="Grupo_70427" data-name="Grupo 70427" transform="translate(32.839 18.44)">
                  <path id="Trazado_107338" data-name="Trazado 107338" d="M963.069,228.316a.122.122,0,0,1-.062-.227l.93-.536a.121.121,0,1,1,.121.21l-.929.537A.139.139,0,0,1,963.069,228.316Z" transform="translate(-962.947 -227.537)" fill="#a90d01"/>
                </g>
                <g id="Grupo_70428" data-name="Grupo 70428" transform="translate(34.291 19.279)">
                  <path id="Trazado_107339" data-name="Trazado 107339" d="M964.436,229.105a.121.121,0,0,1-.06-.226l.929-.536a.122.122,0,0,1,.122.211l-.93.535A.11.11,0,0,1,964.436,229.105Z" transform="translate(-964.315 -228.327)" fill="#a90d01"/>
                </g>
                <g id="Grupo_70429" data-name="Grupo 70429" transform="translate(35.742 20.117)">
                  <path id="Trazado_107340" data-name="Trazado 107340" d="M965.8,229.9a.122.122,0,0,1-.061-.227l.929-.536a.122.122,0,1,1,.122.21l-.929.536A.128.128,0,0,1,965.8,229.9Z" transform="translate(-965.682 -229.117)" fill="#a90d01"/>
                </g>
                <g id="Grupo_70430" data-name="Grupo 70430" transform="translate(36.294 20.955)">
                  <path id="Trazado_107341" data-name="Trazado 107341" d="M966.323,231.2a.12.12,0,0,1-.105-.061.122.122,0,0,1,.045-.166l1.829-1.056a.123.123,0,0,1,.166.045.121.121,0,0,1-.045.166l-1.829,1.056A.122.122,0,0,1,966.323,231.2Z" transform="translate(-966.202 -229.906)" fill="#a90d01"/>
                </g>
                <g id="Grupo_70431" data-name="Grupo 70431" transform="translate(38.646 21.793)">
                  <path id="Trazado_107342" data-name="Trazado 107342" d="M968.539,231.474a.119.119,0,0,1-.105-.061.121.121,0,0,1,.043-.166l.93-.536a.122.122,0,0,1,.166.044.124.124,0,0,1-.045.167l-.929.536A.125.125,0,0,1,968.539,231.474Z" transform="translate(-968.417 -230.696)" fill="#a90d01"/>
                </g>
                <g id="Grupo_70432" data-name="Grupo 70432" transform="translate(40.097 22.632)">
                  <path id="Trazado_107343" data-name="Trazado 107343" d="M969.906,232.264a.122.122,0,0,1-.061-.227l.929-.536a.121.121,0,0,1,.121.21l-.929.537A.139.139,0,0,1,969.906,232.264Z" transform="translate(-969.784 -231.485)" fill="#a90d01"/>
                </g>
                <g id="Grupo_70433" data-name="Grupo 70433" transform="translate(41.549 23.469)">
                  <path id="Trazado_107344" data-name="Trazado 107344" d="M971.274,233.053a.121.121,0,0,1-.062-.226l.929-.537a.122.122,0,0,1,.122.211l-.929.536A.125.125,0,0,1,971.274,233.053Z" transform="translate(-971.152 -232.274)" fill="#a90d01"/>
                </g>
                <g id="Grupo_70434" data-name="Grupo 70434" transform="translate(43.001 24.307)">
                  <path id="Trazado_107345" data-name="Trazado 107345" d="M972.641,233.843a.122.122,0,0,1-.061-.227l.929-.536a.121.121,0,0,1,.121.21l-.929.536A.123.123,0,0,1,972.641,233.843Z" transform="translate(-972.52 -233.064)" fill="#a90d01"/>
                </g>
                <g id="Grupo_70435" data-name="Grupo 70435" transform="translate(43.553 25.146)">
                  <path id="Trazado_107346" data-name="Trazado 107346" d="M973.161,235.152a.121.121,0,0,1-.061-.226l1.828-1.056a.124.124,0,0,1,.167.045.123.123,0,0,1-.045.166l-1.829,1.056A.126.126,0,0,1,973.161,235.152Z" transform="translate(-973.039 -233.854)" fill="#a90d01"/>
                </g>
                <g id="Grupo_70436" data-name="Grupo 70436" transform="translate(45.905 25.985)">
                  <path id="Trazado_107347" data-name="Trazado 107347" d="M975.376,235.422a.12.12,0,0,1-.105-.061.122.122,0,0,1,.045-.166l.929-.537a.124.124,0,0,1,.166.045.122.122,0,0,1-.045.167l-.929.536A.123.123,0,0,1,975.376,235.422Z" transform="translate(-975.255 -234.644)" fill="#a90d01"/>
                </g>
                <g id="Grupo_70437" data-name="Grupo 70437" transform="translate(47.356 26.822)">
                  <path id="Trazado_107348" data-name="Trazado 107348" d="M976.744,236.212a.122.122,0,0,1-.062-.227l.93-.536a.121.121,0,0,1,.121.21l-.929.537A.138.138,0,0,1,976.744,236.212Z" transform="translate(-976.622 -235.433)" fill="#a90d01"/>
                </g>
                <g id="Grupo_70438" data-name="Grupo 70438" transform="translate(48.808 27.66)">
                  <path id="Trazado_107349" data-name="Trazado 107349" d="M978.111,237a.121.121,0,0,1-.061-.226l.929-.537a.122.122,0,0,1,.122.211l-.93.536A.126.126,0,0,1,978.111,237Z" transform="translate(-977.989 -236.222)" fill="#a90d01"/>
                </g>
              </g>
            </g>
            <g id="Grupo_70441" data-name="Grupo 70441" transform="translate(56.096 32.388)">
              <path id="Trazado_107350" data-name="Trazado 107350" d="M979.8,240.424v1.609l3.223-1.861v-1.609Z" transform="translate(-979.8 -238.563)" fill="#bf7b17"/>
            </g>
          </g>
        </g>
        <g id="Grupo_70450" data-name="Grupo 70450" transform="translate(47.227 24.234)">
          <g id="Grupo_70446" data-name="Grupo 70446" transform="translate(0 8.676)">
            <g id="Grupo_70444" data-name="Grupo 70444">
              <path id="Trazado_107351" data-name="Trazado 107351" d="M901.986,233.7l7.217,1.952,3.38,4.167-10.6,6.119-10.6-6.119Z" transform="translate(-891.267 -233.582)" fill="#0075a4"/>
              <path id="Trazado_107352" data-name="Trazado 107352" d="M901.993,246.07a.122.122,0,0,1-.06-.016l-10.6-6.119a.12.12,0,0,1-.062-.105.121.121,0,0,1,.062-.105l10.6-6.119a.12.12,0,0,1,.092-.013l7.217,1.952a.113.113,0,0,1,.063.04l3.381,4.168a.122.122,0,0,1,.024.1.121.121,0,0,1-.058.083l-10.6,6.119A.122.122,0,0,1,901.993,246.07Zm-10.355-6.24,10.355,5.978,10.414-6.012-3.267-4.027-7.131-1.929Z" transform="translate(-891.274 -233.589)" fill="#fff"/>
            </g>
            <g id="Grupo_70445" data-name="Grupo 70445" transform="translate(3.099 4.332)">
              <path id="Trazado_107353" data-name="Trazado 107353" d="M904.912,244.03a.122.122,0,0,1-.06-.016l-10.6-6.119a.122.122,0,0,1-.045-.166.124.124,0,0,1,.167-.045l10.6,6.118a.122.122,0,0,1-.061.227Z" transform="translate(-894.193 -237.669)" fill="#fff"/>
            </g>
          </g>
          <g id="Grupo_70449" data-name="Grupo 70449" transform="translate(15.027)">
            <g id="Grupo_70447" data-name="Grupo 70447">
              <path id="Trazado_107354" data-name="Trazado 107354" d="M916.141,225.532l7.217,1.952,3.381,4.167-10.6,6.119-10.6-6.119Z" transform="translate(-905.422 -225.41)" fill="#0075a4"/>
              <path id="Trazado_107355" data-name="Trazado 107355" d="M916.148,237.9a.126.126,0,0,1-.062-.016l-10.6-6.118a.124.124,0,0,1-.061-.106.122.122,0,0,1,.061-.105l10.6-6.118a.116.116,0,0,1,.092-.013l7.218,1.952a.124.124,0,0,1,.063.04l3.38,4.167a.122.122,0,0,1-.033.183l-10.6,6.118A.126.126,0,0,1,916.148,237.9Zm-10.355-6.24,10.355,5.979,10.413-6.013-3.267-4.025-7.13-1.93Z" transform="translate(-905.429 -225.417)" fill="#fff"/>
            </g>
            <g id="Grupo_70448" data-name="Grupo 70448" transform="translate(3.099 4.331)">
              <path id="Trazado_107356" data-name="Trazado 107356" d="M919.066,235.857a.126.126,0,0,1-.06-.016l-10.6-6.119a.121.121,0,0,1-.045-.166.123.123,0,0,1,.166-.045l10.6,6.119a.121.121,0,0,1-.062.226Z" transform="translate(-908.348 -229.496)" fill="#fff"/>
            </g>
          </g>
        </g>
      </g>
      <g id="Grupo_70472" data-name="Grupo 70472" transform="translate(45.043 72.229)">
        <g id="Grupo_70471" data-name="Grupo 70471">
          <g id="Grupo_70469" data-name="Grupo 70469">
            <g id="Grupo_70452" data-name="Grupo 70452" transform="translate(6.239 11.897)">
              <path id="Trazado_107357" data-name="Trazado 107357" d="M895.093,281.833v.593h.26v-.472Z" transform="translate(-895.093 -281.833)" fill="#161313"/>
            </g>
            <g id="Grupo_70453" data-name="Grupo 70453" transform="translate(0 8.376)">
              <path id="Trazado_107358" data-name="Trazado 107358" d="M889.217,278.516v.607l.256.092-.128-.7Z" transform="translate(-889.217 -278.516)" fill="#161313"/>
            </g>
            <g id="Grupo_70468" data-name="Grupo 70468">
              <g id="Grupo_70454" data-name="Grupo 70454" transform="translate(9.102 0.021)">
                <path id="Trazado_107359" data-name="Trazado 107359" d="M899.794,278.653l5.287-7.8v-.2a2.146,2.146,0,0,0-1.278.519c-.529.475-6.012,5.871-6.012,5.871l1.283.908-.265.677Z" transform="translate(-897.791 -270.647)" fill="#5f6a73"/>
              </g>
              <g id="Grupo_70455" data-name="Grupo 70455" transform="translate(9.102)">
                <path id="Trazado_107360" data-name="Trazado 107360" d="M899.794,278.454l5.287-7.8a1.6,1.6,0,0,0-1.278.321c-.529.473-6.012,5.87-6.012,5.87l1.283.908-.265.678Z" transform="translate(-897.791 -270.627)" fill="#d1d1d1"/>
              </g>
              <g id="Grupo_70456" data-name="Grupo 70456" transform="translate(6.555 10.746)">
                <path id="Trazado_107361" data-name="Trazado 107361" d="M895.391,280.82v.527l.5-.6Z" transform="translate(-895.391 -280.749)" fill="#161313"/>
              </g>
              <g id="Grupo_70457" data-name="Grupo 70457" transform="translate(12.09 9.926)">
                <path id="Trazado_107362" data-name="Trazado 107362" d="M901,279.977v.682l-.4-.156Z" transform="translate(-900.605 -279.977)" fill="#161313"/>
              </g>
              <g id="Grupo_70458" data-name="Grupo 70458" transform="translate(8.2 1.816)">
                <path id="Trazado_107363" data-name="Trazado 107363" d="M896.941,276.832l12.409-4.495s.356.511-.36.895-8.944,4.453-8.944,4.453l-1.775-.569-1.108.271Z" transform="translate(-896.941 -272.337)" fill="#5f6a73"/>
              </g>
              <g id="Grupo_70459" data-name="Grupo 70459" transform="translate(8.2 1.765)">
                <path id="Trazado_107364" data-name="Trazado 107364" d="M896.941,276.671l12.37-4.382s.395.4-.321.782-8.944,4.453-8.944,4.453l-1.775-.569-1.108.27Z" transform="translate(-896.941 -272.289)" fill="#e1e1e1"/>
              </g>
              <g id="Grupo_70460" data-name="Grupo 70460" transform="translate(10.315 5.625)">
                <path id="Trazado_107365" data-name="Trazado 107365" d="M899.128,276.582a1.039,1.039,0,0,0,.943,0,.288.288,0,0,0,0-.545,1.046,1.046,0,0,0-.943,0A.288.288,0,0,0,899.128,276.582Z" transform="translate(-898.933 -275.925)" fill="#5f6a73"/>
              </g>
              <g id="Grupo_70461" data-name="Grupo 70461" transform="translate(10.315 5.454)">
                <ellipse id="Elipse_4476" data-name="Elipse 4476" cx="0.666" cy="0.385" rx="0.666" ry="0.385" fill="#d1d1d1"/>
              </g>
              <g id="Grupo_70463" data-name="Grupo 70463" transform="translate(10.574 5.626)">
                <g id="Grupo_70462" data-name="Grupo 70462">
                  <path id="Trazado_107366" data-name="Trazado 107366" d="M899.263,276.318a.091.091,0,0,0,.029-.005l.631-.221a.086.086,0,0,0-.057-.161l-.631.221a.086.086,0,0,0,.029.167Z" transform="translate(-899.177 -275.926)" fill="#5f6a73"/>
                </g>
              </g>
              <g id="Grupo_70464" data-name="Grupo 70464" transform="translate(6.238 7.701)">
                <path id="Trazado_107367" data-name="Trazado 107367" d="M898.09,283.589a5.582,5.582,0,0,0,2.919-1.813,1.316,1.316,0,0,0-.387-2.06c-.259-.107-.85-.342-.7-.64a2.76,2.76,0,0,1,.444-.6v-.6l-1.682.48-2.459,2.657-.314.011-.5.566.2.117s-1.035.94-.185,1.558A3.774,3.774,0,0,0,898.09,283.589Zm-.45-2.714a4.687,4.687,0,0,1,1.069-.866s1.265-.3,1.506.742-1.821,2.011-1.821,2.011a2.79,2.79,0,0,1-1.848.224C895.841,282.72,896.913,281.563,897.64,280.876Z" transform="translate(-895.093 -277.881)" fill="#161313"/>
              </g>
              <g id="Grupo_70465" data-name="Grupo 70465" transform="translate(0 6.293)">
                <path id="Trazado_107368" data-name="Trazado 107368" d="M890.359,280.454a3.9,3.9,0,0,0,2.6-.437l.243.089.849-.4-.049-.179,3.969-1.954v-.6l-.558-.326a6.33,6.33,0,0,1-.916.378,1.731,1.731,0,0,1-1.234-.259,5.172,5.172,0,0,0-3.567.221,3.991,3.991,0,0,0-2.445,2.035C889.174,279.227,889.13,280.107,890.359,280.454Zm.239-.691c-.669-.379-.016-1.09-.016-1.09a4.674,4.674,0,0,1,3.014-1.458c1.821-.088,1.577.691,1.577.691a5.616,5.616,0,0,1-1.237.789C892.928,279.252,891.2,280.1,890.6,279.763Z" transform="translate(-889.217 -276.554)" fill="#161313"/>
              </g>
              <g id="Grupo_70466" data-name="Grupo 70466" transform="translate(6.238 7.584)">
                <path id="Trazado_107369" data-name="Trazado 107369" d="M898.09,283a5.575,5.575,0,0,0,2.919-1.813,1.316,1.316,0,0,0-.387-2.06c-.259-.107-.85-.342-.7-.64a2.758,2.758,0,0,1,.444-.6l-1.682-.118-2.459,2.657-.314.011-.5.566.2.117s-1.035.94-.185,1.558A3.774,3.774,0,0,0,898.09,283Zm-.45-2.714a4.716,4.716,0,0,1,1.069-.866s1.265-.3,1.506.742-1.821,2.012-1.821,2.012a2.8,2.8,0,0,1-1.848.224C895.841,282.129,896.913,280.972,897.64,280.285Z" transform="translate(-895.093 -277.77)" fill="#354645"/>
              </g>
              <g id="Grupo_70467" data-name="Grupo 70467" transform="translate(0 5.696)">
                <path id="Trazado_107370" data-name="Trazado 107370" d="M890.359,279.891a3.9,3.9,0,0,0,2.6-.437l.243.089.849-.4-.049-.179,3.969-1.954-.558-.924a6.328,6.328,0,0,1-.916.378,1.73,1.73,0,0,1-1.234-.259,5.168,5.168,0,0,0-3.567.222,3.991,3.991,0,0,0-2.445,2.034C889.174,278.664,889.13,279.544,890.359,279.891Zm.239-.691c-.669-.379-.016-1.09-.016-1.09a4.679,4.679,0,0,1,3.014-1.458c1.821-.088,1.577.691,1.577.691a5.617,5.617,0,0,1-1.237.789C892.928,278.69,891.2,279.541,890.6,279.2Z" transform="translate(-889.217 -275.992)" fill="#354645"/>
              </g>
            </g>
          </g>
          <g id="Grupo_70470" data-name="Grupo 70470" transform="translate(3.981 8.845)">
            <path id="Trazado_107371" data-name="Trazado 107371" d="M893.817,278.958v.6l-.85.4v-.6Z" transform="translate(-892.967 -278.958)" fill="#161313"/>
          </g>
        </g>
      </g>
    </g>
  </g>
</svg>
