<svg xmlns="http://www.w3.org/2000/svg" xmlns:xlink="http://www.w3.org/1999/xlink" width="97" height="97" viewBox="0 0 97 97">
  <defs>
    <clipPath id="clip-path">
      <path id="Trazado_107670" data-name="Trazado 107670" d="M5217.5,2357.8a.032.032,0,0,1-.02,0l-.413-.1a.03.03,0,0,1-.022-.028.029.029,0,0,1,.021-.029l.282-.092-.073-.15a.027.027,0,0,1,0-.023.03.03,0,0,1,.016-.016l.244-.113-.056-.1a.029.029,0,0,1,0-.023.027.027,0,0,1,.014-.018l.232-.122-.05-.078a.033.033,0,0,1,0-.029.03.03,0,0,1,.024-.016l.313-.024a.028.028,0,0,1,.03.021.029.029,0,0,1-.015.034l-.217.114.07.11a.026.026,0,0,1,0,.024.033.033,0,0,1-.016.019l-.248.114.1.174,0,.008a.03.03,0,0,1-.015.039h0l-.269.088.08.165a.015.015,0,0,1,0,.006.03.03,0,0,1-.014.039Zm-.317-.13.251.06-.06-.122Zm.222-.134.243-.079-.086-.154-.221.1Zm.139-.386.043.077.221-.1-.055-.086Zm.2-.229.027.041.095-.051Z" transform="translate(-5217.042 -2356.838)" fill="#272a2d"/>
    </clipPath>
    <clipPath id="clip-path-2">
      <path id="Trazado_107679" data-name="Trazado 107679" d="M5200.913,2359.212a.03.03,0,0,1-.018-.006l-.333-.264a.028.028,0,0,1-.009-.034.029.029,0,0,1,.031-.018l.293.034,0-.167a.029.029,0,0,1,.009-.021.029.029,0,0,1,.021-.009h.269l-.009-.115a.029.029,0,0,1,.028-.031l.262-.014-.013-.093a.03.03,0,0,1,.011-.027.029.029,0,0,1,.029,0l.293.109a.03.03,0,0,1-.009.058l-.244.013.018.13a.027.027,0,0,1-.007.023.028.028,0,0,1-.021.01h-.273l.016.2a.028.028,0,0,1,0,.009.029.029,0,0,1-.029.03h0l-.282-.033,0,.184v.008a.031.031,0,0,1-.03.029Zm-.233-.252.2.16,0-.137Zm.257-.029.254.03-.014-.176h-.244Zm.288-.293.007.089h.244l-.014-.1Zm.281-.123.007.048.108-.006Z" transform="translate(-5200.551 -2358.441)" fill="#272a2d"/>
    </clipPath>
  </defs>
  <g id="Grupo_70739" data-name="Grupo 70739" transform="translate(-390 -4132)">
    <g id="Elipse_4492" data-name="Elipse 4492" transform="translate(390 4132)" fill="#fff" stroke="#ff8a5b" stroke-width="4">
      <circle cx="48.5" cy="48.5" r="48.5" stroke="none"/>
      <circle cx="48.5" cy="48.5" r="46.5" fill="none"/>
    </g>
    <g id="Grupo_70688" data-name="Grupo 70688" transform="translate(-4636.972 1926.179)">
      <path id="Trazado_107551" data-name="Trazado 107551" d="M5042.6,2330.448s-4.952.2-3.009,4.64,9.353,14.833,9.353,14.833l20.48-4.721s-1.773-5.411-1.913-6.276,18.622,9.322,18.622,9.322,3.449,2.693,8.64,0,16.712-8.441,17.027-10-8.694-2.56-8.694-2.56,7.628-2.8,8.108-3.681-1.309-2.72-14.436-5.109C5070.9,2324.944,5042.6,2330.448,5042.6,2330.448Z" transform="translate(-0.001 -66.957)" fill="#809aaa"/>
      <path id="Trazado_107552" data-name="Trazado 107552" d="M5221.333,2326.672l-11.576-3.069.84-.927,11.089,2.778Z" transform="translate(-112.225 -64.456)" fill="#0059a5"/>
      <path id="Trazado_107553" data-name="Trazado 107553" d="M5211.284,2332.084l-8.748-2.381.84-.927,8.261,2.09Z" transform="translate(-107.475 -68.469)" fill="#0059a5"/>
      <path id="Trazado_107554" data-name="Trazado 107554" d="M5189.053,2298.2c-3.185-.692-3.376-2-3.376-3.949a3.069,3.069,0,0,1,3.068-3.068l11.236-.352s-3.215.681-3.477,3.633,3.076,4.314,3.076,4.314Z" transform="translate(-96.387 -43.508)" fill="#dddb00"/>
      <path id="Trazado_107555" data-name="Trazado 107555" d="M5223.8,2294.811a3.983,3.983,0,1,1-3.983-3.984A3.983,3.983,0,0,1,5223.8,2294.811Z" transform="translate(-116.221 -43.508)" fill="#b6cc00"/>
      <path id="Trazado_107556" data-name="Trazado 107556" d="M5225.781,2301.52a1.027,1.027,0,0,1,0-2.054h2.656v2.054Z" transform="translate(-122.09 -49.19)" fill="#009ee2"/>
      <g id="Grupo_70592" data-name="Grupo 70592" transform="translate(5040.479 2224.68)">
        <path id="Trazado_107557" data-name="Trazado 107557" d="M5163.61,2323.5l14.464-4.533v-8.493l1.664-1.494,1.172-3.371v-6.8h-17.3Z" transform="translate(-5122.352 -2273.443)" fill="#0059a5"/>
        <path id="Trazado_107558" data-name="Trazado 107558" d="M5127.659,2325.9l-18.708-9.5v-13.943l18.708,2.13Z" transform="translate(-5086.399 -2275.844)" fill="#006fb6"/>
        <path id="Trazado_107559" data-name="Trazado 107559" d="M5136.266,2319.956l-14.228-5.268v-10.54l14.228,1.7Z" transform="translate(-5095.008 -2276.95)" fill="#0059a5"/>
        <path id="Trazado_107560" data-name="Trazado 107560" d="M5128.412,2308.185s-15.408-2.4-17.194-2.7c-1.6-.262-1.445-2.21.2-2.036s16.993,1.926,16.993,1.926Z" transform="translate(-5087.154 -2276.486)" fill="#81cff4"/>
        <path id="Trazado_107561" data-name="Trazado 107561" d="M5108.7,2316.161v2.024c1.826.431,18.793,5.1,18.793,5.1v-2.806S5110.433,2316.49,5108.7,2316.161Z" transform="translate(-5086.234 -2284.852)" fill="#81cff4"/>
        <path id="Trazado_107562" data-name="Trazado 107562" d="M5108.7,2334.161v2.024c1.964.739,18.793,8.3,18.793,8.3v-2.806S5110.6,2334.8,5108.7,2334.161Z" transform="translate(-5086.234 -2296.691)" fill="#81cff4"/>
        <path id="Trazado_107563" data-name="Trazado 107563" d="M5075.56,2253.262l-17.818-4.119v3.123l15.827,5.416v8.384l.5-1.157h3.214v-9.384Z" transform="translate(-5052.717 -2240.771)" fill="#006fb6"/>
        <path id="Trazado_107564" data-name="Trazado 107564" d="M5071.119,2229.385s-11.173,5.849-12.294,6.935-.407,1.234.339.792,11.955-6.491,11.955-6.491Z" transform="translate(-5053.047 -2227.775)" fill="#009ee2"/>
        <path id="Trazado_107565" data-name="Trazado 107565" d="M5071.119,2233.88s-11.173,5.849-12.294,6.935-.407,1.234.339.792,11.955-6.491,11.955-6.491Z" transform="translate(-5053.047 -2230.731)" fill="#009ee2"/>
        <path id="Trazado_107566" data-name="Trazado 107566" d="M5123.16,2299.44v-2.613l-19.177-1.981v2.4Z" transform="translate(-5083.132 -2270.832)" fill="#009ee2"/>
        <path id="Trazado_107567" data-name="Trazado 107567" d="M5123.16,2294.879v-1.8l-19.177-1.494v1.1Z" transform="translate(-5083.132 -2268.687)" fill="#006fb6"/>
        <path id="Trazado_107568" data-name="Trazado 107568" d="M5073.759,2336.867v3.326c0,.745,1.34.774,1.34,0s0-2.514,0-2.514l-.008-.973Z" transform="translate(-5063.252 -2298.365)" fill="#00529d"/>
        <path id="Trazado_107569" data-name="Trazado 107569" d="M5052.072,2343.694l9.629-1.943-.678-.528-9.345,1.927Z" transform="translate(-5048.728 -2301.336)" fill="#807773"/>
        <g id="Grupo_70578" data-name="Grupo 70578" transform="translate(12.419 37.909)">
          <path id="Trazado_107570" data-name="Trazado 107570" d="M5082.069,2337.421c.154,1.181.072,2.166-1.055,2.313s-1.459-.783-1.614-1.964-.03-2.171,1.055-2.313S5081.915,2336.24,5082.069,2337.421Z" transform="translate(-5079.346 -2335.443)" fill="#1d1d1b"/>
          <path id="Trazado_107571" data-name="Trazado 107571" d="M5080.989,2339.385c.1.742.053,1.359-.1,1.378s-.353-.565-.45-1.307-.052-1.359.1-1.378S5080.893,2338.644,5080.989,2339.385Z" transform="translate(-5080.032 -2337.176)" fill="#bfb8b9"/>
        </g>
        <path id="Trazado_107572" data-name="Trazado 107572" d="M5070.281,2341.833l-.556,1.151-12.766-9.863s-9.312,1.619-9.375,1.639l-.483-1.137,9.084-1.485-.472-2.106,1.485.683.371,1.5Z" transform="translate(-5045.718 -2293.976)" fill="#00529d"/>
        <path id="Trazado_107573" data-name="Trazado 107573" d="M5050.6,2301.167a5.837,5.837,0,0,1,2.609-11.057h7.578s-6.115,1.295-6.614,6.91,3.545,7.6,3.545,7.6Z" transform="translate(-5045.894 -2267.716)" fill="#dddb00"/>
        <circle id="Elipse_4484" data-name="Elipse 4484" cx="7.577" cy="7.577" r="7.577" transform="translate(6.975 37.196) rotate(-87.403)" fill="#b6cc00"/>
        <path id="Trazado_107574" data-name="Trazado 107574" d="M5084.571,2306.765l-2.167-.206a2.032,2.032,0,0,0-2.032,2.032,2.094,2.094,0,0,0,2.032,2.032l2.03.277s1.021-.092,1.021-1.937C5085.455,2306.872,5084.571,2306.765,5084.571,2306.765Z" transform="translate(-5067.602 -2278.536)" fill="#837877"/>
        <path id="Trazado_107575" data-name="Trazado 107575" d="M5090.335,2309.229a2.068,2.068,0,1,1-2.068-2.069A2.069,2.069,0,0,1,5090.335,2309.229Z" transform="translate(-5071.434 -2278.931)" fill="#aea5a3"/>
        <path id="Trazado_107576" data-name="Trazado 107576" d="M5069.72,2329.505a1.047,1.047,0,0,0-.045-.479l-5.882-16.736-.343.039a1.641,1.641,0,0,0,.043-.373,1.658,1.658,0,1,0-3.148.728l-.835.1s-4.566,12.964-6.035,17.994l-6.751-9.31,2.093-7.384-.749-.595s-1.781,5.492-2.447,7.943c.141.49,7.423,11.029,7.423,11.029v3.431c0,.875,1.576.911,1.576,0v-3.046s10.824-1.875,13.535-2.365v2.765c0,.875,1.576.91,1.576,0V2329.5Zm-14.784,1.58,5.64-17.039,2.342-.216,5.237,14.985Z" transform="translate(-5044.744 -2280.996)" fill="#006fb6"/>
        <g id="Grupo_70579" data-name="Grupo 70579" transform="translate(0 40.28)">
          <path id="Trazado_107577" data-name="Trazado 107577" d="M5045.922,2344.4c.2,1.232.139,2.265-1.037,2.451s-1.551-.777-1.747-2.009-.095-2.271,1.038-2.451S5045.727,2343.171,5045.922,2344.4Z" transform="translate(-5043.06 -2342.372)" fill="#1d1d1b"/>
          <path id="Trazado_107578" data-name="Trazado 107578" d="M5044.8,2346.555c.123.773.095,1.421-.064,1.446s-.386-.581-.509-1.355-.094-1.421.065-1.446S5044.675,2345.782,5044.8,2346.555Z" transform="translate(-5043.776 -2344.232)" fill="#bfb8b9"/>
        </g>
        <path id="Trazado_107579" data-name="Trazado 107579" d="M5092.721,2313.721a.818.818,0,1,1-.817-.818A.818.818,0,0,1,5092.721,2313.721Z" transform="translate(-5074.648 -2282.709)" fill="#009ee2"/>
        <path id="Trazado_107580" data-name="Trazado 107580" d="M5064.209,2232.8a50.091,50.091,0,0,0-4.779,2.414,23.382,23.382,0,0,0-4.149,2.557s-1.312,1.75-1.522,7.632-1.043,5.657-2.223,7.265c-1.039,1.415-.378,1.114,3.693.98s3.888-.134,3.888-.134-.54-.236.524-1.508c1.877-2.245,2.119-3.835,2.783-9.808C5063.37,2233.691,5064.209,2232.8,5064.209,2232.8Z" transform="translate(-5048.348 -2230.021)" fill="#b1ca07"/>
        <path id="Trazado_107581" data-name="Trazado 107581" d="M5074.23,2289.846s.393.081,1-.733a2.742,2.742,0,0,1,2.285-1.077H5075S5073.628,2289.476,5074.23,2289.846Z" transform="translate(-5063.461 -2266.352)" fill="#80ba27"/>
        <path id="Trazado_107582" data-name="Trazado 107582" d="M5080.354,2288.035a5.451,5.451,0,0,1,3.168,1.075,9.938,9.938,0,0,0-2.983-.365H5078.4A2.628,2.628,0,0,1,5080.354,2288.035Z" transform="translate(-5066.303 -2266.351)" fill="#4ead33"/>
        <g id="Grupo_70580" data-name="Grupo 70580" transform="translate(41.259 43.45)">
          <path id="Trazado_107583" data-name="Trazado 107583" d="M5163.61,2355.967l14.424-4.333,9.051,2.166-14.808,6.571Z" transform="translate(-5163.61 -2351.634)" fill="#006fb6"/>
          <path id="Trazado_107584" data-name="Trazado 107584" d="M5172.393,2371.046l-8.782-4.476v-2.277l8.782,4.347Z" transform="translate(-5163.61 -2359.96)" fill="#00529d"/>
          <path id="Trazado_107585" data-name="Trazado 107585" d="M5203.963,2360.388l-14.692,6.495v-2.406l14.692-6.495Z" transform="translate(-5180.489 -2355.81)" fill="#00529d"/>
        </g>
        <path id="Trazado_107586" data-name="Trazado 107586" d="M5170.607,2253.444a4.581,4.581,0,0,1-.783-.067.131.131,0,0,1,.048-.258h0a2.991,2.991,0,0,0,1.878-.216.708.708,0,0,0,.285-.536.814.814,0,0,0-.23-.649,2.493,2.493,0,0,0-1.239-.609,5.621,5.621,0,0,0-1.213-.157.131.131,0,1,1,0-.263,5.93,5.93,0,0,1,1.275.164,2.7,2.7,0,0,1,1.37.686,1.078,1.078,0,0,1,.3.849.974.974,0,0,1-.387.723A2.216,2.216,0,0,1,5170.607,2253.444Z" transform="translate(-5126.042 -2241.787)" fill="#00529d"/>
        <path id="Trazado_107587" data-name="Trazado 107587" d="M5084.188,2248.884s2.224,1.086,7.6-.7c3.717-1.194,5.764-1.454,8.741-2.482l-5.242-1.934a52.057,52.057,0,0,1-10.275-.8A55.023,55.023,0,0,0,5084.188,2248.884Z" transform="translate(-5070.112 -2236.706)" fill="#80ba27"/>
        <path id="Trazado_107588" data-name="Trazado 107588" d="M5089.9,2236.215" transform="translate(-5073.869 -2232.267)" fill="#4ead33"/>
        <path id="Trazado_107589" data-name="Trazado 107589" d="M5086.905,2237.7a4.484,4.484,0,0,1,.855-1.38c.563-.581.422-.506.422-.506l-.983.531S5086.954,2237.438,5086.905,2237.7Z" transform="translate(-5071.899 -2231.999)" fill="#4ead33"/>
        <path id="Trazado_107590" data-name="Trazado 107590" d="M5118.39,2256.486v-1.773s-16.764,3.584-19,4.177c-1.61.488-1.129,1.536,0,1.315Z" transform="translate(-5079.426 -2244.434)" fill="#009ee2"/>
        <path id="Trazado_107591" data-name="Trazado 107591" d="M5105.123,2251.921l-2.636-.972s-12.148,3.409-14.345,4.15c-1.574.594-1.024,1.608.088,1.312Z" transform="translate(-5072.07 -2241.958)" fill="#009ee2"/>
        <g id="Grupo_70583" data-name="Grupo 70583" transform="translate(5.025 0)">
          <path id="Trazado_107592" data-name="Trazado 107592" d="M5121.172,2230.531l-25.308-5.85v4.436l21.956,8.1v16.218l1.231.139v-6.5h4.564v-13.329Z" transform="translate(-5082.817 -2224.68)" fill="#006fb6"/>
          <path id="Trazado_107593" data-name="Trazado 107593" d="M5095.864,2226.41v3.282s3.454.782,3.454.252v-1.792C5099.318,2227.142,5095.864,2226.41,5095.864,2226.41Z" transform="translate(-5082.817 -2225.818)" fill="#81cff4"/>
          <path id="Trazado_107594" data-name="Trazado 107594" d="M5100.776,2231.007a.66.66,0,1,1-.637-.8A.728.728,0,0,1,5100.776,2231.007Z" transform="translate(-5085.196 -2228.318)" fill="#006fb6"/>
          <path id="Trazado_107595" data-name="Trazado 107595" d="M5094.417,2226.41s-.754.164-.754,1.792c0,1.352.754,1.49.754,1.49Z" transform="translate(-5081.369 -2225.818)" fill="#d3ecfb"/>
          <path id="Trazado_107596" data-name="Trazado 107596" d="M5057.742,2249.706s.694-.226.694,1.1a1.9,1.9,0,0,1-.694,1.569Z" transform="translate(-5057.742 -2241.131)" fill="#d3ecfb"/>
          <g id="Grupo_70581" data-name="Grupo 70581" transform="translate(30.833 4.88)">
            <path id="Trazado_107597" data-name="Trazado 107597" d="M5150.03,2238.94v3.281s2.633.682,2.633.152v-1.792C5152.663,2239.571,5150.03,2238.94,5150.03,2238.94Z" transform="translate(-5149.277 -2238.94)" fill="#81cff4"/>
            <path id="Trazado_107598" data-name="Trazado 107598" d="M5153.267,2243.245a.66.66,0,1,1-.637-.8A.728.728,0,0,1,5153.267,2243.245Z" transform="translate(-5150.555 -2241.248)" fill="#006fb6"/>
            <path id="Trazado_107599" data-name="Trazado 107599" d="M5148.583,2238.94s-.752.163-.752,1.792c0,1.352.752,1.49.752,1.49Z" transform="translate(-5147.831 -2238.94)" fill="#d3ecfb"/>
          </g>
          <g id="Grupo_70582" data-name="Grupo 70582" transform="translate(36.123 7.606)">
            <path id="Trazado_107600" data-name="Trazado 107600" d="M5164.015,2247.891s.147-.986-.728-.986v3.357c.875,0,.728-.987.728-.987s.767.01.772-.692S5164.015,2247.891,5164.015,2247.891Z" transform="translate(-5163.287 -2246.904)" fill="#81cff4"/>
            <path id="Trazado_107601" data-name="Trazado 107601" d="M5167.67,2251.793v0Z" transform="translate(-5166.17 -2250.115)" fill="#009ee2"/>
          </g>
          <path id="Trazado_107602" data-name="Trazado 107602" d="M5159.928,2246.9h-.855v1.019s-.893-.142-.893.68c0,.736.874.649.874.649v1.009h.874Z" transform="translate(-5123.806 -2239.298)" fill="#d3ecfb"/>
          <path id="Trazado_107603" data-name="Trazado 107603" d="M5163.311,2258.778a.613.613,0,0,1-.612.612h-.561a.613.613,0,0,1-.612-.612h0a.613.613,0,0,1,.612-.613h.561a.613.613,0,0,1,.612.613Z" transform="translate(-5126.005 -2246.705)" fill="#81cff4"/>
          <path id="Trazado_107604" data-name="Trazado 107604" d="M5168.783,2256.681a.613.613,0,0,1-.613.613h-.561a.613.613,0,0,1-.612-.613h0a.612.612,0,0,1,.612-.612h.561a.613.613,0,0,1,.613.612Z" transform="translate(-5129.605 -2245.326)" fill="#81cff4"/>
          <path id="Trazado_107605" data-name="Trazado 107605" d="M5167.114,2255.343a4.369,4.369,0,0,1-.626-.049,6.6,6.6,0,0,1-1.309-.336.131.131,0,0,1,.1-.245,6.476,6.476,0,0,0,1.256.321,2.055,2.055,0,0,0,1.816-.389,1.25,1.25,0,0,0,.311-1.344c-.119-.26-.554-.866-2.017-.866a.131.131,0,0,1,0-.263,2.313,2.313,0,0,1,2.256,1.02,1.5,1.5,0,0,1-.351,1.625,1.556,1.556,0,0,1-.951.488A2.947,2.947,0,0,1,5167.114,2255.343Z" transform="translate(-5128.354 -2242.763)" fill="#00529d"/>
        </g>
        <path id="Trazado_107606" data-name="Trazado 107606" d="M5125.187,2266.947c-.344-2.458-1.414-11.844-1.414-11.844l-3.558-1.313-10.1,2.673s.916,7.07,1.316,9.954c.266,1.912,1.208,2.245,1.208,2.245l14.092,1.357S5125.537,2269.45,5125.187,2266.947Z" transform="translate(-5087.162 -2243.827)" fill="#b6cc00"/>
        <path id="Trazado_107607" data-name="Trazado 107607" d="M5123.076,2268.908v-1.991l-19.221,3.3v1.34Z" transform="translate(-5083.048 -2252.461)" fill="#009ee2"/>
        <g id="Grupo_70584" data-name="Grupo 70584" transform="translate(41.259 22.393)">
          <path id="Trazado_107608" data-name="Trazado 107608" d="M5166.279,2298.568l-2.669-.592v-7.867h2.669Z" transform="translate(-5163.61 -2290.109)" fill="#009ee2"/>
          <path id="Trazado_107609" data-name="Trazado 107609" d="M5177.636,2297.96l-6.229.608v-8.459h6.229Z" transform="translate(-5168.739 -2290.109)" fill="#81cff4"/>
          <path id="Trazado_107610" data-name="Trazado 107610" d="M5178.2,2296.616l-5,.219v-4.6h5Z" transform="translate(-5169.916 -2291.505)" fill="#006fb6"/>
          <path id="Trazado_107611" data-name="Trazado 107611" d="M5178.781,2297.181l-3.744.123v-3.282h3.744Z" transform="translate(-5171.127 -2292.682)" fill="#d3ecfb"/>
          <circle id="Elipse_4485" data-name="Elipse 4485" cx="0.74" cy="0.74" r="0.74" transform="translate(3.281 6.195)" fill="#006fb6"/>
          <path id="Trazado_107612" data-name="Trazado 107612" d="M5180.365,2309.359a.32.32,0,1,1-.32-.321A.32.32,0,0,1,5180.365,2309.359Z" transform="translate(-5174.21 -2302.559)" fill="#006fb6"/>
          <path id="Trazado_107613" data-name="Trazado 107613" d="M5183.423,2309.178a.32.32,0,1,1-.32-.32A.32.32,0,0,1,5183.423,2309.178Z" transform="translate(-5176.221 -2302.441)" fill="#006fb6"/>
          <path id="Trazado_107614" data-name="Trazado 107614" d="M5186.329,2309a.321.321,0,1,1-.32-.321A.321.321,0,0,1,5186.329,2309Z" transform="translate(-5178.132 -2302.322)" fill="#006fb6"/>
          <path id="Trazado_107615" data-name="Trazado 107615" d="M5176.459,2309.66a.37.37,0,0,1-.37.37h-.68a.37.37,0,0,1-.371-.37h0a.37.37,0,0,1,.371-.37h.68a.37.37,0,0,1,.37.37Z" transform="translate(-5171.127 -2302.725)" fill="#d3ecfb"/>
        </g>
        <path id="Trazado_107616" data-name="Trazado 107616" d="M5159.538,2316.227a2.607,2.607,0,0,1-1.152-.239,1.528,1.528,0,0,1-.837-1.055,3.383,3.383,0,0,1,.286-1.96,22.76,22.76,0,0,0,1.28-4.079,3.366,3.366,0,0,0-.1-2.27.729.729,0,0,0-.653-.318v-.315a1.037,1.037,0,0,1,.914.457c.784,1.158-.19,4.251-1.146,6.642-.528,1.321-.39,2.225.4,2.616a3,3,0,0,0,2.024.064,2.693,2.693,0,0,0,1.573-.968,3.03,3.03,0,0,0,.354-1.789,7.388,7.388,0,0,0-.449-1.958,12.907,12.907,0,0,0-1.059-2.214l.266-.168a12.962,12.962,0,0,1,1.088,2.269,7.71,7.71,0,0,1,.468,2.045,3.337,3.337,0,0,1-.4,1.976,2.96,2.96,0,0,1-1.761,1.109A4.211,4.211,0,0,1,5159.538,2316.227Z" transform="translate(-5118.332 -2278.162)" fill="#d3ecfb"/>
        <path id="Trazado_107617" data-name="Trazado 107617" d="M5161.749,2314.333a1.539,1.539,0,0,1-.576-.115,1.205,1.205,0,0,1-.7-.683,2.131,2.131,0,0,1-.095-1.033,12.7,12.7,0,0,1,.729-2.556,11.6,11.6,0,0,0,.737-2.652,1.819,1.819,0,0,0-.4-1.4,2.3,2.3,0,0,0-1.451-.664l.016-.315a2.6,2.6,0,0,1,1.672.771,2.127,2.127,0,0,1,.475,1.631,11.817,11.817,0,0,1-.755,2.733,12.449,12.449,0,0,0-.712,2.486c-.084.749.107,1.19.6,1.388a1.305,1.305,0,0,0,1.507-.422,5.087,5.087,0,0,0,.6-5.212l.288-.129a5.726,5.726,0,0,1,.412,3.126,4.5,4.5,0,0,1-1.068,2.433A1.775,1.775,0,0,1,5161.749,2314.333Z" transform="translate(-5119.972 -2277.455)" fill="#d3ecfb"/>
        <path id="Trazado_107618" data-name="Trazado 107618" d="M5157.494,2316.221c-.054,0-.11,0-.166,0a3.724,3.724,0,0,1-2.13-.8,2.853,2.853,0,0,1-1.06-1.819,4.067,4.067,0,0,1,.655-2.658q.212-.358.418-.706c1.531-2.58,2.853-4.808,2.333-5.724-.2-.343-.659-.51-1.417-.51v-.315c.88,0,1.433.219,1.69.669.287.5.178,1.279-.343,2.438a39.944,39.944,0,0,1-1.992,3.6l-.418.706a3.76,3.76,0,0,0-.615,2.452,2.546,2.546,0,0,0,.946,1.62,3.4,3.4,0,0,0,1.947.727,2.48,2.48,0,0,0,1.817-.583c.517-.474,1.051-1.651.666-4.572a24.571,24.571,0,0,0-.71-3.371l.3-.09a24.775,24.775,0,0,1,.721,3.42,11.858,11.858,0,0,1,.09,2.741,3.246,3.246,0,0,1-.855,2.1A2.746,2.746,0,0,1,5157.494,2316.221Z" transform="translate(-5116.101 -2276.648)" fill="#d3ecfb"/>
        <g id="Grupo_70586" data-name="Grupo 70586" transform="translate(50.012 29.525)">
          <circle id="Elipse_4486" data-name="Elipse 4486" cx="2.145" cy="2.145" r="2.145" transform="matrix(1, -0.014, 0.014, 1, 0, 0.058)" fill="#81cff4"/>
          <g id="Grupo_70585" data-name="Grupo 70585" transform="translate(0.029 0.029)">
            <path id="Trazado_107619" data-name="Trazado 107619" d="M5190.169,2313.177a2.146,2.146,0,0,1,1.7-2.1,2.167,2.167,0,0,0-.449-.047,2.145,2.145,0,1,0,.449,4.243A2.145,2.145,0,0,1,5190.169,2313.177Z" transform="translate(-5189.271 -2311.031)" fill="#009ee2"/>
          </g>
        </g>
        <g id="Grupo_70588" data-name="Grupo 70588" transform="translate(49.123 34.227)">
          <path id="Trazado_107620" data-name="Trazado 107620" d="M5188.653,2325.718a1.033,1.033,0,1,1-1.033-1.033A1.033,1.033,0,0,1,5188.653,2325.718Z" transform="translate(-5186.587 -2324.685)" fill="#81cff4"/>
          <g id="Grupo_70587" data-name="Grupo 70587">
            <path id="Trazado_107621" data-name="Trazado 107621" d="M5187.021,2325.718a1.032,1.032,0,0,1,.816-1.01,1,1,0,0,0-.216-.023,1.033,1.033,0,1,0,0,2.066,1.019,1.019,0,0,0,.216-.023A1.032,1.032,0,0,1,5187.021,2325.718Z" transform="translate(-5186.587 -2324.685)" fill="#009ee2"/>
          </g>
        </g>
        <g id="Grupo_70590" data-name="Grupo 70590" transform="translate(45.17 34.507)">
          <path id="Trazado_107622" data-name="Trazado 107622" d="M5177.1,2326.536a1.033,1.033,0,1,1-1.033-1.033A1.033,1.033,0,0,1,5177.1,2326.536Z" transform="translate(-5175.038 -2325.503)" fill="#81cff4"/>
          <g id="Grupo_70589" data-name="Grupo 70589">
            <path id="Trazado_107623" data-name="Trazado 107623" d="M5175.471,2326.536a1.034,1.034,0,0,1,.817-1.01,1.073,1.073,0,0,0-.216-.023,1.033,1.033,0,1,0,0,2.066,1.056,1.056,0,0,0,.216-.023A1.035,1.035,0,0,1,5175.471,2326.536Z" transform="translate(-5175.038 -2325.503)" fill="#009ee2"/>
          </g>
        </g>
        <g id="Grupo_70591" data-name="Grupo 70591" transform="translate(46.416 39.779)">
          <path id="Trazado_107624" data-name="Trazado 107624" d="M5185.921,2342.04a1.319,1.319,0,0,1-.914,1.348l-4.665,1.819a1.522,1.522,0,0,1-1.627-1.119l-.03-.317a1.32,1.32,0,0,1,.914-1.347l5.177-1.471c.561-.159,1.71.118,1.781,1.081Z" transform="translate(-5178.68 -2340.909)" fill="#006fb6"/>
          <path id="Trazado_107625" data-name="Trazado 107625" d="M5187.865,2342.951a1.32,1.32,0,0,1-.914,1.347l-5.177,1.471a.85.85,0,0,1-1.115-.771l-.03-.318a1.32,1.32,0,0,1,.914-1.347l5.177-1.471a.85.85,0,0,1,1.116.771Z" transform="translate(-5179.959 -2341.511)" fill="#81cff4"/>
        </g>
      </g>
      <path id="Trazado_107626" data-name="Trazado 107626" d="M5234.569,2300.492a1.027,1.027,0,1,1-1.027-1.027A1.027,1.027,0,0,1,5234.569,2300.492Z" transform="translate(-127.194 -49.19)" fill="#d3ecfb"/>
      <path id="Trazado_107627" data-name="Trazado 107627" d="M5231.012,2301.564c-.23-.55-.874-.658-1.056,0-.038.138-2.485,12.047-2.485,12.047v2.341c0,.625,1.243.259,1.243-.4v-1.846l3.683-1.187v1.631c0,.713,1.156.356,1.156-.266v-2.255S5231.244,2302.114,5231.012,2301.564Zm-2.163,10.932,1.76-8.466,1.759,7.311Z" transform="translate(-123.876 -50.272)" fill="#006fb6"/>
      <g id="Grupo_70653" data-name="Grupo 70653" transform="translate(5087.49 2234.401)">
        <g id="Grupo_70650" data-name="Grupo 70650" transform="translate(0 0.452)">
          <g id="Grupo_70596" data-name="Grupo 70596" transform="translate(0 17.47)">
            <g id="Grupo_70595" data-name="Grupo 70595">
              <g id="Grupo_70594" data-name="Grupo 70594">
                <g id="Grupo_70593" data-name="Grupo 70593">
                  <path id="Trazado_107628" data-name="Trazado 107628" d="M5183.063,2305.691l0,.005a1.771,1.771,0,0,0-.942-.232c-.285.081-.343.246-.2.64-1.425.688-1.636.686-1.456,1.006.129.193,1.158-.356,1.158-.356s-.086.092.066.274.255.1.255.1-.042.116.148.248c.158.109.231.031.231.031s.015.247.2.3.9-.258,1.268-1.132Z" transform="translate(-5180.415 -2305.447)" fill="#f7c4bd"/>
                  <path id="Trazado_107629" data-name="Trazado 107629" d="M5187.7,2308.63s.108-.313-.506-.589c.332.1.5-.063.511-.127s-.079.091-.362.015-.3-.129-.3-.129a.178.178,0,0,1-.022.221.243.243,0,0,1,.078.163.26.26,0,0,1,.273.229C5187.606,2308.353,5187.7,2308.63,5187.7,2308.63Z" transform="translate(-5184.762 -2306.995)" fill="#f3aea9"/>
                  <path id="Trazado_107630" data-name="Trazado 107630" d="M5184.743,2307.741a1.849,1.849,0,0,1-.491-.473,1.455,1.455,0,0,0,.256.355c-.14.07-.554.282-.554.282a3.7,3.7,0,0,0,.586-.25,1.064,1.064,0,0,0,.2.166.418.418,0,0,0,.271-.138c.057.088,0,.125-.089.189s-.65.415-.65.415a4.3,4.3,0,0,0,.794-.445.228.228,0,0,1,.257.2c0,.188-.666.515-.666.515-.09.075.48-.18.645-.352a.278.278,0,0,0,.084-.16.3.3,0,0,1,.246.17c.031.065.046.074.05-.008a.278.278,0,0,0-.3-.215c-.029-.15-.127-.18-.283-.221a.182.182,0,0,0-.044-.151.164.164,0,0,0,.018-.126c.262.127.551.074.387.032a1.235,1.235,0,0,1-.637-.315C5185.181,2307.563,5184.9,2307.684,5184.743,2307.741Z" transform="translate(-5182.742 -2306.606)" fill="#e98a88"/>
                </g>
              </g>
            </g>
          </g>
          <g id="Grupo_70649" data-name="Grupo 70649" transform="translate(2.649)">
            <g id="Grupo_70604" data-name="Grupo 70604" transform="translate(4.92)">
              <g id="Grupo_70603" data-name="Grupo 70603">
                <g id="Grupo_70602" data-name="Grupo 70602">
                  <g id="Grupo_70600" data-name="Grupo 70600">
                    <path id="Trazado_107631" data-name="Trazado 107631" d="M5210.938,2276.6l-1.106-.068s-.043.292-.088.491a6.056,6.056,0,0,0,.649,1.115l.573-1.04C5210.946,2276.9,5210.938,2276.6,5210.938,2276.6Z" transform="translate(-5207.275 -2268.96)" fill="#f3aea9"/>
                    <path id="Trazado_107632" data-name="Trazado 107632" d="M5209.911,2276.7a1.3,1.3,0,0,0,1.153.22c-.011-.214-.021-.385-.021-.385l-1.1-.043Z" transform="translate(-5207.385 -2268.933)" fill="#e98a88"/>
                    <path id="Trazado_107633" data-name="Trazado 107633" d="M5208.393,2261.792a7.616,7.616,0,0,1-.554-2.1,4.3,4.3,0,0,1-1.853.253h-.024a4.3,4.3,0,0,1-1.807-.477,7.672,7.672,0,0,1-.807,2.012c-1.229-.142-.915,1.662-.095,1.553a2.278,2.278,0,0,0,2.375,2.344h.024a2.278,2.278,0,0,0,2.645-2.035C5209.1,2263.553,5209.63,2261.8,5208.393,2261.792Z" transform="translate(-5202.53 -2257.735)" fill="#f7c4bd"/>
                    <g id="Grupo_70597" data-name="Grupo 70597" transform="translate(0.294 4.123)">
                      <path id="Trazado_107634" data-name="Trazado 107634" d="M5203.861,2266.58c.011-.176-.443-.238-.472.226a.416.416,0,0,0,.428.483s-.2-.179-.14-.357S5203.85,2266.756,5203.861,2266.58Z" transform="translate(-5203.388 -2266.449)" fill="#e98a88"/>
                      <path id="Trazado_107635" data-name="Trazado 107635" d="M5219.666,2267.54c-.011.177.106.188.139.372s-.182.337-.182.337a.416.416,0,0,0,.483-.427C5220.134,2267.358,5219.676,2267.364,5219.666,2267.54Z" transform="translate(-5214.066 -2267.093)" fill="#e98a88"/>
                    </g>
                    <g id="Grupo_70598" data-name="Grupo 70598" transform="translate(0.723 1.531)">
                      <path id="Trazado_107636" data-name="Trazado 107636" d="M5204.965,2270.487a2.219,2.219,0,0,0-.323-.6,2.251,2.251,0,0,0,1.836,2.276C5205.364,2271.79,5205.276,2271.215,5204.965,2270.487Z" transform="translate(-5204.643 -2266.118)" fill="#f3aea9"/>
                      <path id="Trazado_107637" data-name="Trazado 107637" d="M5209.953,2261.4c-.23-1.229-.5-2.295-.5-2.295a6.439,6.439,0,0,0-1.865.033l-.031.013-.028-.017a6.438,6.438,0,0,0-1.847-.261s-.4,1.025-.776,2.216a5.629,5.629,0,0,0,.856-1.409,8.71,8.71,0,0,0,3.493.131A2.862,2.862,0,0,0,5209.953,2261.4Z" transform="translate(-5204.816 -2258.875)" fill="#f3aea9"/>
                      <path id="Trazado_107638" data-name="Trazado 107638" d="M5214.927,2271.346c-.4.685-.556,1.245-1.707,1.478a2.252,2.252,0,0,0,2.1-2.034A2.2,2.2,0,0,0,5214.927,2271.346Z" transform="translate(-5210.285 -2266.712)" fill="#f3aea9"/>
                    </g>
                    <g id="Grupo_70599" data-name="Grupo 70599" transform="translate(0.408)">
                      <path id="Trazado_107639" data-name="Trazado 107639" d="M5212.712,2254.422l.095.006.094.006Z" transform="translate(-5209.635 -2254.415)" fill="#511414"/>
                      <path id="Trazado_107640" data-name="Trazado 107640" d="M5209.089,2255.485a2.948,2.948,0,0,0-5.178,2.655l.213.005a4.169,4.169,0,0,0,.809-2.012,4.311,4.311,0,0,0,1.816.53h.01a4.318,4.318,0,0,0,1.869-.3,4.163,4.163,0,0,0,.55,2.1l.212.022A2.642,2.642,0,0,0,5209.089,2255.485Z" transform="translate(-5203.722 -2254.402)" fill="#62433f"/>
                      <path id="Trazado_107641" data-name="Trazado 107641" d="M5209.089,2255.485a2.948,2.948,0,0,0-5.178,2.655,2.805,2.805,0,0,1,.8-2.843,3.31,3.31,0,0,1,4.248.283,2.852,2.852,0,0,1,.427,2.9A2.642,2.642,0,0,0,5209.089,2255.485Z" transform="translate(-5203.722 -2254.402)" fill="#7b5c59"/>
                    </g>
                    <path id="Trazado_107642" data-name="Trazado 107642" d="M5210.814,2265.541a3.012,3.012,0,0,0-.487.895c-.126.4-.271.677.509.726-.241-.091-.427-.072-.327-.5C5210.641,2266.088,5210.869,2265.464,5210.814,2265.541Z" transform="translate(-5207.593 -2261.724)" fill="#f3aea9"/>
                    <path id="Trazado_107643" data-name="Trazado 107643" d="M5211.306,2265.543s.083-.106-.092.654-.034.881.392.821c-.111.216-.635.14-.63-.2A7.065,7.065,0,0,1,5211.306,2265.543Z" transform="translate(-5208.085 -2261.727)" fill="#fbdfde"/>
                    <path id="Trazado_107644" data-name="Trazado 107644" d="M5211.574,2267.178c0,.056,0,.11,0,.159-.013.21-.35.16-.35.16s-.34.008-.327-.2a6.408,6.408,0,0,1,.216-1.037c.036-.127-.064.028-.143.291a3.842,3.842,0,0,0-.166.771c0,.18.136.27.412.287s.427-.056.444-.235a.968.968,0,0,0-.022-.194s0-.039-.022-.043C5211.57,2267.127,5211.574,2267.178,5211.574,2267.178Z" transform="translate(-5207.972 -2262.171)" fill="#e98a88"/>
                    <path id="Trazado_107645" data-name="Trazado 107645" d="M5203.339,2265.418a.732.732,0,0,0-.808.581.651.651,0,0,1,.811-.67A.045.045,0,1,1,5203.339,2265.418Z" transform="translate(-5202.531 -2261.585)" fill="#fbdfde"/>
                    <path id="Trazado_107646" data-name="Trazado 107646" d="M5219.575,2266.336a.732.732,0,0,1,.73.676c.022-.365-.1-.744-.722-.765A.045.045,0,1,0,5219.575,2266.336Z" transform="translate(-5213.713 -2262.193)" fill="#fbdfde"/>
                  </g>
                  <g id="Grupo_70601" data-name="Grupo 70601" transform="translate(1.728 2.963)">
                    <path id="Trazado_107647" data-name="Trazado 107647" d="M5208.422,2263.127a1,1,0,0,0-.792.029c-.079.024-.061.113,0,.1a.956.956,0,0,1,.767.038C5208.535,2263.352,5208.579,2263.188,5208.422,2263.127Z" transform="translate(-5207.578 -2263.059)" fill="#000100"/>
                    <path id="Trazado_107648" data-name="Trazado 107648" d="M5215.313,2263.618a.993.993,0,0,0-.772-.177c-.166.03-.154.2-.008.166a.956.956,0,0,1,.76.107C5215.352,2263.74,5215.387,2263.657,5215.313,2263.618Z" transform="translate(-5212.079 -2263.3)" fill="#000100"/>
                  </g>
                </g>
                <path id="Trazado_107649" data-name="Trazado 107649" d="M5214.763,2265.3a.355.355,0,1,0,.283.378A.335.335,0,0,0,5214.763,2265.3Z" transform="translate(-5210.35 -2261.571)" fill="#000100"/>
                <path id="Trazado_107650" data-name="Trazado 107650" d="M5214.975,2265.884a.073.073,0,1,1-.067-.079A.073.073,0,0,1,5214.975,2265.884Z" transform="translate(-5210.619 -2261.902)" fill="#fff"/>
                <path id="Trazado_107651" data-name="Trazado 107651" d="M5208.015,2264.776a.355.355,0,1,0,.282.378A.335.335,0,0,0,5208.015,2264.776Z" transform="translate(-5205.912 -2261.225)" fill="#000100"/>
                <path id="Trazado_107652" data-name="Trazado 107652" d="M5208.226,2265.36a.073.073,0,1,1-.067-.079A.073.073,0,0,1,5208.226,2265.36Z" transform="translate(-5206.181 -2261.557)" fill="#fff"/>
              </g>
            </g>
            <g id="Grupo_70648" data-name="Grupo 70648" transform="translate(0 8.013)">
              <g id="Grupo_70609" data-name="Grupo 70609" transform="translate(10.96 1.451)">
                <g id="Grupo_70608" data-name="Grupo 70608">
                  <g id="Grupo_70607" data-name="Grupo 70607" transform="translate(0.001)">
                    <path id="Trazado_107653" data-name="Trazado 107653" d="M5224.67,2312.651c-.075-.291-.2-.838-.312-1.135l-1.138-.012s-.433,1.04-.618,1.554c.317.146.5-.071.661-.483a3.071,3.071,0,0,1-.142,1.646c-.08.146.208.318.283.168a4.652,4.652,0,0,0,.3-1.213,6.832,6.832,0,0,1-.053,1.258c-.02.16.3.245.338.021a10.428,10.428,0,0,0,.109-1.322,4.813,4.813,0,0,1,.05,1.215c-.02.167.284.2.323.031a4.752,4.752,0,0,0-.03-1.357s.151.784.168.966.314.113.294-.06S5224.784,2313.1,5224.67,2312.651Z" transform="translate(-5221.772 -2301.425)" fill="#f7c4bd"/>
                    <path id="Trazado_107654" data-name="Trazado 107654" d="M5224.154,2311.5l1.138,0,.112.362a4.84,4.84,0,0,0-1.382-.046Z" transform="translate(-5222.706 -2301.425)" fill="#f3aea9"/>
                    <g id="Grupo_70606" data-name="Grupo 70606">
                      <g id="Grupo_70605" data-name="Grupo 70605">
                        <path id="Trazado_107655" data-name="Trazado 107655" d="M5220.314,2286.76c.678.881,1.194,3.728,1.3,5.542l1.32.005s.477-7.6-2.625-10.025C5220.314,2282.281,5220.262,2283.336,5220.314,2286.76Z" transform="translate(-5220.251 -2282.204)" fill="#f29100"/>
                        <path id="Trazado_107656" data-name="Trazado 107656" d="M5222.9,2292.2l-1.4-.006,0-.037a21.814,21.814,0,0,0-.439-3.115,6.9,6.9,0,0,0-.857-2.406l-.008-.01v-.013c-.052-3.385,0-4.47,0-4.481l0-.075.059.047a5.783,5.783,0,0,1,1.731,2.608,14.862,14.862,0,0,1,.76,3.341,25.419,25.419,0,0,1,.149,4.11Zm-1.322-.083,1.248,0a25.425,25.425,0,0,0-.152-4.059,14.727,14.727,0,0,0-.755-3.323,5.785,5.785,0,0,0-1.645-2.524c-.01.3-.041,1.507,0,4.385a6.559,6.559,0,0,1,.864,2.427A21.918,21.918,0,0,1,5221.58,2292.114Z" transform="translate(-5220.177 -2282.055)" fill="#f29100"/>
                      </g>
                    </g>
                  </g>
                  <path id="Trazado_107657" data-name="Trazado 107657" d="M5221.027,2290.178a21.118,21.118,0,0,0-.828-3.38c-.046,1.041-.01,1.85.005,2.962a7.538,7.538,0,0,1,1.013,3.142c.189,1.03.275,2.406.275,2.406l1.4.01C5221.621,2295.146,5221.921,2294.294,5221.027,2290.178Z" transform="translate(-5220.176 -2285.174)" fill="#e8550d"/>
                </g>
              </g>
              <g id="Grupo_70616" data-name="Grupo 70616" transform="translate(0 1.444)">
                <g id="Grupo_70612" data-name="Grupo 70612">
                  <g id="Grupo_70611" data-name="Grupo 70611">
                    <g id="Grupo_70610" data-name="Grupo 70610">
                      <path id="Trazado_107658" data-name="Trazado 107658" d="M5193.252,2287.632c-.166.647.029,1.328-4.142,3.677-.343-.089-.958-1.017-.958-1.017s3.067-2.181,3.435-3.283c.587-3.182,1.126-4.548,1.654-4.973,0,0,.031.377.039,2.252C5193.285,2285.273,5193.273,2286.145,5193.252,2287.632Z" transform="translate(-5188.153 -2282.035)" fill="#f29100"/>
                    </g>
                  </g>
                </g>
                <g id="Grupo_70615" data-name="Grupo 70615" transform="translate(0 2.252)">
                  <g id="Grupo_70614" data-name="Grupo 70614">
                    <g id="Grupo_70613" data-name="Grupo 70613">
                      <path id="Trazado_107659" data-name="Trazado 107659" d="M5188.153,2294.619s.614.928.958,1.017c4.3-2.43,3.977-3.03,4.142-3.677.021-1.487.032-2.359.028-3.345a29.786,29.786,0,0,1-.618,3.051A3.51,3.51,0,0,1,5190.9,2294C5189.513,2294.822,5188.893,2295.295,5188.153,2294.619Z" transform="translate(-5188.153 -2288.614)" fill="#e8550d"/>
                    </g>
                  </g>
                </g>
              </g>
              <g id="Grupo_70632" data-name="Grupo 70632" transform="translate(3.001 11.103)">
                <g id="Grupo_70617" data-name="Grupo 70617" transform="translate(2.073)">
                  <path id="Trazado_107660" data-name="Trazado 107660" d="M5203.015,2312a5.125,5.125,0,0,1,.348-1.739,5.67,5.67,0,0,0,2.517.313,5.609,5.609,0,0,0,2.52-.293,5.116,5.116,0,0,1,.334,1.742c.061.628.014,3.356.244,6.218.286,3.564.854,7.322.854,7.322l-1.424.637s-.935-3.831-1.476-7.132c-.48-2.926-.614-5.037-.792-6.1l-.535,0c-.513,1.683-.891,13.762-.891,13.762l-1.518-.006S5202.869,2313.406,5203.015,2312Z" transform="translate(-5202.978 -2310.256)" fill="#847018"/>
                  <path id="Trazado_107661" data-name="Trazado 107661" d="M5203.274,2311.466a3.833,3.833,0,0,1,.283-1.209,5.7,5.7,0,0,0,2.524.313,5.616,5.616,0,0,0,2.514-.292,4.2,4.2,0,0,1,.272,1.224,14.471,14.471,0,0,0-2.795-.206A14.209,14.209,0,0,0,5203.274,2311.466Z" transform="translate(-5203.173 -2310.257)" fill="#3a6c8e"/>
                  <path id="Trazado_107662" data-name="Trazado 107662" d="M5205.334,2317.395c-1.645-.4-.161-.346.96-.348h.007c1.12.01,2.6-.028.957.356.393,11.4,3,12.621,3,12.621l-1.425.637a83.906,83.906,0,0,1-2.268-13.234l-.532,0c-.514,1.683-.848,13.762-.848,13.762l-1.561-.006S5205.157,2330.581,5205.334,2317.395Z" transform="translate(-5203.401 -2314.721)" fill="#665517"/>
                </g>
                <g id="Grupo_70622" data-name="Grupo 70622" transform="translate(6.026 15.289)">
                  <path id="Trazado_107663" data-name="Trazado 107663" d="M5214.558,2359.77s-.027.054.063.22c.058.08.4.25,1.186-.107a13.135,13.135,0,0,0,1.433-.865l.079.174.885-.4-.159-.348a2.346,2.346,0,0,0-.73.221A10.756,10.756,0,0,1,5214.558,2359.77Z" transform="translate(-5214.546 -2357.239)" fill="#4d5357"/>
                  <g id="Grupo_70618" data-name="Grupo 70618" transform="translate(0 0.052)">
                    <path id="Trazado_107664" data-name="Trazado 107664" d="M5217.324,2355.08l-1.2.548-.8,1a1.605,1.605,0,0,1-.254.253c-.576.445-.572.474-.527.726,0,0,.259.455,1.331-.15.813-.459,1.108-.749,1.474-.916l.671-.306A6.57,6.57,0,0,0,5217.324,2355.08Z" transform="translate(-5214.529 -2355.08)" fill="#000100"/>
                    <path id="Trazado_107665" data-name="Trazado 107665" d="M5221.94,2360.3l-.08-.174-.28.157Z" transform="translate(-5219.167 -2358.4)" fill="#000100"/>
                  </g>
                  <path id="Trazado_107666" data-name="Trazado 107666" d="M5217.832,2356.452l-.573,1.175-.4-.1.8-1Z" transform="translate(-5216.063 -2355.93)" fill="#4d5357"/>
                  <path id="Trazado_107667" data-name="Trazado 107667" d="M5218.238,2359.615l-.322-.117-.014.037.343.125.009-.007a.939.939,0,0,1,1.05-.109l.022-.032A.962.962,0,0,0,5218.238,2359.615Z" transform="translate(-5216.748 -2357.852)" fill="#4d5357"/>
                  <g id="Grupo_70621" data-name="Grupo 70621" transform="translate(0.83)">
                    <g id="Grupo_70620" data-name="Grupo 70620" transform="translate(0.03 0.654)">
                      <path id="Trazado_107668" data-name="Trazado 107668" d="M5217.5,2357.8a.032.032,0,0,1-.02,0l-.413-.1a.03.03,0,0,1-.022-.028.029.029,0,0,1,.021-.029l.282-.092-.073-.15a.027.027,0,0,1,0-.023.03.03,0,0,1,.016-.016l.244-.113-.056-.1a.029.029,0,0,1,0-.023.027.027,0,0,1,.014-.018l.232-.122-.05-.078a.033.033,0,0,1,0-.029.03.03,0,0,1,.024-.016l.313-.024a.028.028,0,0,1,.03.021.029.029,0,0,1-.015.034l-.217.114.07.11a.026.026,0,0,1,0,.024.033.033,0,0,1-.016.019l-.248.114.1.174,0,.008a.03.03,0,0,1-.015.039h0l-.269.088.08.165a.015.015,0,0,1,0,.006.03.03,0,0,1-.014.039Zm-.317-.13.251.06-.06-.122Zm.222-.134.243-.079-.086-.154-.221.1Zm.139-.386.043.077.221-.1-.055-.086Zm.2-.229.027.041.095-.051Z" transform="translate(-5217.042 -2356.838)" fill="#272a2d"/>
                      <g id="Grupo_70619" data-name="Grupo 70619" clip-path="url(#clip-path)">
                        <path id="Trazado_107669" data-name="Trazado 107669" d="M5217.4,2356.386h0c-.062,0-.21-.008-.237-.085-.014-.04.008-.082.064-.125a.277.277,0,0,1,.172-.061.489.489,0,0,1,.314.162.033.033,0,0,1,.006.025.027.027,0,0,1-.015.021A.706.706,0,0,1,5217.4,2356.386Zm0-.213a.22.22,0,0,0-.136.049c-.039.03-.048.051-.045.06s.067.046.182.046h0a.716.716,0,0,0,.241-.041A.39.39,0,0,0,5217.4,2356.173Z" transform="translate(-5217.116 -2356.362)" fill="#272a2d"/>
                      </g>
                    </g>
                    <path id="Trazado_107671" data-name="Trazado 107671" d="M5218.122,2354.931a.405.405,0,0,0-.126.034.554.554,0,0,0-.248.538,1.39,1.39,0,0,0-.165-.2c-.161-.157-.314-.209-.442-.151a.029.029,0,0,0-.014.038.029.029,0,0,0,.039.015c.131-.06.277.043.377.139a1.384,1.384,0,0,1,.151.178.8.8,0,0,0-.644-.052c-.061.027-.095.066-.095.109s.042.092.124.128l.006,0a.278.278,0,0,0-.028.062.028.028,0,0,0,.02.036.028.028,0,0,0,.036-.02.179.179,0,0,1,.028-.057.778.778,0,0,0,.57-.039.694.694,0,0,0,.087-.047.8.8,0,0,0,.162-.054c.283-.129.448-.4.407-.548C5218.352,2355,5218.3,2354.911,5218.122,2354.931Zm-1.02.728c-.083-.037-.089-.067-.089-.075s.022-.039.06-.056a.722.722,0,0,1,.5.011c-.038,0-.077,0-.116,0a.533.533,0,0,0-.338.125Zm.583-.015a.724.724,0,0,1-.5.045.535.535,0,0,1,.281-.087,1.389,1.389,0,0,1,.244,0l.023.015A.428.428,0,0,1,5217.685,2355.644Zm.625-.58c.035.127-.122.363-.375.479a.666.666,0,0,1-.083.031.047.047,0,0,0-.016-.008h0l-.027-.007c-.009-.131-.006-.444.21-.542a.344.344,0,0,1,.109-.029C5218.2,2354.981,5218.288,2354.987,5218.31,2355.064Z" transform="translate(-5216.954 -2354.928)" fill="#272a2d"/>
                  </g>
                </g>
                <g id="Grupo_70627" data-name="Grupo 70627" transform="translate(0 15.876)">
                  <path id="Trazado_107672" data-name="Trazado 107672" d="M5196.958,2361.547s-.047.038-.035.227c.02.1.26.4,1.122.4a13.105,13.105,0,0,0,1.663-.186v.192l.972,0v-.383a2.343,2.343,0,0,0-.755-.106A10.717,10.717,0,0,1,5196.958,2361.547Z" transform="translate(-5196.921 -2359.869)" fill="#4d5357"/>
                  <g id="Grupo_70623" data-name="Grupo 70623" transform="translate(0.022 0.583)">
                    <path id="Trazado_107673" data-name="Trazado 107673" d="M5200.567,2358.352l-1.32-.006-1.142.576a1.58,1.58,0,0,1-.336.124c-.709.164-.718.192-.783.44,0,0,.045.524,1.272.423.931-.076,1.321-.217,1.722-.215l.737,0A6.684,6.684,0,0,0,5200.567,2358.352Z" transform="translate(-5196.986 -2358.346)" fill="#000100"/>
                    <path id="Trazado_107674" data-name="Trazado 107674" d="M5204.447,2363.031v-.192l-.32.025Z" transform="translate(-5201.684 -2361.301)" fill="#000100"/>
                  </g>
                  <path id="Trazado_107675" data-name="Trazado 107675" d="M5201.587,2358.347l-1.012.831-.319-.256,1.142-.576Z" transform="translate(-5199.114 -2357.763)" fill="#4d5357"/>
                  <path id="Trazado_107676" data-name="Trazado 107676" d="M5201.37,2360.848l-.243-.243-.028.028.259.258.011,0c.007,0,.708-.173,1,.343l.034-.02A.96.96,0,0,0,5201.37,2360.848Z" transform="translate(-5199.67 -2359.249)" fill="#4d5357"/>
                  <g id="Grupo_70626" data-name="Grupo 70626" transform="translate(1.243)">
                    <g id="Grupo_70625" data-name="Grupo 70625" transform="translate(0 0.615)">
                      <path id="Trazado_107677" data-name="Trazado 107677" d="M5200.913,2359.212a.03.03,0,0,1-.018-.006l-.333-.264a.028.028,0,0,1-.009-.034.029.029,0,0,1,.031-.018l.293.034,0-.167a.029.029,0,0,1,.009-.021.029.029,0,0,1,.021-.009h.269l-.009-.115a.029.029,0,0,1,.028-.031l.262-.014-.013-.093a.03.03,0,0,1,.011-.027.029.029,0,0,1,.029,0l.293.109a.03.03,0,0,1-.009.058l-.244.013.018.13a.027.027,0,0,1-.007.023.028.028,0,0,1-.021.01h-.273l.016.2a.028.028,0,0,1,0,.009.029.029,0,0,1-.029.03h0l-.282-.033,0,.184v.008a.031.031,0,0,1-.03.029Zm-.233-.252.2.16,0-.137Zm.257-.029.254.03-.014-.176h-.244Zm.288-.293.007.089h.244l-.014-.1Zm.281-.123.007.048.108-.006Z" transform="translate(-5200.551 -2358.441)" fill="#272a2d"/>
                      <g id="Grupo_70624" data-name="Grupo 70624" clip-path="url(#clip-path-2)">
                        <path id="Trazado_107678" data-name="Trazado 107678" d="M5202.231,2357.54h0c-.178,0-.455-.122-.468-.233,0-.034.013-.08.112-.1a.3.3,0,0,1,.326.147.585.585,0,0,1,.073.15.032.032,0,0,1,0,.026.029.029,0,0,1-.022.012Zm-.287-.285a.275.275,0,0,0-.056.007c-.043.01-.067.025-.066.039.007.058.208.168.381.179C5202.173,2357.407,5202.092,2357.255,5201.944,2357.255Z" transform="translate(-5201.348 -2357.622)" fill="#272a2d"/>
                      </g>
                    </g>
                    <path id="Trazado_107680" data-name="Trazado 107680" d="M5202.813,2356.85a.431.431,0,0,0-.129-.022c-.243,0-.385.237-.451.386a1.389,1.389,0,0,0-.068-.248c-.08-.211-.2-.323-.338-.323a.029.029,0,0,0-.029.029.029.029,0,0,0,.029.03c.145,0,.234.156.284.286a1.4,1.4,0,0,1,.063.226.8.8,0,0,0-.562-.319c-.067,0-.114.021-.131.06s0,.1.058.169l0,0a.244.244,0,0,0-.051.044.028.028,0,0,0,0,.041.029.029,0,0,0,.042,0,.189.189,0,0,1,.049-.04.776.776,0,0,0,.534.2.726.726,0,0,0,.1-.006.8.8,0,0,0,.17.019c.311,0,.572-.172.6-.329C5202.994,2357.007,5202.983,2356.907,5202.813,2356.85Zm-1.231.235c-.059-.068-.052-.1-.049-.106s.036-.025.077-.025a.722.722,0,0,1,.453.222c-.034-.016-.07-.032-.106-.045a.528.528,0,0,0-.359-.029Zm.536.232a.723.723,0,0,1-.473-.169.545.545,0,0,1,.292.038,1.375,1.375,0,0,1,.219.106l.015.024Zm.81-.266c-.022.13-.263.28-.541.279a.7.7,0,0,1-.088-.006.053.053,0,0,0-.012-.014h0l-.022-.017c.047-.123.181-.407.419-.406a.342.342,0,0,1,.11.019C5202.862,2356.928,5202.94,2356.972,5202.928,2357.051Z" transform="translate(-5201.157 -2356.642)" fill="#272a2d"/>
                  </g>
                </g>
                <g id="Grupo_70631" data-name="Grupo 70631" transform="translate(2.415 0.122)">
                  <g id="Grupo_70628" data-name="Grupo 70628">
                    <path id="Trazado_107681" data-name="Trazado 107681" d="M5208.21,2311.276a.437.437,0,0,0,.1.383l-.663,0,.023-.383Z" transform="translate(-5206.39 -2311.048)" fill="#000100"/>
                    <path id="Trazado_107682" data-name="Trazado 107682" d="M5204.107,2310.614a2.927,2.927,0,0,0,.924.2s.012.422-.025.409c-.02-.006-1.027-.059-1.027-.059Z" transform="translate(-5203.979 -2310.614)" fill="#000100"/>
                  </g>
                  <g id="Grupo_70629" data-name="Grupo 70629" transform="translate(3.2 0.095)">
                    <path id="Trazado_107683" data-name="Trazado 107683" d="M5213.43,2311.3a.438.438,0,0,1-.1.382l.663,0-.021-.383Z" transform="translate(-5213.329 -2311.158)" fill="#000100"/>
                    <path id="Trazado_107684" data-name="Trazado 107684" d="M5216.785,2310.891a4.006,4.006,0,0,1-.927.149s-.014.389.023.376c.02-.006.991-.029.991-.029Z" transform="translate(-5214.991 -2310.891)" fill="#000100"/>
                  </g>
                  <g id="Grupo_70630" data-name="Grupo 70630" transform="translate(1.745 0.189)">
                    <path id="Trazado_107685" data-name="Trazado 107685" d="M5209.214,2311.28l.648,0h.228l.648,0s.119.458-.231.457l-.418,0h-.228l-.42,0C5209.092,2311.737,5209.214,2311.28,5209.214,2311.28Z" transform="translate(-5209.154 -2311.241)" fill="#fff"/>
                    <path id="Trazado_107686" data-name="Trazado 107686" d="M5210.433,2311.706h-.648l-.42,0a.266.266,0,0,1-.222-.1.554.554,0,0,1-.042-.41.039.039,0,0,1,.038-.029h0l1.524.006a.04.04,0,0,1,.038.029.549.549,0,0,1-.046.409A.263.263,0,0,1,5210.433,2311.706Zm-1.263-.462a.435.435,0,0,0,.035.313.19.19,0,0,0,.16.067l.42,0h.227l.419,0v0a.188.188,0,0,0,.16-.066.434.434,0,0,0,.037-.312Z" transform="translate(-5209.079 -2311.165)" fill="#5985ac"/>
                  </g>
                </g>
              </g>
              <g id="Grupo_70647" data-name="Grupo 70647" transform="translate(4.526)">
                <path id="Trazado_107687" data-name="Trazado 107687" d="M5209.623,2279.112a1.254,1.254,0,0,1,.747.159c.163,1.49.321,5.837-1.218,6.333-1.52-.376-1.242-5.815-1.13-6.333a3.612,3.612,0,0,1,.71-.142,6.755,6.755,0,0,0,.442.708C5209.366,2279.837,5209.531,2279.112,5209.623,2279.112Z" transform="translate(-5205.685 -2278.664)" fill="#fff"/>
                <g id="Grupo_70646" data-name="Grupo 70646">
                  <path id="Trazado_107688" data-name="Trazado 107688" d="M5210.617,2285.735a10.3,10.3,0,0,1-1.223,3.973,13.932,13.932,0,0,1-1.029-3.836c.4,1.206,1.041,3.037,1.041,3.037A17.085,17.085,0,0,0,5210.617,2285.735Z" transform="translate(-5205.972 -2283.024)" fill="#a7d1e7"/>
                  <path id="Trazado_107689" data-name="Trazado 107689" d="M5210.375,2278.785a1.662,1.662,0,0,1-.278,1.578.708.708,0,0,0-1.227-.116.635.635,0,0,1,.239-.422s-.462-.168-.761.538a1.757,1.757,0,0,1-.222-1.578l.02.462.153.735s.265-.9.967-.391l-.106.19s.563-.731,1,.156A3.607,3.607,0,0,0,5210.375,2278.785Z" transform="translate(-5205.754 -2278.453)" fill="#a7d1e7"/>
                  <g id="Grupo_70634" data-name="Grupo 70634" transform="translate(3.378 10.667)">
                    <g id="Grupo_70633" data-name="Grupo 70633">
                      <path id="Trazado_107690" data-name="Trazado 107690" d="M5211.417,2308.981h0Z" transform="translate(-5211.247 -2308.981)" fill="#eee9e3"/>
                    </g>
                  </g>
                  <g id="Grupo_70635" data-name="Grupo 70635" transform="translate(3.339 0.732)">
                    <path id="Trazado_107691" data-name="Trazado 107691" d="M5212.807,2280.1a5.113,5.113,0,0,1,1.5.717c.051,1.714.016,4.2-.023,5.457a51.757,51.757,0,0,0,.287,5.287s.261,1.828.249,1.868a14.891,14.891,0,0,1-2.338.091c-.8-.313-1.233-1.753-1.233-1.753v-5.2S5212.82,2284.4,5212.807,2280.1Z" transform="translate(-5211.208 -2280.053)" fill="#f29100"/>
                    <path id="Trazado_107692" data-name="Trazado 107692" d="M5212.4,2293.464h-.007l-.007,0c-.8-.317-1.239-1.719-1.257-1.779l0-.005v-5.22l.008-.01a7.238,7.238,0,0,0,.781-1.618,14.086,14.086,0,0,0,.771-4.825v-.052l.05.014a5.092,5.092,0,0,1,1.513.724l.014.012v.018c.052,1.759.014,4.282-.022,5.46a52.214,52.214,0,0,0,.286,5.282s.066.461.129.918a7.433,7.433,0,0,1,.118.966c-.011.031-.02.059-.657.087C5213.808,2293.448,5213.254,2293.464,5212.4,2293.464Zm-1.195-1.8c.031.1.462,1.422,1.2,1.721a19.557,19.557,0,0,0,2.29-.078c-.012-.165-.151-1.166-.247-1.837a51.812,51.812,0,0,1-.287-5.294c.036-1.172.074-3.682.022-5.437a4.968,4.968,0,0,0-1.421-.683,14.119,14.119,0,0,1-.777,4.8,7.485,7.485,0,0,1-.783,1.623Z" transform="translate(-5211.131 -2279.953)" fill="#f29100"/>
                  </g>
                  <g id="Grupo_70636" data-name="Grupo 70636" transform="translate(0.005 0.786)">
                    <path id="Trazado_107693" data-name="Trazado 107693" d="M5203.455,2280.257a4.694,4.694,0,0,0-1.418.649c-.021,1.012,0,4.532,0,5.786,0,1.848-.28,4.974-.28,4.974s-.261,1.828-.249,1.868a12.869,12.869,0,0,0,2.23.091c.915-.339,1.274-2.233,1.274-2.233v-3.944a6.554,6.554,0,0,0-.468-2.051A18.669,18.669,0,0,1,5203.455,2280.257Z" transform="translate(-5201.464 -2280.207)" fill="#f29100"/>
                    <path id="Trazado_107694" data-name="Trazado 107694" d="M5203.667,2293.568h-.006c-.845,0-1.372-.017-1.665-.031-.583-.028-.592-.057-.6-.087a6.943,6.943,0,0,1,.118-.966c.062-.446.125-.894.129-.918.006-.071.279-3.156.279-4.97,0-.33,0-.814,0-1.374,0-1.547-.008-3.667.006-4.413v-.018l.015-.012a4.672,4.672,0,0,1,1.433-.656l.046-.012,0,.048a18.768,18.768,0,0,0,1.082,5.128,6.639,6.639,0,0,1,.472,2.064v3.953a6.266,6.266,0,0,1-.3,1,2.041,2.041,0,0,1-1,1.266Zm-2.2-.155a16.982,16.982,0,0,0,2.183.076c.861-.327,1.224-2.106,1.242-2.2v-3.94a6.588,6.588,0,0,0-.465-2.035,18.633,18.633,0,0,1-1.084-5.1,4.572,4.572,0,0,0-1.344.618c-.015.762-.01,2.858-.006,4.393,0,.56,0,1.044,0,1.374,0,1.829-.276,4.946-.28,4.977v0C5201.621,2292.247,5201.481,2293.25,5201.47,2293.413Z" transform="translate(-5201.391 -2280.11)" fill="#f29100"/>
                  </g>
                  <g id="Grupo_70637" data-name="Grupo 70637" transform="translate(3.276 1.729)">
                    <path id="Trazado_107695" data-name="Trazado 107695" d="M5211.21,2283a.132.132,0,1,1-.132-.132A.132.132,0,0,1,5211.21,2283Z" transform="translate(-5210.947 -2282.867)" fill="#8db8d6"/>
                    <path id="Trazado_107696" data-name="Trazado 107696" d="M5211.21,2289.467a.132.132,0,1,1-.132-.132A.132.132,0,0,1,5211.21,2289.467Z" transform="translate(-5210.947 -2287.121)" fill="#8db8d6"/>
                  </g>
                  <path id="Trazado_107697" data-name="Trazado 107697" d="M5210.961,2285.971a.029.029,0,0,1-.029-.029c0-.036-.05-3.631-.05-4.1,0-.1,0-.192,0-.271a1.5,1.5,0,0,1,.062-.6,1.724,1.724,0,0,0-.362.3l0,0a.511.511,0,0,0-.11.141.936.936,0,0,0-.11.463c0,.494-.008,3.669-.009,3.7a.029.029,0,0,1-.029.029h0a.03.03,0,0,1-.03-.029c0-.032.009-3.208.009-3.7a.835.835,0,0,1,.239-.648,1.617,1.617,0,0,1,.45-.35.031.031,0,0,1,.033.006.029.029,0,0,1,.006.033,1.323,1.323,0,0,0-.087.65c0,.079,0,.168,0,.272,0,.464.049,4.059.049,4.1a.028.028,0,0,1-.029.03Z" transform="translate(-5207.237 -2279.832)" fill="#8db8d6"/>
                  <g id="Grupo_70640" data-name="Grupo 70640" transform="translate(2.323)">
                    <g id="Grupo_70638" data-name="Grupo 70638" transform="translate(0.956)">
                      <path id="Trazado_107698" data-name="Trazado 107698" d="M5212.168,2279.419c-.353-.89-.916-.309-1.094-.1a5.589,5.589,0,0,0,.769-1.384C5212.688,2277.93,5212.311,2278.9,5212.168,2279.419Z" transform="translate(-5211.035 -2277.891)" fill="#fff"/>
                      <path id="Trazado_107699" data-name="Trazado 107699" d="M5212.092,2279.383a.039.039,0,0,1-.036-.024c-.121-.3-.275-.456-.458-.456a.86.86,0,0,0-.571.362.039.039,0,0,1-.062-.049,5.648,5.648,0,0,0,.764-1.373.039.039,0,0,1,.037-.027.551.551,0,0,1,.469.188c.208.278.054.8-.057,1.184-.018.059-.034.115-.048.167a.037.037,0,0,1-.035.029Zm-.495-.559c.2,0,.359.136.487.4.006-.02.012-.041.019-.062.107-.366.254-.868.069-1.114a.454.454,0,0,0-.378-.157,5.3,5.3,0,0,1-.563,1.071A.63.63,0,0,1,5211.6,2278.824Z" transform="translate(-5210.958 -2277.815)" fill="#5985ac"/>
                    </g>
                    <g id="Grupo_70639" data-name="Grupo 70639">
                      <path id="Trazado_107700" data-name="Trazado 107700" d="M5208.806,2277.93a3.222,3.222,0,0,0,.625,1.1c-.317-.128-.657-.424-.933.39C5208.356,2278.9,5207.96,2277.93,5208.806,2277.93Z" transform="translate(-5208.241 -2277.891)" fill="#fff"/>
                      <path id="Trazado_107701" data-name="Trazado 107701" d="M5208.422,2279.383h0a.039.039,0,0,1-.037-.029c-.016-.058-.034-.121-.055-.188-.119-.4-.267-.893-.064-1.165a.546.546,0,0,1,.465-.186.039.039,0,0,1,.037.029,3.211,3.211,0,0,0,.617,1.083.041.041,0,0,1,0,.049.04.04,0,0,1-.047.013c-.041-.017-.083-.037-.124-.055a.816.816,0,0,0-.318-.1c-.113,0-.28.054-.438.523A.04.04,0,0,1,5208.422,2279.383Zm.278-1.489a.448.448,0,0,0-.372.154c-.18.24-.031.734.076,1.1.008.026.015.05.021.074.125-.314.276-.462.472-.462a.781.781,0,0,1,.319.094A3.27,3.27,0,0,1,5208.7,2277.894Z" transform="translate(-5208.165 -2277.815)" fill="#5985ac"/>
                    </g>
                  </g>
                  <rect id="Rectngulo_8703" data-name="Rectngulo 8703" width="2.118" height="0.506" transform="translate(0.729 10.85)" fill="#e8550d"/>
                  <rect id="Rectngulo_8704" data-name="Rectngulo 8704" width="2.118" height="0.506" transform="translate(4.125 10.85)" fill="#e8550d"/>
                  <g id="Grupo_70641" data-name="Grupo 70641" transform="translate(3.139 8.156)">
                    <path id="Trazado_107702" data-name="Trazado 107702" d="M5210.681,2301.909a.132.132,0,1,1,.131-.131A.132.132,0,0,1,5210.681,2301.909Z" transform="translate(-5210.549 -2301.646)" fill="#e8550d"/>
                    <path id="Trazado_107703" data-name="Trazado 107703" d="M5210.681,2306.684a.132.132,0,1,1-.132.132A.132.132,0,0,1,5210.681,2306.684Z" transform="translate(-5210.549 -2304.959)" fill="#e8550d"/>
                    <path id="Trazado_107704" data-name="Trazado 107704" d="M5210.681,2311.72a.132.132,0,1,1-.132.132A.132.132,0,0,1,5210.681,2311.72Z" transform="translate(-5210.549 -2308.272)" fill="#e8550d"/>
                  </g>
                  <g id="Grupo_70642" data-name="Grupo 70642" transform="translate(3.492 1.079)">
                    <path id="Trazado_107705" data-name="Trazado 107705" d="M5213.063,2283.39a6.023,6.023,0,0,1-.058-1.185l.352-1.237a10.709,10.709,0,0,1,.745,1.489,3.76,3.76,0,0,1-.631.28l.456.439s-1.213,3.639-2.252,4.649c0-.068,0-.177,0-.232-.037-.5-.092-.469-.092-.469A15.733,15.733,0,0,0,5213.063,2283.39Z" transform="translate(-5211.579 -2280.968)" fill="#e8550d"/>
                  </g>
                  <g id="Grupo_70643" data-name="Grupo 70643" transform="translate(0.97 1.079)">
                    <path id="Trazado_107706" data-name="Trazado 107706" d="M5205.248,2283.39a6.06,6.06,0,0,0,.059-1.185l-.353-1.237a10.73,10.73,0,0,0-.745,1.489,3.729,3.729,0,0,0,.631.28l-.457.439s1.214,3.639,2.253,4.649c0-.068,0-.177,0-.232.036-.5.092-.469.092-.469A15.729,15.729,0,0,1,5205.248,2283.39Z" transform="translate(-5204.209 -2280.968)" fill="#e8550d"/>
                  </g>
                  <g id="Grupo_70644" data-name="Grupo 70644" transform="translate(3.378 0.486)">
                    <path id="Trazado_107707" data-name="Trazado 107707" d="M5212.62,2279.36a11.788,11.788,0,0,1-.384,4.019,10.4,10.4,0,0,1-.867,2.166,7.779,7.779,0,0,1,.131.987s1.583-3.187,2.053-4.4a2.083,2.083,0,0,1-.5-.6l.627-.352S5213.292,2279.411,5212.62,2279.36Z" transform="translate(-5211.327 -2279.317)" fill="#f29100"/>
                    <path id="Trazado_107708" data-name="Trazado 107708" d="M5211.387,2286.6l-.005-.154a7.952,7.952,0,0,0-.131-.982l0-.014.008-.012a10.294,10.294,0,0,0,.864-2.156,13.184,13.184,0,0,0,.414-2.865,8.441,8.441,0,0,0-.032-1.139l-.006-.047.048,0c.693.052,1.083,1.774,1.1,1.847l.007.028-.621.349a2.638,2.638,0,0,0,.473.556l.019.018-.01.024c-.465,1.2-2.039,4.373-2.054,4.4Zm-.057-1.135c.072.4.1.678.119.834.3-.6,1.559-3.17,1.979-4.245a2.051,2.051,0,0,1-.488-.6l-.011-.031.63-.354c-.052-.219-.411-1.634-.975-1.751a12.169,12.169,0,0,1-.39,3.983A10.4,10.4,0,0,1,5211.33,2285.469Z" transform="translate(-5211.248 -2279.235)" fill="#e53212"/>
                  </g>
                  <g id="Grupo_70645" data-name="Grupo 70645" transform="translate(1.214 0.486)">
                    <path id="Trazado_107709" data-name="Trazado 107709" d="M5206.9,2285.9s-1.241-2.56-1.71-3.774a2.085,2.085,0,0,0,.5-.6l-.627-.352s.391-1.766,1.064-1.817a12.518,12.518,0,0,0,.987,5.813,4.809,4.809,0,0,1,.239,1.946A5.023,5.023,0,0,0,5206.9,2285.9Z" transform="translate(-5205.01 -2279.317)" fill="#f29100"/>
                    <path id="Trazado_107710" data-name="Trazado 107710" d="M5207.278,2287.4l-.06-.357a5.052,5.052,0,0,0-.444-1.2c-.012-.026-1.247-2.575-1.712-3.778l-.009-.024.018-.018a2.6,2.6,0,0,0,.473-.556l-.62-.349.006-.028c.017-.073.406-1.795,1.1-1.847l.048,0-.006.047a9.606,9.606,0,0,0,0,1.716,13.426,13.426,0,0,0,.985,4.077,3.025,3.025,0,0,1,.144.517,5.826,5.826,0,0,1,.1,1.445Zm-2.133-5.343c.471,1.209,1.688,3.722,1.7,3.747a6.52,6.52,0,0,1,.382.949,4.556,4.556,0,0,0-.244-1.648,13.485,13.485,0,0,1-.99-4.1,10.04,10.04,0,0,1,0-1.679c-.563.117-.922,1.533-.975,1.751l.63.354-.011.031A2.053,2.053,0,0,1,5205.145,2282.058Z" transform="translate(-5204.924 -2279.235)" fill="#e53212"/>
                  </g>
                  <path id="Trazado_107711" data-name="Trazado 107711" d="M5211.353,2311.969s.529,1.469,1.391,1.835,1.763.1,1.692-1.966c0,0,.321,1.922.4,2.5-1.025.109-2.4.107-2.4.107s-.655-.12-1.245-1.668A5.219,5.219,0,0,0,5211.353,2311.969Z" transform="translate(-5207.832 -2300.194)" fill="#e8550d"/>
                  <path id="Trazado_107712" data-name="Trazado 107712" d="M5204.9,2311.294s-.584,1.479-1.447,1.844-1.81-.263-1.739-2.326c0,0-.093,1.01-.131,1.294-.076.563-.153,1.2-.2,1.587a20.425,20.425,0,0,0,2.272.076s.7-.142,1.106-1.484A1.652,1.652,0,0,0,5204.9,2311.294Z" transform="translate(-5201.376 -2299.519)" fill="#e8550d"/>
                  <path id="Trazado_107713" data-name="Trazado 107713" d="M5211.285,2305.906l-.07-.035c.441-.89.153-4.635.149-4.672l.079-.006c0,.01.075.959.092,2.008A7.466,7.466,0,0,1,5211.285,2305.906Z" transform="translate(-5207.848 -2293.192)" fill="#e53212"/>
                </g>
              </g>
            </g>
          </g>
        </g>
        <path id="Trazado_107714" data-name="Trazado 107714" d="M5205.056,2271.441l-.017,0a.052.052,0,0,1-.034-.042c-.021-.074-.363-.893-.59-1.431a.051.051,0,0,1,.095-.04s.151.36.3.715c.306.735.3.739.3.765A.051.051,0,0,1,5205.056,2271.441Z" transform="translate(-5196.198 -2264.141)" fill="#008fd5"/>
        <path id="Trazado_107715" data-name="Trazado 107715" d="M5205.547,2266.644a.052.052,0,0,1-.045-.026l-.745-1.351a.051.051,0,1,1,.089-.05l.745,1.352a.051.051,0,0,1-.02.069A.058.058,0,0,1,5205.547,2266.644Z" transform="translate(-5196.421 -2261.046)" fill="#008fd5"/>
        <path id="Trazado_107716" data-name="Trazado 107716" d="M5216.717,2267.374a.053.053,0,0,1-.03-.01.051.051,0,0,1-.01-.072l.97-1.283a.051.051,0,1,1,.082.062l-.971,1.283A.052.052,0,0,1,5216.717,2267.374Z" transform="translate(-5204.259 -2261.571)" fill="#008fd5"/>
        <path id="Trazado_107717" data-name="Trazado 107717" d="M5217.668,2272.033a.054.054,0,0,1-.023-.005.052.052,0,0,1-.022-.069l.587-1.151a.051.051,0,0,1,.068-.022.051.051,0,0,1,.022.069l-.586,1.152A.053.053,0,0,1,5217.668,2272.033Z" transform="translate(-5204.885 -2264.722)" fill="#008fd5"/>
        <path id="Trazado_107718" data-name="Trazado 107718" d="M5209.877,2268.7a6.668,6.668,0,0,0-1.636-.586h-.093a9.649,9.649,0,0,0-1.687.354,7.6,7.6,0,0,0-.263,1.79,2.272,2.272,0,0,0,1.906.805l.174.01a2.118,2.118,0,0,0,1.913-.816A4.175,4.175,0,0,0,5209.877,2268.7Z" transform="translate(-5197.375 -2262.968)" fill="#3bbeef"/>
        <path id="Trazado_107719" data-name="Trazado 107719" d="M5210.683,2270.189c0,.019-.914-.2-1.437-.223a9.021,9.021,0,0,0-1.271.086s.672.051,1.28.061C5210.021,2270.126,5210.683,2270.189,5210.683,2270.189Z" transform="translate(-5198.542 -2264.186)" fill="#008fd5"/>
        <path id="Trazado_107720" data-name="Trazado 107720" d="M5210.758,2271.966a13.619,13.619,0,0,0-1.431-.174c-.524-.02-1.277.036-1.277.036a11.688,11.688,0,0,0,1.271.108C5209.8,2271.944,5209.862,2271.967,5210.758,2271.966Z" transform="translate(-5198.592 -2265.385)" fill="#008fd5"/>
        <path id="Trazado_107721" data-name="Trazado 107721" d="M5210.682,2273.377c0,.019-.931-.132-1.455-.146s-1.255.033-1.255.033a9.3,9.3,0,0,0,1.26.115C5210,2273.386,5210.682,2273.377,5210.682,2273.377Z" transform="translate(-5198.54 -2266.333)" fill="#008fd5"/>
        <path id="Trazado_107722" data-name="Trazado 107722" d="M5207.554,2274.546a5.893,5.893,0,0,0,1.442.223c.58,0,1.555-.085,1.555-.085s-.882-.051-1.555-.061C5208.148,2274.609,5207.554,2274.546,5207.554,2274.546Z" transform="translate(-5198.265 -2267.199)" fill="#008fd5"/>
        <g id="Grupo_70652" data-name="Grupo 70652" transform="translate(7.913 0)">
          <path id="Trazado_107723" data-name="Trazado 107723" d="M5204.257,2254.854s.336-1.757,2.749-1.772c2.375-.015,3.892,1.132,2.927,2.047A28.75,28.75,0,0,1,5204.257,2254.854Z" transform="translate(-5204.01 -2253.082)" fill="#3bbeef"/>
          <g id="Grupo_70651" data-name="Grupo 70651" transform="translate(0.899 0.528)">
            <path id="Trazado_107724" data-name="Trazado 107724" d="M5207.192,2254.706c.359-.191-.033.015-.432.471a5.676,5.676,0,0,0-.447.747c-.166.155-.153-.012-.153-.012A2.29,2.29,0,0,1,5207.192,2254.706Z" transform="translate(-5206.16 -2254.631)" fill="#008fd5"/>
            <path id="Trazado_107725" data-name="Trazado 107725" d="M5212.035,2256c-.131.184-.152.018-.152.018a2.046,2.046,0,0,1,.729-1.288C5213.094,2254.326,5212.207,2255.155,5212.035,2256Z" transform="translate(-5209.924 -2254.625)" fill="#008fd5"/>
            <path id="Trazado_107726" data-name="Trazado 107726" d="M5218.6,2257.769c-.132.184-.152.018-.152.018a2.076,2.076,0,0,1,.354-.718C5218.926,2256.937,5218.676,2257.43,5218.6,2257.769Z" transform="translate(-5214.239 -2256.218)" fill="#008fd5"/>
            <path id="Trazado_107727" data-name="Trazado 107727" d="M5215.495,2256.984c-.132.184-.152.018-.152.018a1.806,1.806,0,0,1,.527-1.005C5216.009,2255.877,5215.57,2256.417,5215.495,2256.984Z" transform="translate(-5212.2 -2255.516)" fill="#008fd5"/>
            <path id="Trazado_107728" data-name="Trazado 107728" d="M5209.482,2257.057c-.132.185-.152.019-.152.019a2.069,2.069,0,0,1,.354-.718C5209.811,2256.225,5209.562,2256.718,5209.482,2257.057Z" transform="translate(-5208.245 -2255.75)" fill="#008fd5"/>
          </g>
          <path id="Trazado_107729" data-name="Trazado 107729" d="M5203.643,2259.08a37.928,37.928,0,0,0,5.941.343.732.732,0,0,0-.126-.9s-5.477-.366-5.758-.262C5203.5,2258.336,5203.485,2259.066,5203.643,2259.08Z" transform="translate(-5203.534 -2256.476)" fill="#a6dbf7"/>
        </g>
      </g>
    </g>
  </g>
</svg>
