<svg xmlns="http://www.w3.org/2000/svg" width="97" height="97" viewBox="0 0 97 97">
  <g id="Grupo_70736" data-name="Grupo 70736" transform="translate(-390 -3703)">
    <g id="Elipse_4499" data-name="Elipse 4499" transform="translate(390 3703)" fill="#fff" stroke="#25ced1" stroke-width="4">
      <circle cx="48.5" cy="48.5" r="48.5" stroke="none"/>
      <circle cx="48.5" cy="48.5" r="46.5" fill="none"/>
    </g>
    <circle id="Elipse_4500" data-name="Elipse 4500" cx="48.5" cy="48.5" r="48.5" transform="translate(390 3703)" fill="#fff" opacity="0.25"/>
    <g id="Grupo_70722" data-name="Grupo 70722" transform="translate(410.5 3716.284)">
      <g id="Grupo_70234" data-name="Grupo 70234" transform="translate(38.403)">
        <g id="Grupo_70222" data-name="Grupo 70222" transform="translate(4.997)">
          <path id="Trazado_107191" data-name="Trazado 107191" d="M607.577,198.55l1.621.936,1.621-.936-1.621-.936Z" transform="translate(-607.577 -197.614)" fill="#bdd4cf"/>
        </g>
        <g id="Grupo_70233" data-name="Grupo 70233" transform="translate(0 0.936)">
          <g id="Grupo_70223" data-name="Grupo 70223" transform="translate(19.685 47.247)">
            <path id="Trazado_107192" data-name="Trazado 107192" d="M635.094,291.544l1.621.936v-3.665l-1.621-.936Z" transform="translate(-635.094 -287.88)" fill="#9cafab"/>
          </g>
          <g id="Grupo_70224" data-name="Grupo 70224" transform="translate(0.061 34.405)">
            <path id="Trazado_107193" data-name="Trazado 107193" d="M598.331,265.4l21.245,12.2v-1.575l-21.245-12.2Z" transform="translate(-598.331 -263.821)" fill="#9cafab"/>
          </g>
          <g id="Grupo_70227" data-name="Grupo 70227" transform="translate(0.061)">
            <g id="Grupo_70225" data-name="Grupo 70225" transform="translate(0 33.469)">
              <path id="Trazado_107194" data-name="Trazado 107194" d="M598.331,263l21.245,12.2,1.621-.936-21.245-12.2Z" transform="translate(-598.331 -262.068)" fill="#bdd4cf"/>
            </g>
            <g id="Grupo_70226" data-name="Grupo 70226" transform="translate(6.556)">
              <path id="Trazado_107195" data-name="Trazado 107195" d="M610.613,200.3v37.248l1.621-.936V199.367Z" transform="translate(-610.613 -199.367)" fill="#5b6664"/>
            </g>
          </g>
          <g id="Grupo_70228" data-name="Grupo 70228" transform="translate(4.997)">
            <path id="Trazado_107196" data-name="Trazado 107196" d="M607.577,199.367v37.248l1.621.936V200.3Z" transform="translate(-607.577 -199.367)" fill="#9cafab"/>
          </g>
          <g id="Grupo_70229" data-name="Grupo 70229" transform="translate(21.306 45.672)">
            <path id="Trazado_107197" data-name="Trazado 107197" d="M639.751,284.929V286.5l-1.621.936v-1.575Z" transform="translate(-638.13 -284.929)" fill="#5b6664"/>
          </g>
          <g id="Grupo_70230" data-name="Grupo 70230" transform="translate(21.306 47.247)">
            <path id="Trazado_107198" data-name="Trazado 107198" d="M638.13,288.815v3.665l1.621-.936V287.88Z" transform="translate(-638.13 -287.88)" fill="#5b6664"/>
          </g>
          <g id="Grupo_70231" data-name="Grupo 70231" transform="translate(0 35.874)">
            <path id="Trazado_107199" data-name="Trazado 107199" d="M598.331,270.436l1.621.936v-3.665l-1.621-.936Z" transform="translate(-598.27 -266.666)" fill="#fff"/>
            <path id="Trazado_107200" data-name="Trazado 107200" d="M599.959,271.386l-1.743-1.007v-3.805l1.743,1.006Zm-1.621-1.077,1.5.865v-3.524l-1.5-.865Z" transform="translate(-598.216 -266.574)" fill="#231f20"/>
          </g>
          <g id="Grupo_70232" data-name="Grupo 70232" transform="translate(1.621 36.81)">
            <path id="Trazado_107201" data-name="Trazado 107201" d="M601.367,268.524v3.665l1.621-.936V269.46Z" transform="translate(-601.306 -268.419)" fill="#fff"/>
            <path id="Trazado_107202" data-name="Trazado 107202" d="M601.253,272.2v-3.876L603,269.333V271.2Zm.122-3.665v3.453l1.5-.865V269.4Z" transform="translate(-601.253 -268.327)" fill="#231f20"/>
          </g>
        </g>
      </g>
      <g id="Grupo_70245" data-name="Grupo 70245" transform="translate(6.457 33.882)">
        <g id="Grupo_70236" data-name="Grupo 70236" transform="translate(33.287 1.738)">
          <g id="Grupo_70235" data-name="Grupo 70235">
            <path id="Trazado_107203" data-name="Trazado 107203" d="M601.349,270.1l7.939-4.583a.628.628,0,1,0-.628-1.088l-7.934,4.58A2.882,2.882,0,0,0,601.349,270.1Z" transform="translate(-600.726 -264.345)" fill="#9cafab"/>
          </g>
        </g>
        <g id="Grupo_70244" data-name="Grupo 70244">
          <g id="Grupo_70241" data-name="Grupo 70241" transform="translate(0 18.217)">
            <g id="Grupo_70239" data-name="Grupo 70239">
              <g id="Grupo_70237" data-name="Grupo 70237">
                <path id="Trazado_107204" data-name="Trazado 107204" d="M547.058,303.337c0,2.771-1.946,3.895-4.346,2.509a9.6,9.6,0,0,1-4.345-7.526c0-2.771,1.946-3.894,4.346-2.509A9.605,9.605,0,0,1,547.058,303.337Z" transform="translate(-538.367 -295.218)" fill="#0075a4"/>
              </g>
              <g id="Grupo_70238" data-name="Grupo 70238" transform="translate(3.135 4.049)">
                <path id="Trazado_107205" data-name="Trazado 107205" d="M546.661,305.063c0,.771-.542,1.084-1.21.7a2.675,2.675,0,0,1-1.21-2.1c0-.772.542-1.085,1.21-.7A2.675,2.675,0,0,1,546.661,305.063Z" transform="translate(-544.241 -302.802)" fill="#5b6664"/>
              </g>
            </g>
            <g id="Grupo_70240" data-name="Grupo 70240" transform="translate(3.135 4.056)">
              <path id="Trazado_107206" data-name="Trazado 107206" d="M546.273,305.168a2.671,2.671,0,0,1-1.209-2.1,1.38,1.38,0,0,1,.021-.238c-.488-.1-.844.215-.844.838a2.675,2.675,0,0,0,1.21,2.1c.594.343,1.085.131,1.188-.461A1.224,1.224,0,0,1,546.273,305.168Z" transform="translate(-544.241 -302.816)" fill="#9cafab"/>
            </g>
          </g>
          <g id="Grupo_70243" data-name="Grupo 70243" transform="translate(1.275)">
            <g id="Grupo_70242" data-name="Grupo 70242">
              <path id="Trazado_107207" data-name="Trazado 107207" d="M579.716,269.208a9.6,9.6,0,0,0-4.346-7.526,3.078,3.078,0,0,0-3.024-.327l0,0-.037.022-.017.01-31.535,18.212a3.057,3.057,0,0,1,3.071.305,9.6,9.6,0,0,1,4.345,7.526,3.111,3.111,0,0,1-1.18,2.749l0,0L578.38,272.05c.041-.022.081-.045.12-.069l.07-.04,0-.006A3.133,3.133,0,0,0,579.716,269.208Z" transform="translate(-540.755 -261.09)" fill="#003950"/>
            </g>
          </g>
        </g>
      </g>
      <g id="Grupo_70256" data-name="Grupo 70256" transform="translate(6.457 22.896)">
        <g id="Grupo_70247" data-name="Grupo 70247" transform="translate(33.287 1.738)">
          <g id="Grupo_70246" data-name="Grupo 70246">
            <path id="Trazado_107208" data-name="Trazado 107208" d="M601.349,249.519l7.939-4.584a.628.628,0,0,0-.628-1.088l-7.934,4.581A2.891,2.891,0,0,0,601.349,249.519Z" transform="translate(-600.726 -243.763)" fill="#9cafab"/>
          </g>
        </g>
        <g id="Grupo_70255" data-name="Grupo 70255">
          <g id="Grupo_70252" data-name="Grupo 70252" transform="translate(0 18.217)">
            <g id="Grupo_70250" data-name="Grupo 70250">
              <g id="Grupo_70248" data-name="Grupo 70248">
                <path id="Trazado_107209" data-name="Trazado 107209" d="M547.058,282.755c0,2.771-1.946,3.894-4.346,2.509a9.606,9.606,0,0,1-4.345-7.526c0-2.771,1.946-3.895,4.346-2.509A9.6,9.6,0,0,1,547.058,282.755Z" transform="translate(-538.367 -274.635)" fill="#25ced1"/>
              </g>
              <g id="Grupo_70249" data-name="Grupo 70249" transform="translate(3.135 4.049)">
                <path id="Trazado_107210" data-name="Trazado 107210" d="M546.661,284.481c0,.772-.542,1.085-1.21.7a2.674,2.674,0,0,1-1.21-2.1c0-.771.542-1.084,1.21-.7A2.676,2.676,0,0,1,546.661,284.481Z" transform="translate(-544.241 -282.22)" fill="#5b6664"/>
              </g>
            </g>
            <g id="Grupo_70251" data-name="Grupo 70251" transform="translate(3.135 4.056)">
              <path id="Trazado_107211" data-name="Trazado 107211" d="M546.273,284.586a2.673,2.673,0,0,1-1.209-2.1,1.373,1.373,0,0,1,.021-.238c-.488-.1-.844.214-.844.838a2.675,2.675,0,0,0,1.21,2.1c.594.343,1.085.132,1.188-.461A1.209,1.209,0,0,1,546.273,284.586Z" transform="translate(-544.241 -282.234)" fill="#9cafab"/>
            </g>
          </g>
          <g id="Grupo_70254" data-name="Grupo 70254" transform="translate(1.275)">
            <g id="Grupo_70253" data-name="Grupo 70253">
              <path id="Trazado_107212" data-name="Trazado 107212" d="M579.716,248.625a9.606,9.606,0,0,0-4.346-7.526,3.078,3.078,0,0,0-3.024-.327l0,0-.037.021-.017.01-31.535,18.212a3.055,3.055,0,0,1,3.071.305,9.6,9.6,0,0,1,4.345,7.526,3.11,3.11,0,0,1-1.18,2.749l0,0,31.387-18.129c.041-.022.081-.045.12-.069l.07-.041,0-.006A3.133,3.133,0,0,0,579.716,248.625Z" transform="translate(-540.755 -240.507)" fill="#046163"/>
            </g>
          </g>
        </g>
      </g>
      <g id="Grupo_70267" data-name="Grupo 70267" transform="translate(6.457 11.909)">
        <g id="Grupo_70258" data-name="Grupo 70258" transform="translate(33.287 1.738)">
          <g id="Grupo_70257" data-name="Grupo 70257">
            <path id="Trazado_107213" data-name="Trazado 107213" d="M601.349,228.936l7.939-4.583a.628.628,0,1,0-.628-1.088l-7.934,4.58A2.883,2.883,0,0,0,601.349,228.936Z" transform="translate(-600.726 -223.18)" fill="#9cafab"/>
          </g>
        </g>
        <g id="Grupo_70266" data-name="Grupo 70266">
          <g id="Grupo_70263" data-name="Grupo 70263" transform="translate(0 18.217)">
            <g id="Grupo_70261" data-name="Grupo 70261">
              <g id="Grupo_70259" data-name="Grupo 70259">
                <path id="Trazado_107214" data-name="Trazado 107214" d="M547.058,262.172c0,2.771-1.946,3.895-4.346,2.509a9.606,9.606,0,0,1-4.345-7.526c0-2.771,1.946-3.894,4.346-2.509A9.605,9.605,0,0,1,547.058,262.172Z" transform="translate(-538.367 -254.053)" fill="#ff8a5b"/>
              </g>
              <g id="Grupo_70260" data-name="Grupo 70260" transform="translate(3.135 4.049)">
                <path id="Trazado_107215" data-name="Trazado 107215" d="M546.661,263.9c0,.771-.542,1.084-1.21.7a2.673,2.673,0,0,1-1.21-2.1c0-.772.542-1.085,1.21-.7A2.675,2.675,0,0,1,546.661,263.9Z" transform="translate(-544.241 -261.637)" fill="#5b6664"/>
              </g>
            </g>
            <g id="Grupo_70262" data-name="Grupo 70262" transform="translate(3.135 4.056)">
              <path id="Trazado_107216" data-name="Trazado 107216" d="M546.273,264a2.671,2.671,0,0,1-1.209-2.1,1.378,1.378,0,0,1,.021-.238c-.488-.1-.844.215-.844.838a2.673,2.673,0,0,0,1.21,2.1c.594.343,1.085.132,1.188-.461A1.225,1.225,0,0,1,546.273,264Z" transform="translate(-544.241 -261.651)" fill="#9cafab"/>
            </g>
          </g>
          <g id="Grupo_70265" data-name="Grupo 70265" transform="translate(1.275)">
            <g id="Grupo_70264" data-name="Grupo 70264">
              <path id="Trazado_107217" data-name="Trazado 107217" d="M579.716,228.042a9.6,9.6,0,0,0-4.346-7.526,3.079,3.079,0,0,0-3.024-.327l0,0-.037.022-.017.01L540.755,238.43a3.055,3.055,0,0,1,3.071.305,9.605,9.605,0,0,1,4.345,7.526,3.111,3.111,0,0,1-1.18,2.749l0,0,31.387-18.129c.041-.022.081-.045.12-.069l.07-.04,0-.006A3.134,3.134,0,0,0,579.716,228.042Z" transform="translate(-540.755 -219.925)" fill="#ff6324"/>
            </g>
          </g>
        </g>
      </g>
      <g id="Grupo_70278" data-name="Grupo 70278" transform="translate(6.457 0.922)">
        <g id="Grupo_70269" data-name="Grupo 70269" transform="translate(33.287 1.738)">
          <g id="Grupo_70268" data-name="Grupo 70268">
            <path id="Trazado_107218" data-name="Trazado 107218" d="M601.349,208.354l7.939-4.584a.628.628,0,0,0-.628-1.088l-7.934,4.58A2.889,2.889,0,0,0,601.349,208.354Z" transform="translate(-600.726 -202.598)" fill="#9cafab"/>
          </g>
        </g>
        <g id="Grupo_70277" data-name="Grupo 70277">
          <g id="Grupo_70274" data-name="Grupo 70274" transform="translate(0 18.217)">
            <g id="Grupo_70272" data-name="Grupo 70272">
              <g id="Grupo_70270" data-name="Grupo 70270">
                <path id="Trazado_107219" data-name="Trazado 107219" d="M547.058,241.589c0,2.771-1.946,3.895-4.346,2.509a9.606,9.606,0,0,1-4.345-7.526c0-2.771,1.946-3.895,4.346-2.509A9.6,9.6,0,0,1,547.058,241.589Z" transform="translate(-538.367 -233.47)" fill="#ea526f"/>
              </g>
              <g id="Grupo_70271" data-name="Grupo 70271" transform="translate(3.135 4.049)">
                <path id="Trazado_107220" data-name="Trazado 107220" d="M546.661,243.316c0,.772-.542,1.085-1.21.7a2.675,2.675,0,0,1-1.21-2.1c0-.771.542-1.084,1.21-.7A2.676,2.676,0,0,1,546.661,243.316Z" transform="translate(-544.241 -241.055)" fill="#5b6664"/>
              </g>
            </g>
            <g id="Grupo_70273" data-name="Grupo 70273" transform="translate(3.135 4.056)">
              <path id="Trazado_107221" data-name="Trazado 107221" d="M546.273,243.421a2.673,2.673,0,0,1-1.209-2.1,1.373,1.373,0,0,1,.021-.238c-.488-.1-.844.214-.844.838a2.675,2.675,0,0,0,1.21,2.1c.594.343,1.085.132,1.188-.461A1.208,1.208,0,0,1,546.273,243.421Z" transform="translate(-544.241 -241.069)" fill="#9cafab"/>
            </g>
          </g>
          <g id="Grupo_70276" data-name="Grupo 70276" transform="translate(1.275)">
            <g id="Grupo_70275" data-name="Grupo 70275">
              <path id="Trazado_107222" data-name="Trazado 107222" d="M579.716,207.46a9.6,9.6,0,0,0-4.346-7.526,3.078,3.078,0,0,0-3.024-.327l0,0-.037.021-.017.01-31.535,18.212a3.054,3.054,0,0,1,3.071.305,9.6,9.6,0,0,1,4.345,7.526,3.111,3.111,0,0,1-1.18,2.749l0,0L578.38,210.3c.041-.022.081-.045.12-.069l.07-.041,0-.006A3.133,3.133,0,0,0,579.716,207.46Z" transform="translate(-540.755 -199.342)" fill="#981d34"/>
            </g>
          </g>
        </g>
      </g>
      <g id="Grupo_70291" data-name="Grupo 70291" transform="translate(0 22.211)">
        <g id="Grupo_70279" data-name="Grupo 70279" transform="translate(4.936)">
          <path id="Trazado_107223" data-name="Trazado 107223" d="M535.518,240.159l1.62.936,1.621-.936-1.621-.936Z" transform="translate(-535.518 -239.224)" fill="#bdd4cf"/>
        </g>
        <g id="Grupo_70290" data-name="Grupo 70290" transform="translate(0 0.936)">
          <g id="Grupo_70280" data-name="Grupo 70280" transform="translate(19.624 47.247)">
            <path id="Trazado_107224" data-name="Trazado 107224" d="M563.035,333.153l1.621.936v-3.665l-1.621-.936Z" transform="translate(-563.035 -329.489)" fill="#9cafab"/>
          </g>
          <g id="Grupo_70281" data-name="Grupo 70281" transform="translate(0 34.405)">
            <path id="Trazado_107225" data-name="Trazado 107225" d="M526.271,307.005l21.245,12.2v-1.575l-21.245-12.2Z" transform="translate(-526.271 -305.43)" fill="#9cafab"/>
          </g>
          <g id="Grupo_70284" data-name="Grupo 70284">
            <g id="Grupo_70282" data-name="Grupo 70282" transform="translate(0 33.469)">
              <path id="Trazado_107226" data-name="Trazado 107226" d="M526.271,304.613l21.245,12.2,1.621-.936-21.245-12.2Z" transform="translate(-526.271 -303.677)" fill="#bdd4cf"/>
            </g>
            <g id="Grupo_70283" data-name="Grupo 70283" transform="translate(6.556)">
              <path id="Trazado_107227" data-name="Trazado 107227" d="M538.554,241.912V279.16l1.621-.936V240.977Z" transform="translate(-538.554 -240.977)" fill="#5b6664"/>
            </g>
          </g>
          <g id="Grupo_70285" data-name="Grupo 70285" transform="translate(4.936)">
            <path id="Trazado_107228" data-name="Trazado 107228" d="M535.518,240.977v37.248l1.62.936V241.912Z" transform="translate(-535.518 -240.977)" fill="#9cafab"/>
          </g>
          <g id="Grupo_70286" data-name="Grupo 70286" transform="translate(21.245 45.672)">
            <path id="Trazado_107229" data-name="Trazado 107229" d="M567.691,326.538v1.575l-1.621.936v-1.575Z" transform="translate(-566.071 -326.538)" fill="#5b6664"/>
          </g>
          <g id="Grupo_70287" data-name="Grupo 70287" transform="translate(21.245 47.247)">
            <path id="Trazado_107230" data-name="Trazado 107230" d="M566.071,330.424v3.665l1.621-.936v-3.665Z" transform="translate(-566.071 -329.489)" fill="#5b6664"/>
          </g>
          <g id="Grupo_70288" data-name="Grupo 70288" transform="translate(0 35.98)">
            <path id="Trazado_107231" data-name="Trazado 107231" d="M526.271,312.046l1.621.936v-3.665l-1.621-.936Z" transform="translate(-526.271 -308.381)" fill="#9cafab"/>
          </g>
          <g id="Grupo_70289" data-name="Grupo 70289" transform="translate(1.621 36.915)">
            <path id="Trazado_107232" data-name="Trazado 107232" d="M529.307,310.134V313.8l1.621-.936v-1.793Z" transform="translate(-529.307 -310.134)" fill="#5b6664"/>
          </g>
        </g>
      </g>
      <g id="Grupo_70300" data-name="Grupo 70300" transform="translate(3.03 23.751)">
        <g id="Grupo_70293" data-name="Grupo 70293" transform="translate(0 32.96)">
          <g id="Grupo_70292" data-name="Grupo 70292">
            <path id="Trazado_107233" data-name="Trazado 107233" d="M540.2,303.856l-7.939,4.584a.628.628,0,0,0,.628,1.088l7.933-4.58A2.88,2.88,0,0,0,540.2,303.856Z" transform="translate(-531.948 -303.856)" fill="#bdd4cf"/>
          </g>
        </g>
        <g id="Grupo_70295" data-name="Grupo 70295" transform="translate(0 21.973)">
          <g id="Grupo_70294" data-name="Grupo 70294">
            <path id="Trazado_107234" data-name="Trazado 107234" d="M540.2,283.274l-7.939,4.584a.628.628,0,1,0,.628,1.088l7.933-4.58A2.875,2.875,0,0,0,540.2,283.274Z" transform="translate(-531.948 -283.274)" fill="#bdd4cf"/>
          </g>
        </g>
        <g id="Grupo_70297" data-name="Grupo 70297" transform="translate(0 10.986)">
          <g id="Grupo_70296" data-name="Grupo 70296">
            <path id="Trazado_107235" data-name="Trazado 107235" d="M540.2,262.691l-7.939,4.584a.628.628,0,0,0,.628,1.088l7.933-4.58A2.88,2.88,0,0,0,540.2,262.691Z" transform="translate(-531.948 -262.691)" fill="#bdd4cf"/>
          </g>
        </g>
        <g id="Grupo_70299" data-name="Grupo 70299">
          <g id="Grupo_70298" data-name="Grupo 70298">
            <path id="Trazado_107236" data-name="Trazado 107236" d="M540.2,242.109l-7.939,4.583a.628.628,0,1,0,.628,1.088l7.933-4.58A2.874,2.874,0,0,0,540.2,242.109Z" transform="translate(-531.948 -242.109)" fill="#bdd4cf"/>
          </g>
        </g>
      </g>
    </g>
  </g>
</svg>
