<svg xmlns="http://www.w3.org/2000/svg" width="236.619" height="199.36" viewBox="0 0 236.619 199.36">
  <g id="Grupo_70729" data-name="Grupo 70729" transform="translate(0)">
    <g id="Grupo_70451" data-name="Grupo 70451">
      <g id="Grupo_70443" data-name="Grupo 70443">
        <g id="Grupo_70393" data-name="Grupo 70393">
          <g id="Grupo_70381" data-name="Grupo 70381" transform="translate(45.128 82.082)">
            <g id="Grupo_70374" data-name="Grupo 70374">
              <path id="Trazado_107284" data-name="Trazado 107284" d="M949.565,306.9v-8.207l-73.181-42.276v8.207l17.366,10.026V333.24l-17.366-10.026v8.207L949.563,373.7v-4.1l-8.918-9.252-39.789-23V278.755Z" transform="translate(-876.383 -256.418)" fill="#9cafab"/>
            </g>
            <g id="Grupo_70375" data-name="Grupo 70375" transform="translate(73.181 110.366)">
              <path id="Trazado_107285" data-name="Trazado 107285" d="M924.374,331.6l4.873-2.809v4.1l-4.873,2.809Z" transform="translate(-924.374 -328.796)" fill="#5b6664"/>
            </g>
            <g id="Grupo_70376" data-name="Grupo 70376" transform="translate(64.262 101.114)">
              <path id="Trazado_107286" data-name="Trazado 107286" d="M918.526,325.537l4.873-2.809,8.918,9.253-4.873,2.809Z" transform="translate(-918.526 -322.728)" fill="#b1c7c2"/>
            </g>
            <g id="Grupo_70377" data-name="Grupo 70377" transform="translate(24.474 78.116)">
              <path id="Trazado_107287" data-name="Trazado 107287" d="M897.305,307.646l-4.873,2.809,39.789,23,4.873-2.809Z" transform="translate(-892.432 -307.646)" fill="#bdd4cf"/>
            </g>
            <g id="Grupo_70378" data-name="Grupo 70378" transform="translate(24.474 53.357)">
              <path id="Trazado_107288" data-name="Trazado 107288" d="M892.433,291.41l4.873,2.813v21.945l-4.873,2.809Z" transform="translate(-892.432 -291.41)" fill="#5b6664"/>
            </g>
            <g id="Grupo_70379" data-name="Grupo 70379" transform="translate(0 63.986)">
              <path id="Trazado_107289" data-name="Trazado 107289" d="M881.256,298.38l-4.873,2.809,17.366,10.026v-5.622Z" transform="translate(-876.383 -298.38)" fill="#bdd4cf"/>
            </g>
            <g id="Grupo_70380" data-name="Grupo 70380" transform="translate(73.008 39.167)">
              <path id="Trazado_107290" data-name="Trazado 107290" d="M924.375,293.317l4.873-2.809V282.3l-4.873,2.809Z" transform="translate(-924.201 -282.001)" fill="#fff"/>
              <path id="Trazado_107291" data-name="Trazado 107291" d="M924.261,293.722v-8.611l5.221-3.007v8.606Zm.348-8.408v7.8l4.524-2.608v-7.8Z" transform="translate(-924.261 -282.104)" fill="#231f20"/>
            </g>
          </g>
          <g id="Grupo_70389" data-name="Grupo 70389" transform="translate(143.578 25.063)">
            <g id="Grupo_70382" data-name="Grupo 70382" transform="translate(0.349)">
              <path id="Trazado_107292" data-name="Trazado 107292" d="M1014.357,269.508V261.3l-73.181-42.276v8.207l17.366,10.026v58.588l-17.367-10.026v8.207l73.181,42.276v-4.1l-8.919-9.252-39.789-23V241.362Z" transform="translate(-941.175 -219.025)" fill="#9cafab"/>
            </g>
            <g id="Grupo_70383" data-name="Grupo 70383" transform="translate(73.53 110.366)">
              <path id="Trazado_107293" data-name="Trazado 107293" d="M989.167,294.212l4.873-2.809v4.1l-4.873,2.809Z" transform="translate(-989.167 -291.403)" fill="#5b6664"/>
            </g>
            <g id="Grupo_70384" data-name="Grupo 70384" transform="translate(64.612 101.114)">
              <path id="Trazado_107294" data-name="Trazado 107294" d="M983.318,288.144l4.873-2.809,8.919,9.253-4.873,2.809Z" transform="translate(-983.318 -285.335)" fill="#b1c7c2"/>
            </g>
            <g id="Grupo_70385" data-name="Grupo 70385" transform="translate(24.823 78.116)">
              <path id="Trazado_107295" data-name="Trazado 107295" d="M962.1,270.254l-4.873,2.809,39.788,23,4.873-2.809Z" transform="translate(-957.225 -270.254)" fill="#bdd4cf"/>
            </g>
            <g id="Grupo_70386" data-name="Grupo 70386" transform="translate(24.65 53.056)">
              <path id="Trazado_107296" data-name="Trazado 107296" d="M957.225,254.017l4.873,2.813v21.945l-4.873,2.809Z" transform="translate(-957.051 -253.715)" fill="#fff"/>
              <path id="Trazado_107297" data-name="Trazado 107297" d="M957.111,281.991V253.819l5.221,3.015v22.147Zm.348-27.568v26.964l4.524-2.608V257.035Z" transform="translate(-957.111 -253.819)" fill="#231f20"/>
            </g>
            <g id="Grupo_70387" data-name="Grupo 70387" transform="translate(0 63.786)">
              <path id="Trazado_107298" data-name="Trazado 107298" d="M946.048,260.987l-4.873,2.809,17.366,10.026V268.2Z" transform="translate(-940.826 -260.787)" fill="#fff"/>
              <path id="Trazado_107299" data-name="Trazado 107299" d="M958.836,274.194l-17.89-10.329,5.223-3.009,12.667,7.312Zm-17.191-10.329,16.843,9.724v-5.22l-12.319-7.111Z" transform="translate(-940.946 -260.856)" fill="#231f20"/>
            </g>
            <g id="Grupo_70388" data-name="Grupo 70388" transform="translate(73.531 39.467)">
              <path id="Trazado_107300" data-name="Trazado 107300" d="M989.167,255.924l4.872-2.809v-8.207l-4.873,2.809Z" transform="translate(-989.167 -244.908)" fill="#5b6664"/>
            </g>
          </g>
          <g id="Grupo_70390" data-name="Grupo 70390" transform="translate(84.384 48.72)">
            <path id="Trazado_107301" data-name="Trazado 107301" d="M1054.362,241.9l-152.236,87.9v-7.358l152.236-87.9Z" transform="translate(-902.127 -234.54)" fill="#b3a584"/>
          </g>
          <g id="Grupo_70391" data-name="Grupo 70391">
            <path id="Trazado_107302" data-name="Trazado 107302" d="M1083.407,251.31l-152.235,87.9-84.384-48.72,152.235-87.9Z" transform="translate(-846.788 -202.59)" fill="#f3e8cc"/>
          </g>
          <g id="Grupo_70392" data-name="Grupo 70392" transform="translate(0 87.896)">
            <path id="Trazado_107303" data-name="Trazado 107303" d="M846.788,260.231v7.358l84.384,48.72v-7.358Z" transform="translate(-846.788 -260.231)" fill="#d4c398"/>
          </g>
        </g>
        <g id="Grupo_70394" data-name="Grupo 70394" transform="translate(16.326 9.426)">
          <path id="Trazado_107304" data-name="Trazado 107304" d="M1061.462,257.491,941.879,326.535l-84.384-48.72,119.583-69.043Z" transform="translate(-857.495 -208.771)" fill="#0075a4"/>
        </g>
        <g id="Grupo_70395" data-name="Grupo 70395" transform="translate(100.71 58.146)">
          <path id="Trazado_107305" data-name="Trazado 107305" d="M912.833,309.765v47.841l119.583-69.043V240.722Z" transform="translate(-912.833 -240.722)" fill="#005171"/>
        </g>
        <g id="Grupo_70402" data-name="Grupo 70402" transform="translate(72.588 45.019)">
          <g id="Grupo_70398" data-name="Grupo 70398">
            <g id="Grupo_70396" data-name="Grupo 70396" transform="translate(0 23.799)">
              <path id="Trazado_107306" data-name="Trazado 107306" d="M937.028,259.869l-21.677,12.515-20.846-12.036,21.676-12.515Z" transform="translate(-894.331 -247.66)" fill="#0075a4"/>
              <path id="Trazado_107307" data-name="Trazado 107307" d="M915.411,272.618a.181.181,0,0,1-.087-.023l-20.845-12.034a.175.175,0,0,1,0-.3l21.676-12.514a.176.176,0,0,1,.174,0l20.846,12.034a.176.176,0,0,1,.087.151.174.174,0,0,1-.087.151L915.5,272.6A.174.174,0,0,1,915.411,272.618Zm-20.5-12.21,20.5,11.835,21.328-12.315-20.5-11.833Z" transform="translate(-894.391 -247.72)" fill="#fff"/>
            </g>
            <g id="Grupo_70397" data-name="Grupo 70397" transform="translate(21.678)">
              <path id="Trazado_107308" data-name="Trazado 107308" d="M929.567,268.061l30.8-29.817-10.423-6.018-41.22,23.8Z" transform="translate(-908.547 -232.053)" fill="#0075a4"/>
              <path id="Trazado_107309" data-name="Trazado 107309" d="M929.626,268.3a.183.183,0,0,1-.087-.024l-20.845-12.034a.174.174,0,0,1,0-.3l41.219-23.8a.179.179,0,0,1,.175,0l10.423,6.017a.174.174,0,0,1,.033.276l-30.8,29.816A.172.172,0,0,1,929.626,268.3Zm-20.5-12.21L929.6,267.9l30.535-29.564L950,232.488Z" transform="translate(-908.607 -232.113)" fill="#fff"/>
            </g>
          </g>
          <g id="Grupo_70401" data-name="Grupo 70401" transform="translate(33.61 13.387)">
            <g id="Grupo_70399" data-name="Grupo 70399" transform="translate(30.797)">
              <path id="Trazado_107310" data-name="Trazado 107310" d="M936.743,253.521l21.677-12.515,20.846,12.036L957.59,265.557Z" transform="translate(-936.569 -240.832)" fill="#0075a4"/>
              <path id="Trazado_107311" data-name="Trazado 107311" d="M957.649,265.792a.177.177,0,0,1-.087-.023l-20.847-12.036a.176.176,0,0,1,0-.3l21.678-12.515a.177.177,0,0,1,.174,0l20.845,12.036a.175.175,0,0,1,.089.151.173.173,0,0,1-.089.151l-21.676,12.516A.175.175,0,0,1,957.649,265.792Zm-20.5-12.21,20.5,11.835L978.978,253.1l-20.5-11.834Z" transform="translate(-936.629 -240.892)" fill="#fff"/>
            </g>
            <g id="Grupo_70400" data-name="Grupo 70400" transform="translate(0 12.515)">
              <path id="Trazado_107312" data-name="Trazado 107312" d="M947.344,249.214l-30.8,29.817,10.423,6.018,41.22-23.8Z" transform="translate(-916.372 -249.04)" fill="#0075a4"/>
              <path id="Trazado_107313" data-name="Trazado 107313" d="M927.03,285.282a.18.18,0,0,1-.087-.023l-10.422-6.019a.173.173,0,0,1-.035-.276l30.8-29.817a.179.179,0,0,1,.209-.026l20.845,12.037a.175.175,0,0,1,0,.3l-41.22,23.8A.172.172,0,0,1,927.03,285.282Zm-10.136-6.229,10.136,5.854,40.871-23.6-20.47-11.819Z" transform="translate(-916.432 -249.1)" fill="#fff"/>
            </g>
          </g>
        </g>
        <g id="Grupo_70442" data-name="Grupo 70442" transform="translate(122.251 8.334)">
          <g id="Grupo_70403" data-name="Grupo 70403" transform="translate(0 2.673)">
            <path id="Trazado_107314" data-name="Trazado 107314" d="M1007.534,258.64,926.96,212.119v-2.312l80.574,46.521Z" transform="translate(-926.96 -209.808)" fill="#d6973a"/>
          </g>
          <g id="Grupo_70440" data-name="Grupo 70440">
            <g id="Grupo_70404" data-name="Grupo 70404">
              <path id="Trazado_107315" data-name="Trazado 107315" d="M1007.534,257.248,926.96,210.728l4.629-2.673,80.574,46.521Z" transform="translate(-926.96 -208.055)" fill="#f5b659"/>
            </g>
            <g id="Grupo_70439" data-name="Grupo 70439" transform="translate(7.708 3.221)">
              <g id="Grupo_70405" data-name="Grupo 70405">
                <path id="Trazado_107316" data-name="Trazado 107316" d="M932.189,212.032a.171.171,0,0,1-.151-.087.173.173,0,0,1,.064-.238l2.627-1.517a.176.176,0,0,1,.238.064.174.174,0,0,1-.064.238l-2.627,1.517A.18.18,0,0,1,932.189,212.032Z" transform="translate(-932.015 -210.167)" fill="#a90d01"/>
              </g>
              <g id="Grupo_70406" data-name="Grupo 70406" transform="translate(3.379 1.203)">
                <path id="Trazado_107317" data-name="Trazado 107317" d="M934.4,212.075a.174.174,0,0,1-.087-.325l1.334-.772a.175.175,0,0,1,.175.3l-1.336.77A.171.171,0,0,1,934.4,212.075Z" transform="translate(-934.23 -210.956)" fill="#a90d01"/>
              </g>
              <g id="Grupo_70407" data-name="Grupo 70407" transform="translate(5.463 2.407)">
                <path id="Trazado_107318" data-name="Trazado 107318" d="M935.771,212.865a.175.175,0,0,1-.087-.326l1.336-.769a.172.172,0,0,1,.238.064.176.176,0,0,1-.064.238l-1.334.77A.2.2,0,0,1,935.771,212.865Z" transform="translate(-935.597 -211.746)" fill="#a90d01"/>
              </g>
              <g id="Grupo_70408" data-name="Grupo 70408" transform="translate(7.549 3.613)">
                <path id="Trazado_107319" data-name="Trazado 107319" d="M937.139,213.655a.174.174,0,0,1-.151-.087.176.176,0,0,1,.064-.238l1.334-.772a.175.175,0,0,1,.176.3l-1.336.77A.177.177,0,0,1,937.139,213.655Z" transform="translate(-936.965 -212.537)" fill="#a90d01"/>
              </g>
              <g id="Grupo_70409" data-name="Grupo 70409" transform="translate(9.634 4.816)">
                <path id="Trazado_107320" data-name="Trazado 107320" d="M938.507,214.444a.174.174,0,0,1-.087-.325l1.334-.77a.174.174,0,0,1,.174.3l-1.335.77A.179.179,0,0,1,938.507,214.444Z" transform="translate(-938.332 -213.326)" fill="#a90d01"/>
              </g>
              <g id="Grupo_70410" data-name="Grupo 70410" transform="translate(10.426 6.02)">
                <path id="Trazado_107321" data-name="Trazado 107321" d="M939.026,215.98a.174.174,0,0,1-.087-.325l2.627-1.517a.176.176,0,0,1,.238.064.173.173,0,0,1-.064.238l-2.627,1.517A.178.178,0,0,1,939.026,215.98Z" transform="translate(-938.852 -214.115)" fill="#a90d01"/>
              </g>
              <g id="Grupo_70411" data-name="Grupo 70411" transform="translate(13.804 7.224)">
                <path id="Trazado_107322" data-name="Trazado 107322" d="M941.242,216.023a.174.174,0,0,1-.088-.325l1.336-.772a.175.175,0,0,1,.174.3l-1.334.77A.178.178,0,0,1,941.242,216.023Z" transform="translate(-941.067 -214.905)" fill="#a90d01"/>
              </g>
              <g id="Grupo_70412" data-name="Grupo 70412" transform="translate(15.89 8.428)">
                <path id="Trazado_107323" data-name="Trazado 107323" d="M942.609,216.813a.175.175,0,0,1-.087-.326l1.334-.77a.175.175,0,1,1,.176.3l-1.336.772A.191.191,0,0,1,942.609,216.813Z" transform="translate(-942.435 -215.694)" fill="#a90d01"/>
              </g>
              <g id="Grupo_70413" data-name="Grupo 70413" transform="translate(17.975 9.631)">
                <path id="Trazado_107324" data-name="Trazado 107324" d="M943.976,217.6a.174.174,0,0,1-.087-.325l1.334-.772a.175.175,0,0,1,.175.3l-1.335.77A.181.181,0,0,1,943.976,217.6Z" transform="translate(-943.802 -216.483)" fill="#a90d01"/>
              </g>
              <g id="Grupo_70414" data-name="Grupo 70414" transform="translate(20.06 10.836)">
                <path id="Trazado_107325" data-name="Trazado 107325" d="M945.344,218.392a.175.175,0,0,1-.087-.326l1.334-.769a.174.174,0,1,1,.174.3l-1.334.769A.162.162,0,0,1,945.344,218.392Z" transform="translate(-945.17 -217.274)" fill="#a90d01"/>
              </g>
              <g id="Grupo_70415" data-name="Grupo 70415" transform="translate(20.853 12.041)">
                <path id="Trazado_107326" data-name="Trazado 107326" d="M945.864,219.928a.174.174,0,0,1-.087-.325l2.627-1.517a.178.178,0,0,1,.238.064.176.176,0,0,1-.064.238l-2.627,1.517A.181.181,0,0,1,945.864,219.928Z" transform="translate(-945.69 -218.064)" fill="#a90d01"/>
              </g>
              <g id="Grupo_70416" data-name="Grupo 70416" transform="translate(24.23 13.244)">
                <path id="Trazado_107327" data-name="Trazado 107327" d="M948.079,219.971a.174.174,0,0,1-.087-.325l1.334-.77a.175.175,0,1,1,.176.3l-1.336.77A.178.178,0,0,1,948.079,219.971Z" transform="translate(-947.904 -218.853)" fill="#a90d01"/>
              </g>
              <g id="Grupo_70417" data-name="Grupo 70417" transform="translate(26.316 14.447)">
                <path id="Trazado_107328" data-name="Trazado 107328" d="M949.447,220.761a.175.175,0,0,1-.089-.326l1.334-.77a.175.175,0,1,1,.176.3l-1.334.772A.2.2,0,0,1,949.447,220.761Z" transform="translate(-949.272 -219.642)" fill="#a90d01"/>
              </g>
              <g id="Grupo_70418" data-name="Grupo 70418" transform="translate(28.402 15.652)">
                <path id="Trazado_107329" data-name="Trazado 107329" d="M950.814,221.55a.174.174,0,0,1-.087-.325l1.334-.772a.178.178,0,0,1,.238.064.173.173,0,0,1-.064.238l-1.334.772A.175.175,0,0,1,950.814,221.55Z" transform="translate(-950.64 -220.432)" fill="#a90d01"/>
              </g>
              <g id="Grupo_70419" data-name="Grupo 70419" transform="translate(30.486 16.855)">
                <path id="Trazado_107330" data-name="Trazado 107330" d="M952.181,222.34a.175.175,0,0,1-.087-.326l1.336-.77a.174.174,0,1,1,.174.3l-1.334.77A.183.183,0,0,1,952.181,222.34Z" transform="translate(-952.007 -221.221)" fill="#a90d01"/>
              </g>
              <g id="Grupo_70420" data-name="Grupo 70420" transform="translate(31.279 18.059)">
                <path id="Trazado_107331" data-name="Trazado 107331" d="M952.7,223.875a.174.174,0,0,1-.087-.325l2.628-1.517a.177.177,0,0,1,.238.064.173.173,0,0,1-.064.238l-2.628,1.517A.173.173,0,0,1,952.7,223.875Z" transform="translate(-952.527 -222.01)" fill="#a90d01"/>
              </g>
              <g id="Grupo_70421" data-name="Grupo 70421" transform="translate(34.657 19.262)">
                <path id="Trazado_107332" data-name="Trazado 107332" d="M954.917,223.918a.174.174,0,0,1-.087-.325l1.335-.77a.173.173,0,0,1,.238.064.178.178,0,0,1-.064.239L955,223.9A.182.182,0,0,1,954.917,223.918Z" transform="translate(-954.742 -222.799)" fill="#a90d01"/>
              </g>
              <g id="Grupo_70422" data-name="Grupo 70422" transform="translate(36.743 20.468)">
                <path id="Trazado_107333" data-name="Trazado 107333" d="M956.284,224.709a.175.175,0,0,1-.087-.326l1.334-.77a.174.174,0,1,1,.175.3l-1.336.772A.189.189,0,0,1,956.284,224.709Z" transform="translate(-956.11 -223.59)" fill="#a90d01"/>
              </g>
              <g id="Grupo_70423" data-name="Grupo 70423" transform="translate(38.827 21.671)">
                <path id="Trazado_107334" data-name="Trazado 107334" d="M957.651,225.5a.174.174,0,0,1-.087-.325l1.336-.772a.175.175,0,0,1,.174.3l-1.334.77A.182.182,0,0,1,957.651,225.5Z" transform="translate(-957.477 -224.379)" fill="#a90d01"/>
              </g>
              <g id="Grupo_70424" data-name="Grupo 70424" transform="translate(40.913 22.875)">
                <path id="Trazado_107335" data-name="Trazado 107335" d="M959.019,226.287a.173.173,0,0,1-.151-.087.176.176,0,0,1,.064-.238l1.334-.77a.174.174,0,1,1,.174.3l-1.334.77A.174.174,0,0,1,959.019,226.287Z" transform="translate(-958.845 -225.169)" fill="#a90d01"/>
              </g>
              <g id="Grupo_70425" data-name="Grupo 70425" transform="translate(41.705 24.08)">
                <path id="Trazado_107336" data-name="Trazado 107336" d="M959.539,227.823a.174.174,0,0,1-.087-.325l2.628-1.517a.178.178,0,0,1,.238.064.174.174,0,0,1-.064.238l-2.627,1.517A.181.181,0,0,1,959.539,227.823Z" transform="translate(-959.365 -225.959)" fill="#a90d01"/>
              </g>
              <g id="Grupo_70426" data-name="Grupo 70426" transform="translate(45.083 25.282)">
                <path id="Trazado_107337" data-name="Trazado 107337" d="M961.754,227.866a.174.174,0,0,1-.087-.325L963,226.77a.175.175,0,0,1,.174.3l-1.334.77A.175.175,0,0,1,961.754,227.866Z" transform="translate(-961.58 -226.747)" fill="#a90d01"/>
              </g>
              <g id="Grupo_70427" data-name="Grupo 70427" transform="translate(47.168 26.487)">
                <path id="Trazado_107338" data-name="Trazado 107338" d="M963.122,228.656a.175.175,0,0,1-.088-.326l1.336-.77a.174.174,0,0,1,.174.3l-1.334.771A.2.2,0,0,1,963.122,228.656Z" transform="translate(-962.947 -227.537)" fill="#a90d01"/>
              </g>
              <g id="Grupo_70428" data-name="Grupo 70428" transform="translate(49.254 27.692)">
                <path id="Trazado_107339" data-name="Trazado 107339" d="M964.489,229.445a.174.174,0,0,1-.087-.325l1.334-.77a.175.175,0,0,1,.175.3l-1.336.769A.157.157,0,0,1,964.489,229.445Z" transform="translate(-964.315 -228.327)" fill="#a90d01"/>
              </g>
              <g id="Grupo_70429" data-name="Grupo 70429" transform="translate(51.339 28.896)">
                <path id="Trazado_107340" data-name="Trazado 107340" d="M965.856,230.236a.175.175,0,0,1-.087-.326l1.334-.77a.174.174,0,1,1,.175.3l-1.334.77A.183.183,0,0,1,965.856,230.236Z" transform="translate(-965.682 -229.117)" fill="#a90d01"/>
              </g>
              <g id="Grupo_70430" data-name="Grupo 70430" transform="translate(52.132 30.099)">
                <path id="Trazado_107341" data-name="Trazado 107341" d="M966.376,231.771a.172.172,0,0,1-.151-.087.176.176,0,0,1,.064-.238l2.627-1.517a.177.177,0,0,1,.238.064.173.173,0,0,1-.064.238l-2.627,1.517A.178.178,0,0,1,966.376,231.771Z" transform="translate(-966.202 -229.906)" fill="#a90d01"/>
              </g>
              <g id="Grupo_70431" data-name="Grupo 70431" transform="translate(55.51 31.303)">
                <path id="Trazado_107342" data-name="Trazado 107342" d="M968.592,231.814a.171.171,0,0,1-.151-.087.174.174,0,0,1,.062-.238l1.336-.77a.175.175,0,0,1,.237.063.178.178,0,0,1-.064.239l-1.334.77A.18.18,0,0,1,968.592,231.814Z" transform="translate(-968.418 -230.696)" fill="#a90d01"/>
              </g>
              <g id="Grupo_70432" data-name="Grupo 70432" transform="translate(57.594 32.507)">
                <path id="Trazado_107343" data-name="Trazado 107343" d="M969.959,232.6a.177.177,0,0,1-.151-.087.175.175,0,0,1,.064-.239l1.334-.77a.174.174,0,0,1,.174.3l-1.335.772A.2.2,0,0,1,969.959,232.6Z" transform="translate(-969.784 -231.485)" fill="#a90d01"/>
              </g>
              <g id="Grupo_70433" data-name="Grupo 70433" transform="translate(59.68 33.71)">
                <path id="Trazado_107344" data-name="Trazado 107344" d="M971.328,233.393a.174.174,0,0,1-.089-.325l1.334-.772a.175.175,0,0,1,.175.3l-1.334.77A.179.179,0,0,1,971.328,233.393Z" transform="translate(-971.152 -232.274)" fill="#a90d01"/>
              </g>
              <g id="Grupo_70434" data-name="Grupo 70434" transform="translate(61.765 34.914)">
                <path id="Trazado_107345" data-name="Trazado 107345" d="M972.694,234.183a.175.175,0,0,1-.087-.326l1.334-.77a.174.174,0,1,1,.174.3l-1.334.77A.177.177,0,0,1,972.694,234.183Z" transform="translate(-972.52 -233.064)" fill="#a90d01"/>
              </g>
              <g id="Grupo_70435" data-name="Grupo 70435" transform="translate(62.558 36.12)">
                <path id="Trazado_107346" data-name="Trazado 107346" d="M973.214,235.719a.174.174,0,0,1-.087-.325l2.626-1.517a.178.178,0,0,1,.239.064.176.176,0,0,1-.064.238L973.3,235.7A.179.179,0,0,1,973.214,235.719Z" transform="translate(-973.039 -233.854)" fill="#a90d01"/>
              </g>
              <g id="Grupo_70436" data-name="Grupo 70436" transform="translate(65.936 37.323)">
                <path id="Trazado_107347" data-name="Trazado 107347" d="M975.429,235.762a.173.173,0,0,1-.151-.087.175.175,0,0,1,.064-.238l1.334-.772a.178.178,0,0,1,.238.064.175.175,0,0,1-.064.239l-1.334.77A.176.176,0,0,1,975.429,235.762Z" transform="translate(-975.255 -234.644)" fill="#a90d01"/>
              </g>
              <g id="Grupo_70437" data-name="Grupo 70437" transform="translate(68.021 38.527)">
                <path id="Trazado_107348" data-name="Trazado 107348" d="M976.8,236.552a.175.175,0,0,1-.089-.326l1.336-.77a.174.174,0,1,1,.174.3l-1.334.772A.2.2,0,0,1,976.8,236.552Z" transform="translate(-976.622 -235.433)" fill="#a90d01"/>
              </g>
              <g id="Grupo_70438" data-name="Grupo 70438" transform="translate(70.106 39.73)">
                <path id="Trazado_107349" data-name="Trazado 107349" d="M978.164,237.341a.174.174,0,0,1-.087-.325l1.334-.772a.175.175,0,0,1,.175.3l-1.336.77A.181.181,0,0,1,978.164,237.341Z" transform="translate(-977.989 -236.222)" fill="#a90d01"/>
              </g>
            </g>
          </g>
          <g id="Grupo_70441" data-name="Grupo 70441" transform="translate(80.574 46.52)">
            <path id="Trazado_107350" data-name="Trazado 107350" d="M979.8,241.236v2.312l4.629-2.673v-2.312Z" transform="translate(-979.8 -238.563)" fill="#bf7b17"/>
          </g>
        </g>
      </g>
      <g id="Grupo_70450" data-name="Grupo 70450" transform="translate(67.835 34.808)">
        <g id="Grupo_70446" data-name="Grupo 70446" transform="translate(0 12.462)">
          <g id="Grupo_70444" data-name="Grupo 70444">
            <path id="Trazado_107351" data-name="Trazado 107351" d="M906.611,233.7l10.367,2.8,4.855,5.985-15.222,8.789-15.222-8.789Z" transform="translate(-891.214 -233.529)" fill="#0075a4"/>
            <path id="Trazado_107352" data-name="Trazado 107352" d="M906.671,251.517a.175.175,0,0,1-.087-.023L891.363,242.7a.173.173,0,0,1-.088-.151.174.174,0,0,1,.088-.151l15.221-8.789a.172.172,0,0,1,.133-.018l10.366,2.8a.163.163,0,0,1,.09.058l4.857,5.987a.175.175,0,0,1,.035.142.172.172,0,0,1-.084.119l-15.223,8.789A.176.176,0,0,1,906.671,251.517ZM891.8,242.554l14.873,8.587L921.63,242.5l-4.693-5.784L906.7,233.95Z" transform="translate(-891.274 -233.589)" fill="#fff"/>
          </g>
          <g id="Grupo_70445" data-name="Grupo 70445" transform="translate(4.451 6.222)">
            <path id="Trazado_107353" data-name="Trazado 107353" d="M909.589,246.806a.175.175,0,0,1-.087-.023l-15.223-8.789a.175.175,0,0,1-.064-.238.177.177,0,0,1,.239-.064l15.222,8.788a.175.175,0,0,1-.087.326Z" transform="translate(-894.193 -237.669)" fill="#fff"/>
          </g>
        </g>
        <g id="Grupo_70449" data-name="Grupo 70449" transform="translate(21.585)">
          <g id="Grupo_70447" data-name="Grupo 70447">
            <path id="Trazado_107354" data-name="Trazado 107354" d="M920.765,225.532l10.366,2.8,4.856,5.985-15.222,8.789-15.222-8.789Z" transform="translate(-905.369 -225.356)" fill="#0075a4"/>
            <path id="Trazado_107355" data-name="Trazado 107355" d="M920.826,243.343a.182.182,0,0,1-.088-.023l-15.221-8.788a.178.178,0,0,1-.087-.152.176.176,0,0,1,.087-.151l15.221-8.788a.167.167,0,0,1,.133-.018l10.367,2.8a.175.175,0,0,1,.09.058l4.855,5.985a.176.176,0,0,1-.047.262l-15.222,8.788A.184.184,0,0,1,920.826,243.343Zm-14.874-8.963,14.874,8.588,14.958-8.637-4.692-5.781-10.241-2.772Z" transform="translate(-905.429 -225.417)" fill="#fff"/>
          </g>
          <g id="Grupo_70448" data-name="Grupo 70448" transform="translate(4.451 6.221)">
            <path id="Trazado_107356" data-name="Trazado 107356" d="M923.743,238.633a.182.182,0,0,1-.087-.023l-15.221-8.789a.174.174,0,0,1-.064-.238.176.176,0,0,1,.238-.064l15.223,8.789a.174.174,0,0,1-.088.325Z" transform="translate(-908.348 -229.496)" fill="#fff"/>
          </g>
        </g>
      </g>
    </g>
    <g id="Grupo_70472" data-name="Grupo 70472" transform="translate(64.698 103.747)">
      <g id="Grupo_70471" data-name="Grupo 70471">
        <g id="Grupo_70469" data-name="Grupo 70469">
          <g id="Grupo_70452" data-name="Grupo 70452" transform="translate(8.961 17.088)">
            <path id="Trazado_107357" data-name="Trazado 107357" d="M895.093,281.833v.852h.373v-.678Z" transform="translate(-895.093 -281.833)" fill="#161313"/>
          </g>
          <g id="Grupo_70453" data-name="Grupo 70453" transform="translate(0 12.03)">
            <path id="Trazado_107358" data-name="Trazado 107358" d="M889.217,278.516v.871l.368.132-.184-1Z" transform="translate(-889.217 -278.516)" fill="#161313"/>
          </g>
          <g id="Grupo_70468" data-name="Grupo 70468">
            <g id="Grupo_70454" data-name="Grupo 70454" transform="translate(13.074 0.031)">
              <path id="Trazado_107359" data-name="Trazado 107359" d="M900.669,282.146l7.594-11.209v-.287a3.084,3.084,0,0,0-1.836.746c-.759.682-8.635,8.433-8.635,8.433l1.844,1.3-.382.973Z" transform="translate(-897.791 -270.647)" fill="#5f6a73"/>
            </g>
            <g id="Grupo_70455" data-name="Grupo 70455" transform="translate(13.074)">
              <path id="Trazado_107360" data-name="Trazado 107360" d="M900.669,281.87l7.594-11.209a2.3,2.3,0,0,0-1.836.46c-.759.68-8.635,8.431-8.635,8.431l1.844,1.3-.382.974Z" transform="translate(-897.791 -270.627)" fill="#d1d1d1"/>
            </g>
            <g id="Grupo_70456" data-name="Grupo 70456" transform="translate(9.415 15.435)">
              <path id="Trazado_107361" data-name="Trazado 107361" d="M895.391,280.851v.756l.716-.858Z" transform="translate(-895.391 -280.749)" fill="#161313"/>
            </g>
            <g id="Grupo_70457" data-name="Grupo 70457" transform="translate(17.365 14.258)">
              <path id="Trazado_107362" data-name="Trazado 107362" d="M901.175,279.977v.98l-.571-.224Z" transform="translate(-900.605 -279.977)" fill="#161313"/>
            </g>
            <g id="Grupo_70458" data-name="Grupo 70458" transform="translate(11.778 2.608)">
              <path id="Trazado_107363" data-name="Trazado 107363" d="M896.941,278.793l17.824-6.456s.511.734-.517,1.285-12.847,6.4-12.847,6.4l-2.549-.817-1.592.389Z" transform="translate(-896.941 -272.337)" fill="#5f6a73"/>
            </g>
            <g id="Grupo_70459" data-name="Grupo 70459" transform="translate(11.778 2.535)">
              <path id="Trazado_107364" data-name="Trazado 107364" d="M896.941,278.584l17.768-6.295s.567.572-.46,1.124-12.847,6.4-12.847,6.4l-2.549-.817-1.592.387Z" transform="translate(-896.941 -272.289)" fill="#e1e1e1"/>
            </g>
            <g id="Grupo_70460" data-name="Grupo 70460" transform="translate(14.816 8.08)">
              <path id="Trazado_107365" data-name="Trazado 107365" d="M899.214,276.869a1.493,1.493,0,0,0,1.354,0,.413.413,0,0,0,0-.782,1.5,1.5,0,0,0-1.354,0A.413.413,0,0,0,899.214,276.869Z" transform="translate(-898.933 -275.925)" fill="#5f6a73"/>
            </g>
            <g id="Grupo_70461" data-name="Grupo 70461" transform="translate(14.816 7.835)">
              <ellipse id="Elipse_4476" data-name="Elipse 4476" cx="0.957" cy="0.553" rx="0.957" ry="0.553" fill="#d1d1d1"/>
            </g>
            <g id="Grupo_70463" data-name="Grupo 70463" transform="translate(15.188 8.08)">
              <g id="Grupo_70462" data-name="Grupo 70462">
                <path id="Trazado_107366" data-name="Trazado 107366" d="M899.3,276.489a.131.131,0,0,0,.041-.007l.906-.317a.123.123,0,0,0-.082-.232l-.906.317a.123.123,0,0,0,.041.239Z" transform="translate(-899.177 -275.926)" fill="#5f6a73"/>
              </g>
            </g>
            <g id="Grupo_70464" data-name="Grupo 70464" transform="translate(8.96 11.062)">
              <path id="Trazado_107367" data-name="Trazado 107367" d="M899.4,286.08a8.018,8.018,0,0,0,4.193-2.6,1.89,1.89,0,0,0-.557-2.958c-.372-.154-1.222-.491-1.01-.919a3.97,3.97,0,0,1,.637-.859v-.858l-2.415.689-3.532,3.817-.451.015-.717.813.293.168s-1.487,1.349-.265,2.238S898.919,286.2,899.4,286.08Zm-.647-3.9a6.733,6.733,0,0,1,1.536-1.244s1.818-.436,2.164,1.066-2.615,2.888-2.615,2.888a4.007,4.007,0,0,1-2.655.322C896.168,284.831,897.707,283.169,898.751,282.183Z" transform="translate(-895.093 -277.881)" fill="#161313"/>
            </g>
            <g id="Grupo_70465" data-name="Grupo 70465" transform="translate(0 9.039)">
              <path id="Trazado_107368" data-name="Trazado 107368" d="M890.858,282.156a5.6,5.6,0,0,0,3.728-.628l.35.128,1.22-.578-.07-.258,5.7-2.807v-.858l-.8-.468a9.11,9.11,0,0,1-1.316.543,2.486,2.486,0,0,1-1.772-.372,7.427,7.427,0,0,0-5.123.317c-2.675,1.044-3.407,2.627-3.512,2.923S889.092,281.658,890.858,282.156Zm.343-.993c-.961-.544-.023-1.566-.023-1.566a6.713,6.713,0,0,1,4.329-2.094c2.615-.126,2.265.993,2.265.993A8.064,8.064,0,0,1,896,279.629C894.548,280.429,892.067,281.653,891.2,281.163Z" transform="translate(-889.217 -276.554)" fill="#161313"/>
            </g>
            <g id="Grupo_70466" data-name="Grupo 70466" transform="translate(8.96 10.893)">
              <path id="Trazado_107369" data-name="Trazado 107369" d="M899.4,285.28a8.007,8.007,0,0,0,4.193-2.6,1.89,1.89,0,0,0-.557-2.958c-.372-.154-1.222-.491-1.01-.919a3.966,3.966,0,0,1,.637-.858l-2.415-.169-3.532,3.817-.451.015-.717.813.293.168s-1.487,1.35-.265,2.239S898.919,285.4,899.4,285.28Zm-.647-3.9a6.779,6.779,0,0,1,1.536-1.244s1.818-.436,2.164,1.066-2.615,2.89-2.615,2.89a4.016,4.016,0,0,1-2.655.322C896.168,284.031,897.707,282.369,898.751,281.382Z" transform="translate(-895.093 -277.77)" fill="#354645"/>
            </g>
            <g id="Grupo_70467" data-name="Grupo 70467" transform="translate(0 8.181)">
              <path id="Trazado_107370" data-name="Trazado 107370" d="M890.858,281.593a5.6,5.6,0,0,0,3.728-.628l.35.128,1.22-.578-.07-.258,5.7-2.807-.8-1.327a9.124,9.124,0,0,1-1.316.543,2.485,2.485,0,0,1-1.772-.372,7.424,7.424,0,0,0-5.123.319c-2.675,1.043-3.407,2.627-3.512,2.922S889.092,281.095,890.858,281.593Zm.343-.993c-.961-.544-.023-1.566-.023-1.566a6.721,6.721,0,0,1,4.329-2.094c2.615-.127,2.265.993,2.265.993A8.066,8.066,0,0,1,896,279.066C894.548,279.867,892.067,281.09,891.2,280.6Z" transform="translate(-889.217 -275.992)" fill="#354645"/>
            </g>
          </g>
        </g>
        <g id="Grupo_70470" data-name="Grupo 70470" transform="translate(5.718 12.704)">
          <path id="Trazado_107371" data-name="Trazado 107371" d="M894.188,278.958v.858l-1.221.578v-.858Z" transform="translate(-892.967 -278.958)" fill="#161313"/>
        </g>
      </g>
    </g>
  </g>
</svg>
