<svg xmlns="http://www.w3.org/2000/svg" xmlns:xlink="http://www.w3.org/1999/xlink" width="97" height="97" viewBox="0 0 97 97">
  <defs>
    <linearGradient id="linear-gradient" x1="0.5" x2="0.5" y2="1" gradientUnits="objectBoundingBox">
      <stop offset="0" stop-color="#0075a4"/>
      <stop offset="0.263" stop-color="#0075a4"/>
      <stop offset="0.498" stop-color="#25ced1"/>
      <stop offset="0.745" stop-color="#ea526f"/>
      <stop offset="1" stop-color="#ff8a5b"/>
    </linearGradient>
  </defs>
  <g id="Grupo_70741" data-name="Grupo 70741" transform="translate(-390 -4416)">
    <g id="Elipse_4496" data-name="Elipse 4496" transform="translate(390 4416)" fill="#fff" stroke="#ff8a5b" stroke-width="4">
      <circle cx="48.5" cy="48.5" r="48.5" stroke="none"/>
      <circle cx="48.5" cy="48.5" r="46.5" fill="none"/>
    </g>
    <g id="Grupo_70687" data-name="Grupo 70687" transform="translate(408.434 4439)">
      <g id="Grupo_70370" data-name="Grupo 70370">
        <g id="Grupo_70315" data-name="Grupo 70315" transform="translate(35.524 13.291)">
          <g id="Grupo_70305" data-name="Grupo 70305" transform="translate(0 11.38)">
            <g id="Grupo_70302" data-name="Grupo 70302" transform="translate(0 0.687)">
              <path id="Trazado_107237" data-name="Trazado 107237" d="M757.186,251.892V253.1l28.748,16.6v-1.212Z" transform="translate(-757.186 -251.892)" fill="#9cafab"/>
            </g>
            <g id="Grupo_70303" data-name="Grupo 70303">
              <path id="Trazado_107238" data-name="Trazado 107238" d="M757.186,250.875l1.19-.687,28.748,16.6-1.19.687Z" transform="translate(-757.186 -250.188)" fill="#bdd4cf"/>
            </g>
            <g id="Grupo_70304" data-name="Grupo 70304" transform="translate(28.748 16.596)">
              <path id="Trazado_107239" data-name="Trazado 107239" d="M828.524,293.269l1.19-.68V291.37l-1.19.687Z" transform="translate(-828.524 -291.37)" fill="#5b6664"/>
            </g>
          </g>
          <g id="Grupo_70308" data-name="Grupo 70308" transform="translate(4.131)">
            <g id="Grupo_70306" data-name="Grupo 70306">
              <path id="Trazado_107240" data-name="Trazado 107240" d="M768.355,222.609v14.207l-.8-.464V222.145Z" transform="translate(-767.504 -222.065)" fill="#fff"/>
              <path id="Trazado_107241" data-name="Trazado 107241" d="M768.332,236.778l-.9-.518V221.947l.9.517Zm-.8-.571.712.411v-14.1l-.712-.411Z" transform="translate(-767.436 -221.947)" fill="#231f20"/>
            </g>
            <g id="Grupo_70307" data-name="Grupo 70307" transform="translate(0.804)">
              <path id="Trazado_107242" data-name="Trazado 107242" d="M770.35,222.145v14.207l-.8.464V222.609Z" transform="translate(-769.5 -222.065)" fill="#fff"/>
              <path id="Trazado_107243" data-name="Trazado 107243" d="M769.432,236.778V222.464l.9-.517V236.26Zm.092-14.261v14.1l.712-.411v-14.1Z" transform="translate(-769.432 -221.947)" fill="#231f20"/>
            </g>
          </g>
          <g id="Grupo_70311" data-name="Grupo 70311" transform="translate(13.513 5.404)">
            <g id="Grupo_70309" data-name="Grupo 70309">
              <path id="Trazado_107244" data-name="Trazado 107244" d="M791.636,236.018v14.207l-.8-.464V235.554Z" transform="translate(-790.786 -235.474)" fill="#fff"/>
              <path id="Trazado_107245" data-name="Trazado 107245" d="M791.614,250.187l-.9-.517V235.356l.9.517Zm-.8-.571.712.411v-14.1l-.712-.411Z" transform="translate(-790.718 -235.356)" fill="#231f20"/>
            </g>
            <g id="Grupo_70310" data-name="Grupo 70310" transform="translate(0.804)">
              <path id="Trazado_107246" data-name="Trazado 107246" d="M793.632,235.554v14.207l-.8.464V236.018Z" transform="translate(-792.781 -235.474)" fill="#fff"/>
              <path id="Trazado_107247" data-name="Trazado 107247" d="M792.713,250.187V235.873l.9-.517V249.67Zm.092-14.261v14.1l.712-.411v-14.1Z" transform="translate(-792.713 -235.356)" fill="#231f20"/>
            </g>
          </g>
          <g id="Grupo_70314" data-name="Grupo 70314" transform="translate(22.941 10.887)">
            <g id="Grupo_70312" data-name="Grupo 70312">
              <path id="Trazado_107248" data-name="Trazado 107248" d="M814.918,249.428v14.207l-.8-.464V248.964Z" transform="translate(-814.114 -248.964)" fill="#9cafab"/>
            </g>
            <g id="Grupo_70313" data-name="Grupo 70313" transform="translate(0.804)">
              <path id="Trazado_107249" data-name="Trazado 107249" d="M816.914,248.964v14.207l-.8.464V249.428Z" transform="translate(-816.11 -248.964)" fill="#5b6664"/>
            </g>
          </g>
        </g>
        <g id="Grupo_70329" data-name="Grupo 70329" transform="translate(0 33.872)">
          <g id="Grupo_70319" data-name="Grupo 70319" transform="translate(0 11.301)">
            <g id="Grupo_70316" data-name="Grupo 70316" transform="translate(0 0.687)">
              <path id="Trazado_107250" data-name="Trazado 107250" d="M669.033,302.765v1.212l28.748,16.6v-1.212Z" transform="translate(-669.033 -302.765)" fill="#9cafab"/>
            </g>
            <g id="Grupo_70317" data-name="Grupo 70317">
              <path id="Trazado_107251" data-name="Trazado 107251" d="M669.033,301.748l1.19-.687,28.748,16.6-1.19.687Z" transform="translate(-669.033 -301.061)" fill="#bdd4cf"/>
            </g>
            <g id="Grupo_70318" data-name="Grupo 70318" transform="translate(28.748 16.596)">
              <path id="Trazado_107252" data-name="Trazado 107252" d="M740.371,344.142l1.19-.68v-1.219l-1.19.687Z" transform="translate(-740.371 -342.243)" fill="#5b6664"/>
            </g>
          </g>
          <g id="Grupo_70322" data-name="Grupo 70322" transform="translate(4.177)">
            <g id="Grupo_70320" data-name="Grupo 70320">
              <path id="Trazado_107253" data-name="Trazado 107253" d="M680.2,273.482v14.207l-.8-.464V273.017Z" transform="translate(-679.397 -273.017)" fill="#9cafab"/>
            </g>
            <g id="Grupo_70321" data-name="Grupo 70321" transform="translate(0.804)">
              <path id="Trazado_107254" data-name="Trazado 107254" d="M682.2,273.017v14.207l-.8.464V273.482Z" transform="translate(-681.393 -273.017)" fill="#5b6664"/>
            </g>
          </g>
          <g id="Grupo_70325" data-name="Grupo 70325" transform="translate(13.559 5.404)">
            <g id="Grupo_70323" data-name="Grupo 70323">
              <path id="Trazado_107255" data-name="Trazado 107255" d="M703.483,286.891V301.1l-.8-.464V286.427Z" transform="translate(-702.679 -286.427)" fill="#9cafab"/>
            </g>
            <g id="Grupo_70324" data-name="Grupo 70324" transform="translate(0.804)">
              <path id="Trazado_107256" data-name="Trazado 107256" d="M705.479,286.427v14.207l-.8.464V286.891Z" transform="translate(-704.675 -286.427)" fill="#5b6664"/>
            </g>
          </g>
          <g id="Grupo_70328" data-name="Grupo 70328" transform="translate(22.941 10.808)">
            <g id="Grupo_70326" data-name="Grupo 70326">
              <path id="Trazado_107257" data-name="Trazado 107257" d="M726.765,300.3v14.207l-.8-.464V299.836Z" transform="translate(-725.961 -299.836)" fill="#9cafab"/>
            </g>
            <g id="Grupo_70327" data-name="Grupo 70327" transform="translate(0.804)">
              <path id="Trazado_107258" data-name="Trazado 107258" d="M728.761,299.836v14.207l-.8.464V300.3Z" transform="translate(-727.957 -299.836)" fill="#5b6664"/>
            </g>
          </g>
        </g>
        <g id="Grupo_70333" data-name="Grupo 70333" transform="translate(35.478 9.468)">
          <g id="Grupo_70330" data-name="Grupo 70330" transform="translate(0 0.607)">
            <path id="Trazado_107259" data-name="Trazado 107259" d="M757.186,214.164v1.212l28.748,16.6v-1.212Z" transform="translate(-757.14 -214.084)" fill="#fff"/>
            <path id="Trazado_107260" data-name="Trazado 107260" d="M785.912,231.932l-.069-.039-28.771-16.609v-1.318l.069.04,28.771,16.609Zm-28.748-16.7,28.656,16.543v-1.105l-28.656-16.542Z" transform="translate(-757.072 -213.966)" fill="#231f20"/>
          </g>
          <g id="Grupo_70331" data-name="Grupo 70331" transform="translate(0.046)">
            <path id="Trazado_107261" data-name="Trazado 107261" d="M757.186,213.146l1.19-.687,28.748,16.6-1.19.687Z" transform="translate(-757.186 -212.459)" fill="#bdd4cf"/>
          </g>
          <g id="Grupo_70332" data-name="Grupo 70332" transform="translate(28.794 16.596)">
            <path id="Trazado_107262" data-name="Trazado 107262" d="M828.524,255.54l1.19-.68v-1.219l-1.19.687Z" transform="translate(-828.524 -253.642)" fill="#5b6664"/>
          </g>
        </g>
        <g id="Grupo_70340" data-name="Grupo 70340" transform="translate(1.19 10.155)">
          <g id="Grupo_70336" data-name="Grupo 70336">
            <g id="Grupo_70334" data-name="Grupo 70334" transform="translate(13.897 8.024)">
              <path id="Trazado_107263" data-name="Trazado 107263" d="M740.806,235.286l-34.335,19.821V253.9l34.335-19.821Z" transform="translate(-706.472 -234.074)" fill="#b3a584"/>
            </g>
            <g id="Grupo_70335" data-name="Grupo 70335">
              <path id="Trazado_107264" data-name="Trazado 107264" d="M720.218,222.187l-34.335,19.821-13.9-8.024,34.335-19.821Z" transform="translate(-671.986 -214.163)" fill="#f3e8cc"/>
            </g>
          </g>
          <g id="Grupo_70339" data-name="Grupo 70339" transform="translate(14.851 8.572)">
            <g id="Grupo_70337" data-name="Grupo 70337" transform="translate(13.897 8.024)">
              <path id="Trazado_107265" data-name="Trazado 107265" d="M777.659,256.557l-34.335,19.821v-1.212l34.335-19.821Z" transform="translate(-743.324 -255.345)" fill="#b3a584"/>
            </g>
            <g id="Grupo_70338" data-name="Grupo 70338">
              <path id="Trazado_107266" data-name="Trazado 107266" d="M757.07,243.458l-34.335,19.821-13.9-8.024,34.335-19.821Z" transform="translate(-708.838 -235.434)" fill="#f3e8cc"/>
            </g>
          </g>
        </g>
        <g id="Grupo_70343" data-name="Grupo 70343" transform="translate(38.508 0.09)">
          <g id="Grupo_70342" data-name="Grupo 70342">
            <g id="Grupo_70341" data-name="Grupo 70341">
              <path id="Trazado_107267" data-name="Trazado 107267" d="M769.617,204.085a.262.262,0,0,1-.131-.035l-4.763-2.75a.262.262,0,0,1-.131-.227V189.449a.262.262,0,0,1,.524,0v11.473l4.632,2.674a.262.262,0,0,1-.131.489Z" transform="translate(-764.592 -189.187)" fill="#9cafab"/>
            </g>
          </g>
        </g>
        <g id="Grupo_70344" data-name="Grupo 70344" transform="translate(4.105 2.997)" style="isolation: isolate">
          <path id="Trazado_107268" data-name="Trazado 107268" d="M719.189,209.855a18.9,18.9,0,0,1-7.919-8.917l-1.946-4.536-30.1,17.347,1.946,4.536a18.9,18.9,0,0,0,7.919,8.918l11.975,6.914,30.1-17.347Z" transform="translate(-679.22 -196.402)" fill="url(#linear-gradient)"/>
        </g>
        <g id="Grupo_70348" data-name="Grupo 70348" transform="translate(0 29.969)">
          <g id="Grupo_70345" data-name="Grupo 70345" transform="translate(0 0.687)">
            <path id="Trazado_107269" data-name="Trazado 107269" d="M669.033,265.036v1.212l28.748,16.6v-1.212Z" transform="translate(-669.033 -265.036)" fill="#9cafab"/>
          </g>
          <g id="Grupo_70346" data-name="Grupo 70346">
            <path id="Trazado_107270" data-name="Trazado 107270" d="M669.033,264.019l1.19-.687,28.748,16.6-1.19.687Z" transform="translate(-669.033 -263.332)" fill="#bdd4cf"/>
          </g>
          <g id="Grupo_70347" data-name="Grupo 70347" transform="translate(28.748 16.596)">
            <path id="Trazado_107271" data-name="Trazado 107271" d="M740.371,306.413l1.19-.68v-1.219l-1.19.687Z" transform="translate(-740.371 -304.515)" fill="#5b6664"/>
          </g>
        </g>
        <g id="Grupo_70359" data-name="Grupo 70359" transform="translate(3.835)">
          <g id="Grupo_70350" data-name="Grupo 70350" transform="translate(31.003 0.9)">
            <g id="Grupo_70349" data-name="Grupo 70349">
              <path id="Trazado_107272" data-name="Trazado 107272" d="M755.806,194.177l4.11-2.373a.325.325,0,0,0-.163-.607.328.328,0,0,0-.163.044l-4.108,2.372A1.49,1.49,0,0,0,755.806,194.177Z" transform="translate(-755.483 -191.197)" fill="#bdd4cf"/>
            </g>
          </g>
          <g id="Grupo_70358" data-name="Grupo 70358">
            <g id="Grupo_70355" data-name="Grupo 70355" transform="translate(0 17.348)">
              <g id="Grupo_70353" data-name="Grupo 70353">
                <g id="Grupo_70351" data-name="Grupo 70351">
                  <path id="Trazado_107273" data-name="Trazado 107273" d="M683.049,236.217c0,1.435-1.007,2.017-2.25,1.3a4.974,4.974,0,0,1-2.25-3.9c0-1.435,1.007-2.016,2.25-1.3A4.972,4.972,0,0,1,683.049,236.217Z" transform="translate(-678.549 -232.013)" fill="#118dbf"/>
                </g>
                <g id="Grupo_70352" data-name="Grupo 70352" transform="translate(1.624 2.096)">
                  <path id="Trazado_107274" data-name="Trazado 107274" d="M683.831,238.385c0,.4-.281.561-.627.362a1.385,1.385,0,0,1-.626-1.085c0-.4.28-.561.626-.361A1.384,1.384,0,0,1,683.831,238.385Z" transform="translate(-682.578 -237.215)" fill="#440301"/>
                </g>
              </g>
              <g id="Grupo_70354" data-name="Grupo 70354" transform="translate(1.624 2.1)">
                <path id="Trazado_107275" data-name="Trazado 107275" d="M683.63,238.442a1.385,1.385,0,0,1-.627-1.085.726.726,0,0,1,.011-.123c-.253-.053-.437.111-.437.434a1.385,1.385,0,0,0,.626,1.085c.307.177.562.068.615-.239A.642.642,0,0,1,683.63,238.442Z" transform="translate(-682.578 -237.224)" fill="#a90d01"/>
              </g>
            </g>
            <g id="Grupo_70357" data-name="Grupo 70357" transform="translate(0.66)">
              <g id="Grupo_70356" data-name="Grupo 70356">
                <path id="Trazado_107276" data-name="Trazado 107276" d="M714.128,193.167a4.972,4.972,0,0,0-2.25-3.9,1.593,1.593,0,0,0-1.566-.169v0l-.019.011-.009,0-30.1,17.345a1.582,1.582,0,0,1,1.59.158,4.972,4.972,0,0,1,2.25,3.9,1.611,1.611,0,0,1-.611,1.423v0l30.019-17.3c.021-.011.042-.023.062-.036l.036-.021,0,0A1.622,1.622,0,0,0,714.128,193.167Z" transform="translate(-680.187 -188.964)" fill="#035b7e"/>
              </g>
            </g>
          </g>
        </g>
        <g id="Grupo_70361" data-name="Grupo 70361" transform="translate(4.175 19.958)">
          <g id="Grupo_70360" data-name="Grupo 70360">
            <path id="Trazado_107277" data-name="Trazado 107277" d="M684.416,253.388a.264.264,0,0,1-.13-.035l-4.763-2.75a.261.261,0,0,1-.131-.227V238.752a.262.262,0,1,1,.524,0v11.473l4.632,2.674a.262.262,0,0,1-.131.489Z" transform="translate(-679.392 -238.49)" fill="#9cafab"/>
          </g>
        </g>
        <g id="Grupo_70363" data-name="Grupo 70363" transform="translate(2.061 19.735)">
          <g id="Grupo_70362" data-name="Grupo 70362">
            <path id="Trazado_107278" data-name="Trazado 107278" d="M678.42,237.937l-4.11,2.373a.325.325,0,0,0,.325.564l4.108-2.372A1.491,1.491,0,0,0,678.42,237.937Z" transform="translate(-674.147 -237.937)" fill="#bdd4cf"/>
          </g>
        </g>
        <g id="Grupo_70365" data-name="Grupo 70365" transform="translate(38.692 5.74)">
          <g id="Grupo_70364" data-name="Grupo 70364">
            <path id="Trazado_107279" data-name="Trazado 107279" d="M771.156,207.1a.257.257,0,0,1-.129-.035l-5.85-3.377a.257.257,0,0,1,.257-.446l5.85,3.378a.257.257,0,0,1-.129.48Z" transform="translate(-765.049 -203.209)" fill="#5b6664"/>
          </g>
        </g>
        <g id="Grupo_70367" data-name="Grupo 70367" transform="translate(10.223 9.12)">
          <g id="Grupo_70366" data-name="Grupo 70366">
            <path id="Trazado_107280" data-name="Trazado 107280" d="M694.658,231.977a.258.258,0,0,0,.128-.035l34.32-19.866a.257.257,0,0,0-.257-.445L694.529,231.5a.257.257,0,0,0,.129.48Z" transform="translate(-694.401 -211.597)" fill="#9cafab"/>
          </g>
        </g>
        <g id="Grupo_70369" data-name="Grupo 70369" transform="translate(4.359 25.609)">
          <g id="Grupo_70368" data-name="Grupo 70368">
            <path id="Trazado_107281" data-name="Trazado 107281" d="M685.956,256.4a.258.258,0,0,1-.129-.035l-5.85-3.377a.257.257,0,0,1,.257-.446l5.85,3.378a.257.257,0,0,1-.129.48Z" transform="translate(-679.849 -252.513)" fill="#bdd4cf"/>
          </g>
        </g>
      </g>
    </g>
  </g>
</svg>
