<svg xmlns="http://www.w3.org/2000/svg" xmlns:xlink="http://www.w3.org/1999/xlink" width="420" height="336.847" viewBox="0 0 420 336.847">
  <defs>
    <clipPath id="clip-path">
      <path id="Trazado_107491" data-name="Trazado 107491" d="M6853.252,2012.2a.163.163,0,0,1-.11.01l-2.38-.571a.169.169,0,0,1-.012-.325l1.627-.531-.424-.868a.162.162,0,0,1-.007-.131.166.166,0,0,1,.088-.1l1.411-.651-.322-.575a.175.175,0,0,1-.015-.131.178.178,0,0,1,.083-.1l1.343-.708-.289-.452a.169.169,0,0,1-.009-.167.172.172,0,0,1,.14-.093l1.8-.14a.169.169,0,0,1,.092.318l-1.252.661.406.635a.172.172,0,0,1,.021.138.176.176,0,0,1-.094.107l-1.431.66.564,1.009a.138.138,0,0,1,.029.044.169.169,0,0,1-.084.224l0,0-.019.007-1.556.508.465.954a.135.135,0,0,1,.023.037.177.177,0,0,1-.086.225Zm-1.828-.75,1.448.348-.346-.707Zm1.279-.773,1.4-.458-.5-.886-1.278.589Zm.8-2.23.25.447,1.279-.591-.316-.5Zm1.18-1.322.151.238.554-.293Z" transform="translate(-6850.633 -2006.665)" fill="#272a2d"/>
    </clipPath>
    <clipPath id="clip-path-2">
      <path id="Trazado_107500" data-name="Trazado 107500" d="M6684.806,2027.441a.17.17,0,0,1-.1-.036l-1.921-1.523a.17.17,0,0,1,.125-.3l1.7.2-.021-.97a.166.166,0,0,1,.048-.122.171.171,0,0,1,.122-.052h1.554l-.051-.66a.17.17,0,0,1,.16-.183l1.516-.081-.074-.534a.17.17,0,0,1,.228-.182l1.7.632a.17.17,0,0,1-.051.329l-1.413.075.1.751a.17.17,0,0,1-.167.193h-1.578l.091,1.158a.2.2,0,0,1,.008.052.171.171,0,0,1-.171.169h-.024l-1.625-.191.024,1.066a.2.2,0,0,1,0,.043.177.177,0,0,1-.173.169Zm-1.346-1.454,1.169.927-.017-.791Zm1.485-.167,1.467.172-.079-1.017h-1.408Zm1.662-1.7.041.512h1.409l-.08-.586Zm1.625-.71.039.281.625-.034Z" transform="translate(-6682.716 -2022.986)" fill="#272a2d"/>
    </clipPath>
  </defs>
  <g id="Grupo_70567" data-name="Grupo 70567" transform="translate(-5039.137 -660.989)">
    <path id="Trazado_107372" data-name="Trazado 107372" d="M5059.142,1720.475s-28.622,1.156-17.395,26.815,54.057,85.727,54.057,85.727l118.366-27.287s-10.245-31.273-11.053-36.276,107.629,53.88,107.629,53.88,19.935,15.563,49.933,0,96.59-48.789,98.411-57.782-50.25-14.794-50.25-14.794,44.086-16.176,46.864-21.274-7.564-15.719-83.434-29.531C5222.7,1688.666,5059.142,1720.475,5059.142,1720.475Z" transform="translate(0 -835.181)" fill="#809aaa"/>
    <path id="Trazado_107373" data-name="Trazado 107373" d="M6843.35,1681.907l-66.9-17.74,4.856-5.36,64.089,16.054Z" transform="translate(-1399.817 -803.98)" fill="#0059a5"/>
    <path id="Trazado_107374" data-name="Trazado 107374" d="M6753.481,1740.046l-50.56-13.763,4.856-5.361L6755.524,1733Z" transform="translate(-1340.575 -854.029)" fill="#0059a5"/>
    <path id="Trazado_107375" data-name="Trazado 107375" d="M6550.773,1377.113c-18.4-4-19.506-11.545-19.506-22.825A17.731,17.731,0,0,1,6549,1336.557l64.938-2.034s-18.582,3.934-20.1,20.995,17.777,24.933,17.777,24.933Z" transform="translate(-1202.266 -542.692)" fill="#dddb00"/>
    <path id="Trazado_107376" data-name="Trazado 107376" d="M6884.358,1357.545a23.022,23.022,0,1,1-23.022-23.022A23.022,23.022,0,0,1,6884.358,1357.545Z" transform="translate(-1449.665 -542.692)" fill="#b6cc00"/>
    <path id="Trazado_107377" data-name="Trazado 107377" d="M6935.092,1434.35a5.935,5.935,0,1,1,0-11.871h15.352v11.871Z" transform="translate(-1522.861 -613.562)" fill="#009ee2"/>
    <g id="Grupo_70503" data-name="Grupo 70503" transform="translate(5046.896 660.989)">
      <path id="Trazado_107378" data-name="Trazado 107378" d="M6306.574,1558.544l83.592-26.2v-49.081l9.62-8.638,6.771-19.483v-39.276h-99.983Z" transform="translate(-6068.118 -1269.222)" fill="#0059a5"/>
      <path id="Trazado_107379" data-name="Trazado 107379" d="M5858.124,1588.492,5750,1533.615v-80.581l108.12,12.311Z" transform="translate(-5619.668 -1299.17)" fill="#006fb6"/>
      <path id="Trazado_107380" data-name="Trazado 107380" d="M5965.491,1561.521l-82.234-30.446v-60.915l82.234,9.8Z" transform="translate(-5727.035 -1312.97)" fill="#0059a5"/>
      <path id="Trazado_107381" data-name="Trazado 107381" d="M5867.526,1490.378s-89.05-13.886-99.374-15.578c-9.243-1.515-8.351-12.772,1.171-11.77s98.209,11.131,98.209,11.131Z" transform="translate(-5629.076 -1307.173)" fill="#81cff4"/>
      <path id="Trazado_107382" data-name="Trazado 107382" d="M5747.43,1592.475v11.7c10.555,2.491,108.614,29.449,108.614,29.449l.006-16.218S5757.452,1594.378,5747.43,1592.475Z" transform="translate(-5617.594 -1411.523)" fill="#81cff4"/>
      <path id="Trazado_107383" data-name="Trazado 107383" d="M5747.43,1775.758v11.7c11.354,4.271,108.614,47.977,108.614,47.977l.006-16.217S5758.4,1779.43,5747.43,1775.758Z" transform="translate(-5617.594 -1559.201)" fill="#81cff4"/>
      <path id="Trazado_107384" data-name="Trazado 107384" d="M5331.554,933.888l-102.977-23.8v18.05l91.466,31.3v48.454l2.879-6.687h18.572V946.968Z" transform="translate(-5199.535 -861.694)" fill="#006fb6"/>
      <path id="Trazado_107385" data-name="Trazado 107385" d="M5308.095,708.9s-64.578,33.8-71.053,40.076-2.356,7.133,1.958,4.579,69.095-37.515,69.095-37.515Z" transform="translate(-5203.645 -699.591)" fill="#009ee2"/>
      <path id="Trazado_107386" data-name="Trazado 107386" d="M5308.095,754.666s-64.578,33.8-71.053,40.076-2.356,7.133,1.958,4.578,69.095-37.515,69.095-37.515Z" transform="translate(-5203.645 -736.468)" fill="#009ee2"/>
      <path id="Trazado_107387" data-name="Trazado 107387" d="M5810.249,1401.992v-15.1l-110.833-11.448v13.882Z" transform="translate(-5578.907 -1236.651)" fill="#009ee2"/>
      <path id="Trazado_107388" data-name="Trazado 107388" d="M5810.249,1361.281v-10.4l-110.833-8.636v6.368Z" transform="translate(-5578.907 -1209.903)" fill="#006fb6"/>
      <path id="Trazado_107389" data-name="Trazado 107389" d="M5391.674,1802.607v19.224c0,4.3,7.746,4.476,7.746,0s.025-14.528.025-14.528l-.049-5.623Z" transform="translate(-5330.948 -1580.087)" fill="#00529d"/>
      <path id="Trazado_107390" data-name="Trazado 107390" d="M5169.105,1861.945l55.65-11.229-3.922-3.052-54.01,11.135Z" transform="translate(-5149.777 -1617.139)" fill="#807773"/>
      <g id="Grupo_70489" data-name="Grupo 70489" transform="translate(71.776 219.093)">
        <path id="Trazado_107391" data-name="Trazado 107391" d="M5464.294,1800.248c.892,6.825.417,12.515-6.1,13.366s-8.435-4.526-9.327-11.351-.178-12.546,6.1-13.366S5463.4,1793.422,5464.294,1800.248Z" transform="translate(-5448.557 -1788.814)" fill="#1d1d1b"/>
        <path id="Trazado_107392" data-name="Trazado 107392" d="M5462.646,1823.2c.56,4.286.3,7.853-.574,7.968s-2.042-3.267-2.6-7.553-.3-7.852.574-7.967S5462.085,1818.913,5462.646,1823.2Z" transform="translate(-5457.111 -1810.432)" fill="#bfb8b9"/>
      </g>
      <path id="Trazado_107393" data-name="Trazado 107393" d="M5254.2,1801.927l-3.214,6.655-73.782-57s-53.817,9.355-54.179,9.475l-2.789-6.573,52.5-8.582-2.729-12.171,8.579,3.944,2.148,8.682Z" transform="translate(-5112.238 -1525.337)" fill="#00529d"/>
      <path id="Trazado_107394" data-name="Trazado 107394" d="M5141.593,1391.11a33.734,33.734,0,0,1,15.084-63.9h43.792s-35.346,7.483-38.229,39.936,20.491,43.907,20.491,43.907Z" transform="translate(-5114.426 -1197.786)" fill="#dddb00"/>
      <circle id="Elipse_4477" data-name="Elipse 4477" cx="43.792" cy="43.792" r="43.792" transform="matrix(0.045, -0.999, 0.999, 0.045, 40.312, 214.976)" fill="#b6cc00"/>
      <path id="Trazado_107395" data-name="Trazado 107395" d="M5483.271,1495.9l-12.522-1.189A11.745,11.745,0,0,0,5459,1506.456c0,6.487,4.823,10.759,11.745,11.745l11.732,1.6s5.9-.531,5.9-11.193C5488.378,1496.516,5483.271,1495.9,5483.271,1495.9Z" transform="translate(-5385.197 -1332.751)" fill="#837877"/>
      <path id="Trazado_107396" data-name="Trazado 107396" d="M5542.232,1512.784a11.953,11.953,0,1,1-11.954-11.953A11.953,11.953,0,0,1,5542.232,1512.784Z" transform="translate(-5432.997 -1337.682)" fill="#aea5a3"/>
      <path id="Trazado_107397" data-name="Trazado 107397" d="M5244.442,1643.786a6.087,6.087,0,0,0-.263-2.77l-33.994-96.723-1.982.227a9.582,9.582,0,1,0-17.948,2.053l-4.827.552s-26.39,74.922-34.878,103.995l-39.015-53.805,12.1-42.678-4.328-3.437s-10.294,31.741-14.139,45.905c.81,2.833,42.9,63.74,42.9,63.74v19.83c0,5.06,9.106,5.261,9.106,0v-17.6s62.559-10.834,78.226-13.665v15.981c0,5.059,9.105,5.261,9.105,0v-21.61ZM5159,1652.921l32.593-98.477,13.536-1.246,30.269,86.6Z" transform="translate(-5100.097 -1363.428)" fill="#006fb6"/>
      <g id="Grupo_70490" data-name="Grupo 70490" transform="translate(0 232.799)">
        <path id="Trazado_107398" data-name="Trazado 107398" d="M5095.624,1871.1c1.131,7.119.8,13.088-6,14.168s-8.961-4.493-10.092-11.611-.55-13.128,6-14.168S5094.492,1863.985,5095.624,1871.1Z" transform="translate(-5079.075 -1859.366)" fill="#1d1d1b"/>
        <path id="Trazado_107399" data-name="Trazado 107399" d="M5093.913,1896c.711,4.47.545,8.211-.37,8.357s-2.231-3.36-2.942-7.83-.545-8.211.37-8.357S5093.2,1891.526,5093.913,1896Z" transform="translate(-5088.006 -1882.568)" fill="#bfb8b9"/>
      </g>
      <path id="Trazado_107400" data-name="Trazado 107400" d="M5577.551,1564.028a4.726,4.726,0,1,1-4.726-4.725A4.726,4.726,0,0,1,5577.551,1564.028Z" transform="translate(-5473.101 -1384.795)" fill="#009ee2"/>
      <path id="Trazado_107401" data-name="Trazado 107401" d="M5236.711,743.664s-7.209,2.8-27.621,13.954-23.982,14.778-23.982,14.778-7.584,10.111-8.8,44.106-6.029,32.7-12.849,41.988c-6,8.177-2.185,6.437,21.348,5.666s22.469-.771,22.469-.771-3.117-1.368,3.026-8.714c10.852-12.976,12.252-22.165,16.087-56.683C5231.855,748.816,5236.711,743.664,5236.711,743.664Z" transform="translate(-5145.038 -727.603)" fill="#b1ca07"/>
      <path id="Trazado_107402" data-name="Trazado 107402" d="M5395.8,1316.563s2.269.467,5.759-4.237,8.575-6.222,13.2-6.222h-14.516S5392.318,1314.427,5395.8,1316.563Z" transform="translate(-5333.561 -1180.783)" fill="#80ba27"/>
      <path id="Trazado_107403" data-name="Trazado 107403" d="M5450.2,1306.088a31.527,31.527,0,0,1,18.315,6.211c-5.493-1.819-12.134-2.112-17.244-2.112H5438.9S5442.444,1306.088,5450.2,1306.088Z" transform="translate(-5369.001 -1180.766)" fill="#4ead33"/>
      <g id="Grupo_70491" data-name="Grupo 70491" transform="translate(238.456 251.12)">
        <path id="Trazado_107404" data-name="Trazado 107404" d="M6306.574,1978.718l83.363-25.04,52.305,12.52-85.58,37.976Z" transform="translate(-6306.574 -1953.678)" fill="#006fb6"/>
        <path id="Trazado_107405" data-name="Trazado 107405" d="M6357.33,2121.6l-50.756-25.867v-13.162l50.756,25.126Z" transform="translate(-6306.574 -2057.535)" fill="#00529d"/>
        <path id="Trazado_107406" data-name="Trazado 107406" d="M6652.762,2032.227l-84.913,37.536v-13.9l84.913-37.536Z" transform="translate(-6517.093 -2005.766)" fill="#00529d"/>
      </g>
      <path id="Trazado_107407" data-name="Trazado 107407" d="M6371.716,941.741a26.812,26.812,0,0,1-4.524-.386.759.759,0,0,1,.28-1.492h0c.074.014,7.442,1.354,10.855-1.251a4.106,4.106,0,0,0,1.647-3.1,4.719,4.719,0,0,0-1.33-3.753c-1.382-1.5-3.858-2.718-7.16-3.519a32.519,32.519,0,0,0-7.01-.905.759.759,0,0,1,0-1.518,34.154,34.154,0,0,1,7.368.948c3.646.885,6.31,2.219,7.919,3.966a6.244,6.244,0,0,1,1.726,4.905,5.618,5.618,0,0,1-2.242,4.18C6377.232,941.356,6374.224,941.741,6371.716,941.741Z" transform="translate(-6114.159 -874.374)" fill="#00529d"/>
      <path id="Trazado_107408" data-name="Trazado 107408" d="M5497.86,881.379s12.85,6.274,43.929-4.076c21.48-6.9,33.31-8.4,50.517-14.346l-30.3-11.179s-36.66.768-59.381-4.616C5498.625,868.872,5497.86,881.379,5497.86,881.379Z" transform="translate(-5416.506 -810.996)" fill="#80ba27"/>
      <path id="Trazado_107409" data-name="Trazado 107409" d="M5556.029,778.443" transform="translate(-5463.375 -755.626)" fill="#4ead33"/>
      <path id="Trazado_107410" data-name="Trazado 107410" d="M5525.525,785.2a25.9,25.9,0,0,1,4.946-7.972c3.251-3.362,2.44-2.924,2.44-2.924l-5.683,3.071S5525.809,783.715,5525.525,785.2Z" transform="translate(-5438.797 -752.276)" fill="#4ead33"/>
      <path id="Trazado_107411" data-name="Trazado 107411" d="M5757.874,977.038V966.79s-96.886,20.712-109.836,24.141c-9.308,2.822-6.526,8.879,0,7.6Z" transform="translate(-5532.689 -907.384)" fill="#009ee2"/>
      <path id="Trazado_107412" data-name="Trazado 107412" d="M5631.966,934.089l-15.231-5.619s-70.212,19.7-82.906,23.983c-9.1,3.435-5.922,9.293.5,7.585Z" transform="translate(-5440.935 -876.509)" fill="#009ee2"/>
      <g id="Grupo_70494" data-name="Grupo 70494" transform="translate(29.043)">
        <path id="Trazado_107413" data-name="Trazado 107413" d="M5763.02,694.8l-146.267-33.812v25.637l126.892,46.816v93.729l7.114.805V790.409h26.381V713.378Z" transform="translate(-5541.345 -660.989)" fill="#006fb6"/>
        <path id="Trazado_107414" data-name="Trazado 107414" d="M5616.753,678.6v18.967s19.96,4.523,19.96,1.459V688.671C5636.713,682.835,5616.753,678.6,5616.753,678.6Z" transform="translate(-5541.345 -675.182)" fill="#81cff4"/>
        <path id="Trazado_107415" data-name="Trazado 107415" d="M5661.07,721.9c-.034,2.514-1.737,4.53-3.8,4.5s-3.716-2.088-3.683-4.6,1.737-4.53,3.8-4.5S5661.1,719.388,5661.07,721.9Z" transform="translate(-5571.021 -706.361)" fill="#006fb6"/>
        <path id="Trazado_107416" data-name="Trazado 107416" d="M5598.695,678.6s-4.354.945-4.354,10.354c0,7.816,4.354,8.613,4.354,8.613Z" transform="translate(-5523.287 -675.182)" fill="#d3ecfb"/>
        <path id="Trazado_107417" data-name="Trazado 107417" d="M5228.577,915.74s4.009-1.307,4.009,6.333c0,6.346-4.009,9.067-4.009,9.067Z" transform="translate(-5228.577 -866.183)" fill="#d3ecfb"/>
        <g id="Grupo_70492" data-name="Grupo 70492" transform="translate(178.198 28.206)">
          <path id="Trazado_107418" data-name="Trazado 107418" d="M6168.295,806.184v18.967s15.214,3.939,15.214.875V815.667C6183.509,809.831,6168.295,806.184,6168.295,806.184Z" transform="translate(-6163.941 -806.184)" fill="#81cff4"/>
          <path id="Trazado_107419" data-name="Trazado 107419" d="M6195.546,846.517c-.034,2.514-1.736,4.53-3.8,4.5s-3.716-2.088-3.682-4.6,1.736-4.53,3.8-4.5S6195.579,844,6195.546,846.517Z" transform="translate(-6179.866 -834.974)" fill="#006fb6"/>
          <path id="Trazado_107420" data-name="Trazado 107420" d="M6150.238,806.184s-4.354.945-4.354,10.354c0,7.816,4.354,8.612,4.354,8.612Z" transform="translate(-6145.885 -806.184)" fill="#d3ecfb"/>
        </g>
        <g id="Grupo_70493" data-name="Grupo 70493" transform="translate(208.773 43.959)">
          <path id="Trazado_107421" data-name="Trazado 107421" d="M6307.483,892.979s.854-5.7-4.2-5.7v19.4c5.058,0,4.2-5.7,4.2-5.7s4.43.056,4.465-4C6311.913,892.924,6307.483,892.979,6307.483,892.979Z" transform="translate(-6303.279 -887.278)" fill="#81cff4"/>
          <path id="Trazado_107422" data-name="Trazado 107422" d="M6347.9,937.027c0,.016,0,.031,0,.047v-.094C6347.907,937,6347.905,937.011,6347.9,937.027Z" transform="translate(-6339.236 -927.325)" fill="#009ee2"/>
        </g>
        <path id="Trazado_107423" data-name="Trazado 107423" d="M6261.382,887.278h-4.94v5.892s-5.161-.821-5.161,3.929c0,4.256,5.051,3.753,5.051,3.753v5.831h5.05Z" transform="translate(-6052.608 -843.319)" fill="#d3ecfb"/>
        <path id="Trazado_107424" data-name="Trazado 107424" d="M6295.654,1005.488a3.542,3.542,0,0,1-3.541,3.541h-3.238a3.542,3.542,0,0,1-3.541-3.541h0a3.541,3.541,0,0,1,3.541-3.541h3.238a3.541,3.541,0,0,1,3.541,3.541Z" transform="translate(-6080.046 -935.712)" fill="#81cff4"/>
        <path id="Trazado_107425" data-name="Trazado 107425" d="M6351.379,984.134a3.541,3.541,0,0,1-3.54,3.541H6344.6a3.542,3.542,0,0,1-3.542-3.541h0a3.542,3.542,0,0,1,3.542-3.541h3.238a3.541,3.541,0,0,1,3.54,3.541Z" transform="translate(-6124.947 -918.506)" fill="#81cff4"/>
        <path id="Trazado_107426" data-name="Trazado 107426" d="M6333.352,959.247a25.362,25.362,0,0,1-3.619-.279,38.268,38.268,0,0,1-7.562-1.94.759.759,0,1,1,.549-1.414,37.47,37.47,0,0,0,7.257,1.856c3.467.5,8.1.513,10.5-2.253,2.223-2.569,2.878-5.4,1.8-7.766-.688-1.506-3.2-5.008-11.659-5.008a.759.759,0,1,1,0-1.518c6.574,0,11.327,2.148,13.04,5.894,1.338,2.93.6,6.352-2.031,9.39a8.967,8.967,0,0,1-5.5,2.821A16.807,16.807,0,0,1,6333.352,959.247Z" transform="translate(-6109.337 -886.545)" fill="#00529d"/>
      </g>
      <path id="Trazado_107427" data-name="Trazado 107427" d="M5848.948,1033.434c-1.987-14.2-8.167-68.45-8.167-68.45l-20.562-7.587-58.4,15.446s5.292,40.862,7.606,57.53c1.534,11.048,6.981,12.975,6.981,12.975l81.446,7.846S5850.972,1047.9,5848.948,1033.434Z" transform="translate(-5629.187 -899.816)" fill="#b6cc00"/>
      <path id="Trazado_107428" data-name="Trazado 107428" d="M5809.21,1102.567v-11.505l-111.084,19.086v7.746Z" transform="translate(-5577.868 -1007.515)" fill="#009ee2"/>
      <g id="Grupo_70495" data-name="Grupo 70495" transform="translate(238.456 129.421)">
        <path id="Trazado_107429" data-name="Trazado 107429" d="M6322,1376.1l-15.422-3.422v-45.467H6322Z" transform="translate(-6306.574 -1327.206)" fill="#009ee2"/>
        <path id="Trazado_107430" data-name="Trazado 107430" d="M6421.959,1372.581l-36,3.515v-48.89h36Z" transform="translate(-6370.541 -1327.206)" fill="#81cff4"/>
        <path id="Trazado_107431" data-name="Trazado 107431" d="M6433.1,1374.156l-28.915,1.265v-26.609H6433.1Z" transform="translate(-6385.226 -1344.614)" fill="#006fb6"/>
        <path id="Trazado_107432" data-name="Trazado 107432" d="M6444.563,1385.3l-21.634.708v-18.97h21.634Z" transform="translate(-6400.325 -1359.301)" fill="#d3ecfb"/>
        <circle id="Elipse_4478" data-name="Elipse 4478" cx="4.276" cy="4.276" r="4.276" transform="translate(18.963 35.803)" fill="#006fb6"/>
        <path id="Trazado_107433" data-name="Trazado 107433" d="M6474.345,1521.8a1.851,1.851,0,1,1-1.851-1.851A1.851,1.851,0,0,1,6474.345,1521.8Z" transform="translate(-6438.77 -1482.509)" fill="#006fb6"/>
        <path id="Trazado_107434" data-name="Trazado 107434" d="M6505.491,1519.967a1.852,1.852,0,1,1-1.852-1.851A1.851,1.851,0,0,1,6505.491,1519.967Z" transform="translate(-6463.866 -1481.03)" fill="#006fb6"/>
        <path id="Trazado_107435" data-name="Trazado 107435" d="M6535.073,1518.132a1.851,1.851,0,1,1-1.851-1.852A1.851,1.851,0,0,1,6535.073,1518.132Z" transform="translate(-6487.702 -1479.55)" fill="#006fb6"/>
        <path id="Trazado_107436" data-name="Trazado 107436" d="M6431.139,1524.647a2.139,2.139,0,0,1-2.14,2.139h-3.932a2.139,2.139,0,0,1-2.14-2.139h0a2.139,2.139,0,0,1,2.14-2.139H6429a2.139,2.139,0,0,1,2.14,2.139Z" transform="translate(-6400.325 -1484.568)" fill="#d3ecfb"/>
      </g>
      <path id="Trazado_107437" data-name="Trazado 107437" d="M6256.125,1548.074a15.056,15.056,0,0,1-6.658-1.383,8.832,8.832,0,0,1-4.84-6.1c-.7-3.029-.141-6.84,1.652-11.328,3.736-9.349,6.225-17.281,7.4-23.576s.966-10.82-.59-13.117a4.213,4.213,0,0,0-3.772-1.839v-1.821a5.988,5.988,0,0,1,5.28,2.639c4.532,6.692-1.1,24.57-6.622,38.39-3.049,7.631-2.252,12.858,2.306,15.118,2.895,1.436,7.268,1.574,11.7.371,4.229-1.148,7.713-3.29,9.093-5.591a17.5,17.5,0,0,0,2.044-10.342,42.471,42.471,0,0,0-2.592-11.313,74.366,74.366,0,0,0-6.123-12.794l1.542-.97a74.941,74.941,0,0,1,6.283,13.116,44.329,44.329,0,0,1,2.705,11.821,19.278,19.278,0,0,1-2.3,11.419c-1.639,2.729-5.443,5.126-10.178,6.411A24.324,24.324,0,0,1,6256.125,1548.074Z" transform="translate(-6017.971 -1328.077)" fill="#d3ecfb"/>
      <path id="Trazado_107438" data-name="Trazado 107438" d="M6279.874,1532.4a8.9,8.9,0,0,1-3.331-.664,6.974,6.974,0,0,1-4.063-3.951,12.239,12.239,0,0,1-.545-5.968c.486-4.331,2.383-9.64,4.217-14.775,1.926-5.39,3.917-10.965,4.256-15.325a10.517,10.517,0,0,0-2.295-8.079c-3.125-3.547-8.334-3.839-8.387-3.841l.089-1.819c.244.012,6.035.339,9.664,4.456,2.119,2.4,3.043,5.575,2.744,9.424-.357,4.6-2.39,10.294-4.356,15.8-1.8,5.036-3.659,10.244-4.122,14.365-.486,4.33.618,6.88,3.477,8.025,2.095.84,5.307,1.1,8.709-2.443,5.554-5.78,8.449-18.939,3.441-30.12l1.662-.744a33.085,33.085,0,0,1,2.383,18.067c-.831,5.716-3.081,10.841-6.174,14.059A10.259,10.259,0,0,1,6279.874,1532.4Z" transform="translate(-6038.428 -1319.268)" fill="#d3ecfb"/>
      <path id="Trazado_107439" data-name="Trazado 107439" d="M6229.367,1537.9q-.475,0-.955-.022a21.515,21.515,0,0,1-12.312-4.607,16.506,16.506,0,0,1-6.126-10.51c-.7-4.743.572-9.911,3.789-15.361q1.225-2.073,2.418-4.081c8.848-14.913,16.49-27.792,13.478-33.082-1.128-1.982-3.806-2.945-8.184-2.945v-1.821c5.091,0,8.285,1.264,9.766,3.865,1.66,2.915,1.029,7.393-1.984,14.094-2.638,5.866-6.749,12.8-11.51,20.818q-1.189,2.006-2.414,4.077c-3,5.082-4.2,9.849-3.557,14.168a14.714,14.714,0,0,0,5.471,9.362,19.653,19.653,0,0,0,11.249,4.2,14.35,14.35,0,0,0,10.5-3.372c2.984-2.739,6.074-9.545,3.848-26.421a141.255,141.255,0,0,0-4.1-19.48l1.744-.524a143.517,143.517,0,0,1,4.165,19.766,68.584,68.584,0,0,1,.52,15.84c-.6,5.607-2.259,9.7-4.941,12.16A15.856,15.856,0,0,1,6229.367,1537.9Z" transform="translate(-5990.132 -1309.193)" fill="#d3ecfb"/>
      <g id="Grupo_70497" data-name="Grupo 70497" transform="translate(289.045 170.639)">
        <circle id="Elipse_4479" data-name="Elipse 4479" cx="12.4" cy="12.4" r="12.4" transform="translate(0 0.335) rotate(-0.774)" fill="#81cff4"/>
        <g id="Grupo_70496" data-name="Grupo 70496" transform="translate(0.166 0.167)">
          <path id="Trazado_107440" data-name="Trazado 107440" d="M6573.044,1552.644a12.4,12.4,0,0,1,9.8-12.125,12.4,12.4,0,1,0,0,24.249A12.4,12.4,0,0,1,6573.044,1552.644Z" transform="translate(-6567.849 -1540.245)" fill="#009ee2"/>
        </g>
      </g>
      <g id="Grupo_70499" data-name="Grupo 70499" transform="translate(283.905 197.814)">
        <path id="Trazado_107441" data-name="Trazado 107441" d="M6552.472,1685.244a5.97,5.97,0,1,1-5.97-5.97A5.97,5.97,0,0,1,6552.472,1685.244Z" transform="translate(-6540.532 -1679.274)" fill="#81cff4"/>
        <g id="Grupo_70498" data-name="Grupo 70498">
          <path id="Trazado_107442" data-name="Trazado 107442" d="M6543.033,1685.244a5.971,5.971,0,0,1,4.719-5.838,5.97,5.97,0,1,0,0,11.675A5.971,5.971,0,0,1,6543.033,1685.244Z" transform="translate(-6540.532 -1679.274)" fill="#009ee2"/>
        </g>
      </g>
      <g id="Grupo_70501" data-name="Grupo 70501" transform="translate(261.059 199.432)">
        <path id="Trazado_107443" data-name="Trazado 107443" d="M6434.868,1693.576a5.97,5.97,0,1,1-5.97-5.97A5.97,5.97,0,0,1,6434.868,1693.576Z" transform="translate(-6422.928 -1687.606)" fill="#81cff4"/>
        <g id="Grupo_70500" data-name="Grupo 70500">
          <path id="Trazado_107444" data-name="Trazado 107444" d="M6425.429,1693.576a5.972,5.972,0,0,1,4.72-5.837,5.97,5.97,0,1,0,0,11.676A5.972,5.972,0,0,1,6425.429,1693.576Z" transform="translate(-6422.928 -1687.606)" fill="#009ee2"/>
        </g>
      </g>
      <g id="Grupo_70502" data-name="Grupo 70502" transform="translate(268.263 229.906)">
        <path id="Trazado_107445" data-name="Trazado 107445" d="M6501.861,1851.011a7.631,7.631,0,0,1-5.281,7.786l-26.964,10.514c-4.984.133-9.082-3.088-9.4-6.468l-.174-1.837a7.632,7.632,0,0,1,5.281-7.787l29.924-8.5c3.237-.92,9.883.681,10.288,6.244Z" transform="translate(-6460.01 -1844.475)" fill="#006fb6"/>
        <path id="Trazado_107446" data-name="Trazado 107446" d="M6521.652,1860.3a7.631,7.631,0,0,1-5.281,7.787l-29.923,8.5a4.911,4.911,0,0,1-6.443-4.455l-.175-1.837a7.632,7.632,0,0,1,5.281-7.787l29.923-8.5a4.911,4.911,0,0,1,6.443,4.456Z" transform="translate(-6475.956 -1851.974)" fill="#81cff4"/>
      </g>
    </g>
    <path id="Trazado_107447" data-name="Trazado 107447" d="M7020.053,1428.415a5.935,5.935,0,1,1-5.936-5.936A5.935,5.935,0,0,1,7020.053,1428.415Z" transform="translate(-1586.535 -613.562)" fill="#d3ecfb"/>
    <path id="Trazado_107448" data-name="Trazado 107448" d="M6977.289,1441.845c-1.334-3.179-5.051-3.8-6.1,0-.219.8-14.364,69.623-14.364,69.623V1525c0,3.608,7.183,1.5,7.183-2.287v-10.673l21.285-6.861v9.428c0,4.117,6.68,2.058,6.68-1.539v-13.037S6978.623,1445.024,6977.289,1441.845Zm-12.5,63.181,10.168-48.932,10.168,42.254Z" transform="translate(-1545.155 -627.051)" fill="#006fb6"/>
    <g id="Grupo_70564" data-name="Grupo 70564" transform="translate(5318.589 717.167)">
      <g id="Grupo_70561" data-name="Grupo 70561" transform="translate(0 2.612)">
        <g id="Grupo_70507" data-name="Grupo 70507" transform="translate(0 100.969)">
          <g id="Grupo_70506" data-name="Grupo 70506">
            <g id="Grupo_70505" data-name="Grupo 70505">
              <g id="Grupo_70504" data-name="Grupo 70504">
                <path id="Trazado_107449" data-name="Trazado 107449" d="M6492.978,1484.8l.028.03c-1.371-.543-3.8-1.8-5.45-1.338s-1.983,1.42-1.16,3.7c-8.232,3.978-9.451,3.965-8.412,5.813.749,1.113,6.689-2.062,6.689-2.062s-.493.533.388,1.586,1.475.571,1.475.571-.244.672.858,1.433c.913.631,1.337.179,1.337.179s.085,1.426,1.181,1.75,5.181-1.49,7.329-6.54Z" transform="translate(-6477.669 -1483.387)" fill="#f7c4bd"/>
                <path id="Trazado_107450" data-name="Trazado 107450" d="M6548.907,1512.142s.627-1.812-2.919-3.406c1.917.6,2.881-.365,2.952-.732s-.458.523-2.09.084-1.729-.746-1.729-.746a1.027,1.027,0,0,1-.127,1.276,1.407,1.407,0,0,1,.447.941,1.5,1.5,0,0,1,1.581,1.319C6548.35,1510.536,6548.907,1512.142,6548.907,1512.142Z" transform="translate(-6531.915 -1502.688)" fill="#f3aea9"/>
                <path id="Trazado_107451" data-name="Trazado 107451" d="M6518.266,1504.411a10.719,10.719,0,0,1-2.834-2.734,8.422,8.422,0,0,0,1.478,2.053c-.812.4-3.2,1.631-3.2,1.631-.2.267,2.706-1.118,3.385-1.444a6.057,6.057,0,0,0,1.181.955,2.406,2.406,0,0,0,1.563-.8c.33.51.016.723-.516,1.094-.551.383-3.755,2.4-3.755,2.4-.2.374,3.587-1.864,4.588-2.573a1.323,1.323,0,0,1,1.487,1.165c-.021,1.086-3.851,2.975-3.851,2.975-.516.435,2.778-1.043,3.73-2.035a1.618,1.618,0,0,0,.483-.927,1.756,1.756,0,0,1,1.421.984c.177.376.266.428.285-.048a1.6,1.6,0,0,0-1.717-1.244c-.168-.866-.734-1.042-1.635-1.278a1.048,1.048,0,0,0-.257-.875.95.95,0,0,0,.1-.731c1.513.733,3.179.429,2.239.186-1.715-.019-3.684-1.819-3.684-1.819C6520.8,1503.383,6519.167,1504.081,6518.266,1504.411Z" transform="translate(-6506.698 -1497.854)" fill="#e98a88"/>
              </g>
            </g>
          </g>
        </g>
        <g id="Grupo_70560" data-name="Grupo 70560" transform="translate(15.309)">
          <g id="Grupo_70515" data-name="Grupo 70515" transform="translate(28.437)">
            <g id="Grupo_70514" data-name="Grupo 70514">
              <g id="Grupo_70513" data-name="Grupo 70513">
                <g id="Grupo_70511" data-name="Grupo 70511">
                  <path id="Trazado_107452" data-name="Trazado 107452" d="M6783.212,1189.387l-6.392-.393s-.255,1.685-.514,2.841a35.164,35.164,0,0,0,3.754,6.447s1.739-3.16,3.314-6.013C6783.258,1191.09,6783.212,1189.387,6783.212,1189.387Z" transform="translate(-6762.039 -1145.214)" fill="#f3aea9"/>
                  <path id="Trazado_107453" data-name="Trazado 107453" d="M6778.013,1189.777a7.485,7.485,0,0,0,6.661,1.272c-.061-1.237-.115-2.224-.115-2.224l-6.345-.246Z" transform="translate(-6763.414 -1144.88)" fill="#e98a88"/>
                  <path id="Trazado_107454" data-name="Trazado 107454" d="M6736.742,1028.643s-2.98-7.037-3.2-12.117c-3.786,1.846-9.737,1.527-10.707,1.461v0l-.069,0-.069-.005v0c-.973-.053-6.917-.465-10.448-2.761-.839,5.016-4.659,11.634-4.659,11.634-7.106-.822-5.285,9.6-.551,8.972,1.22,11.223,7.933,13.163,13.729,13.543h0l.07,0,.069,0h0c5.8.333,12.7-.77,15.284-11.76C6740.813,1038.823,6743.9,1028.7,6736.742,1028.643Z" transform="translate(-6702.86 -1005.195)" fill="#f7c4bd"/>
                  <g id="Grupo_70508" data-name="Grupo 70508" transform="translate(1.697 23.829)">
                    <path id="Trazado_107455" data-name="Trazado 107455" d="M6714.328,1087.048c.063-1.017-2.56-1.377-2.724,1.307a2.4,2.4,0,0,0,2.472,2.79s-1.127-1.034-.809-2.063S6714.265,1088.065,6714.328,1087.048Z" transform="translate(-6711.595 -1086.29)" fill="#e98a88"/>
                    <path id="Trazado_107456" data-name="Trazado 107456" d="M6877.147,1096.915c-.062,1.017.615,1.087.8,2.148s-1.055,1.948-1.055,1.948a2.4,2.4,0,0,0,2.794-2.465C6879.856,1095.862,6877.21,1095.9,6877.147,1096.915Z" transform="translate(-6844.784 -1094.336)" fill="#e98a88"/>
                  </g>
                  <g id="Grupo_70509" data-name="Grupo 70509" transform="translate(4.178 8.847)">
                    <path id="Trazado_107457" data-name="Trazado 107457" d="M6726.234,1124.76a12.815,12.815,0,0,0-1.868-3.469c.321,7.452,5.058,12.375,10.608,13.153C6728.538,1132.294,6728.029,1128.972,6726.234,1124.76Z" transform="translate(-6724.366 -1099.51)" fill="#f3aea9"/>
                    <path id="Trazado_107458" data-name="Trazado 107458" d="M6756.227,1023.768c-1.328-7.1-2.884-13.261-2.884-13.261s-8.1-.865-10.776.194c-.062.024-.12.051-.179.077-.055-.034-.11-.067-.168-.1-2.525-1.378-10.672-1.512-10.672-1.512s-2.3,5.924-4.486,12.808c0,0,3.655-4.383,4.948-8.147,4.849,1.467,17.171,2.076,20.19.755A16.531,16.531,0,0,0,6756.227,1023.768Z" transform="translate(-6726.538 -1009.168)" fill="#f3aea9"/>
                    <path id="Trazado_107459" data-name="Trazado 107459" d="M6821.576,1133.714c-2.3,3.96-3.209,7.195-9.862,8.541,5.606-.093,10.909-4.4,12.142-11.756A12.808,12.808,0,0,0,6821.576,1133.714Z" transform="translate(-6794.746 -1106.929)" fill="#f3aea9"/>
                  </g>
                  <g id="Grupo_70510" data-name="Grupo 70510" transform="translate(2.357)">
                    <path id="Trazado_107460" data-name="Trazado 107460" d="M6806.541,963.827c.182.011.364.023.546.035l.547.032Z" transform="translate(-6788.757 -963.788)" fill="#511414"/>
                    <path id="Trazado_107461" data-name="Trazado 107461" d="M6746.017,969.885c-3.921-5.2-8.285-5.883-12.677-6.183-4.4-.252-8.809-.122-13.35,4.549-8.121,7.375-3.9,16.981-3.9,16.981l1.232.029c2.049-2.036,4.5-8.33,4.673-11.628,1.52,1.438,7.511,2.873,10.5,3.06l.055,0c2.984.187,9.109-.487,10.8-1.724-.241,3.294,1.405,9.845,3.183,12.121l1.226.125S6753.151,978.217,6746.017,969.885Z" transform="translate(-6714.995 -963.627)" fill="#62433f"/>
                    <path id="Trazado_107462" data-name="Trazado 107462" d="M6746.017,969.885c-3.921-5.2-8.285-5.883-12.677-6.183-4.4-.252-8.809-.122-13.35,4.549-8.121,7.375-3.9,16.981-3.9,16.981s-3.055-10.213,4.645-16.432c2.588-2.43,6.528-4.023,12.5-3.656,6.063.373,9.8,2.5,12.056,5.3,6.651,6.517,2.466,16.78,2.466,16.78S6753.151,978.217,6746.017,969.885Z" transform="translate(-6714.995 -963.627)" fill="#7b5c59"/>
                  </g>
                  <path id="Trazado_107463" data-name="Trazado 107463" d="M6784.625,1077.018a17.475,17.475,0,0,0-2.812,5.172c-.728,2.327-1.568,3.916,2.943,4.193-1.395-.527-2.467-.419-1.89-2.91C6783.628,1080.184,6784.941,1076.576,6784.625,1077.018Z" transform="translate(-6766.01 -1054.961)" fill="#f3aea9"/>
                  <path id="Trazado_107464" data-name="Trazado 107464" d="M6790.763,1077.052s.48-.611-.527,3.779-.2,5.091,2.261,4.747c-.644,1.252-3.672.812-3.645-1.13S6790.763,1077.052,6790.763,1077.052Z" transform="translate(-6772.148 -1054.995)" fill="#fbdfde"/>
                  <path id="Trazado_107465" data-name="Trazado 107465" d="M6791.563,1089.471c0,.326,0,.635-.017.915-.074,1.212-2.021.925-2.021.925s-1.967.047-1.892-1.166a37.143,37.143,0,0,1,1.247-5.992c.216-.734-.369.157-.821,1.679a22.358,22.358,0,0,0-.955,4.46c-.026,1.038.787,1.561,2.381,1.659s2.466-.321,2.567-1.355a5.84,5.84,0,0,0-.126-1.119s-.009-.224-.131-.249C6791.536,1089.177,6791.563,1089.471,6791.563,1089.471Z" transform="translate(-6770.739 -1060.53)" fill="#e98a88"/>
                  <path id="Trazado_107466" data-name="Trazado 107466" d="M6707.544,1075.374a4.231,4.231,0,0,0-4.669,3.361c.13-2.108,1.116-4.194,4.686-3.875A.258.258,0,1,1,6707.544,1075.374Z" transform="translate(-6702.872 -1053.225)" fill="#fbdfde"/>
                  <path id="Trazado_107467" data-name="Trazado 107467" d="M6876.234,1084.755a4.231,4.231,0,0,1,4.222,3.907c.129-2.108-.6-4.3-4.175-4.419A.258.258,0,1,0,6876.234,1084.755Z" transform="translate(-6842.352 -1060.812)" fill="#fbdfde"/>
                </g>
                <g id="Grupo_70512" data-name="Grupo 70512" transform="translate(9.984 17.123)">
                  <path id="Trazado_107468" data-name="Trazado 107468" d="M6759.133,1052.168a5.752,5.752,0,0,0-4.577.167c-.457.14-.349.651.011.563a5.517,5.517,0,0,1,4.43.219C6759.789,1053.469,6760.042,1052.519,6759.133,1052.168Z" transform="translate(-6754.254 -1051.773)" fill="#000100"/>
                  <path id="Trazado_107469" data-name="Trazado 107469" d="M6829.1,1056.616a5.755,5.755,0,0,0-4.464-1.025c-.958.173-.888,1.155-.045.959a5.52,5.52,0,0,1,4.393.617C6829.317,1057.321,6829.521,1056.839,6829.1,1056.616Z" transform="translate(-6810.399 -1054.774)" fill="#000100"/>
                </g>
              </g>
              <path id="Trazado_107470" data-name="Trazado 107470" d="M6825.921,1074.6a2.052,2.052,0,1,0,1.631,2.184A1.934,1.934,0,0,0,6825.921,1074.6Z" transform="translate(-6800.415 -1053.037)" fill="#000100"/>
              <path id="Trazado_107471" data-name="Trazado 107471" d="M6828.941,1080.195a.425.425,0,1,1-.388-.459A.425.425,0,0,1,6828.941,1080.195Z" transform="translate(-6803.765 -1057.179)" fill="#fff"/>
              <path id="Trazado_107472" data-name="Trazado 107472" d="M6757.2,1069.257a2.052,2.052,0,1,0,1.631,2.185A1.935,1.935,0,0,0,6757.2,1069.257Z" transform="translate(-6745.044 -1048.732)" fill="#000100"/>
              <path id="Trazado_107473" data-name="Trazado 107473" d="M6760.22,1074.852a.424.424,0,1,1-.387-.459A.424.424,0,0,1,6760.22,1074.852Z" transform="translate(-6748.394 -1052.875)" fill="#fff"/>
            </g>
          </g>
          <g id="Grupo_70559" data-name="Grupo 70559" transform="translate(0 46.312)">
            <g id="Grupo_70520" data-name="Grupo 70520" transform="translate(63.342 8.386)">
              <g id="Grupo_70519" data-name="Grupo 70519">
                <g id="Grupo_70518" data-name="Grupo 70518" transform="translate(0.003)">
                  <path id="Trazado_107474" data-name="Trazado 107474" d="M6919.2,1551.692c-.427-1.683-1.154-4.845-1.8-6.562l-6.578-.068s-2.5,6.01-3.571,8.979c1.836.848,2.864-.407,3.818-2.792,1.1,2.706-.364,8.667-.823,9.51s1.2,1.837,1.635.971a26.835,26.835,0,0,0,1.742-7.011,39.373,39.373,0,0,1-.311,7.271c-.117.923,1.749,1.418,1.955.121a60.027,60.027,0,0,0,.628-7.643,27.74,27.74,0,0,1,.288,7.025c-.115.962,1.642,1.172,1.864.176.639-2.861-.172-7.844-.172-7.844s.869,4.533.972,5.584,1.818.654,1.7-.345A73.687,73.687,0,0,0,6919.2,1551.692Z" transform="translate(-6902.452 -1486.811)" fill="#f7c4bd"/>
                  <path id="Trazado_107475" data-name="Trazado 107475" d="M6922.472,1545.063l6.571.026.651,2.089s-4.932-.867-7.984-.267Z" transform="translate(-6914.104 -1486.811)" fill="#f3aea9"/>
                  <g id="Grupo_70517" data-name="Grupo 70517">
                    <g id="Grupo_70516" data-name="Grupo 70516">
                      <path id="Trazado_107476" data-name="Trazado 107476" d="M6883.85,1273.383c3.916,5.092,6.9,21.55,7.536,32.029l7.634.03s2.752-43.915-15.17-57.942C6883.85,1247.5,6883.547,1253.6,6883.85,1273.383Z" transform="translate(-6883.489 -1247.053)" fill="#f29100"/>
                      <path id="Trazado_107477" data-name="Trazado 107477" d="M6898.3,1303.813l-8.06-.032-.013-.212a126.168,126.168,0,0,0-2.532-18c-1.454-6.7-3.215-11.638-4.957-13.9l-.046-.06v-.075c-.3-19.566,0-25.836,0-25.9l.021-.436.345.269c4.121,3.226,7.486,8.3,10,15.07a85.853,85.853,0,0,1,4.388,19.311,146.235,146.235,0,0,1,.865,23.752Zm-7.633-.483,7.206.028a146.745,146.745,0,0,0-.875-23.463,85.412,85.412,0,0,0-4.362-19.2c-2.416-6.5-5.613-11.406-9.509-14.589-.06,1.725-.238,8.71.017,25.347,1.261,1.671,3.136,5.458,4.994,14.024A127.2,127.2,0,0,1,6890.663,1303.33Z" transform="translate(-6882.554 -1245.197)" fill="#f29100"/>
                    </g>
                  </g>
                </g>
                <path id="Trazado_107478" data-name="Trazado 107478" d="M6887.458,1313.016c-.979-8.626-3.331-13.572-4.787-19.536-.267,6.014-.062,10.7.028,17.12,0,0,3.22,3.765,5.856,18.161,1.089,5.954,1.594,13.907,1.594,13.907l8.076.061C6890.891,1341.735,6892.628,1336.806,6887.458,1313.016Z" transform="translate(-6882.54 -1284.101)" fill="#e8550d"/>
              </g>
            </g>
            <g id="Grupo_70527" data-name="Grupo 70527" transform="translate(0 8.348)">
              <g id="Grupo_70523" data-name="Grupo 70523">
                <g id="Grupo_70522" data-name="Grupo 70522">
                  <g id="Grupo_70521" data-name="Grupo 70521">
                    <path id="Trazado_107479" data-name="Trazado 107479" d="M6585.948,1277.347c-.956,3.736.164,7.674-23.941,21.248-1.981-.516-5.532-5.877-5.532-5.877s17.725-12.605,19.849-18.977c3.394-18.391,6.509-26.285,9.563-28.741,0,0,.177,2.18.221,13.013C6586.129,1263.713,6586.063,1268.752,6585.948,1277.347Z" transform="translate(-6556.474 -1244.998)" fill="#f29100"/>
                  </g>
                </g>
              </g>
              <g id="Grupo_70526" data-name="Grupo 70526" transform="translate(0 13.013)">
                <g id="Grupo_70525" data-name="Grupo 70525">
                  <g id="Grupo_70524" data-name="Grupo 70524">
                    <path id="Trazado_107480" data-name="Trazado 107480" d="M6556.474,1346.689s3.551,5.361,5.532,5.877c24.839-14.044,22.985-17.511,23.941-21.248.115-8.595.181-13.634.159-19.336,0,0-2.189,13.894-3.568,17.634s-2.153,8.774-10.179,13.509S6560.751,1350.6,6556.474,1346.689Z" transform="translate(-6556.474 -1311.983)" fill="#e8550d"/>
                  </g>
                </g>
              </g>
            </g>
            <g id="Grupo_70543" data-name="Grupo 70543" transform="translate(17.344 64.169)">
              <g id="Grupo_70528" data-name="Grupo 70528" transform="translate(11.979)">
                <path id="Trazado_107481" data-name="Trazado 107481" d="M6707.635,1542.4c.846-8.148,2.01-10.053,2.01-10.053s2.687,1.761,14.55,1.808c11.93.047,14.564-1.693,14.564-1.693s1.149,1.914,1.931,10.069c.348,3.631.075,19.395,1.405,35.936,1.657,20.6,4.934,42.319,4.934,42.319l-8.234,3.682s-5.4-22.141-8.531-41.217c-2.773-16.912-3.547-29.111-4.577-35.27l-3.094-.012c-2.964,9.725-5.146,79.537-5.146,79.537l-8.773-.035S6706.79,1550.552,6707.635,1542.4Z" transform="translate(-6707.417 -1532.35)" fill="#847018"/>
                <path id="Trazado_107482" data-name="Trazado 107482" d="M6710.443,1539.355c.78-5.578,1.64-6.987,1.64-6.987s2.687,1.758,14.59,1.8c11.872.047,14.524-1.69,14.524-1.69s.808,1.432,1.574,7.072c0,0-5.058-1.149-16.154-1.193S6712.2,1539.1,6710.443,1539.355Z" transform="translate(-6709.855 -1532.364)" fill="#3a6c8e"/>
                <path id="Trazado_107483" data-name="Trazado 107483" d="M6723.872,1603.5c-9.5-2.3-.926-2,5.546-2.016h.042c6.471.063,15.053-.164,5.529,2.06,2.269,65.857,17.322,72.945,17.322,72.945l-8.234,3.682c-10.936-45.876-10.936-59.237-13.108-76.487l-3.078-.012c-2.964,9.725-4.9,79.538-4.9,79.538l-9.021-.036S6722.845,1679.707,6723.872,1603.5Z" transform="translate(-6712.698 -1588.046)" fill="#665517"/>
              </g>
              <g id="Grupo_70533" data-name="Grupo 70533" transform="translate(34.827 88.363)">
                <path id="Trazado_107484" data-name="Trazado 107484" d="M6825.318,2030.671s-.157.309.365,1.27c.337.465,2.32,1.448,6.853-.62a75.807,75.807,0,0,0,8.278-5l.46,1.006,5.111-2.334-.916-2.007a13.642,13.642,0,0,0-4.218,1.274C6836.519,2026.5,6829.1,2030.52,6825.318,2030.671Z" transform="translate(-6825.245 -2016.04)" fill="#4d5357"/>
                <g id="Grupo_70529" data-name="Grupo 70529" transform="translate(0 0.302)">
                  <path id="Trazado_107485" data-name="Trazado 107485" d="M6841.189,1988.772l-6.935,3.167-4.605,5.773a9.256,9.256,0,0,1-1.465,1.459c-3.33,2.574-3.308,2.742-3.047,4.2,0,0,1.5,2.626,7.693-.869,4.7-2.654,6.407-4.33,8.523-5.3l3.872-1.768A37.965,37.965,0,0,0,6841.189,1988.772Z" transform="translate(-6825.033 -1988.772)" fill="#000100"/>
                  <path id="Trazado_107486" data-name="Trazado 107486" d="M6898.918,2041.161l-.46-1.006-1.62.906Z" transform="translate(-6882.889 -2030.173)" fill="#000100"/>
                </g>
                <path id="Trazado_107487" data-name="Trazado 107487" d="M6854.4,2002.737l-3.308,6.792-2.292-.565,4.606-5.773Z" transform="translate(-6844.181 -1999.721)" fill="#4d5357"/>
                <path id="Trazado_107488" data-name="Trazado 107488" d="M6861.326,2033.876l-1.861-.678-.078.212,1.981.721.05-.04c.031-.026,3.3-2.618,6.071-.629l.132-.183C6864.9,2031.329,6861.766,2033.545,6861.326,2033.876Z" transform="translate(-6852.713 -2023.691)" fill="#4d5357"/>
                <g id="Grupo_70532" data-name="Grupo 70532" transform="translate(4.798)">
                  <g id="Grupo_70531" data-name="Grupo 70531" transform="translate(0.175 3.778)">
                    <path id="Trazado_107489" data-name="Trazado 107489" d="M6853.252,2012.2a.163.163,0,0,1-.11.01l-2.38-.571a.169.169,0,0,1-.012-.325l1.627-.531-.424-.868a.162.162,0,0,1-.007-.131.166.166,0,0,1,.088-.1l1.411-.651-.322-.575a.175.175,0,0,1-.015-.131.178.178,0,0,1,.083-.1l1.343-.708-.289-.452a.169.169,0,0,1-.009-.167.172.172,0,0,1,.14-.093l1.8-.14a.169.169,0,0,1,.092.318l-1.252.661.406.635a.172.172,0,0,1,.021.138.176.176,0,0,1-.094.107l-1.431.66.564,1.009a.138.138,0,0,1,.029.044.169.169,0,0,1-.084.224l0,0-.019.007-1.556.508.465.954a.135.135,0,0,1,.023.037.177.177,0,0,1-.086.225Zm-1.828-.75,1.448.348-.346-.707Zm1.279-.773,1.4-.458-.5-.886-1.278.589Zm.8-2.23.25.447,1.279-.591-.316-.5Zm1.18-1.322.151.238.554-.293Z" transform="translate(-6850.633 -2006.665)" fill="#272a2d"/>
                    <g id="Grupo_70530" data-name="Grupo 70530" clip-path="url(#clip-path)">
                      <path id="Trazado_107490" data-name="Trazado 107490" d="M6853.169,2000.863h0c-.361,0-1.217-.049-1.37-.5-.077-.229.049-.472.375-.723a1.6,1.6,0,0,1,.994-.353,2.8,2.8,0,0,1,1.816.941.171.171,0,0,1-.051.263A4.1,4.1,0,0,1,6853.169,2000.863Zm0-1.232a1.269,1.269,0,0,0-.787.282c-.221.17-.278.292-.26.345.037.11.388.266,1.048.266h0a4.106,4.106,0,0,0,1.392-.235A2.257,2.257,0,0,0,6853.167,1999.63Z" transform="translate(-6851.554 -2000.724)" fill="#272a2d"/>
                    </g>
                  </g>
                  <path id="Trazado_107492" data-name="Trazado 107492" d="M6856.479,1987.232a2.379,2.379,0,0,0-.73.2c-1.274.582-1.449,2.169-1.433,3.11a8.27,8.27,0,0,0-.954-1.131c-.93-.908-1.814-1.21-2.555-.872a.169.169,0,1,0,.14.308c.761-.347,1.6.248,2.179.807a7.84,7.84,0,0,1,.874,1.029,4.611,4.611,0,0,0-3.719-.3c-.352.161-.546.384-.546.63,0,.28.24.529.712.742l.036.015a1.5,1.5,0,0,0-.165.354.168.168,0,0,0,.114.211.17.17,0,0,0,.211-.115,1.137,1.137,0,0,1,.162-.327,4.5,4.5,0,0,0,3.3-.225,4.055,4.055,0,0,0,.506-.271,4.639,4.639,0,0,0,.938-.313c1.637-.748,2.591-2.288,2.349-3.166C6857.809,1987.609,6857.515,1987.118,6856.479,1987.232Zm-5.893,4.209c-.476-.213-.512-.386-.512-.434,0-.1.129-.222.346-.322a4.18,4.18,0,0,1,2.909.064c-.217,0-.442,0-.667.022a3.076,3.076,0,0,0-1.957.718C6850.665,1991.473,6850.625,1991.459,6850.585,1991.441Zm3.373-.086a4.2,4.2,0,0,1-2.9.261,3.149,3.149,0,0,1,1.626-.508,7.965,7.965,0,0,1,1.411.023c.044.029.09.056.134.087C6854.159,1991.259,6854.067,1991.306,6853.958,1991.355Zm3.606-3.352c.2.732-.7,2.1-2.163,2.768a4.462,4.462,0,0,1-.479.182.267.267,0,0,0-.091-.046h0c-.037-.011-.092-.023-.16-.036-.05-.756-.032-2.565,1.218-3.135a2.023,2.023,0,0,1,.625-.167C6856.927,1987.523,6857.443,1987.562,6857.565,1988Z" transform="translate(-6849.733 -1987.215)" fill="#272a2d"/>
                </g>
              </g>
              <g id="Grupo_70538" data-name="Grupo 70538" transform="translate(0 91.754)">
                <path id="Trazado_107493" data-name="Trazado 107493" d="M6645.968,2054.62s-.273.216-.2,1.311c.11.567,1.5,2.3,6.481,2.318a75.416,75.416,0,0,0,9.611-1.073l0,1.111,5.619.022.009-2.216a13.59,13.59,0,0,0-4.363-.612C6657.884,2055.53,6649.466,2056.074,6645.968,2054.62Z" transform="translate(-6645.755 -2044.917)" fill="#4d5357"/>
                <g id="Grupo_70534" data-name="Grupo 70534" transform="translate(0.129 3.371)">
                  <path id="Trazado_107494" data-name="Trazado 107494" d="M6667.108,2022.056l-7.624-.03-6.6,3.329a9.23,9.23,0,0,1-1.941.714c-4.1.946-4.152,1.109-4.525,2.544,0,0,.261,3.026,7.351,2.445,5.382-.442,7.632-1.253,9.958-1.244l4.256.017A38.313,38.313,0,0,0,6667.108,2022.056Z" transform="translate(-6646.417 -2022.026)" fill="#000100"/>
                  <path id="Trazado_107495" data-name="Trazado 107495" d="M6720.973,2068.885l0-1.111-1.851.145Z" transform="translate(-6705.002 -2058.887)" fill="#000100"/>
                </g>
                <path id="Trazado_107496" data-name="Trazado 107496" d="M6687.4,2022.031l-5.849,4.8-1.844-1.479,6.6-3.329Z" transform="translate(-6673.11 -2018.655)" fill="#4d5357"/>
                <path id="Trazado_107497" data-name="Trazado 107497" d="M6689.865,2046.426l-1.406-1.4-.16.161,1.5,1.492.062-.016c.042-.01,4.091-1,5.776,1.981l.2-.112C6694.18,2045.608,6690.4,2046.309,6689.865,2046.426Z" transform="translate(-6680.034 -2037.185)" fill="#4d5357"/>
                <g id="Grupo_70537" data-name="Grupo 70537" transform="translate(7.18)">
                  <g id="Grupo_70536" data-name="Grupo 70536" transform="translate(0 3.557)">
                    <path id="Trazado_107498" data-name="Trazado 107498" d="M6684.806,2027.441a.17.17,0,0,1-.1-.036l-1.921-1.523a.17.17,0,0,1,.125-.3l1.7.2-.021-.97a.166.166,0,0,1,.048-.122.171.171,0,0,1,.122-.052h1.554l-.051-.66a.17.17,0,0,1,.16-.183l1.516-.081-.074-.534a.17.17,0,0,1,.228-.182l1.7.632a.17.17,0,0,1-.051.329l-1.413.075.1.751a.17.17,0,0,1-.167.193h-1.578l.091,1.158a.2.2,0,0,1,.008.052.171.171,0,0,1-.171.169h-.024l-1.625-.191.024,1.066a.2.2,0,0,1,0,.043.177.177,0,0,1-.173.169Zm-1.346-1.454,1.169.927-.017-.791Zm1.485-.167,1.467.172-.079-1.017h-1.408Zm1.662-1.7.041.512h1.409l-.08-.586Zm1.625-.71.039.281.625-.034Z" transform="translate(-6682.716 -2022.986)" fill="#272a2d"/>
                    <g id="Grupo_70535" data-name="Grupo 70535" clip-path="url(#clip-path-2)">
                      <path id="Trazado_107499" data-name="Trazado 107499" d="M6697.759,2012.3h0c-1.029,0-2.628-.709-2.7-1.345-.022-.2.071-.462.643-.593a1.731,1.731,0,0,1,1.885.85,3.456,3.456,0,0,1,.42.87.17.17,0,0,1-.156.217Zm-1.659-1.646a1.461,1.461,0,0,0-.323.038c-.244.056-.39.142-.381.224.038.336,1.2.974,2.2,1.039C6697.423,2011.529,6696.955,2010.65,6696.1,2010.65Z" transform="translate(-6692.659 -2012.773)" fill="#272a2d"/>
                    </g>
                  </g>
                  <path id="Trazado_107501" data-name="Trazado 107501" d="M6699.833,2005.873a2.392,2.392,0,0,0-.744-.129c-1.4-.005-2.226,1.369-2.606,2.233a8.18,8.18,0,0,0-.39-1.433c-.465-1.22-1.142-1.867-1.955-1.87a.17.17,0,1,0,0,.339c.835,0,1.353.9,1.639,1.653a7.832,7.832,0,0,1,.363,1.307,4.606,4.606,0,0,0-3.251-1.839.766.766,0,0,0-.759.346c-.118.255,0,.583.334.976.009.01.019.019.028.03a1.453,1.453,0,0,0-.3.253.17.17,0,1,0,.255.225,1.136,1.136,0,0,1,.283-.23,4.489,4.489,0,0,0,3.089,1.181,4.021,4.021,0,0,0,.572-.034,4.634,4.634,0,0,0,.983.109c1.8.008,3.312-1,3.46-1.9C6700.884,2006.777,6700.823,2006.2,6699.833,2005.873Zm-7.114,1.359c-.342-.395-.3-.568-.283-.611.042-.094.21-.149.449-.148a4.179,4.179,0,0,1,2.614,1.282c-.2-.093-.4-.183-.614-.261a3.072,3.072,0,0,0-2.079-.168C6692.778,2007.3,6692.748,2007.266,6692.72,2007.232Zm3.1,1.341a4.19,4.19,0,0,1-2.74-.98,3.123,3.123,0,0,1,1.688.221,7.758,7.758,0,0,1,1.27.615c.031.045.06.089.087.136C6696.041,2008.57,6695.937,2008.574,6695.819,2008.573Zm4.678-1.54c-.124.752-1.516,1.62-3.125,1.614a4.466,4.466,0,0,1-.511-.036.259.259,0,0,0-.063-.08h0a1.572,1.572,0,0,0-.13-.1c.271-.711,1.046-2.353,2.42-2.347a2.033,2.033,0,0,1,.637.111C6700.118,2006.327,6700.573,2006.58,6700.5,2007.034Z" transform="translate(-6690.263 -2004.674)" fill="#272a2d"/>
                </g>
              </g>
              <g id="Grupo_70542" data-name="Grupo 70542" transform="translate(13.959 0.709)">
                <g id="Grupo_70539" data-name="Grupo 70539">
                  <path id="Trazado_107502" data-name="Trazado 107502" d="M6758.21,1542.73a2.533,2.533,0,0,0,.569,2.214l-3.832-.015.136-2.212Z" transform="translate(-6747.694 -1541.412)" fill="#000100"/>
                  <path id="Trazado_107503" data-name="Trazado 107503" d="M6718.351,1536a17,17,0,0,0,5.341,1.145s.069,2.44-.146,2.367c-.114-.039-5.936-.343-5.936-.343Z" transform="translate(-6717.611 -1535.998)" fill="#000100"/>
                </g>
                <g id="Grupo_70540" data-name="Grupo 70540" transform="translate(18.494 0.547)">
                  <path id="Trazado_107504" data-name="Trazado 107504" d="M6813.4,1542.956a2.532,2.532,0,0,1-.585,2.209l3.831.016-.118-2.212Z" transform="translate(-6812.81 -1542.152)" fill="#000100"/>
                  <path id="Trazado_107505" data-name="Trazado 107505" d="M6843.919,1538.815a23.043,23.043,0,0,1-5.353.859s-.083,2.247.134,2.175c.112-.037,5.728-.168,5.728-.168Z" transform="translate(-6833.55 -1538.815)" fill="#000100"/>
                </g>
                <g id="Grupo_70541" data-name="Grupo 70541" transform="translate(10.087 1.091)">
                  <path id="Trazado_107506" data-name="Trazado 107506" d="M6770.823,1542.778l3.747.015,1.313.005,3.747.015s.685,2.647-1.333,2.639l-2.424-.009-1.313-.005-2.425-.01C6770.117,1545.419,6770.823,1542.778,6770.823,1542.778Z" transform="translate(-6770.477 -1542.552)" fill="#fff"/>
                  <path id="Trazado_107507" data-name="Trazado 107507" d="M6777.368,1544.74h-.01l-2.424-.009-1.313-.005-2.425-.01a1.528,1.528,0,0,1-1.284-.566,3.172,3.172,0,0,1-.246-2.369.226.226,0,0,1,.218-.167h0l8.808.035a.226.226,0,0,1,.218.17,3.176,3.176,0,0,1-.263,2.364A1.524,1.524,0,0,1,6777.368,1544.74Zm-7.3-2.673a2.512,2.512,0,0,0,.206,1.809,1.089,1.089,0,0,0,.925.387l2.425.01,1.313.005,2.424.009.008.226v-.226a1.084,1.084,0,0,0,.921-.382,2.514,2.514,0,0,0,.219-1.8Z" transform="translate(-6769.539 -1541.614)" fill="#5985ac"/>
                </g>
              </g>
            </g>
            <g id="Grupo_70558" data-name="Grupo 70558" transform="translate(26.155)">
              <path id="Trazado_107508" data-name="Trazado 107508" d="M6767.622,1215.2a7.23,7.23,0,0,1,4.315.919c.942,8.613,1.858,33.734-7.035,36.6-8.779-2.173-7.176-33.608-6.534-36.6a21.035,21.035,0,0,1,4.109-.821c.658,1.013,2.3,4.092,2.553,4.092C6766.138,1219.392,6767.091,1215.2,6767.622,1215.2Z" transform="translate(-6744.866 -1212.611)" fill="#fff"/>
              <g id="Grupo_70557" data-name="Grupo 70557">
                <path id="Trazado_107509" data-name="Trazado 107509" d="M6775.292,1282.67s-1.449,14.838-7.075,22.961c-2.951-8.355-4.907-12.493-5.946-22.169,2.3,6.968,6.018,17.554,6.018,17.554S6773.271,1291.214,6775.292,1282.67Z" transform="translate(-6748.448 -1267.004)" fill="#a7d1e7"/>
                <path id="Trazado_107510" data-name="Trazado 107510" d="M6772.417,1211.908s1.9,5.523-1.609,9.118c-.962-2.066-4.634-3.968-7.086-.668a3.677,3.677,0,0,1,1.377-2.44s-2.668-.968-4.4,3.108a10.155,10.155,0,0,1-1.28-9.118l.114,2.667.883,4.247s1.534-5.189,5.593-2.257l-.612,1.1s3.252-4.223,5.8.9A20.842,20.842,0,0,0,6772.417,1211.908Z" transform="translate(-6745.709 -1209.988)" fill="#a7d1e7"/>
                <g id="Grupo_70545" data-name="Grupo 70545" transform="translate(19.523 61.647)">
                  <g id="Grupo_70544" data-name="Grupo 70544">
                    <path id="Trazado_107511" data-name="Trazado 107511" d="M6792.592,1519.366l-.491,0-.491,0Z" transform="translate(-6791.611 -1519.366)" fill="#eee9e3"/>
                  </g>
                </g>
                <g id="Grupo_70546" data-name="Grupo 70546" transform="translate(19.297 4.228)">
                  <path id="Trazado_107512" data-name="Trazado 107512" d="M6800.628,1225.347s5.6,1.623,8.664,4.141c.294,9.911.094,24.3-.129,31.542-.352,11.354,1.656,30.558,1.656,30.558s1.51,10.567,1.434,10.793-5,.529-13.511.529c-4.6-1.812-7.131-10.133-7.131-10.133v-30.06S6800.7,1250.148,6800.628,1225.347Z" transform="translate(-6791.384 -1225.045)" fill="#f29100"/>
                  <path id="Trazado_107513" data-name="Trazado 107513" d="M6797.8,1301.884h-.043l-.04-.016c-4.648-1.831-7.16-9.934-7.265-10.278l-.01-.032v-30.167l.044-.06a41.876,41.876,0,0,0,4.515-9.35,81.4,81.4,0,0,0,4.459-27.885v-.3l.29.084c.23.067,5.683,1.665,8.745,4.184l.079.065,0,.1c.3,10.162.08,24.748-.131,31.555-.347,11.209,1.636,30.336,1.656,30.527,0,.018.38,2.664.744,5.3.742,5.393.707,5.5.678,5.584-.059.181-.11.338-3.795.5C6805.914,1301.786,6802.716,1301.884,6797.8,1301.884Zm-6.9-10.394c.176.557,2.667,8.214,6.948,9.942,8.223,0,12.491-.278,13.238-.448-.072-.953-.876-6.738-1.43-10.615-.021-.2-2.006-19.357-1.658-30.6.209-6.779.43-21.278.133-31.425-2.608-2.1-7.043-3.579-8.214-3.945a81.651,81.651,0,0,1-4.494,27.756,43.3,43.3,0,0,1-4.523,9.378Z" transform="translate(-6790.445 -1223.794)" fill="#f29100"/>
                </g>
                <g id="Grupo_70547" data-name="Grupo 70547" transform="translate(0.029 4.54)">
                  <path id="Trazado_107514" data-name="Trazado 107514" d="M6703.688,1226.889s-5.194,1.374-8.2,3.751c-.116,5.851-.023,26.192-.023,33.442,0,10.682-1.615,28.749-1.615,28.749s-1.51,10.567-1.435,10.793,4.374.529,12.887.529c5.284-1.962,7.362-12.907,7.362-12.907v-22.8a37.9,37.9,0,0,0-2.706-11.851C6704.7,1244.027,6703.688,1226.889,6703.688,1226.889Z" transform="translate(-6692.19 -1226.599)" fill="#f29100"/>
                  <path id="Trazado_107515" data-name="Trazado 107515" d="M6704.417,1303.176h-.041c-4.878,0-7.923-.1-9.618-.179-3.369-.163-3.425-.328-3.483-.5-.029-.086-.063-.192.68-5.584.355-2.578.724-5.163.745-5.307.037-.412,1.614-18.242,1.614-28.723,0-1.908-.007-4.7-.014-7.94-.02-8.944-.048-21.192.038-25.506v-.107l.084-.066c3.005-2.379,8.066-3.736,8.28-3.792l.267-.071.017.276c.01.171,1.07,17.244,6.254,29.635a38.5,38.5,0,0,1,2.724,11.93v22.824l0,.021a36,36,0,0,1-1.711,5.759c-1.591,4.019-3.541,6.481-5.794,7.318Zm-12.7-.9c.658.162,4.264.443,12.617.444,4.972-1.894,7.072-12.173,7.177-12.7v-22.773a38.035,38.035,0,0,0-2.689-11.763c-4.847-11.587-6.108-27.225-6.27-29.5a26.409,26.409,0,0,0-7.766,3.57c-.084,4.4-.056,16.52-.036,25.388.007,3.237.014,6.033.014,7.942,0,10.57-1.6,28.588-1.615,28.769l0,.012C6692.594,1295.542,6691.789,1301.339,6691.718,1302.279Z" transform="translate(-6691.263 -1225.397)" fill="#f29100"/>
                </g>
                <g id="Grupo_70548" data-name="Grupo 70548" transform="translate(18.933 9.994)">
                  <path id="Trazado_107516" data-name="Trazado 107516" d="M6790.092,1254.233a.76.76,0,1,1-.761-.761A.76.76,0,0,1,6790.092,1254.233Z" transform="translate(-6788.572 -1253.472)" fill="#8db8d6"/>
                  <path id="Trazado_107517" data-name="Trazado 107517" d="M6790.092,1320.088a.76.76,0,1,1-.761-.76A.76.76,0,0,1,6790.092,1320.088Z" transform="translate(-6788.572 -1306.535)" fill="#8db8d6"/>
                </g>
                <path id="Trazado_107518" data-name="Trazado 107518" d="M6785.748,1262.665a.17.17,0,0,1-.17-.167c0-.21-.285-20.986-.285-23.674,0-.6-.012-1.111-.021-1.566a8.549,8.549,0,0,1,.358-3.476,9.845,9.845,0,0,0-2.094,1.745l-.022.021a2.99,2.99,0,0,0-.634.814,5.393,5.393,0,0,0-.635,2.675c0,2.855-.05,21.209-.051,21.394a.169.169,0,0,1-.17.169h0a.17.17,0,0,1-.17-.17c0-.185.052-18.539.052-21.393a4.8,4.8,0,0,1,1.384-3.746,9.173,9.173,0,0,1,2.6-2.022.17.17,0,0,1,.188.035.168.168,0,0,1,.035.189,7.666,7.666,0,0,0-.5,3.757c.011.457.022.974.022,1.573,0,2.686.282,23.46.285,23.669a.17.17,0,0,1-.168.172Z" transform="translate(-6764.227 -1227.188)" fill="#8db8d6"/>
                <g id="Grupo_70551" data-name="Grupo 70551" transform="translate(13.429)">
                  <g id="Grupo_70549" data-name="Grupo 70549" transform="translate(5.526)">
                    <path id="Trazado_107519" data-name="Trazado 107519" d="M6796.179,1211.8c-2.042-5.145-5.3-1.789-6.329-.608a32.35,32.35,0,0,0,4.444-8C6799.18,1203.193,6797,1208.794,6796.179,1211.8Z" transform="translate(-6789.624 -1202.966)" fill="#fff"/>
                    <path id="Trazado_107520" data-name="Trazado 107520" d="M6795.239,1211.087a.227.227,0,0,1-.21-.143c-.694-1.748-1.585-2.634-2.649-2.634-.964,0-2.1.723-3.3,2.091a.226.226,0,0,1-.355-.28,32.581,32.581,0,0,0,4.412-7.936.227.227,0,0,1,.216-.159,3.184,3.184,0,0,1,2.712,1.089c1.2,1.6.315,4.629-.332,6.839-.1.343-.2.668-.277.966a.225.225,0,0,1-.206.167Zm-2.859-3.23c1.132,0,2.077.784,2.814,2.332l.105-.362c.62-2.118,1.468-5.019.4-6.44a2.634,2.634,0,0,0-2.187-.906,30.591,30.591,0,0,1-3.253,6.187A3.65,3.65,0,0,1,6792.38,1207.857Z" transform="translate(-6788.685 -1202.027)" fill="#5985ac"/>
                  </g>
                  <g id="Grupo_70550" data-name="Grupo 70550">
                    <path id="Trazado_107521" data-name="Trazado 107521" d="M6764.453,1203.193a18.613,18.613,0,0,0,3.614,6.35c-1.83-.737-3.8-2.451-5.391,2.257C6761.856,1208.794,6759.568,1203.193,6764.453,1203.193Z" transform="translate(-6761.191 -1202.966)" fill="#fff"/>
                    <path id="Trazado_107522" data-name="Trazado 107522" d="M6761.724,1211.087h-.007a.227.227,0,0,1-.211-.167c-.091-.334-.2-.7-.316-1.09-.687-2.3-1.541-5.159-.37-6.729a3.142,3.142,0,0,1,2.683-1.075.226.226,0,0,1,.217.163,18.555,18.555,0,0,0,3.566,6.264.226.226,0,0,1-.255.359c-.239-.1-.481-.209-.716-.319a4.723,4.723,0,0,0-1.841-.583c-.649,0-1.619.313-2.534,3.021A.226.226,0,0,1,6761.724,1211.087Zm1.611-8.605a2.59,2.59,0,0,0-2.153.89c-1.034,1.388-.181,4.244.441,6.329l.127.429c.722-1.818,1.6-2.671,2.722-2.671a4.562,4.562,0,0,1,1.847.539A18.9,18.9,0,0,1,6763.335,1202.482Z" transform="translate(-6760.24 -1202.027)" fill="#5985ac"/>
                  </g>
                </g>
                <rect id="Rectngulo_8696" data-name="Rectngulo 8696" width="12.24" height="2.923" transform="translate(4.216 62.708)" fill="#e8550d"/>
                <rect id="Rectngulo_8697" data-name="Rectngulo 8697" width="12.241" height="2.923" transform="translate(23.841 62.708)" fill="#e8550d"/>
                <g id="Grupo_70552" data-name="Grupo 70552" transform="translate(18.145 47.139)">
                  <path id="Trazado_107523" data-name="Trazado 107523" d="M6785.279,1446.2a.76.76,0,1,1,.76-.76A.76.76,0,0,1,6785.279,1446.2Z" transform="translate(-6784.519 -1444.683)" fill="#e8550d"/>
                  <path id="Trazado_107524" data-name="Trazado 107524" d="M6785.279,1495.971a.76.76,0,1,1-.76.761A.76.76,0,0,1,6785.279,1495.971Z" transform="translate(-6784.519 -1486.008)" fill="#e8550d"/>
                  <path id="Trazado_107525" data-name="Trazado 107525" d="M6785.279,1547.262a.761.761,0,1,1-.76.76A.76.76,0,0,1,6785.279,1547.262Z" transform="translate(-6784.519 -1527.335)" fill="#e8550d"/>
                </g>
                <g id="Grupo_70553" data-name="Grupo 70553" transform="translate(20.181 6.236)">
                  <path id="Trazado_107526" data-name="Trazado 107526" d="M6803.575,1248.123a34.921,34.921,0,0,1-.336-6.847l2.035-7.148a61.905,61.905,0,0,1,4.3,8.607,21.527,21.527,0,0,1-3.647,1.617l2.638,2.536s-7.014,21.032-13.018,26.869c-.021-.392,0-1.022-.02-1.341-.212-2.876-.533-2.708-.533-2.708S6803.351,1253.9,6803.575,1248.123Z" transform="translate(-6794.999 -1234.128)" fill="#e8550d"/>
                </g>
                <g id="Grupo_70554" data-name="Grupo 70554" transform="translate(5.604 6.236)">
                  <path id="Trazado_107527" data-name="Trazado 107527" d="M6725.964,1248.123a34.906,34.906,0,0,0,.336-6.847l-2.036-7.148a62.04,62.04,0,0,0-4.306,8.607,21.57,21.57,0,0,0,3.648,1.617l-2.638,2.536s7.015,21.032,13.018,26.869c.021-.392,0-1.022.019-1.341.213-2.876.533-2.708.533-2.708S6726.188,1253.9,6725.964,1248.123Z" transform="translate(-6719.959 -1234.128)" fill="#e8550d"/>
                </g>
                <g id="Grupo_70555" data-name="Grupo 70555" transform="translate(19.526 2.809)">
                  <path id="Trazado_107528" data-name="Trazado 107528" d="M6800.084,1217.757s1.239,9.879-2.216,23.226a60.069,60.069,0,0,1-5.016,12.517,44.837,44.837,0,0,1,.76,5.705s9.149-18.419,11.867-25.438c-2.491-2.415-2.869-3.472-2.869-3.472l3.624-2.038S6803.973,1218.05,6800.084,1217.757Z" transform="translate(-6792.615 -1217.51)" fill="#f29100"/>
                  <path id="Trazado_107529" data-name="Trazado 107529" d="M6792.432,1259.08l-.033-.89a45.423,45.423,0,0,0-.755-5.673l-.015-.082.042-.072a59.545,59.545,0,0,0,4.992-12.46,75.981,75.981,0,0,0,2.4-16.556,47.866,47.866,0,0,0-.186-6.585l-.035-.275.276.021c4.01.3,6.261,10.253,6.354,10.677l.036.164-3.584,2.016a15.061,15.061,0,0,0,2.729,3.216l.108.1-.054.14c-2.69,6.949-11.784,25.273-11.876,25.457Zm-.328-6.562c.417,2.3.6,3.919.686,4.82,1.724-3.49,9.008-18.322,11.437-24.537-2.4-2.351-2.8-3.409-2.816-3.453l-.064-.18,3.642-2.049c-.3-1.265-2.376-9.445-5.636-10.121a70.428,70.428,0,0,1-2.251,23.019A60.349,60.349,0,0,1,6792.1,1252.518Z" transform="translate(-6791.629 -1216.487)" fill="#e53212"/>
                </g>
                <g id="Grupo_70556" data-name="Grupo 70556" transform="translate(7.019 2.809)">
                  <path id="Trazado_107530" data-name="Trazado 107530" d="M6739.209,1255.581s-7.17-14.795-9.887-21.814c2.49-2.415,2.868-3.472,2.868-3.472l-3.623-2.038s2.262-10.206,6.15-10.5c0,0-1.923,15.33,5.7,33.6,0,0,1.735,4.114,1.378,11.247A29.005,29.005,0,0,0,6739.209,1255.581Z" transform="translate(-6728.309 -1217.51)" fill="#f29100"/>
                  <path id="Trazado_107531" data-name="Trazado 107531" d="M6740.85,1263.679l-.345-2.064a29.222,29.222,0,0,0-2.566-6.958c-.072-.148-7.206-14.884-9.9-21.832l-.054-.14.107-.1a15.06,15.06,0,0,0,2.729-3.216l-3.583-2.016.036-.164c.094-.423,2.344-10.374,6.354-10.677l.276-.021-.034.275a54.96,54.96,0,0,0-.007,9.917,77.478,77.478,0,0,0,5.692,23.564,17.151,17.151,0,0,1,.835,2.99,33.939,33.939,0,0,1,.56,8.355Zm-12.33-30.878c2.723,6.987,9.755,21.511,9.826,21.658a37.334,37.334,0,0,1,2.2,5.486,26.43,26.43,0,0,0-1.407-9.526,77.934,77.934,0,0,1-5.726-23.719,58.26,58.26,0,0,1-.021-9.7c-3.259.676-5.333,8.857-5.635,10.121l3.641,2.049-.064.18C6731.32,1229.392,6730.924,1230.45,6728.52,1232.8Z" transform="translate(-6727.242 -1216.487)" fill="#e53212"/>
                </g>
                <path id="Trazado_107532" data-name="Trazado 107532" d="M6791.986,1549.212s3.057,8.492,8.04,10.605,10.186.566,9.773-11.36c0,0,1.856,11.108,2.309,14.467-5.923.629-13.87.622-13.87.622s-3.786-.695-7.188-9.639A30.527,30.527,0,0,0,6791.986,1549.212Z" transform="translate(-6771.635 -1481.159)" fill="#e8550d"/>
                <path id="Trazado_107533" data-name="Trazado 107533" d="M6711.463,1540.8s-3.379,8.547-8.361,10.661-10.466-1.519-10.054-13.444c0,0-.537,5.837-.757,7.479-.436,3.258-.878,6.942-1.179,9.175a118.121,118.121,0,0,0,13.13.437s4.02-.821,6.393-8.577C6712.08,1542.6,6711.463,1540.8,6711.463,1540.8Z" transform="translate(-6691.112 -1472.745)" fill="#e8550d"/>
                <path id="Trazado_107534" data-name="Trazado 107534" d="M6791.706,1467.313l-.406-.2c2.545-5.146.882-26.784.865-27l.452-.035c0,.055.43,5.542.533,11.6C6793.287,1459.837,6792.8,1465.1,6791.706,1467.313Z" transform="translate(-6771.837 -1393.831)" fill="#e53212"/>
              </g>
            </g>
          </g>
        </g>
      </g>
      <path id="Trazado_107535" data-name="Trazado 107535" d="M6725.748,1130.32a.291.291,0,0,1-.093-.015.3.3,0,0,1-.2-.24c-.126-.427-2.1-5.158-3.408-8.268a.3.3,0,0,1,.544-.229c.009.021.877,2.083,1.729,4.131,1.766,4.246,1.757,4.272,1.708,4.419A.3.3,0,0,1,6725.748,1130.32Z" transform="translate(-6674.556 -1088.127)" fill="#008fd5"/>
      <path id="Trazado_107536" data-name="Trazado 107536" d="M6730.077,1081.875a.294.294,0,0,1-.259-.153l-4.308-7.811a.3.3,0,1,1,.517-.285l4.309,7.811a.3.3,0,0,1-.259.438Z" transform="translate(-6677.335 -1049.522)" fill="#008fd5"/>
      <path id="Trazado_107537" data-name="Trazado 107537" d="M6847.094,1089.611a.3.3,0,0,1-.235-.474l5.609-7.414a.3.3,0,0,1,.471.356l-5.609,7.414A.3.3,0,0,1,6847.094,1089.611Z" transform="translate(-6775.091 -1056.075)" fill="#008fd5"/>
      <path id="Trazado_107538" data-name="Trazado 107538" d="M6856.785,1137.63a.3.3,0,0,1-.262-.429l3.39-6.655a.3.3,0,0,1,.526.268l-3.39,6.655A.3.3,0,0,1,6856.785,1137.63Z" transform="translate(-6782.901 -1095.377)" fill="#008fd5"/>
      <path id="Trazado_107539" data-name="Trazado 107539" d="M6761.483,1106.617s-7.321-3.531-9.456-3.386h-.534c-2.135-.145-9.75,2.047-9.75,2.047a43.973,43.973,0,0,0-1.519,10.344c2.526,3.207,6.234,4.657,11.012,4.657l1,.056c5.153.225,8.533-1.507,11.059-4.713A24.152,24.152,0,0,0,6761.483,1106.617Z" transform="translate(-6689.22 -1073.493)" fill="#3bbeef"/>
      <path id="Trazado_107540" data-name="Trazado 107540" d="M6773.951,1123.383c0,.111-5.279-1.182-8.307-1.292a52.276,52.276,0,0,0-7.346.494s3.883.294,7.4.355C6770.125,1123.017,6773.951,1123.383,6773.951,1123.383Z" transform="translate(-6703.782 -1088.684)" fill="#008fd5"/>
      <path id="Trazado_107541" data-name="Trazado 107541" d="M6774.726,1141.681a79.138,79.138,0,0,0-8.272-1.006c-3.027-.111-7.38.208-7.38.208a67.064,67.064,0,0,0,7.343.623C6769.214,1141.553,6769.545,1141.69,6774.726,1141.681Z" transform="translate(-6704.407 -1103.649)" fill="#008fd5"/>
      <path id="Trazado_107542" data-name="Trazado 107542" d="M6773.94,1156.185c0,.111-5.379-.763-8.407-.846s-7.252.19-7.252.19a53.36,53.36,0,0,0,7.276.666C6769.989,1156.232,6773.94,1156.185,6773.94,1156.185Z" transform="translate(-6703.769 -1115.472)" fill="#008fd5"/>
      <path id="Trazado_107543" data-name="Trazado 107543" d="M6754.01,1168.73a33.83,33.83,0,0,0,8.334,1.292c3.352,0,8.984-.494,8.984-.494s-5.1-.293-8.984-.354C6757.441,1169.1,6754.01,1168.73,6754.01,1168.73Z" transform="translate(-6700.328 -1126.269)" fill="#008fd5"/>
      <g id="Grupo_70563" data-name="Grupo 70563" transform="translate(45.733 0)">
        <path id="Trazado_107544" data-name="Trazado 107544" d="M6720.453,960.424s1.947-10.153,15.887-10.243c13.727-.088,22.494,6.542,16.919,11.83C6733.1,962.752,6720.453,960.424,6720.453,960.424Z" transform="translate(-6719.022 -950.18)" fill="#3bbeef"/>
        <g id="Grupo_70562" data-name="Grupo 70562" transform="translate(5.193 3.052)">
          <path id="Trazado_107545" data-name="Trazado 107545" d="M6745.782,966.4c2.074-1.105-.191.088-2.5,2.725a33.666,33.666,0,0,0-2.585,4.314c-.959.895-.883-.069-.883-.069A13.244,13.244,0,0,1,6745.782,966.4Z" transform="translate(-6739.816 -965.97)" fill="#008fd5"/>
          <path id="Trazado_107546" data-name="Trazado 107546" d="M6798.976,973.838c-.765,1.066-.88.106-.88.106a11.81,11.81,0,0,1,4.216-7.447C6805.1,964.163,6799.965,968.954,6798.976,973.838Z" transform="translate(-6786.774 -965.888)" fill="#008fd5"/>
          <path id="Trazado_107547" data-name="Trazado 107547" d="M6865.791,994.731c-.764,1.065-.88.106-.88.106a11.937,11.937,0,0,1,2.048-4.15C6867.694,989.922,6866.248,992.77,6865.791,994.731Z" transform="translate(-6840.61 -985.767)" fill="#008fd5"/>
          <path id="Trazado_107548" data-name="Trazado 107548" d="M6834.205,985.5c-.764,1.066-.88.106-.88.106a10.431,10.431,0,0,1,3.049-5.812C6837.179,979.1,6834.642,982.22,6834.205,985.5Z" transform="translate(-6815.16 -977.013)" fill="#008fd5"/>
          <path id="Trazado_107549" data-name="Trazado 107549" d="M6772.977,987.482c-.765,1.066-.88.106-.88.106a11.934,11.934,0,0,1,2.048-4.15C6774.879,982.674,6773.434,985.521,6772.977,987.482Z" transform="translate(-6765.826 -979.926)" fill="#008fd5"/>
        </g>
        <path id="Trazado_107550" data-name="Trazado 107550" d="M6713.718,1007.567a219.435,219.435,0,0,0,34.336,1.983,4.241,4.241,0,0,0-.73-5.2s-31.655-2.118-33.283-1.516C6712.861,1003.271,6712.8,1007.489,6713.718,1007.567Z" transform="translate(-6713.087 -992.518)" fill="#a6dbf7"/>
      </g>
    </g>
  </g>
</svg>
