<svg xmlns="http://www.w3.org/2000/svg" width="97" height="97" viewBox="0 0 97 97">
  <g id="Grupo_70737" data-name="Grupo 70737" transform="translate(-390 -3848)">
    <g id="Elipse_4488" data-name="Elipse 4488" transform="translate(390 3848)" fill="#fff" stroke="#ff8a5b" stroke-width="4">
      <circle cx="48.5" cy="48.5" r="48.5" stroke="none"/>
      <circle cx="48.5" cy="48.5" r="46.5" fill="none"/>
    </g>
    <g id="Grupo_70721" data-name="Grupo 70721" transform="translate(402.986 3867)">
      <g id="Grupo_70451" data-name="Grupo 70451">
        <g id="Grupo_70443" data-name="Grupo 70443">
          <g id="Grupo_70393" data-name="Grupo 70393">
            <g id="Grupo_70381" data-name="Grupo 70381" transform="translate(13.356 24.292)">
              <g id="Grupo_70374" data-name="Grupo 70374">
                <path id="Trazado_107284" data-name="Trazado 107284" d="M898.041,271.359V268.93l-21.658-12.512v2.429l5.14,2.967v17.339l-5.14-2.967v2.429l21.658,12.512v-1.214l-2.639-2.738-11.775-6.806V263.029Z" transform="translate(-876.383 -256.418)" fill="#9cafab"/>
              </g>
              <g id="Grupo_70375" data-name="Grupo 70375" transform="translate(21.658 32.663)">
                <path id="Trazado_107285" data-name="Trazado 107285" d="M924.374,329.627l1.442-.831v1.214l-1.442.831Z" transform="translate(-924.374 -328.796)" fill="#5b6664"/>
              </g>
              <g id="Grupo_70376" data-name="Grupo 70376" transform="translate(19.018 29.924)">
                <path id="Trazado_107286" data-name="Trazado 107286" d="M918.526,323.559l1.442-.831,2.639,2.738-1.442.831Z" transform="translate(-918.526 -322.728)" fill="#b1c7c2"/>
              </g>
              <g id="Grupo_70377" data-name="Grupo 70377" transform="translate(7.243 23.118)">
                <path id="Trazado_107287" data-name="Trazado 107287" d="M893.875,307.646l-1.442.831,11.775,6.806,1.442-.831Z" transform="translate(-892.432 -307.646)" fill="#bdd4cf"/>
              </g>
              <g id="Grupo_70378" data-name="Grupo 70378" transform="translate(7.243 15.791)">
                <path id="Trazado_107288" data-name="Trazado 107288" d="M892.433,291.41l1.442.833v6.495l-1.442.831Z" transform="translate(-892.432 -291.41)" fill="#5b6664"/>
              </g>
              <g id="Grupo_70379" data-name="Grupo 70379" transform="translate(0 18.937)">
                <path id="Trazado_107289" data-name="Trazado 107289" d="M877.825,298.38l-1.442.831,5.14,2.967v-1.664Z" transform="translate(-876.383 -298.38)" fill="#bdd4cf"/>
              </g>
              <g id="Grupo_70380" data-name="Grupo 70380" transform="translate(21.607 11.591)">
                <path id="Trazado_107290" data-name="Trazado 107290" d="M924.375,285.561l1.442-.831V282.3l-1.442.831Z" transform="translate(-924.323 -282.212)" fill="#fff"/>
                <path id="Trazado_107291" data-name="Trazado 107291" d="M924.261,285.542v-2.548l1.545-.89v2.547Zm.1-2.488v2.309l1.339-.772v-2.31Z" transform="translate(-924.261 -282.104)" fill="#231f20"/>
              </g>
            </g>
            <g id="Grupo_70389" data-name="Grupo 70389" transform="translate(42.492 7.417)">
              <g id="Grupo_70382" data-name="Grupo 70382" transform="translate(0.103)">
                <path id="Trazado_107292" data-name="Trazado 107292" d="M962.833,233.966v-2.429l-21.658-12.512v2.429l5.14,2.967v17.339l-5.14-2.967v2.429l21.658,12.512v-1.214l-2.639-2.738-11.775-6.806V225.636Z" transform="translate(-941.175 -219.025)" fill="#9cafab"/>
              </g>
              <g id="Grupo_70383" data-name="Grupo 70383" transform="translate(21.761 32.663)">
                <path id="Trazado_107293" data-name="Trazado 107293" d="M989.167,292.234l1.442-.831v1.214l-1.442.831Z" transform="translate(-989.167 -291.403)" fill="#5b6664"/>
              </g>
              <g id="Grupo_70384" data-name="Grupo 70384" transform="translate(19.122 29.924)">
                <path id="Trazado_107294" data-name="Trazado 107294" d="M983.318,286.166l1.442-.831,2.639,2.738-1.442.831Z" transform="translate(-983.318 -285.335)" fill="#b1c7c2"/>
              </g>
              <g id="Grupo_70385" data-name="Grupo 70385" transform="translate(7.346 23.118)">
                <path id="Trazado_107295" data-name="Trazado 107295" d="M958.667,270.253l-1.442.831L969,277.891l1.442-.831Z" transform="translate(-957.225 -270.253)" fill="#bdd4cf"/>
              </g>
              <g id="Grupo_70386" data-name="Grupo 70386" transform="translate(7.295 15.702)">
                <path id="Trazado_107296" data-name="Trazado 107296" d="M957.225,254.017l1.442.833v6.495l-1.442.831Z" transform="translate(-957.173 -253.928)" fill="#fff"/>
                <path id="Trazado_107297" data-name="Trazado 107297" d="M957.111,262.156v-8.337l1.545.892v6.554Zm.1-8.159v7.98l1.339-.772v-6.435Z" transform="translate(-957.111 -253.819)" fill="#231f20"/>
              </g>
              <g id="Grupo_70387" data-name="Grupo 70387" transform="translate(0 18.877)">
                <path id="Trazado_107298" data-name="Trazado 107298" d="M942.617,260.987l-1.442.831,5.14,2.967v-1.664Z" transform="translate(-941.072 -260.928)" fill="#fff"/>
                <path id="Trazado_107299" data-name="Trazado 107299" d="M946.24,264.8l-5.294-3.057,1.546-.89,3.749,2.164Zm-5.088-3.057,4.985,2.878v-1.545l-3.646-2.1Z" transform="translate(-940.946 -260.856)" fill="#231f20"/>
              </g>
              <g id="Grupo_70388" data-name="Grupo 70388" transform="translate(21.761 11.68)">
                <path id="Trazado_107300" data-name="Trazado 107300" d="M989.167,248.168l1.442-.831v-2.429l-1.442.831Z" transform="translate(-989.167 -244.908)" fill="#5b6664"/>
              </g>
            </g>
            <g id="Grupo_70390" data-name="Grupo 70390" transform="translate(24.973 14.419)">
              <path id="Trazado_107301" data-name="Trazado 107301" d="M947.18,236.718,902.127,262.73v-2.178L947.18,234.54Z" transform="translate(-902.127 -234.54)" fill="#b3a584"/>
            </g>
            <g id="Grupo_70391" data-name="Grupo 70391">
              <path id="Trazado_107302" data-name="Trazado 107302" d="M916.815,217.008l-45.054,26.013L846.788,228.6l45.054-26.013Z" transform="translate(-846.788 -202.59)" fill="#f3e8cc"/>
            </g>
            <g id="Grupo_70392" data-name="Grupo 70392" transform="translate(0 26.013)">
              <path id="Trazado_107303" data-name="Trazado 107303" d="M846.788,260.231v2.178l24.973,14.419V274.65Z" transform="translate(-846.788 -260.231)" fill="#d4c398"/>
            </g>
          </g>
          <g id="Grupo_70394" data-name="Grupo 70394" transform="translate(4.832 2.79)">
            <path id="Trazado_107304" data-name="Trazado 107304" d="M917.858,223.19l-35.39,20.433L857.495,229.2l35.391-20.433Z" transform="translate(-857.495 -208.771)" fill="#0075a4"/>
          </g>
          <g id="Grupo_70395" data-name="Grupo 70395" transform="translate(29.805 17.208)">
            <path id="Trazado_107305" data-name="Trazado 107305" d="M912.833,261.155v14.159l35.391-20.433V240.722Z" transform="translate(-912.833 -240.722)" fill="#005171"/>
          </g>
          <g id="Grupo_70402" data-name="Grupo 70402" transform="translate(21.482 13.323)">
            <g id="Grupo_70398" data-name="Grupo 70398">
              <g id="Grupo_70396" data-name="Grupo 70396" transform="translate(0 7.043)">
                <path id="Trazado_107306" data-name="Trazado 107306" d="M907.09,251.4l-6.415,3.7-6.169-3.562,6.415-3.7Z" transform="translate(-894.454 -247.782)" fill="#0075a4"/>
                <path id="Trazado_107307" data-name="Trazado 107307" d="M900.612,255.089a.054.054,0,0,1-.026-.007l-6.169-3.562a.052.052,0,0,1,0-.09l6.415-3.7a.052.052,0,0,1,.051,0l6.169,3.561a.052.052,0,0,1,.026.045.051.051,0,0,1-.026.045l-6.415,3.7A.051.051,0,0,1,900.612,255.089Zm-6.066-3.613,6.066,3.5,6.312-3.645-6.066-3.5Z" transform="translate(-894.391 -247.72)" fill="#fff"/>
              </g>
              <g id="Grupo_70397" data-name="Grupo 70397" transform="translate(6.415)">
                <path id="Trazado_107308" data-name="Trazado 107308" d="M914.89,242.832,924,234.007l-3.085-1.781-12.2,7.043Z" transform="translate(-908.669 -232.175)" fill="#0075a4"/>
                <path id="Trazado_107309" data-name="Trazado 107309" d="M914.827,242.821a.054.054,0,0,1-.026-.007l-6.169-3.562a.051.051,0,0,1-.026-.045.051.051,0,0,1,.026-.045l12.2-7.043a.053.053,0,0,1,.052,0l3.085,1.781a.052.052,0,0,1,.01.082l-9.114,8.824A.051.051,0,0,1,914.827,242.821Zm-6.066-3.613,6.058,3.5,9.037-8.749-3-1.732Z" transform="translate(-908.607 -232.113)" fill="#fff"/>
              </g>
            </g>
            <g id="Grupo_70401" data-name="Grupo 70401" transform="translate(9.947 3.962)">
              <g id="Grupo_70399" data-name="Grupo 70399" transform="translate(9.114)">
                <path id="Trazado_107310" data-name="Trazado 107310" d="M936.743,244.71l6.415-3.7,6.169,3.562-6.415,3.7Z" transform="translate(-936.692 -240.954)" fill="#0075a4"/>
                <path id="Trazado_107311" data-name="Trazado 107311" d="M942.85,248.261a.052.052,0,0,1-.026-.007l-6.169-3.562a.052.052,0,0,1,0-.09l6.415-3.7a.052.052,0,0,1,.051,0l6.169,3.562a.051.051,0,0,1,0,.089l-6.415,3.7A.052.052,0,0,1,942.85,248.261Zm-6.066-3.613,6.066,3.5,6.312-3.645L943.1,241Z" transform="translate(-936.629 -240.892)" fill="#fff"/>
              </g>
              <g id="Grupo_70400" data-name="Grupo 70400" transform="translate(0 3.704)">
                <path id="Trazado_107312" data-name="Trazado 107312" d="M925.661,249.213l-9.114,8.824,3.085,1.781,12.2-7.043Z" transform="translate(-916.495 -249.162)" fill="#0075a4"/>
                <path id="Trazado_107313" data-name="Trazado 107313" d="M919.569,259.808a.054.054,0,0,1-.026-.007l-3.085-1.781a.051.051,0,0,1-.01-.082l9.115-8.824a.053.053,0,0,1,.062-.008l6.169,3.562a.052.052,0,0,1,0,.089l-12.2,7.043A.051.051,0,0,1,919.569,259.808Zm-3-1.843,3,1.732,12.1-6.984-6.058-3.5Z" transform="translate(-916.432 -249.1)" fill="#fff"/>
              </g>
            </g>
          </g>
          <g id="Grupo_70442" data-name="Grupo 70442" transform="translate(36.18 2.466)">
            <g id="Grupo_70403" data-name="Grupo 70403" transform="translate(0 0.791)">
              <path id="Trazado_107314" data-name="Trazado 107314" d="M950.805,224.26,926.96,210.492v-.684l23.846,13.768Z" transform="translate(-926.96 -209.808)" fill="#d6973a"/>
            </g>
            <g id="Grupo_70440" data-name="Grupo 70440">
              <g id="Grupo_70404" data-name="Grupo 70404">
                <path id="Trazado_107315" data-name="Trazado 107315" d="M950.805,222.614,926.96,208.846l1.37-.791,23.846,13.768Z" transform="translate(-926.96 -208.055)" fill="#f5b659"/>
              </g>
              <g id="Grupo_70439" data-name="Grupo 70439" transform="translate(2.281 0.953)">
                <g id="Grupo_70405" data-name="Grupo 70405">
                  <path id="Trazado_107316" data-name="Trazado 107316" d="M932.066,210.719a.051.051,0,0,1-.026-.1l.778-.449a.052.052,0,0,1,.07.019.052.052,0,0,1-.019.07l-.778.449A.053.053,0,0,1,932.066,210.719Z" transform="translate(-932.014 -210.167)" fill="#a90d01"/>
                </g>
                <g id="Grupo_70406" data-name="Grupo 70406" transform="translate(1 0.356)">
                  <path id="Trazado_107317" data-name="Trazado 107317" d="M934.281,211.287a.051.051,0,0,1-.026-.1l.395-.228a.052.052,0,0,1,.052.09l-.4.228A.051.051,0,0,1,934.281,211.287Z" transform="translate(-934.23 -210.956)" fill="#a90d01"/>
                </g>
                <g id="Grupo_70407" data-name="Grupo 70407" transform="translate(1.617 0.712)">
                  <path id="Trazado_107318" data-name="Trazado 107318" d="M935.648,212.077a.052.052,0,0,1-.026-.1l.4-.227a.051.051,0,0,1,.07.019.052.052,0,0,1-.019.07l-.395.228A.059.059,0,0,1,935.648,212.077Z" transform="translate(-935.597 -211.746)" fill="#a90d01"/>
                </g>
                <g id="Grupo_70408" data-name="Grupo 70408" transform="translate(2.234 1.069)">
                  <path id="Trazado_107319" data-name="Trazado 107319" d="M937.016,212.868a.051.051,0,0,1-.045-.026.052.052,0,0,1,.019-.07l.395-.228a.052.052,0,0,1,.052.09l-.4.228A.053.053,0,0,1,937.016,212.868Z" transform="translate(-936.965 -212.537)" fill="#a90d01"/>
                </g>
                <g id="Grupo_70409" data-name="Grupo 70409" transform="translate(2.851 1.425)">
                  <path id="Trazado_107320" data-name="Trazado 107320" d="M938.384,213.657a.051.051,0,0,1-.026-.1l.395-.228a.052.052,0,0,1,.052.089l-.395.228A.053.053,0,0,1,938.384,213.657Z" transform="translate(-938.332 -213.326)" fill="#a90d01"/>
                </g>
                <g id="Grupo_70410" data-name="Grupo 70410" transform="translate(3.086 1.782)">
                  <path id="Trazado_107321" data-name="Trazado 107321" d="M938.9,214.667a.051.051,0,0,1-.026-.1l.778-.449a.052.052,0,0,1,.07.019.051.051,0,0,1-.019.07l-.777.449A.052.052,0,0,1,938.9,214.667Z" transform="translate(-938.852 -214.115)" fill="#a90d01"/>
                </g>
                <g id="Grupo_70411" data-name="Grupo 70411" transform="translate(4.085 2.138)">
                  <path id="Trazado_107322" data-name="Trazado 107322" d="M941.119,215.236a.051.051,0,0,1-.026-.1l.4-.228a.052.052,0,0,1,.051.09l-.395.228A.053.053,0,0,1,941.119,215.236Z" transform="translate(-941.067 -214.905)" fill="#a90d01"/>
                </g>
                <g id="Grupo_70412" data-name="Grupo 70412" transform="translate(4.703 2.494)">
                  <path id="Trazado_107323" data-name="Trazado 107323" d="M942.486,216.025a.052.052,0,0,1-.026-.1l.395-.228a.052.052,0,1,1,.052.089l-.4.228A.056.056,0,0,1,942.486,216.025Z" transform="translate(-942.435 -215.694)" fill="#a90d01"/>
                </g>
                <g id="Grupo_70413" data-name="Grupo 70413" transform="translate(5.32 2.85)">
                  <path id="Trazado_107324" data-name="Trazado 107324" d="M943.853,216.814a.051.051,0,0,1-.026-.1l.395-.228a.052.052,0,0,1,.052.09l-.395.228A.053.053,0,0,1,943.853,216.814Z" transform="translate(-943.802 -216.483)" fill="#a90d01"/>
                </g>
                <g id="Grupo_70414" data-name="Grupo 70414" transform="translate(5.937 3.207)">
                  <path id="Trazado_107325" data-name="Trazado 107325" d="M945.221,217.6a.052.052,0,0,1-.026-.1l.395-.227a.052.052,0,1,1,.051.089l-.395.227A.048.048,0,0,1,945.221,217.6Z" transform="translate(-945.17 -217.274)" fill="#a90d01"/>
                </g>
                <g id="Grupo_70415" data-name="Grupo 70415" transform="translate(6.171 3.564)">
                  <path id="Trazado_107326" data-name="Trazado 107326" d="M945.741,218.615a.051.051,0,0,1-.026-.1l.777-.449a.053.053,0,0,1,.07.019.052.052,0,0,1-.019.07l-.778.449A.053.053,0,0,1,945.741,218.615Z" transform="translate(-945.69 -218.064)" fill="#a90d01"/>
                </g>
                <g id="Grupo_70416" data-name="Grupo 70416" transform="translate(7.171 3.92)">
                  <path id="Trazado_107327" data-name="Trazado 107327" d="M947.956,219.184a.051.051,0,0,1-.026-.1l.395-.228a.052.052,0,1,1,.052.089l-.4.228A.053.053,0,0,1,947.956,219.184Z" transform="translate(-947.904 -218.853)" fill="#a90d01"/>
                </g>
                <g id="Grupo_70417" data-name="Grupo 70417" transform="translate(7.788 4.276)">
                  <path id="Trazado_107328" data-name="Trazado 107328" d="M949.324,219.973a.052.052,0,0,1-.026-.1l.395-.228a.052.052,0,1,1,.052.089l-.395.228A.059.059,0,0,1,949.324,219.973Z" transform="translate(-949.272 -219.642)" fill="#a90d01"/>
                </g>
                <g id="Grupo_70418" data-name="Grupo 70418" transform="translate(8.405 4.632)">
                  <path id="Trazado_107329" data-name="Trazado 107329" d="M950.691,220.763a.051.051,0,0,1-.026-.1l.395-.228a.053.053,0,0,1,.07.019.051.051,0,0,1-.019.07l-.395.228A.052.052,0,0,1,950.691,220.763Z" transform="translate(-950.64 -220.432)" fill="#a90d01"/>
                </g>
                <g id="Grupo_70419" data-name="Grupo 70419" transform="translate(9.022 4.988)">
                  <path id="Trazado_107330" data-name="Trazado 107330" d="M952.058,221.552a.052.052,0,0,1-.026-.1l.4-.228a.052.052,0,1,1,.051.089l-.395.228A.054.054,0,0,1,952.058,221.552Z" transform="translate(-952.007 -221.221)" fill="#a90d01"/>
                </g>
                <g id="Grupo_70420" data-name="Grupo 70420" transform="translate(9.257 5.345)">
                  <path id="Trazado_107331" data-name="Trazado 107331" d="M952.578,222.562a.051.051,0,0,1-.026-.1l.778-.449a.052.052,0,0,1,.07.019.051.051,0,0,1-.019.07l-.778.449A.052.052,0,0,1,952.578,222.562Z" transform="translate(-952.527 -222.01)" fill="#a90d01"/>
                </g>
                <g id="Grupo_70421" data-name="Grupo 70421" transform="translate(10.257 5.7)">
                  <path id="Trazado_107332" data-name="Trazado 107332" d="M954.794,223.13a.051.051,0,0,1-.026-.1l.395-.228a.051.051,0,0,1,.07.019.053.053,0,0,1-.019.071l-.395.227A.053.053,0,0,1,954.794,223.13Z" transform="translate(-954.742 -222.799)" fill="#a90d01"/>
                </g>
                <g id="Grupo_70422" data-name="Grupo 70422" transform="translate(10.874 6.057)">
                  <path id="Trazado_107333" data-name="Trazado 107333" d="M956.161,223.921a.052.052,0,0,1-.026-.1l.395-.228a.052.052,0,1,1,.052.089l-.4.228A.056.056,0,0,1,956.161,223.921Z" transform="translate(-956.11 -223.59)" fill="#a90d01"/>
                </g>
                <g id="Grupo_70423" data-name="Grupo 70423" transform="translate(11.491 6.414)">
                  <path id="Trazado_107334" data-name="Trazado 107334" d="M957.529,224.71a.051.051,0,0,1-.026-.1l.4-.228a.052.052,0,0,1,.051.09l-.395.228A.054.054,0,0,1,957.529,224.71Z" transform="translate(-957.477 -224.379)" fill="#a90d01"/>
                </g>
                <g id="Grupo_70424" data-name="Grupo 70424" transform="translate(12.108 6.77)">
                  <path id="Trazado_107335" data-name="Trazado 107335" d="M958.9,225.5a.051.051,0,0,1-.045-.026.052.052,0,0,1,.019-.07l.395-.228a.052.052,0,1,1,.051.089l-.395.228A.052.052,0,0,1,958.9,225.5Z" transform="translate(-958.845 -225.169)" fill="#a90d01"/>
                </g>
                <g id="Grupo_70425" data-name="Grupo 70425" transform="translate(12.343 7.126)">
                  <path id="Trazado_107336" data-name="Trazado 107336" d="M959.416,226.51a.051.051,0,0,1-.026-.1l.778-.449a.053.053,0,0,1,.07.019.052.052,0,0,1-.019.07l-.777.449A.054.054,0,0,1,959.416,226.51Z" transform="translate(-959.364 -225.959)" fill="#a90d01"/>
                </g>
                <g id="Grupo_70426" data-name="Grupo 70426" transform="translate(13.342 7.482)">
                  <path id="Trazado_107337" data-name="Trazado 107337" d="M961.631,227.078a.051.051,0,0,1-.026-.1l.395-.228a.052.052,0,0,1,.051.09l-.395.228A.052.052,0,0,1,961.631,227.078Z" transform="translate(-961.58 -226.747)" fill="#a90d01"/>
                </g>
                <g id="Grupo_70427" data-name="Grupo 70427" transform="translate(13.959 7.839)">
                  <path id="Trazado_107338" data-name="Trazado 107338" d="M963,227.868a.052.052,0,0,1-.026-.1l.4-.228a.052.052,0,0,1,.052.089l-.395.228A.059.059,0,0,1,963,227.868Z" transform="translate(-962.947 -227.537)" fill="#a90d01"/>
                </g>
                <g id="Grupo_70428" data-name="Grupo 70428" transform="translate(14.577 8.195)">
                  <path id="Trazado_107339" data-name="Trazado 107339" d="M964.366,228.658a.051.051,0,0,1-.026-.1l.395-.228a.052.052,0,0,1,.052.09l-.4.227A.047.047,0,0,1,964.366,228.658Z" transform="translate(-964.315 -228.327)" fill="#a90d01"/>
                </g>
                <g id="Grupo_70429" data-name="Grupo 70429" transform="translate(15.194 8.552)">
                  <path id="Trazado_107340" data-name="Trazado 107340" d="M965.734,229.448a.052.052,0,0,1-.026-.1l.395-.228a.052.052,0,1,1,.052.089l-.395.228A.054.054,0,0,1,965.734,229.448Z" transform="translate(-965.682 -229.117)" fill="#a90d01"/>
                </g>
                <g id="Grupo_70430" data-name="Grupo 70430" transform="translate(15.428 8.908)">
                  <path id="Trazado_107341" data-name="Trazado 107341" d="M966.254,230.458a.051.051,0,0,1-.045-.026.052.052,0,0,1,.019-.07l.778-.449a.052.052,0,0,1,.07.019.051.051,0,0,1-.019.07l-.778.449A.052.052,0,0,1,966.254,230.458Z" transform="translate(-966.202 -229.906)" fill="#a90d01"/>
                </g>
                <g id="Grupo_70431" data-name="Grupo 70431" transform="translate(16.428 9.264)">
                  <path id="Trazado_107342" data-name="Trazado 107342" d="M968.469,231.027a.051.051,0,0,1-.045-.026.052.052,0,0,1,.018-.07l.4-.228a.052.052,0,0,1,.07.019.053.053,0,0,1-.019.071l-.395.228A.053.053,0,0,1,968.469,231.027Z" transform="translate(-968.417 -230.696)" fill="#a90d01"/>
                </g>
                <g id="Grupo_70432" data-name="Grupo 70432" transform="translate(17.045 9.62)">
                  <path id="Trazado_107343" data-name="Trazado 107343" d="M969.836,231.816a.052.052,0,0,1-.026-.1l.395-.228a.052.052,0,0,1,.052.089l-.395.228A.059.059,0,0,1,969.836,231.816Z" transform="translate(-969.784 -231.485)" fill="#a90d01"/>
                </g>
                <g id="Grupo_70433" data-name="Grupo 70433" transform="translate(17.662 9.976)">
                  <path id="Trazado_107344" data-name="Trazado 107344" d="M971.2,232.605a.051.051,0,0,1-.026-.1l.395-.228a.052.052,0,0,1,.052.09l-.395.228A.053.053,0,0,1,971.2,232.605Z" transform="translate(-971.152 -232.274)" fill="#a90d01"/>
                </g>
                <g id="Grupo_70434" data-name="Grupo 70434" transform="translate(18.279 10.333)">
                  <path id="Trazado_107345" data-name="Trazado 107345" d="M972.571,233.4a.052.052,0,0,1-.026-.1l.395-.228a.052.052,0,1,1,.051.089l-.395.228A.052.052,0,0,1,972.571,233.4Z" transform="translate(-972.52 -233.064)" fill="#a90d01"/>
                </g>
                <g id="Grupo_70435" data-name="Grupo 70435" transform="translate(18.514 10.69)">
                  <path id="Trazado_107346" data-name="Trazado 107346" d="M973.091,234.406a.051.051,0,0,1-.026-.1l.777-.449a.053.053,0,0,1,.071.019.052.052,0,0,1-.019.07l-.778.449A.053.053,0,0,1,973.091,234.406Z" transform="translate(-973.039 -233.854)" fill="#a90d01"/>
                </g>
                <g id="Grupo_70436" data-name="Grupo 70436" transform="translate(19.514 11.046)">
                  <path id="Trazado_107347" data-name="Trazado 107347" d="M975.306,234.975a.051.051,0,0,1-.026-.1l.395-.228a.053.053,0,0,1,.07.019.052.052,0,0,1-.019.071l-.395.228A.052.052,0,0,1,975.306,234.975Z" transform="translate(-975.255 -234.644)" fill="#a90d01"/>
                </g>
                <g id="Grupo_70437" data-name="Grupo 70437" transform="translate(20.131 11.402)">
                  <path id="Trazado_107348" data-name="Trazado 107348" d="M976.674,235.764a.052.052,0,0,1-.026-.1l.4-.228a.052.052,0,1,1,.051.089l-.395.228A.06.06,0,0,1,976.674,235.764Z" transform="translate(-976.622 -235.433)" fill="#a90d01"/>
                </g>
                <g id="Grupo_70438" data-name="Grupo 70438" transform="translate(20.748 11.758)">
                  <path id="Trazado_107349" data-name="Trazado 107349" d="M978.041,236.553a.051.051,0,0,1-.026-.1l.395-.228a.052.052,0,0,1,.052.09l-.4.228A.053.053,0,0,1,978.041,236.553Z" transform="translate(-977.989 -236.222)" fill="#a90d01"/>
                </g>
              </g>
            </g>
            <g id="Grupo_70441" data-name="Grupo 70441" transform="translate(23.846 13.768)">
              <path id="Trazado_107350" data-name="Trazado 107350" d="M979.8,239.354v.684l1.37-.791v-.684Z" transform="translate(-979.8 -238.563)" fill="#bf7b17"/>
            </g>
          </g>
        </g>
        <g id="Grupo_70450" data-name="Grupo 70450" transform="translate(20.076 10.302)">
          <g id="Grupo_70446" data-name="Grupo 70446" transform="translate(0 3.688)">
            <g id="Grupo_70444" data-name="Grupo 70444">
              <path id="Trazado_107351" data-name="Trazado 107351" d="M895.893,233.7l3.068.83,1.437,1.771-4.5,2.6-4.505-2.6Z" transform="translate(-891.337 -233.652)" fill="#0075a4"/>
              <path id="Trazado_107352" data-name="Trazado 107352" d="M895.831,238.895a.052.052,0,0,1-.026-.007l-4.5-2.6a.051.051,0,0,1-.026-.045.052.052,0,0,1,.026-.045l4.5-2.6a.051.051,0,0,1,.039-.005l3.068.83a.048.048,0,0,1,.027.017l1.437,1.772a.052.052,0,0,1,.01.042.051.051,0,0,1-.025.035l-4.505,2.6A.052.052,0,0,1,895.831,238.895Zm-4.4-2.653,4.4,2.541,4.427-2.556-1.389-1.712-3.031-.82Z" transform="translate(-891.274 -233.589)" fill="#fff"/>
            </g>
            <g id="Grupo_70445" data-name="Grupo 70445" transform="translate(1.317 1.841)">
              <path id="Trazado_107353" data-name="Trazado 107353" d="M898.75,240.373a.052.052,0,0,1-.026-.007l-4.505-2.6a.052.052,0,0,1-.019-.07.053.053,0,0,1,.071-.019l4.5,2.6a.052.052,0,0,1-.026.1Z" transform="translate(-894.193 -237.669)" fill="#fff"/>
            </g>
          </g>
          <g id="Grupo_70449" data-name="Grupo 70449" transform="translate(6.388)">
            <g id="Grupo_70447" data-name="Grupo 70447">
              <path id="Trazado_107354" data-name="Trazado 107354" d="M910.048,225.532l3.068.83,1.437,1.771-4.505,2.6-4.5-2.6Z" transform="translate(-905.492 -225.48)" fill="#0075a4"/>
              <path id="Trazado_107355" data-name="Trazado 107355" d="M909.986,230.722a.054.054,0,0,1-.026-.007l-4.5-2.6a.053.053,0,0,1-.026-.045.052.052,0,0,1,.026-.045l4.5-2.6a.05.05,0,0,1,.039-.005l3.068.83a.052.052,0,0,1,.027.017l1.437,1.771a.052.052,0,0,1-.014.078l-4.505,2.6A.054.054,0,0,1,909.986,230.722Zm-4.4-2.653,4.4,2.542,4.427-2.556-1.389-1.711-3.031-.82Z" transform="translate(-905.429 -225.417)" fill="#fff"/>
            </g>
            <g id="Grupo_70448" data-name="Grupo 70448" transform="translate(1.317 1.841)">
              <path id="Trazado_107356" data-name="Trazado 107356" d="M912.9,232.2a.054.054,0,0,1-.026-.007l-4.5-2.6a.051.051,0,0,1-.019-.07.052.052,0,0,1,.07-.019l4.505,2.6a.051.051,0,0,1-.026.1Z" transform="translate(-908.348 -229.496)" fill="#fff"/>
            </g>
          </g>
        </g>
      </g>
      <g id="Grupo_70472" data-name="Grupo 70472" transform="translate(19.147 30.704)">
        <g id="Grupo_70471" data-name="Grupo 70471">
          <g id="Grupo_70469" data-name="Grupo 70469">
            <g id="Grupo_70452" data-name="Grupo 70452" transform="translate(2.652 5.057)">
              <path id="Trazado_107357" data-name="Trazado 107357" d="M895.093,281.833v.252h.11v-.2Z" transform="translate(-895.093 -281.833)" fill="#161313"/>
            </g>
            <g id="Grupo_70453" data-name="Grupo 70453" transform="translate(0 3.56)">
              <path id="Trazado_107358" data-name="Trazado 107358" d="M889.217,278.516v.258l.109.039-.054-.3Z" transform="translate(-889.217 -278.516)" fill="#161313"/>
            </g>
            <g id="Grupo_70468" data-name="Grupo 70468">
              <g id="Grupo_70454" data-name="Grupo 70454" transform="translate(3.869 0.009)">
                <path id="Trazado_107359" data-name="Trazado 107359" d="M898.643,274.05l2.247-3.317v-.085a.912.912,0,0,0-.543.221c-.225.2-2.556,2.5-2.556,2.5l.546.386-.113.288Z" transform="translate(-897.791 -270.647)" fill="#5f6a73"/>
              </g>
              <g id="Grupo_70455" data-name="Grupo 70455" transform="translate(3.869)">
                <path id="Trazado_107360" data-name="Trazado 107360" d="M898.643,273.954l2.247-3.317a.681.681,0,0,0-.543.136c-.225.2-2.556,2.5-2.556,2.5l.546.386-.113.288Z" transform="translate(-897.791 -270.627)" fill="#d1d1d1"/>
              </g>
              <g id="Grupo_70456" data-name="Grupo 70456" transform="translate(2.786 4.568)">
                <path id="Trazado_107361" data-name="Trazado 107361" d="M895.391,280.779V281l.212-.254Z" transform="translate(-895.391 -280.749)" fill="#161313"/>
              </g>
              <g id="Grupo_70457" data-name="Grupo 70457" transform="translate(5.139 4.22)">
                <path id="Trazado_107362" data-name="Trazado 107362" d="M900.774,279.977v.29l-.169-.066Z" transform="translate(-900.605 -279.977)" fill="#161313"/>
              </g>
              <g id="Grupo_70458" data-name="Grupo 70458" transform="translate(3.486 0.772)">
                <path id="Trazado_107363" data-name="Trazado 107363" d="M896.941,274.248l5.275-1.911s.151.217-.153.38-3.8,1.893-3.8,1.893l-.755-.242-.471.115Z" transform="translate(-896.941 -272.337)" fill="#5f6a73"/>
              </g>
              <g id="Grupo_70459" data-name="Grupo 70459" transform="translate(3.486 0.75)">
                <path id="Trazado_107364" data-name="Trazado 107364" d="M896.941,274.152l5.258-1.863s.168.169-.136.333-3.8,1.893-3.8,1.893l-.755-.242-.471.115Z" transform="translate(-896.941 -272.289)" fill="#e1e1e1"/>
              </g>
              <g id="Grupo_70460" data-name="Grupo 70460" transform="translate(4.385 2.391)">
                <path id="Trazado_107365" data-name="Trazado 107365" d="M899.016,276.2a.442.442,0,0,0,.4,0,.122.122,0,0,0,0-.232.445.445,0,0,0-.4,0A.122.122,0,0,0,899.016,276.2Z" transform="translate(-898.933 -275.925)" fill="#5f6a73"/>
              </g>
              <g id="Grupo_70461" data-name="Grupo 70461" transform="translate(4.385 2.319)">
                <ellipse id="Elipse_4476" data-name="Elipse 4476" cx="0.283" cy="0.164" rx="0.283" ry="0.164" fill="#d1d1d1"/>
              </g>
              <g id="Grupo_70463" data-name="Grupo 70463" transform="translate(4.495 2.391)">
                <g id="Grupo_70462" data-name="Grupo 70462">
                  <path id="Trazado_107366" data-name="Trazado 107366" d="M899.214,276.092l.012,0,.268-.094a.036.036,0,0,0-.024-.069l-.268.094a.036.036,0,0,0,.012.071Z" transform="translate(-899.177 -275.926)" fill="#5f6a73"/>
                </g>
              </g>
              <g id="Grupo_70464" data-name="Grupo 70464" transform="translate(2.652 3.274)">
                <path id="Trazado_107367" data-name="Trazado 107367" d="M896.367,280.308a2.373,2.373,0,0,0,1.241-.771.559.559,0,0,0-.165-.875c-.11-.046-.362-.145-.3-.272a1.173,1.173,0,0,1,.189-.254v-.254l-.715.2-1.045,1.13-.134,0-.212.241.087.05s-.44.4-.078.662A1.6,1.6,0,0,0,896.367,280.308Zm-.191-1.153a1.991,1.991,0,0,1,.454-.368s.538-.129.64.315-.774.855-.774.855a1.186,1.186,0,0,1-.786.1C895.411,279.938,895.867,279.446,896.176,279.154Z" transform="translate(-895.093 -277.881)" fill="#161313"/>
              </g>
              <g id="Grupo_70465" data-name="Grupo 70465" transform="translate(0 2.675)">
                <path id="Trazado_107368" data-name="Trazado 107368" d="M889.7,278.212a1.656,1.656,0,0,0,1.1-.186l.1.038.361-.171-.021-.076,1.687-.831v-.254l-.237-.139a2.69,2.69,0,0,1-.389.161.736.736,0,0,1-.524-.11,2.2,2.2,0,0,0-1.516.094,1.7,1.7,0,0,0-1.039.865C889.2,277.691,889.18,278.065,889.7,278.212Zm.1-.294c-.284-.161-.007-.464-.007-.464a1.987,1.987,0,0,1,1.281-.62c.774-.037.67.294.67.294a2.387,2.387,0,0,1-.526.335C890.794,277.7,890.06,278.063,889.8,277.918Z" transform="translate(-889.217 -276.554)" fill="#161313"/>
              </g>
              <g id="Grupo_70466" data-name="Grupo 70466" transform="translate(2.652 3.224)">
                <path id="Trazado_107369" data-name="Trazado 107369" d="M896.367,279.993a2.37,2.37,0,0,0,1.241-.771.559.559,0,0,0-.165-.875c-.11-.046-.362-.145-.3-.272a1.173,1.173,0,0,1,.189-.254l-.715-.05-1.045,1.13-.134,0-.212.241.087.05s-.44.4-.078.663A1.6,1.6,0,0,0,896.367,279.993Zm-.191-1.153a2,2,0,0,1,.454-.368s.538-.129.64.315-.774.855-.774.855a1.189,1.189,0,0,1-.786.1C895.411,279.623,895.867,279.131,896.176,278.839Z" transform="translate(-895.093 -277.77)" fill="#354645"/>
              </g>
              <g id="Grupo_70467" data-name="Grupo 70467" transform="translate(0 2.421)">
                <path id="Trazado_107370" data-name="Trazado 107370" d="M889.7,277.649a1.656,1.656,0,0,0,1.1-.186l.1.038.361-.171-.021-.076,1.687-.831-.237-.393a2.694,2.694,0,0,1-.389.161.735.735,0,0,1-.524-.11,2.2,2.2,0,0,0-1.516.094,1.7,1.7,0,0,0-1.039.865C889.2,277.128,889.18,277.5,889.7,277.649Zm.1-.294c-.284-.161-.007-.463-.007-.463a1.989,1.989,0,0,1,1.281-.62c.774-.037.67.294.67.294a2.388,2.388,0,0,1-.526.335C890.794,277.138,890.06,277.5,889.8,277.356Z" transform="translate(-889.217 -275.992)" fill="#354645"/>
              </g>
            </g>
          </g>
          <g id="Grupo_70470" data-name="Grupo 70470" transform="translate(1.692 3.76)">
            <path id="Trazado_107371" data-name="Trazado 107371" d="M893.328,278.958v.254l-.361.171v-.254Z" transform="translate(-892.967 -278.958)" fill="#161313"/>
          </g>
        </g>
      </g>
    </g>
  </g>
</svg>
