<svg xmlns="http://www.w3.org/2000/svg" width="610" height="439.566" viewBox="0 0 610 439.566">
  <g id="_2" data-name="2" transform="translate(-71.927 -21.224)">
    <g id="Grupo_58245" data-name="Grupo 58245" transform="translate(71.927 21.224)">
      <g id="Grupo_58226" data-name="Grupo 58226" transform="translate(96.736)">
        <rect id="Rectángulo_5546" data-name="Rectángulo 5546" width="497.949" height="428.508" fill="#e4dad8"/>
        <g id="Grupo_58224" data-name="Grupo 58224" transform="translate(11.246 10.391)">
          <path id="Trazado_105916" data-name="Trazado 105916" d="M198.212,52.644a10.121,10.121,0,1,0-10.121-10.121A10.141,10.141,0,0,0,198.212,52.644Z" transform="translate(-188.091 -32.402)" fill="#a39691" fill-rule="evenodd"/>
          <path id="Trazado_105917" data-name="Trazado 105917" d="M687.926,52.644A10.121,10.121,0,1,0,677.8,42.523,10.141,10.141,0,0,0,687.926,52.644Z" transform="translate(-222.585 -32.402)" fill="#a39691" fill-rule="evenodd"/>
          <path id="Trazado_105918" data-name="Trazado 105918" d="M198.212,469.486a10.122,10.122,0,1,0-10.121-10.123A10.143,10.143,0,0,0,198.212,469.486Z" transform="translate(-188.091 -61.762)" fill="#a39691" fill-rule="evenodd"/>
          <path id="Trazado_105919" data-name="Trazado 105919" d="M687.926,469.486A10.122,10.122,0,1,0,677.8,459.363,10.144,10.144,0,0,0,687.926,469.486Z" transform="translate(-222.585 -61.762)" fill="#a39691" fill-rule="evenodd"/>
        </g>
        <rect id="Rectángulo_5547" data-name="Rectángulo 5547" width="426.246" height="366.806" transform="translate(35.851 30.85)" fill="#0075a4"/>
        <path id="Trazado_105920" data-name="Trazado 105920" d="M235.8,54.414h2.458v366.8H235.8V54.414Zm384.3,0h2.456v366.8h-2.456V54.414Zm-22.607,0h2.457v366.8H597.5V54.414Zm-22.6,0h2.456v366.8h-2.456V54.414Zm-22.606,0h2.455v366.8h-2.455V54.414Zm-22.607,0h2.456v366.8h-2.456V54.414Zm-22.607,0h2.457v366.8h-2.457V54.414Zm-22.6,0h2.456v366.8H484.47V54.414Zm-22.606,0h2.456v366.8h-2.456V54.414Zm-22.607,0h2.456v366.8h-2.456V54.414Zm-22.607,0h2.457v366.8H416.65V54.414Zm-22.6,0H396.5v366.8h-2.456V54.414Zm-22.607,0H373.9v366.8h-2.457V54.414Zm-22.606,0h2.457v366.8h-2.457V54.414Zm-22.606,0h2.456v366.8h-2.456V54.414Zm-22.605,0h2.456v366.8h-2.456V54.414Zm-22.607,0h2.457v366.8h-2.457V54.414Zm-22.606,0h2.457v366.8h-2.457Z" transform="translate(-180.205 -23.562)" fill="#f9f6f2" fill-rule="evenodd" opacity="0.38"/>
        <path id="Trazado_105921" data-name="Trazado 105921" d="M640.808,407.089v2.456H214.564v-2.456Zm0-22.6v2.456H214.564v-2.456Zm0-22.608v2.457H214.564v-2.457Zm0-22.606v2.456H214.564v-2.456Zm0-22.606v2.456H214.564v-2.456Zm0-22.605v2.457H214.564V294.06Zm0-22.606v2.456H214.564v-2.456Zm0-22.607V251.3H214.564v-2.456Zm0-22.606V228.7H214.564v-2.456Zm0-22.605v2.457H214.564v-2.457Zm0-22.606v2.457H214.564v-2.457Zm0-22.606v2.455H214.564v-2.455Zm0-22.607v2.456H214.564v-2.456Zm0-22.605v2.457H214.564v-2.457Zm0-22.606v2.456H214.564V90.605Zm0-22.606v2.456H214.564V68Z" transform="translate(-178.709 -24.519)" fill="#f9f6f2" fill-rule="evenodd" opacity="0.38"/>
        <path id="Trazado_105922" data-name="Trazado 105922" d="M311.133,394.718H451.2c1.587-15.511,9.622-83.981,29.217-100.594,19.713-16.712,103.651-4.454,122.731-1.407L606.861,189.2c-15.593,11.234-58.9,38.626-88.548,20.5-29.32-17.929-50.83-84.936-57.693-108.744-7.2,10.637-24.684,26.088-61.109,10.282-38.736-16.809-54.422-24.276-59.223-26.63l-32.788,20.1,26.191,60.734a3.452,3.452,0,0,1-5.5,3.908L274.9,124.7l-21.783,13.356,57.927,253.882a3.528,3.528,0,0,1,.085.757l.009,2.028Zm143.192,6.906H307.68a3.454,3.454,0,0,1-3.453-3.452v-5.139L245.873,137.291a3.452,3.452,0,0,1,1.538-3.825l25.861-15.856a3.453,3.453,0,0,1,4.151.21L321.6,154.832,299.98,104.7a3.453,3.453,0,0,1,1.376-4.3l36.908-22.627a3.44,3.44,0,0,1,3.428-.157c.037.018,12.339,6.4,60.542,27.316,42.956,18.638,55.039-11.38,56.072-14.209a3.45,3.45,0,0,1,6.671.069c.069.267,23.551,92.624,56.924,113.032,32.493,19.869,86.333-24.274,86.489-24.4a3.442,3.442,0,0,1,5.61,2.792l-4.1,114.447a3.405,3.405,0,0,1-.047.676,3.449,3.449,0,0,1-3.979,2.82c-.289-.051-101.215-17.543-121-.771-19.248,16.321-26.6,93.392-27.1,98.793a3.452,3.452,0,0,1-3.452,3.447ZM328.191,169.349a3.416,3.416,0,0,1-.838-1.184Z" transform="translate(-180.907 -25.168)" fill="#e4dad8" fill-rule="evenodd"/>
        <g id="Grupo_58225" data-name="Grupo 58225" transform="translate(189.683 37.794)">
          <path id="Trazado_105923" data-name="Trazado 105923" d="M384.884,64.3a2.417,2.417,0,0,0-4.835,0v9.669a2.417,2.417,0,0,0,4.835,0V64.3Zm-4.835,348.083a2.417,2.417,0,1,0,4.835,0v-9.669a2.417,2.417,0,0,0-4.835,0v9.669Zm0-24.172a2.417,2.417,0,1,0,4.835,0v-9.669a2.417,2.417,0,0,0-4.835,0v9.669Zm0-24.173a2.417,2.417,0,1,0,4.835,0v-9.669a2.417,2.417,0,0,0-4.835,0v9.669Zm0-24.171a2.417,2.417,0,0,0,4.835,0V330.2a2.417,2.417,0,0,0-4.835,0v9.668Zm0-24.172a2.417,2.417,0,0,0,4.835,0v-9.669a2.417,2.417,0,0,0-4.835,0v9.669Zm0-24.172a2.417,2.417,0,0,0,4.835,0v-9.669a2.417,2.417,0,0,0-4.835,0v9.669Zm0-24.173a2.417,2.417,0,0,0,4.835,0v-9.669a2.417,2.417,0,0,0-4.835,0v9.669Zm0-24.172a2.417,2.417,0,1,0,4.835,0v-9.669a2.417,2.417,0,0,0-4.835,0v9.669Zm0-24.173a2.417,2.417,0,1,0,4.835,0v-9.669a2.417,2.417,0,0,0-4.835,0V219Zm0-24.172a2.417,2.417,0,1,0,4.835,0v-9.667a2.417,2.417,0,0,0-4.835,0v9.667Zm0-24.171a2.417,2.417,0,1,0,4.835,0v-9.668a2.417,2.417,0,0,0-4.835,0v9.668Zm0-24.172a2.417,2.417,0,1,0,4.835,0v-9.669a2.417,2.417,0,0,0-4.835,0v9.669Zm0-24.172a2.417,2.417,0,0,0,4.835,0v-9.669a2.417,2.417,0,0,0-4.835,0v9.669Zm0-24.173a2.417,2.417,0,1,0,4.835,0V88.47a2.417,2.417,0,0,0-4.835,0Z" transform="translate(-380.049 -61.882)" fill="#e4dad8" fill-rule="evenodd"/>
          <path id="Trazado_105924" data-name="Trazado 105924" d="M507.254,64.3a2.417,2.417,0,0,0-4.835,0v9.669a2.417,2.417,0,0,0,4.835,0V64.3Zm-4.835,348.083a2.417,2.417,0,1,0,4.835,0v-9.669a2.417,2.417,0,0,0-4.835,0v9.669Zm0-24.172a2.417,2.417,0,1,0,4.835,0v-9.669a2.417,2.417,0,0,0-4.835,0v9.669Zm0-24.173a2.417,2.417,0,1,0,4.835,0v-9.669a2.417,2.417,0,0,0-4.835,0v9.669Zm0-24.171a2.417,2.417,0,0,0,4.835,0V330.2a2.417,2.417,0,0,0-4.835,0v9.668Zm0-24.172a2.417,2.417,0,0,0,4.835,0v-9.669a2.417,2.417,0,0,0-4.835,0v9.669Zm0-24.172a2.417,2.417,0,0,0,4.835,0v-9.669a2.417,2.417,0,0,0-4.835,0v9.669Zm0-24.173a2.417,2.417,0,0,0,4.835,0v-9.669a2.417,2.417,0,0,0-4.835,0v9.669Zm0-24.172a2.417,2.417,0,1,0,4.835,0v-9.669a2.417,2.417,0,0,0-4.835,0v9.669Zm0-24.173a2.417,2.417,0,1,0,4.835,0v-9.669a2.417,2.417,0,0,0-4.835,0V219Zm0-24.172a2.417,2.417,0,1,0,4.835,0v-9.667a2.417,2.417,0,0,0-4.835,0v9.667Zm0-24.171a2.417,2.417,0,1,0,4.835,0v-9.668a2.417,2.417,0,0,0-4.835,0v9.668Zm0-24.172a2.417,2.417,0,1,0,4.835,0v-9.669a2.417,2.417,0,0,0-4.835,0v9.669Zm0-24.172a2.417,2.417,0,0,0,4.835,0v-9.669a2.417,2.417,0,0,0-4.835,0v9.669Zm0-24.173a2.417,2.417,0,1,0,4.835,0V88.47a2.417,2.417,0,0,0-4.835,0Z" transform="translate(-388.668 -61.882)" fill="#e4dad8" fill-rule="evenodd"/>
        </g>
        <path id="Trazado_105925" data-name="Trazado 105925" d="M230.418,249.111a2.417,2.417,0,0,0,0,4.835h9.669a2.417,2.417,0,0,0,0-4.835Zm396.428,4.835a2.417,2.417,0,1,0,0-4.835h-9.669a2.417,2.417,0,0,0,0,4.835Zm-24.173,0a2.417,2.417,0,1,0,0-4.835H593a2.417,2.417,0,0,0,0,4.835Zm-24.172,0a2.417,2.417,0,1,0,0-4.835h-9.669a2.417,2.417,0,0,0,0,4.835Zm-24.172,0a2.417,2.417,0,0,0,0-4.835h-9.669a2.417,2.417,0,0,0,0,4.835Zm-24.171,0a2.417,2.417,0,0,0,0-4.835h-9.669a2.417,2.417,0,0,0,0,4.835Zm-24.172,0a2.417,2.417,0,0,0,0-4.835h-9.669a2.417,2.417,0,0,0,0,4.835Zm-24.173,0a2.417,2.417,0,0,0,0-4.835h-9.668a2.417,2.417,0,0,0,0,4.835Zm-24.172,0a2.417,2.417,0,0,0,0-4.835h-9.669a2.417,2.417,0,0,0,0,4.835Zm-24.172,0a2.417,2.417,0,1,0,0-4.835H423.8a2.417,2.417,0,0,0,0,4.835Zm-24.173,0a2.417,2.417,0,1,0,0-4.835h-9.669a2.417,2.417,0,0,0,0,4.835Zm-24.173,0a2.417,2.417,0,1,0,0-4.835H375.45a2.417,2.417,0,0,0,0,4.835Zm-24.172,0a2.417,2.417,0,1,0,0-4.835H351.28a2.417,2.417,0,0,0,0,4.835Zm-24.171,0a2.417,2.417,0,1,0,0-4.835h-9.668a2.417,2.417,0,0,0,0,4.835Zm-24.172,0a2.417,2.417,0,1,0,0-4.835h-9.669a2.417,2.417,0,0,0,0,4.835Zm-24.173,0a2.417,2.417,0,1,0,0-4.835h-9.668a2.417,2.417,0,0,0,0,4.835Zm-24.171,0a2.417,2.417,0,0,0,0-4.835H254.59a2.417,2.417,0,0,0,0,4.835Z" transform="translate(-179.656 -37.275)" fill="#e4dad8" fill-rule="evenodd"/>
      </g>
      <g id="Grupo_58244" data-name="Grupo 58244" transform="translate(0 5.305)">
        <path id="Trazado_105926" data-name="Trazado 105926" d="M312.054,113.533l50.492-4.21c1.521,29.04-.051,60.432-.892,95.094C360.421,255.212,378.3,324.89,375,353.721c-35.692-6.315-44.016,8.616-54.461,5.064C325.72,283.4,316.724,183.655,312.054,113.533Z" transform="translate(-88.84 -32.734)" fill="#ac273d" fill-rule="evenodd"/>
        <g id="Grupo_58227" data-name="Grupo 58227" transform="translate(161.902)">
          <path id="Trazado_105927" data-name="Trazado 105927" d="M308.284,26.931c9.205,0,16.668,7.175,16.668,16.026a15.8,15.8,0,0,1-6.666,12.82,23.164,23.164,0,0,0-20.005,0,15.806,15.806,0,0,1-6.666-12.82C291.615,34.106,299.078,26.931,308.284,26.931Z" transform="translate(-249.303 -26.931)" fill="#e79c75" fill-rule="evenodd"/>
          <path id="Trazado_105928" data-name="Trazado 105928" d="M308.284,26.931a16.922,16.922,0,0,1,12.442,5.364,16.474,16.474,0,0,1,1.944,7.775,16.907,16.907,0,0,1-8.034,14.289,23.532,23.532,0,0,0-6.352-.853,22.111,22.111,0,0,0-10,2.271,15.806,15.806,0,0,1-6.666-12.82C291.615,34.106,299.078,26.931,308.284,26.931Z" transform="translate(-249.303 -26.931)" fill="#ebae92" fill-rule="evenodd"/>
          <path id="Trazado_105929" data-name="Trazado 105929" d="M308.322,55.519c7.8,0,14.356,3.654,16.17,8.586-5.214.166-10.622.255-16.17.255s-10.957-.088-16.17-.255C293.965,59.173,300.516,55.519,308.322,55.519Z" transform="translate(-249.34 -28.945)" fill="#e79c75" fill-rule="evenodd"/>
          <path id="Trazado_105930" data-name="Trazado 105930" d="M321.27,64.858c-4.784,19.623,7.837,24.868,20.212,29.032C354,98.1,359.029,98.239,363.36,110.109c1.3,3.552.838,3.991-1.785,6.805-4.475,4.806-8.988,13.631-11.632,22.033-4.385,15.708-17.425,28.587-15.936,47.614,1.682,21.49,14.1,28.262,18.763,49.742,2.611,12.041,3.835,28.7,1.59,55.167-21.524,11.974-77.042,11.974-98.566,0-2.34-27.577-.912-44.51,1.928-56.662,4.746-20.313,16.784-27.264,18.425-48.247,1.489-19.027-11.551-31.906-15.935-47.614-2.645-8.4-7.157-17.227-11.633-22.033-2.622-2.815-3.081-3.253-1.785-6.805,4.331-11.871,9.355-12.005,21.877-16.219,12.375-4.164,25-9.409,20.212-29.032Z" transform="translate(-246.097 -29.602)" fill="#ebae92" fill-rule="evenodd"/>
          <path id="Trazado_105931" data-name="Trazado 105931" d="M318.038,317.939v14.689H299.663V317.939A126.014,126.014,0,0,0,318.038,317.939Z" transform="translate(-249.87 -47.428)" fill="#e58f60" fill-rule="evenodd"/>
          <path id="Trazado_105932" data-name="Trazado 105932" d="M318.038,317.939V324.3a126.014,126.014,0,0,1-18.375,0v-6.363A126.014,126.014,0,0,0,318.038,317.939Z" transform="translate(-249.87 -47.428)" fill="#cd7e58" fill-rule="evenodd"/>
          <rect id="Rectángulo_5548" data-name="Rectángulo 5548" width="7.395" height="81.377" transform="translate(55.283 285.2)" fill="#e58f60"/>
          <path id="Trazado_105933" data-name="Trazado 105933" d="M312.4,421.285c4.177,2.119,7.165,7.749,7.165,14.362,0,5.933-2.4,11.076-5.918,13.6H303.8c-3.512-2.525-5.918-7.667-5.918-13.6,0-6.613,2.988-12.242,7.165-14.362Z" transform="translate(-249.744 -54.708)" fill="#cd7e58" fill-rule="evenodd"/>
          <path id="Trazado_105934" data-name="Trazado 105934" d="M302.054,447.674a18.028,18.028,0,0,1-4.168-12.028c0-6.613,2.988-12.242,7.165-14.362h6.234a17.576,17.576,0,0,1,3.729,11.126c0,8.462-5.341,15.321-11.929,15.321A9.231,9.231,0,0,1,302.054,447.674Z" transform="translate(-249.744 -54.708)" fill="#e58f60" fill-rule="evenodd"/>
          <path id="Trazado_105935" data-name="Trazado 105935" d="M260.067,478h5.689c8.361,0,26.628-.287,31.795-13.413h16.024C318.74,477.712,337.007,478,345.368,478h5.689a7.065,7.065,0,0,1,7.091,7v1.656a6.962,6.962,0,0,1-.05.827H253.026a6.958,6.958,0,0,1-.05-.827V485A7.066,7.066,0,0,1,260.067,478Z" transform="translate(-246.581 -57.758)" fill="#cd7e58" fill-rule="evenodd"/>
          <path id="Trazado_105936" data-name="Trazado 105936" d="M298.745,468.3a16.775,16.775,0,0,0,2.029-3.714H316.8a16.737,16.737,0,0,0,2.028,3.714Z" transform="translate(-249.805 -57.758)" fill="#ba7051" fill-rule="evenodd"/>
          <path id="Trazado_105937" data-name="Trazado 105937" d="M260.067,478h5.689c8.361,0,26.628-.287,31.795-13.413h13.285c-3.033,9.614-11.467,17.8-22.948,22.9H253.026a6.958,6.958,0,0,1-.05-.827V485A7.066,7.066,0,0,1,260.067,478Z" transform="translate(-246.581 -57.758)" fill="#e58f60" fill-rule="evenodd"/>
          <path id="Trazado_105938" data-name="Trazado 105938" d="M298.745,468.3a16.775,16.775,0,0,0,2.029-3.714H314.06a28.376,28.376,0,0,1-1.472,3.714Z" transform="translate(-249.805 -57.758)" fill="#d8865c" fill-rule="evenodd"/>
          <path id="Trazado_105939" data-name="Trazado 105939" d="M301.416,451.366h14.314a5.622,5.622,0,0,1,5.684,5.523v1.306a5.622,5.622,0,0,1-5.684,5.523H301.416a5.622,5.622,0,0,1-5.684-5.523v-1.306A5.622,5.622,0,0,1,301.416,451.366Z" transform="translate(-249.593 -56.827)" fill="#cd7e58" fill-rule="evenodd"/>
          <path id="Trazado_105940" data-name="Trazado 105940" d="M301.416,451.366h14.314c.146,0,.29.006.433.017a4.359,4.359,0,0,1,2.138,3.345c0,4.011-8.529,7.263-19.05,7.263q-1.01,0-1.993-.039a5.419,5.419,0,0,1-1.526-3.756v-1.306A5.622,5.622,0,0,1,301.416,451.366Z" transform="translate(-249.593 -56.827)" fill="#e58f60" fill-rule="evenodd"/>
          <rect id="Rectángulo_5549" data-name="Rectángulo 5549" width="7.395" height="8.114" transform="translate(55.283 285.2)" fill="#cd7e58"/>
          <rect id="Rectángulo_5550" data-name="Rectángulo 5550" width="2.595" height="46.844" transform="translate(56.611 319.733)" fill="#e9a480"/>
          <path id="Trazado_105941" data-name="Trazado 105941" d="M306.588,422.851c2.188,0,3.66,3.073,3.287,6.865s-2.449,6.866-4.638,6.866-3.66-3.074-3.287-6.866S304.4,422.851,306.588,422.851Z" transform="translate(-250.027 -54.818)" fill="#e9a480" fill-rule="evenodd"/>
          <ellipse id="Elipse_4158" data-name="Elipse 4158" cx="9.71" cy="9.335" rx="9.71" ry="9.335" transform="translate(46.37 2.129)" fill="#e9bba3"/>
          <path id="Trazado_105942" data-name="Trazado 105942" d="M327.174,298.429a122.982,122.982,0,0,1-22.541,2.019c-16.316-.047-35.924-2.668-46.692-7.866l-.155-.076c-.276-.135-.547-.271-.815-.408l-.247-.128q-.473-.245-.93-.5c-2.332-27.5-.92-44.413,1.9-56.557,4.742-20.394,16.807-27.333,18.45-48.352,1.489-19.027-11.551-31.906-15.935-47.614-2.645-8.4-7.157-17.227-11.633-22.033-2.622-2.815-3.081-3.253-1.785-6.805,4.331-11.871,9.355-12.005,21.877-16.219,12.375-4.164,25-9.409,20.212-29.032h12.834c-2.187,8-4.668,23.617.1,30.649,2.127,3.134,6.033,5.492,13.187,7,26.057,5.477,12.487,40.624,5.713,56.041-9.83,22.371-13.632,41.314-10.886,63.079C312.947,246.282,330.641,257.6,327.174,298.429Z" transform="translate(-246.097 -29.602)" fill="#e9bba3" fill-rule="evenodd"/>
        </g>
        <g id="Grupo_58228" data-name="Grupo 58228" transform="translate(15.996 103.918)">
          <path id="Trazado_105943" data-name="Trazado 105943" d="M370.2,140.98c15.395,100.56-47.4,102.564-111.033,126.794-13.433,5.115-25.981,13.93-36.515,32.78,3.761,60.015,15.225,151.653-46.152,164.022H100.167c.387-24.4,27.265-21.824,41.76-28.426,41.584-18.94,62.794-90.209,74.049-138.791,19.341-83.487,72.187-67.218,132.178-113.409C358.132,176.269,365.026,163.99,370.2,140.98Z" transform="translate(-89.912 -138.882)" fill="#d7314c" fill-rule="evenodd"/>
          <path id="Trazado_105944" data-name="Trazado 105944" d="M189.95,480.739a55.738,55.738,0,0,1-13.455,4.483H100.167c.289-18.232,15.366-21.4,29.016-24.594,14.5,1.691,33.692-2.629,43.773-19.7,9.067-15.355,17.606-2.407,6.154,14.712-1.619,2.422-5.42,10.713-2.241,13.82,3.75,3.663,9.575-2.8,12.652-4.775,5.8-3.734,8.8,3.663,5.3,9.821A32.361,32.361,0,0,1,189.95,480.739Z" transform="translate(-89.912 -159.527)" fill="#c22c44" fill-rule="evenodd"/>
          <path id="Trazado_105945" data-name="Trazado 105945" d="M229.1,312.49c.342,5.465.749,11.195,1.158,17.1-4.73,8.156-7.793,18.795-10.829,29.646-4.425,15.819-9.028,34.783-14.038,49.852-4.894,14.716-20.291,17.148-10.314-3.123,7.772-15.793,23.191-39.574,20.071-58.919-.7-4.322,1.353-10.343,1.283-13.775,2.153-7.937,4.052-15.628,5.734-22.844-.954,8.5-2.265,16.161-1.02,19.421A2.3,2.3,0,0,0,224,331.432C229.3,329.992,227.6,317.364,229.1,312.49Z" transform="translate(-96.365 -150.817)" fill="#c22c44" fill-rule="evenodd"/>
          <path id="Trazado_105946" data-name="Trazado 105946" d="M99.448,466.754h57.137a10.395,10.395,0,0,1,0,20.789H99.448a10.354,10.354,0,0,1-10.313-10.394A10.524,10.524,0,0,1,99.448,466.754Z" transform="translate(-89.135 -161.828)" fill="#de4652" fill-rule="evenodd"/>
          <path id="Trazado_105947" data-name="Trazado 105947" d="M99.448,466.755h57.137c.156,0,.31,0,.465.01a5.732,5.732,0,0,1,1.094,3.252c0,8.159-20.114,14.773-44.926,14.773a121.947,121.947,0,0,1-22.411-1.967,10.4,10.4,0,0,1-1.671-5.674A10.523,10.523,0,0,1,99.448,466.755Z" transform="translate(-89.135 -161.828)" fill="#e55b59" fill-rule="evenodd"/>
          <path id="Trazado_105948" data-name="Trazado 105948" d="M160.9,487.522a10.395,10.395,0,1,0-10.342-10.394A10.388,10.388,0,0,0,160.9,487.522Z" transform="translate(-93.462 -161.827)" fill="#bd3140" fill-rule="evenodd"/>
          <path id="Trazado_105949" data-name="Trazado 105949" d="M390.656,140.821s.532-2.892,4.08-1.885a11.806,11.806,0,0,1,5.4,4.529c4.3,7.257,1.961,23.009,5.291,31.316-5.553-1.169-8.931,2.738-12.959,6.037C393.542,169.54,393.035,156.36,390.656,140.821Z" transform="translate(-110.373 -138.723)" fill="#c22c44" fill-rule="evenodd"/>
          <path id="Trazado_105950" data-name="Trazado 105950" d="M401.991,172.86a79.274,79.274,0,0,1-1.5-12.718c-.306-4.416-.663-11.745-2.779-15.579a7.412,7.412,0,0,0-.735-1.075c-.591-.728-3.279-3.819-4.051-2.2,1.762,11.651,3.272,22.865,2.821,34.694C397.951,173.975,399.088,173.042,401.991,172.86Z" transform="translate(-110.533 -138.871)" fill="#df4157" fill-rule="evenodd"/>
          <path id="Trazado_105951" data-name="Trazado 105951" d="M406.153,177.49c1.261,2.323-1.687,4.093-4.751,3.449.047-.564.035-2,.02-3.187A8.813,8.813,0,0,1,406.153,177.49Z" transform="translate(-111.13 -141.439)" fill="#9c2437" fill-rule="evenodd"/>
          <path id="Trazado_105952" data-name="Trazado 105952" d="M398.467,178.969c.534,5.254.131,9.088-1.853,9.813a7.8,7.8,0,0,0-4.467-1.294c.084-.634.3-2.8.43-3.836A56.906,56.906,0,0,1,398.467,178.969Z" transform="translate(-110.478 -141.558)" fill="#8e2032" fill-rule="evenodd"/>
          <path id="Trazado_105953" data-name="Trazado 105953" d="M161.621,466.733a10.395,10.395,0,0,1,0,20.789c-.29,0-.578-.013-.863-.036a10.4,10.4,0,0,0,0-20.716C161.042,466.746,161.331,466.733,161.621,466.733Z" transform="translate(-94.18 -161.827)" fill="#d7314c" fill-rule="evenodd"/>
          <path id="Trazado_105954" data-name="Trazado 105954" d="M151.821,472.562h8.9a7.685,7.685,0,0,1,.091,15.368,10.407,10.407,0,0,1-9-15.368Z" transform="translate(-93.462 -162.237)" fill="#9c2437" fill-rule="evenodd"/>
          <path id="Trazado_105955" data-name="Trazado 105955" d="M151.821,472.562h8.9a7.693,7.693,0,0,1-4.89,13.516q-.449,0-.888-.046a10.435,10.435,0,0,1-3.121-13.469Z" transform="translate(-93.462 -162.237)" fill="#8e2032" fill-rule="evenodd"/>
          <path id="Trazado_105956" data-name="Trazado 105956" d="M151.821,472.562h8.611v.006a7.668,7.668,0,0,0-7.356,7.679c0,1.164-.537,1.433-1.662,1.433h0a10.9,10.9,0,0,1-.518-1.5,10.453,10.453,0,0,1-.323-2.092v-.03a10.526,10.526,0,0,1,.293-3.036l0-.011v0l0-.007a10.416,10.416,0,0,1,.886-2.317Z" transform="translate(-93.462 -162.237)" fill="#d7314c" fill-rule="evenodd"/>
          <path id="Trazado_105957" data-name="Trazado 105957" d="M383.481,156.933c-6.974,30.117-32.128,54.962-62.561,65.385-20.571,7.044-11.552,20.555,7.3,14.386C360.016,226.294,378.274,187.356,383.481,156.933Z" transform="translate(-104.634 -140.006)" fill="#c22c44" fill-rule="evenodd"/>
          <path id="Trazado_105958" data-name="Trazado 105958" d="M228.256,307.26c1.352-15.1,19.532-41.181,34.361-53.551,14.027-11.7,28.31-6.718,8.565,6.589-4.355,2.935-9.7,6.237-15.1,9.648C242.225,278.688,233.566,295.162,228.256,307.26Z" transform="translate(-98.934 -146.359)" fill="#c22c44" fill-rule="evenodd"/>
          <path id="Trazado_105959" data-name="Trazado 105959" d="M245.128,284.456c11.236-13.917,33.863-26.175,47.906-31.734,4.76-1.884,9.566-3.732,10.783-2.562.983.944-15.216,8.91-14.22,10.023,1.032,1.155,5.647.392,10.253-.656,15.327-3.488,11.1-.607.2,2.35-21.907,5.944-36.871,9.54-52.408,23.624C243.679,289.092,238.083,293.183,245.128,284.456Z" transform="translate(-99.886 -146.546)" fill="#dc4251" fill-rule="evenodd"/>
        </g>
        <g id="Grupo_58232" data-name="Grupo 58232" transform="translate(104.91 257.582)">
          <path id="Trazado_105960" data-name="Trazado 105960" d="M195.519,479.174h-7.281a8.778,8.778,0,0,1-.722,4.889c-.495,1.265,7.463,1.345,7.281,0A5.924,5.924,0,0,1,195.519,479.174Z" transform="translate(-184.977 -316.367)" fill="#feceb4" fill-rule="evenodd"/>
          <path id="Trazado_105961" data-name="Trazado 105961" d="M197.9,484.233a57.13,57.13,0,0,1-10.242-1.245,2.8,2.8,0,0,0-2.87,2.73,2.692,2.692,0,0,0,1.24,2.248h15.012a2.287,2.287,0,0,0,.227-.991C201.265,485.461,199.758,484.233,197.9,484.233Z" transform="translate(-184.786 -316.636)" fill="#059485" fill-rule="evenodd"/>
          <path id="Trazado_105962" data-name="Trazado 105962" d="M198.023,484.233a57.13,57.13,0,0,1-10.242-1.245,2.974,2.974,0,0,0-1.21.255c2.788,2.952,9.191,4.077,14.76,4.254a2.254,2.254,0,0,0,.06-.521C201.391,485.461,199.883,484.233,198.023,484.233Z" transform="translate(-184.912 -316.636)" fill="#05827a" fill-rule="evenodd"/>
          <path id="Trazado_105963" data-name="Trazado 105963" d="M200.6,489.155H186.454a.522.522,0,0,1-.521-.521v-.292h15.182v.292A.521.521,0,0,1,200.6,489.155Z" transform="translate(-184.867 -317.013)" fill="#254b4b" fill-rule="evenodd"/>
          <path id="Trazado_105964" data-name="Trazado 105964" d="M223.439,479.174h-7.281a8.769,8.769,0,0,1-.722,4.889c-.495,1.265,7.463,1.345,7.281,0A5.924,5.924,0,0,1,223.439,479.174Z" transform="translate(-186.943 -316.367)" fill="#feceb4" fill-rule="evenodd"/>
          <path id="Trazado_105965" data-name="Trazado 105965" d="M225.818,484.233a57.131,57.131,0,0,1-10.242-1.245,2.8,2.8,0,0,0-2.87,2.73,2.692,2.692,0,0,0,1.24,2.248h15.013a2.3,2.3,0,0,0,.226-.991C229.185,485.461,227.678,484.233,225.818,484.233Z" transform="translate(-186.753 -316.636)" fill="#059485" fill-rule="evenodd"/>
          <path id="Trazado_105966" data-name="Trazado 105966" d="M225.943,484.233a57.131,57.131,0,0,1-10.242-1.245,2.974,2.974,0,0,0-1.21.255c2.788,2.952,9.191,4.077,14.76,4.254a2.254,2.254,0,0,0,.06-.521C229.311,485.461,227.8,484.233,225.943,484.233Z" transform="translate(-186.878 -316.636)" fill="#05827a" fill-rule="evenodd"/>
          <path id="Trazado_105967" data-name="Trazado 105967" d="M228.515,489.155H214.374a.521.521,0,0,1-.52-.521v-.292h15.181v.292A.521.521,0,0,1,228.515,489.155Z" transform="translate(-186.833 -317.013)" fill="#254b4b" fill-rule="evenodd"/>
          <path id="Trazado_105968" data-name="Trazado 105968" d="M196.263,477.765c-1.352,1.173-7.58.372-8.324-.327,3.539-18.075,4.938-28.111,12.914-35.555,7.06-6.587,22.33-8.96,14.722,4.928C209.661,457.608,201.57,469.119,196.263,477.765Z" transform="translate(-185.008 -313.371)" fill="#033" fill-rule="evenodd"/>
          <path id="Trazado_105969" data-name="Trazado 105969" d="M223.474,477.63c-1.163,1.216-7.52.385-8.378-.338.614-18.726.389-29.124,7.162-36.835,5.994-6.825,20.88-9.283,15.519,5.1C233.61,456.747,227.381,468.672,223.474,477.63Z" transform="translate(-186.921 -313.257)" fill="#124545" fill-rule="evenodd"/>
          <path id="Trazado_105970" data-name="Trazado 105970" d="M204.025,435.3c-.274-4.726-2.314-13.465-3.1-18.9-2.158-14.96,3.18-27.172,13.031-28.605,7.459-1.085,14.256,8.38,11.514,19.329-3.066,12.249-4.392,22.368-7.812,33.665C216.381,445.013,204.474,443.027,204.025,435.3Z" transform="translate(-185.889 -309.925)" fill="#033" fill-rule="evenodd"/>
          <path id="Trazado_105971" data-name="Trazado 105971" d="M200.483,411.563c-.482-12.685,4.71-22.494,13.475-23.769,7.459-1.085,14.256,8.38,11.514,19.329q-.148.593-.291,1.178C217.718,410.708,205.261,412.98,200.483,411.563Z" transform="translate(-185.889 -309.925)" fill="#002525" fill-rule="evenodd"/>
          <path id="Trazado_105972" data-name="Trazado 105972" d="M224.493,394.548a18.617,18.617,0,0,1,1.189,12.863c-2.791,11.148-4.141,20.532-6.939,30.646-2.417-3.854-7.121-9.377-9.746-13.16-7.939-11.445-7.437-24.593,1.7-31.082A11.281,11.281,0,0,1,224.493,394.548Z" transform="translate(-186.098 -310.213)" fill="#002525" fill-rule="evenodd"/>
          <path id="Trazado_105973" data-name="Trazado 105973" d="M222.758,439.158c-2.577-3.834-8.748-10.1-12.145-14.261-9.341-11.445-10.448-24.593-2.11-31.082,6.315-4.915,17.21-.587,20.08,10.106,3.212,11.962,6.972,21.2,9.39,32.545C238.879,440.711,226.97,445.425,222.758,439.158Z" transform="translate(-186.06 -310.213)" fill="#124545" fill-rule="evenodd"/>
          <path id="Trazado_105974" data-name="Trazado 105974" d="M203.786,412.274c-2.088-7.42-.621-14.3,4.718-18.459,6.315-4.915,17.21-.587,20.08,10.106q.422,1.573.856,3.085C224.6,409.408,211.192,412.524,203.786,412.274Z" transform="translate(-186.06 -310.213)" fill="#013b3c" fill-rule="evenodd"/>
          <path id="Trazado_105975" data-name="Trazado 105975" d="M229.344,400.324c1.107,2.629-28.755,9.74-29.967,4.625-1.762-7.428-3.953-18.248-3.207-29.377.928-13.837,5.966-27.462,16.986-27.527C229.188,347.949,228.168,388.528,229.344,400.324Z" transform="translate(-185.577 -307.131)" fill="#1ec6a5" fill-rule="evenodd"/>
          <path id="Trazado_105976" data-name="Trazado 105976" d="M215.97,405.439c-7.7,1.579-15.968,2.2-16.594-.443-1.762-7.428-3.953-18.248-3.207-29.377.812-12.119,4.778-24.073,13.152-26.9C219.258,356.572,216.238,391.68,215.97,405.439Z" transform="translate(-185.577 -307.178)" fill="#3ed1b4" fill-rule="evenodd"/>
          <path id="Trazado_105977" data-name="Trazado 105977" d="M223.263,355.439c2.807,5.507,4.277,13.516,5.123,21.44a14.193,14.193,0,0,1-6.979,1.494c-9.276-.217-16.167-8.076-16.078-15.73.126-10.868,9.991-6.415,14.041-10.268Q221.4,353.831,223.263,355.439Z" transform="translate(-186.233 -307.436)" fill="#14b298" fill-rule="evenodd"/>
          <g id="Grupo_58230" data-name="Grupo 58230" transform="translate(8.744 13.488)">
            <path id="Trazado_105978" data-name="Trazado 105978" d="M217.191,342.154c-1.618,2.549-2.5,4.7.058,7.291a16.605,16.605,0,0,1-9.44,1.48c.961-3.853-.677-8.494.927-11.337C210.667,339.931,215.293,341.659,217.191,342.154Z" transform="translate(-195.152 -320.023)" fill="#fea682" fill-rule="evenodd"/>
            <path id="Trazado_105979" data-name="Trazado 105979" d="M210.246,323.628c-2.171,1.975-4.211,13.63-2.194,16.244.81,1.048,2.556,1.117,4.181,1.343,2.429.338,4.932.365,6.3-.9,1.647-1.524.957-6.879-1.547-11.361C215.1,325.571,211.679,322.325,210.246,323.628Z" transform="translate(-195.111 -318.879)" fill="#feceb4" fill-rule="evenodd"/>
            <path id="Trazado_105980" data-name="Trazado 105980" d="M216.186,344.906c-.576,1.606-.416,3.155,1.308,4.9a13.822,13.822,0,0,1-6.208,1.176c.867-2.869,2.127-5.282,3.59-6.063A1.636,1.636,0,0,1,216.186,344.906Z" transform="translate(-195.397 -320.389)" fill="#febea0" fill-rule="evenodd"/>
            <path id="Trazado_105981" data-name="Trazado 105981" d="M208.736,343.328c1.807-2.319.453-3.794-.831-4.929-1.1-.972-2.211-2.069-1.172-2.858.95-.722,2.425-1.238,2.1-2.677-.035-.153-1.425-1.1-1.657-2.422-.282-1.612.727-3.626,2.6-3.4,6.328.772,9.12-3.127,7.936-5.866-1.278-2.955-5.349-.588-5.756-1.028-2.98-3.215-10.1-1.392-10.545,3.543-12.41,3.252-6.7,20.553,1.28,19.641C202.509,348.852,209.711,347.494,208.736,343.328Z" transform="translate(-194.193 -318.541)" fill="#254b4b" fill-rule="evenodd"/>
            <path id="Trazado_105982" data-name="Trazado 105982" d="M216.128,341.667c-5.619-6.754-5.786-11.384.149-14.043a17.77,17.77,0,0,1,1.036,1.632c2.5,4.482,3.194,9.837,1.547,11.361A4.623,4.623,0,0,1,216.128,341.667Z" transform="translate(-195.438 -319.181)" fill="#fedfcd" fill-rule="evenodd"/>
            <g id="Grupo_58229" data-name="Grupo 58229" transform="translate(11.05 16.12)">
              <path id="Trazado_105983" data-name="Trazado 105983" d="M206.995,336.014c-1.166.514-1.025,1.881-.626,3.041a2.042,2.042,0,0,0,2.521,1.329,1.009,1.009,0,0,0,.544-.6,9.619,9.619,0,0,1-.779-3.261A1.275,1.275,0,0,0,206.995,336.014Z" transform="translate(-206.08 -335.882)" fill="#feceb4" fill-rule="evenodd"/>
              <path id="Trazado_105984" data-name="Trazado 105984" d="M207.64,336.822c-.717.316-.629,1.155-.385,1.867a1.277,1.277,0,0,0,1.479.844,2.062,2.062,0,0,1-.389-.679,3.669,3.669,0,0,1-.208-2.1A.794.794,0,0,0,207.64,336.822Z" transform="translate(-206.151 -335.943)" fill="#fea682" fill-rule="evenodd"/>
            </g>
          </g>
          <g id="Grupo_58231" data-name="Grupo 58231" transform="translate(20.934 0)">
            <path id="Trazado_105985" data-name="Trazado 105985" d="M232.025,314.461c-.526.011-2.7-.036-3.3.032-.194,5.2-.132,12.43-1.331,17.48-1.181,4.971-3.117,11.15-6.277,15.225a8.861,8.861,0,0,1-1.244,1.3c-1.846,1.585-4.151,2.366-6.369,3.264-4.146,1.679-6.142,3.358-6.2,8.229a10.135,10.135,0,0,0,1.787,5.924c2.742,3.947,7.539,5.049,12.054,4.047a15.755,15.755,0,0,0,7.362-3.791c5.9-5.407,7.666-14.98,7.969-22.614C236.715,337.6,233.727,320.99,232.025,314.461Z" transform="translate(-207.306 -304.765)" fill="#feceb4" fill-rule="evenodd"/>
            <path id="Trazado_105986" data-name="Trazado 105986" d="M229.65,308.158c-.713-1.844-1.063-1.479-1.271-1.43-.264.062-.26.615.054,1.875a24.6,24.6,0,0,0,1.763,5.154c.182.384,2.492.812,3.3-.032a25.616,25.616,0,0,1,3.128-7.872c2.227-3.135-1.077-1.784-2.653.714C233.133,307.9,230.664,310.523,229.65,308.158Z" transform="translate(-208.777 -304.031)" fill="#feceb4" fill-rule="evenodd"/>
            <path id="Trazado_105987" data-name="Trazado 105987" d="M225.358,306.089c-.006.324.139.437.594-.037,1.106-1.154,1.368-1.2,1.506-1.035.175.208-.135.843-1.084,2.134-.511.7-1.119,1.508-1.76,2.3C223.536,309.987,224.193,305.9,225.358,306.089Z" transform="translate(-208.487 -304.095)" fill="#feceb4" fill-rule="evenodd"/>
            <path id="Trazado_105988" data-name="Trazado 105988" d="M233.6,313.281c.262-.388,1.049-2.173,2-3.812a22.292,22.292,0,0,1,1.854-2.69c.634-.825.407-1.042-.137-.779a9.234,9.234,0,0,0-2.424,2.1C234.156,309,231.069,313.957,233.6,313.281Z" transform="translate(-209.089 -304.162)" fill="#feceb4" fill-rule="evenodd"/>
          </g>
          <path id="Trazado_105989" data-name="Trazado 105989" d="M221.407,374.169c6.59-1.461,10.838-5.919,13.417-11.755a34.713,34.713,0,0,0-15.454-13.743c-4.05,4.846-13.916,2.811-14.041,13.711C205.24,370.057,212.131,376.228,221.407,374.169Z" transform="translate(-186.233 -307.175)" fill="#1ec6a5" fill-rule="evenodd"/>
          <path id="Trazado_105990" data-name="Trazado 105990" d="M230.959,357.814c-3.365-3.661-5.6-5.942-11.348-8.656-3.467,4.149-13.689,3.923-13.8,13.253a10.13,10.13,0,0,0,3.91,8.2C215.7,375.236,228.395,363.615,230.959,357.814Z" transform="translate(-186.267 -307.209)" fill="#3ed1b4" fill-rule="evenodd"/>
          <path id="Trazado_105991" data-name="Trazado 105991" d="M210.522,409.573c-5.71.754-10.615.632-11.092-1.379a133.219,133.219,0,0,1-2.644-14.072C199.428,401.738,199.572,409.243,210.522,409.573Z" transform="translate(-185.631 -310.376)" fill="#8de6d4" fill-rule="evenodd"/>
          <path id="Trazado_105992" data-name="Trazado 105992" d="M234.311,317.331a14.238,14.238,0,0,1-4.064.427c.017-.614.033-1.216.049-1.8a14.322,14.322,0,0,0,1.754-.069,14.179,14.179,0,0,0,1.853-.31C234.034,316.12,234.171,316.707,234.311,317.331Z" transform="translate(-187.988 -304.844)" fill="#14b298" fill-rule="evenodd"/>
          <path id="Trazado_105993" data-name="Trazado 105993" d="M193.268,475.115c5.991-9.785,12.547-19.18,17.994-29.319a13.454,13.454,0,0,0,1.7-4.7,1.825,1.825,0,0,0-.246-1.283c-.591-.6-2.326-.494-3.058-.4a17.211,17.211,0,0,0-6,2.145,16.909,16.909,0,0,0-3.224,2.345,23.392,23.392,0,0,0-3.227,3.753,36.649,36.649,0,0,0-4.9,11.942c-1.238,4.9-2.134,9.976-3.033,14.992C188.64,478.1,192.138,476.961,193.268,475.115Z" transform="translate(-185.096 -313.561)" fill="#124545" fill-rule="evenodd"/>
          <path id="Trazado_105994" data-name="Trazado 105994" d="M220.047,472.742c3.135-6.575,6.253-13.174,9.2-19.842,1.424-3.22,2.79-6.473,4.019-9.772,1.945-5.22.046-9.278-1.554-14.466-.99-3.212-2.017-6.38-3.016-9.53-4.026-12.688-24.883-3.451-17.44,5.667,1.778,2.179,3.713,4.272,5.59,6.367a79.857,79.857,0,0,1,6.619,7.973,12.1,12.1,0,0,0-1.485,1.416,19.023,19.023,0,0,0-2.133,2.952c-2.19,3.748-3.007,8.194-3.464,12.457-.315,2.939-.467,5.907-.585,8.86-.1,2.6-.131,5.206-.258,7.806C215.378,475.969,218.212,476.594,220.047,472.742Z" transform="translate(-186.539 -311.701)" fill="#2a5858" fill-rule="evenodd"/>
        </g>
        <g id="Grupo_58237" data-name="Grupo 58237" transform="translate(292.69 22.786)">
          <g id="Grupo_58233" data-name="Grupo 58233" transform="translate(57.261 136.028)">
            <path id="Trazado_105995" data-name="Trazado 105995" d="M456.434,197.779h7.7a10.422,10.422,0,0,0-1.694,5.168c-.113,1.338-8.568,1.423-7.7,0A7.018,7.018,0,0,0,456.434,197.779Z" transform="translate(-448.837 -197.779)" fill="#feceb4" fill-rule="evenodd"/>
            <path id="Trazado_105996" data-name="Trazado 105996" d="M451.956,203.127c5.741,0,9.944-1.315,10.828-1.315a2.963,2.963,0,0,1,3.034,2.886,2.847,2.847,0,0,1-1.312,2.376H448.634a2.427,2.427,0,0,1-.239-1.048C448.395,204.426,449.989,203.127,451.956,203.127Z" transform="translate(-448.395 -198.063)" fill="#df4157" fill-rule="evenodd"/>
            <path id="Trazado_105997" data-name="Trazado 105997" d="M451.956,203.127c5.741,0,9.944-1.315,10.828-1.315a3.162,3.162,0,0,1,1.28.269c-2.948,3.122-9.718,4.311-15.606,4.5a2.42,2.42,0,0,1-.064-.552C448.395,204.426,449.989,203.127,451.956,203.127Z" transform="translate(-448.395 -198.063)" fill="#c22c44" fill-rule="evenodd"/>
            <path id="Trazado_105998" data-name="Trazado 105998" d="M449.207,208.332H464.16a.551.551,0,0,0,.549-.549v-.31H448.658v.31A.551.551,0,0,0,449.207,208.332Z" transform="translate(-448.414 -198.462)" fill="#254b4b" fill-rule="evenodd"/>
          </g>
          <path id="Trazado_105999" data-name="Trazado 105999" d="M453.488,192.938c1.231,1.2,8.611,1.843,9.461,1.128,2.623-9.359,6.56-25.806.731-35.562-.1-2.633-.007-7.3-.141-11.731-.216-7.1-2.091-16.195-6.441-22.6-7.212-10.615-24.131-3.468-19.63,6.221C447.121,151.178,451.786,175.28,453.488,192.938Z" transform="translate(-390.311 -56.196)" fill="#033" fill-rule="evenodd"/>
          <path id="Trazado_106000" data-name="Trazado 106000" d="M460.658,192.377c1.569-6.54,2.9-14.578,1.759-21.106-1.593-9.125-4.947-2.516-7.033,3.311-1.207,3.368-1.321,8.85-.8,12.454q.34,2.366.626,4.724C455.854,197.122,459.367,197.755,460.658,192.377Z" transform="translate(-391.549 -59.567)" fill="#124545" fill-rule="evenodd"/>
          <path id="Trazado_106001" data-name="Trazado 106001" d="M459.505,128.5a29.612,29.612,0,0,0-2.408-4.318c-7.212-10.615-24.131-3.468-19.63,6.221q1.078,2.319,2.072,4.69c.917-.143,1.87-.31,2.844-.5l.223-6.081,3.019,5.391C451.527,132.53,457.413,130.529,459.505,128.5Z" transform="translate(-390.311 -56.196)" fill="#002525" fill-rule="evenodd"/>
          <path id="Trazado_106002" data-name="Trazado 106002" d="M436.877,126.042a7.149,7.149,0,0,0,.591,4.639c6.962,14.987,11.33,31.7,13.863,46.485,1.993-6.647,2.934-13.389.964-18.378,1.964-12.007,5.223-19.174.81-30.866C450.889,122.052,441.778,121.268,436.877,126.042Z" transform="translate(-390.311 -56.479)" fill="#002525" fill-rule="evenodd"/>
          <g id="Grupo_58234" data-name="Grupo 58234" transform="translate(37.458 136.028)">
            <path id="Trazado_106003" data-name="Trazado 106003" d="M435.935,197.779h7.7a11.848,11.848,0,0,0-2.358,5.168c-.285,1.338-8.75,1.423-7.7,0A7.924,7.924,0,0,0,435.935,197.779Z" transform="translate(-427.542 -197.779)" fill="#feceb4" fill-rule="evenodd"/>
            <path id="Trazado_106004" data-name="Trazado 106004" d="M430.652,203.127c5.741,0,9.944-1.315,10.829-1.315a2.962,2.962,0,0,1,3.033,2.886,2.844,2.844,0,0,1-1.312,2.376H427.331a2.415,2.415,0,0,1-.24-1.048C427.091,204.426,428.685,203.127,430.652,203.127Z" transform="translate(-427.091 -198.063)" fill="#df4157" fill-rule="evenodd"/>
            <path id="Trazado_106005" data-name="Trazado 106005" d="M430.652,203.127c5.741,0,9.944-1.315,10.829-1.315a3.158,3.158,0,0,1,1.279.269c-2.948,3.122-9.718,4.311-15.605,4.5a2.418,2.418,0,0,1-.064-.552C427.091,204.426,428.685,203.127,430.652,203.127Z" transform="translate(-427.091 -198.063)" fill="#c22c44" fill-rule="evenodd"/>
            <path id="Trazado_106006" data-name="Trazado 106006" d="M427.9,208.332h14.952a.551.551,0,0,0,.549-.549v-.31H427.354v.31A.551.551,0,0,0,427.9,208.332Z" transform="translate(-427.11 -198.462)" fill="#254b4b" fill-rule="evenodd"/>
          </g>
          <path id="Trazado_106007" data-name="Trazado 106007" d="M434.617,193.222c1.045,1.2,8.325,1.843,9.286,1.128,4.071-9.359,10.553-25.806,6.235-35.562,1.388-12.007,4.3-19.174-.671-30.866-2.538-5.964-11.944-6.678-16.541-1.643-3.016,3.3-2.986,8.963-1.01,17.656C435.9,161.481,435.5,178.047,434.617,193.222Z" transform="translate(-389.875 -56.479)" fill="#124545" fill-rule="evenodd"/>
          <path id="Trazado_106008" data-name="Trazado 106008" d="M441.092,190.656a100.948,100.948,0,0,0,3.338-10.074c1.4-5.218,2.861-12.906.659-18.066l-.32-.749.091-.814c2.849-25.58-14.119-25.529-11.852-15.175,3.223,14.709,3.583,29.08,2.977,43.891C435.723,196.066,439.105,195.822,441.092,190.656Z" transform="translate(-390.035 -57.63)" fill="#2a5858" fill-rule="evenodd"/>
          <path id="Trazado_106009" data-name="Trazado 106009" d="M430.635,136.29a53.122,53.122,0,0,0,10.2-1.175l.244-6.641,3.3,5.888c2.306-.535,4.61-1.158,6.724-1.841a37.967,37.967,0,0,0-1.631-4.6c-2.538-5.964-11.944-6.678-16.541-1.643C430.907,128.491,430.253,131.761,430.635,136.29Z" transform="translate(-389.875 -56.479)" fill="#033" fill-rule="evenodd"/>
          <path id="Trazado_106010" data-name="Trazado 106010" d="M427.609,130.015c.166,1.162,5.491.807,11.568-.368l.223-6.081,3.019,5.391c7.737-1.8,15.448-4.677,14.618-7.293-6.029-19.008-16.86-56.884-41.493-45.67C401.42,82.423,426.433,101.743,427.609,130.015Z" transform="translate(-388.516 -53.03)" fill="#1ec6a5" fill-rule="evenodd"/>
          <path id="Trazado_106011" data-name="Trazado 106011" d="M422.585,108.293a67.548,67.548,0,0,1,4.985,17.256,38.8,38.8,0,0,0,8.389-12.275c3.716-8.679,4.079-19.9-1.538-28.832-6.9-10.987-22.146-6.121-16.344,7.706C420.8,98.628,422.462,103.759,422.585,108.293Z" transform="translate(-388.907 -53.343)" fill="#14b298" fill-rule="evenodd"/>
          <path id="Trazado_106012" data-name="Trazado 106012" d="M427.61,130.281c.166,1.162,5.491.807,11.568-.368l.223-6.081,3.019,5.391c1.459-.338,2.918-.717,4.318-1.123-2.027-8.3-4.642-18.406-8.437-27.386a34.3,34.3,0,0,1-2.733,12.512,38.792,38.792,0,0,1-8.387,12.272c.213,1.564.36,3.159.428,4.783Zm-6.9-51.171a18.263,18.263,0,0,0-7.5-1.372c-5.891,5.262,2.748,15.783,8.988,30.5-.124-4.533-1.787-9.663-4.507-16.142C414.884,85.418,416.995,80.828,420.7,79.111Z" transform="translate(-388.517 -53.296)" fill="#3ed1b4" fill-rule="evenodd"/>
          <path id="Trazado_106013" data-name="Trazado 106013" d="M406.623,77.611c3.015.184,5.271.734,5.871,4.323a16.6,16.6,0,0,0,6.737-6.777c-3.685-1.482-6.483-5.531-9.725-5.9C408.649,71.023,407.337,75.783,406.623,77.611Z" transform="translate(-388.191 -52.699)" fill="#fea682" fill-rule="evenodd"/>
          <path id="Trazado_106014" data-name="Trazado 106014" d="M394.442,66.04c2.539-1.473,14.266.1,16.148,2.815.754,1.088.293,2.774.018,4.391-.412,2.418-1.142,4.812-2.76,5.734-1.951,1.11-6.847-1.166-10.364-4.906C394.83,71.25,392.768,67.012,394.442,66.04Z" transform="translate(-387.291 -52.432)" fill="#feceb4" fill-rule="evenodd"/>
          <path id="Trazado_106015" data-name="Trazado 106015" d="M417.331,78.751c-3.567-1.021-6.921-1.326-8.871-.363a4.428,4.428,0,0,1,4.164,4.148A16.162,16.162,0,0,0,417.331,78.751Z" transform="translate(-388.321 -53.301)" fill="#febea0" fill-rule="evenodd"/>
          <path id="Trazado_106016" data-name="Trazado 106016" d="M408.778,68.258c-.595-1.341-1.3-2.733-2.37-1.981-.976.687-1.913,1.937-3.187,1.194-.136-.08-.616-1.69-1.809-2.311a2.808,2.808,0,0,0-4.025,1.455,12.994,12.994,0,0,1-2.38,4.19,4.046,4.046,0,0,1-3.332,1.748c-5.634,0-6.538-7.963-1.944-9.984a4.051,4.051,0,0,1,3.451-5.872A8.145,8.145,0,0,1,402,52.32a3.906,3.906,0,0,1,5.67.8,9.262,9.262,0,0,1,7.391,6.577,3.85,3.85,0,0,1,1.3,5.035C418.583,70.7,412.164,75.893,408.778,68.258Z" transform="translate(-386.795 -51.444)" fill="#254b4b" fill-rule="evenodd"/>
          <path id="Trazado_106017" data-name="Trazado 106017" d="M409.855,77.02c-4.742-7.4-9.105-8.954-13.432-4.1a17.637,17.637,0,0,0,1.244,1.481c3.517,3.741,8.413,6.016,10.364,4.906A4.631,4.631,0,0,0,409.855,77.02Z" transform="translate(-387.473 -52.76)" fill="#fedfcd" fill-rule="evenodd"/>
          <g id="Grupo_58235" data-name="Grupo 58235" transform="translate(18.724 13.547)">
            <path id="Trazado_106018" data-name="Trazado 106018" d="M407.287,66.528c.842-.956,2.1-.408,3.088.323a2.042,2.042,0,0,1,.506,2.805,1.012,1.012,0,0,1-.737.337,9.62,9.62,0,0,0-2.873-1.727A1.277,1.277,0,0,1,407.287,66.528Z" transform="translate(-406.937 -66.018)" fill="#feceb4" fill-rule="evenodd"/>
            <path id="Trazado_106019" data-name="Trazado 106019" d="M407.878,67.376c.518-.587,1.291-.251,1.9.2a1.276,1.276,0,0,1,.359,1.664,2.106,2.106,0,0,0-.53-.574,3.67,3.67,0,0,0-1.937-.832A.8.8,0,0,1,407.878,67.376Z" transform="translate(-406.989 -66.091)" fill="#fea682" fill-rule="evenodd"/>
          </g>
          <g id="Grupo_58236" data-name="Grupo 58236" transform="translate(3.581 25.062)">
            <path id="Trazado_106020" data-name="Trazado 106020" d="M402.323,135.079c-1.211-.086-2.762-2.391-2.317-2.991,21.485-13.958,22.741-21.47,16.076-39.94-4.987-13.827,10.54-18.694,16.8-7.706,5.09,8.937,4.067,20.153-.162,28.832C426.7,125.632,414.271,134.87,402.323,135.079Z" transform="translate(-391.3 -78.405)" fill="#feceb4" fill-rule="evenodd"/>
            <path id="Trazado_106021" data-name="Trazado 106021" d="M393.984,139.976c-2.165.749-2.1.167-2.216-.054-.142-.281.35-.691,1.7-1.356a28.612,28.612,0,0,1,5.88-2.3c.476-.125,2.584,1.6,2.443,2.943a23.636,23.636,0,0,1-3.112,6.15c-2.772,3.628-5.927,5.44-4,2.127-2.168,1.419-3.489,1.6-1.346-.927-2.9,1.112-4.29.618.214-2.792C395.51,142.462,396.836,139.1,393.984,139.976Z" transform="translate(-390.647 -82.48)" fill="#feceb4" fill-rule="evenodd"/>
          </g>
          <path id="Trazado_106022" data-name="Trazado 106022" d="M402.938,130.278c18.857-12.832,19.726-20.475,13.355-38.131-4.987-13.827,10.54-18.693,16.8-7.706,5.09,8.937,4.067,20.153-.162,28.832-5.542,11.378-16.514,20.11-27.544,21.587A19.1,19.1,0,0,0,402.938,130.278Z" transform="translate(-387.932 -53.343)" fill="#1ec6a5" fill-rule="evenodd"/>
          <path id="Trazado_106023" data-name="Trazado 106023" d="M407.416,130.915c9.5-2.688,17.571-10.076,21.789-18.735,3.991-8.192,4.863-18.6.229-26.738a9.515,9.515,0,0,0-5.373-4.581,6.694,6.694,0,0,0-5.352.537c-3.5,2.086-3.217,6.524-2.007,9.876,2.333,6.469,4.8,14.13,3.161,21.036-1.714,7.236-7.619,12.152-13.609,16.444C403.636,130.63,404.537,131.73,407.416,130.915Z" transform="translate(-388.056 -53.494)" fill="#3ed1b4" fill-rule="evenodd"/>
          <path id="Trazado_106024" data-name="Trazado 106024" d="M412.056,88.872c1.353,7.214,2.119,11.478-.689,18.492,3.434-1.04,6.243-1.206,8.355-.394L415.479,87.43Z" transform="translate(-388.525 -53.979)" fill="#c22c44" fill-rule="evenodd"/>
          <path id="Trazado_106025" data-name="Trazado 106025" d="M418.467,74.634s1.73-.36,1.458,1.047-2.136,4.318-4.957,6.355c-2.889,2.086-3.653,2.411-3.689-1.758-2.414.5-3.7,9.816,2.069,10.876,3.785.694.412-5.277,4.227-10.137s13.357-5.669,10.483-7.264C422.257,71.238,419.523,72.258,418.467,74.634Z" transform="translate(-388.375 -52.912)" fill="#e14657" fill-rule="evenodd"/>
          <path id="Trazado_106026" data-name="Trazado 106026" d="M428.8,133.781c.141.985,3.987.879,8.856.11-9.451-.2-7.9-3.778-9.522-6.469A51.921,51.921,0,0,1,428.8,133.781Z" transform="translate(-389.706 -56.796)" fill="#8de6d4" fill-rule="evenodd"/>
        </g>
        <path id="Trazado_106027" data-name="Trazado 106027" d="M494.205,448.166H430.981q.665,11.17,1.328,22.34a6.749,6.749,0,0,1-5.124,0L410.18,184.342a6.645,6.645,0,0,1,5.124,0l1.327,22.339h63.223l-1.327-22.339a5.789,5.789,0,0,1,5.124,0l17.005,286.164a6.214,6.214,0,0,1-5.124,0l-1.327-22.34Zm-63.5-4.57h63.224l-2.075-34.916H428.635l2.075,34.916Zm49.417-232.345H416.9l2.075,34.915H482.2l-2.076-34.915Zm2.347,39.486H419.249l2.075,34.915h63.223l-2.074-34.915Zm2.346,39.485H421.6l2.075,34.915h63.224l-2.075-34.915Zm2.346,39.486H423.942l2.075,34.915H489.24l-2.075-34.915Zm2.346,39.486H426.288l2.075,34.915h63.223Z" transform="translate(-95.752 -37.976)" fill="#efbba5" fill-rule="evenodd"/>
        <path id="Trazado_106028" data-name="Trazado 106028" d="M340.865,93.291c.415.141.825.281,1.23.416,12.123,4.08,18.33,4.563,23.057,16.847C319.369,149.511,283.4,196.96,253,249.226a111.413,111.413,0,0,1,2.187-12.923,67.587,67.587,0,0,1,5.082-14.179c1.86-3.842,4.018-7.51,6.06-11.259,4.088-7.51,6.563-13.916,7.232-22.475.639-8.163-1.546-15.3-4.965-22.668-3.321-7.16-7.489-13.973-10.047-21.448-.309-.9-.592-1.809-.827-2.654-2.145-6.818-6.209-15.884-11.121-21.159-3.14-3.372-3.9-4.64-2.263-9.116,4.765-13.059,10.976-13.473,23.354-17.638q.615-.206,1.229-.417c7.5,5.791,20.8,9.643,35.971,9.643S333.367,99.081,340.865,93.291Z" transform="translate(-84.012 -31.605)" fill="#d7314c" fill-rule="evenodd"/>
        <g id="Grupo_58239" data-name="Grupo 58239" transform="translate(125.488 156.814)">
          <path id="Trazado_106029" data-name="Trazado 106029" d="M273.152,196.51c-1.578,11.185-11.812,22.91-24.565,31.92-13.332,9.418-29.632,16.02-41.664,15.943a11.8,11.8,0,0,0,.732-4.137,12.15,12.15,0,0,0-.255-2.486c10.507-.075,25-6.11,37.11-14.667,11.4-8.056,20.506-18.206,21.81-27.457Z" transform="translate(-206.923 -195.627)" fill="#fab433" fill-rule="evenodd"/>
          <path id="Trazado_106030" data-name="Trazado 106030" d="M217,244.369a44.788,44.788,0,0,1-10.081,1.218,11.8,11.8,0,0,0,.732-4.137,12.15,12.15,0,0,0-.255-2.486c10.507-.075,25-6.11,37.11-14.667a79.2,79.2,0,0,0,13.106-11.437,3.059,3.059,0,0,1,.914.864c3.055,4.536-9.97,15.829-29.093,25.223C225.185,241.036,220.991,242.854,217,244.369Z" transform="translate(-206.923 -196.841)" fill="#fcc846" fill-rule="evenodd"/>
          <g id="Grupo_58238" data-name="Grupo 58238" transform="translate(1.483 9.522)">
            <path id="Trazado_106031" data-name="Trazado 106031" d="M261.5,212.79l.243.27,1.729,1.922a.187.187,0,0,1-.033.267.2.2,0,0,1-.277,0l-1.728-1.923-.207-.23Z" transform="translate(-212.231 -206.357)" fill="#ac273d" fill-rule="evenodd"/>
            <path id="Trazado_106032" data-name="Trazado 106032" d="M263.629,210.278l.3.336,1.65,1.84a.186.186,0,0,1-.033.268.2.2,0,0,1-.277-.006l-1.65-1.84-.249-.278Z" transform="translate(-212.382 -206.18)" fill="#ac273d" fill-rule="evenodd"/>
            <path id="Trazado_106033" data-name="Trazado 106033" d="M265.314,208.048l.086.1,1.564,1.749a.188.188,0,0,1-.033.269.2.2,0,0,1-.278-.006l-1.563-1.75-.02-.021Q265.194,208.217,265.314,208.048Z" transform="translate(-212.501 -206.023)" fill="#ac273d" fill-rule="evenodd"/>
            <path id="Trazado_106034" data-name="Trazado 106034" d="M249.274,223.757l.269.394,1.689,2.492a.2.2,0,0,1-.337.228l-1.689-2.492-.258-.379Z" transform="translate(-211.366 -207.13)" fill="#ac273d" fill-rule="evenodd"/>
            <path id="Trazado_106035" data-name="Trazado 106035" d="M251.541,222.024l1.794,2.651a.192.192,0,0,1-.065.265A.2.2,0,0,1,253,224.9l-1.778-2.626Z" transform="translate(-211.526 -207.008)" fill="#ac273d" fill-rule="evenodd"/>
            <path id="Trazado_106036" data-name="Trazado 106036" d="M253.838,220.152l.248.366,1.624,2.4a.191.191,0,0,1-.065.264.194.194,0,0,1-.271-.037l-1.624-2.4-.225-.33Z" transform="translate(-211.688 -206.876)" fill="#ac273d" fill-rule="evenodd"/>
            <path id="Trazado_106037" data-name="Trazado 106037" d="M256.117,218.166c.167.217.329.426.482.621l1.736,2.231a.191.191,0,0,1-.049.267.2.2,0,0,1-.275-.022l-1.736-2.231c-.16-.2-.313-.4-.461-.593Z" transform="translate(-211.849 -206.736)" fill="#ac273d" fill-rule="evenodd"/>
            <path id="Trazado_106038" data-name="Trazado 106038" d="M237.7,231.219l.2.394,1.416,2.794a.2.2,0,0,1-.1.259.19.19,0,0,1-.263-.068l-1.415-2.792-.2-.39Z" transform="translate(-210.548 -207.655)" fill="#ac273d" fill-rule="evenodd"/>
            <path id="Trazado_106039" data-name="Trazado 106039" d="M239.961,229.923q.178.3.359.607l1.59,2.686a.2.2,0,0,1-.081.263.193.193,0,0,1-.268-.053l-1.589-2.686q-.183-.307-.362-.614Z" transform="translate(-210.708 -207.564)" fill="#ac273d" fill-rule="evenodd"/>
            <path id="Trazado_106040" data-name="Trazado 106040" d="M242.41,228.437l.321.544,1.583,2.675a.2.2,0,0,1-.08.263.193.193,0,0,1-.268-.052l-1.583-2.676c-.107-.179-.213-.36-.319-.539Z" transform="translate(-210.881 -207.46)" fill="#ac273d" fill-rule="evenodd"/>
            <path id="Trazado_106041" data-name="Trazado 106041" d="M244.809,226.891l.285.482,1.57,2.655a.2.2,0,0,1-.081.262.193.193,0,0,1-.268-.052l-1.568-2.654-.278-.469Z" transform="translate(-211.05 -207.351)" fill="#ac273d" fill-rule="evenodd"/>
            <path id="Trazado_106042" data-name="Trazado 106042" d="M226.158,236.7l.184.464,1.134,2.856a.2.2,0,0,1-.118.253.187.187,0,0,1-.254-.089l-1.132-2.855-.191-.482Z" transform="translate(-209.734 -208.041)" fill="#ac273d" fill-rule="evenodd"/>
            <path id="Trazado_106043" data-name="Trazado 106043" d="M228.35,235.8l.128.253,1.4,2.761a.2.2,0,0,1-.1.26.19.19,0,0,1-.263-.068l-1.4-2.762-.145-.285Z" transform="translate(-209.888 -207.978)" fill="#ac273d" fill-rule="evenodd"/>
            <path id="Trazado_106044" data-name="Trazado 106044" d="M230.976,234.637l.14.275,1.406,2.778a.2.2,0,0,1-.1.259.191.191,0,0,1-.264-.068l-1.406-2.777-.152-.3Z" transform="translate(-210.074 -207.896)" fill="#ac273d" fill-rule="evenodd"/>
            <path id="Trazado_106045" data-name="Trazado 106045" d="M233.554,233.4l.159.312,1.413,2.79a.2.2,0,0,1-.095.259.19.19,0,0,1-.264-.066l-1.413-2.791-.165-.324Z" transform="translate(-210.256 -207.809)" fill="#ac273d" fill-rule="evenodd"/>
            <path id="Trazado_106046" data-name="Trazado 106046" d="M213.582,240.351l.093.421.607,2.752a.209.209,0,0,1-.153.237.18.18,0,0,1-.234-.125l-.606-2.753-.1-.467Z" transform="translate(-208.847 -208.299)" fill="#ac273d" fill-rule="evenodd"/>
            <path id="Trazado_106047" data-name="Trazado 106047" d="M215.995,239.871l.069.208.9,2.74a.2.2,0,0,1-.13.247.183.183,0,0,1-.247-.1l-.9-2.739-.088-.268Z" transform="translate(-209.017 -208.265)" fill="#ac273d" fill-rule="evenodd"/>
            <path id="Trazado_106048" data-name="Trazado 106048" d="M218.781,239.174l.147.446.921,2.8a.206.206,0,0,1-.131.247.184.184,0,0,1-.247-.1l-.92-2.8-.16-.485C218.521,239.247,218.651,239.21,218.781,239.174Z" transform="translate(-209.213 -208.216)" fill="#ac273d" fill-rule="evenodd"/>
            <path id="Trazado_106049" data-name="Trazado 106049" d="M221.23,238.449l.057.141,1.1,2.784a.2.2,0,0,1-.117.253.187.187,0,0,1-.255-.088l-1.1-2.784-.073-.184Z" transform="translate(-209.386 -208.165)" fill="#ac273d" fill-rule="evenodd"/>
            <path id="Trazado_106050" data-name="Trazado 106050" d="M208.925,240.894l.547,2.5a.209.209,0,0,1-.153.237.181.181,0,0,1-.234-.125l-.566-2.59Z" transform="translate(-208.518 -208.337)" fill="#ac273d" fill-rule="evenodd"/>
            <path id="Trazado_106051" data-name="Trazado 106051" d="M211.406,240.672c.072.332.145.667.221,1.011.152.679.275,1.254.4,1.827.133.615.266,1.23.376,1.728a.207.207,0,0,1-.152.237.18.18,0,0,1-.234-.125c-.145-.656-.262-1.2-.377-1.732-.139-.643-.277-1.285-.4-1.823-.078-.351-.156-.712-.235-1.077Z" transform="translate(-208.693 -208.321)" fill="#ac273d" fill-rule="evenodd"/>
            <path id="Trazado_106052" data-name="Trazado 106052" d="M223.852,237.564c.162.411.323.819.483,1.22.258.647.5,1.263.742,1.879.248.632.5,1.265.735,1.864a.2.2,0,0,1-.117.253.186.186,0,0,1-.254-.089c-.257-.641-.5-1.254-.736-1.865-.25-.637-.5-1.274-.742-1.878-.167-.42-.332-.835-.494-1.247Z" transform="translate(-209.571 -208.102)" fill="#ac273d" fill-rule="evenodd"/>
            <path id="Trazado_106053" data-name="Trazado 106053" d="M235.759,232.269c.2.4.409.811.637,1.258.32.627.627,1.238.934,1.85s.627,1.247.934,1.851a.2.2,0,0,1-.1.259.19.19,0,0,1-.263-.068c-.32-.627-.627-1.239-.935-1.852s-.627-1.247-.934-1.849c-.2-.386-.412-.813-.636-1.26Z" transform="translate(-210.411 -207.729)" fill="#ac273d" fill-rule="evenodd"/>
            <path id="Trazado_106054" data-name="Trazado 106054" d="M247,225.4q.468.7.945,1.4c.377.553.76,1.121,1.143,1.689.372.552.744,1.1,1.123,1.66a.193.193,0,0,1-.066.265.2.2,0,0,1-.271-.038c-.374-.548-.749-1.105-1.124-1.661s-.755-1.121-1.142-1.688q-.47-.692-.941-1.392Z" transform="translate(-211.205 -207.245)" fill="#ac273d" fill-rule="evenodd"/>
            <path id="Trazado_106055" data-name="Trazado 106055" d="M257.869,216.536c.368.412.726.811,1.058,1.177.466.514.85.942,1.226,1.362.44.49.886.989,1.232,1.37a.186.186,0,0,1-.031.268.2.2,0,0,1-.277,0c-.479-.528-.854-.946-1.235-1.372-.44-.49-.872-.972-1.223-1.36-.37-.408-.712-.788-1.044-1.159Z" transform="translate(-211.973 -206.621)" fill="#ac273d" fill-rule="evenodd"/>
            <path id="Trazado_106056" data-name="Trazado 106056" d="M266.767,205.87c.264.3.535.6.805.91.323.365.647.732,1,1.121a.189.189,0,0,1-.033.269.2.2,0,0,1-.278-.007c-.317-.353-.657-.738-1-1.123l-.72-.812Q266.655,206.049,266.767,205.87Z" transform="translate(-212.605 -205.87)" fill="#ac273d" fill-rule="evenodd"/>
            <path id="Trazado_106057" data-name="Trazado 106057" d="M259.662,214.755l.114.127,1.8,2a.188.188,0,0,1-.033.268.2.2,0,0,1-.277-.006l-1.8-2-.091-.1Z" transform="translate(-212.1 -206.496)" fill="#ac273d" fill-rule="evenodd"/>
          </g>
        </g>
        <g id="Grupo_58241" data-name="Grupo 58241" transform="translate(182.352 151.485)">
          <path id="Trazado_106058" data-name="Trazado 106058" d="M268.12,189.894h77.226a21.419,21.419,0,0,0,.024,6.645H268.1a21.421,21.421,0,0,0,.024-6.645Z" transform="translate(-268.096 -189.894)" fill="#fab433" fill-rule="evenodd"/>
          <path id="Trazado_106059" data-name="Trazado 106059" d="M268.12,189.894h74.459a1.134,1.134,0,0,1,.04.277c0,2.527-8.782,4.8-22.752,6.368H268.1a21.421,21.421,0,0,0,.024-6.645Z" transform="translate(-268.096 -189.894)" fill="#fcc846" fill-rule="evenodd"/>
          <g id="Grupo_58240" data-name="Grupo 58240" transform="translate(1.968)">
            <path id="Trazado_106060" data-name="Trazado 106060" d="M270.608,189.894v3.411a.2.2,0,0,1-.4,0v-3.411Z" transform="translate(-270.213 -189.894)" fill="#ac273d" fill-rule="evenodd"/>
            <path id="Trazado_106061" data-name="Trazado 106061" d="M283.7,189.894v3.411a.2.2,0,0,1-.4,0v-3.411Z" transform="translate(-271.135 -189.894)" fill="#ac273d" fill-rule="evenodd"/>
            <path id="Trazado_106062" data-name="Trazado 106062" d="M296.831,189.894v3.411a.2.2,0,0,1-.4,0v-3.411Z" transform="translate(-272.06 -189.894)" fill="#ac273d" fill-rule="evenodd"/>
            <path id="Trazado_106063" data-name="Trazado 106063" d="M309.927,189.894v3.411a.2.2,0,0,1-.4,0v-3.411Z" transform="translate(-272.982 -189.894)" fill="#ac273d" fill-rule="evenodd"/>
            <path id="Trazado_106064" data-name="Trazado 106064" d="M323.084,189.894v3.411a.2.2,0,0,1-.394,0v-3.411Z" transform="translate(-273.909 -189.894)" fill="#ac273d" fill-rule="evenodd"/>
            <path id="Trazado_106065" data-name="Trazado 106065" d="M336.181,189.894v3.411a.2.2,0,0,1-.4,0v-3.411Z" transform="translate(-274.832 -189.894)" fill="#ac273d" fill-rule="evenodd"/>
            <path id="Trazado_106066" data-name="Trazado 106066" d="M349.246,189.894v3.411a.2.2,0,0,1-.4,0v-3.411Z" transform="translate(-275.752 -189.894)" fill="#ac273d" fill-rule="evenodd"/>
            <path id="Trazado_106067" data-name="Trazado 106067" d="M272.991,189.894v1.954a.2.2,0,0,1-.4,0v-1.954Z" transform="translate(-270.381 -189.894)" fill="#ac273d" fill-rule="evenodd"/>
            <path id="Trazado_106068" data-name="Trazado 106068" d="M275.76,189.894v1.954a.2.2,0,0,1-.394,0v-1.954Z" transform="translate(-270.576 -189.894)" fill="#ac273d" fill-rule="evenodd"/>
            <path id="Trazado_106069" data-name="Trazado 106069" d="M278.536,189.894v1.954a.2.2,0,0,1-.4,0v-1.954Z" transform="translate(-270.771 -189.894)" fill="#ac273d" fill-rule="evenodd"/>
            <path id="Trazado_106070" data-name="Trazado 106070" d="M281.306,189.894v1.954a.2.2,0,0,1-.4,0v-1.954Z" transform="translate(-270.967 -189.894)" fill="#ac273d" fill-rule="evenodd"/>
            <path id="Trazado_106071" data-name="Trazado 106071" d="M285.842,189.894v1.954a.2.2,0,0,1-.4,0v-1.954Z" transform="translate(-271.286 -189.894)" fill="#ac273d" fill-rule="evenodd"/>
            <path id="Trazado_106072" data-name="Trazado 106072" d="M288.611,189.894v1.954a.2.2,0,0,1-.4,0v-1.954Z" transform="translate(-271.481 -189.894)" fill="#ac273d" fill-rule="evenodd"/>
            <path id="Trazado_106073" data-name="Trazado 106073" d="M291.386,189.894v1.954a.2.2,0,0,1-.394,0v-1.954Z" transform="translate(-271.677 -189.894)" fill="#ac273d" fill-rule="evenodd"/>
            <path id="Trazado_106074" data-name="Trazado 106074" d="M294.156,189.894v1.954a.2.2,0,0,1-.4,0v-1.954Z" transform="translate(-271.872 -189.894)" fill="#ac273d" fill-rule="evenodd"/>
            <path id="Trazado_106075" data-name="Trazado 106075" d="M299.214,189.894v1.954a.2.2,0,0,1-.4,0v-1.954Z" transform="translate(-272.228 -189.894)" fill="#ac273d" fill-rule="evenodd"/>
            <path id="Trazado_106076" data-name="Trazado 106076" d="M301.984,189.894v1.954a.2.2,0,0,1-.4,0v-1.954Z" transform="translate(-272.423 -189.894)" fill="#ac273d" fill-rule="evenodd"/>
            <path id="Trazado_106077" data-name="Trazado 106077" d="M304.759,189.894v1.954a.2.2,0,0,1-.4,0v-1.954Z" transform="translate(-272.618 -189.894)" fill="#ac273d" fill-rule="evenodd"/>
            <path id="Trazado_106078" data-name="Trazado 106078" d="M307.529,189.894v1.954a.2.2,0,0,1-.4,0v-1.954Z" transform="translate(-272.814 -189.894)" fill="#ac273d" fill-rule="evenodd"/>
            <path id="Trazado_106079" data-name="Trazado 106079" d="M312.065,189.894v1.954a.2.2,0,0,1-.4,0v-1.954Z" transform="translate(-273.133 -189.894)" fill="#ac273d" fill-rule="evenodd"/>
            <path id="Trazado_106080" data-name="Trazado 106080" d="M314.834,189.894v1.954a.2.2,0,0,1-.394,0v-1.954Z" transform="translate(-273.328 -189.894)" fill="#ac273d" fill-rule="evenodd"/>
            <path id="Trazado_106081" data-name="Trazado 106081" d="M317.61,189.894v1.954a.2.2,0,0,1-.4,0v-1.954Z" transform="translate(-273.524 -189.894)" fill="#ac273d" fill-rule="evenodd"/>
            <path id="Trazado_106082" data-name="Trazado 106082" d="M320.38,189.894v1.954a.2.2,0,0,1-.4,0v-1.954Z" transform="translate(-273.719 -189.894)" fill="#ac273d" fill-rule="evenodd"/>
            <path id="Trazado_106083" data-name="Trazado 106083" d="M325.806,189.894v1.954a.2.2,0,0,1-.4,0v-1.954Z" transform="translate(-274.101 -189.894)" fill="#ac273d" fill-rule="evenodd"/>
            <path id="Trazado_106084" data-name="Trazado 106084" d="M328.575,189.894v1.954a.2.2,0,0,1-.4,0v-1.954Z" transform="translate(-274.296 -189.894)" fill="#ac273d" fill-rule="evenodd"/>
            <path id="Trazado_106085" data-name="Trazado 106085" d="M331.351,189.894v1.954a.2.2,0,0,1-.4,0v-1.954Z" transform="translate(-274.492 -189.894)" fill="#ac273d" fill-rule="evenodd"/>
            <path id="Trazado_106086" data-name="Trazado 106086" d="M334.121,189.894v1.954a.2.2,0,0,1-.4,0v-1.954Z" transform="translate(-274.687 -189.894)" fill="#ac273d" fill-rule="evenodd"/>
            <path id="Trazado_106087" data-name="Trazado 106087" d="M338.656,189.894v1.954a.2.2,0,0,1-.4,0v-1.954Z" transform="translate(-275.006 -189.894)" fill="#ac273d" fill-rule="evenodd"/>
            <path id="Trazado_106088" data-name="Trazado 106088" d="M341.426,189.894v1.954a.2.2,0,0,1-.4,0v-1.954Z" transform="translate(-275.201 -189.894)" fill="#ac273d" fill-rule="evenodd"/>
            <path id="Trazado_106089" data-name="Trazado 106089" d="M344.2,189.894v1.954a.2.2,0,0,1-.4,0v-1.954Z" transform="translate(-275.397 -189.894)" fill="#ac273d" fill-rule="evenodd"/>
            <path id="Trazado_106090" data-name="Trazado 106090" d="M346.971,189.894v1.954a.2.2,0,0,1-.4,0v-1.954Z" transform="translate(-275.592 -189.894)" fill="#ac273d" fill-rule="evenodd"/>
          </g>
        </g>
        <g id="Grupo_58243" data-name="Grupo 58243" transform="translate(79.592 228.322)">
          <path id="Trazado_106091" data-name="Trazado 106091" d="M160.224,272.554H208.6a2.683,2.683,0,0,1,2.675,2.675c0,10.5-.114,21.006,0,31.5l-6.236-7.368H160.224a2.682,2.682,0,0,1-2.674-2.675V275.229A2.683,2.683,0,0,1,160.224,272.554Z" transform="translate(-157.55 -272.554)" fill="#fcc846" fill-rule="evenodd"/>
          <g id="Grupo_58242" data-name="Grupo 58242" transform="translate(3.989 4.561)">
            <path id="Trazado_106092" data-name="Trazado 106092" d="M161.841,277.461H190.19v1.907H161.841v-1.907Zm34.839,0h10.909v1.907H196.68Z" transform="translate(-161.841 -277.461)" fill="#fff" fill-rule="evenodd"/>
            <rect id="Rectángulo_5551" data-name="Rectángulo 5551" width="45.748" height="1.907" transform="translate(0 3.913)" fill="#fff"/>
            <path id="Trazado_106093" data-name="Trazado 106093" d="M161.841,285.858h16.613v1.907H161.841v-1.907Zm23.1,0h22.644v1.907H184.945Z" transform="translate(-161.841 -278.052)" fill="#fff" fill-rule="evenodd"/>
            <path id="Trazado_106094" data-name="Trazado 106094" d="M161.841,290.1h5.941v1.907h-5.941V290.1Zm8.969,0h16.119v1.907H170.81V290.1Zm22.61,0h14.169v1.907H193.42Z" transform="translate(-161.841 -278.351)" fill="#fff" fill-rule="evenodd"/>
            <path id="Trazado_106095" data-name="Trazado 106095" d="M161.841,294.269h5.941v1.907h-5.941v-1.907Zm12.431,0h33.317v1.907H174.272Z" transform="translate(-161.841 -278.645)" fill="#fff" fill-rule="evenodd"/>
          </g>
        </g>
        <rect id="Rectángulo_5552" data-name="Rectángulo 5552" width="610" height="3.768" transform="translate(0 430.493)" fill="#e9bba3"/>
      </g>
    </g>
  </g>
</svg>
