<svg xmlns="http://www.w3.org/2000/svg" width="610" height="174.396" viewBox="0 0 610 174.396">
  <g id="Grupo_70731" data-name="Grupo 70731" transform="translate(-705 -1188.604)">
    <g id="Trazado_106987" data-name="Trazado 106987" transform="translate(705 1227)" fill="#c7f2f3" stroke-dasharray="3 3">
      <path d="M0,0H610V136H0Z" stroke="none"/>
      <path d="M -6.103515625e-05 0 L 2.99993896484375 0 L 2.99993896484375 4.000152587890625 L -6.103515625e-05 4.000152587890625 L -6.103515625e-05 0 Z M 5.99993896484375 0 L 8.99993896484375 0 L 8.99993896484375 3 L 5.99993896484375 3 L 5.99993896484375 0 Z M 11.99993896484375 0 L 14.99993896484375 0 L 14.99993896484375 3 L 11.99993896484375 3 L 11.99993896484375 0 Z M 17.99993896484375 0 L 20.99993896484375 0 L 20.99993896484375 3 L 17.99993896484375 3 L 17.99993896484375 0 Z M 23.99993896484375 0 L 26.99993896484375 0 L 26.99993896484375 3 L 23.99993896484375 3 L 23.99993896484375 0 Z M 29.99993896484375 0 L 32.99993896484375 0 L 32.99993896484375 3 L 29.99993896484375 3 L 29.99993896484375 0 Z M 35.99993896484375 0 L 38.99993896484375 0 L 38.99993896484375 3 L 35.99993896484375 3 L 35.99993896484375 0 Z M 41.99993896484375 0 L 44.99993896484375 0 L 44.99993896484375 3 L 41.99993896484375 3 L 41.99993896484375 0 Z M 47.99993896484375 0 L 50.99993896484375 0 L 50.99993896484375 3 L 47.99993896484375 3 L 47.99993896484375 0 Z M 53.99993896484375 0 L 56.99993896484375 0 L 56.99993896484375 3 L 53.99993896484375 3 L 53.99993896484375 0 Z M 59.99993896484375 0 L 62.99993896484375 0 L 62.99993896484375 3 L 59.99993896484375 3 L 59.99993896484375 0 Z M 65.99993896484375 0 L 68.99993896484375 0 L 68.99993896484375 3 L 65.99993896484375 3 L 65.99993896484375 0 Z M 71.99993896484375 0 L 74.99993896484375 0 L 74.99993896484375 3 L 71.99993896484375 3 L 71.99993896484375 0 Z M 77.99993896484375 0 L 80.99993896484375 0 L 80.99993896484375 3 L 77.99993896484375 3 L 77.99993896484375 0 Z M 83.99993896484375 0 L 86.99993896484375 0 L 86.99993896484375 3 L 83.99993896484375 3 L 83.99993896484375 0 Z M 89.99993896484375 0 L 92.99993896484375 0 L 92.99993896484375 3 L 89.99993896484375 3 L 89.99993896484375 0 Z M 95.99993896484375 0 L 98.99993896484375 0 L 98.99993896484375 3 L 95.99993896484375 3 L 95.99993896484375 0 Z M 101.9999389648438 0 L 104.9999389648438 0 L 104.9999389648438 3 L 101.9999389648438 3 L 101.9999389648438 0 Z M 107.9999389648438 0 L 110.9999389648438 0 L 110.9999389648438 3 L 107.9999389648438 3 L 107.9999389648438 0 Z M 113.9999389648438 0 L 116.9999389648438 0 L 116.9999389648438 3 L 113.9999389648438 3 L 113.9999389648438 0 Z M 119.9999389648438 0 L 122.9999389648438 0 L 122.9999389648438 3 L 119.9999389648438 3 L 119.9999389648438 0 Z M 125.9999389648438 0 L 128.9999389648438 0 L 128.9999389648438 3 L 125.9999389648438 3 L 125.9999389648438 0 Z M 131.9999389648438 0 L 134.9999389648438 0 L 134.9999389648438 3 L 131.9999389648438 3 L 131.9999389648438 0 Z M 137.9999389648438 0 L 140.9999389648438 0 L 140.9999389648438 3 L 137.9999389648438 3 L 137.9999389648438 0 Z M 143.9999389648438 0 L 146.9999389648438 0 L 146.9999389648438 3 L 143.9999389648438 3 L 143.9999389648438 0 Z M 149.9999389648438 0 L 152.9999389648438 0 L 152.9999389648438 3 L 149.9999389648438 3 L 149.9999389648438 0 Z M 155.9999389648438 0 L 158.9999389648438 0 L 158.9999389648438 3 L 155.9999389648438 3 L 155.9999389648438 0 Z M 161.9999389648438 0 L 164.9999389648438 0 L 164.9999389648438 3 L 161.9999389648438 3 L 161.9999389648438 0 Z M 167.9999389648438 0 L 170.9999389648438 0 L 170.9999389648438 3 L 167.9999389648438 3 L 167.9999389648438 0 Z M 173.9999389648438 0 L 176.9999389648438 0 L 176.9999389648438 3 L 173.9999389648438 3 L 173.9999389648438 0 Z M 179.9999389648438 0 L 182.9999389648438 0 L 182.9999389648438 3 L 179.9999389648438 3 L 179.9999389648438 0 Z M 185.9999389648438 0 L 188.9999389648438 0 L 188.9999389648438 3 L 185.9999389648438 3 L 185.9999389648438 0 Z M 191.9999389648438 0 L 194.9999389648438 0 L 194.9999389648438 3 L 191.9999389648438 3 L 191.9999389648438 0 Z M 197.9999389648438 0 L 200.9999389648438 0 L 200.9999389648438 3 L 197.9999389648438 3 L 197.9999389648438 0 Z M 203.9999389648438 0 L 206.9999389648438 0 L 206.9999389648438 3 L 203.9999389648438 3 L 203.9999389648438 0 Z M 209.9999389648438 0 L 212.9999389648438 0 L 212.9999389648438 3 L 209.9999389648438 3 L 209.9999389648438 0 Z M 215.9999389648438 0 L 218.9999389648438 0 L 218.9999389648438 3 L 215.9999389648438 3 L 215.9999389648438 0 Z M 221.9999389648438 0 L 224.9999389648438 0 L 224.9999389648438 3 L 221.9999389648438 3 L 221.9999389648438 0 Z M 227.9999389648438 0 L 230.9999389648438 0 L 230.9999389648438 3 L 227.9999389648438 3 L 227.9999389648438 0 Z M 233.9999389648438 0 L 236.9999389648438 0 L 236.9999389648438 3 L 233.9999389648438 3 L 233.9999389648438 0 Z M 239.9999389648438 0 L 242.9999389648438 0 L 242.9999389648438 3 L 239.9999389648438 3 L 239.9999389648438 0 Z M 245.9999389648438 0 L 248.9999389648438 0 L 248.9999389648438 3 L 245.9999389648438 3 L 245.9999389648438 0 Z M 251.9999389648438 0 L 254.9999389648438 0 L 254.9999389648438 3 L 251.9999389648438 3 L 251.9999389648438 0 Z M 257.9999389648438 0 L 260.9999389648438 0 L 260.9999389648438 3 L 257.9999389648438 3 L 257.9999389648438 0 Z M 263.9999389648438 0 L 266.9999389648438 0 L 266.9999389648438 3 L 263.9999389648438 3 L 263.9999389648438 0 Z M 269.9999389648438 0 L 272.9999389648438 0 L 272.9999389648438 3 L 269.9999389648438 3 L 269.9999389648438 0 Z M 275.9999389648438 0 L 278.9999389648438 0 L 278.9999389648438 3 L 275.9999389648438 3 L 275.9999389648438 0 Z M 281.9999389648438 0 L 284.9999389648438 0 L 284.9999389648438 3 L 281.9999389648438 3 L 281.9999389648438 0 Z M 287.9999389648438 0 L 290.9999389648438 0 L 290.9999389648438 3 L 287.9999389648438 3 L 287.9999389648438 0 Z M 293.9999389648438 0 L 296.9999389648438 0 L 296.9999389648438 3 L 293.9999389648438 3 L 293.9999389648438 0 Z M 299.9999389648438 0 L 302.9999389648438 0 L 302.9999389648438 3 L 299.9999389648438 3 L 299.9999389648438 0 Z M 305.9999389648438 0 L 308.9999389648438 0 L 308.9999389648438 3 L 305.9999389648438 3 L 305.9999389648438 0 Z M 311.9999389648438 0 L 314.9999389648438 0 L 314.9999389648438 3 L 311.9999389648438 3 L 311.9999389648438 0 Z M 317.9999389648438 0 L 320.9999389648438 0 L 320.9999389648438 3 L 317.9999389648438 3 L 317.9999389648438 0 Z M 323.9999389648438 0 L 326.9999389648438 0 L 326.9999389648438 3 L 323.9999389648438 3 L 323.9999389648438 0 Z M 329.9999389648438 0 L 332.9999389648438 0 L 332.9999389648438 3 L 329.9999389648438 3 L 329.9999389648438 0 Z M 335.9999389648438 0 L 338.9999389648438 0 L 338.9999389648438 3 L 335.9999389648438 3 L 335.9999389648438 0 Z M 341.9999389648438 0 L 344.9999389648438 0 L 344.9999389648438 3 L 341.9999389648438 3 L 341.9999389648438 0 Z M 347.9999389648438 0 L 350.9999389648438 0 L 350.9999389648438 3 L 347.9999389648438 3 L 347.9999389648438 0 Z M 353.9999389648438 0 L 356.9999389648438 0 L 356.9999389648438 3 L 353.9999389648438 3 L 353.9999389648438 0 Z M 359.9999389648438 0 L 362.9999389648438 0 L 362.9999389648438 3 L 359.9999389648438 3 L 359.9999389648438 0 Z M 365.9999389648438 0 L 368.9999389648438 0 L 368.9999389648438 3 L 365.9999389648438 3 L 365.9999389648438 0 Z M 371.9999389648438 0 L 374.9999389648438 0 L 374.9999389648438 3 L 371.9999389648438 3 L 371.9999389648438 0 Z M 377.9999389648438 0 L 380.9999389648438 0 L 380.9999389648438 3 L 377.9999389648438 3 L 377.9999389648438 0 Z M 383.9999389648438 0 L 386.9999389648438 0 L 386.9999389648438 3 L 383.9999389648438 3 L 383.9999389648438 0 Z M 389.9999389648438 0 L 392.9999389648438 0 L 392.9999389648438 3 L 389.9999389648438 3 L 389.9999389648438 0 Z M 395.9999389648438 0 L 398.9999389648438 0 L 398.9999389648438 3 L 395.9999389648438 3 L 395.9999389648438 0 Z M 401.9999389648438 0 L 404.9999389648438 0 L 404.9999389648438 3 L 401.9999389648438 3 L 401.9999389648438 0 Z M 407.9999389648438 0 L 410.9999389648438 0 L 410.9999389648438 3 L 407.9999389648438 3 L 407.9999389648438 0 Z M 413.9999389648438 0 L 416.9999389648438 0 L 416.9999389648438 3 L 413.9999389648438 3 L 413.9999389648438 0 Z M 419.9999389648438 0 L 422.9999389648438 0 L 422.9999389648438 3 L 419.9999389648438 3 L 419.9999389648438 0 Z M 425.9999389648438 0 L 428.9999389648438 0 L 428.9999389648438 3 L 425.9999389648438 3 L 425.9999389648438 0 Z M 431.9999389648438 0 L 434.9999389648438 0 L 434.9999389648438 3 L 431.9999389648438 3 L 431.9999389648438 0 Z M 437.9999389648438 0 L 440.9999389648438 0 L 440.9999389648438 3 L 437.9999389648438 3 L 437.9999389648438 0 Z M 443.9999389648438 0 L 446.9999389648438 0 L 446.9999389648438 3 L 443.9999389648438 3 L 443.9999389648438 0 Z M 449.9999389648438 0 L 452.9999389648438 0 L 452.9999389648438 3 L 449.9999389648438 3 L 449.9999389648438 0 Z M 455.9999389648438 0 L 458.9999389648438 0 L 458.9999389648438 3 L 455.9999389648438 3 L 455.9999389648438 0 Z M 461.9999389648438 0 L 464.9999389648438 0 L 464.9999389648438 3 L 461.9999389648438 3 L 461.9999389648438 0 Z M 467.9999389648438 0 L 470.9999389648438 0 L 470.9999389648438 3 L 467.9999389648438 3 L 467.9999389648438 0 Z M 473.9999389648438 0 L 476.9999389648438 0 L 476.9999389648438 3 L 473.9999389648438 3 L 473.9999389648438 0 Z M 479.9999389648438 0 L 482.9999389648438 0 L 482.9999389648438 3 L 479.9999389648438 3 L 479.9999389648438 0 Z M 485.9999389648438 0 L 488.9999389648438 0 L 488.9999389648438 3 L 485.9999389648438 3 L 485.9999389648438 0 Z M 491.9999389648438 0 L 494.9999389648438 0 L 494.9999389648438 3 L 491.9999389648438 3 L 491.9999389648438 0 Z M 497.9999389648438 0 L 500.9999389648438 0 L 500.9999389648438 3 L 497.9999389648438 3 L 497.9999389648438 0 Z M 503.9999389648438 0 L 506.9999389648438 0 L 506.9999389648438 3 L 503.9999389648438 3 L 503.9999389648438 0 Z M 509.9999389648438 0 L 512.9999389648438 0 L 512.9999389648438 3 L 509.9999389648438 3 L 509.9999389648438 0 Z M 515.9999389648438 0 L 518.9999389648438 0 L 518.9999389648438 3 L 515.9999389648438 3 L 515.9999389648438 0 Z M 521.9999389648438 0 L 524.9999389648438 0 L 524.9999389648438 3 L 521.9999389648438 3 L 521.9999389648438 0 Z M 527.9999389648438 0 L 530.9999389648438 0 L 530.9999389648438 3 L 527.9999389648438 3 L 527.9999389648438 0 Z M 533.9999389648438 0 L 536.9999389648438 0 L 536.9999389648438 3 L 533.9999389648438 3 L 533.9999389648438 0 Z M 539.9999389648438 0 L 542.9999389648438 0 L 542.9999389648438 3 L 539.9999389648438 3 L 539.9999389648438 0 Z M 545.9999389648438 0 L 548.9999389648438 0 L 548.9999389648438 3 L 545.9999389648438 3 L 545.9999389648438 0 Z M 551.9999389648438 0 L 554.9999389648438 0 L 554.9999389648438 3 L 551.9999389648438 3 L 551.9999389648438 0 Z M 557.9999389648438 0 L 560.9999389648438 0 L 560.9999389648438 3 L 557.9999389648438 3 L 557.9999389648438 0 Z M 563.9999389648438 0 L 566.9999389648438 0 L 566.9999389648438 3 L 563.9999389648438 3 L 563.9999389648438 0 Z M 569.9999389648438 0 L 572.9999389648438 0 L 572.9999389648438 3 L 569.9999389648438 3 L 569.9999389648438 0 Z M 575.9999389648438 0 L 578.9999389648438 0 L 578.9999389648438 3 L 575.9999389648438 3 L 575.9999389648438 0 Z M 581.9999389648438 0 L 584.9999389648438 0 L 584.9999389648438 3 L 581.9999389648438 3 L 581.9999389648438 0 Z M 587.9999389648438 0 L 590.9999389648438 0 L 590.9999389648438 3 L 587.9999389648438 3 L 587.9999389648438 0 Z M 593.9999389648438 0 L 596.9999389648438 0 L 596.9999389648438 3 L 593.9999389648438 3 L 593.9999389648438 0 Z M 599.9999389648438 0 L 602.9999389648438 0 L 602.9999389648438 3 L 599.9999389648438 3 L 599.9999389648438 0 Z M 605.9999389648438 0 L 608.9999389648438 0 L 608.9999389648438 1.999923706054688 L 610 1.999923706054688 C 610 1.999923706054688 610 4.999923706054688 610 4.999923706054688 L 607 4.999923706054688 L 607 3 L 605.9999389648438 3 L 605.9999389648438 0 Z M 607 7.999923706054688 L 610 7.999923706054688 C 610 7.999923706054688 610 10.99992370605469 610 10.99992370605469 L 607 10.99992370605469 L 607 7.999923706054688 Z M 607 13.99992370605469 L 610 13.99992370605469 C 610 13.99992370605469 610 16.99992370605469 610 16.99992370605469 L 607 16.99992370605469 L 607 13.99992370605469 Z M 607 19.99992370605469 L 610 19.99992370605469 C 610 19.99992370605469 610 22.99992370605469 610 22.99992370605469 L 607 22.99992370605469 L 607 19.99992370605469 Z M 607 25.99992370605469 L 610 25.99992370605469 C 610 25.99992370605469 610 28.99992370605469 610 28.99992370605469 L 607 28.99992370605469 L 607 25.99992370605469 Z M 607 31.99992370605469 L 610 31.99992370605469 C 610 31.99992370605469 610 34.99992370605469 610 34.99992370605469 L 607 34.99992370605469 L 607 31.99992370605469 Z M 607 37.99992370605469 L 610 37.99992370605469 C 610 37.99992370605469 610 40.99992370605469 610 40.99992370605469 L 607 40.99992370605469 L 607 37.99992370605469 Z M 607 43.99992370605469 L 610 43.99992370605469 C 610 43.99992370605469 610 46.99992370605469 610 46.99992370605469 L 607 46.99992370605469 L 607 43.99992370605469 Z M 607 49.99992370605469 L 610 49.99992370605469 C 610 49.99992370605469 610 52.99992370605469 610 52.99992370605469 L 607 52.99992370605469 L 607 49.99992370605469 Z M 607 55.99992370605469 L 610 55.99992370605469 C 610 55.99992370605469 610 58.99992370605469 610 58.99992370605469 L 607 58.99992370605469 L 607 55.99992370605469 Z M 607 61.99992370605469 L 610 61.99992370605469 C 610 61.99992370605469 610 64.99992370605469 610 64.99992370605469 L 607 64.99992370605469 L 607 61.99992370605469 Z M 607 67.99992370605469 L 610 67.99992370605469 C 610 67.99992370605469 610 70.99992370605469 610 70.99992370605469 L 607 70.99992370605469 L 607 67.99992370605469 Z M 607 73.99992370605469 L 610 73.99992370605469 C 610 73.99992370605469 610 76.99992370605469 610 76.99992370605469 L 607 76.99992370605469 L 607 73.99992370605469 Z M 607 79.99992370605469 L 610 79.99992370605469 C 610 79.99992370605469 610 82.99992370605469 610 82.99992370605469 L 607 82.99992370605469 L 607 79.99992370605469 Z M 607 85.99992370605469 L 610 85.99992370605469 C 610 85.99992370605469 610 88.99992370605469 610 88.99992370605469 L 607 88.99992370605469 L 607 85.99992370605469 Z M 607 91.99992370605469 L 610 91.99992370605469 C 610 91.99992370605469 610 94.99992370605469 610 94.99992370605469 L 607 94.99992370605469 L 607 91.99992370605469 Z M 607 97.99992370605469 L 610 97.99992370605469 C 610 97.99992370605469 610 100.9999237060547 610 100.9999237060547 L 607 100.9999237060547 L 607 97.99992370605469 Z M 607 103.9999237060547 L 610 103.9999237060547 C 610 103.9999237060547 610 106.9999237060547 610 106.9999237060547 L 607 106.9999237060547 L 607 103.9999237060547 Z M 607 109.9999237060547 L 610 109.9999237060547 C 610 109.9999237060547 610 112.9999237060547 610 112.9999237060547 L 607 112.9999237060547 L 607 109.9999237060547 Z M 607 115.9999237060547 L 610 115.9999237060547 C 610 115.9999237060547 610 118.9999237060547 610 118.9999237060547 L 607 118.9999237060547 L 607 115.9999237060547 Z M 607 121.9999237060547 L 610 121.9999237060547 C 610 121.9999237060547 610 124.9999237060547 610 124.9999237060547 L 607 124.9999237060547 L 607 121.9999237060547 Z M 607 127.9999237060547 L 610 127.9999237060547 C 610 127.9999237060547 610 130.9999237060547 610 130.9999237060547 L 607 130.9999237060547 L 607 127.9999237060547 Z M 609.0001220703125 133 L 610 133 L 610 133.9999237060547 L 610 133 L 610 133.9999237060547 C 610 133.9999237060547 610 136 610 136 L 607 136 L 607 133.9999237060547 L 609.0001220703125 133.9999237060547 L 609.0001220703125 133 Z M 603.0001220703125 133 L 606.0001220703125 133 L 606.0001220703125 136 C 606.0001220703125 136 603.0001220703125 136 603.0001220703125 136 L 603.0001220703125 133 Z M 597.0001220703125 133 L 600.0001220703125 133 L 600.0001220703125 136 C 600.0001220703125 136 597.0001220703125 136 597.0001220703125 136 L 597.0001220703125 133 Z M 591.0001220703125 133 L 594.0001220703125 133 L 594.0001220703125 136 C 594.0001220703125 136 591.0001220703125 136 591.0001220703125 136 L 591.0001220703125 133 Z M 585.0001220703125 133 L 588.0001220703125 133 L 588.0001220703125 136 C 588.0001220703125 136 585.0001220703125 136 585.0001220703125 136 L 585.0001220703125 133 Z M 579.0001220703125 133 L 582.0001220703125 133 L 582.0001220703125 136 C 582.0001220703125 136 579.0001220703125 136 579.0001220703125 136 L 579.0001220703125 133 Z M 573.0001220703125 133 L 576.0001220703125 133 L 576.0001220703125 136 C 576.0001220703125 136 573.0001220703125 136 573.0001220703125 136 L 573.0001220703125 133 Z M 567.0001220703125 133 L 570.0001220703125 133 L 570.0001220703125 136 C 570.0001220703125 136 567.0001220703125 136 567.0001220703125 136 L 567.0001220703125 133 Z M 561.0001220703125 133 L 564.0001220703125 133 L 564.0001220703125 136 C 564.0001220703125 136 561.0001220703125 136 561.0001220703125 136 L 561.0001220703125 133 Z M 555.0001220703125 133 L 558.0001220703125 133 L 558.0001220703125 136 C 558.0001220703125 136 555.0001220703125 136 555.0001220703125 136 L 555.0001220703125 133 Z M 549.0001220703125 133 L 552.0001220703125 133 L 552.0001220703125 136 C 552.0001220703125 136 549.0001220703125 136 549.0001220703125 136 L 549.0001220703125 133 Z M 543.0001220703125 133 L 546.0001220703125 133 L 546.0001220703125 136 C 546.0001220703125 136 543.0001220703125 136 543.0001220703125 136 L 543.0001220703125 133 Z M 537.0001220703125 133 L 540.0001220703125 133 L 540.0001220703125 136 C 540.0001220703125 136 537.0001220703125 136 537.0001220703125 136 L 537.0001220703125 133 Z M 531.0001220703125 133 L 534.0001220703125 133 L 534.0001220703125 136 C 534.0001220703125 136 531.0001220703125 136 531.0001220703125 136 L 531.0001220703125 133 Z M 525.0001220703125 133 L 528.0001220703125 133 L 528.0001220703125 136 C 528.0001220703125 136 525.0001220703125 136 525.0001220703125 136 L 525.0001220703125 133 Z M 519.0001220703125 133 L 522.0001220703125 133 L 522.0001220703125 136 C 522.0001220703125 136 519.0001220703125 136 519.0001220703125 136 L 519.0001220703125 133 Z M 513.0001220703125 133 L 516.0001220703125 133 L 516.0001220703125 136 C 516.0001220703125 136 513.0001220703125 136 513.0001220703125 136 L 513.0001220703125 133 Z M 507.0001220703125 133 L 510.0001220703125 133 L 510.0001220703125 136 C 510.0001220703125 136 507.0001220703125 136 507.0001220703125 136 L 507.0001220703125 133 Z M 501.0001220703125 133 L 504.0001220703125 133 L 504.0001220703125 136 C 504.0001220703125 136 501.0001220703125 136 501.0001220703125 136 L 501.0001220703125 133 Z M 495.0001220703125 133 L 498.0001220703125 133 L 498.0001220703125 136 C 498.0001220703125 136 495.0001220703125 136 495.0001220703125 136 L 495.0001220703125 133 Z M 489.0001220703125 133 L 492.0001220703125 133 L 492.0001220703125 136 C 492.0001220703125 136 489.0001220703125 136 489.0001220703125 136 L 489.0001220703125 133 Z M 483.0001220703125 133 L 486.0001220703125 133 L 486.0001220703125 136 C 486.0001220703125 136 483.0001220703125 136 483.0001220703125 136 L 483.0001220703125 133 Z M 477.0001220703125 133 L 480.0001220703125 133 L 480.0001220703125 136 C 480.0001220703125 136 477.0001220703125 136 477.0001220703125 136 L 477.0001220703125 133 Z M 471.0001220703125 133 L 474.0001220703125 133 L 474.0001220703125 136 C 474.0001220703125 136 471.0001220703125 136 471.0001220703125 136 L 471.0001220703125 133 Z M 465.0001220703125 133 L 468.0001220703125 133 L 468.0001220703125 136 C 468.0001220703125 136 465.0001220703125 136 465.0001220703125 136 L 465.0001220703125 133 Z M 459.0001220703125 133 L 462.0001220703125 133 L 462.0001220703125 136 C 462.0001220703125 136 459.0001220703125 136 459.0001220703125 136 L 459.0001220703125 133 Z M 453.0001220703125 133 L 456.0001220703125 133 L 456.0001220703125 136 C 456.0001220703125 136 453.0001220703125 136 453.0001220703125 136 L 453.0001220703125 133 Z M 447.0001220703125 133 L 450.0001220703125 133 L 450.0001220703125 136 C 450.0001220703125 136 447.0001220703125 136 447.0001220703125 136 L 447.0001220703125 133 Z M 441.0001220703125 133 L 444.0001220703125 133 L 444.0001220703125 136 C 444.0001220703125 136 441.0001220703125 136 441.0001220703125 136 L 441.0001220703125 133 Z M 435.0001220703125 133 L 438.0001220703125 133 L 438.0001220703125 136 C 438.0001220703125 136 435.0001220703125 136 435.0001220703125 136 L 435.0001220703125 133 Z M 429.0001220703125 133 L 432.0001220703125 133 L 432.0001220703125 136 C 432.0001220703125 136 429.0001220703125 136 429.0001220703125 136 L 429.0001220703125 133 Z M 423.0001220703125 133 L 426.0001220703125 133 L 426.0001220703125 136 C 426.0001220703125 136 423.0001220703125 136 423.0001220703125 136 L 423.0001220703125 133 Z M 417.0001220703125 133 L 420.0001220703125 133 L 420.0001220703125 136 C 420.0001220703125 136 417.0001220703125 136 417.0001220703125 136 L 417.0001220703125 133 Z M 411.0001220703125 133 L 414.0001220703125 133 L 414.0001220703125 136 C 414.0001220703125 136 411.0001220703125 136 411.0001220703125 136 L 411.0001220703125 133 Z M 405.0001220703125 133 L 408.0001220703125 133 L 408.0001220703125 136 C 408.0001220703125 136 405.0001220703125 136 405.0001220703125 136 L 405.0001220703125 133 Z M 399.0001220703125 133 L 402.0001220703125 133 L 402.0001220703125 136 C 402.0001220703125 136 399.0001220703125 136 399.0001220703125 136 L 399.0001220703125 133 Z M 393.0001220703125 133 L 396.0001220703125 133 L 396.0001220703125 136 C 396.0001220703125 136 393.0001220703125 136 393.0001220703125 136 L 393.0001220703125 133 Z M 387.0001220703125 133 L 390.0001220703125 133 L 390.0001220703125 136 C 390.0001220703125 136 387.0001220703125 136 387.0001220703125 136 L 387.0001220703125 133 Z M 381.0001220703125 133 L 384.0001220703125 133 L 384.0001220703125 136 C 384.0001220703125 136 381.0001220703125 136 381.0001220703125 136 L 381.0001220703125 133 Z M 375.0001220703125 133 L 378.0001220703125 133 L 378.0001220703125 136 C 378.0001220703125 136 375.0001220703125 136 375.0001220703125 136 L 375.0001220703125 133 Z M 369.0001220703125 133 L 372.0001220703125 133 L 372.0001220703125 136 C 372.0001220703125 136 369.0001220703125 136 369.0001220703125 136 L 369.0001220703125 133 Z M 363.0001220703125 133 L 366.0001220703125 133 L 366.0001220703125 136 C 366.0001220703125 136 363.0001220703125 136 363.0001220703125 136 L 363.0001220703125 133 Z M 357.0001220703125 133 L 360.0001220703125 133 L 360.0001220703125 136 C 360.0001220703125 136 357.0001220703125 136 357.0001220703125 136 L 357.0001220703125 133 Z M 351.0001220703125 133 L 354.0001220703125 133 L 354.0001220703125 136 C 354.0001220703125 136 351.0001220703125 136 351.0001220703125 136 L 351.0001220703125 133 Z M 345.0001220703125 133 L 348.0001220703125 133 L 348.0001220703125 136 C 348.0001220703125 136 345.0001220703125 136 345.0001220703125 136 L 345.0001220703125 133 Z M 339.0001220703125 133 L 342.0001220703125 133 L 342.0001220703125 136 C 342.0001220703125 136 339.0001220703125 136 339.0001220703125 136 L 339.0001220703125 133 Z M 333.0001220703125 133 L 336.0001220703125 133 L 336.0001220703125 136 C 336.0001220703125 136 333.0001220703125 136 333.0001220703125 136 L 333.0001220703125 133 Z M 327.0001220703125 133 L 330.0001220703125 133 L 330.0001220703125 136 C 330.0001220703125 136 327.0001220703125 136 327.0001220703125 136 L 327.0001220703125 133 Z M 321.0001220703125 133 L 324.0001220703125 133 L 324.0001220703125 136 C 324.0001220703125 136 321.0001220703125 136 321.0001220703125 136 L 321.0001220703125 133 Z M 315.0001220703125 133 L 318.0001220703125 133 L 318.0001220703125 136 C 318.0001220703125 136 315.0001220703125 136 315.0001220703125 136 L 315.0001220703125 133 Z M 309.0001220703125 133 L 312.0001220703125 133 L 312.0001220703125 136 C 312.0001220703125 136 309.0001220703125 136 309.0001220703125 136 L 309.0001220703125 133 Z M 303.0001220703125 133 L 306.0001220703125 133 L 306.0001220703125 136 C 306.0001220703125 136 303.0001220703125 136 303.0001220703125 136 L 303.0001220703125 133 Z M 297.0001220703125 133 L 300.0001220703125 133 L 300.0001220703125 136 C 300.0001220703125 136 297.0001220703125 136 297.0001220703125 136 L 297.0001220703125 133 Z M 291.0001220703125 133 L 294.0001220703125 133 L 294.0001220703125 136 C 294.0001220703125 136 291.0001220703125 136 291.0001220703125 136 L 291.0001220703125 133 Z M 285.0001220703125 133 L 288.0001220703125 133 L 288.0001220703125 136 C 288.0001220703125 136 285.0001220703125 136 285.0001220703125 136 L 285.0001220703125 133 Z M 279.0001220703125 133 L 282.0001220703125 133 L 282.0001220703125 136 C 282.0001220703125 136 279.0001220703125 136 279.0001220703125 136 L 279.0001220703125 133 Z M 273.0001220703125 133 L 276.0001220703125 133 L 276.0001220703125 136 C 276.0001220703125 136 273.0001220703125 136 273.0001220703125 136 L 273.0001220703125 133 Z M 267.0001220703125 133 L 270.0001220703125 133 L 270.0001220703125 136 C 270.0001220703125 136 267.0001220703125 136 267.0001220703125 136 L 267.0001220703125 133 Z M 261.0001220703125 133 L 264.0001220703125 133 L 264.0001220703125 136 C 264.0001220703125 136 261.0001220703125 136 261.0001220703125 136 L 261.0001220703125 133 Z M 255.0001220703125 133 L 258.0001220703125 133 L 258.0001220703125 136 C 258.0001220703125 136 255.0001220703125 136 255.0001220703125 136 L 255.0001220703125 133 Z M 249.0001220703125 133 L 252.0001220703125 133 L 252.0001220703125 136 C 252.0001220703125 136 249.0001220703125 136 249.0001220703125 136 L 249.0001220703125 133 Z M 243.0001220703125 133 L 246.0001220703125 133 L 246.0001220703125 136 C 246.0001220703125 136 243.0001220703125 136 243.0001220703125 136 L 243.0001220703125 133 Z M 237.0001220703125 133 L 240.0001220703125 133 L 240.0001220703125 136 C 240.0001220703125 136 237.0001220703125 136 237.0001220703125 136 L 237.0001220703125 133 Z M 231.0001220703125 133 L 234.0001220703125 133 L 234.0001220703125 136 C 234.0001220703125 136 231.0001220703125 136 231.0001220703125 136 L 231.0001220703125 133 Z M 225.0001220703125 133 L 228.0001220703125 133 L 228.0001220703125 136 C 228.0001220703125 136 225.0001220703125 136 225.0001220703125 136 L 225.0001220703125 133 Z M 219.0001220703125 133 L 222.0001220703125 133 L 222.0001220703125 136 C 222.0001220703125 136 219.0001220703125 136 219.0001220703125 136 L 219.0001220703125 133 Z M 213.0001220703125 133 L 216.0001220703125 133 L 216.0001220703125 136 C 216.0001220703125 136 213.0001220703125 136 213.0001220703125 136 L 213.0001220703125 133 Z M 207.0001220703125 133 L 210.0001220703125 133 L 210.0001220703125 136 C 210.0001220703125 136 207.0001220703125 136 207.0001220703125 136 L 207.0001220703125 133 Z M 201.0001220703125 133 L 204.0001220703125 133 L 204.0001220703125 136 C 204.0001220703125 136 201.0001220703125 136 201.0001220703125 136 L 201.0001220703125 133 Z M 195.0001220703125 133 L 198.0001220703125 133 L 198.0001220703125 136 C 198.0001220703125 136 195.0001220703125 136 195.0001220703125 136 L 195.0001220703125 133 Z M 189.0001220703125 133 L 192.0001220703125 133 L 192.0001220703125 136 C 192.0001220703125 136 189.0001220703125 136 189.0001220703125 136 L 189.0001220703125 133 Z M 183.0001220703125 133 L 186.0001220703125 133 L 186.0001220703125 136 C 186.0001220703125 136 183.0001220703125 136 183.0001220703125 136 L 183.0001220703125 133 Z M 177.0001220703125 133 L 180.0001220703125 133 L 180.0001220703125 136 C 180.0001220703125 136 177.0001220703125 136 177.0001220703125 136 L 177.0001220703125 133 Z M 171.0001220703125 133 L 174.0001220703125 133 L 174.0001220703125 136 C 174.0001220703125 136 171.0001220703125 136 171.0001220703125 136 L 171.0001220703125 133 Z M 165.0001220703125 133 L 168.0001220703125 133 L 168.0001220703125 136 C 168.0001220703125 136 165.0001220703125 136 165.0001220703125 136 L 165.0001220703125 133 Z M 159.0001220703125 133 L 162.0001220703125 133 L 162.0001220703125 136 C 162.0001220703125 136 159.0001220703125 136 159.0001220703125 136 L 159.0001220703125 133 Z M 153.0001220703125 133 L 156.0001220703125 133 L 156.0001220703125 136 C 156.0001220703125 136 153.0001220703125 136 153.0001220703125 136 L 153.0001220703125 133 Z M 147.0001220703125 133 L 150.0001220703125 133 L 150.0001220703125 136 C 150.0001220703125 136 147.0001220703125 136 147.0001220703125 136 L 147.0001220703125 133 Z M 141.0001220703125 133 L 144.0001220703125 133 L 144.0001220703125 136 C 144.0001220703125 136 141.0001220703125 136 141.0001220703125 136 L 141.0001220703125 133 Z M 135.0001220703125 133 L 138.0001220703125 133 L 138.0001220703125 136 C 138.0001220703125 136 135.0001220703125 136 135.0001220703125 136 L 135.0001220703125 133 Z M 129.0001220703125 133 L 132.0001220703125 133 L 132.0001220703125 136 C 132.0001220703125 136 129.0001220703125 136 129.0001220703125 136 L 129.0001220703125 133 Z M 123.0001220703125 133 L 126.0001220703125 133 L 126.0001220703125 136 C 126.0001220703125 136 123.0001220703125 136 123.0001220703125 136 L 123.0001220703125 133 Z M 117.0001220703125 133 L 120.0001220703125 133 L 120.0001220703125 136 C 120.0001220703125 136 117.0001220703125 136 117.0001220703125 136 L 117.0001220703125 133 Z M 111.0001220703125 133 L 114.0001220703125 133 L 114.0001220703125 136 C 114.0001220703125 136 111.0001220703125 136 111.0001220703125 136 L 111.0001220703125 133 Z M 105.0001220703125 133 L 108.0001220703125 133 L 108.0001220703125 136 C 108.0001220703125 136 105.0001220703125 136 105.0001220703125 136 L 105.0001220703125 133 Z M 99.0001220703125 133 L 102.0001220703125 133 L 102.0001220703125 136 C 102.0001220703125 136 99.0001220703125 136 99.0001220703125 136 L 99.0001220703125 133 Z M 93.0001220703125 133 L 96.0001220703125 133 L 96.0001220703125 136 C 96.0001220703125 136 93.0001220703125 136 93.0001220703125 136 L 93.0001220703125 133 Z M 87.0001220703125 133 L 90.0001220703125 133 L 90.0001220703125 136 C 90.0001220703125 136 87.0001220703125 136 87.0001220703125 136 L 87.0001220703125 133 Z M 81.0001220703125 133 L 84.0001220703125 133 L 84.0001220703125 136 C 84.0001220703125 136 81.0001220703125 136 81.0001220703125 136 L 81.0001220703125 133 Z M 75.0001220703125 133 L 78.0001220703125 133 L 78.0001220703125 136 C 78.0001220703125 136 75.0001220703125 136 75.0001220703125 136 L 75.0001220703125 133 Z M 69.0001220703125 133 L 72.0001220703125 133 L 72.0001220703125 136 C 72.0001220703125 136 69.0001220703125 136 69.0001220703125 136 L 69.0001220703125 133 Z M 63.0001220703125 133 L 66.0001220703125 133 L 66.0001220703125 136 C 66.0001220703125 136 63.0001220703125 136 63.0001220703125 136 L 63.0001220703125 133 Z M 57.0001220703125 133 L 60.0001220703125 133 L 60.0001220703125 136 C 60.0001220703125 136 57.0001220703125 136 57.0001220703125 136 L 57.0001220703125 133 Z M 51.0001220703125 133 L 54.0001220703125 133 L 54.0001220703125 136 C 54.0001220703125 136 51.0001220703125 136 51.0001220703125 136 L 51.0001220703125 133 Z M 45.0001220703125 133 L 48.0001220703125 133 L 48.0001220703125 136 C 48.0001220703125 136 45.0001220703125 136 45.0001220703125 136 L 45.0001220703125 133 Z M 39.0001220703125 133 L 42.0001220703125 133 L 42.0001220703125 136 C 42.0001220703125 136 39.0001220703125 136 39.0001220703125 136 L 39.0001220703125 133 Z M 33.0001220703125 133 L 36.0001220703125 133 L 36.0001220703125 136 C 36.0001220703125 136 33.0001220703125 136 33.0001220703125 136 L 33.0001220703125 133 Z M 27.0001220703125 133 L 30.0001220703125 133 L 30.0001220703125 136 C 30.0001220703125 136 27.0001220703125 136 27.0001220703125 136 L 27.0001220703125 133 Z M 21.0001220703125 133 L 24.0001220703125 133 L 24.0001220703125 136 C 24.0001220703125 136 21.0001220703125 136 21.0001220703125 136 L 21.0001220703125 133 Z M 15.0001220703125 133 L 18.0001220703125 133 L 18.0001220703125 136 C 18.0001220703125 136 15.0001220703125 136 15.0001220703125 136 L 15.0001220703125 133 Z M 9.0001220703125 133 L 12.0001220703125 133 L 12.0001220703125 136 C 12.0001220703125 136 9.0001220703125 136 9.0001220703125 136 L 9.0001220703125 133 Z M 3.0001220703125 133 L 6.0001220703125 133 L 6.0001220703125 136 C 6.0001220703125 136 3.0001220703125 136 3.0001220703125 136 L 3.0001220703125 133 Z M -6.103515625e-05 133 L 2.99993896484375 133.0001525878906 L 2.99993896484375 136 L 0.0001220703125 136 L 2.99993896484375 136 L -6.103515625e-05 136 L 0.0001220703125 136 L -6.103515625e-05 136 L -6.103515625e-05 133 Z M -6.103515625e-05 127.0001525878906 L 2.99993896484375 127.0001525878906 L 2.99993896484375 130.0001525878906 L -6.103515625e-05 130.0001525878906 L -6.103515625e-05 127.0001525878906 Z M -6.103515625e-05 121.0001525878906 L 2.99993896484375 121.0001525878906 L 2.99993896484375 124.0001525878906 L -6.103515625e-05 124.0001525878906 L -6.103515625e-05 121.0001525878906 Z M -6.103515625e-05 115.0001525878906 L 2.99993896484375 115.0001525878906 L 2.99993896484375 118.0001525878906 L -6.103515625e-05 118.0001525878906 L -6.103515625e-05 115.0001525878906 Z M -6.103515625e-05 109.0001525878906 L 2.99993896484375 109.0001525878906 L 2.99993896484375 112.0001525878906 L -6.103515625e-05 112.0001525878906 L -6.103515625e-05 109.0001525878906 Z M -6.103515625e-05 103.0001525878906 L 2.99993896484375 103.0001525878906 L 2.99993896484375 106.0001525878906 L -6.103515625e-05 106.0001525878906 L -6.103515625e-05 103.0001525878906 Z M -6.103515625e-05 97.00015258789062 L 2.99993896484375 97.00015258789062 L 2.99993896484375 100.0001525878906 L -6.103515625e-05 100.0001525878906 L -6.103515625e-05 97.00015258789062 Z M -6.103515625e-05 91.00015258789062 L 2.99993896484375 91.00015258789062 L 2.99993896484375 94.00015258789062 L -6.103515625e-05 94.00015258789062 L -6.103515625e-05 91.00015258789062 Z M -6.103515625e-05 85.00015258789062 L 2.99993896484375 85.00015258789062 L 2.99993896484375 88.00015258789062 L -6.103515625e-05 88.00015258789062 L -6.103515625e-05 85.00015258789062 Z M -6.103515625e-05 79.00015258789062 L 2.99993896484375 79.00015258789062 L 2.99993896484375 82.00015258789062 L -6.103515625e-05 82.00015258789062 L -6.103515625e-05 79.00015258789062 Z M -6.103515625e-05 73.00015258789062 L 2.99993896484375 73.00015258789062 L 2.99993896484375 76.00015258789062 L -6.103515625e-05 76.00015258789062 L -6.103515625e-05 73.00015258789062 Z M -6.103515625e-05 67.00015258789062 L 2.99993896484375 67.00015258789062 L 2.99993896484375 70.00015258789062 L -6.103515625e-05 70.00015258789062 L -6.103515625e-05 67.00015258789062 Z M -6.103515625e-05 61.00015258789062 L 2.99993896484375 61.00015258789062 L 2.99993896484375 64.00015258789062 L -6.103515625e-05 64.00015258789062 L -6.103515625e-05 61.00015258789062 Z M -6.103515625e-05 55.00015258789062 L 2.99993896484375 55.00015258789062 L 2.99993896484375 58.00015258789062 L -6.103515625e-05 58.00015258789062 L -6.103515625e-05 55.00015258789062 Z M -6.103515625e-05 49.00015258789062 L 2.99993896484375 49.00015258789062 L 2.99993896484375 52.00015258789062 L -6.103515625e-05 52.00015258789062 L -6.103515625e-05 49.00015258789062 Z M -6.103515625e-05 43.00015258789062 L 2.99993896484375 43.00015258789062 L 2.99993896484375 46.00015258789062 L -6.103515625e-05 46.00015258789062 L -6.103515625e-05 43.00015258789062 Z M -6.103515625e-05 37.00015258789062 L 2.99993896484375 37.00015258789062 L 2.99993896484375 40.00015258789062 L -6.103515625e-05 40.00015258789062 L -6.103515625e-05 37.00015258789062 Z M -6.103515625e-05 31.00015258789062 L 2.99993896484375 31.00015258789062 L 2.99993896484375 34.00015258789062 L -6.103515625e-05 34.00015258789062 L -6.103515625e-05 31.00015258789062 Z M -6.103515625e-05 25.00015258789062 L 2.99993896484375 25.00015258789062 L 2.99993896484375 28.00015258789062 L -6.103515625e-05 28.00015258789062 L -6.103515625e-05 25.00015258789062 Z M -6.103515625e-05 19.00015258789062 L 2.99993896484375 19.00015258789062 L 2.99993896484375 22.00015258789062 L -6.103515625e-05 22.00015258789062 L -6.103515625e-05 19.00015258789062 Z M -6.103515625e-05 13.00015258789062 L 2.99993896484375 13.00015258789062 L 2.99993896484375 16.00015258789062 L -6.103515625e-05 16.00015258789062 L -6.103515625e-05 13.00015258789062 Z M -6.103515625e-05 7.000152587890625 L 2.99993896484375 7.000152587890625 L 2.99993896484375 10.00015258789062 L -6.103515625e-05 10.00015258789062 L -6.103515625e-05 7.000152587890625 Z" stroke="none" fill="#25ced1"/>
    </g>
    <text id="Programar_la_sección_de_trazo_y_corte_significa_dimensionar_las_tareas_a_realizar_y_relacionarlas_con_los_recursos_disponibles_de_esa_manera_podrá_establecer_fechas_de_entrega_y_necesidades_de_recursos_si_así_fuere_necesario." data-name="Programar la sección de trazo y corte significa dimensionar las tareas a realizar y relacionarlas con los recursos disponibles, de esa manera podrá establecer fechas de entrega y necesidades de recursos, si así fuere necesario." transform="translate(734 1250)" fill="#12263f" font-size="16" font-family="Roboto-Regular, Roboto"><tspan x="0" y="17">Programar la sección de trazo y corte significa dimensionar las tareas a </tspan><tspan x="0" y="41">realizar y relacionarlas con los recursos disponibles, de esa manera podrá </tspan><tspan x="0" y="65">establecer fechas de entrega y necesidades de recursos, si así fuere </tspan><tspan x="0" y="89">necesario.</tspan></text>
    <g id="Grupo_70167" data-name="Grupo 70167" transform="translate(1201 1188.604)">
      <g id="Grupo_70163" data-name="Grupo 70163" transform="translate(50.666 0)">
        <path id="Trazado_106989" data-name="Trazado 106989" d="M63.18,298.391a16.116,16.116,0,0,1-11.486,1.83c-4.2-.376-4.444-.822-9.74-.982a13.925,13.925,0,0,0-10.75,4.668c-.382.409-.764.789-1.147,1.151-4.318-4.059-8.708-5.272-13.835-5.807,2.107-.328,4.188-.619,6.22-.866a31.984,31.984,0,0,0,12.468-5.61,29.884,29.884,0,0,0,6.392-7.454,15.842,15.842,0,0,1,7.95-11.275c7.365-4.213,16.48-2.18,20.321,4.531a12.887,12.887,0,0,1,1.65,5.22h0A15.428,15.428,0,0,1,63.18,298.391Zm1.164-16.366c-2.417-4.224-8.14-5.494-12.782-2.839q-.423.243-.816.517c-3.948,2.831-5.359,7.931-3.11,11.863,2.416,4.224,8.139,5.495,12.781,2.838.283-.161.554-.334.816-.518C65.181,291.056,66.592,285.955,64.344,282.025Z" transform="translate(-16.222 -271.85)" fill="#0075a4"/>
      </g>
      <g id="Grupo_70164" data-name="Grupo 70164" transform="translate(0 26.404)">
        <path id="Trazado_106990" data-name="Trazado 106990" d="M51.943,300.9a.324.324,0,0,1,.122-.254L52,300.628c-.135-1.15,10.13-3.972,39.1-1.174,4.387.423,8.219.476,11.709.839,5.129.535,9.519,1.749,13.837,5.807.328.31.656.629.984.971a15.051,15.051,0,0,0,4.314,3.176h-29.6c-6.594-1.193-13.114-2.581-18.928-3.916C61.1,303.5,51.943,300.9,51.943,300.9Zm56.071,8.218a2.909,2.909,0,1,0-3.169-2.622A2.908,2.908,0,0,0,108.014,309.118Z" transform="translate(-51.942 -298.255)" fill="#0075a4"/>
      </g>
      <g id="Grupo_70165" data-name="Grupo 70165" transform="translate(56.047 32.058)">
        <path id="Trazado_106991" data-name="Trazado 106991" d="M65.892,306a2.326,2.326,0,0,1-1.639,2.446l-.429-4.539A2.322,2.322,0,0,1,65.892,306Z" transform="translate(-63.824 -303.909)" fill="#0075a4"/>
      </g>
      <g id="Grupo_70166" data-name="Grupo 70166" transform="translate(53.472 32.146)">
        <path id="Trazado_106992" data-name="Trazado 106992" d="M68.05,304l.428,4.54A2.327,2.327,0,0,1,68.05,304Z" transform="translate(-66.401 -303.996)" fill="#0075a4"/>
      </g>
    </g>
  </g>
</svg>
