<svg xmlns="http://www.w3.org/2000/svg" width="610" height="271" viewBox="0 0 610 271">
  <g id="Grupo_70173" data-name="Grupo 70173" transform="translate(-766 -3987)">
    <path id="Rectángulo_7269" data-name="Rectángulo 7269" d="M0,0H305a10,10,0,0,1,10,10V77a0,0,0,0,1,0,0H0a0,0,0,0,1,0,0V0A0,0,0,0,1,0,0Z" transform="translate(851 3987)" fill="#fff"/>
    <rect id="Rectángulo_7270" data-name="Rectángulo 7270" width="85" height="77" transform="translate(766 3987)" fill="#ff8a5b"/>
    <text id="Estanterías_para_almacenar_tela" data-name="Estanterías para almacenar  tela" transform="translate(871 4014)" fill="#12263f" font-size="16" font-family="Roboto-Regular, Roboto"><tspan x="0" y="17" xml:space="preserve">Estanterías para almacenar  tela</tspan></text>
    <g id="shelf" transform="translate(704.667 3998)">
      <g id="Grupo_69940" data-name="Grupo 69940" transform="translate(85.333 0)">
        <path id="Trazado_106551" data-name="Trazado 106551" d="M122.418,8.22a.921.921,0,0,0-.039-.2.9.9,0,0,0-.087-.154.9.9,0,0,0-.1-.146.91.91,0,0,0-.157-.123.87.87,0,0,0-.1-.082L107.087.1a.929.929,0,0,0-.83,0L98.835,3.809,85.846,10.3a.92.92,0,0,0-.5.83h-.009v3.711a.928.928,0,0,0,.513.83l4.835,2.417-4.835,2.417a.921.921,0,0,0-.5.83h-.009V25.05a.928.928,0,0,0,.513.83l5.762,2.881-5.762,2.881a.921.921,0,0,0-.5.83h-.009v3.711a.928.928,0,0,0,.513.83l5.762,2.881-5.762,2.881a.882.882,0,0,0-.1.082.908.908,0,0,0-.157.123,2.216,2.216,0,0,0-.185.3.916.916,0,0,0-.04.2.872.872,0,0,0-.026.129v3.711a.928.928,0,0,0,.513.83l14.844,7.422a.929.929,0,0,0,.83,0l16.7-8.35,3.711-1.856a.928.928,0,0,0,.513-.83V8.35A.862.862,0,0,0,122.418,8.22ZM87.189,14.271V12.116l13.453,6.726V21Zm0,10.205V22.321l13.453,6.726V31.2Zm0,11.133V33.455l13.453,6.726v2.155Zm13.453,17.86L87.189,46.743V44.588l13.453,6.726v2.155Zm16.7-7.886-15.772,7.886V51.314l15.772-7.886Zm0-3.192-16.236,8.118L87.817,43.865l5.866-2.933,7.007,3.5a.929.929,0,0,0,.83,0l15.821-7.911Zm0-7.941-15.772,7.886V40.181L117.341,32.3Zm0-3.192-16.236,8.118L87.817,32.731,93.683,29.8l7.007,3.5a.929.929,0,0,0,.83,0l15.821-7.911Zm0-7.941L101.569,31.2V29.048l15.772-7.886Zm0-3.192-16.236,8.118L87.817,21.6l4.426-2.213a.9.9,0,0,0,.352-.337l8.1,4.048a.929.929,0,0,0,.83,0l15.821-7.911Zm0-7.013L101.569,21V18.842l15.772-7.886Zm.256-3.321-16.493,8.247L87.817,11.393,99.665,5.469l7.007-3.5L119.96,8.609Zm2.991,34.169-2.319,1.16V10.492l2.319-1.159Z" transform="translate(-85.333 0)" fill="#fff"/>
      </g>
    </g>
    <path id="Rectángulo_7269-2" data-name="Rectángulo 7269" d="M0,0H305a10,10,0,0,1,10,10V77a0,0,0,0,1,0,0H0a0,0,0,0,1,0,0V0A0,0,0,0,1,0,0Z" transform="translate(851 4084)" fill="#fff"/>
    <path id="Rectángulo_7271" data-name="Rectángulo 7271" d="M0,0H180a10,10,0,0,1,10,10V174a0,0,0,0,1,0,0H0a0,0,0,0,1,0,0V0A0,0,0,0,1,0,0Z" transform="translate(1186 4084)" fill="#fff"/>
    <rect id="Rectángulo_7270-2" data-name="Rectángulo 7270" width="85" height="77" transform="translate(766 4084)" fill="#ea526f"/>
    <path id="Rectángulo_7272" data-name="Rectángulo 7272" d="M0,0H85a0,0,0,0,1,0,0V67A10,10,0,0,1,75,77H0a0,0,0,0,1,0,0V0A0,0,0,0,1,0,0Z" transform="translate(1186 4084)" fill="#25ced1"/>
    <text id="Mesa_de_extendido_y_corte_1_" data-name="Mesa de extendido y corte # 1 " transform="translate(871 4111)" fill="#12263f" font-size="16" font-family="Roboto-Regular, Roboto"><tspan x="0" y="17">Mesa de extendido y corte # 1 </tspan></text>
    <text id="Área_de_tiqueteo_y_alistamiento" data-name="Área de tiqueteo y alistamiento" transform="translate(1208 4184)" fill="#12263f" font-size="16" font-family="Roboto-Regular, Roboto"><tspan x="0" y="17">Área de tiqueteo y </tspan><tspan x="0" y="41">alistamiento</tspan></text>
    <path id="Rectángulo_7269-3" data-name="Rectángulo 7269" d="M0,0H305a10,10,0,0,1,10,10V77a0,0,0,0,1,0,0H0a0,0,0,0,1,0,0V0A0,0,0,0,1,0,0Z" transform="translate(851 4181)" fill="#fff"/>
    <rect id="Rectángulo_7270-3" data-name="Rectángulo 7270" width="85" height="77" transform="translate(766 4181)" fill="#ea526f"/>
    <text id="Mesa_de_extendido_y_corte_2_" data-name="Mesa de extendido y corte # 2 " transform="translate(871 4208)" fill="#12263f" font-size="16" font-family="Roboto-Regular, Roboto"><tspan x="0" y="17">Mesa de extendido y corte # 2 </tspan></text>
    <g id="dining-table" transform="translate(779 4092.57)">
      <path id="Trazado_106552" data-name="Trazado 106552" d="M55.315,36.182H2.773A.773.773,0,0,1,2,35.409V29.487a.773.773,0,0,1,.773-.773H55.315a.773.773,0,0,1,.773.773v5.923A.773.773,0,0,1,55.315,36.182ZM3.545,34.637h51V30.259h-51Z" transform="translate(0 -5.52)" fill="#fff"/>
      <path id="Trazado_106553" data-name="Trazado 106553" d="M34.581,5.975H32.333a.773.773,0,0,1,0-1.545h2.248a.773.773,0,0,1,0,1.545Z" transform="translate(-6.72 0)" fill="#fff"/>
      <path id="Trazado_106554" data-name="Trazado 106554" d="M55.315,24.736H2.773A.773.773,0,0,1,2.1,23.591L12.419,4.83a.773.773,0,0,1,.677-.4H20.2a.773.773,0,1,1,0,1.545H13.552L4.079,23.191H54.008L44.535,5.975H40.974a.773.773,0,1,1,0-1.545h4.018a.773.773,0,0,1,.677.4L55.992,23.591a.773.773,0,0,1-.677,1.145Z" transform="translate(0)" fill="#fff"/>
      <path id="Trazado_106555" data-name="Trazado 106555" d="M44.538,5.975H42.243a.773.773,0,0,1,0-1.545h2.295a.773.773,0,1,1,0,1.545Z" transform="translate(-8.972 0)" fill="#fff"/>
      <path id="Trazado_106556" data-name="Trazado 106556" d="M51.868,50.767H46.943a.773.773,0,0,1-.773-.773V37.152a.773.773,0,0,1,.773-.773h4.926a.773.773,0,0,1,.773.773V49.994A.773.773,0,0,1,51.868,50.767Zm-4.153-1.545H51.1v-11.3h-3.38Z" transform="translate(-10.041 -7.263)" fill="#fff"/>
      <path id="Trazado_106557" data-name="Trazado 106557" d="M25.153,50.767H20.228a.773.773,0,0,1-.773-.773V37.152a.773.773,0,0,1,.773-.773h4.926a.773.773,0,0,1,.773.773V49.994A.773.773,0,0,1,25.153,50.767ZM21,49.222h3.38v-11.3H21Z" transform="translate(-3.968 -7.263)" fill="#fff"/>
      <path id="Trazado_106558" data-name="Trazado 106558" d="M64.466,62.026H59.541a.773.773,0,0,1-.773-.773v-24.1a.773.773,0,0,1,.773-.773h4.926a.773.773,0,0,1,.773.773v24.1A.773.773,0,0,1,64.466,62.026ZM60.313,60.48h3.38V37.924h-3.38Z" transform="translate(-12.905 -7.263)" fill="#fff"/>
      <path id="Trazado_106559" data-name="Trazado 106559" d="M12.555,62.026H7.63a.773.773,0,0,1-.773-.773v-24.1a.773.773,0,0,1,.773-.773h4.926a.773.773,0,0,1,.773.773v24.1A.773.773,0,0,1,12.555,62.026ZM8.4,60.48h3.38V37.924H8.4Z" transform="translate(-1.104 -7.263)" fill="#fff"/>
    </g>
    <g id="dining-table-2" data-name="dining-table" transform="translate(779 4189.57)">
      <path id="Trazado_106552-2" data-name="Trazado 106552" d="M55.315,36.182H2.773A.773.773,0,0,1,2,35.409V29.487a.773.773,0,0,1,.773-.773H55.315a.773.773,0,0,1,.773.773v5.923A.773.773,0,0,1,55.315,36.182ZM3.545,34.637h51V30.259h-51Z" transform="translate(0 -5.52)" fill="#fff"/>
      <path id="Trazado_106553-2" data-name="Trazado 106553" d="M34.581,5.975H32.333a.773.773,0,0,1,0-1.545h2.248a.773.773,0,0,1,0,1.545Z" transform="translate(-6.72 0)" fill="#fff"/>
      <path id="Trazado_106554-2" data-name="Trazado 106554" d="M55.315,24.736H2.773A.773.773,0,0,1,2.1,23.591L12.419,4.83a.773.773,0,0,1,.677-.4H20.2a.773.773,0,1,1,0,1.545H13.552L4.079,23.191H54.008L44.535,5.975H40.974a.773.773,0,1,1,0-1.545h4.018a.773.773,0,0,1,.677.4L55.992,23.591a.773.773,0,0,1-.677,1.145Z" transform="translate(0)" fill="#fff"/>
      <path id="Trazado_106555-2" data-name="Trazado 106555" d="M44.538,5.975H42.243a.773.773,0,0,1,0-1.545h2.295a.773.773,0,1,1,0,1.545Z" transform="translate(-8.972 0)" fill="#fff"/>
      <path id="Trazado_106556-2" data-name="Trazado 106556" d="M51.868,50.767H46.943a.773.773,0,0,1-.773-.773V37.152a.773.773,0,0,1,.773-.773h4.926a.773.773,0,0,1,.773.773V49.994A.773.773,0,0,1,51.868,50.767Zm-4.153-1.545H51.1v-11.3h-3.38Z" transform="translate(-10.041 -7.263)" fill="#fff"/>
      <path id="Trazado_106557-2" data-name="Trazado 106557" d="M25.153,50.767H20.228a.773.773,0,0,1-.773-.773V37.152a.773.773,0,0,1,.773-.773h4.926a.773.773,0,0,1,.773.773V49.994A.773.773,0,0,1,25.153,50.767ZM21,49.222h3.38v-11.3H21Z" transform="translate(-3.968 -7.263)" fill="#fff"/>
      <path id="Trazado_106558-2" data-name="Trazado 106558" d="M64.466,62.026H59.541a.773.773,0,0,1-.773-.773v-24.1a.773.773,0,0,1,.773-.773h4.926a.773.773,0,0,1,.773.773v24.1A.773.773,0,0,1,64.466,62.026ZM60.313,60.48h3.38V37.924h-3.38Z" transform="translate(-12.905 -7.263)" fill="#fff"/>
      <path id="Trazado_106559-2" data-name="Trazado 106559" d="M12.555,62.026H7.63a.773.773,0,0,1-.773-.773v-24.1a.773.773,0,0,1,.773-.773h4.926a.773.773,0,0,1,.773.773v24.1A.773.773,0,0,1,12.555,62.026ZM8.4,60.48h3.38V37.924H8.4Z" transform="translate(-1.104 -7.263)" fill="#fff"/>
    </g>
    <g id="etiqueta" transform="translate(1201 4094.894)">
      <path id="Trazado_106560" data-name="Trazado 106560" d="M52.281,30.16,31.181,9.048a5.885,5.885,0,0,0-4.175-1.736c-.129,0-.258,0-.387.012L11.359,8.333a3.33,3.33,0,0,0-3.1,3.1L7.9,16.848a10.516,10.516,0,0,1-2.182-1.677,9.577,9.577,0,0,1-2.85-5.724A5.946,5.946,0,0,1,4.451,4.521C7.043,1.929,11.817,2.5,15.113,5.788a1.41,1.41,0,0,0,1.994-1.994C12.7-.581,6.128-1.144,2.445,2.539A8.711,8.711,0,0,0,.053,9.74a12.366,12.366,0,0,0,3.659,7.436,13.1,13.1,0,0,0,3.976,2.733L7.242,26.7a5.9,5.9,0,0,0,1.724,4.574L30.079,52.387a7.007,7.007,0,0,0,5,2.064h0a7.056,7.056,0,0,0,5-2.064L52.3,40.153a7.051,7.051,0,0,0-.023-9.993ZM50.3,38.148,38.054,50.393a4.223,4.223,0,0,1-3,1.243h0a4.223,4.223,0,0,1-3-1.243L10.937,29.281a3.091,3.091,0,0,1-.9-2.393l.411-6.146c.235.035.469.07.7.094.352.035.7.059,1.044.059a8.514,8.514,0,0,0,6.146-2.44,1.41,1.41,0,0,0-1.994-1.994,5.946,5.946,0,0,1-4.926,1.583c-.27-.023-.528-.07-.786-.117l.422-6.287a.517.517,0,0,1,.481-.481l15.259-1.009c.07,0,.141-.012.211-.012a3.117,3.117,0,0,1,2.193.9l21.1,21.1a4.247,4.247,0,0,1,0,6.005Z" transform="translate(0 0)" fill="#fff"/>
    </g>
  </g>
</svg>
