<svg xmlns="http://www.w3.org/2000/svg" width="75.51" height="71.453" viewBox="0 0 75.51 71.453">
  <g id="Grupo_78244" data-name="Grupo 78244" transform="translate(-629.49 -4686.18)">
    <g id="Grupo_70759" data-name="Grupo 70759" transform="translate(629.49 4686.18)">
      <g id="Grupo_70758" data-name="Grupo 70758" transform="translate(0 18.636)">
        <path id="Trazado_107948" data-name="Trazado 107948" d="M2725.492,927.492c0,10.656-4.956,16.623-13.835,16.623-8.83,0-13.786-5.967-13.786-16.623s4.956-16.575,13.786-16.575C2720.537,910.917,2725.492,916.837,2725.492,927.492Zm-25.513,0c0,9.615,4.123,14.823,11.678,14.823,7.6,0,11.726-5.208,11.726-14.823,0-9.66-4.122-14.775-11.726-14.775C2704.1,912.716,2699.979,917.832,2699.979,927.492Z" transform="translate(-2697.871 -910.917)" fill="#ff8a5b"/>
        <path id="Trazado_107949" data-name="Trazado 107949" d="M2815.521,918.779c0,2.936-2.257,6.867-5.934,10.607l-12.07,12.738h20.358v1.943h-22.81v-1.988l13.1-13.971c3.288-3.22,5.3-6.725,5.3-9.14,0-3.835-3.041-6.156-8.046-6.156a13.98,13.98,0,0,0-9.421,4.072l-1.029-1.562a15.707,15.707,0,0,1,10.645-4.405C2811.7,910.917,2815.521,913.9,2815.521,918.779Z" transform="translate(-2761.702 -910.917)" fill="#ff8a5b"/>
      </g>
      <rect id="Rectángulo_8800" data-name="Rectángulo 8800" width="1.732" height="71.452" transform="translate(73.778)" fill="#a3a3a3"/>
    </g>
  </g>
</svg>
