<svg xmlns="http://www.w3.org/2000/svg" width="357.159" height="180.475" viewBox="0 0 357.159 180.475">
  <g id="Grupo_69769" data-name="Grupo 69769" transform="translate(-152.951 -560.698)">
    <g id="Grupo_69191" data-name="Grupo 69191" transform="translate(183.527 568.839)">
      <g id="Grupo_69190" data-name="Grupo 69190" transform="translate(0)">
        <path id="Trazado_106285" data-name="Trazado 106285" d="M406.008,658.227h-1.032a1.862,1.862,0,0,1-1.657-1,3.328,3.328,0,0,0-.209-.363.645.645,0,0,0-.339-.192l.049,1.261a.285.285,0,0,1-.285.3h-.252a.285.285,0,0,1-.285-.3l.05-1.261a.646.646,0,0,0-.34.192,3.359,3.359,0,0,0-.209.363,1.862,1.862,0,0,1-1.657,1h-1.032l.049-.214a.745.745,0,0,1,.6-.566l.41-.058a.937.937,0,0,0,.793-.763,1.217,1.217,0,0,1,.966-.984l.04-.008v-.6a.372.372,0,0,1,.209-.335V654a.329.329,0,0,1,.159-.28V643.433h-2.847a1.045,1.045,0,0,1-1.046-.993,13.109,13.109,0,0,1,.005-1.543,5.605,5.605,0,0,1,.817-2.873,7.121,7.121,0,0,1,.677-.94,2.347,2.347,0,0,0,.7-1.4,7.208,7.208,0,0,0-1.193-3.263c-.247-.44-.653-1.367-.95-2.068a.977.977,0,0,1,.53-1.285,11.7,11.7,0,0,0,2.044-.972,2.371,2.371,0,0,0,.516-1.684c0-.349.7-.442,1.12-.442s1.12.093,1.12.442a2.371,2.371,0,0,0,.516,1.684,11.69,11.69,0,0,0,2.044.972.977.977,0,0,1,.53,1.285c-.3.7-.7,1.628-.95,2.068a7.208,7.208,0,0,0-1.193,3.263,2.346,2.346,0,0,0,.7,1.4,7.124,7.124,0,0,1,.677.94h0a5.606,5.606,0,0,1,.817,2.873,13.142,13.142,0,0,1,.005,1.543,1.045,1.045,0,0,1-1.046.993h-2.847v10.289a.329.329,0,0,1,.16.28v.7a.372.372,0,0,1,.209.335v.6l.04.008a1.217,1.217,0,0,1,.966.984.937.937,0,0,0,.793.763l.406.057a.746.746,0,0,1,.6.567Zm-3.661-1.912-.064,1.627h.251l-.064-1.627.176.033a1.119,1.119,0,0,1,.7.348,3.691,3.691,0,0,1,.23.4,1.577,1.577,0,0,0,1.4.849h.648a.459.459,0,0,0-.314-.213l-.4-.057a1.223,1.223,0,0,1-1.034-1,.933.933,0,0,0-.74-.754l-.27-.054v-.835a.086.086,0,0,0-.086-.086V654.8h-.123V654a.041.041,0,0,0-.036-.041l-.123-.017v-10.8h3.133a.759.759,0,0,0,.76-.721,12.836,12.836,0,0,0,0-1.509,5.314,5.314,0,0,0-.778-2.749,6.784,6.784,0,0,0-.652-.9,2.6,2.6,0,0,1-.763-1.563,7.878,7.878,0,0,1,1.229-3.421c.241-.428.642-1.345.936-2.039a.691.691,0,0,0-.375-.909,11.277,11.277,0,0,1-2.118-1.016,2.71,2.71,0,0,1-.62-1.891,2.132,2.132,0,0,0-1.668,0,2.71,2.71,0,0,1-.62,1.891,11.3,11.3,0,0,1-2.118,1.016.691.691,0,0,0-.375.909c.294.694.7,1.611.936,2.039a7.876,7.876,0,0,1,1.229,3.421,2.6,2.6,0,0,1-.763,1.563,6.783,6.783,0,0,0-.652.9,5.315,5.315,0,0,0-.778,2.749,12.862,12.862,0,0,0,0,1.509.759.759,0,0,0,.76.721h3.133v10.8l-.123.017a.041.041,0,0,0-.036.041v.8h-.123v.143a.086.086,0,0,0-.086.086v.835l-.27.054a.934.934,0,0,0-.74.754,1.222,1.222,0,0,1-1.034,1l-.406.057a.455.455,0,0,0-.31.212h.648a1.577,1.577,0,0,0,1.4-.849,3.644,3.644,0,0,1,.23-.4,1.119,1.119,0,0,1,.7-.348Z" transform="translate(-398.121 -625.971)" fill="#86ddf9"/>
      </g>
    </g>
    <g id="Grupo_69334" data-name="Grupo 69334" transform="translate(423.793 560.698)">
      <g id="Grupo_69193" data-name="Grupo 69193" transform="translate(18.27 15.001)">
        <g id="Grupo_69192" data-name="Grupo 69192">
          <path id="Trazado_106286" data-name="Trazado 106286" d="M2539.236,685.068s-30.483,41.989-38.378,66.5-12.137,31.4-12.137,31.4l-17.532-8.6,37.4-93.382a28.992,28.992,0,0,0,8.851,5.107,27.9,27.9,0,0,0,10.306,1.757A28.418,28.418,0,0,0,2539.236,685.068Z" transform="translate(-2471.189 -680.985)" fill="#ffb4a2"/>
        </g>
      </g>
      <g id="Grupo_69195" data-name="Grupo 69195" transform="translate(1.727 8.201)">
        <g id="Grupo_69194" data-name="Grupo 69194" transform="translate(0)">
          <rect id="Rectángulo_7191" data-name="Rectángulo 7191" width="32.098" height="106.526" transform="matrix(0.977, 0.212, -0.212, 0.977, 22.571, 0)" fill="#ffc6b8"/>
        </g>
      </g>
      <g id="Grupo_69197" data-name="Grupo 69197" transform="translate(22.52 0)">
        <g id="Grupo_69196" data-name="Grupo 69196" transform="translate(0)">
          <ellipse id="Elipse_4381" data-name="Elipse 4381" cx="8.392" cy="16.049" rx="8.392" ry="16.049" transform="translate(0 16.403) rotate(-77.767)" fill="#ffb4a2"/>
        </g>
      </g>
      <g id="Grupo_69199" data-name="Grupo 69199" transform="translate(0 103.871)">
        <g id="Grupo_69198" data-name="Grupo 69198" transform="translate(0 0)">
          <ellipse id="Elipse_4382" data-name="Elipse 4382" cx="8.392" cy="16.049" rx="8.392" ry="16.049" transform="matrix(0.212, -0.977, 0.977, 0.212, 0, 16.403)" fill="#ffd2c7"/>
        </g>
      </g>
      <g id="Grupo_69201" data-name="Grupo 69201" transform="translate(27.623 4.592)">
        <g id="Grupo_69200" data-name="Grupo 69200">
          <path id="Trazado_106287" data-name="Trazado 106287" d="M2561.927,611.538a22.744,22.744,0,0,1-4.788-.531,19.518,19.518,0,0,1-8.245-3.751c-2.073-1.73-3.007-3.644-2.628-5.39s2.021-3.1,4.624-3.817a21.376,21.376,0,0,1,17.3,3.751c2.073,1.73,3.007,3.644,2.628,5.39s-2.021,3.1-4.624,3.817A16.217,16.217,0,0,1,2561.927,611.538Zm-6.768-13.767a15.962,15.962,0,0,0-4.2.522c-2.508.69-4.086,1.977-4.444,3.626s.546,3.475,2.543,5.141a21.127,21.127,0,0,0,17.072,3.7c2.508-.689,4.086-1.977,4.444-3.626l.124.027-.124-.027c.357-1.649-.545-3.475-2.543-5.141a19.26,19.26,0,0,0-8.135-3.7A22.493,22.493,0,0,0,2555.16,597.772Z" transform="translate(-2546.184 -597.518)" fill="#ffc6b8"/>
        </g>
      </g>
      <g id="Grupo_69203" data-name="Grupo 69203" transform="translate(31.539 6.799)">
        <g id="Grupo_69202" data-name="Grupo 69202">
          <path id="Trazado_106288" data-name="Trazado 106288" d="M2588.331,624.828a15.507,15.507,0,0,1-3.264-.362c-4.625-1-7.955-3.812-7.424-6.264s4.726-3.629,9.352-2.626a13.31,13.31,0,0,1,5.623,2.559c1.422,1.186,2.061,2.5,1.8,3.7s-1.388,2.135-3.173,2.626A11.067,11.067,0,0,1,2588.331,624.828Zm-4.606-9.36c-3.069,0-5.457,1.048-5.834,2.788-.5,2.314,2.742,4.989,7.23,5.962a13.056,13.056,0,0,0,6.057,0c1.69-.464,2.753-1.329,2.992-2.435s-.369-2.333-1.715-3.456a13.056,13.056,0,0,0-5.514-2.506A15.266,15.266,0,0,0,2583.725,615.469Z" transform="translate(-2577.587 -615.219)" fill="#ffc6b8"/>
        </g>
      </g>
      <g id="Grupo_69205" data-name="Grupo 69205" transform="translate(36.138 9.381)">
        <g id="Grupo_69204" data-name="Grupo 69204">
          <path id="Trazado_106289" data-name="Trazado 106289" d="M2619.334,640.357a7,7,0,0,1-1.474-.163c-2.14-.464-3.621-1.73-3.371-2.883s2.122-1.691,4.263-1.228a6.019,6.019,0,0,1,2.543,1.158,1.557,1.557,0,0,1-.64,2.951A5.02,5.02,0,0,1,2619.334,640.357Zm-2.068-4.184c-1.334,0-2.368.447-2.529,1.192-.216,1,1.209,2.154,3.177,2.581a5.767,5.767,0,0,0,2.674,0c.729-.2,1.186-.568,1.287-1.035h0a1.6,1.6,0,0,0-.743-1.476,5.76,5.76,0,0,0-2.434-1.105A6.793,6.793,0,0,0,2617.266,636.173Z" transform="translate(-2614.462 -635.917)" fill="#ffc6b8"/>
        </g>
      </g>
      <g id="Grupo_69207" data-name="Grupo 69207" transform="translate(23.423 17.749)">
        <g id="Grupo_69206" data-name="Grupo 69206" transform="translate(0 0)">
          <circle id="Elipse_4383" data-name="Elipse 4383" cx="1.097" cy="1.097" r="1.097" transform="matrix(0.987, -0.16, 0.16, 0.987, 0, 0.352)" fill="#ffe4de"/>
        </g>
      </g>
      <g id="Grupo_69209" data-name="Grupo 69209" transform="translate(25.556 28.067)">
        <g id="Grupo_69208" data-name="Grupo 69208" transform="translate(0 0)">
          <circle id="Elipse_4384" data-name="Elipse 4384" cx="1.097" cy="1.097" r="1.097" transform="matrix(0.973, -0.23, 0.23, 0.973, 0, 0.504)" fill="#ffe4de"/>
        </g>
      </g>
      <g id="Grupo_69211" data-name="Grupo 69211" transform="translate(22.032 24.323)">
        <g id="Grupo_69210" data-name="Grupo 69210" transform="translate(0 0)">
          <circle id="Elipse_4385" data-name="Elipse 4385" cx="1.097" cy="1.097" r="1.097" transform="translate(0 1.552) rotate(-45)" fill="#ffe4de"/>
        </g>
      </g>
      <g id="Grupo_69213" data-name="Grupo 69213" transform="translate(30.187 38.355)">
        <g id="Grupo_69212" data-name="Grupo 69212" transform="translate(0 0)">
          <circle id="Elipse_4386" data-name="Elipse 4386" cx="1.097" cy="1.097" r="1.097" transform="matrix(0.973, -0.23, 0.23, 0.973, 0, 0.504)" fill="#ffe4de"/>
        </g>
      </g>
      <g id="Grupo_69215" data-name="Grupo 69215" transform="translate(18.77 41.435)">
        <g id="Grupo_69214" data-name="Grupo 69214" transform="translate(0 0)">
          <circle id="Elipse_4387" data-name="Elipse 4387" cx="1.097" cy="1.097" r="1.097" transform="matrix(0.973, -0.23, 0.23, 0.973, 0, 0.504)" fill="#ffe4de"/>
        </g>
      </g>
      <g id="Grupo_69217" data-name="Grupo 69217" transform="translate(19.753 47.922)">
        <g id="Grupo_69216" data-name="Grupo 69216" transform="translate(0 0)">
          <circle id="Elipse_4388" data-name="Elipse 4388" cx="1.097" cy="1.097" r="1.097" transform="translate(0 2.028) rotate(-67.5)" fill="#ffe4de"/>
        </g>
      </g>
      <g id="Grupo_69219" data-name="Grupo 69219" transform="translate(15.621 56.501)">
        <g id="Grupo_69218" data-name="Grupo 69218" transform="translate(0 0)">
          <circle id="Elipse_4389" data-name="Elipse 4389" cx="1.097" cy="1.097" r="1.097" transform="translate(0 1.552) rotate(-45)" fill="#ffe4de"/>
        </g>
      </g>
      <g id="Grupo_69221" data-name="Grupo 69221" transform="translate(26.997 22.717)">
        <g id="Grupo_69220" data-name="Grupo 69220" transform="translate(0 0)">
          <circle id="Elipse_4390" data-name="Elipse 4390" cx="1.097" cy="1.097" r="1.097" transform="matrix(0.973, -0.23, 0.23, 0.973, 0, 0.504)" fill="#ffe4de"/>
        </g>
      </g>
      <g id="Grupo_69223" data-name="Grupo 69223" transform="translate(36.298 22.165)">
        <g id="Grupo_69222" data-name="Grupo 69222" transform="translate(0 0)">
          <circle id="Elipse_4391" data-name="Elipse 4391" cx="1.097" cy="1.097" r="1.097" transform="translate(0 1.552) rotate(-45)" fill="#ffe4de"/>
        </g>
      </g>
      <g id="Grupo_69225" data-name="Grupo 69225" transform="translate(45.534 20.634)">
        <g id="Grupo_69224" data-name="Grupo 69224" transform="translate(0 0)">
          <circle id="Elipse_4392" data-name="Elipse 4392" cx="1.097" cy="1.097" r="1.097" transform="translate(0 1.552) rotate(-45)" fill="#ffe4de"/>
        </g>
      </g>
      <g id="Grupo_69227" data-name="Grupo 69227" transform="translate(47.703 30.796)">
        <g id="Grupo_69226" data-name="Grupo 69226">
          <circle id="Elipse_4393" data-name="Elipse 4393" cx="1.097" cy="1.097" r="1.097" fill="#ffe4de"/>
        </g>
      </g>
      <g id="Grupo_69229" data-name="Grupo 69229" transform="translate(35.655 49.356)">
        <g id="Grupo_69228" data-name="Grupo 69228">
          <circle id="Elipse_4394" data-name="Elipse 4394" cx="1.097" cy="1.097" r="1.097" fill="#ffe4de"/>
        </g>
      </g>
      <g id="Grupo_69231" data-name="Grupo 69231" transform="translate(39.76 56.733)">
        <g id="Grupo_69230" data-name="Grupo 69230" transform="translate(0 0)">
          <circle id="Elipse_4395" data-name="Elipse 4395" cx="1.097" cy="1.097" r="1.097" transform="matrix(0.973, -0.23, 0.23, 0.973, 0, 0.504)" fill="#ffe4de"/>
        </g>
      </g>
      <g id="Grupo_69233" data-name="Grupo 69233" transform="translate(38.774 68.984)">
        <g id="Grupo_69232" data-name="Grupo 69232" transform="translate(0 0)">
          <circle id="Elipse_4396" data-name="Elipse 4396" cx="1.097" cy="1.097" r="1.097" transform="translate(0 1.552) rotate(-45)" fill="#ffe4de"/>
        </g>
      </g>
      <g id="Grupo_69235" data-name="Grupo 69235" transform="translate(35.974 82.052)">
        <g id="Grupo_69234" data-name="Grupo 69234" transform="translate(0 0)">
          <circle id="Elipse_4397" data-name="Elipse 4397" cx="1.097" cy="1.097" r="1.097" transform="matrix(0.987, -0.16, 0.16, 0.987, 0, 0.352)" fill="#ffe4de"/>
        </g>
      </g>
      <g id="Grupo_69237" data-name="Grupo 69237" transform="translate(35.974 74.962)">
        <g id="Grupo_69236" data-name="Grupo 69236" transform="translate(0 0)">
          <circle id="Elipse_4398" data-name="Elipse 4398" cx="1.097" cy="1.097" r="1.097" transform="matrix(0.987, -0.16, 0.16, 0.987, 0, 0.352)" fill="#ffe4de"/>
        </g>
      </g>
      <g id="Grupo_69239" data-name="Grupo 69239" transform="translate(31.566 25.42)">
        <g id="Grupo_69238" data-name="Grupo 69238" transform="translate(0 0)">
          <circle id="Elipse_4399" data-name="Elipse 4399" cx="1.097" cy="1.097" r="1.097" transform="translate(0 1.552) rotate(-45)" fill="#ffe4de"/>
        </g>
      </g>
      <g id="Grupo_69241" data-name="Grupo 69241" transform="translate(38.313 28.807)">
        <g id="Grupo_69240" data-name="Grupo 69240" transform="translate(0 0)">
          <circle id="Elipse_4400" data-name="Elipse 4400" cx="1.097" cy="1.097" r="1.097" transform="translate(0 0.504) rotate(-13.283)" fill="#ffe4de"/>
        </g>
      </g>
      <g id="Grupo_69243" data-name="Grupo 69243" transform="translate(42.604 34.862)">
        <g id="Grupo_69242" data-name="Grupo 69242" transform="translate(0 0)">
          <circle id="Elipse_4401" data-name="Elipse 4401" cx="1.097" cy="1.097" r="1.097" transform="matrix(0.987, -0.16, 0.16, 0.987, 0, 0.352)" fill="#ffe4de"/>
        </g>
      </g>
      <g id="Grupo_69245" data-name="Grupo 69245" transform="translate(43.64 47.127)">
        <g id="Grupo_69244" data-name="Grupo 69244" transform="translate(0 0)">
          <circle id="Elipse_4402" data-name="Elipse 4402" cx="1.097" cy="1.097" r="1.097" transform="translate(0 0.504) rotate(-13.283)" fill="#ffe4de"/>
        </g>
      </g>
      <g id="Grupo_69247" data-name="Grupo 69247" transform="translate(25.779 53.186)">
        <g id="Grupo_69246" data-name="Grupo 69246">
          <circle id="Elipse_4403" data-name="Elipse 4403" cx="1.097" cy="1.097" r="1.097" fill="#ffe4de"/>
        </g>
      </g>
      <g id="Grupo_69249" data-name="Grupo 69249" transform="translate(19.928 63.494)">
        <g id="Grupo_69248" data-name="Grupo 69248" transform="translate(0 0)">
          <circle id="Elipse_4404" data-name="Elipse 4404" cx="1.097" cy="1.097" r="1.097" transform="matrix(0.987, -0.16, 0.16, 0.987, 0, 0.352)" fill="#ffe4de"/>
        </g>
      </g>
      <g id="Grupo_69251" data-name="Grupo 69251" transform="translate(40.276 63.05)">
        <g id="Grupo_69250" data-name="Grupo 69250" transform="translate(0 0)">
          <circle id="Elipse_4405" data-name="Elipse 4405" cx="1.097" cy="1.097" r="1.097" transform="translate(0 1.552) rotate(-45)" fill="#ffe4de"/>
        </g>
      </g>
      <g id="Grupo_69253" data-name="Grupo 69253" transform="translate(14.517 61.087)">
        <g id="Grupo_69252" data-name="Grupo 69252" transform="translate(0 0)">
          <circle id="Elipse_4406" data-name="Elipse 4406" cx="1.097" cy="1.097" r="1.097" transform="matrix(0.973, -0.23, 0.23, 0.973, 0, 0.504)" fill="#ffe4de"/>
        </g>
      </g>
      <g id="Grupo_69255" data-name="Grupo 69255" transform="translate(20.732 70.081)">
        <g id="Grupo_69254" data-name="Grupo 69254" transform="translate(0 0)">
          <circle id="Elipse_4407" data-name="Elipse 4407" cx="1.097" cy="1.097" r="1.097" transform="translate(0 1.552) rotate(-45)" fill="#ffe4de"/>
        </g>
      </g>
      <g id="Grupo_69257" data-name="Grupo 69257" transform="translate(21.187 77.471)">
        <g id="Grupo_69256" data-name="Grupo 69256">
          <circle id="Elipse_4408" data-name="Elipse 4408" cx="1.097" cy="1.097" r="1.097" fill="#ffe4de"/>
        </g>
      </g>
      <g id="Grupo_69259" data-name="Grupo 69259" transform="translate(19.928 83.591)">
        <g id="Grupo_69258" data-name="Grupo 69258" transform="translate(0 0)">
          <circle id="Elipse_4409" data-name="Elipse 4409" cx="1.097" cy="1.097" r="1.097" transform="matrix(0.987, -0.16, 0.16, 0.987, 0, 0.352)" fill="#ffe4de"/>
        </g>
      </g>
      <g id="Grupo_69261" data-name="Grupo 69261" transform="translate(21.83 88.173)">
        <g id="Grupo_69260" data-name="Grupo 69260" transform="translate(0 0)">
          <circle id="Elipse_4410" data-name="Elipse 4410" cx="1.097" cy="1.097" r="1.097" transform="translate(0 1.552) rotate(-45)" fill="#ffe4de"/>
        </g>
      </g>
      <g id="Grupo_69263" data-name="Grupo 69263" transform="translate(28.78 86.027)">
        <g id="Grupo_69262" data-name="Grupo 69262" transform="translate(0 0)">
          <circle id="Elipse_4411" data-name="Elipse 4411" cx="1.097" cy="1.097" r="1.097" transform="matrix(0.973, -0.23, 0.23, 0.973, 0, 0.504)" fill="#ffe4de"/>
        </g>
      </g>
      <g id="Grupo_69265" data-name="Grupo 69265" transform="translate(28.78 90.599)">
        <g id="Grupo_69264" data-name="Grupo 69264" transform="translate(0 0)">
          <circle id="Elipse_4412" data-name="Elipse 4412" cx="1.097" cy="1.097" r="1.097" transform="matrix(0.973, -0.23, 0.23, 0.973, 0, 0.504)" fill="#ffe4de"/>
        </g>
      </g>
      <g id="Grupo_69267" data-name="Grupo 69267" transform="translate(23.382 95.549)">
        <g id="Grupo_69266" data-name="Grupo 69266">
          <circle id="Elipse_4413" data-name="Elipse 4413" cx="1.097" cy="1.097" r="1.097" fill="#ffe4de"/>
        </g>
      </g>
      <g id="Grupo_69269" data-name="Grupo 69269" transform="translate(28.78 102.171)">
        <g id="Grupo_69268" data-name="Grupo 69268" transform="translate(0 0)">
          <circle id="Elipse_4414" data-name="Elipse 4414" cx="1.097" cy="1.097" r="1.097" transform="matrix(0.973, -0.23, 0.23, 0.973, 0, 0.504)" fill="#ffe4de"/>
        </g>
      </g>
      <g id="Grupo_69271" data-name="Grupo 69271" transform="translate(29.414 114.376)">
        <g id="Grupo_69270" data-name="Grupo 69270">
          <circle id="Elipse_4415" data-name="Elipse 4415" cx="1.097" cy="1.097" r="1.097" fill="#ffe4de"/>
        </g>
      </g>
      <g id="Grupo_69273" data-name="Grupo 69273" transform="translate(24.72 120.137)">
        <g id="Grupo_69272" data-name="Grupo 69272">
          <circle id="Elipse_4416" data-name="Elipse 4416" cx="1.097" cy="1.097" r="1.097" fill="#ffe4de"/>
        </g>
      </g>
      <g id="Grupo_69275" data-name="Grupo 69275" transform="translate(13.821 107.559)">
        <g id="Grupo_69274" data-name="Grupo 69274" transform="translate(0 0)">
          <circle id="Elipse_4417" data-name="Elipse 4417" cx="1.097" cy="1.097" r="1.097" transform="matrix(0.987, -0.16, 0.16, 0.987, 0, 0.352)" fill="#ffe4de"/>
        </g>
      </g>
      <g id="Grupo_69277" data-name="Grupo 69277" transform="translate(11.565 116.76)">
        <g id="Grupo_69276" data-name="Grupo 69276" transform="translate(0 0)">
          <circle id="Elipse_4418" data-name="Elipse 4418" cx="1.097" cy="1.097" r="1.097" transform="translate(0 0.504) rotate(-13.283)" fill="#ffe4de"/>
        </g>
      </g>
      <g id="Grupo_69279" data-name="Grupo 69279" transform="translate(12.091 97.289)">
        <g id="Grupo_69278" data-name="Grupo 69278" transform="translate(0 0)">
          <circle id="Elipse_4419" data-name="Elipse 4419" cx="1.097" cy="1.097" r="1.097" transform="translate(0 1.552) rotate(-45)" fill="#ffe4de"/>
        </g>
      </g>
      <g id="Grupo_69281" data-name="Grupo 69281" transform="translate(7.358 92.412)">
        <g id="Grupo_69280" data-name="Grupo 69280" transform="translate(0 0)">
          <circle id="Elipse_4420" data-name="Elipse 4420" cx="1.097" cy="1.097" r="1.097" transform="translate(0 1.552) rotate(-45)" fill="#ffe4de"/>
        </g>
      </g>
      <g id="Grupo_69283" data-name="Grupo 69283" transform="translate(18.66 101.753)">
        <g id="Grupo_69282" data-name="Grupo 69282">
          <circle id="Elipse_4421" data-name="Elipse 4421" cx="1.097" cy="1.097" r="1.097" fill="#ffe4de"/>
        </g>
      </g>
      <g id="Grupo_69285" data-name="Grupo 69285" transform="translate(7.08 104.245)">
        <g id="Grupo_69284" data-name="Grupo 69284" transform="translate(0 0)">
          <circle id="Elipse_4422" data-name="Elipse 4422" cx="1.097" cy="1.097" r="1.097" transform="matrix(0.79, -0.613, 0.613, 0.79, 0, 1.346)" fill="#ffe4de"/>
        </g>
      </g>
      <g id="Grupo_69287" data-name="Grupo 69287" transform="translate(26.997 81.99)">
        <g id="Grupo_69286" data-name="Grupo 69286" transform="translate(0 0)">
          <circle id="Elipse_4423" data-name="Elipse 4423" cx="1.097" cy="1.097" r="1.097" transform="matrix(0.973, -0.23, 0.23, 0.973, 0, 0.504)" fill="#ffe4de"/>
        </g>
      </g>
      <g id="Grupo_69289" data-name="Grupo 69289" transform="translate(33.124 92.314)">
        <g id="Grupo_69288" data-name="Grupo 69288" transform="translate(0 0)">
          <circle id="Elipse_4424" data-name="Elipse 4424" cx="1.097" cy="1.097" r="1.097" transform="translate(0 2.028) rotate(-67.5)" fill="#ffe4de"/>
        </g>
      </g>
      <g id="Grupo_69291" data-name="Grupo 69291" transform="translate(25.576 109.504)">
        <g id="Grupo_69290" data-name="Grupo 69290">
          <circle id="Elipse_4425" data-name="Elipse 4425" cx="1.097" cy="1.097" r="1.097" fill="#ffe4de"/>
        </g>
      </g>
      <g id="Grupo_69293" data-name="Grupo 69293" transform="translate(18.77 115.663)">
        <g id="Grupo_69292" data-name="Grupo 69292" transform="translate(0 0)">
          <circle id="Elipse_4426" data-name="Elipse 4426" cx="1.097" cy="1.097" r="1.097" transform="matrix(0.973, -0.23, 0.23, 0.973, 0, 0.504)" fill="#ffe4de"/>
        </g>
      </g>
      <g id="Grupo_69295" data-name="Grupo 69295" transform="translate(6.261 111.829)">
        <g id="Grupo_69294" data-name="Grupo 69294" transform="translate(0 0)">
          <circle id="Elipse_4427" data-name="Elipse 4427" cx="1.097" cy="1.097" r="1.097" transform="translate(0 1.552) rotate(-45)" fill="#ffe4de"/>
        </g>
      </g>
      <g id="Grupo_69297" data-name="Grupo 69297" transform="translate(24.025 104.507)">
        <g id="Grupo_69296" data-name="Grupo 69296" transform="translate(0 0)">
          <circle id="Elipse_4428" data-name="Elipse 4428" cx="1.097" cy="1.097" r="1.097" transform="translate(0 1.552) rotate(-45)" fill="#ffe4de"/>
        </g>
      </g>
      <g id="Grupo_69299" data-name="Grupo 69299" transform="translate(12.662 86.027)">
        <g id="Grupo_69298" data-name="Grupo 69298" transform="translate(0 0)">
          <circle id="Elipse_4429" data-name="Elipse 4429" cx="1.097" cy="1.097" r="1.097" transform="matrix(0.973, -0.23, 0.23, 0.973, 0, 0.504)" fill="#ffe4de"/>
        </g>
      </g>
      <g id="Grupo_69301" data-name="Grupo 69301" transform="translate(16.718 91.465)">
        <g id="Grupo_69300" data-name="Grupo 69300" transform="translate(0 0)">
          <circle id="Elipse_4430" data-name="Elipse 4430" cx="1.097" cy="1.097" r="1.097" transform="translate(0 1.552) rotate(-45)" fill="#ffe4de"/>
        </g>
      </g>
      <g id="Grupo_69303" data-name="Grupo 69303" transform="translate(12.323 68.318)">
        <g id="Grupo_69302" data-name="Grupo 69302" transform="translate(0 0)">
          <circle id="Elipse_4431" data-name="Elipse 4431" cx="1.097" cy="1.097" r="1.097" transform="matrix(0.973, -0.23, 0.23, 0.973, 0, 0.504)" fill="#ffe4de"/>
        </g>
      </g>
      <g id="Grupo_69305" data-name="Grupo 69305" transform="translate(38.313 40.132)">
        <g id="Grupo_69304" data-name="Grupo 69304" transform="translate(0 0)">
          <circle id="Elipse_4432" data-name="Elipse 4432" cx="1.097" cy="1.097" r="1.097" transform="translate(0 0.504) rotate(-13.283)" fill="#ffe4de"/>
        </g>
      </g>
      <g id="Grupo_69307" data-name="Grupo 69307" transform="translate(29.877 47.428)">
        <g id="Grupo_69306" data-name="Grupo 69306" transform="translate(0 0)">
          <circle id="Elipse_4433" data-name="Elipse 4433" cx="1.097" cy="1.097" r="1.097" transform="translate(0 0.504) rotate(-13.283)" fill="#ffe4de"/>
        </g>
      </g>
      <g id="Grupo_69309" data-name="Grupo 69309" transform="translate(31.284 53.327)">
        <g id="Grupo_69308" data-name="Grupo 69308" transform="translate(0 0)">
          <circle id="Elipse_4434" data-name="Elipse 4434" cx="1.097" cy="1.097" r="1.097" transform="translate(0 0.504) rotate(-13.283)" fill="#ffe4de"/>
        </g>
      </g>
      <g id="Grupo_69311" data-name="Grupo 69311" transform="translate(41.556 24.323)">
        <g id="Grupo_69310" data-name="Grupo 69310" transform="translate(0 0)">
          <circle id="Elipse_4435" data-name="Elipse 4435" cx="1.097" cy="1.097" r="1.097" transform="translate(0 1.552) rotate(-45)" fill="#ffe4de"/>
        </g>
      </g>
      <g id="Grupo_69313" data-name="Grupo 69313" transform="translate(29.877 33.245)">
        <g id="Grupo_69312" data-name="Grupo 69312" transform="translate(0 0)">
          <circle id="Elipse_4436" data-name="Elipse 4436" cx="1.097" cy="1.097" r="1.097" transform="translate(0 0.504) rotate(-13.283)" fill="#ffe4de"/>
        </g>
      </g>
      <g id="Grupo_69315" data-name="Grupo 69315" transform="translate(28.094 59.651)">
        <g id="Grupo_69314" data-name="Grupo 69314" transform="translate(0 0)">
          <circle id="Elipse_4437" data-name="Elipse 4437" cx="1.097" cy="1.097" r="1.097" transform="matrix(0.973, -0.23, 0.23, 0.973, 0, 0.504)" fill="#ffe4de"/>
        </g>
      </g>
      <g id="Grupo_69317" data-name="Grupo 69317" transform="translate(21.83 57.599)">
        <g id="Grupo_69316" data-name="Grupo 69316" transform="translate(0 0)">
          <circle id="Elipse_4438" data-name="Elipse 4438" cx="1.097" cy="1.097" r="1.097" transform="translate(0 1.552) rotate(-45)" fill="#ffe4de"/>
        </g>
      </g>
      <g id="Grupo_69319" data-name="Grupo 69319" transform="translate(35.038 60.213)">
        <g id="Grupo_69318" data-name="Grupo 69318">
          <circle id="Elipse_4439" data-name="Elipse 4439" cx="1.097" cy="1.097" r="1.097" fill="#ffe4de"/>
        </g>
      </g>
      <g id="Grupo_69321" data-name="Grupo 69321" transform="translate(29.877 67.113)">
        <g id="Grupo_69320" data-name="Grupo 69320" transform="translate(0 0)">
          <circle id="Elipse_4440" data-name="Elipse 4440" cx="1.097" cy="1.097" r="1.097" transform="translate(0 0.504) rotate(-13.283)" fill="#ffe4de"/>
        </g>
      </g>
      <g id="Grupo_69323" data-name="Grupo 69323" transform="translate(28.858 74.67)">
        <g id="Grupo_69322" data-name="Grupo 69322" transform="translate(0 0)">
          <circle id="Elipse_4441" data-name="Elipse 4441" cx="1.097" cy="1.097" r="1.097" transform="translate(0 1.552) rotate(-45)" fill="#ffe4de"/>
        </g>
      </g>
      <g id="Grupo_69325" data-name="Grupo 69325" transform="translate(12.43 78.214)">
        <g id="Grupo_69324" data-name="Grupo 69324" transform="translate(0 0)">
          <circle id="Elipse_4442" data-name="Elipse 4442" cx="1.097" cy="1.097" r="1.097" transform="translate(0 1.552) rotate(-45)" fill="#ffe4de"/>
        </g>
      </g>
      <g id="Grupo_69327" data-name="Grupo 69327" transform="translate(22.493 35.785)">
        <g id="Grupo_69326" data-name="Grupo 69326" transform="translate(0 0)">
          <circle id="Elipse_4443" data-name="Elipse 4443" cx="1.097" cy="1.097" r="1.097" transform="translate(0 2.028) rotate(-67.5)" fill="#ffe4de"/>
        </g>
      </g>
      <g id="Grupo_69329" data-name="Grupo 69329" transform="translate(24.459 42.327)">
        <g id="Grupo_69328" data-name="Grupo 69328" transform="translate(0 0)">
          <circle id="Elipse_4444" data-name="Elipse 4444" cx="1.097" cy="1.097" r="1.097" transform="translate(0 0.504) rotate(-13.283)" fill="#ffe4de"/>
        </g>
      </g>
      <g id="Grupo_69331" data-name="Grupo 69331" transform="translate(31.797 19.311)">
        <g id="Grupo_69330" data-name="Grupo 69330" transform="translate(0 0)">
          <circle id="Elipse_4445" data-name="Elipse 4445" cx="1.097" cy="1.097" r="1.097" transform="translate(0 0.504) rotate(-13.283)" fill="#ffe4de"/>
        </g>
      </g>
      <g id="Grupo_69333" data-name="Grupo 69333" transform="translate(49.218 20.108)">
        <g id="Grupo_69332" data-name="Grupo 69332">
          <path id="Trazado_106290" data-name="Trazado 106290" d="M2744.948,723.693c-11.364,11.581-25.606,46.567-25.606,46.567,3.073-18.845,15.131-47.924,15.3-48.324A27.9,27.9,0,0,0,2744.948,723.693Z" transform="translate(-2719.341 -721.936)" fill="#ffc6b8"/>
        </g>
      </g>
    </g>
    <g id="Grupo_69361" data-name="Grupo 69361" transform="translate(152.951 609.773)">
      <g id="Grupo_69336" data-name="Grupo 69336" transform="translate(0 15.109)">
        <g id="Grupo_69335" data-name="Grupo 69335">
          <path id="Trazado_106291" data-name="Trazado 106291" d="M196.637,1186.133h-7.705a46.492,46.492,0,0,1-10.967-12.92s0,0,0-.008c-3.017-5.373-5.116-12.121-3.712-19.669,3.491-18.763-18.55-24.069-14.074-46.881,4.361-22.219-6.642-30.869-7.223-31.308a142.543,142.543,0,0,1,11.611,8.82c9.749,8.184,22.155,20.787,22.61,32.221.866,21.634,3.87,24.014,10.584,37.147C206.351,1170.351,196.637,1186.133,196.637,1186.133Z" transform="translate(-152.951 -1075.348)" fill="#25ced1"/>
        </g>
      </g>
      <g id="Grupo_69338" data-name="Grupo 69338" transform="translate(7.281 22.009)">
        <g id="Grupo_69337" data-name="Grupo 69337">
          <path id="Trazado_106292" data-name="Trazado 106292" d="M244.128,1234.568a221.35,221.35,0,0,0-4.5-36.2c-3.863-18.884-11.907-45.915-28.294-67.45l.315-.239a140.021,140.021,0,0,1,18.561,33.874,206.829,206.829,0,0,1,9.808,33.744,221.75,221.75,0,0,1,4.508,36.262Z" transform="translate(-211.332 -1130.681)" fill="#006d77"/>
        </g>
      </g>
      <g id="Grupo_69340" data-name="Grupo 69340" transform="translate(0 15.109)">
        <g id="Grupo_69339" data-name="Grupo 69339">
          <path id="Trazado_106293" data-name="Trazado 106293" d="M174.248,1153.536c3.491-18.763-18.55-24.069-14.074-46.881,4.361-22.219-6.642-30.869-7.223-31.308a142.543,142.543,0,0,1,11.611,8.82,46.378,46.378,0,0,1,2.171,14.248c.091,15.359-2,19.285,2.159,28.584s7.891,16.786,6.425,24.82a36.172,36.172,0,0,0,2.645,21.385C174.944,1167.832,172.845,1161.084,174.248,1153.536Z" transform="translate(-152.951 -1075.348)" fill="#61fcff"/>
        </g>
      </g>
      <g id="Grupo_69342" data-name="Grupo 69342" transform="translate(10.951 0)">
        <g id="Grupo_69341" data-name="Grupo 69341">
          <path id="Trazado_106294" data-name="Trazado 106294" d="M254.587,973.211s-3.5-22.063-11.815-18.652S254.587,973.211,254.587,973.211Z" transform="translate(-240.758 -954.201)" fill="#25ced1"/>
        </g>
      </g>
      <g id="Grupo_69344" data-name="Grupo 69344" transform="translate(18.397 8.984)">
        <g id="Grupo_69343" data-name="Grupo 69343">
          <path id="Trazado_106295" data-name="Trazado 106295" d="M325.271,1143.155l-.4-.012a361.562,361.562,0,0,0-2.13-45.1c-2.5-22.576-8.4-53.317-22.276-71.566l.315-.239c6.154,8.094,11.27,19.281,15.207,33.248a241.744,241.744,0,0,1,7.148,38.519A361.993,361.993,0,0,1,325.271,1143.155Z" transform="translate(-300.47 -1026.24)" fill="#006d77"/>
        </g>
      </g>
      <g id="Grupo_69346" data-name="Grupo 69346" transform="translate(7.318 69.703)">
        <g id="Grupo_69345" data-name="Grupo 69345">
          <path id="Trazado_106296" data-name="Trazado 106296" d="M242.738,1569.3a90.865,90.865,0,0,0-5.364-20.136c-4-10.367-11.705-24.983-25.745-35.742l.24-.314a74.622,74.622,0,0,1,16.415,17.61,96.028,96.028,0,0,1,14.846,38.538Z" transform="translate(-211.629 -1513.111)" fill="#006d77"/>
        </g>
      </g>
      <g id="Grupo_69348" data-name="Grupo 69348" transform="translate(4.257 66.679)">
        <g id="Grupo_69347" data-name="Grupo 69347">
          <circle id="Elipse_4446" data-name="Elipse 4446" cx="3.181" cy="3.181" r="3.181" fill="#ff8a5b"/>
        </g>
      </g>
      <g id="Grupo_69350" data-name="Grupo 69350" transform="translate(11.889 84.144)">
        <g id="Grupo_69349" data-name="Grupo 69349">
          <path id="Trazado_106297" data-name="Trazado 106297" d="M262.776,1636.86c-.062-.072-6.26-7.168-14.5-7.559l.019-.395c8.41.4,14.716,7.623,14.778,7.7Z" transform="translate(-248.279 -1628.907)" fill="#006d77"/>
        </g>
      </g>
      <g id="Grupo_69352" data-name="Grupo 69352" transform="translate(8.066 81.788)">
        <g id="Grupo_69351" data-name="Grupo 69351" transform="translate(0 0)">
          <circle id="Elipse_4447" data-name="Elipse 4447" cx="2.226" cy="2.226" r="2.226" transform="matrix(0.16, -0.987, 0.987, 0.16, 0, 4.394)" fill="#ea526f"/>
        </g>
      </g>
      <g id="Grupo_69354" data-name="Grupo 69354" transform="translate(18.06 69.773)">
        <g id="Grupo_69353" data-name="Grupo 69353">
          <path id="Trazado_106298" data-name="Trazado 106298" d="M299.764,1526.611c-.15-.305-3.652-7.537-1.018-12.937l.355.173c-2.551,5.227.981,12.516,1.017,12.589Z" transform="translate(-297.767 -1513.674)" fill="#006d77"/>
        </g>
      </g>
      <g id="Grupo_69356" data-name="Grupo 69356" transform="translate(17.046 65.907)">
        <g id="Grupo_69355" data-name="Grupo 69355" transform="translate(0 0)">
          <circle id="Elipse_4448" data-name="Elipse 4448" cx="2.185" cy="2.185" r="2.185" transform="translate(0 4.253) rotate(-76.717)" fill="#ea526f"/>
        </g>
      </g>
      <g id="Grupo_69358" data-name="Grupo 69358" transform="translate(16.162 100.307)">
        <g id="Grupo_69357" data-name="Grupo 69357">
          <path id="Trazado_106299" data-name="Trazado 106299" d="M303.551,1784.095s-3.518-19.3-21-25.587a50.219,50.219,0,0,0,19.19,25.587Z" transform="translate(-282.549 -1758.508)" fill="#006d77"/>
        </g>
      </g>
      <g id="Grupo_69360" data-name="Grupo 69360" transform="translate(12.844 113.1)">
        <g id="Grupo_69359" data-name="Grupo 69359">
          <path id="Trazado_106300" data-name="Trazado 106300" d="M280.263,1873.884s-2.372-12.26-24.32-12.793c0,0,9.075,10.075,22.508,12.793Z" transform="translate(-255.943 -1861.091)" fill="#25ced1"/>
        </g>
      </g>
    </g>
    <g id="Grupo_69388" data-name="Grupo 69388" transform="translate(432.39 617.565)">
      <g id="Grupo_69363" data-name="Grupo 69363" transform="translate(0 14.173)">
        <g id="Grupo_69362" data-name="Grupo 69362">
          <path id="Trazado_106301" data-name="Trazado 106301" d="M2398,1234.263h7.229a43.612,43.612,0,0,0,10.288-12.12s0,0,0-.007a27.168,27.168,0,0,0,3.483-18.451c-3.275-17.6,17.4-22.579,13.2-43.979-4.091-20.843,6.231-28.958,6.776-29.37a133.71,133.71,0,0,0-10.893,8.274c-9.146,7.677-20.784,19.5-21.21,30.227-.812,20.295-3.631,22.527-9.929,34.848C2388.886,1219.457,2398,1234.263,2398,1234.263Z" transform="translate(-2393.618 -1130.335)" fill="#25ced1"/>
        </g>
      </g>
      <g id="Grupo_69365" data-name="Grupo 69365" transform="translate(7.395 20.647)">
        <g id="Grupo_69364" data-name="Grupo 69364">
          <path id="Trazado_106302" data-name="Trazado 106302" d="M2453.287,1279.7l-.371-.006a208.055,208.055,0,0,1,4.229-34.018,194.026,194.026,0,0,1,9.2-31.656,131.35,131.35,0,0,1,17.412-31.777l.3.224c-15.374,20.2-22.921,45.565-26.544,63.283A207.6,207.6,0,0,0,2453.287,1279.7Z" transform="translate(-2452.916 -1182.243)" fill="#006d77"/>
        </g>
      </g>
      <g id="Grupo_69367" data-name="Grupo 69367" transform="translate(21.9 14.173)">
        <g id="Grupo_69366" data-name="Grupo 69366">
          <path id="Trazado_106303" data-name="Trazado 106303" d="M2572.707,1203.684c-3.275-17.6,17.4-22.579,13.2-43.979-4.091-20.843,6.23-28.958,6.776-29.37a133.758,133.758,0,0,0-10.893,8.274,43.512,43.512,0,0,0-2.036,13.366c-.085,14.409,1.877,18.091-2.025,26.814s-7.4,15.748-6.027,23.284a33.93,33.93,0,0,1-2.481,20.061A27.169,27.169,0,0,0,2572.707,1203.684Z" transform="translate(-2569.224 -1130.335)" fill="#61fcff"/>
        </g>
      </g>
      <g id="Grupo_69369" data-name="Grupo 69369" transform="translate(22.116 0)">
        <g id="Grupo_69368" data-name="Grupo 69368">
          <path id="Trazado_106304" data-name="Trazado 106304" d="M2570.958,1034.519s3.283-20.7,11.084-17.5S2570.958,1034.519,2570.958,1034.519Z" transform="translate(-2570.958 -1016.686)" fill="#25ced1"/>
        </g>
      </g>
      <g id="Grupo_69371" data-name="Grupo 69371" transform="translate(4.785 8.428)">
        <g id="Grupo_69370" data-name="Grupo 69370">
          <path id="Trazado_106305" data-name="Trazado 106305" d="M2432.038,1193.945a339.525,339.525,0,0,1,2-42.354,226.8,226.8,0,0,1,6.706-36.135c3.693-13.1,8.492-23.6,14.265-31.19l.3.224c-13.016,17.12-18.549,45.961-20.9,67.141a339.13,339.13,0,0,0-2,42.3Z" transform="translate(-2431.985 -1084.267)" fill="#006d77"/>
        </g>
      </g>
      <g id="Grupo_69373" data-name="Grupo 69373" transform="translate(8.945 65.389)">
        <g id="Grupo_69372" data-name="Grupo 69372">
          <path id="Trazado_106306" data-name="Trazado 106306" d="M2465.713,1593.714l-.368-.041a90.072,90.072,0,0,1,13.927-36.152,70,70,0,0,1,15.4-16.52l.226.294c-13.171,10.093-20.4,23.8-24.152,33.529A85.274,85.274,0,0,0,2465.713,1593.714Z" transform="translate(-2465.345 -1541.001)" fill="#006d77"/>
        </g>
      </g>
      <g id="Grupo_69375" data-name="Grupo 69375" transform="translate(35.4 62.552)">
        <g id="Grupo_69374" data-name="Grupo 69374">
          <circle id="Elipse_4449" data-name="Elipse 4449" cx="2.984" cy="2.984" r="2.984" fill="#ff8a5b"/>
        </g>
      </g>
      <g id="Grupo_69377" data-name="Grupo 69377" transform="translate(20.328 78.936)">
        <g id="Grupo_69376" data-name="Grupo 69376">
          <path id="Trazado_106307" data-name="Trazado 106307" d="M2556.9,1657.089l-.281-.242c.059-.068,5.974-6.845,13.864-7.219l.018.371C2562.768,1650.366,2556.958,1657.022,2556.9,1657.089Z" transform="translate(-2556.619 -1649.628)" fill="#006d77"/>
        </g>
      </g>
      <g id="Grupo_69379" data-name="Grupo 69379" transform="translate(33.313 77.033)">
        <g id="Grupo_69378" data-name="Grupo 69378">
          <circle id="Elipse_4450" data-name="Elipse 4450" cx="2.088" cy="2.088" r="2.088" fill="#ea526f"/>
        </g>
      </g>
      <g id="Grupo_69381" data-name="Grupo 69381" transform="translate(26.214 65.454)">
        <g id="Grupo_69380" data-name="Grupo 69380">
          <path id="Trazado_106308" data-name="Trazado 106308" d="M2604.146,1553.666l-.333-.164c.034-.068,3.345-6.909.954-11.81l.333-.163C2607.572,1546.594,2604.287,1553.379,2604.146,1553.666Z" transform="translate(-2603.813 -1541.529)" fill="#006d77"/>
        </g>
      </g>
      <g id="Grupo_69383" data-name="Grupo 69383" transform="translate(24.856 62.244)">
        <g id="Grupo_69382" data-name="Grupo 69382">
          <circle id="Elipse_4451" data-name="Elipse 4451" cx="2.05" cy="2.05" r="2.05" fill="#ea526f"/>
        </g>
      </g>
      <g id="Grupo_69385" data-name="Grupo 69385" transform="translate(10.497 94.098)">
        <g id="Grupo_69384" data-name="Grupo 69384">
          <path id="Trazado_106309" data-name="Trazado 106309" d="M2477.792,1795.21s3.3-18.1,19.7-24a47.11,47.11,0,0,1-18,24Z" transform="translate(-2477.792 -1771.207)" fill="#006d77"/>
        </g>
      </g>
      <g id="Grupo_69387" data-name="Grupo 69387" transform="translate(10.497 106.1)">
        <g id="Grupo_69386" data-name="Grupo 69386">
          <path id="Trazado_106310" data-name="Trazado 106310" d="M2477.792,1879.443s2.225-11.5,22.815-12c0,0-8.513,9.451-21.115,12Z" transform="translate(-2477.792 -1867.441)" fill="#25ced1"/>
        </g>
      </g>
    </g>
    <g id="Grupo_69395" data-name="Grupo 69395" transform="translate(338.869 565.407)">
      <g id="Grupo_69390" data-name="Grupo 69390" transform="translate(0 0.026)">
        <g id="Grupo_69389" data-name="Grupo 69389">
          <path id="Trazado_106311" data-name="Trazado 106311" d="M1647.129,611.186a3.4,3.4,0,0,1-.881-6.68l21.356-5.728a3.4,3.4,0,0,1,1.761,6.563l-21.356,5.728A3.388,3.388,0,0,1,1647.129,611.186Zm21.353-12.25a3.112,3.112,0,0,0-.808.107l-21.356,5.728a3.124,3.124,0,1,0,1.619,6.034l21.356-5.728a3.133,3.133,0,0,0,2.208-3.826h0a3.14,3.14,0,0,0-3.019-2.315Z" transform="translate(-1643.73 -598.661)" fill="#86ddf9"/>
        </g>
      </g>
      <g id="Grupo_69392" data-name="Grupo 69392" transform="translate(21.449 0)">
        <g id="Grupo_69391" data-name="Grupo 69391">
          <path id="Trazado_106312" data-name="Trazado 106312" d="M1819.107,605.253a3.4,3.4,0,0,1-.875-6.681h0a3.4,3.4,0,1,1,1.761,6.563A3.422,3.422,0,0,1,1819.107,605.253Zm-.8-6.416a3.123,3.123,0,1,0,2.37.311,3.127,3.127,0,0,0-2.37-.311Z" transform="translate(-1815.714 -598.455)" fill="#86ddf9"/>
        </g>
      </g>
      <g id="Grupo_69394" data-name="Grupo 69394" transform="translate(0.002 5.083)">
        <g id="Grupo_69393" data-name="Grupo 69393">
          <path id="Trazado_106313" data-name="Trazado 106313" d="M1647.154,646.674a3.417,3.417,0,0,1-1.85-.545,3.358,3.358,0,0,1-1.511-2.3,3.485,3.485,0,0,1,2.573-3.857h0l2.836-.761.676,2.521a.476.476,0,0,1-.337.583l-3.017.809a.313.313,0,0,0-.221.383.317.317,0,0,0,.383.221l3.017-.809a.477.477,0,0,1,.583.336l.675,2.518-2.935.787A3.376,3.376,0,0,1,1647.154,646.674Zm-.717-6.439a3.208,3.208,0,0,0-2.374,3.547,3.089,3.089,0,0,0,1.39,2.116,3.133,3.133,0,0,0,2.5.4l2.671-.716-.6-2.253a.2.2,0,0,0-.247-.143l-3.017.809a.587.587,0,0,1-.3-1.133l3.017-.809a.2.2,0,0,0,.143-.248l-.6-2.256-2.572.69Z" transform="translate(-1643.75 -639.21)" fill="#86ddf9"/>
        </g>
      </g>
    </g>
    <g id="Grupo_69400" data-name="Grupo 69400" transform="translate(425.432 565.958)">
      <g id="Grupo_69397" data-name="Grupo 69397" transform="translate(0 0)">
        <g id="Grupo_69396" data-name="Grupo 69396">
          <path id="Trazado_106314" data-name="Trazado 106314" d="M2351.959,607.734A7.27,7.27,0,1,0,2347.51,617,7.273,7.273,0,0,0,2351.959,607.734Zm-9.491.223a1.113,1.113,0,1,1-.681,1.419A1.112,1.112,0,0,1,2342.468,607.957Zm3.315-1.165a1.113,1.113,0,1,1-.681,1.419A1.111,1.111,0,0,1,2345.782,606.792Zm-1.365,6.706a1.113,1.113,0,1,1,.681-1.419A1.114,1.114,0,0,1,2344.417,613.5Zm1.9-1.846a1.113,1.113,0,1,1,1.419.681A1.112,1.112,0,0,1,2346.312,611.653Z" transform="translate(-2337.828 -602.873)" fill="none" stroke="#86ddf9" stroke-miterlimit="10" stroke-width="2.123"/>
        </g>
      </g>
      <g id="Grupo_69399" data-name="Grupo 69399" transform="translate(2.13 2.13)">
        <g id="Grupo_69398" data-name="Grupo 69398">
          <path id="Trazado_106315" data-name="Trazado 106315" d="M2364.9,623.388a5.141,5.141,0,1,0-3.145,6.553A5.141,5.141,0,0,0,2364.9,623.388Zm-8.163.935a1.113,1.113,0,1,1,1.419.681A1.114,1.114,0,0,1,2356.735,624.323Zm2.63,4.122a1.113,1.113,0,1,1,.681-1.419A1.114,1.114,0,0,1,2359.365,628.445Zm.685-5.286a1.113,1.113,0,1,1,1.419.681A1.113,1.113,0,0,1,2360.05,623.158Zm2.63,4.122a1.113,1.113,0,1,1,.681-1.419A1.114,1.114,0,0,1,2362.68,627.28Z" transform="translate(-2354.906 -619.948)" fill="none" stroke="#86ddf9" stroke-miterlimit="10" stroke-width="2.123"/>
        </g>
      </g>
    </g>
    <g id="Grupo_69405" data-name="Grupo 69405" transform="translate(270.216 566.118)">
      <g id="Grupo_69402" data-name="Grupo 69402" transform="translate(8.938 0)">
        <g id="Grupo_69401" data-name="Grupo 69401">
          <path id="Trazado_106316" data-name="Trazado 106316" d="M1166.7,608.576h-.283v-1.542a.466.466,0,0,1,.254-.409,1.4,1.4,0,0,0,.709-1.063,1.042,1.042,0,0,0-.5-.932,1.14,1.14,0,0,0-1.526.328.457.457,0,0,1-.337.148h-.107v-.283h.107a.173.173,0,0,0,.128-.056,1.424,1.424,0,0,1,1.9-.368,1.3,1.3,0,0,1,.617,1.182,1.67,1.67,0,0,1-.86,1.3.18.18,0,0,0-.1.159Z" transform="translate(-1164.908 -604.154)" fill="#86ddf9"/>
        </g>
      </g>
      <g id="Grupo_69404" data-name="Grupo 69404" transform="translate(0 4.28)">
        <g id="Grupo_69403" data-name="Grupo 69403">
          <path id="Trazado_106317" data-name="Trazado 106317" d="M1113.263,644.569h-18.885a1.143,1.143,0,0,1-.4-2.215l7.349-2.707a.544.544,0,0,0,.257-.2l.445-.628a.831.831,0,0,1,.677-.35h2.219a.831.831,0,0,1,.677.35l.445.628a.544.544,0,0,0,.257.2l7.349,2.707a1.143,1.143,0,0,1-.395,2.215Zm-10.552-5.814a.547.547,0,0,0-.446.231l-.445.628a.828.828,0,0,1-.39.3l-7.349,2.707a.859.859,0,0,0,.3,1.666h18.885a.859.859,0,0,0,.3-1.666l-7.349-2.707a.826.826,0,0,1-.39-.3l-.445-.628a.547.547,0,0,0-.446-.231Z" transform="translate(-1093.235 -638.472)" fill="#86ddf9"/>
        </g>
      </g>
    </g>
    <g id="Grupo_69535" data-name="Grupo 69535" transform="translate(187.815 579.752)">
      <g id="Grupo_69407" data-name="Grupo 69407" transform="translate(0 142.953)">
        <g id="Grupo_69406" data-name="Grupo 69406">
          <path id="Rectángulo_7192" data-name="Rectángulo 7192" d="M1.679,0h259.36a1.679,1.679,0,0,1,1.679,1.679v0A11.271,11.271,0,0,1,251.446,12.95H11.271A11.271,11.271,0,0,1,0,1.679v0A1.679,1.679,0,0,1,1.679,0Z" fill="#6d6875"/>
        </g>
      </g>
      <g id="Grupo_69409" data-name="Grupo 69409" transform="translate(6.975 0)">
        <g id="Grupo_69408" data-name="Grupo 69408">
          <path id="Trazado_106318" data-name="Trazado 106318" d="M737.007,737.763V856.431H488.43V737.763c0-13.414,10.445-24.284,23.335-24.284H713.672C726.562,713.478,737.007,724.349,737.007,737.763Z" transform="translate(-488.43 -713.478)" fill="#6d6875"/>
        </g>
      </g>
      <g id="Grupo_69411" data-name="Grupo 69411" transform="translate(15.697 9.077)">
        <g id="Grupo_69410" data-name="Grupo 69410">
          <path id="Trazado_106319" data-name="Trazado 106319" d="M789.5,801.469V920.137H558.367V801.469c0-8.382,6.559-15.208,14.613-15.208H774.888C782.941,786.261,789.5,793.087,789.5,801.469Z" transform="translate(-558.367 -786.261)" fill="#e3f3f9"/>
        </g>
      </g>
      <g id="Grupo_69413" data-name="Grupo 69413" transform="translate(24.422 18.152)">
        <g id="Grupo_69412" data-name="Grupo 69412">
          <path id="Trazado_106320" data-name="Trazado 106320" d="M842.011,865.162v4.876H628.327v-4.876a6.027,6.027,0,0,1,5.889-6.129H836.122A6.027,6.027,0,0,1,842.011,865.162Z" transform="translate(-628.327 -859.033)" fill="#c6eefa"/>
        </g>
      </g>
      <g id="Grupo_69415" data-name="Grupo 69415" transform="translate(24.423 29.159)">
        <g id="Grupo_69414" data-name="Grupo 69414">
          <rect id="Rectángulo_7193" data-name="Rectángulo 7193" width="213.686" height="113.796" fill="#fff"/>
        </g>
      </g>
      <g id="Grupo_69417" data-name="Grupo 69417" transform="translate(31.487 20.8)">
        <g id="Grupo_69416" data-name="Grupo 69416" transform="translate(0 0)">
          <circle id="Elipse_4452" data-name="Elipse 4452" cx="2.019" cy="2.019" r="2.019" transform="translate(0 2.855) rotate(-45)" fill="#fff"/>
        </g>
      </g>
      <g id="Grupo_69419" data-name="Grupo 69419" transform="translate(39.116 21.224)">
        <g id="Grupo_69418" data-name="Grupo 69418" transform="translate(0 0)">
          <circle id="Elipse_4453" data-name="Elipse 4453" cx="2.019" cy="2.019" r="2.019" transform="matrix(0.231, -0.973, 0.973, 0.231, 0, 3.928)" fill="#fff"/>
        </g>
      </g>
      <g id="Grupo_69421" data-name="Grupo 69421" transform="translate(45.898 20.8)">
        <g id="Grupo_69420" data-name="Grupo 69420" transform="translate(0 0)">
          <circle id="Elipse_4454" data-name="Elipse 4454" cx="2.019" cy="2.019" r="2.019" transform="translate(0 2.855) rotate(-45)" fill="#fff"/>
        </g>
      </g>
      <g id="Grupo_69443" data-name="Grupo 69443" transform="translate(38.385 39.671)">
        <g id="Grupo_69423" data-name="Grupo 69423">
          <g id="Grupo_69422" data-name="Grupo 69422">
            <path id="Trazado_106321" data-name="Trazado 106321" d="M745.2,1132.666l-4.907-98.412.2,0c.072,0,7.088.131,8.642-2.565l.068-.118,9.641,1.921-.011.167c0,.053-.364,5.354-.3,6.493l.01.171-4.366.723,4.473.442-.018.189a9.248,9.248,0,0,0,.48,3.521,6.051,6.051,0,0,0,5.242,4.152l.183.026-.021.184s-.887,7.78-1.2,10.484c-.315,2.742.005,9.925.386,10.856s2.077,6.087,2.712,8.4a81.682,81.682,0,0,1,1.558,11.348c.121,3.378,1.844,40.168,1.862,40.539l.009.189-.189.01Zm-4.507-98.025,4.868,97.624,23.892-1.244c-.135-2.875-1.736-37.1-1.853-40.354a81.068,81.068,0,0,0-1.545-11.261c-.632-2.3-2.313-7.418-2.7-8.357-.441-1.079-.714-8.407-.412-11.044.282-2.459,1.041-9.116,1.176-10.3a6.448,6.448,0,0,1-5.368-4.386,9.6,9.6,0,0,1-.509-3.483l-6.97-.689,6.876-1.139c-.028-1.294.235-5.315.294-6.2L749.4,1032C747.759,1034.539,741.89,1034.648,740.692,1034.641Z" transform="translate(-740.291 -1031.575)" fill="#6d6875"/>
          </g>
        </g>
        <g id="Grupo_69442" data-name="Grupo 69442" transform="translate(11.6 0.577)">
          <g id="Grupo_69425" data-name="Grupo 69425">
            <g id="Grupo_69424" data-name="Grupo 69424">
              <path id="Trazado_106322" data-name="Trazado 106322" d="M833.507,1036.911a.19.19,0,0,1-.19-.185l-.009-.329a.19.19,0,1,1,.381-.01l.009.329a.191.191,0,0,1-.185.2Z" transform="translate(-833.307 -1036.201)" fill="#6d6875"/>
            </g>
          </g>
          <g id="Grupo_69427" data-name="Grupo 69427" transform="translate(0.049 1.737)">
            <g id="Grupo_69426" data-name="Grupo 69426">
              <path id="Trazado_106323" data-name="Trazado 106323" d="M834.026,1055.436a.191.191,0,0,1-.19-.185l-.02-.7a.19.19,0,0,1,.185-.2.193.193,0,0,1,.2.185l.02.7a.19.19,0,0,1-.185.2Zm-.059-2.112a.19.19,0,0,1-.19-.185l-.02-.7a.19.19,0,0,1,.381-.011l.02.7a.19.19,0,0,1-.185.2Zm-.059-2.112a.191.191,0,0,1-.19-.185l-.02-.7a.19.19,0,0,1,.185-.2.2.2,0,0,1,.2.185l.02.7a.19.19,0,0,1-.185.2Z" transform="translate(-833.697 -1050.127)" fill="#6d6875"/>
            </g>
          </g>
          <g id="Grupo_69429" data-name="Grupo 69429" transform="translate(0.226 8.072)">
            <g id="Grupo_69428" data-name="Grupo 69428">
              <path id="Trazado_106324" data-name="Trazado 106324" d="M835.175,1103.135l-.056-2.01a.19.19,0,0,1,.185-.2.184.184,0,0,1,.058.007.192.192,0,0,1,.058,0,.19.19,0,0,1,.149.224Z" transform="translate(-835.118 -1100.929)" fill="#6d6875"/>
            </g>
          </g>
          <g id="Grupo_69431" data-name="Grupo 69431" transform="translate(0.568 2.033)">
            <g id="Grupo_69430" data-name="Grupo 69430">
              <path id="Trazado_106325" data-name="Trazado 106325" d="M838.054,1057.584a.191.191,0,0,1-.187-.228l.134-.672a.19.19,0,0,1,.373.075l-.134.672A.191.191,0,0,1,838.054,1057.584Zm.4-2.015a.188.188,0,0,1-.038,0,.19.19,0,0,1-.149-.224l.134-.672a.19.19,0,1,1,.373.075l-.134.672A.191.191,0,0,1,838.458,1055.569Zm.4-2.015a.186.186,0,0,1-.037,0,.19.19,0,0,1-.149-.224l.134-.672a.19.19,0,1,1,.373.075l-.134.672A.191.191,0,0,1,838.861,1053.554Z" transform="translate(-837.864 -1052.501)" fill="#6d6875"/>
            </g>
          </g>
          <g id="Grupo_69433" data-name="Grupo 69433" transform="translate(1.777 0.294)">
            <g id="Grupo_69432" data-name="Grupo 69432">
              <path id="Trazado_106326" data-name="Trazado 106326" d="M847.75,1039.338a.2.2,0,0,1-.037,0,.19.19,0,0,1-.149-.224l.11-.548.518.21a.19.19,0,1,1-.143.353l-.091-.037-.019.1A.19.19,0,0,1,847.75,1039.338Z" transform="translate(-847.56 -1038.562)" fill="#6d6875"/>
            </g>
          </g>
          <g id="Grupo_69435" data-name="Grupo 69435" transform="translate(3.554 1.063)">
            <g id="Grupo_69434" data-name="Grupo 69434">
              <path id="Trazado_106327" data-name="Trazado 106327" d="M864.812,1046.251a.19.19,0,0,1-.072-.014l-.7-.286a.19.19,0,0,1,.143-.353l.7.286a.19.19,0,0,1-.072.367Zm-2.111-.859a.19.19,0,0,1-.072-.014l-.7-.286a.191.191,0,0,1,.144-.353l.7.286a.19.19,0,0,1-.072.367Z" transform="translate(-861.807 -1044.726)" fill="#6d6875"/>
            </g>
          </g>
          <g id="Grupo_69437" data-name="Grupo 69437" transform="translate(7.777 2.78)">
            <g id="Grupo_69436" data-name="Grupo 69436">
              <path id="Trazado_106328" data-name="Trazado 106328" d="M896.058,1059.309a.2.2,0,0,1-.06-.01.19.19,0,0,1-.12-.241l.047-.142-.138-.056a.19.19,0,1,1,.143-.353l.472.192-.059.171s-.039.112-.1.309A.191.191,0,0,1,896.058,1059.309Z" transform="translate(-895.668 -1058.493)" fill="#6d6875"/>
            </g>
          </g>
          <g id="Grupo_69439" data-name="Grupo 69439" transform="translate(6.723 4.641)">
            <g id="Grupo_69438" data-name="Grupo 69438">
              <path id="Trazado_106329" data-name="Trazado 106329" d="M887.4,1076.682a.191.191,0,0,1-.185-.235c.058-.243.12-.487.183-.73a.19.19,0,0,1,.368.1c-.063.241-.124.483-.181.723A.191.191,0,0,1,887.4,1076.682Zm.584-2.17a.194.194,0,0,1-.054-.008.191.191,0,0,1-.129-.236c.074-.252.146-.493.216-.72a.19.19,0,1,1,.364.112c-.069.225-.141.465-.214.715A.191.191,0,0,1,887.987,1074.512Z" transform="translate(-887.213 -1073.413)" fill="#6d6875"/>
            </g>
          </g>
          <g id="Grupo_69441" data-name="Grupo 69441" transform="translate(6.364 8.996)">
            <g id="Grupo_69440" data-name="Grupo 69440">
              <path id="Trazado_106330" data-name="Trazado 106330" d="M884.527,1109.041l-.028,0a.19.19,0,0,1-.161-.216q.024-.161.052-.329a.19.19,0,1,1,.375.064c-.019.109-.036.216-.051.321A.19.19,0,0,1,884.527,1109.041Z" transform="translate(-884.336 -1108.335)" fill="#6d6875"/>
            </g>
          </g>
        </g>
      </g>
      <g id="Grupo_69465" data-name="Grupo 69465" transform="translate(171.97 39.894)">
        <g id="Grupo_69445" data-name="Grupo 69445">
          <g id="Grupo_69444" data-name="Grupo 69444">
            <path id="Trazado_106331" data-name="Trazado 106331" d="M1816.349,1134.456l-4.907-98.412.2,0c.071,0,7.088.131,8.641-2.565l.068-.118,9.641,1.921-.011.167c0,.053-.364,5.354-.3,6.493l.01.171-4.366.724,4.473.442-.018.189a9.253,9.253,0,0,0,.481,3.521,6.051,6.051,0,0,0,5.242,4.152l.183.026-.021.184s-.887,7.78-1.2,10.484c-.315,2.742.005,9.925.386,10.856.387.946,2.077,6.087,2.712,8.4a81.653,81.653,0,0,1,1.558,11.348c.122,3.378,1.845,40.168,1.862,40.539l.009.189-.189.01Zm-4.507-98.025,4.868,97.624,23.892-1.244c-.135-2.875-1.736-37.1-1.853-40.354a81.081,81.081,0,0,0-1.545-11.261c-.633-2.3-2.313-7.418-2.7-8.357-.441-1.078-.715-8.407-.412-11.044.282-2.459,1.041-9.116,1.176-10.3a6.448,6.448,0,0,1-5.368-4.386,9.6,9.6,0,0,1-.509-3.483l-6.97-.689,6.876-1.139c-.028-1.294.235-5.315.294-6.2l-9.049-1.8C1818.91,1036.329,1813.037,1036.434,1811.843,1036.431Z" transform="translate(-1811.442 -1033.365)" fill="#6d6875"/>
          </g>
        </g>
        <g id="Grupo_69464" data-name="Grupo 69464" transform="translate(11.6 0.577)">
          <g id="Grupo_69447" data-name="Grupo 69447">
            <g id="Grupo_69446" data-name="Grupo 69446">
              <path id="Trazado_106332" data-name="Trazado 106332" d="M1904.659,1038.7a.19.19,0,0,1-.19-.185l-.009-.329a.19.19,0,1,1,.381-.011l.009.329a.19.19,0,0,1-.185.2Z" transform="translate(-1904.459 -1037.992)" fill="#6d6875"/>
            </g>
          </g>
          <g id="Grupo_69449" data-name="Grupo 69449" transform="translate(0.049 1.737)">
            <g id="Grupo_69448" data-name="Grupo 69448">
              <path id="Trazado_106333" data-name="Trazado 106333" d="M1905.177,1057.225a.19.19,0,0,1-.19-.185l-.02-.7a.191.191,0,0,1,.381-.011l.02.7a.191.191,0,0,1-.185.2Zm-.059-2.112a.19.19,0,0,1-.19-.185l-.02-.7a.191.191,0,0,1,.381-.011l.02.7a.191.191,0,0,1-.185.2Zm-.059-2.112a.191.191,0,0,1-.19-.185l-.02-.7a.19.19,0,0,1,.381-.011l.02.7a.191.191,0,0,1-.185.2Z" transform="translate(-1904.849 -1051.917)" fill="#6d6875"/>
            </g>
          </g>
          <g id="Grupo_69451" data-name="Grupo 69451" transform="translate(0.226 8.072)">
            <g id="Grupo_69450" data-name="Grupo 69450">
              <path id="Trazado_106334" data-name="Trazado 106334" d="M1906.327,1104.926l-.056-2.01a.19.19,0,0,1,.185-.2.2.2,0,0,1,.058.007.191.191,0,0,1,.208.227Z" transform="translate(-1906.27 -1102.72)" fill="#6d6875"/>
            </g>
          </g>
          <g id="Grupo_69453" data-name="Grupo 69453" transform="translate(0.568 2.033)">
            <g id="Grupo_69452" data-name="Grupo 69452">
              <path id="Trazado_106335" data-name="Trazado 106335" d="M1909.207,1059.375a.183.183,0,0,1-.038,0,.19.19,0,0,1-.149-.224l.134-.672a.19.19,0,1,1,.373.074l-.134.672A.19.19,0,0,1,1909.207,1059.375Zm.4-2.015a.179.179,0,0,1-.038,0,.19.19,0,0,1-.149-.224l.134-.672a.19.19,0,0,1,.374.075l-.135.672A.19.19,0,0,1,1909.61,1057.36Zm.4-2.015a.165.165,0,0,1-.038,0,.19.19,0,0,1-.149-.224l.134-.672a.19.19,0,1,1,.373.075l-.134.671A.19.19,0,0,1,1910.013,1055.344Z" transform="translate(-1909.016 -1054.292)" fill="#6d6875"/>
            </g>
          </g>
          <g id="Grupo_69455" data-name="Grupo 69455" transform="translate(1.777 0.294)">
            <g id="Grupo_69454" data-name="Grupo 69454">
              <path id="Trazado_106336" data-name="Trazado 106336" d="M1918.9,1041.129a.2.2,0,0,1-.038,0,.191.191,0,0,1-.149-.224l.109-.548.518.21a.19.19,0,0,1-.143.353l-.091-.037-.02.1A.19.19,0,0,1,1918.9,1041.129Z" transform="translate(-1918.712 -1040.353)" fill="#6d6875"/>
            </g>
          </g>
          <g id="Grupo_69457" data-name="Grupo 69457" transform="translate(3.554 1.063)">
            <g id="Grupo_69456" data-name="Grupo 69456">
              <path id="Trazado_106337" data-name="Trazado 106337" d="M1935.964,1048.042a.187.187,0,0,1-.072-.014l-.7-.286a.19.19,0,1,1,.143-.353l.7.286a.19.19,0,0,1-.072.367Zm-2.112-.858a.191.191,0,0,1-.072-.014l-.7-.286a.19.19,0,1,1,.144-.353l.7.286a.191.191,0,0,1-.072.367Z" transform="translate(-1932.958 -1046.517)" fill="#6d6875"/>
            </g>
          </g>
          <g id="Grupo_69459" data-name="Grupo 69459" transform="translate(7.777 2.78)">
            <g id="Grupo_69458" data-name="Grupo 69458">
              <path id="Trazado_106338" data-name="Trazado 106338" d="M1967.211,1061.1a.191.191,0,0,1-.181-.25c.018-.054.033-.1.047-.142l-.138-.056a.191.191,0,0,1,.144-.353l.471.192-.059.17s-.039.112-.1.309A.19.19,0,0,1,1967.211,1061.1Z" transform="translate(-1966.82 -1060.283)" fill="#6d6875"/>
            </g>
          </g>
          <g id="Grupo_69461" data-name="Grupo 69461" transform="translate(6.723 4.641)">
            <g id="Grupo_69460" data-name="Grupo 69460">
              <path id="Trazado_106339" data-name="Trazado 106339" d="M1958.555,1078.473a.194.194,0,0,1-.045-.005.19.19,0,0,1-.141-.229c.058-.243.12-.487.183-.73a.19.19,0,0,1,.369.1c-.063.241-.124.483-.182.723A.19.19,0,0,1,1958.555,1078.473Zm.583-2.17a.185.185,0,0,1-.053-.008.19.19,0,0,1-.129-.236c.074-.252.146-.493.216-.72a.19.19,0,1,1,.364.112c-.069.225-.142.465-.215.715A.19.19,0,0,1,1959.139,1076.3Z" transform="translate(-1958.364 -1075.204)" fill="#6d6875"/>
            </g>
          </g>
          <g id="Grupo_69463" data-name="Grupo 69463" transform="translate(6.364 8.996)">
            <g id="Grupo_69462" data-name="Grupo 69462">
              <path id="Trazado_106340" data-name="Trazado 106340" d="M1955.678,1110.832l-.028,0a.191.191,0,0,1-.161-.216q.024-.161.052-.329a.19.19,0,1,1,.375.064q-.028.164-.051.321A.191.191,0,0,1,1955.678,1110.832Z" transform="translate(-1955.488 -1110.126)" fill="#6d6875"/>
            </g>
          </g>
        </g>
      </g>
      <g id="Grupo_69470" data-name="Grupo 69470" transform="translate(84.952 37.162)">
        <g id="Grupo_69467" data-name="Grupo 69467" transform="translate(0 0.925)">
          <g id="Grupo_69466" data-name="Grupo 69466">
            <path id="Trazado_106341" data-name="Trazado 106341" d="M1134.921,1121.644c-1.454,0-3.467-.066-6-.3-5.647-.525-14.957-.827-15.05-.83l-.184-.006v-45.332c0-3.326,1.426-9.716,1.712-10.964.163-.713.374-1.486.578-2.234a22.71,22.71,0,0,0,.88-4.117,78.762,78.762,0,0,0-2.035-19.5l-.057-.26.265.03c.1.011,2.6.246,4.242-2.957l.109-.213,7.167,6.046-4.56-7.171.015-.075a19.175,19.175,0,0,0-1.515-10.743l-.086-.18,9.425-3.959-.035.321c0,.043-.434,4.332,2.01,7.107a7.639,7.639,0,0,0,5.861,2.379l.187,0v92.833l-.169.019C1137.664,1121.544,1136.72,1121.644,1134.921,1121.644Zm-20.855-1.506c1.341.046,9.671.341,14.889.826a51.407,51.407,0,0,0,8.514.215v-92.117a7.924,7.924,0,0,1-5.955-2.505c-2.189-2.487-2.184-6.008-2.125-7.081l-8.474,3.56a19.651,19.651,0,0,1,1.473,10.723l5.815,9.145-8.706-7.344c-1.469,2.676-3.529,2.951-4.252,2.96a78.928,78.928,0,0,1,1.991,19.361,22.912,22.912,0,0,1-.893,4.2c-.2.744-.413,1.513-.574,2.219-.174.76-1.7,7.524-1.7,10.879Z" transform="translate(-1113.685 -1018.879)" fill="#6d6875"/>
          </g>
        </g>
        <g id="Grupo_69469" data-name="Grupo 69469" transform="translate(6.697)">
          <g id="Grupo_69468" data-name="Grupo 69468">
            <path id="Trazado_106342" data-name="Trazado 106342" d="M1184.482,1036.492h-.658a.19.19,0,1,1,0-.381h.658a.19.19,0,1,1,0,.381Zm-1.973,0h-.658a.19.19,0,1,1,0-.381h.658a.19.19,0,1,1,0,.381Zm-1.973,0h-.658a.19.19,0,1,1,0-.381h.658a.19.19,0,1,1,0,.381Zm-1.973,0h-.657a.19.19,0,1,1,0-.381h.657a.19.19,0,1,1,0,.381Zm-1.973,0h-.657a.19.19,0,1,1,0-.381h.657a.19.19,0,1,1,0,.381Zm-1.554-.766a.19.19,0,0,1-.16-.088l-.356-.553a.19.19,0,1,1,.32-.206l.356.553a.191.191,0,0,1-.16.293Zm-1.067-1.659a.19.19,0,0,1-.16-.087l-.356-.553a.19.19,0,0,1,.32-.206l.356.553a.191.191,0,0,1-.16.293Zm-1.067-1.659a.191.191,0,0,1-.16-.087l-.355-.553a.19.19,0,1,1,.32-.206l.355.553a.19.19,0,0,1-.16.293Zm-1.067-1.659a.19.19,0,0,1-.16-.087l-.356-.553a.19.19,0,0,1,.32-.206l.356.553a.19.19,0,0,1-.16.293Zm-1.067-1.659a.191.191,0,0,1-.16-.087l-.356-.553a.19.19,0,0,1,.32-.206l.356.553a.191.191,0,0,1-.16.294Zm-1.067-1.659a.191.191,0,0,1-.16-.087l-.356-.553a.19.19,0,1,1,.32-.206l.356.553a.191.191,0,0,1-.16.293Zm-.312-1.848h-.01a.19.19,0,0,1-.181-.2c.011-.214.018-.433.022-.651a.2.2,0,0,1,.194-.187.19.19,0,0,1,.187.194c0,.222-.011.445-.022.663A.19.19,0,0,1,1169.389,1025.581Zm0-1.972a.191.191,0,0,1-.19-.182c-.01-.215-.022-.434-.038-.651a.19.19,0,0,1,.38-.028c.016.22.029.443.039.662a.191.191,0,0,1-.182.2Zm-.173-1.965a.191.191,0,0,1-.189-.166c-.028-.214-.059-.431-.093-.646a.19.19,0,1,1,.376-.059c.034.218.066.439.095.656a.19.19,0,0,1-.164.214Zm14.913-.112H1184a.19.19,0,1,1,.007-.381,5.375,5.375,0,0,0,.631-.021.19.19,0,0,1,.046.378A5.008,5.008,0,0,1,1184.133,1021.532Zm-1.438-.137a.2.2,0,0,1-.036,0c-.221-.042-.442-.093-.657-.153a.19.19,0,1,1,.1-.367c.2.057.414.106.625.146a.191.191,0,0,1-.035.378Zm-1.869-.616a.19.19,0,0,1-.084-.019c-.2-.1-.4-.21-.591-.327a.19.19,0,0,1,.2-.324c.179.111.367.215.559.309a.19.19,0,0,1-.084.361Zm-11.939-1.079a.191.191,0,0,1-.186-.151c-.045-.212-.093-.426-.144-.637a.19.19,0,1,1,.37-.089c.051.214.1.432.146.647a.191.191,0,0,1-.186.23Zm10.324-.038a.189.189,0,0,1-.131-.052c-.162-.153-.32-.317-.468-.487a.19.19,0,1,1,.287-.25c.14.161.288.315.442.46a.19.19,0,0,1-.131.329Zm-1.219-1.538a.19.19,0,0,1-.164-.094c-.112-.189-.219-.389-.317-.592a.19.19,0,1,1,.343-.166c.094.194.2.384.3.565a.191.191,0,0,1-.164.287Zm-9.588-.337a.19.19,0,0,1-.183-.137c-.062-.209-.126-.419-.193-.624a.19.19,0,0,1,.362-.117c.067.208.133.421.2.634a.19.19,0,0,1-.183.244Zm8.793-1.461a.191.191,0,0,1-.181-.133c-.066-.207-.128-.423-.184-.642a.19.19,0,0,1,.369-.094c.054.212.113.42.177.62a.191.191,0,0,1-.182.249Zm-9.431-.407a.19.19,0,0,1-.177-.12c-.077-.193-.123-.3-.124-.3l-.08-.179.485-.2a.19.19,0,1,1,.145.352l-.125.052.053.132a.19.19,0,0,1-.177.261Zm1.393-.93a.19.19,0,0,1-.073-.366l.608-.25a.19.19,0,1,1,.145.352l-.608.25A.188.188,0,0,1,1169.158,1014.987Zm7.6-.582a.191.191,0,0,1-.188-.163c-.031-.215-.059-.437-.081-.66a.19.19,0,1,1,.379-.038c.022.218.049.434.079.644a.19.19,0,0,1-.161.216Zm-5.779-.167a.19.19,0,0,1-.072-.367l.608-.25a.19.19,0,0,1,.145.352l-.608.25A.191.191,0,0,1,1170.983,1014.238Zm1.825-.75a.19.19,0,0,1-.072-.366l.608-.25a.19.19,0,0,1,.145.352l-.608.25A.192.192,0,0,1,1172.807,1013.488Zm1.825-.75a.19.19,0,0,1-.072-.367l.608-.25a.19.19,0,1,1,.145.352l-.608.25A.189.189,0,0,1,1174.632,1012.738Zm1.967-.3a.191.191,0,0,1-.19-.185q0-.137-.005-.276a.191.191,0,0,1-.019-.359l.4-.164v.284q0,.257.006.505a.19.19,0,0,1-.186.2Z" transform="translate(-1167.384 -1011.458)" fill="#6d6875"/>
          </g>
        </g>
      </g>
      <g id="Grupo_69476" data-name="Grupo 69476" transform="translate(124.995 37.736)">
        <g id="Grupo_69472" data-name="Grupo 69472">
          <g id="Grupo_69471" data-name="Grupo 69471">
            <path id="Trazado_106343" data-name="Trazado 106343" d="M1465.239,1063.727h-9.862l-2.236-15.092-3.725,15.092h-10.7l-3.943-22.456.241.014c.067,0,6.751.342,7.554-4.9.017-.107.031-.211.041-.319s.018-.2.023-.3c.232-4.5-4.678-9.747-4.728-9.8l-.15-.158,11.454-8.245,4,21.986,4.881-23.485.236.58c.028.069,2.868,6.943,7.769,8.371l.141.041,0,.147Zm-9.534-.381h9.162l.971-38.009c-4.22-1.322-6.851-6.317-7.633-8l-5.031,24.2-4.239-23.316-10.613,7.64c.849.937,4.9,5.65,4.684,9.92,0,.1-.013.213-.025.32s-.026.228-.044.339a5.758,5.758,0,0,1-4.321,4.739,11.236,11.236,0,0,1-3.392.492l3.805,21.673h10.086l4.117-16.678Z" transform="translate(-1434.769 -1016.063)" fill="#6d6875"/>
          </g>
        </g>
        <g id="Grupo_69475" data-name="Grupo 69475" transform="translate(7.767 19.466)">
          <g id="Grupo_69474" data-name="Grupo 69474">
            <g id="Grupo_69473" data-name="Grupo 69473">
              <path id="Trazado_106344" data-name="Trazado 106344" d="M1507.205,1185.63l-.011-.189c-.012-.225-.325-5.488-2.542-7.936a14.211,14.211,0,0,0-7.438-4.288l-.166-.044.027-.17c.017-.106.031-.21.041-.318s.019-.2.023-.3l.011-.235.228.06a15.232,15.232,0,0,1,8.027,4.615c2.5,2.76,2.791,8.33,2.8,8.566l.009.191-.511.022-.052-.347-.087.355Zm-9.729-12.737a14.472,14.472,0,0,1,7.458,4.356c1.722,1.9,2.337,5.386,2.544,7.127l.17-.69c-.271-1.88-.935-4.85-2.526-6.606a14.751,14.751,0,0,0-7.619-4.443q0,.043-.009.086C1497.49,1172.78,1497.484,1172.836,1497.476,1172.893Z" transform="translate(-1497.048 -1172.15)" fill="#6d6875"/>
            </g>
          </g>
        </g>
      </g>
      <g id="Grupo_69478" data-name="Grupo 69478" transform="translate(123.477 91.052)">
        <g id="Grupo_69477" data-name="Grupo 69477">
          <path id="Trazado_106345" data-name="Trazado 106345" d="M1453.706,1490.338h-11.384L1440,1473.51l-2.049,16.828h-12.889l-2.458-20.5.194-.018a12.4,12.4,0,0,0,8.718-5.219l.064-.1.119.013c3.5.4,6.366,3.109,7.587,4.452-1.836-4.867-6.871-7.547-6.925-7.575l-.138-.072.043-.15a15.773,15.773,0,0,0-.938-11.325l-.106-.186,14.4-6.085.063.2a13.572,13.572,0,0,0,8.619,8.882l.144.039,0,.149Zm-11.052-.381h10.679l.729-36.979a12.927,12.927,0,0,1-3.437-1.76,13.971,13.971,0,0,1-5.239-7.134l-13.628,5.759a16.33,16.33,0,0,1,.916,11.284c.889.5,5.861,3.525,7.277,8.647l.261.943-.6-.776c-.035-.045-3.475-4.473-7.845-5.036a12.815,12.815,0,0,1-8.743,5.274l2.371,19.778h12.214l2.363-19.4Z" transform="translate(-1422.603 -1443.571)" fill="#6d6875"/>
        </g>
      </g>
      <g id="Grupo_69480" data-name="Grupo 69480" transform="translate(154.145 29.159)">
        <g id="Grupo_69479" data-name="Grupo 69479">
          <rect id="Rectángulo_7194" data-name="Rectángulo 7194" width="83.96" height="8.78" fill="#e3f3f9"/>
        </g>
      </g>
      <g id="Grupo_69482" data-name="Grupo 69482" transform="translate(156.148 30.725)">
        <g id="Grupo_69481" data-name="Grupo 69481">
          <rect id="Rectángulo_7195" data-name="Rectángulo 7195" width="5.648" height="5.648" fill="#fff"/>
        </g>
      </g>
      <g id="Grupo_69484" data-name="Grupo 69484" transform="translate(164.466 30.725)">
        <g id="Grupo_69483" data-name="Grupo 69483">
          <rect id="Rectángulo_7196" data-name="Rectángulo 7196" width="5.648" height="5.648" fill="#fff"/>
        </g>
      </g>
      <g id="Grupo_69486" data-name="Grupo 69486" transform="translate(172.784 30.725)">
        <g id="Grupo_69485" data-name="Grupo 69485">
          <rect id="Rectángulo_7197" data-name="Rectángulo 7197" width="5.648" height="5.648" fill="#fff"/>
        </g>
      </g>
      <g id="Grupo_69488" data-name="Grupo 69488" transform="translate(181.102 30.725)">
        <g id="Grupo_69487" data-name="Grupo 69487">
          <rect id="Rectángulo_7198" data-name="Rectángulo 7198" width="5.648" height="5.648" fill="#fff"/>
        </g>
      </g>
      <g id="Grupo_69490" data-name="Grupo 69490" transform="translate(189.42 30.725)">
        <g id="Grupo_69489" data-name="Grupo 69489">
          <rect id="Rectángulo_7199" data-name="Rectángulo 7199" width="5.648" height="5.648" fill="#fff"/>
        </g>
      </g>
      <g id="Grupo_69492" data-name="Grupo 69492" transform="translate(197.739 30.725)">
        <g id="Grupo_69491" data-name="Grupo 69491">
          <rect id="Rectángulo_7200" data-name="Rectángulo 7200" width="5.648" height="5.648" fill="#fff"/>
        </g>
      </g>
      <g id="Grupo_69494" data-name="Grupo 69494" transform="translate(206.057 30.725)">
        <g id="Grupo_69493" data-name="Grupo 69493">
          <rect id="Rectángulo_7201" data-name="Rectángulo 7201" width="5.648" height="5.648" fill="#fff"/>
        </g>
      </g>
      <g id="Grupo_69496" data-name="Grupo 69496" transform="translate(214.375 30.725)">
        <g id="Grupo_69495" data-name="Grupo 69495">
          <rect id="Rectángulo_7202" data-name="Rectángulo 7202" width="5.648" height="5.648" fill="#fff"/>
        </g>
      </g>
      <g id="Grupo_69498" data-name="Grupo 69498" transform="translate(222.693 30.725)">
        <g id="Grupo_69497" data-name="Grupo 69497">
          <rect id="Rectángulo_7203" data-name="Rectángulo 7203" width="5.648" height="5.648" fill="#fff"/>
        </g>
      </g>
      <g id="Grupo_69500" data-name="Grupo 69500" transform="translate(231.011 30.725)">
        <g id="Grupo_69499" data-name="Grupo 69499">
          <rect id="Rectángulo_7204" data-name="Rectángulo 7204" width="5.648" height="5.648" fill="#fff"/>
        </g>
      </g>
      <g id="Grupo_69502" data-name="Grupo 69502" transform="translate(207.032 37.939)">
        <g id="Grupo_69501" data-name="Grupo 69501">
          <rect id="Rectángulo_7205" data-name="Rectángulo 7205" width="31.073" height="105.014" fill="#c6eefa"/>
        </g>
      </g>
      <g id="Grupo_69504" data-name="Grupo 69504" transform="translate(210.678 41.631)">
        <g id="Grupo_69503" data-name="Grupo 69503">
          <rect id="Rectángulo_7206" data-name="Rectángulo 7206" width="8.934" height="8.934" fill="#fff"/>
        </g>
      </g>
      <g id="Grupo_69506" data-name="Grupo 69506" transform="translate(225.774 41.631)">
        <g id="Grupo_69505" data-name="Grupo 69505">
          <rect id="Rectángulo_7207" data-name="Rectángulo 7207" width="8.934" height="8.934" fill="#fff"/>
        </g>
      </g>
      <g id="Grupo_69508" data-name="Grupo 69508" transform="translate(210.678 54.365)">
        <g id="Grupo_69507" data-name="Grupo 69507">
          <rect id="Rectángulo_7208" data-name="Rectángulo 7208" width="8.934" height="8.934" fill="#fff"/>
        </g>
      </g>
      <g id="Grupo_69510" data-name="Grupo 69510" transform="translate(225.774 54.365)">
        <g id="Grupo_69509" data-name="Grupo 69509">
          <rect id="Rectángulo_7209" data-name="Rectángulo 7209" width="8.934" height="8.934" fill="#fff"/>
        </g>
      </g>
      <g id="Grupo_69512" data-name="Grupo 69512" transform="translate(210.678 67.099)">
        <g id="Grupo_69511" data-name="Grupo 69511">
          <rect id="Rectángulo_7210" data-name="Rectángulo 7210" width="8.934" height="8.934" fill="#fff"/>
        </g>
      </g>
      <g id="Grupo_69514" data-name="Grupo 69514" transform="translate(225.774 67.099)">
        <g id="Grupo_69513" data-name="Grupo 69513">
          <rect id="Rectángulo_7211" data-name="Rectángulo 7211" width="8.934" height="8.934" fill="#fff"/>
        </g>
      </g>
      <g id="Grupo_69516" data-name="Grupo 69516" transform="translate(210.678 79.833)">
        <g id="Grupo_69515" data-name="Grupo 69515">
          <rect id="Rectángulo_7212" data-name="Rectángulo 7212" width="8.934" height="8.934" fill="#fff"/>
        </g>
      </g>
      <g id="Grupo_69518" data-name="Grupo 69518" transform="translate(225.774 79.833)">
        <g id="Grupo_69517" data-name="Grupo 69517">
          <rect id="Rectángulo_7213" data-name="Rectángulo 7213" width="8.934" height="8.934" fill="#fff"/>
        </g>
      </g>
      <g id="Grupo_69520" data-name="Grupo 69520" transform="translate(210.678 92.567)">
        <g id="Grupo_69519" data-name="Grupo 69519">
          <rect id="Rectángulo_7214" data-name="Rectángulo 7214" width="8.934" height="8.934" fill="#fff"/>
        </g>
      </g>
      <g id="Grupo_69522" data-name="Grupo 69522" transform="translate(225.774 92.567)">
        <g id="Grupo_69521" data-name="Grupo 69521">
          <rect id="Rectángulo_7215" data-name="Rectángulo 7215" width="8.934" height="8.934" fill="#fff"/>
        </g>
      </g>
      <g id="Grupo_69524" data-name="Grupo 69524" transform="translate(210.678 105.3)">
        <g id="Grupo_69523" data-name="Grupo 69523">
          <rect id="Rectángulo_7216" data-name="Rectángulo 7216" width="8.934" height="8.934" fill="#fff"/>
        </g>
      </g>
      <g id="Grupo_69526" data-name="Grupo 69526" transform="translate(225.774 105.3)">
        <g id="Grupo_69525" data-name="Grupo 69525">
          <rect id="Rectángulo_7217" data-name="Rectángulo 7217" width="8.934" height="8.934" fill="#fff"/>
        </g>
      </g>
      <g id="Grupo_69528" data-name="Grupo 69528" transform="translate(210.678 118.034)">
        <g id="Grupo_69527" data-name="Grupo 69527">
          <rect id="Rectángulo_7218" data-name="Rectángulo 7218" width="8.934" height="8.934" fill="#fff"/>
        </g>
      </g>
      <g id="Grupo_69530" data-name="Grupo 69530" transform="translate(228.521 135.261)">
        <g id="Grupo_69529" data-name="Grupo 69529">
          <rect id="Rectángulo_7219" data-name="Rectángulo 7219" width="6.187" height="6.187" fill="#fff"/>
        </g>
      </g>
      <g id="Grupo_69532" data-name="Grupo 69532" transform="translate(210.43 135.261)">
        <g id="Grupo_69531" data-name="Grupo 69531" transform="translate(0 0)">
          <rect id="Rectángulo_7220" data-name="Rectángulo 7220" width="6.187" height="6.187" transform="translate(6.187 6.187) rotate(180)" fill="#fff"/>
        </g>
      </g>
      <g id="Grupo_69534" data-name="Grupo 69534" transform="translate(219.475 135.261)">
        <g id="Grupo_69533" data-name="Grupo 69533">
          <rect id="Rectángulo_7221" data-name="Rectángulo 7221" width="6.187" height="6.187" fill="#fff"/>
        </g>
      </g>
    </g>
    <g id="Grupo_69574" data-name="Grupo 69574" transform="translate(284.849 731.95)">
      <g id="Grupo_69573" data-name="Grupo 69573">
        <path id="Trazado_106348" data-name="Trazado 106348" d="M1252.942,1937.763a9.273,9.273,0,0,0-8.146-3.883c-5.65.2-11.645,3.1-18.74,2.6a71.271,71.271,0,0,0-15.489,1.1Z" transform="translate(-1210.567 -1933.873)" fill="#d97386"/>
      </g>
    </g>
    <g id="Grupo_69576" data-name="Grupo 69576" transform="translate(174.826 735.663)">
      <g id="Grupo_69575" data-name="Grupo 69575" transform="translate(0 0)">
        <rect id="Rectángulo_7238" data-name="Rectángulo 7238" width="280.244" height="5.51" rx="2.755" fill="#e58e91"/>
      </g>
    </g>
    <g id="Grupo_69768" data-name="Grupo 69768" transform="translate(361.821 625.927)">
      <g id="Grupo_69669" data-name="Grupo 69669" transform="translate(33.353 97.587)">
        <g id="Grupo_69668" data-name="Grupo 69668">
          <path id="Trazado_106390" data-name="Trazado 106390" d="M2095.206,1867.265c0,.571,2.7,1.034,6.019,1.034s6.011-.46,6.019-1.031v0c0-.574-2.693-1.037-6.019-1.037S2095.206,1866.691,2095.206,1867.265Z" transform="translate(-2095.206 -1866.228)" fill="#006d77"/>
        </g>
      </g>
      <g id="Grupo_69671" data-name="Grupo 69671" transform="translate(34.59 68.976)">
        <g id="Grupo_69670" data-name="Grupo 69670">
          <path id="Trazado_106391" data-name="Trazado 106391" d="M2107.068,1641.44a4.63,4.63,0,1,1,9.168.917l-2.9,29.068-.327,4.167-4.357-.218-1.389-3.257s-.982-6.82-1.879-16.625C2104.7,1648.1,2105.452,1645.289,2107.068,1641.44Z" transform="translate(-2105.13 -1636.81)" fill="#f7b897"/>
        </g>
      </g>
      <g id="Grupo_69673" data-name="Grupo 69673" transform="translate(36.125 103.591)">
        <g id="Grupo_69672" data-name="Grupo 69672">
          <path id="Trazado_106392" data-name="Trazado 106392" d="M2131.984,1919.023v1.224a.253.253,0,0,1-.253.253h-14.043a.253.253,0,0,1-.251-.282l.592-5.153h.858c.748,0,1.686.013,2.056.683s1.117,1.171,1.607.327c.309-.531.559-1.406,1.552-1.7a9.1,9.1,0,0,0,3.7,2.138C2129.2,1917.079,2132.144,1917.725,2131.984,1919.023Z" transform="translate(-2117.434 -1914.372)" fill="#fff"/>
        </g>
      </g>
      <g id="Grupo_69675" data-name="Grupo 69675" transform="translate(38.373 108.042)">
        <g id="Grupo_69674" data-name="Grupo 69674">
          <rect id="Rectángulo_7243" data-name="Rectángulo 7243" width="12.307" height="0.403" fill="#efecdb"/>
        </g>
      </g>
      <g id="Grupo_69677" data-name="Grupo 69677" transform="translate(13.187 94.995)">
        <g id="Grupo_69676" data-name="Grupo 69676">
          <path id="Trazado_106393" data-name="Trazado 106393" d="M1939,1848.386c3.191.929,5.909,1.236,6.068.687s-2.3-1.745-5.491-2.674c-3.175-.921-5.879-1.231-6.065-.695,0,0,0,.005,0,.008C1933.354,1846.261,1935.813,1847.46,1939,1848.386Z" transform="translate(-1933.505 -1845.441)" fill="#006d77"/>
        </g>
      </g>
      <g id="Grupo_69679" data-name="Grupo 69679" transform="translate(12.763 68.909)">
        <g id="Grupo_69678" data-name="Grupo 69678">
          <path id="Trazado_106394" data-name="Trazado 106394" d="M1946.306,1642.407a4.63,4.63,0,1,0-8.967-2.118l-7.233,30.662,1.54,4.652,4.533-3.959s3.108-6.421,7.148-15.4C1946.373,1649.477,1946.581,1646.572,1946.306,1642.407Z" transform="translate(-1930.106 -1636.268)" fill="#f7b897"/>
        </g>
      </g>
      <g id="Grupo_69681" data-name="Grupo 69681" transform="translate(32.116 0)">
        <g id="Grupo_69680" data-name="Grupo 69680">
          <path id="Trazado_106395" data-name="Trazado 106395" d="M2091.708,1084.086a3.3,3.3,0,0,1,2.974,0c1.569.8,2.041,2.188,2.695,3.711a4.256,4.256,0,0,0,4.357,2.875c2.215-.3,5.011.441,6.064,2.9s5.665,1.845,5.665,1.845.727,4.939-1.344,6.718a5.332,5.332,0,0,1-3.5-1.425c-1.226-1.389-2.067-2.87-3.513-2.926a5.252,5.252,0,0,1,2.642,2.872,4.566,4.566,0,0,0,2.424,2.7,14.735,14.735,0,0,1-11.983,4.712c-7.571-.626-12.6-9-12.6-9a3.342,3.342,0,0,1,.455-3.485c1.38-1.507.581-3.709,1.888-5.023S2091.708,1084.086,2091.708,1084.086Z" transform="translate(-2085.289 -1083.728)" fill="#3e3b42"/>
        </g>
      </g>
      <g id="Grupo_69683" data-name="Grupo 69683" transform="translate(15.728 13.999)">
        <g id="Grupo_69682" data-name="Grupo 69682">
          <path id="Trazado_106396" data-name="Trazado 106396" d="M1954.586,1211.57h0a4.312,4.312,0,0,0,5.952,1.24l13.649-8.943a4.312,4.312,0,0,0,1.24-5.952h0a4.312,4.312,0,0,0-5.952-1.24l-13.649,8.943A4.312,4.312,0,0,0,1954.586,1211.57Z" transform="translate(-1953.887 -1195.975)" fill="#f7b897"/>
        </g>
      </g>
      <g id="Grupo_69685" data-name="Grupo 69685" transform="translate(35.92 7.714)">
        <g id="Grupo_69684" data-name="Grupo 69684">
          <path id="Trazado_106397" data-name="Trazado 106397" d="M2121.022,1150.847l-.044-5.268-4.563.674-.624,4.594A4.315,4.315,0,0,0,2121.022,1150.847Z" transform="translate(-2115.791 -1145.579)" fill="#f7b897"/>
        </g>
      </g>
      <g id="Grupo_69687" data-name="Grupo 69687" transform="translate(36.169 9.493)">
        <g id="Grupo_69686" data-name="Grupo 69686">
          <path id="Trazado_106398" data-name="Trazado 106398" d="M2117.792,1161.5s2.622-.02,3.736-1.371l-3.512-.281Z" transform="translate(-2117.792 -1159.85)" fill="#de8759"/>
        </g>
      </g>
      <g id="Grupo_69689" data-name="Grupo 69689" transform="translate(34.619 0.357)">
        <g id="Grupo_69688" data-name="Grupo 69688">
          <path id="Trazado_106399" data-name="Trazado 106399" d="M2105.36,1093.352a3.349,3.349,0,0,0,6.7-.141l-.081-3.838a2.837,2.837,0,1,0-5.674.12,6.582,6.582,0,0,1-.6,2.322c-.017.036-.032.064-.038.076a.025.025,0,0,0,0,.009A3.319,3.319,0,0,0,2105.36,1093.352Z" transform="translate(-2105.359 -1086.594)" fill="#f7b897"/>
        </g>
      </g>
      <g id="Grupo_69691" data-name="Grupo 69691" transform="translate(36.832 4.71)">
        <g id="Grupo_69690" data-name="Grupo 69690">
          <path id="Trazado_106400" data-name="Trazado 106400" d="M2123.813,1123.71a.769.769,0,0,1-.694-.36.09.09,0,0,1,.041-.123c.569-.271.683-1.633.684-1.647a.09.09,0,0,1,.18.014c0,.057-.112,1.344-.693,1.741a.63.63,0,0,0,.483.194h.021a.09.09,0,0,1,0,.18Z" transform="translate(-2123.108 -1121.497)" fill="#de8759"/>
        </g>
      </g>
      <g id="Grupo_69693" data-name="Grupo 69693" transform="translate(38.73 4.601)">
        <g id="Grupo_69692" data-name="Grupo 69692">
          <path id="Trazado_106401" data-name="Trazado 106401" d="M2138.325,1121c0,.209.107.377.229.374s.217-.174.213-.383-.107-.377-.229-.374S2138.321,1120.795,2138.325,1121Z" transform="translate(-2138.325 -1120.621)" fill="#16142a"/>
        </g>
      </g>
      <g id="Grupo_69695" data-name="Grupo 69695" transform="translate(35.133 0.012)">
        <g id="Grupo_69694" data-name="Grupo 69694">
          <path id="Trazado_106402" data-name="Trazado 106402" d="M2109.912,1087.128s.459-1.116,1.222-1.13,1.307-.259,1.416-.763a1.324,1.324,0,0,0,1.021,1.185,2.838,2.838,0,0,1,1.743,2.321,10,10,0,0,1-.183,2.092l.729-.572a29.921,29.921,0,0,0-.274-4.29,2.885,2.885,0,0,0-2.948-1.94s-.933-.47-1.5.021-.8,1.144-1.423,1.661S2109.912,1087.128,2109.912,1087.128Z" transform="translate(-2109.485 -1083.827)" fill="#3e3b42"/>
        </g>
      </g>
      <g id="Grupo_69697" data-name="Grupo 69697" transform="translate(28.078 11.856)">
        <g id="Grupo_69696" data-name="Grupo 69696">
          <path id="Trazado_106403" data-name="Trazado 106403" d="M2065.981,1179.919l4.494-1.126.626,12.419s-2.4,7.462-2.142,10.331h-13.727a11.42,11.42,0,0,0-.218-5.193c-.8-2.505-2.125-4.675-2.106-6.9.02-2.3,3.268-3.9,4.866-8.455l3.45-1.077Z" transform="translate(-2052.908 -1178.793)" fill="#e58e91"/>
        </g>
      </g>
      <g id="Grupo_69699" data-name="Grupo 69699" transform="translate(4.874 103.591)">
        <g id="Grupo_69698" data-name="Grupo 69698">
          <path id="Trazado_106404" data-name="Trazado 106404" d="M1866.855,1919.023v1.228a.249.249,0,0,0,.249.249h14.053a.249.249,0,0,0,.247-.277l-.592-5.158h-.858c-.748,0-1.686.013-2.056.683s-1.117,1.171-1.607.327c-.309-.531-.559-1.406-1.552-1.7a9.093,9.093,0,0,1-3.7,2.138C1869.635,1917.079,1866.7,1917.725,1866.855,1919.023Z" transform="translate(-1866.849 -1914.372)" fill="#fff"/>
        </g>
      </g>
      <g id="Grupo_69701" data-name="Grupo 69701" transform="translate(4.874 108.042)">
        <g id="Grupo_69700" data-name="Grupo 69700">
          <rect id="Rectángulo_7244" data-name="Rectángulo 7244" width="12.307" height="0.403" fill="#efecdb"/>
        </g>
      </g>
      <g id="Grupo_69703" data-name="Grupo 69703" transform="translate(36.323 4.547)">
        <g id="Grupo_69702" data-name="Grupo 69702">
          <path id="Trazado_106405" data-name="Trazado 106405" d="M2119.027,1120.57c0,.209.107.376.229.374s.217-.174.213-.383-.107-.377-.229-.374S2119.023,1120.361,2119.027,1120.57Z" transform="translate(-2119.027 -1120.187)" fill="#16142a"/>
        </g>
      </g>
      <g id="Grupo_69705" data-name="Grupo 69705" transform="translate(38.552 3.978)">
        <g id="Grupo_69704" data-name="Grupo 69704">
          <path id="Trazado_106406" data-name="Trazado 106406" d="M2137.854,1116.108a.857.857,0,0,0-.929-.281l-.03-.178a1.023,1.023,0,0,1,1.115.367l-.156.091.078-.045Z" transform="translate(-2136.895 -1115.625)" fill="#16142a"/>
        </g>
      </g>
      <g id="Grupo_69707" data-name="Grupo 69707" transform="translate(33.353 33.481)">
        <g id="Grupo_69706" data-name="Grupo 69706">
          <path id="Trazado_106407" data-name="Trazado 106407" d="M2095.206,1417.335c0-.574,2.7-1.037,6.019-1.037s6.019.463,6.019,1.037c.064-.493,4.94-49.911,3.782-54.6-1.161-4.721-5.037-10.539-5.037-10.539h-8.683Z" transform="translate(-2095.206 -1352.192)" fill="#63b8af"/>
        </g>
      </g>
      <g id="Grupo_69709" data-name="Grupo 69709" transform="translate(13.197 33.481)">
        <g id="Grupo_69708" data-name="Grupo 69708">
          <path id="Trazado_106408" data-name="Trazado 106408" d="M1933.586,1413.969c.186-.536,2.89-.226,6.065.695,3.194.929,5.653,2.125,5.492,2.674l19.352-65.146h-13.629c.035,1.562-1.286,4.18-2.4,6.974a113.156,113.156,0,0,0-4.6,15.132C1942.5,1379.768,1933.718,1413.358,1933.586,1413.969Z" transform="translate(-1933.586 -1352.192)" fill="#63b8af"/>
        </g>
      </g>
      <g id="Grupo_69711" data-name="Grupo 69711" transform="translate(35.852 3.815)">
        <g id="Grupo_69710" data-name="Grupo 69710">
          <path id="Trazado_106409" data-name="Trazado 106409" d="M2115.382,1114.762l-.136-.119a1.026,1.026,0,0,1,1.043-.281l-.054.172A.846.846,0,0,0,2115.382,1114.762Z" transform="translate(-2115.246 -1114.32)" fill="#16142a"/>
        </g>
      </g>
      <g id="Grupo_69713" data-name="Grupo 69713" transform="translate(40.412 6.279)">
        <g id="Grupo_69712" data-name="Grupo 69712">
          <path id="Trazado_106410" data-name="Trazado 106410" d="M2152.036,1136a1.243,1.243,0,1,0,.209-1.53A1.107,1.107,0,0,0,2152.036,1136Z" transform="translate(-2151.812 -1134.077)" fill="#f7b897"/>
        </g>
      </g>
      <g id="Grupo_69715" data-name="Grupo 69715" transform="translate(40.69 7.828)">
        <g id="Grupo_69714" data-name="Grupo 69714">
          <path id="Trazado_106411" data-name="Trazado 106411" d="M2155.094,1148.6a1.055,1.055,0,0,1-.022-2.11h.023a1.055,1.055,0,0,1,.022,2.11Zm0-1.93h-.019a.875.875,0,0,0-.856.893h0a.875.875,0,1,0,1.48-.65A.869.869,0,0,0,2155.095,1146.673Z" transform="translate(-2154.039 -1146.493)" fill="#f6f1ef"/>
        </g>
      </g>
      <g id="Grupo_69717" data-name="Grupo 69717" transform="translate(40.828 6.87)">
        <g id="Grupo_69716" data-name="Grupo 69716" transform="translate(0 0)">
          <rect id="Rectángulo_7245" data-name="Rectángulo 7245" width="1.271" height="0.18" transform="matrix(0.814, -0.581, 0.581, 0.814, 0, 0.738)" fill="#de8759"/>
        </g>
      </g>
      <g id="Grupo_69719" data-name="Grupo 69719" transform="translate(24.543 13.908)">
        <g id="Grupo_69718" data-name="Grupo 69718">
          <path id="Trazado_106412" data-name="Trazado 106412" d="M2033.449,1195.251a7.6,7.6,0,0,0-3.495,1.429,61.14,61.14,0,0,1-5.388,3.559s1.46,5.8,4.879,8.4l7.752-4.905Z" transform="translate(-2024.566 -1195.251)" fill="#e58e91"/>
        </g>
      </g>
      <g id="Grupo_69721" data-name="Grupo 69721" transform="translate(27.967 18.204)">
        <g id="Grupo_69720" data-name="Grupo 69720">
          <path id="Trazado_106413" data-name="Trazado 106413" d="M2053.543,1239.242c-.012-.034-1.2-3.412-1.491-4.9-.227-1.149.692-2.35,1.58-3.512.3-.4.59-.772.828-1.139l.135.088c-.241.373-.529.75-.835,1.15-.866,1.134-1.762,2.306-1.55,3.383.291,1.473,1.473,4.84,1.485,4.874Z" transform="translate(-2052.017 -1229.694)" fill="#efecdb"/>
        </g>
      </g>
      <g id="Grupo_69723" data-name="Grupo 69723" transform="translate(33.272 52.23)">
        <g id="Grupo_69722" data-name="Grupo 69722" transform="translate(0 0)">
          <rect id="Rectángulo_7246" data-name="Rectángulo 7246" width="0.162" height="15.117" transform="matrix(0.998, -0.067, 0.067, 0.998, 0, 0.011)" fill="#efecdb"/>
        </g>
      </g>
      <g id="Grupo_69725" data-name="Grupo 69725" transform="translate(0 13.397)">
        <g id="Grupo_69724" data-name="Grupo 69724">
          <path id="Trazado_106414" data-name="Trazado 106414" d="M1830.233,1195.249c.457.695,1.992,1.537,4.043,3.064,1.728,1.284,7.5,6.955,10.192,9.426.486.448.872.791,1.114.979a4.342,4.342,0,0,0,1.317.545l.018,0c.048.012.1.022.149.032a4.412,4.412,0,0,0,4.246-1.533.016.016,0,0,1,.009-.011,4.421,4.421,0,0,0-1.112-6.551l-.869-.411c-3.341-1.576-8.283-3.912-9.226-4.413a10.4,10.4,0,0,1-2.9-2.573,7.719,7.719,0,0,0-2.49-1.725c-.768-.278-1.388-.375-1.518-.207s.347.481,1.017.92,1.192,1.115,1.057,1.322-1.923-.339-3.248-.648c-2.8-.65-3.779-2.533-4.21-2.3S1829.776,1194.555,1830.233,1195.249Z" transform="translate(-1827.769 -1191.151)" fill="#f7b897"/>
        </g>
      </g>
      <g id="Grupo_69727" data-name="Grupo 69727" transform="translate(3.819 14.981)">
        <g id="Grupo_69726" data-name="Grupo 69726">
          <path id="Trazado_106415" data-name="Trazado 106415" d="M1860.037,1207.025a4.516,4.516,0,0,1-.836-1.8c-.106-.859-.248-1.366-.487-1.372s-.56,2.409-.076,3.461" transform="translate(-1858.387 -1203.854)" fill="#f7b897"/>
        </g>
      </g>
      <g id="Grupo_69729" data-name="Grupo 69729" transform="translate(2.521 13.955)">
        <g id="Grupo_69728" data-name="Grupo 69728">
          <path id="Trazado_106416" data-name="Trazado 106416" d="M1849.287,1198.192a2.512,2.512,0,0,1-.47-1.478c.066-.755,0-1.028-.185-1.084s-.527.276-.633,1.2a4.837,4.837,0,0,0,.687,2.737" transform="translate(-1847.982 -1195.623)" fill="#f7b897"/>
        </g>
      </g>
      <g id="Grupo_69731" data-name="Grupo 69731" transform="translate(1.494 12.953)">
        <g id="Grupo_69730" data-name="Grupo 69730">
          <path id="Trazado_106417" data-name="Trazado 106417" d="M1840.819,1189.6a3.417,3.417,0,0,1-.37-1.343c-.068-.87-.522-.846-.658-.166a5.536,5.536,0,0,0,.677,3.327" transform="translate(-1839.747 -1187.594)" fill="#f7b897"/>
        </g>
      </g>
      <g id="Grupo_69733" data-name="Grupo 69733" transform="translate(3.731 14.891)">
        <g id="Grupo_69732" data-name="Grupo 69732">
          <path id="Trazado_106418" data-name="Trazado 106418" d="M1858.027,1206.773a.09.09,0,0,1-.082-.052,5.911,5.911,0,0,1,.021-3.5.165.165,0,0,1,.136-.088h0c.281.007.448.427.574,1.451a4.452,4.452,0,0,0,.818,1.755.09.09,0,1,1-.142.111,4.546,4.546,0,0,1-.854-1.843c-.13-1.049-.288-1.266-.382-1.29a5.851,5.851,0,0,0-.009,3.331.09.09,0,0,1-.082.128Z" transform="translate(-1857.688 -1203.131)" fill="#de8759"/>
        </g>
      </g>
      <g id="Grupo_69735" data-name="Grupo 69735" transform="translate(2.43 13.864)">
        <g id="Grupo_69734" data-name="Grupo 69734">
          <path id="Trazado_106419" data-name="Trazado 106419" d="M1848.05,1199.021a.091.091,0,0,1-.075-.04,4.927,4.927,0,0,1-.7-2.8,1.76,1.76,0,0,1,.507-1.226.28.28,0,0,1,.241-.049c.249.076.317.395.249,1.178a2.428,2.428,0,0,0,.452,1.417.09.09,0,1,1-.145.107,2.574,2.574,0,0,1-.487-1.54c.056-.643.018-.948-.122-.99a.12.12,0,0,0-.09.027,1.577,1.577,0,0,0-.427,1.1,4.791,4.791,0,0,0,.672,2.677.09.09,0,0,1-.075.141Z" transform="translate(-1847.255 -1194.899)" fill="#de8759"/>
        </g>
      </g>
      <g id="Grupo_69737" data-name="Grupo 69737" transform="translate(1.404 12.863)">
        <g id="Grupo_69736" data-name="Grupo 69736">
          <path id="Trazado_106420" data-name="Trazado 106420" d="M1839.836,1190.875a.091.091,0,0,1-.072-.036,5.6,5.6,0,0,1-.693-3.4c.073-.365.236-.587.438-.572.217.013.362.285.4.748a3.363,3.363,0,0,0,.358,1.3.09.09,0,0,1-.156.091,3.481,3.481,0,0,1-.382-1.382c-.033-.419-.155-.578-.229-.582s-.187.109-.25.427a5.47,5.47,0,0,0,.66,3.255.09.09,0,0,1-.072.144Z" transform="translate(-1839.026 -1186.868)" fill="#de8759"/>
        </g>
      </g>
      <g id="Grupo_69742" data-name="Grupo 69742" transform="translate(36.46 7.496)">
        <g id="Grupo_69739" data-name="Grupo 69739">
          <g id="Grupo_69738" data-name="Grupo 69738">
            <path id="Trazado_106421" data-name="Trazado 106421" d="M2120.123,1143.9a6.462,6.462,0,0,1,.646-.066,2.489,2.489,0,0,1,.389.056,1.776,1.776,0,0,1,.306-.056c.169,0,.735.066.735.066s-.2,1.089-1.037,1.089S2120.123,1143.9,2120.123,1143.9Z" transform="translate(-2120.123 -1143.833)" fill="#dd5850"/>
          </g>
        </g>
        <g id="Grupo_69741" data-name="Grupo 69741" transform="translate(0.016 0.086)">
          <g id="Grupo_69740" data-name="Grupo 69740">
            <path id="Trazado_106422" data-name="Trazado 106422" d="M2121.278,1144.708a4.072,4.072,0,0,0,1.016-.187,1.28,1.28,0,0,1-1.016.651,1.3,1.3,0,0,1-1.027-.651A4.214,4.214,0,0,0,2121.278,1144.708Z" transform="translate(-2120.251 -1144.521)" fill="#fff"/>
          </g>
        </g>
      </g>
      <g id="Grupo_69744" data-name="Grupo 69744" transform="translate(34.509 11.364)">
        <g id="Grupo_69743" data-name="Grupo 69743">
          <path id="Trazado_106423" data-name="Trazado 106423" d="M2112.2,1176.2s.08-1.392-.645-1.344c-.809.053-5.669.558-6.553.74-.849.175-.417,1.43-.417,1.43l3.9.608Z" transform="translate(-2104.476 -1174.853)" fill="#e58e91"/>
        </g>
      </g>
      <g id="Grupo_69746" data-name="Grupo 69746" transform="translate(43.429 4.912)">
        <g id="Grupo_69745" data-name="Grupo 69745">
          <path id="Trazado_106424" data-name="Trazado 106424" d="M2189.848,1131.447a3.3,3.3,0,0,1-3.256-1.757c-1.09-2.426-3.087-3.392-5.939-2.872a5.255,5.255,0,0,1-.94.09c-2.406,0-3.35-1.957-3.713-3.709a.067.067,0,0,1,.132-.027c.4,1.905,1.5,4.061,4.5,3.514,2.92-.533,4.968.459,6.086,2.949,1.1,2.45,4.684,1.5,4.72,1.488a.067.067,0,0,1,.036.13A6.911,6.911,0,0,1,2189.848,1131.447Z" transform="translate(-2175.999 -1123.119)" fill="#7e718f"/>
        </g>
      </g>
      <g id="Grupo_69748" data-name="Grupo 69748" transform="translate(46.461 9.918)">
        <g id="Grupo_69747" data-name="Grupo 69747">
          <path id="Trazado_106425" data-name="Trazado 106425" d="M2211.871,1170.256h0a3.872,3.872,0,0,1-3.016-2.235c-.974-2.056-2.613-2.3-5.206-2.517-2.834-.242-3.328-2.143-3.333-2.162a.067.067,0,0,1,.131-.032c0,.018.479,1.826,3.213,2.06,2.641.225,4.31.471,5.316,2.594a3.734,3.734,0,0,0,2.9,2.159.067.067,0,0,1,0,.135Z" transform="translate(-2200.311 -1163.258)" fill="#7e718f"/>
        </g>
      </g>
      <g id="Grupo_69761" data-name="Grupo 69761" transform="translate(26.706 29.477)">
        <g id="Grupo_69750" data-name="Grupo 69750" transform="translate(25.687 39.187)">
          <g id="Grupo_69749" data-name="Grupo 69749">
            <path id="Trazado_106426" data-name="Trazado 106426" d="M2253.547,1675.336l.385-32.778a4.6,4.6,0,0,1,1.989-3.733h0a2.654,2.654,0,0,0,1.142-2.349l-.118-1.9-2.967-.264-.1.729a1.3,1.3,0,0,1-1.233,1.113l-1.816.074a2.856,2.856,0,0,0-2.72,2.532C2247.584,1643.255,2247.462,1654.368,2253.547,1675.336Z" transform="translate(-2247.878 -1634.31)" fill="#ffbc82"/>
          </g>
        </g>
        <g id="Grupo_69752" data-name="Grupo 69752" transform="translate(25.529)">
          <g id="Grupo_69751" data-name="Grupo 69751">
            <path id="Trazado_106427" data-name="Trazado 106427" d="M2256.858,1360.332l-.9-3.219a21.6,21.6,0,0,0,11.661-17.1,18.887,18.887,0,0,0-5.234-15.521,14.559,14.559,0,0,0-5.025-3.269c-2.82-1.218-7.549-2.324-10.1,1.622-1.346,2.085-.334,6.388.527,10.89.72,3.751,1.388,8.08,1.961,10.944,1.257,6.293,2.619,15.367,2.619,15.367Zm-1.05-4.671-6.347-29.068a2.854,2.854,0,0,1,3.056-3.456,14.819,14.819,0,0,1,8.775,3.707c4.525,4.24,5.481,11,3.821,16.772A22.229,22.229,0,0,1,2255.808,1355.661Z" transform="translate(-2246.612 -1320.091)" fill="#7e718f"/>
          </g>
        </g>
        <g id="Grupo_69754" data-name="Grupo 69754" transform="translate(20.462 40.853)">
          <g id="Grupo_69753" data-name="Grupo 69753">
            <path id="Trazado_106428" data-name="Trazado 106428" d="M2224.149,1685.657l-12.426-30.335a4.6,4.6,0,0,0-3.224-2.739h0a2.652,2.652,0,0,1-1.926-1.764l-.59-1.811,2.661-1.338.366.639a1.3,1.3,0,0,0,1.557.581l1.716-.6a2.857,2.857,0,0,1,3.462,1.353C2217.882,1653.634,2222.087,1663.921,2224.149,1685.657Z" transform="translate(-2205.984 -1647.671)" fill="#fec89a"/>
          </g>
        </g>
        <g id="Grupo_69756" data-name="Grupo 69756" transform="translate(0 3.777)">
          <g id="Grupo_69755" data-name="Grupo 69755">
            <path id="Trazado_106429" data-name="Trazado 106429" d="M2065.774,1387.986s-2.074-8.938-3.222-15.252c-.522-2.874-1.5-7.145-2.207-10.9-.856-4.5-1.5-8.877-3.519-10.319-3.821-2.731-7.81.039-9.984,2.209a14.557,14.557,0,0,0-3.468,4.889,18.888,18.888,0,0,0,.849,16.358,21.6,21.6,0,0,0,17.138,11.607l.35,3.324Zm-17.893-10.585c-3.667-4.751-5.269-11.392-2.623-17a14.819,14.819,0,0,1,6.794-6.677,2.854,2.854,0,0,1,4.114,2.089l4.8,29.363A22.232,22.232,0,0,1,2047.881,1377.4Z" transform="translate(-2041.908 -1350.38)" fill="#7e718f"/>
          </g>
        </g>
        <g id="Grupo_69758" data-name="Grupo 69758" transform="translate(26.404 45.724)">
          <g id="Grupo_69757" data-name="Grupo 69757">
            <path id="Trazado_106430" data-name="Trazado 106430" d="M2255.85,1691.07a2.172,2.172,0,0,0,2.116-2.017c.005-.068.007-.139.006-.207s-.007-.135-.015-.2a2.173,2.173,0,0,0-4.325.1q-.008.1-.005.2c0,.068.007.139.015.206A2.175,2.175,0,0,0,2255.85,1691.07Z" transform="translate(-2253.626 -1686.724)" fill="#ffbc82"/>
          </g>
        </g>
        <g id="Grupo_69760" data-name="Grupo 69760" transform="translate(26.404 47.643)">
          <g id="Grupo_69759" data-name="Grupo 69759">
            <path id="Trazado_106431" data-name="Trazado 106431" d="M2253.641,1702.622l4.324-.1c.005-.068.007-.139.006-.207s-.007-.135-.015-.2l-4.325.1q-.008.1-.005.2C2253.628,1702.484,2253.633,1702.555,2253.641,1702.622Z" transform="translate(-2253.626 -1702.115)" fill="#fec89a"/>
          </g>
        </g>
      </g>
      <g id="Grupo_69763" data-name="Grupo 69763" transform="translate(42.318 11.743)">
        <g id="Grupo_69762" data-name="Grupo 69762">
          <path id="Trazado_106432" data-name="Trazado 106432" d="M2184.309,1198.252h0a4.312,4.312,0,0,0,.656-6.045l-10.226-12.716a4.312,4.312,0,0,0-6.044-.656h0a4.312,4.312,0,0,0-.656,6.045l10.226,12.716A4.312,4.312,0,0,0,2184.309,1198.252Z" transform="translate(-2167.094 -1177.891)" fill="#f7b897"/>
        </g>
      </g>
      <g id="Grupo_69765" data-name="Grupo 69765" transform="translate(33.03 24.869)">
        <g id="Grupo_69764" data-name="Grupo 69764">
          <path id="Trazado_106433" data-name="Trazado 106433" d="M2092.673,1295.233c-.2-.5,4.5-2.536,4.5-2.536-.485.1-4.364,1.447-4.535,1.02-.119-.3.658-.643,1.941-1.245,1.6-.75,3.141-1.074,3.045-1.35-.184-.524-2.643-.5-2.675-.8-.054-.508,1.006-.568,1.558-.569a21.1,21.1,0,0,1,3.183.049,4.7,4.7,0,0,0,2.5-.223,71.591,71.591,0,0,0,6.518-2.99c3.849-1.942,5.813-2.98,5.9-3.017l0,0a4.1,4.1,0,1,1,2.383,7.728l-.007,0c-1.833.376-11.548,1.952-12.723,2.294a24.531,24.531,0,0,0-3.786,1.413c-.63.311-4.418,1.823-4.7,1.623-.36-.253,2.99-2.179,2.99-2.179s-4.8,1.926-4.869,1.8c-.278-.515,3.222-2.045,4.089-2.635C2097.984,1293.62,2092.844,1295.652,2092.673,1295.233Z" transform="translate(-2092.621 -1283.137)" fill="#f7b897"/>
        </g>
      </g>
      <g id="Grupo_69767" data-name="Grupo 69767" transform="translate(41.911 11.731)">
        <g id="Grupo_69766" data-name="Grupo 69766">
          <path id="Trazado_106434" data-name="Trazado 106434" d="M2177.28,1185.707s-4.656,5.056-7.384,5.493c0,0-4.744-5.82-5.737-7.42s.327-5.363,3.408-5.865,3.893.59,5.008,1.73S2177.28,1185.707,2177.28,1185.707Z" transform="translate(-2163.833 -1177.789)" fill="#e58e91"/>
        </g>
      </g>
    </g>
  </g>
</svg>
