<svg xmlns="http://www.w3.org/2000/svg" width="106.374" height="106.374" viewBox="0 0 106.374 106.374">
  <g id="Grupo_70217" data-name="Grupo 70217" transform="translate(-998.204 -6652.423)">
    <circle id="Elipse_4475" data-name="Elipse 4475" cx="53" cy="53" r="53" transform="translate(998.204 6652.423)" fill="#25ced1"/>
    <g id="XMLID_1031_" transform="translate(998.204 6652.423)">
      <g id="XMLID_1564_" transform="translate(15.607 15.607)">
        <g id="XMLID_1185_">
          <ellipse id="XMLID_1207_" cx="37.58" cy="37.58" rx="37.58" ry="37.58" fill="#c0f0fb"/>
          <g id="XMLID_1187_" transform="translate(32.504 32.504)">
            <ellipse id="XMLID_1205_" cx="5.076" cy="5.076" rx="5.076" ry="5.076" fill="#ff7480"/>
          </g>
        </g>
      </g>
      <g id="XMLID_971_">
        <g id="XMLID_977_">
          <path id="XMLID_1030_" d="M95.024,20.347h3.287a2.076,2.076,0,0,0,0-4.152h-7.89a2.076,2.076,0,0,0-2.076,2.076v7.89a2.076,2.076,0,1,0,4.152,0V23.876A49.035,49.035,0,1,1,53.187,4.152a49.773,49.773,0,0,1,5.982.361,2.076,2.076,0,0,0,.5-4.122A53.942,53.942,0,0,0,53.187,0,53.187,53.187,0,0,0,15.578,90.8,53.186,53.186,0,0,0,95.024,20.347Z" fill="#0075a4"/>
          <path id="XMLID_1029_" d="M74.167,83a2.077,2.077,0,0,0-2.865.644A39.645,39.645,0,1,0,83.712,71.26a2.076,2.076,0,1,0,2.214,3.513,35.508,35.508,0,1,1-6.2,55.165,35.732,35.732,0,0,1-4.917-44.073A2.077,2.077,0,0,0,74.167,83Z" transform="translate(-51.646 -51.647)" fill="#0075a4"/>
          <path id="XMLID_1028_" d="M378.245,250.482h2.56a2.076,2.076,0,0,0,0-4.153h-2.56a2.076,2.076,0,0,0,0,4.153Z" transform="translate(-298.067 -195.186)" fill="#0075a4"/>
          <path id="XMLID_1004_" d="M103.835,248.082a2.076,2.076,0,0,0,2.076,2.076h2.56a2.076,2.076,0,1,0,0-4.152h-2.56A2.076,2.076,0,0,0,103.835,248.082Z" transform="translate(-82.276 -194.929)" fill="#0075a4"/>
          <path id="XMLID_1001_" d="M250.482,108.472v-2.56a2.076,2.076,0,0,0-4.153,0v2.56a2.076,2.076,0,0,0,4.153,0Z" transform="translate(-195.186 -82.276)" fill="#0075a4"/>
          <path id="XMLID_1415_" d="M246.006,378.245v2.56a2.076,2.076,0,0,0,4.152,0v-2.56a2.076,2.076,0,0,0-4.152,0Z" transform="translate(-194.929 -298.067)" fill="#0075a4"/>
          <path id="XMLID_996_" d="M192.517,162.25a2.076,2.076,0,0,0-2.936,2.936l7.037,7.037a7.153,7.153,0,1,0,12.614,0l14.2-14.2a2.076,2.076,0,0,0-2.936-2.936l-14.2,14.2a7.138,7.138,0,0,0-6.741,0Zm13.407,13.343a3,3,0,1,1-3-3A3,3,0,0,1,205.924,175.594Z" transform="translate(-149.737 -122.407)" fill="#0075a4"/>
          <path id="XMLID_980_" d="M121.722,121.722a2.075,2.075,0,1,0-1.468.608A2.085,2.085,0,0,0,121.722,121.722Z" transform="translate(-93.641 -93.641)" fill="#0075a4"/>
          <path id="XMLID_979_" d="M317.514,14.03a2.077,2.077,0,1,0-1.468-.608A2.084,2.084,0,0,0,317.514,14.03Z" transform="translate(-249.945 -7.827)" fill="#0075a4"/>
        </g>
      </g>
    </g>
  </g>
</svg>
