<svg xmlns="http://www.w3.org/2000/svg" width="72.617" height="71.452" viewBox="0 0 72.617 71.452">
  <g id="Grupo_78245" data-name="Grupo 78245" transform="translate(-632.383 -4776.259)">
    <g id="Grupo_70761" data-name="Grupo 70761" transform="translate(632.383 4776.259)">
      <g id="Grupo_70760" data-name="Grupo 70760" transform="translate(0 18.635)">
        <path id="Trazado_107950" data-name="Trazado 107950" d="M2733.936,1199.875c0,10.655-4.957,16.623-13.835,16.623-8.832,0-13.787-5.968-13.787-16.623s4.955-16.575,13.787-16.575C2728.979,1183.3,2733.936,1189.22,2733.936,1199.875Zm-25.513,0c0,9.615,4.125,14.823,11.678,14.823,7.6,0,11.726-5.209,11.726-14.823,0-9.66-4.122-14.774-11.726-14.774C2712.548,1185.1,2708.423,1190.215,2708.423,1199.875Z" transform="translate(-2706.314 -1183.3)" fill="#ff8a5b"/>
        <path id="Trazado_107951" data-name="Trazado 107951" d="M2808.762,1197.747c6.672.143,11.089,3.315,11.089,8.763,0,5.966-4.466,10.086-11.627,10.086a18.7,18.7,0,0,1-10.106-2.984l.979-1.7a15.886,15.886,0,0,0,9.026,2.841c6.083,0,9.715-3.363,9.664-8.1,0-4.783-3.677-7.291-9.76-7.291h-3.73v-1.423l11.284-12.547h-16.043v-1.942h18.69v1.515l-11.48,12.741Z" transform="translate(-2766.666 -1183.398)" fill="#ff8a5b"/>
      </g>
      <rect id="Rectángulo_8801" data-name="Rectángulo 8801" width="1.732" height="71.452" transform="translate(70.886 0)" fill="#a3a3a3"/>
    </g>
  </g>
</svg>
