<svg xmlns="http://www.w3.org/2000/svg" width="74.614" height="71.452" viewBox="0 0 74.614 71.452">
  <g id="Grupo_78249" data-name="Grupo 78249" transform="translate(-630.386 -5136.572)">
    <g id="Grupo_70768" data-name="Grupo 70768" transform="translate(703.268 5136.572)">
      <rect id="Rectángulo_8805" data-name="Rectángulo 8805" width="1.732" height="71.452" transform="translate(0 0)" fill="#a3a3a3"/>
    </g>
    <g id="Grupo_70775" data-name="Grupo 70775" transform="translate(630.386 5155.047)">
      <path id="Trazado_107975" data-name="Trazado 107975" d="M2728.145,2288.949c0,10.67-4.962,16.644-13.854,16.644-8.843,0-13.8-5.974-13.8-16.644s4.962-16.6,13.8-16.6C2723.183,2272.35,2728.145,2278.279,2728.145,2288.949Zm-25.548,0c0,9.625,4.127,14.841,11.693,14.841,7.616,0,11.741-5.216,11.741-14.841,0-9.675-4.125-14.8-11.741-14.8C2706.724,2274.153,2702.6,2279.274,2702.6,2288.949Z" transform="translate(-2700.486 -2272.35)" fill="#ff8a5b"/>
      <path id="Trazado_107976" data-name="Trazado 107976" d="M2801.783,2305.641h-2.21l14.936-31.2h-18.67v5.123h-1.867v-7.068h22.7v1.944Z" transform="translate(-2761.943 -2272.445)" fill="#ff8a5b"/>
    </g>
  </g>
</svg>
