<svg xmlns="http://www.w3.org/2000/svg" xmlns:xlink="http://www.w3.org/1999/xlink" width="97" height="97" viewBox="0 0 97 97">
  <defs>
    <clipPath id="clip-path">
      <circle id="Elipse_4498" data-name="Elipse 4498" cx="42.5" cy="42.5" r="42.5" transform="translate(186 3996)" fill="#ea526f"/>
    </clipPath>
  </defs>
  <g id="Grupo_70738" data-name="Grupo 70738" transform="translate(-390 -3990)">
    <g id="Elipse_4490" data-name="Elipse 4490" transform="translate(390 3990)" fill="#fff" stroke="#25ced1" stroke-width="4">
      <circle cx="48.5" cy="48.5" r="48.5" stroke="none"/>
      <circle cx="48.5" cy="48.5" r="46.5" fill="none"/>
    </g>
    <g id="Enmascarar_grupo_74" data-name="Enmascarar grupo 74" transform="translate(210)" clip-path="url(#clip-path)">
      <g id="Grupo_70719" data-name="Grupo 70719" transform="translate(-187.605 3853.826)">
        <path id="Trazado_107815" data-name="Trazado 107815" d="M462.234,179.261c-3.375.176-.291,5.427-2.138,9.677-1.122,2.584-4.819,5.535-4.819,5.535l1.881.873c3.18-1.495,6.274-2.633,7.137-5.318S465.61,179.084,462.234,179.261Z" transform="translate(-42.961 -20.321)" fill="#dbc29e"/>
        <path id="Trazado_107816" data-name="Trazado 107816" d="M430.617,290.964c2.412-3.032.045-6.66-4.465-6.2a24.842,24.842,0,0,0-4.742.913l-17.781-10.219-19.448,11.3,41.227,23.689,19.448-11.3Z" transform="translate(-0.575 -77.672)" fill="#e6e6e6" style="mix-blend-mode: multiply;isolation: isolate"/>
        <g id="Grupo_70693" data-name="Grupo 70693" transform="translate(414.947 145.174)">
          <path id="Trazado_107817" data-name="Trazado 107817" d="M485.212,149.732c-.3-6.179-3.822-5.04-4.568-2.615l1.8,3.781c2.4,2.928,1.723,7.693.83,10.26C485.262,159.355,485.51,155.91,485.212,149.732Z" transform="translate(-473.031 -145.174)"/>
          <g id="Grupo_70689" data-name="Grupo 70689" transform="translate(4.504 58.741)">
            <path id="Trazado_107818" data-name="Trazado 107818" d="M475.157,294.468a22.62,22.62,0,0,0,1.73-2.666l1.97-1.112.217-.05v4.446a12.014,12.014,0,0,0-1.189.853c-2.363,1.928-4.64,2.427-4.914,1.533S474.812,294.865,475.157,294.468Z" transform="translate(-472.946 -290.64)" fill="#e8ac15"/>
          </g>
          <path id="Trazado_107819" data-name="Trazado 107819" d="M466.167,227.132l6.362-.155s-1.815,9.148-2.463,10.16c-.4.625-3.048,4.55-2.79,5.056s3,.187,5.445,10.949c-.6,1.3-.678,1.668-2.089,1.385.117-1.786-7.218-9.639-8.057-11.327S464.805,229.632,466.167,227.132Z" transform="translate(-462.173 -193.944)" fill="#b58c74"/>
          <path id="Trazado_107820" data-name="Trazado 107820" d="M481.418,282.67c.325,1.055.649,2.268.969,3.676-.6,1.3-.678,1.668-2.089,1.385.037-.559-.657-1.711-1.652-3.083A7.637,7.637,0,0,0,481.418,282.67Z" transform="translate(-471.841 -227.147)" fill="#ebebeb"/>
          <g id="Grupo_70690" data-name="Grupo 70690" transform="translate(2.733 63.79)">
            <path id="Trazado_107821" data-name="Trazado 107821" d="M477.21,303.836c-1.289-1.661-3.042-.026-4.877,1.694a10.163,10.163,0,0,1-2.2,1.318c-1.5.759-2.456,2.393-.384,2.99a6.374,6.374,0,0,0,5.459-.6,20.609,20.609,0,0,1,2.3-1.026,7.594,7.594,0,0,0,.3-3.059A3.435,3.435,0,0,0,477.21,303.836Z" transform="translate(-468.559 -303.144)" fill="#ffcd40"/>
          </g>
          <path id="Trazado_107822" data-name="Trazado 107822" d="M482.053,227.309a42.925,42.925,0,0,1-7.871-1.343c-.644,5.459,2.13,6.2,3.453,19.373.241,2.4.5,11.114.05,12.42.873,1.15,1.176,1.617,2.682.854,1.032-2.047,2.7-9.024,1.855-14.841C480.848,234.213,483.937,231.878,482.053,227.309Z" transform="translate(-469.122 -193.341)" fill="#d4a488"/>
          <path id="Trazado_107823" data-name="Trazado 107823" d="M483,295.431a33.768,33.768,0,0,0,.225-6.277,10.72,10.72,0,0,0,4.141.759,24.878,24.878,0,0,1-1.683,6.372C484.173,297.048,483.871,296.581,483,295.431Z" transform="translate(-474.435 -231.013)" fill="#fff"/>
          <path id="Trazado_107824" data-name="Trazado 107824" d="M475.708,204.119a17.667,17.667,0,0,0,.158-4.954c-.445-2.318-1.585-4.593-2.051-6.87.1-.511.166-.934.2-1.243q-.2-.041-.384-.1c-.233-3.6,2.387-5.966,2.046-9.665-.172-1.862-5.607-4.732-8.832-4.107.025-.022.049-.048.075-.069a2.5,2.5,0,0,0-1.389.612,14.882,14.882,0,0,0-1.733,4.685c-.326,1.292-1.213,4.578.807,5.281,0,0,1.774,8.729-2.813,19.3a5.407,5.407,0,0,0,.526.523c-.078,1.084-.155,2.1-.267,2.992,4.146,4.261,11.841,2.672,13.805,1.759C475.58,211.638,475.173,209.071,475.708,204.119Z" transform="translate(-461.792 -164.207)" fill="#0075a4"/>
          <g id="Grupo_70692" data-name="Grupo 70692" transform="translate(0.928 1.723)">
            <path id="Trazado_107825" data-name="Trazado 107825" d="M479.131,149.79c-.224.414.114,1.025.748,1.368s1.332.284,1.556-.126-.116-1.027-.752-1.366S479.351,149.379,479.131,149.79Z" transform="translate(-473.016 -149.441)" fill="#7f7f7f"/>
            <path id="Trazado_107826" data-name="Trazado 107826" d="M478.05,167.966a6.843,6.843,0,0,0,.546,2.808,3.254,3.254,0,0,1-3.033,1.612c-1.213-.3-1.627-2.263-1.712-3.275l2.448-4.158Z" transform="translate(-469.909 -158.689)" fill="#dbc29e"/>
            <path id="Trazado_107827" data-name="Trazado 107827" d="M464.266,157.911c-.153-1.038.268-.228.268-.228l5.391-1.222,1.421,2.472c.1,3.063-.808,6.791-3.52,7.049-1.384.131-2.777-3.684-3.176-5.9C464.423,158.824,464.266,157.911,464.266,157.911Z" transform="translate(-464.175 -153.626)" fill="#f2ddbb"/>
            <g id="Grupo_70691" data-name="Grupo 70691" transform="translate(0.233 5.965)">
              <path id="Trazado_107828" data-name="Trazado 107828" d="M469.45,171.7c-1.134.084-.686-.115-.921-.774,0,.04-.055.586-.052.626a.329.329,0,0,0,.249.28.539.539,0,0,0,.11.012A1.156,1.156,0,0,0,469.45,171.7Z" transform="translate(-466.939 -168.215)" fill="#936a55"/>
              <path id="Trazado_107829" data-name="Trazado 107829" d="M470.222,176.268a1.236,1.236,0,0,0,1.313-.276A2.428,2.428,0,0,1,470.222,176.268Z" transform="translate(-467.979 -171.236)" fill="#936a55"/>
              <path id="Trazado_107830" data-name="Trazado 107830" d="M469.816,164.748a.154.154,0,0,1,.038-.233,1.972,1.972,0,0,1,1.186-.3,2.241,2.241,0,0,1,1.221.526,2.139,2.139,0,0,0-1.224-.35,1.76,1.76,0,0,0-.993.383A.163.163,0,0,1,469.816,164.748Z" transform="translate(-467.714 -164.214)" fill="#262626"/>
              <path id="Trazado_107831" data-name="Trazado 107831" d="M465.7,165.2a.153.153,0,0,1-.214.038.908.908,0,0,0-.375-.21c-.183-.064-.37.08-.444.292a.633.633,0,0,1,.12-.314.46.46,0,0,1,.336-.153,1.212,1.212,0,0,1,.523.127A.142.142,0,0,1,465.7,165.2Z" transform="translate(-464.667 -164.597)" fill="#262626"/>
            </g>
            <path id="Trazado_107832" data-name="Trazado 107832" d="M464.865,157.565c-.954-2.129-1.614-5.175,1.7-6.911,2.234-1.171,5.3-1.021,6.1,2.232.755,3.038-.465,3.936-.39,6.929a3.02,3.02,0,0,1-1.043-2.2c-.14-.712-.807-1.105-.888-.694s-.421,1.558-1.05-.674-2.221-2.578-3.2-2.441-1.841.237-1.665,1.491A19.113,19.113,0,0,0,464.865,157.565Z" transform="translate(-464.09 -149.766)" fill="#262626"/>
            <path id="Trazado_107833" data-name="Trazado 107833" d="M481.206,164.785a.916.916,0,0,0-.786-1.012.905.905,0,0,0-.846.952c-.005.126-.019.62-.022.769-.018.535.222.977.533.988C480.689,166.5,481.195,165.2,481.206,164.785Z" transform="translate(-473.308 -157.986)" fill="#f2ddbb"/>
          </g>
        </g>
        <g id="Grupo_70694" data-name="Grupo 70694" transform="translate(401.393 171.231)">
          <path id="Trazado_107834" data-name="Trazado 107834" d="M430.145,209.705l-.081,28.485a.444.444,0,0,1-.267.363,1.387,1.387,0,0,1-1.294,0,.443.443,0,0,1-.274-.369l.081-28.484a.461.461,0,0,0,.271.374,1.408,1.408,0,0,0,1.3,0,.447.447,0,0,0,.269-.37Z" transform="translate(-428.228 -209.701)" fill="#efefef"/>
        </g>
        <g id="Grupo_70695" data-name="Grupo 70695" transform="translate(440.113 193.471)" style="isolation: isolate">
          <path id="Trazado_107835" data-name="Trazado 107835" d="M526.029,264.779l-.081,28.484a.463.463,0,0,1-.267.371,1.43,1.43,0,0,1-1.3,0,.462.462,0,0,1-.272-.376l.08-28.482a.45.45,0,0,0,.275.374,1.385,1.385,0,0,0,1.292,0,.448.448,0,0,0,.269-.371Z" transform="translate(-524.113 -264.777)" fill="#efefef"/>
        </g>
        <g id="Grupo_70696" data-name="Grupo 70696" transform="translate(385.586 180.42)" style="isolation: isolate">
          <path id="Trazado_107836" data-name="Trazado 107836" d="M391,232.458l-.08,28.483a.459.459,0,0,1-.265.373,1.448,1.448,0,0,1-1.3,0,.459.459,0,0,1-.27-.38l.079-28.477a.458.458,0,0,0,.271.371,1.4,1.4,0,0,0,1.3,0,.455.455,0,0,0,.268-.37Z" transform="translate(-389.083 -232.457)" fill="#efefef"/>
        </g>
        <g id="Grupo_70697" data-name="Grupo 70697" transform="translate(424.304 202.655)" style="isolation: isolate">
          <path id="Trazado_107837" data-name="Trazado 107837" d="M486.881,287.525,486.8,316.01a.46.46,0,0,1-.271.371,1.425,1.425,0,0,1-1.3,0,.457.457,0,0,1-.269-.378l.08-28.485a.457.457,0,0,0,.27.377,1.412,1.412,0,0,0,1.3,0,.453.453,0,0,0,.269-.372Z" transform="translate(-484.964 -287.519)" fill="#efefef"/>
        </g>
        <g id="Grupo_70698" data-name="Grupo 70698" transform="translate(383.217 168.918)">
          <path id="Trazado_107838" data-name="Trazado 107838" d="M504.762,262.649l0,1.434-19.447,11.3,0-1.436Z" transform="translate(-444.085 -238.955)" fill="#76abb8"/>
          <path id="Trazado_107839" data-name="Trazado 107839" d="M424.448,255.65l0,1.436L383.217,233.4V231.96Z" transform="translate(-383.217 -220.659)" fill="#86c3d1"/>
          <path id="Trazado_107840" data-name="Trazado 107840" d="M443.893,227.668l-19.445,11.3-41.231-23.689,19.448-11.3Z" transform="translate(-383.217 -203.975)" fill="#a8d8e5"/>
        </g>
        <path id="Trazado_107841" data-name="Trazado 107841" d="M445.37,248.706l1.692,8.231,3.32,1.907v-1.438l14.71-9.792v-.537L451,245.624Z" transform="translate(-37.055 -59.887)" fill="#e6e6e6" style="mix-blend-mode: multiply;isolation: isolate"/>
        <g id="Grupo_70704" data-name="Grupo 70704" transform="translate(388.379 173.344)">
          <path id="Trazado_107842" data-name="Trazado 107842" d="M402.2,225.9a5.625,5.625,0,0,0-5.1-.051c-1.43.8-1.462,2.126-.072,2.956a5.623,5.623,0,0,0,5.1.052C403.555,228.052,403.588,226.729,402.2,225.9Z" transform="translate(-396 -221.09)" fill="#cecece" style="mix-blend-mode: multiply;isolation: isolate"/>
          <g id="Grupo_70699" data-name="Grupo 70699" transform="translate(4.083 0)">
            <path id="Trazado_107843" data-name="Trazado 107843" d="M406.948,216.267a.206.206,0,0,1-.18-.047.067.067,0,0,1-.023-.06l-.632,2.779a.03.03,0,0,0,.012.029.1.1,0,0,0,.087.023.032.032,0,0,0,.026-.021l.762-2.746A.066.066,0,0,1,406.948,216.267Z" transform="translate(-406.112 -215.665)" fill="#e5e5e5"/>
            <path id="Trazado_107844" data-name="Trazado 107844" d="M407.978,215.3a.068.068,0,0,1,0-.009c0-.006,0-.013,0-.023v-.024a.214.214,0,0,0,0-.024h0c0-.006,0-.013,0-.025l-.005-.023c0-.013-.009-.028-.013-.04l-.01-.021-.012-.022-.009-.014-.008-.01c0-.006-.011-.013-.015-.019l-.014-.015-.011-.01a.078.078,0,0,0-.015-.013l-.006,0-.015-.011-.014-.009-.015-.008-.014-.007h0l-.007,0-.007,0-.013,0a.088.088,0,0,0-.014,0l-.013,0-.014,0-.014,0-.015,0h-.064l-.017,0-.021,0-.019,0-.025.008-.019.008c-.01,0-.021.01-.03.015l-.019.011-.028.022,0,0h0l-.016.016a.332.332,0,0,0-.031.038l-.013.02a.22.22,0,0,0-.017.034.093.093,0,0,0-.007.016l0,.006-.008.023v0l0,.007h0l0,.019c0,.008,0,.019,0,.026v.019c0,.008,0,.018,0,.026l0,.019.005.025.006.019a.256.256,0,0,0,.009.027l.008.017a.2.2,0,0,0,.015.027l.01.016.023.029.013.013.018.017.013.01.016.011.014.009,0,0,.006,0,0,0,.014.007.013.006h0l.01,0h0l.013,0,.014,0,.007,0h.007l.013,0,.015,0,.015,0h.05l.016,0,.023,0,.018,0h0l.032-.01.017-.008.027-.015.017-.01.021-.017.005,0,.007-.006,0,0,.018-.019h0a.082.082,0,0,1,.008-.01l0,0a.067.067,0,0,1,.008-.012.12.12,0,0,1,.01-.015l.007-.011a.034.034,0,0,1,0-.01l0-.006,0-.006.007-.018,0-.014.006-.019A.181.181,0,0,0,407.978,215.3Z" transform="translate(-406.855 -214.935)" fill="#c93939"/>
          </g>
          <g id="Grupo_70700" data-name="Grupo 70700" transform="translate(0.804 0.741)">
            <path id="Trazado_107845" data-name="Trazado 107845" d="M398.876,218.011a.205.205,0,0,1-.176.062.065.065,0,0,1-.052-.036l1.033,2.656a.031.031,0,0,0,.025.018.1.1,0,0,0,.085-.03.03.03,0,0,0,.009-.031l-.906-2.7A.066.066,0,0,1,398.876,218.011Z" transform="translate(-398.382 -217.472)" fill="#e5e5e5"/>
            <path id="Trazado_107846" data-name="Trazado 107846" d="M398.587,216.949l0-.007-.011-.021,0,0,0,0-.008-.013a.153.153,0,0,0-.015-.019h0l-.017-.019-.017-.017-.034-.025-.019-.011-.022-.011-.015-.006-.013-.005-.022-.006-.019,0-.015,0-.021,0h-.059l-.015,0h-.016l-.014,0a.06.06,0,0,0-.014,0l-.013,0-.013.006-.014,0-.013.007-.013.007-.014.008-.013.009-.014.011-.013.011-.016.015-.012.014-.017.022-.012.017c-.005.009-.01.02-.015.028l-.009.02c0,.011-.008.023-.01.034v0l0,.022a.372.372,0,0,0,0,.048v.024a.284.284,0,0,0,.006.038l0,.016,0,.007.007.023h0l0,.007h0l.008.019.013.023.01.016.015.021.012.013.019.019.015.013.022.017.017.01a.18.18,0,0,0,.027.014l.017.008.035.01.017,0,.025,0h.069l.016,0,.014,0h0l.01,0h0l.014,0,.014,0,.006,0,.005,0h0l.012-.005.014-.006.013-.007.014-.009.013-.008.015-.011.013-.011.017-.016.012-.013v0h0l0,0c.007-.009.014-.018.02-.027l.01-.016.014-.027.007-.017c0-.008.007-.019.009-.027l0-.007a.048.048,0,0,0,0-.008v0c0-.008,0-.018,0-.026v0a.123.123,0,0,0,0-.013v-.005a.07.07,0,0,1,0-.013.137.137,0,0,0,0-.019v-.013s0-.008,0-.012v-.014l0-.02,0-.014-.006-.019A.18.18,0,0,0,398.587,216.949Z" transform="translate(-397.99 -216.77)" fill="#c93939"/>
          </g>
          <g id="Grupo_70701" data-name="Grupo 70701" transform="translate(5.643 1.891)">
            <path id="Trazado_107847" data-name="Trazado 107847" d="M411.623,220.842a.2.2,0,0,1-.156-.1.065.065,0,0,1,0-.064l-1.486,2.433a.035.035,0,0,0,0,.031.1.1,0,0,0,.076.05.031.031,0,0,0,.03-.012l1.6-2.358A.066.066,0,0,1,411.623,220.842Z" transform="translate(-409.975 -220.248)" fill="#e5e5e5"/>
            <path id="Trazado_107848" data-name="Trazado 107848" d="M414.055,220.075a.031.031,0,0,1,0-.007l.01-.022,0,0v-.005l0-.014c0-.01,0-.015.007-.023h0c0-.006,0-.013,0-.025l0-.023a.276.276,0,0,0,0-.041l0-.023c0-.008,0-.017,0-.025a.135.135,0,0,0,0-.016l0-.013c0-.007-.006-.015-.009-.022l-.008-.019a.085.085,0,0,1-.008-.013l-.01-.018,0-.005-.01-.015-.011-.013-.011-.013-.011-.011h0l0,0,0,0-.011-.01-.012-.008-.013-.008-.011-.008-.013-.007-.013-.007-.014-.006-.015-.006-.015,0-.017,0-.017,0-.022,0-.019,0h-.048l-.032,0-.021.006-.033.011,0,0h0l-.021.01a.325.325,0,0,0-.042.026l-.018.014-.028.028a.063.063,0,0,1-.01.012l0,.006-.013.02h0l0,.007h0l-.01.017-.011.023-.007.019c0,.007,0,.017-.007.024l0,.019c0,.008,0,.019,0,.027v.019c0,.009,0,.02,0,.029v.019l0,.03.005.018a.289.289,0,0,0,.013.036l.007.017.012.021.009.015.012.016.009.013,0,0,0,0,0,0,.01.01.011.01h0l.008.006,0,0,.011.009.012.008.006,0,0,0,0,0,.013.007.013.006.013.006.015.006.015,0,.018.006.016,0,.023,0,.017,0h.038l.019,0,.031-.005.018,0,.026-.01.007,0,.008,0h0l.023-.012h0l.011-.007.005,0,.011-.008.014-.011.01-.009a.038.038,0,0,0,.009-.008l0,0,.005,0,.013-.015.009-.011.011-.017Z" transform="translate(-412.058 -219.617)" fill="#c93939"/>
          </g>
          <path id="Trazado_107849" data-name="Trazado 107849" d="M402.323,229.729a5.224,5.224,0,0,1-4.742-.048,1.654,1.654,0,0,1-.948-1.358l0,.688a1.654,1.654,0,0,0,.948,1.359,5.231,5.231,0,0,0,4.743.048,1.691,1.691,0,0,0,1.016-1.389l0-.687A1.689,1.689,0,0,1,402.323,229.729Z" transform="translate(-396.376 -222.917)" fill="#f7b523"/>
          <path id="Trazado_107850" data-name="Trazado 107850" d="M403.319,223.021l-.041-.261c-.026-.119-.069-.275-.1-.393l-.09-.24c-.022-.051-.05-.109-.079-.168-.019-.039-.038-.077-.057-.114l-.051-.1-.133-.21c-.031-.043-.068-.091-.106-.14-.025-.031-.048-.063-.073-.092-.039-.048-.078-.1-.112-.137l-.166-.169a3.412,3.412,0,0,0-.406-.329l-.185-.118c-.067-.042-.14-.081-.215-.12h0c-.051-.025-.1-.05-.159-.073l-.019-.009-.055-.023-.067-.026-.067-.026-.077-.025-.015,0-.078-.026-.169-.046-.159-.035-.157-.027-.154-.019c-.045,0-.105-.009-.151-.012l-.151,0-.15,0-.077,0-.046,0-.027,0c-.046,0-.108.01-.155.016h-.007c-.03,0-.059.009-.089.012l-.059.009-.054.011-.1.02-.011,0-.114.029-.134.038-.1.03-.031.012c-.033.012-.066.023-.1.036l-.042.015c-.033.013-.07.03-.108.046l-.071.032-.033.015-.18.094c-.079.045-.161.095-.242.15l0,0h0a3.19,3.19,0,0,0-1.017,1.1,3.135,3.135,0,0,0-.227.478l-.081.244a3.494,3.494,0,0,0-.122.66c0,.08-.008.187-.011.268a1.654,1.654,0,0,0,.948,1.358,5.224,5.224,0,0,0,4.742.048,1.689,1.689,0,0,0,1.016-1.387C403.34,223.3,403.328,223.142,403.319,223.021Z" transform="translate(-396.378 -217.999)" fill="#ffe845"/>
          <g id="Grupo_70702" data-name="Grupo 70702" transform="translate(2.367 1.937)">
            <path id="Trazado_107851" data-name="Trazado 107851" d="M402.341,220.191l.341,2.019a.034.034,0,0,0,.021.023.1.1,0,0,0,.09-.013.033.033,0,0,0,.016-.029l-.242-2Z" transform="translate(-402.148 -220.005)" fill="#e5e5e5"/>
            <path id="Trazado_107852" data-name="Trazado 107852" d="M402.479,219.97a.056.056,0,0,0,0-.008l-.006-.023v0l0,0,0-.014a.155.155,0,0,0-.01-.022h0l-.013-.022-.013-.019c-.008-.01-.019-.023-.028-.031l-.016-.016-.02-.015-.013-.01-.012-.007-.021-.011-.019-.008-.013-.005-.019-.006-.006,0-.019,0-.017,0-.016,0h-.06l-.015,0-.014,0-.014,0-.014,0-.014,0-.016.006-.015.006-.016.008-.015.008-.019.012-.015.011-.02.018-.015.014-.021.025-.013.018c-.006.009-.012.021-.018.03v.005l-.009.02a.172.172,0,0,0-.014.046l0,.023a.244.244,0,0,0,0,.039v.022l0,.024v0a.02.02,0,0,0,0,.008h0l0,.019.007.024.007.018c0,.008.008.017.01.024l.01.017a.235.235,0,0,0,.015.023l.011.015.019.021.014.013.024.019.015.011c.01.007.022.013.032.019l.017.007.023.008.017.006.018,0,.017,0h.017l.015,0h.043l.015,0h.014l.015,0,.014,0,.014,0,.016-.006.014-.006.017-.008.015-.008.019-.013.014-.01,0,0h0l.025-.023.013-.013.02-.025.01-.015.014-.025,0-.007,0-.008v0l.009-.024v0a.059.059,0,0,0,0-.012l0,0,0-.014a.134.134,0,0,0,0-.018l0-.013a.05.05,0,0,1,0-.011v-.049l0-.02Z" transform="translate(-401.862 -219.731)" fill="#c93939"/>
          </g>
          <g id="Grupo_70703" data-name="Grupo 70703" transform="translate(4.648 2.407)">
            <path id="Trazado_107853" data-name="Trazado 107853" d="M408.176,221.254l-.666,1.935a.031.031,0,0,0,.008.03.1.1,0,0,0,.084.032.034.034,0,0,0,.027-.018l.745-1.872Z" transform="translate(-407.509 -221.109)" fill="#e5e5e5"/>
            <path id="Trazado_107854" data-name="Trazado 107854" d="M409.118,221.291a.03.03,0,0,1,0-.008c0-.006,0-.012.005-.023v-.009l0-.015c0-.01,0-.015,0-.024h0c0-.006,0-.012,0-.025l0-.022c0-.013-.006-.029-.009-.042l-.007-.021-.01-.023-.007-.015-.006-.012-.014-.02-.012-.017-.01-.011a.078.078,0,0,0-.013-.015l0-.005-.014-.013-.013-.01-.014-.01-.013-.009h0l-.006,0-.006,0-.013-.007a.082.082,0,0,0-.013-.006l-.013-.005-.013,0-.014,0-.015,0-.014,0-.016,0-.016,0h-.057l-.019,0-.027.005-.019.006-.031.011-.02.01-.03.019h0l0,0-.018.014a.309.309,0,0,0-.034.034l-.015.018c-.01.015-.014.022-.02.032l-.008.015,0,.006-.009.022v0a.058.058,0,0,1,0,.008h0l-.006.019,0,.025,0,.019c0,.008,0,.018,0,.025v.02c0,.008,0,.018,0,.027l0,.019a.161.161,0,0,0,.006.027l.006.018.011.028.009.017c.006.011.013.021.019.032l.011.013.017.019.012.012.015.013.012.01,0,0,0,0,0,0,.012.008.014.008h0l.009,0h0l.014.006.013.006.006,0,.005,0h0l.013,0,.014,0,.015,0,.016,0h.016l.018,0h.039l.018,0h0l.034-.008.018-.006.029-.011.016-.008.024-.015.006,0,.007,0,0,0,.02-.017h0l.009-.01,0,0,.008-.01.012-.014.008-.01a.052.052,0,0,0,.006-.01l0-.006,0-.006.01-.018.007-.014.007-.018A.073.073,0,0,0,409.118,221.291Z" transform="translate(-408.104 -220.896)" fill="#c93939"/>
          </g>
        </g>
        <g id="Grupo_70714" data-name="Grupo 70714" transform="translate(419.061 191.527)">
          <path id="Trazado_107855" data-name="Trazado 107855" d="M484.949,260.4l-.119.032a9.729,9.729,0,0,0-.985.361,4.493,4.493,0,0,0,.553-.515l.124-.155h-.2a.848.848,0,0,0-.129.009l-.018,0-.017.009-.255.147-.143.083-.088-.021-.032.018c-.644.358-1.946,1.1-3.434,2.045-1.174.547-2.182,1.03-2.479,1.173l-2.381.7a1.493,1.493,0,0,1-.428.056,4.253,4.253,0,0,1-.89-.125,2.471,2.471,0,0,0-.526-.055,2.147,2.147,0,0,0-1.06.256.713.713,0,0,0,.006,1.338,2.327,2.327,0,0,0,2.121,0,.871.871,0,0,0,.448-.533.665.665,0,0,1,.527-.53c.7-.177,1.709-.431,2.567-.638l.282-.068c-.394.557-.886,1.218-1.163,1.588-.085.112-.32.257-.967.309a2.037,2.037,0,0,0-.853.248.713.713,0,0,0,.006,1.338,2.327,2.327,0,0,0,2.121,0,.876.876,0,0,0,.447-.531.608.608,0,0,0-.094-.483c-.2-.3-.279-.5-.128-.676l1.2-1.377c.085-.059.687-.483,1.5-1.071h0l.053-.038.443-.321c.8-.428,2.356-1.274,3.8-2.168a.391.391,0,0,0,.164-.183.279.279,0,0,0,.02-.1Zm-10.643,5.1a1.765,1.765,0,0,1-1.591,0,.424.424,0,0,1-.006-.812,1.769,1.769,0,0,1,1.592,0,.511.511,0,0,1,.3.408A.5.5,0,0,1,474.306,265.5Zm2.967,1.713a1.768,1.768,0,0,1-1.592,0,.509.509,0,0,1-.3-.407.5.5,0,0,1,.3-.405,1.766,1.766,0,0,1,1.591,0,.509.509,0,0,1,.3.408A.5.5,0,0,1,477.273,267.209Z" transform="translate(-471.98 -260.056)" fill="#e7e7e7" style="mix-blend-mode: multiply;isolation: isolate"/>
          <g id="Grupo_70705" data-name="Grupo 70705" transform="translate(12.86 0.212)" style="isolation: isolate">
            <path id="Trazado_107856" data-name="Trazado 107856" d="M503.842,260.488v.233a.173.173,0,0,1-.014.065v-.233a.169.169,0,0,0,.014-.065Z" transform="translate(-503.827 -260.488)" fill="#cbcbcb"/>
          </g>
          <path id="Trazado_107857" data-name="Trazado 107857" d="M488.487,263.018l-1.215.592-.031.016a.252.252,0,0,0-.147.2v.234a.251.251,0,0,1,.147-.2l.031-.016,1.214-.592c.2-.1,3.666-1.756,5.365-2.368v-.233C492.152,261.262,488.688,262.921,488.487,263.018Z" transform="translate(-480.99 -260.372)" fill="#d2d2d2"/>
          <g id="Grupo_70706" data-name="Grupo 70706" transform="translate(6.103 3.458)" style="isolation: isolate">
            <path id="Trazado_107858" data-name="Trazado 107858" d="M487.094,268.532v0Z" transform="translate(-487.093 -268.526)" fill="#b8b8b8"/>
          </g>
          <path id="Trazado_107859" data-name="Trazado 107859" d="M487.1,268.73v.234l-.006-.19v-.233Z" transform="translate(-480.99 -265.077)" fill="#a5a5a5"/>
          <g id="Grupo_70707" data-name="Grupo 70707" transform="translate(6.108 0.373)">
            <path id="Trazado_107860" data-name="Trazado 107860" d="M493.86,260.886v.138a.3.3,0,0,1-.126.139c-2.261,1.4-4.885,2.743-5.129,2.852a9.676,9.676,0,0,1-1.5.386v-.138a9.773,9.773,0,0,0,1.5-.386c.245-.109,2.867-1.453,5.129-2.853a.3.3,0,0,0,.126-.138Z" transform="translate(-487.107 -260.886)" fill="#adadad"/>
          </g>
          <path id="Trazado_107861" data-name="Trazado 107861" d="M493.852,260.886a.3.3,0,0,1-.126.138c-2.262,1.4-4.884,2.743-5.129,2.853a9.77,9.77,0,0,1-1.5.386l-.005-.19a.247.247,0,0,1,.147-.21l.031-.016,1.206-.588C488.69,263.157,492.153,261.5,493.852,260.886Z" transform="translate(-480.991 -260.513)" fill="#dcdcdc"/>
          <g id="Grupo_70708" data-name="Grupo 70708" transform="translate(0.334 4.087)">
            <path id="Trazado_107862" data-name="Trazado 107862" d="M475.193,270.779v.233a.6.6,0,0,0-.353-.492,1.858,1.858,0,0,0-1.687,0,.591.591,0,0,0-.346.485v-.233a.594.594,0,0,1,.347-.485,1.859,1.859,0,0,1,1.687,0,.6.6,0,0,1,.352.492Z" transform="translate(-472.807 -270.084)" fill="#adadad"/>
          </g>
          <g id="Grupo_70709" data-name="Grupo 70709" transform="translate(0.095 3.654)">
            <path id="Trazado_107863" data-name="Trazado 107863" d="M478.229,269.01v.234c-.869.21-1.876.463-2.568.638a.763.763,0,0,0-.6.6.778.778,0,0,1-.4.472,2.235,2.235,0,0,1-2.025,0,.715.715,0,0,1-.422-.591v-.233a.715.715,0,0,0,.422.59,2.233,2.233,0,0,0,2.025,0,.779.779,0,0,0,.4-.471.762.762,0,0,1,.6-.6c.693-.175,1.7-.428,2.568-.638Z" transform="translate(-472.215 -269.01)" fill="#adadad"/>
          </g>
          <path id="Trazado_107864" data-name="Trazado 107864" d="M478.229,263.928c-.868.21-1.875.464-2.568.638a.762.762,0,0,0-.6.6.78.78,0,0,1-.4.471,2.233,2.233,0,0,1-2.025,0,.619.619,0,0,1-.006-1.173,2.235,2.235,0,0,1,1.518-.19,2.86,2.86,0,0,0,1.365.067l2.388-.706c.293-.141,5.867-2.821,7.092-3.153a.174.174,0,0,1-.014.067c-1.7.612-5.163,2.271-5.364,2.368l-1.216.592-.031.016a.247.247,0,0,0-.147.21Zm-3.736,1.614a.516.516,0,0,0,0-.977,1.859,1.859,0,0,0-1.687,0,.517.517,0,0,0,.005.978,1.859,1.859,0,0,0,1.687,0Z" transform="translate(-472.12 -260.274)" fill="#c6c6c6"/>
          <g id="Grupo_70713" data-name="Grupo 70713" transform="translate(3.062)">
            <path id="Trazado_107865" data-name="Trazado 107865" d="M500.976,260.115v.058l.088-.022s.211-.046.219-.046a.518.518,0,0,0,.206-.122A1.492,1.492,0,0,0,500.976,260.115Z" transform="translate(-492.329 -259.975)" fill="#c6c6c6"/>
            <path id="Trazado_107866" data-name="Trazado 107866" d="M496.107,259.983a1.591,1.591,0,0,0-.482.184c-.6.352-1.279.759-1.841,1.121-.975.63-1.533,1-1.78,1.171a.123.123,0,0,0-.064.1v.233a.123.123,0,0,1,.064-.1c.247-.168.806-.541,1.78-1.171.634-.409,1.415-.874,2.068-1.253l.254-.148v-.138Z" transform="translate(-486.941 -259.975)" fill="#d2d2d2"/>
            <g id="Grupo_70710" data-name="Grupo 70710" transform="translate(4.998 2.583)" style="isolation: isolate">
              <path id="Trazado_107867" data-name="Trazado 107867" d="M492.013,266.465v.233a.132.132,0,0,1-.073-.107v-.233a.131.131,0,0,0,.073.107Z" transform="translate(-491.939 -266.358)" fill="#ededed"/>
            </g>
            <path id="Trazado_107868" data-name="Trazado 107868" d="M492.473,266.841v.233l-.353-.218v-.233Z" transform="translate(-487.049 -263.933)" fill="#d6d6d6"/>
            <path id="Trazado_107869" data-name="Trazado 107869" d="M496.224,259.962a38.675,38.675,0,0,1-3.857,3l-.353-.218c-.092-.057-.1-.146-.009-.206.247-.167.806-.54,1.763-1.159l.017-.011c.634-.409,1.415-.874,2.068-1.253l.255-.147A.769.769,0,0,1,496.224,259.962Z" transform="translate(-486.943 -259.962)" fill="#dcdcdc"/>
            <g id="Grupo_70711" data-name="Grupo 70711" transform="translate(0.239 5.801)">
              <path id="Trazado_107870" data-name="Trazado 107870" d="M482.541,275.022v.234a.6.6,0,0,0-.353-.492,1.861,1.861,0,0,0-1.687,0,.591.591,0,0,0-.346.486v-.233a.593.593,0,0,1,.347-.486,1.859,1.859,0,0,1,1.687,0,.6.6,0,0,1,.352.492Z" transform="translate(-480.155 -274.328)" fill="#adadad"/>
            </g>
            <g id="Grupo_70712" data-name="Grupo 70712">
              <path id="Trazado_107871" data-name="Trazado 107871" d="M488.857,262.886a.159.159,0,0,1-.109-.008h0v-.008c-.882.636-1.529,1.091-1.564,1.115l-1.209,1.386a.384.384,0,0,0-.1.26l0,.233a.393.393,0,0,1,.1-.26l1.209-1.386c.035-.024.682-.479,1.564-1.115v-.087h0v.087a38.431,38.431,0,0,0,3.857-3v-.138A37.059,37.059,0,0,1,488.857,262.886Z" transform="translate(-483.323 -259.962)" fill="#adadad"/>
              <path id="Trazado_107872" data-name="Trazado 107872" d="M482.012,276.619a2.233,2.233,0,0,1-2.026,0,.717.717,0,0,1-.423-.59v.233a.717.717,0,0,0,.423.59,2.232,2.232,0,0,0,2.025,0,.71.71,0,0,0,.416-.582v-.234A.712.712,0,0,1,482.012,276.619Z" transform="translate(-479.563 -269.541)" fill="#adadad"/>
            </g>
            <path id="Trazado_107873" data-name="Trazado 107873" d="M484.627,262.654c.247-.168.806-.541,1.78-1.171.578-.373,1.278-.792,1.892-1.151l-.088-.022c-.806.448-2.635,1.491-4.574,2.788a.966.966,0,0,0-.269.264c-.374.565-1.1,1.545-1.538,2.131a1.551,1.551,0,0,1-1.036.346,1.952,1.952,0,0,0-.813.235.62.62,0,0,0,.006,1.173,2.233,2.233,0,0,0,2.026,0c.409-.238.516-.584.322-.879-.17-.258-.336-.545-.12-.791l1.209-1.386c.035-.024.682-.479,1.564-1.115l-.352-.218C484.544,262.8,484.539,262.714,484.627,262.654Zm-2.783,4.5a1.86,1.86,0,0,1-1.688,0,.516.516,0,0,1,0-.977,1.859,1.859,0,0,1,1.687,0A.516.516,0,0,1,481.844,267.15Z" transform="translate(-479.565 -260.17)" fill="#c6c6c6"/>
          </g>
          <path id="Trazado_107874" data-name="Trazado 107874" d="M486.95,269.03l-.107.088c0,.017.056.029.071.041a.872.872,0,0,0,.313-.033C486.985,269.137,486.95,269.03,486.95,269.03Z" transform="translate(-480.841 -265.368)" fill="#adadad"/>
          <path id="Trazado_107875" data-name="Trazado 107875" d="M491.023,266.8a.122.122,0,0,1,0,.232.44.44,0,0,1-.4,0,.123.123,0,0,1,0-.232A.44.44,0,0,1,491.023,266.8Z" transform="translate(-483.046 -264.008)" fill="#adadad"/>
        </g>
        <path id="Trazado_107876" data-name="Trazado 107876" d="M429.458,222.408l-5.922,2.132,3.607-3.6-2.25-1.427-13.312,10.143a4.156,4.156,0,0,0-1.631,3.189l-.259,9.913,17.783,16.84.829-17.2a1.926,1.926,0,0,1,.884-1.526l14.633-9.358Z" transform="translate(-15.784 -44.321)" fill="#ea526f"/>
        <path id="Trazado_107877" data-name="Trazado 107877" d="M453.083,213.951a1.648,1.648,0,0,0-1.51-.278,2.525,2.525,0,0,0-2.037,2.972c.185,2.152,1.513,3.9,1.894,2.747.714-2.173,2.828-2.877,2.814-4.017Z" transform="translate(-39.528 -40.788)" fill="#dbc29e"/>
        <path id="Trazado_107878" data-name="Trazado 107878" d="M443.317,247.4l-13.189,7.84a5.559,5.559,0,0,1-5.768-.061l-13.594-8.475a4.148,4.148,0,0,0-.816,2.351l-.259,9.913,17.783,16.84.829-17.2a1.926,1.926,0,0,1,.884-1.526l14.633-9.358Z" transform="translate(-15.784 -60.533)" fill="#e6e6e6" style="mix-blend-mode: multiply;isolation: isolate"/>
        <g id="Grupo_70718" data-name="Grupo 70718" transform="translate(405.217 171.539)">
          <path id="Trazado_107879" data-name="Trazado 107879" d="M457.073,220.444a.737.737,0,0,0-.33-.571l-.18-.1a.738.738,0,0,1,.33.571,2.481,2.481,0,0,1-.719,1.856,2.2,2.2,0,0,1-.276.244.925.925,0,0,1-1,.189l.18.1a.923.923,0,0,0,1-.189,2.146,2.146,0,0,0,.276-.244A2.479,2.479,0,0,0,457.073,220.444Z" transform="translate(-447.953 -216.012)" fill="#ffbf4d"/>
          <g id="Grupo_70715" data-name="Grupo 70715" transform="translate(6.145 5.491)" style="isolation: isolate">
            <path id="Trazado_107880" data-name="Trazado 107880" d="M453.635,225.742l-.18-.1a.967.967,0,0,1-.432-.749,2.061,2.061,0,0,1,0-.5.322.322,0,0,0-.106-.326l.179.1a.325.325,0,0,1,.107.326,1.961,1.961,0,0,0,0,.5.966.966,0,0,0,.433.749Z" transform="translate(-452.915 -224.064)" fill="#f7b523"/>
          </g>
          <path id="Trazado_107881" data-name="Trazado 107881" d="M455.37,218.506a1.219,1.219,0,0,0-1.314.248l-1.6,1.181.179.1,1.6-1.181a1.217,1.217,0,0,1,1.313-.248Z" transform="translate(-446.499 -215.197)" fill="#ffbf4d"/>
          <path id="Trazado_107882" data-name="Trazado 107882" d="M449.853,226.131l-.179-.1-.02-.044.18.1Z" transform="translate(-444.826 -219.717)" fill="#dea320"/>
          <path id="Trazado_107883" data-name="Trazado 107883" d="M449.515,225.364l-.18-.1-.216-.49.179.1Z" transform="translate(-444.506 -218.994)" fill="#dea320"/>
          <path id="Trazado_107884" data-name="Trazado 107884" d="M449.277,224.83l-.179-.1-.014-.03.18.1Z" transform="translate(-444.486 -218.949)" fill="#dea320"/>
          <path id="Trazado_107885" data-name="Trazado 107885" d="M446.991,226.936l-.18-.1,1.148-.849.179.1Z" transform="translate(-443.131 -219.717)" fill="#999"/>
          <path id="Trazado_107886" data-name="Trazado 107886" d="M439.56,232.427l-.179-.1,3-4.238.18.1Z" transform="translate(-438.701 -220.97)" fill="#b8b8b8"/>
          <path id="Trazado_107887" data-name="Trazado 107887" d="M438.49,228.2a1.035,1.035,0,0,1,.131-.116l4.132-3.055.217.49-1.148.849-3.675,2.717A1.183,1.183,0,0,1,438.49,228.2Z" transform="translate(-437.963 -219.148)" fill="#aaa"/>
          <path id="Trazado_107888" data-name="Trazado 107888" d="M452.489,219.012c.844-.623,1.626-.4,1.746.5a3.253,3.253,0,0,1-.943,2.437,2.863,2.863,0,0,1-.363.32c-.842.621-1.623.4-1.745-.5a1.965,1.965,0,0,1,0-.5c.032-.281-.131-.448-.358-.28l-1.046.773-.019-.044-.217-.49-.013-.03,1.362-1.008Zm1.383.771c-.092-.685-.688-.856-1.329-.382a2.163,2.163,0,0,0-.275.244,2.481,2.481,0,0,0-.719,1.856c.093.685.688.857,1.329.382a2.142,2.142,0,0,0,.276-.244,2.479,2.479,0,0,0,.719-1.856Z" transform="translate(-444.751 -215.351)" fill="#ecad21"/>
          <path id="Trazado_107889" data-name="Trazado 107889" d="M449.264,223.311l-.18-.1,1.364-1.008.179.1Z" transform="translate(-444.486 -217.461)" fill="#f0b022"/>
          <path id="Trazado_107890" data-name="Trazado 107890" d="M453.344,212.026a.562.562,0,0,0-.118-.092l-.179-.1a.575.575,0,0,1,.118.092c.382.384.266,1.3-.258,2.035a2.673,2.673,0,0,1-.249.3c-.433.451-.938.627-1.272.432l.179.1c.334.194.839.018,1.272-.433a2.619,2.619,0,0,0,.25-.3C453.611,213.321,453.726,212.41,453.344,212.026Z" transform="translate(-445.858 -211.279)" fill="#f2a830"/>
          <g id="Grupo_70716" data-name="Grupo 70716" transform="translate(0.68 11.353)" style="isolation: isolate">
            <path id="Trazado_107891" data-name="Trazado 107891" d="M439.617,238.727l-.18-.1a.312.312,0,0,1-.056-.044l.179.1a.277.277,0,0,0,.057.044Z" transform="translate(-439.381 -238.579)" fill="#9e9e9e"/>
          </g>
          <path id="Trazado_107892" data-name="Trazado 107892" d="M442.826,227.09l1.148-.849.007.016-3.375,4.763a1.248,1.248,0,0,1-.119.145c-.232.241-.508.318-.662.162Z" transform="translate(-438.966 -219.871)" fill="#979797"/>
          <g id="Grupo_70717" data-name="Grupo 70717" transform="translate(4.598)">
            <path id="Trazado_107893" data-name="Trazado 107893" d="M449.939,220.234c.147.086.17.353,0,.595l-.854,1.207.18.1.854-1.207c.17-.241.149-.509,0-.594Z" transform="translate(-449.084 -216.289)" fill="#f2a830"/>
            <path id="Trazado_107894" data-name="Trazado 107894" d="M452.255,210.569c-.439-.255-1.1-.025-1.668.567a3.406,3.406,0,0,0-.329.4c-.688.971-.84,2.167-.338,2.672a.745.745,0,0,0,.155.12l.179.1a.763.763,0,0,1-.155-.12c-.5-.506-.349-1.7.339-2.673a3.435,3.435,0,0,1,.329-.4c.568-.592,1.229-.821,1.668-.567Z" transform="translate(-449.406 -210.466)" fill="#f2a830"/>
          </g>
          <path id="Trazado_107895" data-name="Trazado 107895" d="M452.535,210.948c.5.5.35,1.7-.338,2.673l-1.3,1.841-1.362,1.008.854-1.207c.185-.262.144-.554-.038-.612a.725.725,0,0,1-.3-.184c-.5-.506-.349-1.7.339-2.673a3.439,3.439,0,0,1,.329-.4C451.351,210.727,452.109,210.52,452.535,210.948Zm-.555,2.454c.524-.74.639-1.651.257-2.035-.323-.326-.9-.167-1.39.341a2.6,2.6,0,0,0-.249.3c-.523.741-.639,1.651-.258,2.035.324.326.9.167,1.39-.341a2.625,2.625,0,0,0,.25-.3Z" transform="translate(-444.751 -210.62)" fill="#db950b"/>
          <path id="Trazado_107896" data-name="Trazado 107896" d="M442.309,224.77l-4.132,3.055a1.046,1.046,0,0,0-.132.116,1.187,1.187,0,0,0-.343.884l.18.1a1.183,1.183,0,0,1,.342-.885,1.034,1.034,0,0,1,.131-.116l4.132-3.055Z" transform="translate(-437.697 -218.994)" fill="#c4c4c4"/>
        </g>
        <path id="Trazado_107897" data-name="Trazado 107897" d="M439.776,230.688l-2.846,3.835a23.915,23.915,0,0,0,3.247-.149c.087-.033,1.99-4.547,1.99-4.547Z" transform="translate(-32.023 -50.469)" fill="#d65086"/>
        <path id="Trazado_107898" data-name="Trazado 107898" d="M474.109,184.83a2.664,2.664,0,0,0-1.887,2.972c1.43,10.76.111,10.4-5.271,18.453a4.918,4.918,0,0,0-2.781.6c-2.706,1.329-2.019,2.182-1.573,2.257a7.683,7.683,0,0,0,3.016-.226c.969-.023,1.081-.173,1.84-.221a1.5,1.5,0,0,0,1.151-.507l.04.025c7.193-8.247,8.177-9.18,8.448-12.718l-.2-8.222A2.2,2.2,0,0,0,474.109,184.83Z" transform="translate(-47.075 -23.597)" fill="#f2ddbb"/>
        <path id="Trazado_107899" data-name="Trazado 107899" d="M452.914,214.858a2.364,2.364,0,0,0-.258,2.3c.3.59.69,1.238.945,1.691.116.2.431.248.468.016a2.819,2.819,0,0,0-.246-1.472c-.337-.731.416-1.228.369-1.779S453.653,213.889,452.914,214.858Z" transform="translate(-41.282 -41.324)" fill="#f2ddbb"/>
      </g>
    </g>
  </g>
</svg>
