<svg xmlns="http://www.w3.org/2000/svg" width="78" height="78.168" viewBox="0 0 78 78.168">
  <g id="presupuesto_1_" data-name="presupuesto (1)" transform="translate(-0.549)">
    <path id="Trazado_107116" data-name="Trazado 107116" d="M151.914,21.278V67.4c0,.092,0,.184-.006.276a5.955,5.955,0,0,1-5.949,5.678h-33.48a5.955,5.955,0,0,1-5.956-5.954V14a5.947,5.947,0,0,1,5.956-5.955h26.594a5.936,5.936,0,0,1,2.586.593c1.609.774,2.062,1.753,4.953,4.709,3.326,3.612,4.12,3.982,4.8,5.546A5.89,5.89,0,0,1,151.914,21.278Z" transform="translate(-89.795 -6.816)" fill="#ffc477"/>
    <path id="Trazado_107117" data-name="Trazado 107117" d="M177.471,21.277V67.4c0,.092,0,.184-.006.276a5.974,5.974,0,0,1-1.345.152h-33.48a5.955,5.955,0,0,1-5.956-5.954V8.473c0-.094,0-.186.006-.278a5.982,5.982,0,0,1,1.345-.152H164.63a5.964,5.964,0,0,1,4.352,1.891l3.188,3.411,3.65,3.819a5.993,5.993,0,0,1,1.652,4.113Z" transform="translate(-115.352 -6.815)" fill="#ffdaaa"/>
    <path id="Trazado_107118" data-name="Trazado 107118" d="M289.116,183.312V216.8a8.416,8.416,0,0,1-8.416,8.416H258.83a8.416,8.416,0,0,1-8.416-8.416V183.312a8.412,8.412,0,0,1,8.416-8.416H280.7A8.415,8.415,0,0,1,289.116,183.312Z" transform="translate(-211.718 -148.194)" fill="#4cba68"/>
    <path id="Trazado_107119" data-name="Trazado 107119" d="M308.428,183.312V216.8a8.372,8.372,0,0,1-1.63,4.978,8.381,8.381,0,0,1-3.306.675h-21.87a8.416,8.416,0,0,1-8.416-8.416V180.549a8.372,8.372,0,0,1,1.63-4.978,8.381,8.381,0,0,1,3.306-.675h21.87A8.415,8.415,0,0,1,308.428,183.312Z" transform="translate(-231.03 -148.194)" fill="#7ccc92"/>
    <path id="Trazado_107120" data-name="Trazado 107120" d="M362.489,367.228v3.933a1.258,1.258,0,0,1-1.257,1.259H357.3a1.258,1.258,0,0,1-1.259-1.259v-3.933a1.258,1.258,0,0,1,1.259-1.259h3.934A1.258,1.258,0,0,1,362.489,367.228Z" transform="translate(-301.217 -310.096)" fill="#2c733f"/>
    <path id="Trazado_107121" data-name="Trazado 107121" d="M315.432,209.792v4.213a2.714,2.714,0,0,1-2.714,2.714H291.011a2.715,2.715,0,0,1-2.714-2.714v-4.213a2.715,2.715,0,0,1,2.714-2.714h21.707A2.714,2.714,0,0,1,315.432,209.792Z" transform="translate(-243.817 -175.463)" fill="#1e81ce"/>
    <path id="Trazado_107122" data-name="Trazado 107122" d="M340.988,209.792v4.213a2.714,2.714,0,0,1-2.714,2.714h-17.1a2.715,2.715,0,0,1-2.714-2.714v-4.213a2.715,2.715,0,0,1,2.714-2.714h17.1A2.714,2.714,0,0,1,340.988,209.792Z" transform="translate(-269.373 -175.463)" fill="#3d9ae2"/>
    <g id="Grupo_70209" data-name="Grupo 70209" transform="translate(44.48 45.589)">
      <path id="Trazado_107123" data-name="Trazado 107123" d="M294.748,367.228v3.933a1.258,1.258,0,0,1-1.259,1.259h-3.934a1.259,1.259,0,0,1-1.259-1.259v-3.933a1.259,1.259,0,0,1,1.259-1.259h3.934A1.258,1.258,0,0,1,294.748,367.228Z" transform="translate(-288.297 -355.685)" fill="#2c733f"/>
      <path id="Trazado_107124" data-name="Trazado 107124" d="M362.489,299.867V303.8a1.258,1.258,0,0,1-1.257,1.259H357.3a1.258,1.258,0,0,1-1.259-1.259v-3.933a1.258,1.258,0,0,1,1.259-1.259h3.934A1.258,1.258,0,0,1,362.489,299.867Z" transform="translate(-345.697 -298.608)" fill="#2c733f"/>
    </g>
    <path id="Trazado_107125" data-name="Trazado 107125" d="M431.046,299.867V303.8a1.258,1.258,0,0,1-1.259,1.259h-3.933A1.258,1.258,0,0,1,424.6,303.8v-3.933a1.258,1.258,0,0,1,1.259-1.259h3.933A1.258,1.258,0,0,1,431.046,299.867Z" transform="translate(-359.307 -253.019)" fill="#ee8700"/>
    <g id="Grupo_70210" data-name="Grupo 70210" transform="translate(44.48 45.589)">
      <path id="Trazado_107126" data-name="Trazado 107126" d="M294.748,299.867V303.8a1.258,1.258,0,0,1-1.259,1.259h-3.934A1.259,1.259,0,0,1,288.3,303.8v-3.933a1.259,1.259,0,0,1,1.259-1.259h3.934A1.258,1.258,0,0,1,294.748,299.867Z" transform="translate(-288.297 -298.608)" fill="#2c733f"/>
      <path id="Trazado_107127" data-name="Trazado 107127" d="M362.489,431.288v3.934a1.258,1.258,0,0,1-1.257,1.259H357.3a1.258,1.258,0,0,1-1.259-1.259v-3.934a1.258,1.258,0,0,1,1.259-1.257h3.934A1.258,1.258,0,0,1,362.489,431.288Z" transform="translate(-345.697 -409.966)" fill="#2c733f"/>
      <path id="Trazado_107128" data-name="Trazado 107128" d="M294.748,431.288v3.934a1.258,1.258,0,0,1-1.259,1.259h-3.934a1.259,1.259,0,0,1-1.259-1.259v-3.934a1.259,1.259,0,0,1,1.259-1.257h3.934A1.258,1.258,0,0,1,294.748,431.288Z" transform="translate(-288.297 -409.966)" fill="#2c733f"/>
    </g>
    <path id="Trazado_107129" data-name="Trazado 107129" d="M431.046,367.838v12.213A2.146,2.146,0,0,1,428.9,382.2h-2.158a2.146,2.146,0,0,1-2.146-2.147V367.838a1.87,1.87,0,0,1,1.87-1.87h2.711A1.869,1.869,0,0,1,431.046,367.838Z" transform="translate(-359.307 -310.095)" fill="#ee8700"/>
    <g id="Grupo_70211" data-name="Grupo 70211" transform="translate(44.48 45.589)">
      <path id="Trazado_107130" data-name="Trazado 107130" d="M362.489,367.228v1.17a1.258,1.258,0,0,1-1.257,1.259H357.3a1.258,1.258,0,0,1-1.259-1.259v-1.17a1.258,1.258,0,0,1,1.259-1.259h3.934A1.258,1.258,0,0,1,362.489,367.228Z" transform="translate(-345.697 -355.685)" fill="#317f46"/>
      <path id="Trazado_107131" data-name="Trazado 107131" d="M294.748,367.228v1.17a1.258,1.258,0,0,1-1.259,1.259h-3.934A1.259,1.259,0,0,1,288.3,368.4v-1.17a1.259,1.259,0,0,1,1.259-1.259h3.934A1.258,1.258,0,0,1,294.748,367.228Z" transform="translate(-288.297 -355.685)" fill="#317f46"/>
      <path id="Trazado_107132" data-name="Trazado 107132" d="M362.489,299.867v1.17a1.258,1.258,0,0,1-1.257,1.259H357.3a1.258,1.258,0,0,1-1.259-1.259v-1.17a1.258,1.258,0,0,1,1.259-1.259h3.934A1.258,1.258,0,0,1,362.489,299.867Z" transform="translate(-345.697 -298.608)" fill="#317f46"/>
    </g>
    <path id="Trazado_107133" data-name="Trazado 107133" d="M431.046,299.867v1.17a1.258,1.258,0,0,1-1.259,1.259h-3.933a1.258,1.258,0,0,1-1.259-1.259v-1.17a1.258,1.258,0,0,1,1.259-1.259h3.933A1.258,1.258,0,0,1,431.046,299.867Z" transform="translate(-359.307 -253.019)" fill="#ff9811"/>
    <g id="Grupo_70212" data-name="Grupo 70212" transform="translate(44.48 45.589)">
      <path id="Trazado_107134" data-name="Trazado 107134" d="M294.748,299.867v1.17a1.258,1.258,0,0,1-1.259,1.259h-3.934a1.259,1.259,0,0,1-1.259-1.259v-1.17a1.259,1.259,0,0,1,1.259-1.259h3.934A1.258,1.258,0,0,1,294.748,299.867Z" transform="translate(-288.297 -298.608)" fill="#317f46"/>
      <path id="Trazado_107135" data-name="Trazado 107135" d="M362.489,431.288v1.171a1.258,1.258,0,0,1-1.257,1.259H357.3a1.258,1.258,0,0,1-1.259-1.259v-1.171a1.258,1.258,0,0,1,1.259-1.257h3.934A1.258,1.258,0,0,1,362.489,431.288Z" transform="translate(-345.697 -409.966)" fill="#317f46"/>
      <path id="Trazado_107136" data-name="Trazado 107136" d="M294.748,431.288v1.171a1.258,1.258,0,0,1-1.259,1.259h-3.934a1.259,1.259,0,0,1-1.259-1.259v-1.171a1.259,1.259,0,0,1,1.259-1.257h3.934A1.258,1.258,0,0,1,294.748,431.288Z" transform="translate(-288.297 -409.966)" fill="#317f46"/>
    </g>
    <path id="Trazado_107137" data-name="Trazado 107137" d="M431.046,367.838v9.451a2.146,2.146,0,0,1-2.146,2.147h-2.158a2.146,2.146,0,0,1-2.146-2.147v-9.451a1.87,1.87,0,0,1,1.87-1.87h2.711A1.869,1.869,0,0,1,431.046,367.838Z" transform="translate(-359.307 -310.095)" fill="#ff9811"/>
    <path id="Trazado_107138" data-name="Trazado 107138" d="M346.413,22.179H338.95a2.289,2.289,0,0,1-2.289-2.289V11.924a5.948,5.948,0,0,1,1.765,1.3l3.189,3.411,3.65,3.82A5.9,5.9,0,0,1,346.413,22.179Z" transform="translate(-284.797 -10.104)" fill="#ffb655"/>
    <path id="Trazado_107139" data-name="Trazado 107139" d="M93.155,464.567a2.924,2.924,0,0,1-2.916,2.916H72.372a2.916,2.916,0,0,1,0-5.833H90.239A2.925,2.925,0,0,1,93.155,464.567Z" transform="translate(-58.387 -391.17)" fill="#aa6100"/>
    <path id="Trazado_107140" data-name="Trazado 107140" d="M93.155,426.362a2.924,2.924,0,0,1-2.916,2.916H72.372a2.916,2.916,0,0,1,0-5.833H90.239A2.925,2.925,0,0,1,93.155,426.362Z" transform="translate(-58.387 -358.798)" fill="#cc7400"/>
    <path id="Trazado_107141" data-name="Trazado 107141" d="M93.155,388.158a2.924,2.924,0,0,1-2.916,2.916H72.372a2.916,2.916,0,0,1,0-5.833H90.239A2.925,2.925,0,0,1,93.155,388.158Z" transform="translate(-58.387 -326.426)" fill="#ee8700"/>
    <path id="Trazado_107142" data-name="Trazado 107142" d="M93.155,349.953a2.924,2.924,0,0,1-2.916,2.916H72.372a2.925,2.925,0,0,1-2.916-2.916,2.924,2.924,0,0,1,2.916-2.917H90.239A2.925,2.925,0,0,1,93.155,349.953Z" transform="translate(-58.387 -294.053)" fill="#ff9811"/>
    <path id="Trazado_107143" data-name="Trazado 107143" d="M90.238,314.667H72.372a2.925,2.925,0,0,1-2.916-2.916h0a2.925,2.925,0,0,1,2.916-2.916H90.238a2.925,2.925,0,0,1,2.916,2.916h0A2.925,2.925,0,0,1,90.238,314.667Z" transform="translate(-58.387 -261.684)" fill="#ffa733"/>
    <path id="Trazado_107144" data-name="Trazado 107144" d="M31.349,386.714a9.489,9.489,0,0,0-9.889-9.087H17.742a9.5,9.5,0,0,0,.813,18.986H21.46v0c.265.011.533.013.8,0a9.652,9.652,0,0,0,1.765-.241,9.5,9.5,0,0,0,7.323-8.907v-.011C31.36,387.209,31.36,386.963,31.349,386.714Z" transform="translate(-6.841 -319.967)" fill="#cc7400"/>
    <path id="Trazado_107145" data-name="Trazado 107145" d="M76.206,388.839v.011a9.5,9.5,0,0,1-7.323,8.907,9.506,9.506,0,0,1-7.314-8.844c0-.022,0-.041,0-.063v-.011a9.5,9.5,0,0,1,7.322-9.584A9.5,9.5,0,0,1,76.2,388.1C76.216,388.349,76.216,388.6,76.206,388.839Z" transform="translate(-51.696 -321.353)" fill="#ee8700"/>
    <path id="Trazado_107146" data-name="Trazado 107146" d="M68.982,25.551H63.347V14.462A7.2,7.2,0,0,0,61.356,9.5L57.716,5.69c-3.09-3.184-3.48-4.083-5.32-4.976A7.2,7.2,0,0,0,49.278,0H22.684A7.192,7.192,0,0,0,15.5,7.184V45.922H13.986a4.142,4.142,0,0,0-2.941,7.061,4.129,4.129,0,0,0-1.2,2.916,4.252,4.252,0,0,0,.081.82,10.447,10.447,0,0,0,1.493,20.831l20.436-.008a4.142,4.142,0,0,0,2.941-7.061,4.122,4.122,0,0,0,1.2-2.711h1.555v.83a9.578,9.578,0,0,0,9.567,9.567h21.87A9.578,9.578,0,0,0,78.549,68.6V35.118A9.578,9.578,0,0,0,68.982,25.551ZM53.093,4.342c4.823,5.1,5.909,6.247,6.114,6.464,0,0,0,0,0,0h0a.033.033,0,0,0,.006.008l0,0a.026.026,0,0,0,.009.009.021.021,0,0,1,0,.006s0,0,0,0,0,0,0,0,0,0,.006.006H53.092v-6.5ZM13.986,48.378H31.852a1.688,1.688,0,1,1,0,3.377H13.986a1.688,1.688,0,1,1,0-3.377Zm0,5.833H31.852a1.688,1.688,0,1,1,0,3.377H19.511a10,10,0,0,0-1.555-.562,10.352,10.352,0,0,0-2.456-.361c-.241-.006-.482,0-.723.006H12.486A1.66,1.66,0,0,1,12.3,55.9,1.691,1.691,0,0,1,13.986,54.211Zm19.555,7.521a1.69,1.69,0,0,1-1.688,1.688H24.98A10.329,10.329,0,0,0,22.9,60.044h8.956A1.691,1.691,0,0,1,33.541,61.732Zm-25.529-2.2a10.6,10.6,0,0,0-1.934,2.48H4.647A8.11,8.11,0,0,1,8.012,59.528ZM3.341,64.311H5.129a10.6,10.6,0,0,0-.335,1.84H2.9A8.069,8.069,0,0,1,3.341,64.311Zm.2,6.086a8.055,8.055,0,0,1-.577-1.943H4.837A9.266,9.266,0,0,0,5.276,70.4Zm1.532,2.3c.754,0,1.191,0,1.294,0a10.369,10.369,0,0,0,1.652,2A8.112,8.112,0,0,1,5.071,72.7Zm10.477,2.55a8.146,8.146,0,1,1,5.16-14.138A8.139,8.139,0,0,1,15.548,75.249Zm16.3-.163H21.941a10.519,10.519,0,0,0,2.638-3.377h7.273a1.688,1.688,0,1,1,0,3.377Zm1.675-7.315a1.689,1.689,0,0,1-1.675,1.483H25.427a10.55,10.55,0,0,0,.149-3.377h6.276A1.69,1.69,0,0,1,33.527,67.77Zm4.018-2.456H35.329a4.074,4.074,0,0,0-.536-.666,4.135,4.135,0,0,0,0-5.833,4.136,4.136,0,0,0,0-5.833,4.148,4.148,0,0,0-2.941-7.061h-13.9V7.184a4.734,4.734,0,0,1,4.728-4.728H50.637v9.619A1.228,1.228,0,0,0,51.865,13.3h8.881c.256.995.1.666.146,12.247H47.112a9.578,9.578,0,0,0-9.567,9.567v30.2Zm38.7,3.286a7.273,7.273,0,0,1-7.265,7.265H47.112A7.274,7.274,0,0,1,39.848,68.6V35.118a7.274,7.274,0,0,1,7.265-7.265h21.87a7.273,7.273,0,0,1,7.265,7.265V68.6Z" transform="translate(0)" fill="#0075a4"/>
    <path id="Trazado_107147" data-name="Trazado 107147" d="M288.8,209.179h-4.176a1.567,1.567,0,0,1-1.563-1.563V203.4a1.567,1.567,0,0,1,1.563-1.563h21.707a1.564,1.564,0,0,1,1.563,1.563v4.213a1.564,1.564,0,0,1-1.563,1.563H293.763a1.151,1.151,0,1,0,0,2.3h12.566a3.869,3.869,0,0,0,3.865-3.865V203.4a3.869,3.869,0,0,0-3.865-3.865H284.622a3.865,3.865,0,0,0-3.865,3.865v4.213a3.865,3.865,0,0,0,3.865,3.865H288.8a1.151,1.151,0,1,0,0-2.3Z" transform="translate(-237.428 -169.074)" fill="#0075a4"/>
    <path id="Trazado_107148" data-name="Trazado 107148" d="M283.167,367.181H287.1a2.412,2.412,0,0,0,2.41-2.41v-3.933a2.412,2.412,0,0,0-2.41-2.41h-3.934a2.413,2.413,0,0,0-2.41,2.41v3.933A2.413,2.413,0,0,0,283.167,367.181Zm-.107-6.342a.108.108,0,0,1,.107-.107H287.1a.108.108,0,0,1,.107.107v3.933a.108.108,0,0,1-.107.107h-3.934a.108.108,0,0,1-.107-.107Z" transform="translate(-237.428 -303.707)" fill="#0075a4"/>
    <path id="Trazado_107149" data-name="Trazado 107149" d="M423.4,291.068h-3.933a2.412,2.412,0,0,0-2.41,2.41v3.933a2.412,2.412,0,0,0,2.41,2.41H423.4a2.412,2.412,0,0,0,2.41-2.41v-3.933A2.412,2.412,0,0,0,423.4,291.068Zm.107,6.342a.107.107,0,0,1-.107.107h-3.933a.108.108,0,0,1-.107-.107c.048-3.891-.1-4.04.107-4.04H423.4a.107.107,0,0,1,.107.107Z" transform="translate(-352.918 -246.63)" fill="#0075a4"/>
    <path id="Trazado_107150" data-name="Trazado 107150" d="M283.167,299.82H287.1a2.412,2.412,0,0,0,2.41-2.41v-3.933a2.412,2.412,0,0,0-2.41-2.41h-3.934a2.413,2.413,0,0,0-2.41,2.41v3.933A2.413,2.413,0,0,0,283.167,299.82Zm-.107-6.342a.108.108,0,0,1,.107-.107H287.1a.108.108,0,0,1,.107.107v3.933a.108.108,0,0,1-.107.107h-3.934a.108.108,0,0,1-.107-.107Z" transform="translate(-237.428 -246.63)" fill="#0075a4"/>
    <path id="Trazado_107151" data-name="Trazado 107151" d="M288.882,423.3a2.409,2.409,0,0,0-1.8-.812h-3.934a2.4,2.4,0,0,0-1.8.812,3.293,3.293,0,0,0-.608,2.456v3.075a2.413,2.413,0,0,0,2.41,2.41h3.934a2.412,2.412,0,0,0,2.41-2.41v-3.075A3.32,3.32,0,0,0,288.882,423.3Zm-1.8,5.638c-3.886-.048-4.042.1-4.042-.107,0-4.164-.046-4.04.107-4.04h3.934c.189,0,.072.262.107.966C287.185,425.759,287.285,428.941,287.078,428.941Z" transform="translate(-237.405 -357.988)" fill="#0075a4"/>
    <path id="Trazado_107152" data-name="Trazado 107152" d="M422.786,358.428h-2.711a3.025,3.025,0,0,0-3.021,3.021v12.213a3.3,3.3,0,0,0,3.3,3.3h2.158a3.3,3.3,0,0,0,3.3-3.3V361.449A3.024,3.024,0,0,0,422.786,358.428Zm.719,15.234a1,1,0,0,1-.995,1h-2.158a1,1,0,0,1-.995-1V361.449a.719.719,0,0,1,.718-.718h2.711a.719.719,0,0,1,.718.718v12.213Z" transform="translate(-352.917 -303.706)" fill="#0075a4"/>
    <path id="Trazado_107153" data-name="Trazado 107153" d="M167.583,175.187h0c-1.4-.516-2.418-.888-2.418-2.189,0-1.185.787-1.786,2.339-1.786,1.648,0,2.091.725,2.672.725a1.106,1.106,0,0,0,.981-1.134c0-.959-1.564-1.435-2.963-1.56v-.865a1.091,1.091,0,0,0-2.182,0v1a3.568,3.568,0,0,0-2.963,3.732c0,2.679,1.973,3.421,3.558,4.016,1.552.583,2.778,1.044,2.778,2.816,0,1.464-.813,2.206-2.416,2.206-2.346,0-2.368-1.584-3.263-1.584a1.151,1.151,0,0,0-1,1.134c0,.907,1.351,2.1,3.307,2.409v.836a1.091,1.091,0,0,0,2.182,0v-.858a3.941,3.941,0,0,0,3.307-4.257C171.5,176.627,169.329,175.829,167.583,175.187Z" transform="translate(-137.401 -141.748)" fill="#0075a4"/>
    <path id="Trazado_107154" data-name="Trazado 107154" d="M354.822,422.491h-3.934a2.408,2.408,0,0,0-1.8.812,3.306,3.306,0,0,0-.606,2.456v3.075a2.412,2.412,0,0,0,2.41,2.41h3.934a2.412,2.412,0,0,0,2.408-2.41V424.9a2.412,2.412,0,0,0-2.408-2.408Zm0,6.45c-3.886-.048-4.042.1-4.042-.107V424.9a.108.108,0,0,1,.107-.106h3.934a.106.106,0,0,1,.106.106C354.882,428.795,355.026,428.941,354.822,428.941Z" transform="translate(-294.807 -357.988)" fill="#0075a4"/>
    <path id="Trazado_107155" data-name="Trazado 107155" d="M354.843,291.068h-3.934a2.412,2.412,0,0,0-2.41,2.41v3.933a2.412,2.412,0,0,0,2.41,2.41h3.934a2.373,2.373,0,0,0,.876-.166,2.413,2.413,0,0,0,1.532-2.244v-3.933A2.413,2.413,0,0,0,354.843,291.068Zm.106,6.342a.107.107,0,0,1-.106.107h-3.934a.108.108,0,0,1-.107-.107v-3.933c0-.207.143-.061,4.042-.107a.107.107,0,0,1,.106.107v3.933Z" transform="translate(-294.828 -246.63)" fill="#0075a4"/>
    <path id="Trazado_107156" data-name="Trazado 107156" d="M355.719,358.594a2.373,2.373,0,0,0-.876-.166h-3.934a2.412,2.412,0,0,0-2.41,2.41v3.933a2.412,2.412,0,0,0,2.41,2.41h3.934a2.412,2.412,0,0,0,2.408-2.41v-3.933A2.412,2.412,0,0,0,355.719,358.594Zm-.771,6.176a.107.107,0,0,1-.106.107h-3.934a.108.108,0,0,1-.107-.107v-3.933a.108.108,0,0,1,.107-.107h3.934a.107.107,0,0,1,.106.107Z" transform="translate(-294.828 -303.706)" fill="#0075a4"/>
    <path id="Trazado_107157" data-name="Trazado 107157" d="M321.2,105.344h2.892a1.151,1.151,0,1,0,0-2.3H321.2a1.151,1.151,0,1,0,0,2.3Z" transform="translate(-270.72 -87.31)" fill="#0075a4"/>
    <path id="Trazado_107158" data-name="Trazado 107158" d="M157.321,105.344h20.415a1.151,1.151,0,1,0,0-2.3H157.321a1.151,1.151,0,0,0,0,2.3Z" transform="translate(-131.862 -87.31)" fill="#0075a4"/>
    <path id="Trazado_107159" data-name="Trazado 107159" d="M160.98,142.774a1.151,1.151,0,1,0,0-2.3h-3.659a1.151,1.151,0,0,0,0,2.3Z" transform="translate(-131.862 -119.026)" fill="#0075a4"/>
    <path id="Trazado_107160" data-name="Trazado 107160" d="M232.249,141.623a1.152,1.152,0,0,0-1.151-1.151H211.45a1.151,1.151,0,1,0,0,2.3H231.1A1.152,1.152,0,0,0,232.249,141.623Z" transform="translate(-177.727 -119.026)" fill="#0075a4"/>
    <path id="Trazado_107161" data-name="Trazado 107161" d="M79.869,402.283c0-.289.107-.372.206-.428a1.978,1.978,0,0,1,1.669.113,1.316,1.316,0,0,0,.623.189c1.135,0,2.033-2.11-.679-2.576v-.073a1.167,1.167,0,0,0-2.333,0v.221a2.617,2.617,0,0,0-1.779,2.622c0,1.963,1.426,2.5,2.468,2.891.993.373,1.337.537,1.337,1.212,0,.422-.114.813-.94.813-1.2,0-1.059-.951-1.96-.951a1.2,1.2,0,0,0-1.112,1.192c0,.8.829,1.555,1.986,1.861v.087a1.167,1.167,0,0,0,2.333,0v-.118a2.884,2.884,0,0,0,1.986-2.954C83.674,402.888,79.869,403.413,79.869,402.283Z" transform="translate(-65.092 -337.526)" fill="#0075a4"/>
  </g>
</svg>
