<svg xmlns="http://www.w3.org/2000/svg" width="74.579" height="71.453" viewBox="0 0 74.579 71.453">
  <g id="Grupo_78246" data-name="Grupo 78246" transform="translate(-630.421 -4866.337)">
    <g id="Grupo_70763" data-name="Grupo 70763" transform="translate(630.421 4866.337)">
      <g id="Grupo_70762" data-name="Grupo 70762" transform="translate(0 18.635)">
        <path id="Trazado_107952" data-name="Trazado 107952" d="M2728.207,1472.256c0,10.655-4.952,16.623-13.835,16.623-8.83,0-13.784-5.968-13.784-16.623s4.954-16.575,13.784-16.575C2723.255,1455.681,2728.207,1461.6,2728.207,1472.256Zm-25.511,0c0,9.614,4.122,14.823,11.675,14.823,7.6,0,11.729-5.21,11.729-14.823,0-9.66-4.125-14.773-11.729-14.773C2706.818,1457.483,2702.7,1462.6,2702.7,1472.256Z" transform="translate(-2700.588 -1455.681)" fill="#ff8a5b"/>
        <path id="Trazado_107953" data-name="Trazado 107953" d="M2812.066,1477.515v-9.851h1.964v9.851h5.4v1.99h-5.4v9.425h-1.964V1479.5h-16.533v-1.943l12.855-21.736h2.106l-12.8,21.689Z" transform="translate(-2763.005 -1455.777)" fill="#ff8a5b"/>
      </g>
      <rect id="Rectángulo_8802" data-name="Rectángulo 8802" width="1.732" height="71.453" transform="translate(72.848 0)" fill="#a3a3a3"/>
    </g>
  </g>
</svg>
