<svg xmlns="http://www.w3.org/2000/svg" width="97" height="97" viewBox="0 0 97 97">
  <g id="Grupo_70740" data-name="Grupo 70740" transform="translate(-390 -4274)">
    <g id="Elipse_4494" data-name="Elipse 4494" transform="translate(390 4274)" fill="#fff" stroke="#25ced1" stroke-width="4">
      <circle cx="48.5" cy="48.5" r="48.5" stroke="none"/>
      <circle cx="48.5" cy="48.5" r="46.5" fill="none"/>
    </g>
    <g id="Grupo_70720" data-name="Grupo 70720" transform="translate(407 4290.771)">
      <g id="Grupo_70370" data-name="Grupo 70370">
        <g id="Grupo_70315" data-name="Grupo 70315" transform="translate(35.505 13.284)">
          <g id="Grupo_70305" data-name="Grupo 70305" transform="translate(0 11.374)">
            <g id="Grupo_70302" data-name="Grupo 70302" transform="translate(0 0.686)">
              <path id="Trazado_107237" data-name="Trazado 107237" d="M757.186,251.892V253.1l28.733,16.587v-1.211Z" transform="translate(-757.186 -251.892)" fill="#9cafab"/>
            </g>
            <g id="Grupo_70303" data-name="Grupo 70303">
              <path id="Trazado_107238" data-name="Trazado 107238" d="M757.186,250.874l1.189-.686,28.733,16.587-1.189.686Z" transform="translate(-757.186 -250.188)" fill="#bdd4cf"/>
            </g>
            <g id="Grupo_70304" data-name="Grupo 70304" transform="translate(28.733 16.587)">
              <path id="Trazado_107239" data-name="Trazado 107239" d="M828.524,293.268l1.189-.679V291.37l-1.189.686Z" transform="translate(-828.524 -291.37)" fill="#5b6664"/>
            </g>
          </g>
          <g id="Grupo_70308" data-name="Grupo 70308" transform="translate(4.128)">
            <g id="Grupo_70306" data-name="Grupo 70306">
              <path id="Trazado_107240" data-name="Trazado 107240" d="M768.354,222.609v14.2l-.8-.464v-14.2Z" transform="translate(-767.504 -222.065)" fill="#fff"/>
              <path id="Trazado_107241" data-name="Trazado 107241" d="M768.332,236.77l-.9-.518V221.947l.9.517Zm-.8-.571.712.411V222.517l-.712-.411Z" transform="translate(-767.436 -221.947)" fill="#231f20"/>
            </g>
            <g id="Grupo_70307" data-name="Grupo 70307" transform="translate(0.804)">
              <path id="Trazado_107242" data-name="Trazado 107242" d="M770.35,222.145v14.2l-.8.464v-14.2Z" transform="translate(-769.5 -222.065)" fill="#fff"/>
              <path id="Trazado_107243" data-name="Trazado 107243" d="M769.432,236.77V222.464l.9-.517v14.306Zm.092-14.253v14.094l.712-.411V222.106Z" transform="translate(-769.432 -221.947)" fill="#231f20"/>
            </g>
          </g>
          <g id="Grupo_70311" data-name="Grupo 70311" transform="translate(13.506 5.401)">
            <g id="Grupo_70309" data-name="Grupo 70309">
              <path id="Trazado_107244" data-name="Trazado 107244" d="M791.636,236.018v14.2l-.8-.464v-14.2Z" transform="translate(-790.786 -235.474)" fill="#fff"/>
              <path id="Trazado_107245" data-name="Trazado 107245" d="M791.614,250.179l-.9-.517V235.356l.9.517Zm-.8-.57.711.411V235.926l-.711-.411Z" transform="translate(-790.718 -235.356)" fill="#231f20"/>
            </g>
            <g id="Grupo_70310" data-name="Grupo 70310" transform="translate(0.804)">
              <path id="Trazado_107246" data-name="Trazado 107246" d="M793.632,235.554v14.2l-.8.464v-14.2Z" transform="translate(-792.781 -235.474)" fill="#fff"/>
              <path id="Trazado_107247" data-name="Trazado 107247" d="M792.713,250.179V235.873l.9-.517v14.306Zm.092-14.253V250.02l.712-.411V235.515Z" transform="translate(-792.713 -235.356)" fill="#231f20"/>
            </g>
          </g>
          <g id="Grupo_70314" data-name="Grupo 70314" transform="translate(22.929 10.881)">
            <g id="Grupo_70312" data-name="Grupo 70312">
              <path id="Trazado_107248" data-name="Trazado 107248" d="M814.918,249.428v14.2l-.8-.464v-14.2Z" transform="translate(-814.114 -248.964)" fill="#9cafab"/>
            </g>
            <g id="Grupo_70313" data-name="Grupo 70313" transform="translate(0.804)">
              <path id="Trazado_107249" data-name="Trazado 107249" d="M816.914,248.964v14.2l-.8.464v-14.2Z" transform="translate(-816.11 -248.964)" fill="#5b6664"/>
            </g>
          </g>
        </g>
        <g id="Grupo_70329" data-name="Grupo 70329" transform="translate(0 33.854)">
          <g id="Grupo_70319" data-name="Grupo 70319" transform="translate(0 11.295)">
            <g id="Grupo_70316" data-name="Grupo 70316" transform="translate(0 0.686)">
              <path id="Trazado_107250" data-name="Trazado 107250" d="M669.033,302.765v1.211l28.733,16.587v-1.211Z" transform="translate(-669.033 -302.765)" fill="#9cafab"/>
            </g>
            <g id="Grupo_70317" data-name="Grupo 70317">
              <path id="Trazado_107251" data-name="Trazado 107251" d="M669.033,301.747l1.189-.686,28.733,16.587-1.189.686Z" transform="translate(-669.033 -301.061)" fill="#bdd4cf"/>
            </g>
            <g id="Grupo_70318" data-name="Grupo 70318" transform="translate(28.733 16.587)">
              <path id="Trazado_107252" data-name="Trazado 107252" d="M740.371,344.141l1.189-.679v-1.218l-1.189.686Z" transform="translate(-740.371 -342.243)" fill="#5b6664"/>
            </g>
          </g>
          <g id="Grupo_70322" data-name="Grupo 70322" transform="translate(4.174)">
            <g id="Grupo_70320" data-name="Grupo 70320">
              <path id="Trazado_107253" data-name="Trazado 107253" d="M680.2,273.481v14.2l-.8-.464v-14.2Z" transform="translate(-679.397 -273.017)" fill="#9cafab"/>
            </g>
            <g id="Grupo_70321" data-name="Grupo 70321" transform="translate(0.804)">
              <path id="Trazado_107254" data-name="Trazado 107254" d="M682.2,273.017v14.2l-.8.464v-14.2Z" transform="translate(-681.393 -273.017)" fill="#5b6664"/>
            </g>
          </g>
          <g id="Grupo_70325" data-name="Grupo 70325" transform="translate(13.552 5.401)">
            <g id="Grupo_70323" data-name="Grupo 70323">
              <path id="Trazado_107255" data-name="Trazado 107255" d="M703.483,286.891v14.2l-.8-.464v-14.2Z" transform="translate(-702.679 -286.427)" fill="#9cafab"/>
            </g>
            <g id="Grupo_70324" data-name="Grupo 70324" transform="translate(0.804)">
              <path id="Trazado_107256" data-name="Trazado 107256" d="M705.479,286.427v14.2l-.8.464v-14.2Z" transform="translate(-704.675 -286.427)" fill="#5b6664"/>
            </g>
          </g>
          <g id="Grupo_70328" data-name="Grupo 70328" transform="translate(22.929 10.802)">
            <g id="Grupo_70326" data-name="Grupo 70326">
              <path id="Trazado_107257" data-name="Trazado 107257" d="M726.765,300.3v14.2l-.8-.464v-14.2Z" transform="translate(-725.961 -299.836)" fill="#9cafab"/>
            </g>
            <g id="Grupo_70327" data-name="Grupo 70327" transform="translate(0.804)">
              <path id="Trazado_107258" data-name="Trazado 107258" d="M728.76,299.836v14.2l-.8.464V300.3Z" transform="translate(-727.957 -299.836)" fill="#5b6664"/>
            </g>
          </g>
        </g>
        <g id="Grupo_70333" data-name="Grupo 70333" transform="translate(35.459 9.463)">
          <g id="Grupo_70330" data-name="Grupo 70330" transform="translate(0 0.607)">
            <path id="Trazado_107259" data-name="Trazado 107259" d="M757.186,214.164v1.211l28.733,16.587V230.75Z" transform="translate(-757.14 -214.084)" fill="#fff"/>
            <path id="Trazado_107260" data-name="Trazado 107260" d="M785.9,231.923l-.069-.039-28.755-16.6v-1.317l.069.04,28.756,16.6ZM757.164,215.23,785.8,231.764v-1.1l-28.641-16.534Z" transform="translate(-757.072 -213.966)" fill="#231f20"/>
          </g>
          <g id="Grupo_70331" data-name="Grupo 70331" transform="translate(0.046)">
            <path id="Trazado_107261" data-name="Trazado 107261" d="M757.186,213.146l1.189-.686,28.733,16.587-1.189.686Z" transform="translate(-757.186 -212.459)" fill="#bdd4cf"/>
          </g>
          <g id="Grupo_70332" data-name="Grupo 70332" transform="translate(28.779 16.587)">
            <path id="Trazado_107262" data-name="Trazado 107262" d="M828.524,255.539l1.189-.679v-1.218l-1.189.686Z" transform="translate(-828.524 -253.642)" fill="#5b6664"/>
          </g>
        </g>
        <g id="Grupo_70340" data-name="Grupo 70340" transform="translate(1.189 10.149)">
          <g id="Grupo_70336" data-name="Grupo 70336">
            <g id="Grupo_70334" data-name="Grupo 70334" transform="translate(13.89 8.019)">
              <path id="Trazado_107263" data-name="Trazado 107263" d="M740.788,235.285,706.472,255.1v-1.211l34.317-19.811Z" transform="translate(-706.472 -234.074)" fill="#b3a584"/>
            </g>
            <g id="Grupo_70335" data-name="Grupo 70335">
              <path id="Trazado_107264" data-name="Trazado 107264" d="M720.192,222.182l-34.317,19.811-13.89-8.019L706.3,214.163Z" transform="translate(-671.986 -214.163)" fill="#f3e8cc"/>
            </g>
          </g>
          <g id="Grupo_70339" data-name="Grupo 70339" transform="translate(14.843 8.567)">
            <g id="Grupo_70337" data-name="Grupo 70337" transform="translate(13.89 8.019)">
              <path id="Trazado_107265" data-name="Trazado 107265" d="M777.641,256.556l-34.317,19.811v-1.211l34.317-19.811Z" transform="translate(-743.324 -255.345)" fill="#b3a584"/>
            </g>
            <g id="Grupo_70338" data-name="Grupo 70338">
              <path id="Trazado_107266" data-name="Trazado 107266" d="M757.045,243.454l-34.317,19.811-13.89-8.019,34.317-19.811Z" transform="translate(-708.838 -235.434)" fill="#f3e8cc"/>
            </g>
          </g>
        </g>
        <g id="Grupo_70343" data-name="Grupo 70343" transform="translate(38.488 0.09)">
          <g id="Grupo_70342" data-name="Grupo 70342">
            <g id="Grupo_70341" data-name="Grupo 70341">
              <path id="Trazado_107267" data-name="Trazado 107267" d="M769.614,204.077a.261.261,0,0,1-.131-.035l-4.76-2.748a.262.262,0,0,1-.131-.227V189.449a.262.262,0,0,1,.524,0v11.467l4.629,2.672a.262.262,0,0,1-.131.489Z" transform="translate(-764.592 -189.187)" fill="#9cafab"/>
            </g>
          </g>
        </g>
        <g id="Grupo_70344" data-name="Grupo 70344" transform="translate(4.103 2.996)">
          <path id="Trazado_107268" data-name="Trazado 107268" d="M719.168,209.848a18.885,18.885,0,0,1-7.915-8.912l-1.945-4.533L679.22,213.74l1.945,4.533a18.891,18.891,0,0,0,7.915,8.913l11.969,6.91,30.088-17.338Z" transform="translate(-679.22 -196.402)" fill="#0075a4"/>
        </g>
        <g id="Grupo_70348" data-name="Grupo 70348" transform="translate(0 29.953)">
          <g id="Grupo_70345" data-name="Grupo 70345" transform="translate(0 0.686)">
            <path id="Trazado_107269" data-name="Trazado 107269" d="M669.033,265.036v1.211l28.733,16.587v-1.211Z" transform="translate(-669.033 -265.036)" fill="#9cafab"/>
          </g>
          <g id="Grupo_70346" data-name="Grupo 70346">
            <path id="Trazado_107270" data-name="Trazado 107270" d="M669.033,264.019l1.189-.686,28.733,16.587-1.189.686Z" transform="translate(-669.033 -263.332)" fill="#bdd4cf"/>
          </g>
          <g id="Grupo_70347" data-name="Grupo 70347" transform="translate(28.733 16.587)">
            <path id="Trazado_107271" data-name="Trazado 107271" d="M740.371,306.412l1.189-.679v-1.218l-1.189.686Z" transform="translate(-740.371 -304.515)" fill="#5b6664"/>
          </g>
        </g>
        <g id="Grupo_70359" data-name="Grupo 70359" transform="translate(3.833)">
          <g id="Grupo_70350" data-name="Grupo 70350" transform="translate(30.986 0.899)">
            <g id="Grupo_70349" data-name="Grupo 70349">
              <path id="Trazado_107272" data-name="Trazado 107272" d="M755.806,194.175l4.108-2.372a.325.325,0,0,0-.163-.607.328.328,0,0,0-.163.044l-4.105,2.37A1.489,1.489,0,0,0,755.806,194.175Z" transform="translate(-755.483 -191.197)" fill="#bdd4cf"/>
            </g>
          </g>
          <g id="Grupo_70358" data-name="Grupo 70358">
            <g id="Grupo_70355" data-name="Grupo 70355" transform="translate(0 17.339)">
              <g id="Grupo_70353" data-name="Grupo 70353">
                <g id="Grupo_70351" data-name="Grupo 70351">
                  <path id="Trazado_107273" data-name="Trazado 107273" d="M683.046,236.214c0,1.434-1.007,2.015-2.249,1.3a4.972,4.972,0,0,1-2.249-3.9c0-1.434,1.007-2.015,2.249-1.3A4.97,4.97,0,0,1,683.046,236.214Z" transform="translate(-678.549 -232.013)" fill="#118dbf"/>
                </g>
                <g id="Grupo_70352" data-name="Grupo 70352" transform="translate(1.623 2.095)">
                  <path id="Trazado_107274" data-name="Trazado 107274" d="M683.83,238.384c0,.4-.28.561-.626.362a1.384,1.384,0,0,1-.626-1.085c0-.4.28-.561.626-.361A1.383,1.383,0,0,1,683.83,238.384Z" transform="translate(-682.578 -237.215)" fill="#440301"/>
                </g>
              </g>
              <g id="Grupo_70354" data-name="Grupo 70354" transform="translate(1.623 2.099)">
                <path id="Trazado_107275" data-name="Trazado 107275" d="M683.63,238.441a1.384,1.384,0,0,1-.626-1.085.725.725,0,0,1,.011-.123c-.253-.053-.437.111-.437.433a1.384,1.384,0,0,0,.626,1.085c.307.177.562.068.615-.238A.643.643,0,0,1,683.63,238.441Z" transform="translate(-682.578 -237.224)" fill="#a90d01"/>
              </g>
            </g>
            <g id="Grupo_70357" data-name="Grupo 70357" transform="translate(0.66)">
              <g id="Grupo_70356" data-name="Grupo 70356">
                <path id="Trazado_107276" data-name="Trazado 107276" d="M714.11,193.165a4.97,4.97,0,0,0-2.249-3.895,1.593,1.593,0,0,0-1.565-.169v0l-.019.011-.009,0-30.08,17.336a1.581,1.581,0,0,1,1.589.158,4.97,4.97,0,0,1,2.249,3.895,1.61,1.61,0,0,1-.611,1.423v0l30-17.293c.021-.011.042-.023.062-.036l.036-.021,0,0A1.621,1.621,0,0,0,714.11,193.165Z" transform="translate(-680.187 -188.964)" fill="#035b7e"/>
              </g>
            </g>
          </g>
        </g>
        <g id="Grupo_70361" data-name="Grupo 70361" transform="translate(4.172 19.947)">
          <g id="Grupo_70360" data-name="Grupo 70360">
            <path id="Trazado_107277" data-name="Trazado 107277" d="M684.414,253.38a.264.264,0,0,1-.13-.035l-4.76-2.748a.261.261,0,0,1-.131-.227V238.752a.262.262,0,1,1,.524,0v11.467l4.629,2.672a.262.262,0,0,1-.131.489Z" transform="translate(-679.392 -238.49)" fill="#9cafab"/>
          </g>
        </g>
        <g id="Grupo_70363" data-name="Grupo 70363" transform="translate(2.06 19.725)">
          <g id="Grupo_70362" data-name="Grupo 70362">
            <path id="Trazado_107278" data-name="Trazado 107278" d="M678.417,237.937l-4.108,2.372a.325.325,0,0,0,.325.563l4.105-2.371A1.49,1.49,0,0,0,678.417,237.937Z" transform="translate(-674.147 -237.937)" fill="#bdd4cf"/>
          </g>
        </g>
        <g id="Grupo_70365" data-name="Grupo 70365" transform="translate(38.672 5.737)">
          <g id="Grupo_70364" data-name="Grupo 70364">
            <path id="Trazado_107279" data-name="Trazado 107279" d="M771.153,207.1a.256.256,0,0,1-.129-.035l-5.847-3.376a.257.257,0,0,1,.257-.445l5.847,3.376a.257.257,0,0,1-.128.48Z" transform="translate(-765.049 -203.209)" fill="#5b6664"/>
          </g>
        </g>
        <g id="Grupo_70367" data-name="Grupo 70367" transform="translate(10.217 9.116)">
          <g id="Grupo_70366" data-name="Grupo 70366">
            <path id="Trazado_107280" data-name="Trazado 107280" d="M694.658,231.966a.258.258,0,0,0,.128-.035l34.3-19.856a.257.257,0,0,0-.257-.445l-34.3,19.856a.257.257,0,0,0,.128.48Z" transform="translate(-694.401 -211.597)" fill="#9cafab"/>
          </g>
        </g>
        <g id="Grupo_70369" data-name="Grupo 70369" transform="translate(4.356 25.595)">
          <g id="Grupo_70368" data-name="Grupo 70368">
            <path id="Trazado_107281" data-name="Trazado 107281" d="M685.952,256.4a.258.258,0,0,1-.129-.035l-5.846-3.376a.257.257,0,0,1,.257-.445l5.847,3.376a.257.257,0,0,1-.129.48Z" transform="translate(-679.849 -252.513)" fill="#bdd4cf"/>
          </g>
        </g>
      </g>
    </g>
  </g>
</svg>
