<svg xmlns="http://www.w3.org/2000/svg" width="76.309" height="71.452" viewBox="0 0 76.309 71.452">
  <g id="Grupo_78250" data-name="Grupo 78250" transform="translate(-628.691 -5249.65)">
    <g id="Grupo_70769" data-name="Grupo 70769" transform="translate(703.268 5249.65)">
      <rect id="Rectángulo_8806" data-name="Rectángulo 8806" width="1.732" height="71.452" fill="#a3a3a3"/>
    </g>
    <g id="Grupo_70776" data-name="Grupo 70776" transform="translate(628.691 5268.101)">
      <path id="Trazado_107977" data-name="Trazado 107977" d="M2723.2,2561.258c0,10.67-4.962,16.645-13.853,16.645-8.845,0-13.806-5.975-13.806-16.645s4.961-16.6,13.806-16.6C2718.237,2544.659,2723.2,2550.588,2723.2,2561.258Zm-25.547,0c0,9.627,4.126,14.842,11.694,14.842,7.614,0,11.74-5.215,11.74-14.842,0-9.675-4.126-14.8-11.74-14.8C2701.778,2546.461,2697.652,2551.583,2697.652,2561.258Z" transform="translate(-2695.54 -2544.659)" fill="#ff8a5b"/>
      <path id="Trazado_107978" data-name="Trazado 107978" d="M2813.729,2552.674c0,3.747-2.259,6.215-6.093,7.447,4.766,1.185,7.665,4.126,7.665,8.488,0,5.882-4.618,9.3-12.085,9.3-7.566,0-12.184-3.414-12.184-9.247,0-4.41,2.948-7.351,7.762-8.536-3.831-1.232-6.139-3.746-6.139-7.492,0-5.028,4.027-7.969,10.562-7.969C2809.7,2544.659,2813.729,2547.6,2813.729,2552.674Zm-20.682,15.745c0,4.837,3.782,7.682,10.168,7.682,6.29,0,10.12-2.8,10.12-7.634,0-4.5-3.831-7.3-10.169-7.3C2796.879,2561.162,2793.048,2563.914,2793.048,2568.418Zm1.472-15.6c0,4.078,3.292,6.592,8.7,6.592s8.648-2.514,8.648-6.592c0-4.031-3.245-6.45-8.648-6.45S2794.52,2548.786,2794.52,2552.817Z" transform="translate(-2758.317 -2544.659)" fill="#ff8a5b"/>
    </g>
  </g>
</svg>
