<svg xmlns="http://www.w3.org/2000/svg" xmlns:xlink="http://www.w3.org/1999/xlink" width="315.334" height="280.809" viewBox="0 0 315.334 280.809">
  <defs>
    <clipPath id="clip-path">
      <path id="Trazado_106791" data-name="Trazado 106791" d="M113.713,297.443s2.333-24.931,1.11-27.189-38.76-1.882-38.76-1.882-.564,13.07,0,13.826,7.808.485,7.808.485-.376-5.656.847-6.408,18.628-.188,19.192,1.129-3.292,9.983-3.292,12.565l.846,7.474Z" transform="translate(-75.812 -268.349)" fill="none"/>
    </clipPath>
  </defs>
  <g id="Grupo_70154" data-name="Grupo 70154" transform="translate(-31.305 -46.859)">
    <path id="Trazado_106779" data-name="Trazado 106779" d="M196.337,309.91c-14.22-1.159-69.327,15.052-83.469,16.923-36.8,4.871-75.131-11.5-79.675-50.661-6.013-51.825,11.267-44.443,16.184-86.1s-35.163-62.99-9.312-93.608S109.439,36.08,131.8,52.044s87.175-19.039,128.1,1.449,40.835,79.657,51.745,82.347,57.992,84.089,21.137,138.655C298.756,324.868,281.884,316.883,196.337,309.91Z" transform="translate(0)" fill="#ff8a5b" opacity="0.25"/>
    <g id="Grupo_70042" data-name="Grupo 70042" transform="translate(46.81 195.098)">
      <g id="Grupo_70040" data-name="Grupo 70040" transform="translate(8.257)">
        <g id="Grupo_70035" data-name="Grupo 70035" transform="translate(0 2.319)">
          <path id="Trazado_106783" data-name="Trazado 106783" d="M74.771,282.359a.342.342,0,0,1-.06,0,1.011,1.011,0,0,1-.629-.52,2.8,2.8,0,0,0-1.14-1,5.192,5.192,0,0,0-1.434-.328,3.148,3.148,0,0,1-2.159-.857,2.64,2.64,0,0,1-.241-2.469,10.3,10.3,0,0,1,.4-.969,7.347,7.347,0,0,0,.485-1.259,6.063,6.063,0,0,0,.123-1.689c0-.1-.01-.209-.018-.316a2.318,2.318,0,0,1-1.046,1.436,2.741,2.741,0,0,1-1.394.29,3.2,3.2,0,0,1-1.207-.214,2.435,2.435,0,0,1-1.358-2.748,2.626,2.626,0,0,1,2.417-1.923,2.873,2.873,0,0,1,2.394,1.27,8,8,0,0,0-1.548-4.215c-.106-.142-.217-.282-.328-.423a4.407,4.407,0,0,1-1.058-1.921,2.643,2.643,0,0,1,.879-2.356,3.768,3.768,0,0,1,2.348-.91,3.105,3.105,0,0,1,1.676.333,5.267,5.267,0,0,1,1.179-.554,10.364,10.364,0,0,1,2.545-.382,9.1,9.1,0,0,0,2.682-.446l.126.329a9.378,9.378,0,0,1-2.785.469,10.162,10.162,0,0,0-2.46.364,4.977,4.977,0,0,0-.969.438,1.767,1.767,0,0,1,.658,1.5.823.823,0,0,1-.343.626,1.013,1.013,0,0,1-.484.126c-.27.023-1.1.088-1.392-.482-.208-.4-.035-.922.464-1.388a5.143,5.143,0,0,1,.447-.372,2.943,2.943,0,0,0-1.326-.209,3.422,3.422,0,0,0-2.13.817,2.323,2.323,0,0,0-.768,2.037,4.154,4.154,0,0,0,.986,1.762c.113.143.227.286.334.43a8.345,8.345,0,0,1,1.635,5.073c0,.045,0,.092,0,.141a5.749,5.749,0,0,1,.2,1.4,6.409,6.409,0,0,1-.133,1.79,7.8,7.8,0,0,1-.507,1.32c-.139.305-.282.62-.39.936a2.306,2.306,0,0,0,.178,2.131,2.855,2.855,0,0,0,1.935.734,5.487,5.487,0,0,1,1.532.354,3.11,3.11,0,0,1,1.261,1.091c.141.206.261.383.416.406a.122.122,0,0,0,.082-.038.149.149,0,0,0,.051-.1l.159-.3a.341.341,0,0,1,.175.426A.513.513,0,0,1,74.771,282.359ZM67.59,270.138h-.067a2.265,2.265,0,0,0-2.086,1.654,2.072,2.072,0,0,0,1.152,2.34,2.866,2.866,0,0,0,1.075.186,2.391,2.391,0,0,0,1.218-.244,2.59,2.59,0,0,0,1.034-2.185,2.776,2.776,0,0,0-.109-.284A2.5,2.5,0,0,0,67.59,270.138Zm4.29-8.153a4.939,4.939,0,0,0-.543.439c-.29.271-.546.669-.391.969.125.242.467.338,1.052.292a.757.757,0,0,0,.323-.073.516.516,0,0,0,.181-.368A1.425,1.425,0,0,0,71.88,261.985Z" transform="translate(-65.032 -260.184)" fill="#6aa5a5"/>
        </g>
        <g id="Grupo_70039" data-name="Grupo 70039" transform="translate(4.516)">
          <path id="Trazado_106784" data-name="Trazado 106784" d="M77.221,298.114v-.7h3.6V298.5Z" transform="translate(-73.15 -268.865)" fill="#3d3da0"/>
          <path id="Trazado_106785" data-name="Trazado 106785" d="M78.713,288.939v5.212l.589-5.212Z" transform="translate(-73.591 -266.361)" fill="#728194"/>
          <path id="Trazado_106786" data-name="Trazado 106786" d="M78.17,287.329v2.452h1.783l.159-2.9Z" transform="translate(-73.43 -265.753)" fill="#5858a3"/>
          <path id="Trazado_106787" data-name="Trazado 106787" d="M130.757,277.859s4.526.163,4.8.865.216,2.481,0,2.481-5.068.755-5.068.755Z" transform="translate(-88.887 -263.087)" fill="#5858a3"/>
          <path id="Trazado_106788" data-name="Trazado 106788" d="M113.713,297.443s2.333-24.931,1.11-27.189-38.76-1.882-38.76-1.882-.564,13.07,0,13.826,7.808.485,7.808.485-.376-5.656.847-6.408,18.628-.188,19.192,1.129-3.292,9.983-3.292,12.565l.846,7.474Z" transform="translate(-72.734 -260.277)" fill="#8484d3"/>
          <g id="Grupo_70038" data-name="Grupo 70038" transform="translate(3.078 8.072)">
            <g id="Grupo_70037" data-name="Grupo 70037" clip-path="url(#clip-path)">
              <g id="Grupo_70036" data-name="Grupo 70036" transform="translate(-1.274 3.791)">
                <path id="Trazado_106789" data-name="Trazado 106789" d="M123.951,295.432s.755-11.808.539-11.754-6.794,0-6.794,0L116.4,295.031Z" transform="translate(-86.532 -276.669)" fill="#5858a3"/>
                <path id="Trazado_106790" data-name="Trazado 106790" d="M75.028,273.729s2.858.431,3.451,1.348,0,9.409,0,9.409H74Z" transform="translate(-74.004 -273.729)" fill="#5858a3"/>
              </g>
            </g>
          </g>
          <rect id="Rectángulo_8574" data-name="Rectángulo 8574" width="42.937" height="8.213" transform="translate(0 28.953)" fill="#7171bf"/>
          <rect id="Rectángulo_8575" data-name="Rectángulo 8575" width="0.485" height="8.897" transform="translate(6.981)" fill="#3d3da0"/>
          <path id="Trazado_106792" data-name="Trazado 106792" d="M78.713,258.8h4.662l-.485,5.669-4.177-.054.295-5.392" transform="translate(-73.591 -257.454)" fill="#87bec3"/>
          <path id="Trazado_106793" data-name="Trazado 106793" d="M132.688,270.917s.161,13.318.492,13.8,2.435.318,2.381-.326-.054-13.586-.485-13.855S132.681,270.378,132.688,270.917Z" transform="translate(-89.539 -260.882)" fill="#8484d3"/>
          <path id="Trazado_106794" data-name="Trazado 106794" d="M115.4,272.211l1.129,3.98h.593l-1.27-3.98Z" transform="translate(-84.431 -261.418)" fill="#5858a3"/>
          <path id="Trazado_106795" data-name="Trazado 106795" d="M118.044,272.211l1.129,3.98h.593l-1.27-3.98Z" transform="translate(-85.212 -261.418)" fill="#5858a3"/>
          <path id="Trazado_106796" data-name="Trazado 106796" d="M120.687,272.211l1.129,3.98h.593l-1.27-3.98Z" transform="translate(-85.993 -261.418)" fill="#5858a3"/>
        </g>
      </g>
      <g id="Grupo_70041" data-name="Grupo 70041" transform="translate(0 35.985)">
        <path id="Trazado_106797" data-name="Trazado 106797" d="M66.028,313.751l2.423,83.664,4.167-.311,3-83.353Z" transform="translate(-57.07 -309.677)" fill="#af7452"/>
        <path id="Trazado_106798" data-name="Trazado 106798" d="M133.78,313.751l-2.423,83.664-4.167-.311-3-83.353Z" transform="translate(-74.256 -309.677)" fill="#af7452"/>
        <path id="Trazado_106799" data-name="Trazado 106799" d="M66.028,313.751l.262,9.054h50.041l.262-9.054Z" transform="translate(-57.07 -309.677)" fill="#e99163"/>
        <path id="Trazado_106800" data-name="Trazado 106800" d="M53.312,312.523l68.483.338v-4.892H53.312Z" transform="translate(-53.312 -307.969)" fill="#2b1811"/>
      </g>
    </g>
    <g id="Grupo_70048" data-name="Grupo 70048" transform="translate(183.373 65.586)">
      <path id="Trazado_106801" data-name="Trazado 106801" d="M247.148,78.364s2.989,194.621,4.665,198.3,122.252,0,124.357,0,3.156-197.251,0-200.934S250.153,71.527,247.148,78.364Z" transform="translate(-247.148 -73.065)" fill="#2b1811"/>
      <path id="Trazado_106802" data-name="Trazado 106802" d="M259.449,88.8s2.374,180.961,3.706,183.846,111.389,0,111.389,0L371.914,88.8Z" transform="translate(-250.783 -77.714)" fill="#f6d5ac"/>
      <g id="Grupo_70043" data-name="Grupo 70043" transform="translate(29.852 23.425)">
        <path id="Trazado_106803" data-name="Trazado 106803" d="M291.392,210.254c1.835.6,27.5-9.152,28.356-17.11s-5.133-23.748-5.418-27.117,3.422-29.361,3.422-29.361-18.822-7.976-15.115-24.929l-13.118-5.424S289.558,209.654,291.392,210.254Z" transform="translate(-289.519 -106.313)" fill="none" stroke="#b79197" stroke-miterlimit="10" stroke-width="0.878" stroke-dasharray="2.634 2.634"/>
        <path id="Trazado_106804" data-name="Trazado 106804" d="M335.168,138.656l43.7,21.63,6.274-9.867L339.8,113.048Z" transform="translate(-303.007 -108.303)" fill="none" stroke="#b79197" stroke-miterlimit="10" stroke-width="0.878" stroke-dasharray="2.634 2.634"/>
        <line id="Línea_317" data-name="Línea 317" x1="4.563" y2="7.882" transform="translate(71.581 40.192)" fill="none" stroke="#b79197" stroke-miterlimit="10" stroke-width="0.878" stroke-dasharray="2.634 2.634"/>
        <path id="Trazado_106805" data-name="Trazado 106805" d="M295.379,109.291l8.9,24.476-8.9,17.524,10.082,15.88-13.283,24.6" transform="translate(-290.305 -107.193)" fill="none" stroke="#b79197" stroke-miterlimit="10" stroke-width="0.878" stroke-dasharray="2.634 2.634"/>
        <path id="Trazado_106806" data-name="Trazado 106806" d="M301.605,227.18v9.153l14.3-7.676V221.5Z" transform="translate(-293.09 -140.348)" fill="none" stroke="#b79197" stroke-miterlimit="10" stroke-width="0.878" stroke-dasharray="2.634 2.634"/>
        <line id="Línea_318" data-name="Línea 318" x1="3.707" y2="20.222" transform="translate(34.793 9.004)" fill="none" stroke="#b79197" stroke-miterlimit="10" stroke-width="0.878" stroke-dasharray="2.634 2.634"/>
      </g>
      <g id="Grupo_70045" data-name="Grupo 70045" transform="translate(74.289 73.374)">
        <path id="Trazado_106807" data-name="Trazado 106807" d="M360.191,200.732,387.4,241.191l10.343-5.455-20.831-54.943Z" transform="translate(-354.837 -178.269)" fill="#c4b9bd"/>
        <path id="Trazado_106808" data-name="Trazado 106808" d="M352.754,280.566c1.745.825,28.431-5.633,30.276-13.421s-2.116-24.2-1.978-27.583,7.075-28.7,7.075-28.7-17.675-10.271-11.872-26.626l-12.335-7.026S351.01,279.741,352.754,280.566Z" transform="translate(-352.592 -177.21)" fill="#fff"/>
        <g id="Grupo_70044" data-name="Grupo 70044" transform="translate(18.359 1.461)">
          <path id="Trazado_106809" data-name="Trazado 106809" d="M378.65,188.861l2.062-8.014.344.1-2.165,7.982Z" transform="translate(-378.65 -179.746)" fill="#d5d5d5"/>
          <path id="Trazado_106810" data-name="Trazado 106810" d="M382.7,180.473a1.078,1.078,0,1,1-.759-1.133A.974.974,0,0,1,382.7,180.473Z" transform="translate(-379.24 -179.284)" fill="#a34551"/>
        </g>
      </g>
      <path id="Trazado_106811" data-name="Trazado 106811" d="M330.855,238.639c-15.984-7.206-28.143-21.239-36.111-36.856s-12.142-32.863-15.71-50.029c-1.864-8.97-3.578-17.976-4.925-27.039-1.177-7.915-2.08-15.874-2.548-23.864-.232-3.952-.037-8.011.078-12.051H259.449s2.374,180.961,3.706,183.846,111.389,0,111.389,0l-.316-22.025q-13.242-2.9-26.349-6.365A109.073,109.073,0,0,1,330.855,238.639Z" transform="translate(-250.783 -77.714)" fill="#f6d5ac" opacity="0.2" style="mix-blend-mode: multiply;isolation: isolate"/>
      <g id="Grupo_70047" data-name="Grupo 70047" transform="translate(51.18 124.87)">
        <path id="Trazado_106812" data-name="Trazado 106812" d="M319.792,252.241l2.824,26.363,18.842-1.926-2.7-26.376Z" transform="translate(-319.792 -250.302)" fill="#fff"/>
        <g id="Grupo_70046" data-name="Grupo 70046" transform="translate(2.173 5.082)">
          <path id="Trazado_106813" data-name="Trazado 106813" d="M322.877,258.769c.291.151.366.542.621.75a.859.859,0,0,0,1.086-.13,2.507,2.507,0,0,0,.562-1.04,7.174,7.174,0,0,0,1.327,1.778.447.447,0,0,0,.35.171.456.456,0,0,0,.26-.2l1.179-1.51c.165.243.385.515.678.5a.84.84,0,0,0,.321-.111l2.052-1.038,1,1.75a14.058,14.058,0,0,0,1.932-1.669l.309.371a18.065,18.065,0,0,1,1.735-.807.492.492,0,0,1,.317-.051c.139.041.214.191.337.268a.377.377,0,0,0,.523-.163" transform="translate(-322.877 -257.515)" fill="none" stroke="#2b1811" stroke-linecap="round" stroke-linejoin="round" stroke-width="0.5"/>
          <path id="Trazado_106814" data-name="Trazado 106814" d="M323.48,265.532a1.253,1.253,0,0,0,1.887-.561c.419.519,1.05,1.1,1.659.822.477-.215.75-.908,1.267-.837a1.214,1.214,0,0,1,.508.273,2.749,2.749,0,0,0,1.81.5,5.447,5.447,0,0,0,1.462-.4l2.872-1.086a.783.783,0,0,1,.364-.073,1.171,1.171,0,0,1,.351.149c.826.4,1.819-.271,2.717-.07" transform="translate(-323.055 -259.479)" fill="none" stroke="#2b1811" stroke-linecap="round" stroke-linejoin="round" stroke-width="0.5"/>
          <path id="Trazado_106815" data-name="Trazado 106815" d="M324.052,271.692l1.85-1.334a.351.351,0,0,1,.247-.1.355.355,0,0,1,.211.177l.875,1.273.676-.971a.359.359,0,0,1,.149-.144.332.332,0,0,1,.265.045c.4.211.7.574,1.086.821a1.052,1.052,0,0,0,1.262.037c.256-.245.3-.671.585-.876a2.843,2.843,0,0,0,1.418,1.092.506.506,0,0,0,.307.033.558.558,0,0,0,.272-.257l.8-1.208a.811.811,0,0,0,.807.632,2.035,2.035,0,0,0,1.046-.352c.277-.161.683-.315.868-.053a2.034,2.034,0,0,1,1.892-.145" transform="translate(-323.224 -261.264)" fill="none" stroke="#2b1811" stroke-linecap="round" stroke-linejoin="round" stroke-width="0.5"/>
          <path id="Trazado_106816" data-name="Trazado 106816" d="M325.348,277.755a5.8,5.8,0,0,1,1.589-1.737,1.811,1.811,0,0,0,2.138.961c.569-.183,1.1-.661,1.678-.52a3.146,3.146,0,0,1,.549.247,2.9,2.9,0,0,0,2.3-.125c.731-.305,1.4-.752,2.14-1.025a.457.457,0,0,1,.275-.038c.145.041.215.2.313.314.353.405,1.013.193,1.481-.072s1.072-.55,1.5-.225" transform="translate(-323.607 -262.797)" fill="none" stroke="#2b1811" stroke-linecap="round" stroke-linejoin="round" stroke-width="0.5"/>
          <path id="Trazado_106817" data-name="Trazado 106817" d="M326.007,283.125c-.055.166.221.214.388.163l1.316-.4a1.107,1.107,0,0,1,.643-.062c.315.1.468.448.716.667a1.512,1.512,0,0,0,1.549.13c.506-.2.939-.555,1.425-.8a1.792,1.792,0,0,1,1.572-.148c.23.113.42.3.659.4a1.757,1.757,0,0,0,1.309-.179,16.169,16.169,0,0,0,2.305-1.234q.152.4.306.807c.042.111.1.237.214.268a.356.356,0,0,0,.268-.073c.634-.385,1.241-1.041,1.968-.892" transform="translate(-323.8 -264.648)" fill="none" stroke="#2b1811" stroke-linecap="round" stroke-linejoin="round" stroke-width="0.5"/>
        </g>
      </g>
      <path id="Trazado_106818" data-name="Trazado 106818" d="M385.858,102.056s-2.4,15.121-2.4,17.518l11.985,1.844,2.213-18.44Z" transform="translate(-287.424 -81.631)" fill="#a34551"/>
      <path id="Trazado_106819" data-name="Trazado 106819" d="M364.032,296.592s-.7,8.257-.354,9.433l14.626-3.306V292.9Z" transform="translate(-281.551 -138.019)" fill="#a34551"/>
    </g>
    <g id="Grupo_70113" data-name="Grupo 70113" transform="translate(235.334 242.639)">
      <g id="Grupo_70105" data-name="Grupo 70105" transform="translate(0.38 11.167)">
        <path id="Trazado_106820" data-name="Trazado 106820" d="M329.792,346.558l1.7,55.805,28.292.342-1.616-55.431-20.988-2.45Z" transform="translate(-323.907 -341.581)" fill="#87bec3"/>
        <path id="Trazado_106821" data-name="Trazado 106821" d="M321.439,340.221l5.884,6.768,28.38-1.075,4.237-5.469Z" transform="translate(-321.439 -340.221)" fill="#fead54"/>
        <path id="Trazado_106822" data-name="Trazado 106822" d="M364.686,431.6l-5.981-5.517-28.283-.176-4.237,5.469Z" transform="translate(-322.841 -365.539)" fill="#fead54"/>
        <g id="Grupo_70049" data-name="Grupo 70049" transform="translate(5.122 7.722)">
          <path id="Trazado_106823" data-name="Trazado 106823" d="M329.273,353.255q7.235-.449,14.486-.569c4.826-.077,9.663.046,14.479-.329.747-.059.753-1.232,0-1.173-4.816.375-9.653.252-14.479.33s-9.663.269-14.486.569c-.75.046-.755,1.22,0,1.172Z" transform="translate(-328.709 -351.182)" fill="#77afb2"/>
        </g>
        <g id="Grupo_70050" data-name="Grupo 70050" transform="translate(5.123 9.564)">
          <path id="Trazado_106824" data-name="Trazado 106824" d="M329.277,356.11c9.823-.269,19.639-.727,29.456-1.141.752-.032.756-1.2,0-1.172-9.817.414-19.633.872-29.456,1.141a.587.587,0,0,0,0,1.172Z" transform="translate(-328.711 -353.796)" fill="#77afb2"/>
        </g>
        <g id="Grupo_70051" data-name="Grupo 70051" transform="translate(4.487 7.325)">
          <path id="Trazado_106825" data-name="Trazado 106825" d="M328.231,351.759q11.585,2.133,23.324,3.26,3.385.323,6.778.561c.753.053.75-1.119,0-1.172q-11.651-.821-23.2-2.648-3.3-.524-6.59-1.131c-.738-.136-1.054.993-.312,1.13Z" transform="translate(-327.808 -350.618)" fill="#77afb2"/>
        </g>
        <g id="Grupo_70052" data-name="Grupo 70052" transform="translate(5.216 12.783)">
          <path id="Trazado_106826" data-name="Trazado 106826" d="M329.409,359.79q14.684.424,29.371-.251c.751-.035.755-1.208,0-1.173q-14.675.676-29.371.252a.587.587,0,0,0,0,1.172Z" transform="translate(-328.843 -358.365)" fill="#77afb2"/>
        </g>
        <g id="Grupo_70053" data-name="Grupo 70053" transform="translate(4.808 12.356)">
          <path id="Trazado_106827" data-name="Trazado 106827" d="M328.826,362.991a114.341,114.341,0,0,0,12.135-1.892,79.055,79.055,0,0,1,12.175-1.436,30.686,30.686,0,0,0,6.807-.752.587.587,0,0,0-.312-1.131c-3.9,1.015-8.037.608-12.017,1.075-4,.469-7.932,1.331-11.892,2.034-2.285.405-4.58.749-6.9.93-.747.059-.753,1.231,0,1.172Z" transform="translate(-328.264 -357.758)" fill="#77afb2"/>
        </g>
        <g id="Grupo_70054" data-name="Grupo 70054" transform="translate(4.629 15.054)">
          <path id="Trazado_106828" data-name="Trazado 106828" d="M328.573,362.809c3.855-.233,7.668.458,11.507.671,1.935.107,3.873.049,5.81.075s3.8.28,5.71.456c2.206.2,4.364-.278,6.564-.2.755.025.754-1.147,0-1.172-1.938-.066-3.852.362-5.792.26-1.9-.1-3.776-.441-5.683-.5-1.939-.056-3.878.016-5.817-.055s-3.841-.287-5.757-.472a41.927,41.927,0,0,0-6.542-.235c-.75.045-.755,1.218,0,1.172Z" transform="translate(-328.009 -361.589)" fill="#77afb2"/>
        </g>
        <g id="Grupo_70055" data-name="Grupo 70055" transform="translate(20.353 14.725)">
          <path id="Trazado_106829" data-name="Trazado 106829" d="M350.894,362.293l14.458.108a.587.587,0,0,0,0-1.172l-14.458-.108a.587.587,0,0,0,0,1.172Z" transform="translate(-350.327 -361.121)" fill="#77afb2"/>
        </g>
        <g id="Grupo_70056" data-name="Grupo 70056" transform="translate(5.355 17.411)">
          <path id="Trazado_106830" data-name="Trazado 106830" d="M329.605,366.883q14.356-.7,28.732-.777a.587.587,0,0,0,0-1.172q-14.372.074-28.732.777c-.75.037-.755,1.21,0,1.172Z" transform="translate(-329.041 -364.934)" fill="#77afb2"/>
        </g>
        <g id="Grupo_70057" data-name="Grupo 70057" transform="translate(5.215 18.266)">
          <path id="Trazado_106831" data-name="Trazado 106831" d="M329.572,369.387a50.516,50.516,0,0,1,11.139-1.065c1.955-.023,3.909-.032,5.865-.046,1.907-.014,3.833.046,5.733-.142,2.074-.205,4.093-.895,6.192-.807.755.031.753-1.141,0-1.172a28.9,28.9,0,0,0-5.459.716,42.037,42.037,0,0,1-5.883.228c-3.857.028-7.732-.042-11.581.233a39.3,39.3,0,0,0-6.317.924c-.733.175-.423,1.305.311,1.13Z" transform="translate(-328.842 -366.148)" fill="#77afb2"/>
        </g>
        <g id="Grupo_70058" data-name="Grupo 70058" transform="translate(4.93 6.251)">
          <path id="Trazado_106832" data-name="Trazado 106832" d="M329,350.439c9.613-.5,19.236.287,28.852-.077.752-.029.756-1.2,0-1.172-9.616.364-19.239-.426-28.852.077-.751.039-.755,1.212,0,1.172Z" transform="translate(-328.437 -349.093)" fill="#77afb2"/>
        </g>
        <g id="Grupo_70059" data-name="Grupo 70059" transform="translate(5.489 19.984)">
          <path id="Trazado_106833" data-name="Trazado 106833" d="M329.8,370.9l14.66-.1a48.983,48.983,0,0,0,6.96-.4,64.02,64.02,0,0,1,7.305-.641c.752-.026.756-1.2,0-1.172a60.186,60.186,0,0,0-7.2.618,47.587,47.587,0,0,1-7.068.42l-14.66.1a.587.587,0,0,0,0,1.172Z" transform="translate(-329.23 -368.586)" fill="#77afb2"/>
        </g>
        <g id="Grupo_70060" data-name="Grupo 70060" transform="translate(5.442 22.247)">
          <path id="Trazado_106834" data-name="Trazado 106834" d="M329.729,373.121q14.39.118,28.782-.149a.587.587,0,0,0,0-1.172q-14.389.269-28.782.149a.587.587,0,0,0,0,1.172Z" transform="translate(-329.163 -371.799)" fill="#77afb2"/>
        </g>
        <g id="Grupo_70061" data-name="Grupo 70061" transform="translate(5.758 23.606)">
          <path id="Trazado_106835" data-name="Trazado 106835" d="M330.179,374.9q14.21.005,28.417.146a.587.587,0,0,0,0-1.172q-14.208-.142-28.417-.146a.587.587,0,0,0,0,1.172Z" transform="translate(-329.613 -373.727)" fill="#77afb2"/>
        </g>
        <g id="Grupo_70062" data-name="Grupo 70062" transform="translate(5.896 25.988)">
          <path id="Trazado_106836" data-name="Trazado 106836" d="M330.374,378.7q14.189.318,28.373-.417c.75-.039.755-1.212,0-1.172q-14.174.736-28.373.417a.587.587,0,0,0,0,1.172Z" transform="translate(-329.808 -377.108)" fill="#77afb2"/>
        </g>
        <g id="Grupo_70063" data-name="Grupo 70063" transform="translate(5.404 24.904)">
          <path id="Trazado_106837" data-name="Trazado 106837" d="M329.533,376.71a47.363,47.363,0,0,0,5.752.662c1.928.1,3.856.029,5.784.059,1.968.031,3.928.21,5.889.348,1.932.136,3.859.17,5.794.18a42.891,42.891,0,0,1,6.619.464c.738.119,1.055-1.01.311-1.13-3.807-.615-7.622-.388-11.454-.6-1.964-.111-3.921-.307-5.887-.392-1.93-.083-3.861,0-5.792-.05a44.883,44.883,0,0,1-6.7-.667c-.738-.13-1.055,1-.311,1.13Z" transform="translate(-329.109 -375.569)" fill="#77afb2"/>
        </g>
        <g id="Grupo_70064" data-name="Grupo 70064" transform="translate(5.94 27.393)">
          <path id="Trazado_106838" data-name="Trazado 106838" d="M330.437,381.31c4.829-.163,9.69-.5,14.522-.381,2.349.057,4.689.235,7.04.111,2.392-.127,4.767-.466,7.137-.8.744-.105.428-1.235-.311-1.131-2.342.33-4.688.657-7.052.769s-4.692-.08-7.04-.127c-4.758-.1-9.541.225-14.3.386-.752.025-.756,1.2,0,1.172Z" transform="translate(-329.871 -379.102)" fill="#77afb2"/>
        </g>
        <g id="Grupo_70065" data-name="Grupo 70065" transform="translate(5.733 28.868)">
          <path id="Trazado_106839" data-name="Trazado 106839" d="M330.308,383.689c9.353-2.1,18.993-.721,28.471-1.319.749-.048.755-1.22,0-1.173-7.513.474-15.057-.279-22.56.406a48.682,48.682,0,0,0-6.222.955c-.736.166-.424,1.3.312,1.131Z" transform="translate(-329.576 -381.196)" fill="#77afb2"/>
        </g>
        <g id="Grupo_70066" data-name="Grupo 70066" transform="translate(5.861 31.635)">
          <path id="Trazado_106840" data-name="Trazado 106840" d="M330.325,386.426q14.269.091,28.536-.13a.587.587,0,0,0,0-1.172q-14.267.221-28.536.13a.587.587,0,0,0,0,1.172Z" transform="translate(-329.758 -385.123)" fill="#77afb2"/>
        </g>
        <g id="Grupo_70067" data-name="Grupo 70067" transform="translate(11.45 30.095)">
          <path id="Trazado_106841" data-name="Trazado 106841" d="M338.255,384.443a180.1,180.1,0,0,0,22.514-.331c.748-.059.754-1.231,0-1.173a179.833,179.833,0,0,1-22.514.331c-.754-.036-.752,1.136,0,1.173Z" transform="translate(-337.691 -382.937)" fill="#77afb2"/>
        </g>
        <g id="Grupo_70068" data-name="Grupo 70068" transform="translate(5.494 32.448)">
          <path id="Trazado_106842" data-name="Trazado 106842" d="M329.8,388.923c4.724-.02,9.441-.356,14.155-.632l14.386-.84c.75-.044.755-1.216,0-1.172l-14.386.84c-4.714.275-9.431.612-14.155.632a.587.587,0,0,0,0,1.172Z" transform="translate(-329.238 -386.277)" fill="#77afb2"/>
        </g>
        <g id="Grupo_70069" data-name="Grupo 70069" transform="translate(5.952 34.324)">
          <path id="Trazado_106843" data-name="Trazado 106843" d="M330.452,390.974c9.382-.418,18.784-1.019,28.18-.824a.586.586,0,0,0,0-1.172c-9.4-.194-18.8.406-28.18.824-.751.033-.755,1.205,0,1.172Z" transform="translate(-329.887 -388.939)" fill="#77afb2"/>
        </g>
        <g id="Grupo_70070" data-name="Grupo 70070" transform="translate(5.948 36.68)">
          <path id="Trazado_106844" data-name="Trazado 106844" d="M330.448,393.473q14.267.273,28.536-.017a.586.586,0,0,0,0-1.172q-14.267.289-28.536.017a.587.587,0,0,0,0,1.172Z" transform="translate(-329.882 -392.284)" fill="#77afb2"/>
        </g>
        <g id="Grupo_70071" data-name="Grupo 70071" transform="translate(6.393 38.149)">
          <path id="Trazado_106845" data-name="Trazado 106845" d="M331.079,396.162l28.273-.621a.587.587,0,0,0,0-1.172l-28.273.621a.587.587,0,0,0,0,1.172Z" transform="translate(-330.513 -394.369)" fill="#77afb2"/>
        </g>
        <g id="Grupo_70072" data-name="Grupo 70072" transform="translate(6.033 40.082)">
          <path id="Trazado_106846" data-name="Trazado 106846" d="M330.568,399.223q14.311-.618,28.632-.938a.587.587,0,0,0,0-1.172q-14.321.319-28.632.938c-.752.032-.756,1.206,0,1.172Z" transform="translate(-330.002 -397.113)" fill="#77afb2"/>
        </g>
        <g id="Grupo_70073" data-name="Grupo 70073" transform="translate(6.161 41.847)">
          <path id="Trazado_106847" data-name="Trazado 106847" d="M330.748,402.46a80.382,80.382,0,0,0,14.35-.614c4.759-.529,9.532-1.235,14.333-1.013.755.035.752-1.137,0-1.172-4.8-.222-9.574.483-14.333,1.013a80.385,80.385,0,0,1-14.35.614c-.753-.051-.75,1.122,0,1.172Z" transform="translate(-330.185 -399.618)" fill="#77afb2"/>
        </g>
        <g id="Grupo_70074" data-name="Grupo 70074" transform="translate(6.328 44.893)">
          <path id="Trazado_106848" data-name="Trazado 106848" d="M330.987,405.8q13.95-.066,27.89-.684c.752-.033.756-1.205,0-1.172q-13.936.618-27.89.684a.587.587,0,0,0,0,1.172Z" transform="translate(-330.421 -403.941)" fill="#77afb2"/>
        </g>
        <g id="Grupo_70075" data-name="Grupo 70075" transform="translate(6.008 46.612)">
          <path id="Trazado_106849" data-name="Trazado 106849" d="M330.365,407.55a19.2,19.2,0,0,0,6.651.9c2.431,0,4.864-.03,7.3-.062,4.959-.065,9.917-.168,14.875-.27a.587.587,0,0,0,0-1.172c-4.88.1-9.761.2-14.642.266-2.4.032-4.806.061-7.21.066a18.911,18.911,0,0,1-6.659-.862c-.709-.261-1.015.872-.312,1.131Z" transform="translate(-329.967 -406.381)" fill="#77afb2"/>
        </g>
        <g id="Grupo_70076" data-name="Grupo 70076" transform="translate(6.596 49.112)">
          <path id="Trazado_106850" data-name="Trazado 106850" d="M331.367,411.886c4.645-.19,9.293-.037,13.94-.06q6.891-.035,13.757-.721c.743-.074.751-1.248,0-1.172q-6.858.686-13.757.721c-4.647.022-9.295-.13-13.94.06-.752.031-.755,1.2,0,1.172Z" transform="translate(-330.802 -409.93)" fill="#77afb2"/>
        </g>
        <g id="Grupo_70077" data-name="Grupo 70077" transform="translate(6.509 51.995)">
          <path id="Trazado_106851" data-name="Trazado 106851" d="M331.244,415.891a232.938,232.938,0,0,0,27.714-.694c.746-.063.753-1.236,0-1.172a232.938,232.938,0,0,1-27.714.694c-.755-.026-.754,1.146,0,1.172Z" transform="translate(-330.678 -414.022)" fill="#77afb2"/>
        </g>
        <g id="Grupo_70078" data-name="Grupo 70078" transform="translate(6.506 51.01)">
          <path id="Trazado_106852" data-name="Trazado 106852" d="M331.24,413.978l27.8-.182a.587.587,0,0,0,0-1.172l-27.8.182a.587.587,0,0,0,0,1.172Z" transform="translate(-330.674 -412.624)" fill="#77afb2"/>
        </g>
        <g id="Grupo_70079" data-name="Grupo 70079" transform="translate(6.33 52.964)">
          <path id="Trazado_106853" data-name="Trazado 106853" d="M330.989,417.75a47.685,47.685,0,0,0,7.226-.17c2.368-.238,4.7-.772,7.077-.926,2.413-.156,4.848-.055,7.263-.007,2.438.048,4.875.136,7.305.343.752.063.747-1.109,0-1.172-2.43-.207-4.868-.3-7.305-.343-2.415-.048-4.85-.149-7.263.007-2.376.154-4.708.688-7.077.926a47.681,47.681,0,0,1-7.226.17c-.755-.039-.752,1.134,0,1.172Z" transform="translate(-330.424 -415.398)" fill="#77afb2"/>
        </g>
        <g id="Grupo_70080" data-name="Grupo 70080" transform="translate(6.773 55.551)">
          <path id="Trazado_106854" data-name="Trazado 106854" d="M331.619,420.478l27.8-.237a.587.587,0,0,0,0-1.172l-27.8.237a.587.587,0,0,0,0,1.172Z" transform="translate(-331.053 -419.069)" fill="#77afb2"/>
        </g>
        <g id="Grupo_70081" data-name="Grupo 70081" transform="translate(6.872 57.711)">
          <path id="Trazado_106855" data-name="Trazado 106855" d="M331.758,424.139l14.117-.552c4.764-.185,9.532-.357,14.3-.242a.587.587,0,0,0,0-1.172c-4.768-.116-9.536.056-14.3.242l-14.117.552c-.752.029-.755,1.2,0,1.172Z" transform="translate(-331.193 -422.136)" fill="#77afb2"/>
        </g>
        <g id="Grupo_70082" data-name="Grupo 70082" transform="translate(6.606 57.201)">
          <path id="Trazado_106856" data-name="Trazado 106856" d="M331.38,422.746a144.226,144.226,0,0,1,14.456.039q3.574.191,7.136.561a36.537,36.537,0,0,1,6.909,1.264c.724.221,1.032-.911.311-1.131a37.158,37.158,0,0,0-6.89-1.271q-3.608-.388-7.235-.583a144.276,144.276,0,0,0-14.687-.053c-.751.036-.755,1.208,0,1.173Z" transform="translate(-330.815 -421.412)" fill="#77afb2"/>
        </g>
        <g id="Grupo_70083" data-name="Grupo 70083" transform="translate(3.899 6.133)">
          <path id="Trazado_106857" data-name="Trazado 106857" d="M327.282,349.99a47.462,47.462,0,0,0,11.513,3q6.115.936,12.263,1.637,3.525.4,7.059.724c.751.068.747-1.1,0-1.172q-6.024-.553-12.025-1.33c-4-.52-8.057-1-12-1.883a36.161,36.161,0,0,1-6.219-1.984c-.687-.291-1.285.719-.592,1.012Z" transform="translate(-326.973 -348.926)" fill="#6aa5a5"/>
        </g>
        <g id="Grupo_70084" data-name="Grupo 70084" transform="translate(4.731 8.727)">
          <path id="Trazado_106858" data-name="Trazado 106858" d="M328.718,356.868c9.5-.694,18.977-1.6,28.383-3.12.743-.12.428-1.25-.312-1.13-9.3,1.5-18.676,2.392-28.071,3.078-.748.054-.754,1.227,0,1.172Z" transform="translate(-328.154 -352.608)" fill="#6aa5a5"/>
        </g>
        <g id="Grupo_70085" data-name="Grupo 70085" transform="translate(4.819 14.044)">
          <path id="Trazado_106859" data-name="Trazado 106859" d="M328.842,361.6a166.209,166.209,0,0,0,29.23-.266c.745-.073.752-1.246,0-1.172a166.206,166.206,0,0,1-29.23.266c-.752-.059-.748,1.113,0,1.172Z" transform="translate(-328.28 -360.155)" fill="#6aa5a5"/>
        </g>
        <g id="Grupo_70086" data-name="Grupo 70086" transform="translate(5.258 12.458)">
          <path id="Trazado_106860" data-name="Trazado 106860" d="M329.469,359.622l7.376.011a48.8,48.8,0,0,0,7.255-.236,25.787,25.787,0,0,1,3.649-.354c1.207-.008,2.415.051,3.621.09l7.409.235c.755.024.754-1.148,0-1.172l-7.409-.235a38.045,38.045,0,0,0-7.131.236,47.814,47.814,0,0,1-7.395.264l-7.376-.011a.587.587,0,0,0,0,1.172Z" transform="translate(-328.903 -357.904)" fill="#6aa5a5"/>
        </g>
        <g id="Grupo_70087" data-name="Grupo 70087" transform="translate(4.991 7.03)">
          <path id="Trazado_106861" data-name="Trazado 106861" d="M329.09,353.432c4.919-.032,9.86-.017,14.773-.282a45.9,45.9,0,0,0,7.032-.94,23.367,23.367,0,0,1,7.148-.776c.75.075.745-1.1,0-1.172a22.99,22.99,0,0,0-7.019.724,46.392,46.392,0,0,1-7.162.991c-4.913.266-9.854.25-14.773.283a.587.587,0,0,0,0,1.172Z" transform="translate(-328.524 -350.199)" fill="#6aa5a5"/>
        </g>
        <g id="Grupo_70088" data-name="Grupo 70088" transform="translate(4.541 16.639)">
          <path id="Trazado_106862" data-name="Trazado 106862" d="M328.306,364.984q11.387,2.383,22.882,4.2,3.3.521,6.606.993c.738.106,1.057-1.024.312-1.131q-11.517-1.649-22.941-3.869-3.279-.638-6.549-1.323c-.736-.154-1.05.976-.311,1.131Z" transform="translate(-327.884 -363.838)" fill="#6aa5a5"/>
        </g>
        <g id="Grupo_70089" data-name="Grupo 70089" transform="translate(5.024 18.132)">
          <path id="Trazado_106863" data-name="Trazado 106863" d="M328.861,367.046c7.2,3.907,15.382,5.054,23.315,6.6,2.273.442,4.538.922,6.778,1.51a.587.587,0,0,0,.311-1.131c-7.789-2.042-15.9-2.731-23.56-5.3a39.216,39.216,0,0,1-6.252-2.69c-.663-.36-1.255.652-.592,1.012Z" transform="translate(-328.571 -365.958)" fill="#6aa5a5"/>
        </g>
        <g id="Grupo_70090" data-name="Grupo 70090" transform="translate(5.348 20.307)">
          <path id="Trazado_106864" data-name="Trazado 106864" d="M329.6,371.383q7.313.034,14.626-.055a71.715,71.715,0,0,0,13.972-1.138c.738-.156.426-1.286-.311-1.131a71.187,71.187,0,0,1-13.894,1.1q-7.2.086-14.392.052a.587.587,0,0,0,0,1.172Z" transform="translate(-329.03 -369.045)" fill="#6aa5a5"/>
        </g>
        <g id="Grupo_70091" data-name="Grupo 70091" transform="translate(5.379 17.268)">
          <path id="Trazado_106865" data-name="Trazado 106865" d="M329.775,374.667c3.678-1.5,7.577-2.3,11.382-3.4,3.678-1.064,7.091-2.743,10.686-4.029a20.644,20.644,0,0,1,6.193-1.332c.752-.027.756-1.2,0-1.172-3.824.139-7.343,1.648-10.821,3.1-1.784.747-3.578,1.452-5.429,2.019-1.914.586-3.857,1.07-5.791,1.585a53.768,53.768,0,0,0-6.532,2.1c-.689.281-.387,1.416.311,1.13Z" transform="translate(-329.074 -364.731)" fill="#6aa5a5"/>
        </g>
        <g id="Grupo_70092" data-name="Grupo 70092" transform="translate(5.615 27.389)">
          <path id="Trazado_106866" data-name="Trazado 106866" d="M329.974,380.27q14.245.715,28.515.538a.587.587,0,0,0,0-1.172q-14.262.178-28.515-.538c-.755-.038-.752,1.134,0,1.172Z" transform="translate(-329.409 -379.097)" fill="#6aa5a5"/>
        </g>
        <g id="Grupo_70093" data-name="Grupo 70093" transform="translate(5.6 29.708)">
          <path id="Trazado_106867" data-name="Trazado 106867" d="M329.671,383.484c6.648,3.88,14.553,3.521,21.975,3.621a64.244,64.244,0,0,1,6.935.4c.747.091.741-1.082,0-1.173-7.56-.925-15.335.325-22.777-1.617a21.892,21.892,0,0,1-5.542-2.248.587.587,0,0,0-.592,1.012Z" transform="translate(-329.388 -382.388)" fill="#6aa5a5"/>
        </g>
        <g id="Grupo_70094" data-name="Grupo 70094" transform="translate(6.235 29.364)">
          <path id="Trazado_106868" data-name="Trazado 106868" d="M330.855,383.073c2.34.088,4.66.454,6.99.673q3.546.333,7.107.445a115.023,115.023,0,0,0,14.228-.442c.745-.07.752-1.243,0-1.173a114.88,114.88,0,0,1-14.228.443q-3.559-.112-7.107-.445c-2.33-.219-4.65-.585-6.99-.673-.755-.028-.754,1.144,0,1.172Z" transform="translate(-330.289 -381.9)" fill="#6aa5a5"/>
        </g>
        <g id="Grupo_70095" data-name="Grupo 70095" transform="translate(5.951 34.861)">
          <path id="Trazado_106869" data-name="Trazado 106869" d="M330.45,391.722c9.622-.581,19.3.516,28.88-.882.744-.109.428-1.239-.311-1.131-9.465,1.382-19.057.266-28.569.841-.75.045-.755,1.217,0,1.172Z" transform="translate(-329.886 -389.702)" fill="#6aa5a5"/>
        </g>
        <g id="Grupo_70096" data-name="Grupo 70096" transform="translate(5.593 31.961)">
          <path id="Trazado_106870" data-name="Trazado 106870" d="M329.944,388.45c7.6.325,15.111-1.159,22.68-1.586a59.245,59.245,0,0,1,6.434-.037c.754.04.752-1.132,0-1.172-7.6-.4-15.114,1.067-22.677,1.535a61.3,61.3,0,0,1-6.437.087c-.755-.032-.753,1.141,0,1.172Z" transform="translate(-329.378 -385.586)" fill="#6aa5a5"/>
        </g>
        <g id="Grupo_70097" data-name="Grupo 70097" transform="translate(6.684 37.664)">
          <path id="Trazado_106871" data-name="Trazado 106871" d="M331.344,394.83a137.337,137.337,0,0,0,27.951,3.759c.755.023.754-1.149,0-1.172a135.741,135.741,0,0,1-27.639-3.717c-.733-.177-1.046.954-.311,1.131Z" transform="translate(-330.926 -393.68)" fill="#6aa5a5"/>
        </g>
        <g id="Grupo_70098" data-name="Grupo 70098" transform="translate(6.506 43.217)">
          <path id="Trazado_106872" data-name="Trazado 106872" d="M331.24,402.734h27.177a.587.587,0,0,0,0-1.172H331.24a.587.587,0,0,0,0,1.172Z" transform="translate(-330.674 -401.562)" fill="#6aa5a5"/>
        </g>
        <g id="Grupo_70099" data-name="Grupo 70099" transform="translate(5.903 38.372)">
          <path id="Trazado_106873" data-name="Trazado 106873" d="M330.384,397.944a118.322,118.322,0,0,0,14.2-.125c4.655-.415,9.194-1.7,13.863-1.959.75-.041.755-1.214,0-1.172-4.671.256-9.208,1.544-13.863,1.959a118.475,118.475,0,0,1-14.2.125c-.755-.023-.754,1.149,0,1.172Z" transform="translate(-329.818 -394.685)" fill="#6aa5a5"/>
        </g>
        <g id="Grupo_70100" data-name="Grupo 70100" transform="translate(6.515 45.866)">
          <path id="Trazado_106874" data-name="Trazado 106874" d="M331.251,406.5q13.657.837,27.349.792a.587.587,0,0,0,0-1.172q-13.683.044-27.349-.792c-.754-.046-.751,1.127,0,1.172Z" transform="translate(-330.687 -405.322)" fill="#6aa5a5"/>
        </g>
        <g id="Grupo_70101" data-name="Grupo 70101" transform="translate(6.956 48.797)">
          <path id="Trazado_106875" data-name="Trazado 106875" d="M331.878,411.282a284.6,284.6,0,0,0,28.515-.625c.748-.054.754-1.227,0-1.172a284.559,284.559,0,0,1-28.515.625.587.587,0,0,0,0,1.172Z" transform="translate(-331.312 -409.483)" fill="#6aa5a5"/>
        </g>
        <g id="Grupo_70102" data-name="Grupo 70102" transform="translate(6.417 51.374)">
          <path id="Trazado_106876" data-name="Trazado 106876" d="M331.114,414.971q14.79-.448,29.585-.658a.587.587,0,0,0,0-1.173q-14.8.21-29.585.659c-.752.023-.756,1.2,0,1.172Z" transform="translate(-330.548 -413.14)" fill="#6aa5a5"/>
        </g>
        <g id="Grupo_70103" data-name="Grupo 70103" transform="translate(6.331 53.173)">
          <path id="Trazado_106877" data-name="Trazado 106877" d="M330.99,420.9a98.85,98.85,0,0,0,11.729-1.554c3.776-.664,7.605-.749,11.4-1.212a32.07,32.07,0,0,0,6.129-1.281c.714-.234.408-1.366-.311-1.131a46.981,46.981,0,0,1-10.979,1.711c-1.818.146-3.635.313-5.438.6-1.909.3-3.8.7-5.71,1-2.261.348-4.54.576-6.825.7-.75.042-.755,1.214,0,1.172Z" transform="translate(-330.426 -415.695)" fill="#6aa5a5"/>
        </g>
        <g id="Grupo_70104" data-name="Grupo 70104" transform="translate(6.684 55.662)">
          <path id="Trazado_106878" data-name="Trazado 106878" d="M331.493,420.419c4.778-.156,9.519.649,14.293.676,4.739.026,9.479-.49,14.212-.037.751.071.746-1.1,0-1.172-4.732-.452-9.472.064-14.212.037-4.774-.027-9.515-.832-14.293-.676-.752.025-.756,1.2,0,1.172Z" transform="translate(-330.927 -419.226)" fill="#6aa5a5"/>
        </g>
        <path id="Trazado_106879" data-name="Trazado 106879" d="M359.642,392.955l-.971.016-.041-1.386c.161-.011.321-.02.48-.032.748-.054.754-1.227,0-1.172-.171.013-.343.022-.514.034l-.016-.554a.61.61,0,0,0-.03-1.053l-.122-4.166h.054c.677.032.743-.908.205-1.126a.58.58,0,0,0-.306-.473l-.006-.216a.586.586,0,0,0-.034-1.161l-.023-.765a.586.586,0,0,0-.013-1.171h-.02l-.009-.319a.594.594,0,0,0-.033-1.141l-.02-.659c.082-.011.165-.02.247-.032.683-.1.471-1.058-.14-1.131a.639.639,0,0,0-.047-.166.654.654,0,0,0-.125-.931l-.013-.426a.661.661,0,0,0,.065-.147c.046,0,.092,0,.137,0,.66.035.74-.859.246-1.109a.527.527,0,0,0-.5-.454l-.013-.416.116-.01c.745-.07.752-1.243,0-1.173l-.15.013v-.018a.6.6,0,0,0,.159-1.143.634.634,0,0,0,.127-.376.5.5,0,0,0,.285-.776c.04.006.081.01.121.016.68.11,1-.838.466-1.082a.525.525,0,0,0-.413-.479c-.2-.053-.4-.1-.6-.152a.533.533,0,0,0-.206-.052l-.052-.013L357.9,366.5a.587.587,0,0,0-.034-1.16l-.01-.336h.008a.6.6,0,0,0,.393-1.026.462.462,0,0,0-.419-.549l-.028,0-.013-.477a.465.465,0,0,0,.166-.2l.092,0c.752-.026.756-1.2,0-1.172l-.3.013-.016-.552c.07,0,.139,0,.209,0,.661.027.742-.868.247-1.112a.592.592,0,0,0-.374-.914.476.476,0,0,0-.143-.1v-.047c.061,0,.121,0,.182,0,.755.025.754-1.147,0-1.172-.072,0-.144,0-.216,0l0-.1.811.006a.587.587,0,0,0,0-1.172l-.253,0c.141-.36-.026-.831-.512-.783l-.1.009,0-.074c.216-.009.431-.016.647-.027a.556.556,0,0,0,.452-.244c.3-.061.589-.128.882-.2a.587.587,0,0,0-.312-1.131c-.559.145-1.122.259-1.69.353h-.016l-.006-.232c.193.018.387.039.58.056a.529.529,0,0,0,.528-.749.608.608,0,0,0-.559-.69l-.59-.045-.009-.3.732-.032c.752-.032.756-1.2,0-1.172l-.766.033-.02-.681.292-.019a.626.626,0,0,0,.407-1.036.67.67,0,0,0-.223-.639.569.569,0,0,0-.488-.876l-.063,0-.019-.657-20.988-2.45-7.392,1.734.043,1.428c-.144.007-.288.011-.433.019a.655.655,0,0,0-.067.011c-.209-.085-.421-.161-.629-.249-.687-.291-1.285.719-.592,1.012.19.08.381.151.571.228a.654.654,0,0,0-.232.29c.324.275.688.571,1.091.882l.125.023-.076,0-.011,0a44.622,44.622,0,0,0,16.919,7.677c14.329,3.442-3.015,40.721-11.051,40.036a10.014,10.014,0,0,0-4.484.555.56.56,0,0,0,.28.067h.132l.007.213c-.194.013-.388.028-.583.039a.6.6,0,0,0-.149,1.162.513.513,0,0,0,.423.163c.116-.006.233-.007.349-.013v.016l-.083,0c-.752.029-.755,1.2,0,1.172l.119,0,.032,1.073,28.293.342-.02-.7a.594.594,0,0,0,.122-1.155l-.157-.044-.009-.3h.038a.587.587,0,0,0,0-1.172h-.072l-.008-.255c.73.048.719-1.1-.02-1.172h-.014l-.051-1.768.078.006a.478.478,0,0,0,.5-.269c.567-.309.258-1.3-.421-1.082-.065.021-.13.037-.2.058l-.02-.7.937-.015A.587.587,0,0,0,359.642,392.955Z" transform="translate(-323.074 -341.581)" fill="#77afb2" opacity="0.2" style="mix-blend-mode: multiply;isolation: isolate"/>
      </g>
      <g id="Grupo_70112" data-name="Grupo 70112">
        <g id="Grupo_70106" data-name="Grupo 70106">
          <path id="Trazado_106880" data-name="Trazado 106880" d="M323.133,325.85c-.69-1.8-3.17-2.441-1.853.91,0,0,12.244,31.443,20.669,49.11C341.949,375.87,323.679,327.278,323.133,325.85Zm-.306,1.814c-.73.283-1.344-1.83-1.344-1.83-.077-.5-.14-.742.218-.869S323.556,327.381,322.826,327.664Z" transform="translate(-320.9 -324.371)" fill="#d5d5d5"/>
        </g>
        <g id="Grupo_70111" data-name="Grupo 70111" transform="translate(8.225 26.836)">
          <g id="Grupo_70107" data-name="Grupo 70107" transform="translate(1.131 6.353)">
            <path id="Trazado_106881" data-name="Trazado 106881" d="M334.74,373.456q5.55-.615,11.134-.8c.752-.025.756-1.2,0-1.172q-5.581.189-11.134.8c-.742.082-.75,1.255,0,1.172Z" transform="translate(-334.181 -371.478)" fill="#6aa5a5"/>
          </g>
          <g id="Grupo_70108" data-name="Grupo 70108" transform="translate(3.157 7.976)">
            <path id="Trazado_106882" data-name="Trazado 106882" d="M337.621,375.271a36.04,36.04,0,0,0,4.617-.351.589.589,0,0,0,.409-.721.6.6,0,0,0-.721-.409,33.728,33.728,0,0,1-4.306.309.587.587,0,0,0,0,1.172Z" transform="translate(-337.055 -373.781)" fill="#6aa5a5"/>
          </g>
          <g id="Grupo_70109" data-name="Grupo 70109" transform="translate(0.745 0.372)">
            <path id="Trazado_106883" data-name="Trazado 106883" d="M334.5,366.247c1.571-.949,3.442-1.222,5.023-2.16a.587.587,0,0,0-.592-1.012c-1.578.936-3.449,1.21-5.023,2.16a.587.587,0,0,0,.592,1.012Z" transform="translate(-333.632 -362.989)" fill="#6aa5a5"/>
          </g>
          <g id="Grupo_70110" data-name="Grupo 70110">
            <path id="Trazado_106884" data-name="Trazado 106884" d="M333.315,364.327l3.87-.722a.591.591,0,0,0,.409-.721.6.6,0,0,0-.721-.409L333,363.2a.592.592,0,0,0-.409.721.6.6,0,0,0,.721.41Z" transform="translate(-332.575 -362.461)" fill="#6aa5a5"/>
          </g>
        </g>
      </g>
    </g>
    <g id="Grupo_70148" data-name="Grupo 70148" transform="translate(90.723 107.488)">
      <g id="Grupo_70117" data-name="Grupo 70117" transform="translate(0 98.403)">
        <g id="Grupo_70114" data-name="Grupo 70114" transform="translate(55.537 110.758)">
          <path id="Trazado_106885" data-name="Trazado 106885" d="M211.677,435.3c.43-.04.47-.375.385-.729-2.791-.989-6.1-2.053-9.389-2.979l-6.175-2.173-2,2.173s-.046,1.453-.016,2.987C204.972,436.214,210.743,435.387,211.677,435.3Z" transform="translate(-194.471 -429.419)" fill="#eb7451"/>
          <path id="Trazado_106886" data-name="Trazado 106886" d="M212.067,436.731c.085.354.045.689-.385.729-.933.087-6.705.914-17.2-.721.033,1.713.16,3.528.547,3.528.736,0,24.2,1.484,24.194-.317C219.227,439.514,216.228,438.206,212.067,436.731Z" transform="translate(-194.475 -431.579)" fill="#87bec3"/>
        </g>
        <g id="Grupo_70115" data-name="Grupo 70115" transform="translate(15.49)">
          <path id="Trazado_106887" data-name="Trazado 106887" d="M141.464,278.708s-2.342,17.532-3.277,41.144-.416,64.531-.416,64.531h7.462s13.215-85.482,15.657-85.511,16.812,86.27,16.812,86.27h8.177s-8.387-99.767-10.149-109.322S141.464,278.708,141.464,278.708Z" transform="translate(-137.628 -272.211)" fill="#fe9594"/>
          <path id="Trazado_106888" data-name="Trazado 106888" d="M143.435,288.695s-1.836,15.639-1.377,15.639,7.527-10.374,7.711-14.413A50.453,50.453,0,0,1,143.435,288.695Z" transform="translate(-138.915 -277.081)" fill="#cf8789"/>
          <path id="Trazado_106889" data-name="Trazado 106889" d="M160.674,312.291s-11.738,53.184-13.842,82.945" transform="translate(-140.347 -284.053)" fill="none" stroke="#cf8789" stroke-linecap="round" stroke-linejoin="round" stroke-width="0.878" stroke-dasharray="2.634"/>
          <path id="Trazado_106890" data-name="Trazado 106890" d="M174.111,310.892s8.342,35.122,15.649,84.92" transform="translate(-148.407 -283.64)" fill="none" stroke="#cf8789" stroke-linecap="round" stroke-linejoin="round" stroke-width="0.878" stroke-dasharray="2.634"/>
          <path id="Trazado_106891" data-name="Trazado 106891" d="M166.479,290.1l.866,12.587s5.347.223,4.455-12.587Z" transform="translate(-146.152 -277.498)" fill="#cf8789"/>
          <path id="Trazado_106892" data-name="Trazado 106892" d="M186.679,288.491a53.46,53.46,0,0,0,4.5,13.579l-.933-14.065A23.438,23.438,0,0,1,186.679,288.491Z" transform="translate(-152.121 -276.878)" fill="#cf8789"/>
        </g>
        <g id="Grupo_70116" data-name="Grupo 70116" transform="translate(0 112.172)">
          <path id="Trazado_106893" data-name="Trazado 106893" d="M123.269,436.541a.906.906,0,0,1-.332-.757c-3.9,1.72-7.631,3.571-7.271,4.224.735,1.337,22.589-.668,23.19-1.4.349-.426.252-2.466.111-4.105C135.426,436.549,123.989,437.23,123.269,436.541Z" transform="translate(-115.642 -432.334)" fill="#87bec3"/>
          <path id="Trazado_106894" data-name="Trazado 106894" d="M134.334,431.426s-4.264,1.654-8.338,3.45a.906.906,0,0,0,.332.757c.719.689,12.157.008,15.7-2.041-.1-1.186-.23-2.166-.23-2.166Z" transform="translate(-118.7 -431.426)" fill="#eb7451"/>
        </g>
      </g>
      <g id="Grupo_70119" data-name="Grupo 70119" transform="translate(117.425 116.682)">
        <path id="Trazado_106895" data-name="Trazado 106895" d="M294.874,299s2.14,22.393,1.681,25.3-3.634,3.955-5.6,3.669c-1.477-.216-2.857-2.293-3.751-2.293s-3.34,1.529-3.34,1.529l-1.555-29.044Z" transform="translate(-282.313 -298.156)" fill="#ea9644"/>
        <g id="Grupo_70118" data-name="Grupo 70118" transform="translate(1.395 4.177)">
          <path id="Trazado_106896" data-name="Trazado 106896" d="M295.768,304.094a6.569,6.569,0,0,0-.816.009,45.329,45.329,0,0,0-6.632.849,7.81,7.81,0,0,0-2.48.859,3.087,3.087,0,0,0-1.516,2.057,4.7,4.7,0,0,0,.468,2.38c.922.448,2.129.018,2.983.585a2.9,2.9,0,0,1,.979,2.037c.678,4,.771,8.106,1.773,12.04a2,2,0,0,0,.346-1.444c-.079-3.575-.226-7.211.686-10.668a6.021,6.021,0,0,1,.469-1.294,5.686,5.686,0,0,1,1.594-1.751,9.21,9.21,0,0,1,2.53-1.3C296.012,306.819,295.88,305.326,295.768,304.094Z" transform="translate(-284.293 -304.085)" fill="#ea9644" opacity="0.2" style="mix-blend-mode: multiply;isolation: isolate"/>
          <path id="Trazado_106897" data-name="Trazado 106897" d="M287.853,317.722c-.012-.262-.077-.588-.332-.652q-.114,1.339-.228,2.677c-.368,4.317-.76,8.688-2.157,12.78a9.18,9.18,0,0,1,2.906-1.267,2.181,2.181,0,0,1,1.143.631,24.2,24.2,0,0,1-1.25-6.094C287.8,323.108,287.975,320.411,287.853,317.722Z" transform="translate(-284.542 -307.922)" fill="#ea9644" opacity="0.2" style="mix-blend-mode: multiply;isolation: isolate"/>
        </g>
      </g>
      <path id="Trazado_106898" data-name="Trazado 106898" d="M258.287,202.877c-.614-.423-4.186,1.733-5.723,2.729-.008-.02-.089-.146-.1-.166,1.932-1.47,7.534-5.574,7.2-6.2s-5.953,3.349-7.9,4.753c-.015-.025-.183-.218-.2-.244,1.631-1.458,6-5.132,5.628-5.5-.461-.458-9.034,5.736-9.756,5.746-.851.012,1.487-6.654.364-6.692-1.021-.035-3.505,7.713-3.505,7.713a145.193,145.193,0,0,1-9.52,13.786c-8.259,9.993-12.461,8.139-13.216,7.7-11.845-6.869-50.826-37.634-44.405-19.442,4.48,12.694,23.3,25.611,44.589,30.182,8.962,1.924,21.43-16.33,27.594-26.36v0s8.392-4.749,7.986-5.336c-.175-.252-2.949.886-4.291,1.493-.011-.027.027-.071-.008-.161C254.686,205.857,258.92,203.313,258.287,202.877Z" transform="translate(-133.607 -151.675)" fill="#db6449"/>
      <g id="Grupo_70121" data-name="Grupo 70121" transform="translate(65.897 59.431)">
        <path id="Trazado_106899" data-name="Trazado 106899" d="M209.176,217.595s.893,41.38,1.241,47.54,1.859,35.914.93,39.518.3,14.215.3,14.215,2.607-.121,5.4-.136,5.812,1.284,8.485,1.157,4.765.011,6.044,0c0,0-1.744-34.41-1.744-38.828s-2.957-50.865-2.957-50.865-7.852-7.44-8.9-7.984-1.279-3.5-3.952-4.348S209.148,216.322,209.176,217.595Z" transform="translate(-209.176 -216.896)" fill="#8484d3"/>
        <g id="Grupo_70120" data-name="Grupo 70120">
          <path id="Trazado_106900" data-name="Trazado 106900" d="M210.163,258.107c1.421.772-.1-32.853,1.589-33.17s1.556,53.163,3.647,57.56-1.416-57.023,0-57.2,2.934,29.66,3.441,29.932-1.519-28.159,0-28.12,2.7,50.065,4.219,51.211-2.363-48.882-1.013-48.677,1.519,9.825,2.195,11.85c.4,1.2,1.807-2.135,3.028-4.975-.242-3.854-.4-6.327-.4-6.327s-7.852-7.44-8.9-7.984-1.279-3.5-3.952-4.348-4.873-1.54-4.844-.268c0,0,.579,26.85.987,40.513Z" transform="translate(-209.176 -216.896)" fill="#7171bf"/>
          <path id="Trazado_106901" data-name="Trazado 106901" d="M231.118,341.141c-.507-.105-.726.612-1.1.967a1.244,1.244,0,0,1-1.509.019,2.873,2.873,0,0,1-.938-1.308,16.934,16.934,0,0,1-1.041-4.66,127.9,127.9,0,0,1-.905-15.227,35.9,35.9,0,0,0-.151-4.372,1.314,1.314,0,0,0-.251-.731.946.946,0,0,0-1.389.214,2.718,2.718,0,0,0-.361,1.545q-.333,11.205.261,22.414c.066,1.236.028,2.707-1,3.392a1.847,1.847,0,0,1-2.495-.554,3.552,3.552,0,0,1-.39-1.255l-1.788-10.012c-.1-.573-.272-1.236-.807-1.465a1.221,1.221,0,0,0-1.453.665,3.553,3.553,0,0,0-.258,1.719l.144,8.41a1.571,1.571,0,0,1-.17.912,1.131,1.131,0,0,1-1.032.413,3.289,3.289,0,0,1-2.3-1.714,5.6,5.6,0,0,1-.368-.7c.129,4.015.615,8.22.615,8.22s2.607-.121,5.4-.136,5.812,1.284,8.485,1.157,4.765.01,6.044,0c0,0-.144-2.831-.348-6.97-.137-.191-.275-.38-.416-.566A.866.866,0,0,0,231.118,341.141Z" transform="translate(-209.953 -246.061)" fill="#7171bf"/>
        </g>
      </g>
      <g id="Grupo_70124" data-name="Grupo 70124" transform="translate(92.281 11.685)">
        <g id="Grupo_70122" data-name="Grupo 70122" transform="translate(18.307)">
          <path id="Trazado_106902" data-name="Trazado 106902" d="M282.3,170.019s.056-2.87-.45-2.976c-.223-.047-.672-.122-1.1-.19v3.436l3.085.881-.028-1.048Z" transform="translate(-275.013 -154.363)" fill="#545455"/>
          <path id="Trazado_106903" data-name="Trazado 106903" d="M274.3,155.462c1.346.284,2.657,2.835,6.52,1.418,3.211-1.178.865-5.61,1.183-7.276a9.778,9.778,0,0,0-1.907-.419c-3.714-.441-7.305,1.587-7.481,5.553a3.447,3.447,0,0,0,.224,1.413A1.289,1.289,0,0,1,274.3,155.462Z" transform="translate(-272.609 -149.125)" fill="#545455"/>
          <path id="Trazado_106904" data-name="Trazado 106904" d="M279.991,164.982l1.5.1-.148-5.476s4.848-1.322,5.025-4.407c.144-2.525-1.6-4.516-4.274-5.4-.318,1.666,2.028,6.1-1.183,7.276-3.862,1.417-5.173-1.134-6.52-1.418a1.289,1.289,0,0,0-1.462.688c1.062,2.749,5.505,3.347,5.505,3.347v2.118c.432.068.881.143,1.1.19C280.047,162.112,279.991,164.982,279.991,164.982Z" transform="translate(-272.704 -149.325)" fill="#414144"/>
        </g>
        <g id="Grupo_70123" data-name="Grupo 70123" transform="translate(0 14.359)">
          <path id="Trazado_106905" data-name="Trazado 106905" d="M278.843,303.745l1.728,94.46H282.6l1.862-94.46Z" transform="translate(-256.144 -209.169)" fill="#af7452"/>
          <path id="Trazado_106906" data-name="Trazado 106906" d="M295.754,202.979c.349-5.377,1.485-16.823-3.69-21.975-2.276-2.266-8.273-2.61-12.579-2.576l-.836-8.924H265.786l-.836,8.924c-5.187-.118-11.091,1.46-13.329,5.5-3.056,5.514-1.864,14.027-1.487,19.053.941,12.505,6.945,20.3,4.994,29.223s-10.52,18.235-8.065,31.794c0,0,8.442,4.5,25.155,4.5s24.64-5.2,24.64-5.2c.7-16.014-5.412-22.871-7.364-31.794S295.042,213.946,295.754,202.979Z" transform="translate(-246.624 -169.505)" fill="#fcdfe1"/>
          <path id="Trazado_106907" data-name="Trazado 106907" d="M273.835,429.231v-.024c-.247,0-.485.008-.728.012s-.481-.012-.728-.012v.024c-15.482.486-23.688,8.59-23.688,8.59h48.833S289.317,429.717,273.835,429.231Z" transform="translate(-247.234 -246.239)" fill="#e99163"/>
          <line id="Línea_319" data-name="Línea 319" y2="98.99" transform="translate(25.594 0)" fill="none" stroke="#b79197" stroke-miterlimit="10" stroke-width="0.878" stroke-dasharray="2.634 2.634"/>
          <path id="Trazado_106908" data-name="Trazado 106908" d="M272.635,182.171s.47,7.527,7.268,6.284,7.268-6.284,7.268-6.284" transform="translate(-254.309 -173.247)" fill="none" stroke="#b79197" stroke-miterlimit="10" stroke-width="0.878" stroke-dasharray="2.634 2.634"/>
          <path id="Trazado_106909" data-name="Trazado 106909" d="M259.238,253.126s14.173,6.695,33.663,0" transform="translate(-250.351 -194.212)" fill="none" stroke="#b79197" stroke-miterlimit="10" stroke-width="0.878" stroke-dasharray="2.634 2.634"/>
        </g>
      </g>
      <g id="Grupo_70127" data-name="Grupo 70127" transform="translate(10.154 0)">
        <path id="Trazado_106910" data-name="Trazado 106910" d="M171.1,135.338s3.695-3.669,5.419-2.6,6.035,3.681,5.188,14.61.154,15.238,1.077,16.084,7.652,11.857,1.308,20.625c-2.924,4.043-18.126-3.386-18.126-3.386Z" transform="translate(-140.667 -132.54)" fill="#2b1811"/>
        <path id="Trazado_106911" data-name="Trazado 106911" d="M154.558,179.331l1,16.931s5.316,3.156,8.892,3.156,3.883-2.4,3.883-2.4l-.6-10.148Z" transform="translate(-137.295 -146.365)" fill="#db6449"/>
        <g id="Grupo_70126" data-name="Grupo 70126" transform="translate(0 0.194)">
          <path id="Trazado_106912" data-name="Trazado 106912" d="M172.494,143.738s5.452,27.261-1.165,32.673c-4.517,3.693-18.941,5.445-19.778-16.546S168.724,133.685,172.494,143.738Z" transform="translate(-136.398 -134.513)" fill="#eb7451"/>
          <g id="Grupo_70125" data-name="Grupo 70125" transform="translate(25.304 18.31)">
            <path id="Trazado_106913" data-name="Trazado 106913" d="M167.822,163.879c0,1.159-.414,2.1-.926,2.1s-.926-.939-.926-2.1.414-2.1.926-2.1S167.822,162.72,167.822,163.879Z" transform="translate(-165.971 -159.683)" fill="#2b1710"/>
            <path id="Trazado_106914" data-name="Trazado 106914" d="M181.486,160.9c0,1.159-.414,2.1-.926,2.1s-.925-.939-.925-2.1.414-2.1.925-2.1S181.486,159.742,181.486,160.9Z" transform="translate(-170.008 -158.803)" fill="#2b1710"/>
            <path id="Trazado_106915" data-name="Trazado 106915" d="M173.642,162.591s4.181,6.849,4.107,7.88-3.451-.328-3.826-.235S172.8,161.184,173.642,162.591Z" transform="translate(-168.124 -159.879)" fill="#c6523e"/>
            <path id="Trazado_106916" data-name="Trazado 106916" d="M174.671,181.359a3.882,3.882,0,0,1-7.711,0c0-1.893,1.57-.662,3.7-.662S174.671,179.466,174.671,181.359Z" transform="translate(-166.263 -165.156)" fill="#fff"/>
          </g>
          <path id="Trazado_106917" data-name="Trazado 106917" d="M152.135,166.456l-6.234-4.675-.847,4.727.385,10.564,7.311-1.233Z" transform="translate(-134.487 -141.373)" fill="#eb7451"/>
          <path id="Trazado_106918" data-name="Trazado 106918" d="M163.326,140.267s-3.771,12.005-12.314,14.545-9.851.693-8.7,6.311,3.642,3.518,3.642,3.518,7.532,16.337,2.36,19.339-15.161,4.694-15.161,4.694-4.31-8.7-2.771-16.623,6.388-7.081,8.081-11.082-1.847-17.7,1.77-22.088S163.71,127.107,163.326,140.267Z" transform="translate(-130.055 -132.814)" fill="#2b1811"/>
        </g>
        <path id="Trazado_106919" data-name="Trazado 106919" d="M134.2,209.441c2.538-3,16.526-6.345,16.526-6.345s8.348,4.917,11.355,0c0,0,12.549,1.343,13.268,5.345.4,2.235.036,16.726-2.36,30.682-1.81,10.539,4.468,20.667,1.026,21.754-7.8,2.463-33.953,3.432-34.248-1.363-.355-5.786,7.087-11.771,6.456-20.39S130.407,213.93,134.2,209.441Z" transform="translate(-131.101 -153.387)" fill="#87bec3"/>
      </g>
      <g id="Grupo_70129" data-name="Grupo 70129" transform="translate(94.848 34.967)">
        <path id="Trazado_106920" data-name="Trazado 106920" d="M264.957,182.171s-8.663,1.434-9.715,1.9a6.311,6.311,0,0,0-2.888,2.975,16.5,16.5,0,0,0-2.021,5.782c-.421,4.083,1.074,26.767,7.613,56.7,2.162,9.9,0,24.43,0,24.43s1.737,2.338,6.062,1.753,4.289,1.887,6.587,1.879,4.293-.822,5.224-.59,2.684-1.639,4.32-.587c0,0-2.855-27.787-5.314-36.4S260.412,207.5,264.957,182.171Z" transform="translate(-250.268 -182.171)" fill="#fead54"/>
        <g id="Grupo_70128" data-name="Grupo 70128" transform="translate(1.112 0.157)">
          <path id="Trazado_106921" data-name="Trazado 106921" d="M264.306,192.221a36.749,36.749,0,0,1,1.285-6.127,34.174,34.174,0,0,0-.405,6.491c.235,6.043,4.706,33.57,5.8,35.008s-5.44-27.069-4.46-35.5c.564-4.848,1.01-7.939,1.289-9.7-.337.057-.748.128-1.21.208l-.326.056c-.682.119-1.448.255-2.221.4a77.876,77.876,0,0,0,.246,25.853C266.987,224.782,263.783,196.995,264.306,192.221Z" transform="translate(-255.175 -182.394)" fill="#fead54" opacity="0.4" style="mix-blend-mode: multiply;isolation: isolate"/>
          <path id="Trazado_106922" data-name="Trazado 106922" d="M259.309,236.321c1.955,4.36-2.054-4.661-2.255-16.892s-.8-24.409-1.1-27.016c-.156-1.352.962-4.213,2.1-6.779-.6,6.1-1.638,22.9,2.86,38.536,5.623,19.55,5.016,20.661,5.581,21.054s-2.915-14.646-4.935-22.623c-1.94-7.663-3.791-30.009-2.008-38.958l-.65.124-.661.13c-.369.075-.715.146-1.029.214l-.057.013c-.576.126-1.032.24-1.3.328-1.284,1.915-4.188,6.576-4,9.314.237,3.509,2.147,19.715,2.295,22.439s.8.169,0-9.631-2.158-13.154-.5-15.762a55.109,55.109,0,0,0,2.967-5.322c-1,2.581-2.166,5.793-2.166,6.873,0,1.9,1.857,25.663,1.806,27.066S257.355,231.96,259.309,236.321Z" transform="translate(-251.846 -182.763)" fill="#fead54" opacity="0.4" style="mix-blend-mode: multiply;isolation: isolate"/>
          <path id="Trazado_106923" data-name="Trazado 106923" d="M270.8,276.457c-.44.563,1.1,20.056.3,24.039a4.47,4.47,0,0,1-1.9,3.114c.134-.013.263-.02.4-.039a5.309,5.309,0,0,1,4.61,1.117C272.6,302.225,271.238,275.9,270.8,276.457Z" transform="translate(-256.974 -210.184)" fill="#fead54" opacity="0.4" style="mix-blend-mode: multiply;isolation: isolate"/>
          <path id="Trazado_106924" data-name="Trazado 106924" d="M263.011,302.189c-1.124-.609-.468-9.043-.609-16.073a29.382,29.382,0,0,0-1.379-9.011c.034.159.067.316.1.476,2.162,9.9,0,24.43,0,24.43a5.2,5.2,0,0,0,2.836,1.626A2.42,2.42,0,0,0,263.011,302.189Z" transform="translate(-254.557 -210.378)" fill="#fead54" opacity="0.4" style="mix-blend-mode: multiply;isolation: isolate"/>
          <path id="Trazado_106925" data-name="Trazado 106925" d="M280.669,276.433c-.187-1.162,3.186,24.141,3,25.687s-.779,1.828-1.842,2.858a.464.464,0,0,0-.156.256,11.928,11.928,0,0,1,3.087-.4c-.187-1.239-.506-3.621-1.041-8.013C282.168,284.126,280.856,277.6,280.669,276.433Z" transform="translate(-260.36 -210.168)" fill="#fead54" opacity="0.4" style="mix-blend-mode: multiply;isolation: isolate"/>
          <path id="Trazado_106926" data-name="Trazado 106926" d="M286.769,283.74c.788,4.973,1.687,19.859,1.835,22.36a2.767,2.767,0,0,1,1.72-.185C289.911,297.512,285.948,278.559,286.769,283.74Z" transform="translate(-262.132 -212.078)" fill="#fead54" opacity="0.4" style="mix-blend-mode: multiply;isolation: isolate"/>
          <path id="Trazado_106927" data-name="Trazado 106927" d="M264.573,263.357s1.315,21.741,1.754,26.65-.13-13.235-.547-17.751S264.343,259.6,264.573,263.357Z" transform="translate(-255.597 -206.031)" fill="#fead54" opacity="0.4" style="mix-blend-mode: multiply;isolation: isolate"/>
          <path id="Trazado_106928" data-name="Trazado 106928" d="M272.767,251.025s3.766,12.8,3.55,22.706,1.537-2.016-.275-12.361S272.409,249.734,272.767,251.025Z" transform="translate(-258.014 -202.55)" fill="#fead54" opacity="0.4" style="mix-blend-mode: multiply;isolation: isolate"/>
        </g>
      </g>
      <path id="Trazado_106929" data-name="Trazado 106929" d="M156.815,202.478l-3.144,1.084a68.148,68.148,0,0,1,7.513,31.359c-.273,17.572-9.286,36.331-6.888,46.667h3.135s-5.354,4.5,2-25.088C168.072,221.77,156.815,202.478,156.815,202.478Z" transform="translate(-126.878 -153.204)" fill="#fcdfe1"/>
      <path id="Trazado_106930" data-name="Trazado 106930" d="M174.032,203.1a33.719,33.719,0,0,1,7.224,21.292c-.2,12.858-1.117,19.208,0,26.592a96.275,96.275,0,0,1,.478,17.524h1.768s.613-10.922-.818-18.516c-2.805-14.885,5.844-32.453-6.363-46.567Z" transform="translate(-132.894 -153.387)" fill="#fcdfe1"/>
      <g id="Grupo_70147" data-name="Grupo 70147" transform="translate(12.649 39.844)">
        <g id="Grupo_70145" data-name="Grupo 70145" transform="translate(0 4.223)">
          <g id="Grupo_70130" data-name="Grupo 70130">
            <path id="Trazado_106931" data-name="Trazado 106931" d="M231.988,198.954c-.681-.306-3.808,2.455-5.141,3.71-.011-.018-.114-.128-.125-.145,1.637-1.793,6.412-6.835,5.969-7.388s-5.256,4.362-6.921,6.093c-.018-.023-.219-.182-.238-.2a11.3,11.3,0,0,0,1.44-4.154c.135-2.106-3.408-1.64-3.507-1.319-.4,1.318,1.726.591,1.626,1.491-.476,4.288-2.386,4.5-2.888,4.6-.456.089-1.78-1.347-1.038-4.1.039-.147,2.094-.457,2.009-1.916-.025-.442-3.412-.385-4.085,1.158,0,0-.236,1.819-.337,2.805a35.358,35.358,0,0,0-.145,3.98,60.675,60.675,0,0,1-11.838,8.733c-9.751,5.075-23.826,10.2-24.647,9.9-12.884-4.634-56.751-27.909-47.171-11.165,6.684,11.685,27.512,21.019,49.278,21.7,9.162.286,33.236-17.234,40.39-24.3v0s7.4-6.177,6.9-6.682c-.217-.217-2.743,1.4-3.955,2.238-.015-.025.014-.075-.037-.157C228.98,202.531,232.689,199.27,231.988,198.954Z" transform="translate(-133.595 -195.088)" fill="#eb7451"/>
          </g>
          <path id="Trazado_106932" data-name="Trazado 106932" d="M235.515,217.9s4.835,6.8,5.118,6.909,8.984-6.224,9.231-6.71-5.4-5.852-5.767-5.795S235.511,216.962,235.515,217.9Z" transform="translate(-163.709 -200.174)" fill="#87bec3"/>
          <path id="Trazado_106933" data-name="Trazado 106933" d="M239.8,213.608s-4.084,3.178-1.081,6.992,5.117,3.623,7.755,1.843,2.765-3.941.795-7.056S242.119,211.892,239.8,213.608Z" transform="translate(-164.33 -200.26)" fill="#728194"/>
          <g id="Grupo_70131" data-name="Grupo 70131" transform="translate(77.36 7.285)">
            <path id="Trazado_106934" data-name="Trazado 106934" d="M244.347,212.048l-.239-5.5h.239l.167,5.5Z" transform="translate(-243.608 -205.759)" fill="#d5d5d5"/>
            <ellipse id="Elipse_4468" data-name="Elipse 4468" cx="0.702" cy="0.574" rx="0.702" ry="0.574" fill="#a34551"/>
          </g>
          <g id="Grupo_70132" data-name="Grupo 70132" transform="translate(70.204 13.683)">
            <path id="Trazado_106935" data-name="Trazado 106935" d="M239.674,216.906l-5.383-1.151.06-.231,5.365,1.221Z" transform="translate(-233.551 -214.809)" fill="#d5d5d5"/>
            <path id="Trazado_106936" data-name="Trazado 106936" d="M234,214.525a.717.717,0,1,1-.732.536A.649.649,0,0,1,234,214.525Z" transform="translate(-233.241 -214.509)" fill="#a34551"/>
          </g>
          <g id="Grupo_70133" data-name="Grupo 70133" transform="translate(72.573 10.768)">
            <path id="Trazado_106937" data-name="Trazado 106937" d="M241.643,215.291l-4.113-3.658.167-.172,4.063,3.71Z" transform="translate(-236.877 -210.694)" fill="#d5d5d5"/>
            <path id="Trazado_106938" data-name="Trazado 106938" d="M237.733,210.511a.717.717,0,1,1-.9.1A.647.647,0,0,1,237.733,210.511Z" transform="translate(-236.604 -210.372)" fill="#fe9594"/>
          </g>
          <g id="Grupo_70134" data-name="Grupo 70134" transform="translate(71.32 17.944)">
            <path id="Trazado_106939" data-name="Trazado 106939" d="M240.51,220.7l-4.452,3.237-.132-.2,4.492-3.177Z" transform="translate(-235.15 -220.557)" fill="#d5d5d5"/>
            <path id="Trazado_106940" data-name="Trazado 106940" d="M235.053,224.413a.717.717,0,1,1-.091.9A.647.647,0,0,1,235.053,224.413Z" transform="translate(-234.825 -221.672)" fill="#a34551"/>
          </g>
          <g id="Grupo_70135" data-name="Grupo 70135" transform="translate(71.277 16.505)">
            <path id="Trazado_106941" data-name="Trazado 106941" d="M241.314,218.68l-5.4,1.069-.036-.236,5.41-1Z" transform="translate(-235.094 -218.514)" fill="#d5d5d5"/>
            <path id="Trazado_106942" data-name="Trazado 106942" d="M235.235,219.04a.717.717,0,1,1-.461.781A.648.648,0,0,1,235.235,219.04Z" transform="translate(-234.765 -218.668)" fill="#fe9594"/>
          </g>
          <g id="Grupo_70136" data-name="Grupo 70136" transform="translate(75.598 17.395)">
            <path id="Trazado_106943" data-name="Trazado 106943" d="M243.548,219.827l-1.4,5.324-.228-.071,1.466-5.3Z" transform="translate(-241.2 -219.778)" fill="#d5d5d5"/>
            <path id="Trazado_106944" data-name="Trazado 106944" d="M240.919,227.157a.717.717,0,1,1,.5.756A.648.648,0,0,1,240.919,227.157Z" transform="translate(-240.898 -221.846)" fill="#fe9594"/>
          </g>
          <g id="Grupo_70137" data-name="Grupo 70137" transform="translate(79.758 18.179)">
            <path id="Trazado_106945" data-name="Trazado 106945" d="M246.927,220.891l3.831,3.953-.179.159-3.777-4Z" transform="translate(-246.802 -220.891)" fill="#d5d5d5"/>
            <path id="Trazado_106946" data-name="Trazado 106946" d="M251.606,227.122a.717.717,0,1,1,.906-.037A.648.648,0,0,1,251.606,227.122Z" transform="translate(-248.185 -222.407)" fill="#a34551"/>
          </g>
          <g id="Grupo_70138" data-name="Grupo 70138" transform="translate(80.898 15.365)">
            <path id="Trazado_106947" data-name="Trazado 106947" d="M248.421,218.989l5.343-1.324.047.234-5.357,1.254Z" transform="translate(-248.421 -217.124)" fill="#d5d5d5"/>
            <path id="Trazado_106948" data-name="Trazado 106948" d="M256.257,218.283a.717.717,0,1,1,.423-.8A.648.648,0,0,1,256.257,218.283Z" transform="translate(-250.524 -216.897)" fill="#a34551"/>
          </g>
          <g id="Grupo_70139" data-name="Grupo 70139" transform="translate(78.427 14.196)">
            <path id="Trazado_106949" data-name="Trazado 106949" d="M244.913,219.082l4.624-2.986.121.206L245,219.226Z" transform="translate(-244.913 -215.491)" fill="#d5d5d5"/>
            <path id="Trazado_106950" data-name="Trazado 106950" d="M251.986,216.515a.717.717,0,1,1,.139-.9A.648.648,0,0,1,251.986,216.515Z" transform="translate(-246.717 -215.237)" fill="#a34551"/>
          </g>
          <g id="Grupo_70140" data-name="Grupo 70140" transform="translate(77.946 18.995)">
            <path id="Trazado_106951" data-name="Trazado 106951" d="M245.21,222.051l.168,5.5-.239,0-.1-5.5Z" transform="translate(-244.47 -222.048)" fill="#d5d5d5"/>
            <path id="Trazado_106952" data-name="Trazado 106952" d="M244.23,229.913a.717.717,0,1,1,.695.583A.648.648,0,0,1,244.23,229.913Z" transform="translate(-244.23 -224.205)" fill="#a34551"/>
          </g>
          <g id="Grupo_70141" data-name="Grupo 70141" transform="translate(79.399 11.421)">
            <path id="Trazado_106953" data-name="Trazado 106953" d="M246.292,216.367l3.626-4.141.173.165-3.678,4.092Z" transform="translate(-246.292 -211.572)" fill="#d5d5d5"/>
            <path id="Trazado_106954" data-name="Trazado 106954" d="M252.1,212.422a.717.717,0,1,1-.111-.9A.648.648,0,0,1,252.1,212.422Z" transform="translate(-247.667 -211.298)" fill="#fe9594"/>
          </g>
          <g id="Grupo_70142" data-name="Grupo 70142" transform="translate(79.115 10.093)">
            <path id="Trazado_106955" data-name="Trazado 106955" d="M245.89,213.693l2.242-3.545.15.1-2.287,3.514Z" transform="translate(-245.89 -209.63)" fill="#d5d5d5"/>
            <path id="Trazado_106956" data-name="Trazado 106956" d="M249.613,210.189a.546.546,0,1,1-.19-.664A.494.494,0,0,1,249.613,210.189Z" transform="translate(-246.711 -209.413)" fill="#a34551"/>
          </g>
          <g id="Grupo_70143" data-name="Grupo 70143" transform="translate(81.844 18.315)">
            <path id="Trazado_106957" data-name="Trazado 106957" d="M249.835,221.084,253.4,223.3l-.1.15-3.533-2.258Z" transform="translate(-249.763 -221.084)" fill="#d5d5d5"/>
            <path id="Trazado_106958" data-name="Trazado 106958" d="M254.492,224.768a.546.546,0,1,1,.663-.2A.494.494,0,0,1,254.492,224.768Z" transform="translate(-251.11 -221.892)" fill="#fe9594"/>
          </g>
          <g id="Grupo_70144" data-name="Grupo 70144" transform="translate(80.24 19.669)">
            <path id="Trazado_106959" data-name="Trazado 106959" d="M247.611,223.005l1.046,4.062-.178.038-.992-4.074Z" transform="translate(-247.486 -223.005)" fill="#d5d5d5"/>
            <path id="Trazado_106960" data-name="Trazado 106960" d="M248.234,228.97a.546.546,0,1,1,.614.317A.493.493,0,0,1,248.234,228.97Z" transform="translate(-247.705 -224.605)" fill="#a34551"/>
          </g>
        </g>
        <g id="Grupo_70146" data-name="Grupo 70146" transform="translate(89.085)">
          <path id="Trazado_106961" data-name="Trazado 106961" d="M261.018,195.75l-.239,0-.115-6.653Z" transform="translate(-260.226 -189.094)" fill="#d5d5d5"/>
          <path id="Trazado_106962" data-name="Trazado 106962" d="M260.042,198.63a.717.717,0,1,1,.722.549A.647.647,0,0,1,260.042,198.63Z" transform="translate(-260.042 -191.734)" fill="#a34551"/>
        </g>
      </g>
    </g>
    <g id="Grupo_70152" data-name="Grupo 70152" transform="translate(272.47 144.261)">
      <g id="Grupo_70149" data-name="Grupo 70149" transform="translate(28.163 33.284)">
        <path id="Trazado_106963" data-name="Trazado 106963" d="M417.8,239.938v-7.271s2.28-1.55,7.112,0v7.271Z" transform="translate(-414.83 -231.978)" fill="#2b1811"/>
        <path id="Trazado_106964" data-name="Trazado 106964" d="M413.584,242.572l.774,71.128H428.3l-1.162-71.2S421.327,238.3,413.584,242.572Z" transform="translate(-413.584 -234.541)" fill="#fe9594"/>
        <path id="Trazado_106965" data-name="Trazado 106965" d="M413.684,252.3l.7,64.642h13.938l-.082-4.994c-5.692-1.48-3.767-30.1-9.356-37.43-5.744-7.534-5.015-22.9-5.015-22.9Z" transform="translate(-413.613 -237.779)" fill="#fe9594" opacity="0.2" style="mix-blend-mode: multiply;isolation: isolate"/>
      </g>
      <g id="Grupo_70150" data-name="Grupo 70150" transform="translate(0 32.614)">
        <path id="Trazado_106966" data-name="Trazado 106966" d="M378.252,241.45s-4.789,7.684-4.639,15.161,5.867,13.173,3.761,21.157-4.062,10.947-3.009,14.881,14.059,5.149,13.991,18.615,9.327-2.26,9.327-2.26L387.6,252.776Z" transform="translate(-373.61 -234.106)" fill="#77afb2"/>
        <path id="Trazado_106967" data-name="Trazado 106967" d="M378.252,241.45s-4.789,7.684-4.639,15.161c.07,3.48,1.346,6.575,2.477,9.694a25.632,25.632,0,0,1-.277-5.261c.118-2.293.865-4.969,3.034-5.721a46.469,46.469,0,0,0,.732,12.865l.679-1.137a23.246,23.246,0,0,1-.585,14.892,45.538,45.538,0,0,0-2.043,5.3,11.509,11.509,0,0,0,.086,5.845c.5,1.783,1.63,3.594,3.428,4.036a25.8,25.8,0,0,1-1.807-6.349,8.687,8.687,0,0,1,1.513-6.277,1.393,1.393,0,0,1,.891-.618c.808-.075,1.154,1,1.182,1.811.077,2.2-.09,4.408.1,6.6a11.208,11.208,0,0,0,2.146,6.141,31.551,31.551,0,0,0-.094-5.1,10.711,10.711,0,0,1,1.722,7.614c-.117.749-.313,1.492-.478,2.235a13.838,13.838,0,0,1,1.537,3.735,4.575,4.575,0,0,0,2.848-1.849,9.664,9.664,0,0,0,1.5-4,46.162,46.162,0,0,0,.586-8.169q.031-7.168-.558-14.321l-4.625-25.8Z" transform="translate(-373.61 -234.106)" fill="#77afb2" opacity="0.2" style="mix-blend-mode: multiply;isolation: isolate"/>
        <path id="Trazado_106968" data-name="Trazado 106968" d="M408.946,316.948,396.17,234.47s-13.358-.528-15.971,4.913l12.486,77.564Z" transform="translate(-375.557 -232.04)" fill="#87bec3"/>
        <path id="Trazado_106969" data-name="Trazado 106969" d="M396.17,234.47s-13.358-.528-15.971,4.913C380.2,239.383,390.947,240.828,396.17,234.47Z" transform="translate(-375.557 -232.04)" fill="#77afb2"/>
        <path id="Trazado_106970" data-name="Trazado 106970" d="M386.8,236.649l-1-4.5a46.769,46.769,0,0,1,5.254-1.124l1.046,4.537A6.081,6.081,0,0,1,386.8,236.649Z" transform="translate(-377.213 -231.026)" fill="#2b1811"/>
        <path id="Trazado_106971" data-name="Trazado 106971" d="M405.745,317.393c-11.225-10-17.2-54.3-19.158-65.811-2.033-11.978,2.776-12.465,2.776-12.465-4.319.418-3.912-1.772-3.256-3.153-2.614.714-4.963,1.9-5.908,3.864l12.486,77.564Z" transform="translate(-375.557 -232.485)" fill="#87bec3" opacity="0.2" style="mix-blend-mode: multiply;isolation: isolate"/>
      </g>
      <g id="Grupo_70151" data-name="Grupo 70151" transform="translate(31.226)">
        <path id="Trazado_106972" data-name="Trazado 106972" d="M467.166,190.989l.007.527a2.9,2.9,0,0,0,1.656-.843q.04,1.21.079,2.419a10.536,10.536,0,0,1,1.585-2.015l.284.771c.054.148.175.33.323.273a.307.307,0,0,0,.141-.161l.153-.3v-6.929Z" transform="translate(-432.479 -184.735)" fill="#2b1811"/>
        <path id="Trazado_106973" data-name="Trazado 106973" d="M455.769,215.235a.341.341,0,0,1-.27-.07c-.111-.122,0-.309.02-.473a.556.556,0,0,0-.523-.555,1.388,1.388,0,0,0-.8.239,6.562,6.562,0,0,0-2.225,2.079,20.413,20.413,0,0,0-2.907-3.7,1.411,1.411,0,0,0-.6-.452,1.33,1.33,0,0,0-.683.038,11.442,11.442,0,0,0-2.7,1.035l-.749-1.866-26.4,95.368,12.434,1.444L456.837,215.2Z" transform="translate(-417.932 -192.647)" fill="#fead54"/>
        <path id="Trazado_106974" data-name="Trazado 106974" d="M430.366,335.12l9.357-32.917a7.085,7.085,0,0,0-.883.691,13.361,13.361,0,0,0-2.82,4.238,52.807,52.807,0,0,1-3,6.191,9.449,9.449,0,0,1-5.209,4.262c-2.381.648-3.946-.042-5.035-1.393l-4.84,17.484Z" transform="translate(-417.932 -219.443)" fill="#fead54" opacity="0.4" style="mix-blend-mode: multiply;isolation: isolate"/>
        <path id="Trazado_106975" data-name="Trazado 106975" d="M458.853,206.921a1.33,1.33,0,0,1,.683-.038,1.411,1.411,0,0,1,.6.452,20.418,20.418,0,0,1,2.907,3.7,6.561,6.561,0,0,1,2.225-2.079,1.388,1.388,0,0,1,.8-.239.556.556,0,0,1,.523.555c-.02.163-.132.351-.02.473a.341.341,0,0,0,.27.07l1.068-.03.01-.034V194.155l-.153.3a.307.307,0,0,1-.141.161c-.148.056-.268-.125-.323-.273l-.284-.771a10.535,10.535,0,0,0-1.585,2.015q-.039-1.209-.079-2.419a2.9,2.9,0,0,1-1.656.843l-.007-.527-8.121,12.014-.165.6.749,1.866A11.444,11.444,0,0,1,458.853,206.921Z" transform="translate(-429.004 -187.225)" fill="#eb7451"/>
      </g>
      <path id="Trazado_106976" data-name="Trazado 106976" d="M392.319,330.3l5.227,72.215s13.5,6.408,25.7.468l3.4-72.683Z" transform="translate(-379.138 -227.745)" fill="#57464c"/>
      <path id="Trazado_106977" data-name="Trazado 106977" d="M426.644,330.3H392.319l.053.737c6.552,1.541,19.868,5.741,22.32,14.8,3.277,12.11,4.4,52.961-.889,54.143-3.01.674-10.967-1.358-16.564-1.7l.307,4.236s13.5,6.408,25.7.468Z" transform="translate(-379.138 -227.745)" fill="#57464c" opacity="0.2" style="mix-blend-mode: multiply;isolation: isolate"/>
    </g>
    <g id="Grupo_70153" data-name="Grupo 70153" transform="translate(84.79 102.894)">
      <path id="Trazado_106978" data-name="Trazado 106978" d="M199.646,133.205l.8,2.183a.864.864,0,0,0,1.647-.082l.545-2.1a.864.864,0,0,1,.435-.548l1.9-1a.864.864,0,0,0-.041-1.55l-1.634-.751a.86.86,0,0,1-.416-.409l-1.181-2.44a.864.864,0,0,0-1.623.2l-.475,2.245a.862.862,0,0,1-.546.631l-1.959.724a.864.864,0,0,0-.006,1.618l2.043.771A.86.86,0,0,1,199.646,133.205Z" transform="translate(-133.611 -126.02)" fill="#fead54"/>
      <path id="Trazado_106979" data-name="Trazado 106979" d="M212.283,183.778l.8,2.183a.864.864,0,0,0,1.647-.082l.545-2.1a.865.865,0,0,1,.435-.548l1.9-1a.864.864,0,0,0-.041-1.55l-1.635-.751a.861.861,0,0,1-.417-.409l-1.18-2.441a.864.864,0,0,0-1.623.2l-.475,2.246a.862.862,0,0,1-.546.631l-1.959.724a.864.864,0,0,0-.006,1.618l2.042.771A.863.863,0,0,1,212.283,183.778Z" transform="translate(-137.345 -140.962)" fill="#fead54"/>
      <path id="Trazado_106980" data-name="Trazado 106980" d="M117.277,143.8l.8,2.183a.864.864,0,0,0,1.647-.081l.545-2.1a.865.865,0,0,1,.435-.548l1.9-1a.864.864,0,0,0-.041-1.55l-1.634-.751a.864.864,0,0,1-.417-.409l-1.181-2.44a.864.864,0,0,0-1.623.2l-.476,2.246a.864.864,0,0,1-.546.631l-1.959.723a.864.864,0,0,0-.006,1.619l2.043.771A.865.865,0,0,1,117.277,143.8Z" transform="translate(-109.273 -129.15)" fill="#fead54"/>
      <path id="Trazado_106981" data-name="Trazado 106981" d="M272.457,136.751l.8,2.183a.864.864,0,0,0,1.647-.081l.545-2.1a.865.865,0,0,1,.435-.548l1.9-1a.864.864,0,0,0-.041-1.55l-1.634-.751a.864.864,0,0,1-.417-.409l-1.181-2.44a.864.864,0,0,0-1.622.2l-.476,2.245a.863.863,0,0,1-.546.632l-1.959.723a.864.864,0,0,0-.006,1.619l2.043.771A.865.865,0,0,1,272.457,136.751Z" transform="translate(-155.124 -127.067)" fill="#fead54"/>
      <path id="Trazado_106982" data-name="Trazado 106982" d="M199.646,269.789l.8,2.183a.864.864,0,0,0,1.647-.082l.545-2.1a.864.864,0,0,1,.435-.548l1.9-1a.864.864,0,0,0-.041-1.55l-1.634-.751a.863.863,0,0,1-.416-.409l-1.181-2.44a.864.864,0,0,0-1.623.2l-.475,2.246a.864.864,0,0,1-.546.631l-1.959.723a.864.864,0,0,0-.006,1.619l2.043.771A.862.862,0,0,1,199.646,269.789Z" transform="translate(-133.611 -166.376)" fill="#fead54"/>
      <path id="Trazado_106983" data-name="Trazado 106983" d="M127.274,250.027l.8,2.183a.864.864,0,0,0,1.647-.081l.545-2.1a.865.865,0,0,1,.435-.548l1.9-1a.864.864,0,0,0-.042-1.55l-1.634-.751a.864.864,0,0,1-.417-.409l-1.18-2.441a.864.864,0,0,0-1.623.2l-.475,2.245a.865.865,0,0,1-.546.632l-1.959.723a.864.864,0,0,0-.006,1.619l2.043.771A.865.865,0,0,1,127.274,250.027Z" transform="translate(-112.227 -160.537)" fill="#fead54"/>
      <path id="Trazado_106984" data-name="Trazado 106984" d="M216.731,159.227l.32.869a.344.344,0,0,0,.656-.032l.217-.837a.344.344,0,0,1,.173-.218l.757-.4a.344.344,0,0,0-.016-.617l-.651-.3a.341.341,0,0,1-.166-.163l-.47-.972a.344.344,0,0,0-.647.078l-.189.895a.345.345,0,0,1-.218.252l-.78.287a.344.344,0,0,0,0,.645l.814.307A.343.343,0,0,1,216.731,159.227Z" transform="translate(-139.212 -134.986)" fill="#fead54"/>
      <path id="Trazado_106985" data-name="Trazado 106985" d="M108.458,240.271l.319.869a.344.344,0,0,0,.656-.032l.218-.837a.341.341,0,0,1,.173-.218l.758-.4a.344.344,0,0,0-.016-.617l-.651-.3a.348.348,0,0,1-.166-.163l-.47-.972a.344.344,0,0,0-.646.079l-.19.894a.343.343,0,0,1-.217.252l-.781.288a.344.344,0,0,0,0,.645l.814.306A.346.346,0,0,1,108.458,240.271Z" transform="translate(-107.22 -158.932)" fill="#fead54"/>
      <path id="Trazado_106986" data-name="Trazado 106986" d="M115.344,212.769l.319.869a.344.344,0,0,0,.656-.032l.218-.837a.343.343,0,0,1,.173-.218l.758-.4a.345.345,0,0,0-.016-.618l-.651-.3a.346.346,0,0,1-.166-.163l-.47-.972a.344.344,0,0,0-.646.078l-.189.895a.344.344,0,0,1-.217.252l-.781.287a.344.344,0,0,0,0,.645l.814.307A.345.345,0,0,1,115.344,212.769Z" transform="translate(-109.255 -150.806)" fill="#fead54"/>
    </g>
  </g>
</svg>
